/* XPM */
static char *_[] = {
/* columns rows colors chars-per-pixel */
"50 36 85 1 ",
"  c #020623",
". c #060A26",
"X c #080B27",
"o c #0B0E29",
"O c #0E112B",
"+ c #12152E",
"@ c #151730",
"# c #161A31",
"$ c #1B1D34",
"% c #1E2136",
"& c #202237",
"* c #24253A",
"= c #26283B",
"- c #2A2B3E",
"; c #2F2F41",
": c #302F42",
"> c #2E3240",
", c #343444",
"< c #363845",
"1 c #383A47",
"2 c #393748",
"3 c #3C3B4A",
"4 c #413F4D",
"5 c #3F424B",
"6 c #43444E",
"7 c #45484F",
"8 c #464350",
"9 c #494652",
"0 c #464950",
"q c #4A4C53",
"w c #514F57",
"e c #534E59",
"r c #4E5155",
"t c #515357",
"y c #55545A",
"u c #5B565E",
"i c #55585A",
"p c #5A5D5D",
"a c #5D605F",
"s c #5E5A60",
"d c #635D64",
"f c #5F6160",
"g c #636663",
"h c #686767",
"j c #666865",
"k c #696B67",
"l c #6C656A",
"z c #6C6C69",
"x c #736C6F",
"c c #6F706B",
"v c #73746E",
"b c #756D70",
"n c #767670",
"m c #7A7373",
"M c #7C7B74",
"N c #807777",
"B c #807F77",
"V c #857D7A",
"C c #86847C",
"Z c #89867D",
"A c #8C887F",
"S c #8E8481",
"D c #8D8A80",
"F c #908682",
"G c #938D84",
"H c #988E87",
"J c #9B8F89",
"K c #969086",
"L c #989187",
"P c #9D948A",
"I c #A1968D",
"U c #A2998E",
"Y c #A69A90",
"T c #AA9E93",
"R c #AEA295",
"E c #B0A297",
"W c #B3A599",
"Q c #B7A99C",
"! c #BCAD9F",
"~ c #BEAEA0",
"^ c #BFB0A1",
"/ c #C3B3A3",
"( c #C8B7A7",
") c #C8B8A7",
"_ c None",
/* pixels */
"__________________.             __________________",
"__________________oooooooooooooo__________________",
"__________________$$$$$$$$$$$$$$__________________",
"_________________*;224222242222:=_________________",
"________________$:4edddddddddde4:@________________",
"_______________o$2sbVSSSVSSSSVbs3%o_______________",
"______________o@;8lFYEEEETTEEYSd8-@o______________",
"_____________$&:3smJW////////QINu3;&$_____________",
"____________$:44ubFY/////////~YSbs93:*____________",
"___________+;4exNFYEQ/////////EIFNxu4-@___________",
"__________.#:ebSYYEQ!/!/~~~//Q~ETIFxe:@.__________",
"_________+$=4dVYQ/!/!Q/!Q~~QQ~~//WYVd3*+O_________",
"________==,4sbHE////Q!!!!!Q/~Q//(/TFl0>%#O________",
"_______&,8sdmFYQ///!/!!!!Q/Q~/////WJmp5>=%@_______",
"_____.O=4dbVJYEQ!/!!!!!!/QQ/Q/////WPBhr5>%#OX_____",
"_____.+=8lFYW~~Q!!/!!Q/!!!/Q~Q~Q~!EIZvar5=%OO_____",
"_____.O=9zLQ//^^!!~!~~~Q~~QQQWWQWWRPCMji5<=%##____",
"_____ O=qnP!))/^!!!/~~~~~QQRRRRRRRPKCnkar5<-=%%___",
"_____ O*9bP!))/^!/!~~~^^~QWRUPKLPLKZBckaiq555=%+OX",
"_____.O=9bLQ//^^!!!!~^^^~QRYLGGDDGABncjaaaat5-%#OX",
"____XO#>9bFE!!QQQQ~QQ~QQQRRPKDCZZCCBncjjajgaq5=#o.",
"____#%=1wzSIRRRREETTTTRRRRPLDZCCBCCMnvccckkar5-#oX",
".o@$%>10yzMSKLLUIIYIYYYYUPLKZCCCCCCBBnncccjat5-%O.",
".o@%>59ishcMBADGHHHHKKGKKKDDCCCCCCCBCBBnvcjgar____",
"Xo+%<0ifgjjkvMCCAAAAAAAAAACCACCCCCCCCCBBnckgaa____",
".o@*<qafjjgjcvMBCCCCCCCCCCCCCCCCCZZZZCCBMvkgg_____",
".o@*<rfgjgggkcMBCCCCCCCCCCCCCCCACCCZZZCCMvcj______",
"Xo@*<qfgjjggkvMBCCCCCCCCCCCCCCCCCZCZZZCCBM________",
".o@%<qafjjgjkvMCCCACCCCCCCCCCCCCCZCCCZCCC_________",
".O@*<qafjjgjkvMBCCCCACCCACCCCACCZCZCCCCCC_________",
".O@*<rafgggkcvMCCCACCCACCCCCCCCAZCCCZCCZ__________",
"_______jjggkkvMCCACCCCCCCCACCCCCCZCZCC____________",
"________gggjzvMCCZZZCCCCCCZCZCCCCCACC_____________",
"_________ggjcvMBCZZCZCZCZCCCCCACCCCCZ_____________",
"_________fgjcvMCCZZCCCCCCCZCZCZCCCCC______________",
"_________ggjkvMBCZZCCZCZZCZCCCCCCACC______________"
};
