/* XPM */
static char *_3[] = {
/* columns rows colors chars-per-pixel */
"50 37 78 1 ",
"  c #030724",
". c #050925",
"X c #080B27",
"o c #0A0D29",
"O c #0E112B",
"+ c #12152E",
"@ c #161830",
"# c #1C1E34",
"$ c #1E2036",
"% c #202337",
"& c #222338",
"* c #26293B",
"= c #2A2A3E",
"- c #2D303F",
"; c #2E2D41",
": c #302F42",
"> c #323443",
", c #383647",
"< c #383B47",
"1 c #393748",
"2 c #3C3B4A",
"3 c #413F4E",
"4 c #3F424B",
"5 c #42424E",
"6 c #454250",
"7 c #484552",
"8 c #464950",
"9 c #4B4C53",
"0 c #534F59",
"q c #4D5055",
"w c #515157",
"e c #55545A",
"r c #59545D",
"t c #575A5B",
"y c #5D5C5F",
"u c #5D605F",
"i c #5E5961",
"p c #615B62",
"a c #5F6260",
"s c #636663",
"d c #666965",
"f c #696B67",
"g c #6C656A",
"h c #6C6E69",
"j c #716A6D",
"k c #6F716B",
"l c #72736E",
"z c #776F71",
"x c #767770",
"c c #7C7475",
"v c #777871",
"b c #7C7B74",
"n c #807F77",
"m c #857D7A",
"M c #897F7D",
"N c #86847B",
"B c #88867D",
"V c #8B887F",
"C c #8F8581",
"Z c #8F8A81",
"A c #918783",
"S c #938D84",
"D c #988D87",
"F c #969086",
"G c #9C938A",
"H c #A1958D",
"J c #A29A8E",
"K c #A69B91",
"L c #A99D92",
"P c #AEA296",
"I c #B0A497",
"U c #B3A599",
"Y c #B6A99B",
"T c #BCAD9F",
"R c #BEAEA0",
"E c #BFB0A1",
"W c #C2B2A3",
"Q c None",
/* pixels */
"QQQQQQQQQQQQQQQQQQQQQ..... ..QQQQQQQQQQQQQQQQQQQQQ",
"QQQQQQQQQQQQQQQQQQQQQ######&#QQQQQQQQQQQQQQQQQQQQQ",
"QQQQQQQQQQQQQQQQQQQQ=70rr0r07*QQQQQQQQQQQQQQQQQQQQ",
"QQQQQQQQQQQQQQQQQQQO1jDHGHHDz1O.oooXoQQQQQQQQQQQQQ",
"QQQQQQQQQQQQQQQQQQ&:0AYWWWWYA0:=;::;*QQQQQQQQQQQQQ",
"QQQQQQQQQQQQQQQQQ#6gMKWWWWWWKMzgjjjg0=.QQQQQQQQQQQ",
"QQQQQQQQQQQQQQQQ+;pGYTRRRRRYYULPIUUKz1+QQQQQQQQQQQ",
"QQQQQQQQQQQQQQQ&1rMUWWTTTRTRWWWWWWWTDp3:QQQQQQQQQQ",
"QQQQQQQQQQQQQQ+3gAKTEETTRYTTRRWRWWWTLDc9$.QQQQQQQQ",
"QQQQQQQQQQQQQ#;rSTETTRTTRRTRTTTTTTTTWWHp&XQQQQQQQQ",
"QQQQQQQQQQQQ&3pmPWWETTTTRRRRRTRTTTTTWWKp& QQQQQQQQ",
"QQQQQQQQQQQo:gDPYRETTTTTRTYRTTTTRTTRWWHp&.QQQQQQQQ",
"QQQQQQQQQQ&:0CYWWYRRTTTYUIYRTYRRRTTTWWJg>@QQQQQQQQ",
"QQQQQQQQQ#3gMKRWRRYRRTTPHKLYRRTRTTTTWWLbw,$+QQQQQQ",
"QQQQQQQQO*pGYRRTRYRRTEYKSSKYRRTTTTTTTTPVf8*+XQQQQQ",
"QQQQQQQ*2rMIWWRTRRTRREYJSSKYRRRRTTWRYIJNkq*O.QQQQQ",
"QQQQQQO2kSPYEETTRRYRERYJSSKTERRRRRRTIJVnfq*O.QQQQQ",
"QQQQQO$9NUTTTTTTTTRRTEYJVVGIYYYYYYYUKVnlfq-#@QQQQQ",
"QQQQ$*<iBPYREEEERRRREEYGNbVGJJGJJKJGVnkfuu84-@QQQQ",
"QQQo$<tfnSKYTTTTRRRYTRYFlkbVZZZZZZVBNkfffuuq4$OQQQ",
"QQQo$4akvnFPIIIIPPPPPUPVkflNBNNNNNNNbfduuddu4$oQQQ",
"QQQX$4ahklNZGGGFGGGGGGFnkflnBNNNNNNNvkaddddu4$oQQQ",
"QQQ+$5addfxNBVBBBBBBVVNvffvNBBNNNBBNbkdadddu4*OQQQ",
"QQ$=<qadadlbNNNNNNNNNNnvffvNBBNNBBBNvfadudduq4-$QQ",
"o@-8tuusaflnNBNNNNNNNBNlffvNNBNNBBBNvfaassdaut8-@X",
"X@>wsdsddkvNBBBNBNBNBNNxfflNNNNBNBBNbkfddsssddw>@X",
"X@>tdddfkvnNBBBBNNNBBBNlffvNBBBNBNBNNvkkdasdddt>@X",
"X@>tddskbnNBNNNNNBNBNBNvfhvNBBNBNBNNNNnkfsasddt>@X",
"X@4tsddkbBBBBNNBNBNNBBNvfflNBBNNNBNBBBNvfdaddst<@X",
"QQ8usadknBBBNNBNBNNBBBnvfflNBBBNBNBNBBnldasssdu9QQ",
"QQQsssskbBBBNBBNNBBNBBNvkkvNBBNBNBBNBBNlfuadsssQQQ",
"QQQQsuflnNBNBNNBNNBNNBNbvlbNBBNNBNNBBBnvfdudssQQQQ",
"QQQQQQQQNNNBNNBNBNBBNBNNnnNNNBNNBBNBBNNlfssssQQQQQ",
"QQQQQQQQNBBBNBBNNNNNBNNNnnNNBNNBNNNNBBnvfsssQQQQQQ",
"QQQQQQQQQQQQNNNNNBBNNBNnvvbNNBNNNBBNNBNbQQQQQQQQQQ",
"QQQQQQQQQQQQQBNBBNNBBBNvkfvNBBBBNNNBNNNNQQQQQQQQQQ",
"QQQQQQQQQQQQQBBNNBNNBNNvfflNNBNNBNBNNBNQQQQQQQQQQQ"
};
