/* XPM */
static char *_[] = {
/* columns rows colors chars-per-pixel */
"50 32 85 1 ",
"  c #020623",
". c #060A26",
"X c #080B27",
"o c #0B0E29",
"O c #0E112B",
"+ c #12152E",
"@ c #161931",
"# c #1B1C34",
"$ c #1D2035",
"% c #202337",
"& c #24253A",
"* c #26293B",
"= c #292A3D",
"- c #2E2E41",
"; c #2E3241",
": c #343444",
"> c #383747",
", c #363945",
"< c #383A47",
"1 c #393748",
"2 c #3B3B49",
"3 c #413F4D",
"4 c #3E424B",
"5 c #43434E",
"6 c #45484F",
"7 c #464351",
"8 c #4A4653",
"9 c #464950",
"0 c #4B4C53",
"q c #504C57",
"w c #514C58",
"e c #4E5155",
"r c #515457",
"t c #535359",
"y c #5A555E",
"u c #56595B",
"i c #5B5D5E",
"p c #5D605F",
"a c #5E5961",
"s c #625C63",
"d c #5F6160",
"f c #636663",
"g c #686167",
"h c #666965",
"j c #686A67",
"k c #6D666A",
"l c #6C6C69",
"z c #726A6E",
"x c #6E706B",
"c c #72726D",
"v c #756D70",
"b c #767670",
"n c #7C7574",
"m c #7C7B74",
"M c #807777",
"N c #807D77",
"B c #867C7B",
"V c #897F7D",
"C c #86847B",
"Z c #89857D",
"A c #8B887F",
"S c #8D8380",
"D c #8E8A81",
"F c #938C84",
"G c #988D87",
"H c #9A8E88",
"J c #969086",
"K c #989287",
"L c #9C948A",
"P c #A2968E",
"I c #A2998E",
"U c #A69D91",
"Y c #AA9E93",
"T c #ADA195",
"R c #B0A497",
"E c #B3A699",
"W c #B6A99B",
"Q c #BBAD9F",
"! c #BEAFA0",
"~ c #BFB0A1",
"^ c #C3B3A4",
"/ c #C8B7A7",
"( c #C8B8A7",
") c #CAB9A8",
"_ c None",
/* pixels */
"______________                  __________________",
"______________o.oooooooXoooooooo__________________",
"_____________###################__________________",
"_____________-::>>>>>>>:>>>>>>:-=_________________",
"____________&33yssssaasayssssaw3:@________________",
"__________.+-8kMBVVVBBBVBBBSVMzs2#X   ..__________",
"_________oO#>yMGYYYYYUYPYYYYYPVk8=+XoO+O+_________",
"_________#&:8sSY!^^!!!!!!^^^^WHMy1=%&&=&&_________",
"________->3qsMHE^^^^!^^^^^^^^!YSzy8338332-________",
"______+&>0svBGY!^^^^^^^^!^^^^^RHSnzzkzks02$O______",
"_____.+&3sMFPYR!^!!!!!!!!!!!!!WYUHHHHHFMs7*+X_____",
"_____ +&8kFYW!!W!!!!W!!E!!!W!!!!WEEWWWTGz0=@O_____",
"_____ +=8vH!^^^!!W!!!!W!!!!!!!!!Q~^^^^WPny2&@+____",
"_____ o*qvP!//^!!!W!!W!!!W!WE!!!^^^^)(~YVg9:*$@___",
"_____ O&8vP!^^^^!!!!!!!!W!!!!W!!^^^^(^!YSby94*$O. ",
"_____.+=8zGE^^^!!!W!!W!W!!W!!!!!QQQ!~^WYGmht4=$+OX",
"____O+$=0zFTWQWWR!W!~Q~W~~QQ!QWQWWWWWWEUKCxpe4*$@+",
"____$%=<tlCKUUTTYRR!W~~QW~!!!QWWRRTTTRULANcpr44*=*",
"XO@$*=46ukmCAKKLYYRW~~~~~!~!~!WETILLLLLJCmxpp9944,",
".O@*=40uihcbmCAAHPYEW~~~~~!~!!ETIKJJKJJAmbxhprpree",
".o+%:6uphhhjcbNCFLTRWQQWQWWQWWRULFAAACCCmcjhpppppp",
".o+&,ephhhfhjcmCDJLTTEEEEEERERTLJACCCCCCmbxjxjhhhh",
"Xo+&,ephhfffjxmNZFKLTTITTITTLTLKDCCCCCCmmmbccxjxjh",
".O@&,0ihhfffjxmCZDFJJKKKKKLKLKJFACCCCCCCCmmmmcc___",
".o+&,9phhhdhxxmNCAADDDDDDDDDDDDDACCCACCCCmCCCm____",
"Xo+&,0uhhhhhxbmNCCACACACACCCCCCCCACCCCCACCCCC_____",
"XO+&,epdhhhhxbmCACCCCCCCCCCCCCCCCCCCCCCCZZZZ______",
"___________xxmCCCCCCCCCCCCCCCCCCCCCACAC___________",
"_____________mCCCCCCCCCCCCCCCCCCCACCZ_____________",
"_____________CCCACACACCCCCCACCCCCCCCC_____________",
"______________ACCACCCCCCCCCCCCCACCZC______________",
"______________CCCCCCCCACCACCACCCCZCZ______________"
};
