/* XPM */
static char *_[] = {
/* columns rows colors chars-per-pixel */
"50 36 87 1 ",
"  c #010523",
". c #050926",
"X c #080B27",
"o c #0B0E29",
"O c #0E112B",
"+ c #12152E",
"@ c #14182F",
"# c #151730",
"$ c #161931",
"% c #1A1D33",
"& c #1E2136",
"* c #202237",
"= c #23243A",
"- c #26293B",
"; c #2A2C3E",
": c #2F2E41",
"> c #302F42",
", c #2E3141",
"< c #343444",
"1 c #383647",
"2 c #363945",
"3 c #383C47",
"4 c #393748",
"5 c #3C3C49",
"6 c #423F4E",
"7 c #3E414B",
"8 c #42434E",
"9 c #44484F",
"0 c #464451",
"q c #494653",
"w c #464950",
"e c #4C4B54",
"r c #504C57",
"t c #524E58",
"y c #4E5156",
"u c #515457",
"i c #54545A",
"p c #5B565F",
"a c #575A5B",
"s c #5A5C5D",
"d c #5D605F",
"f c #5D5760",
"g c #5E5960",
"h c #635E64",
"j c #5E6260",
"k c #636563",
"l c #686267",
"z c #676966",
"x c #686B67",
"c c #6A6469",
"v c #6C6D69",
"b c #726B6E",
"n c #6F706B",
"m c #72726D",
"M c #767670",
"N c #7C7474",
"B c #777871",
"V c #7C7B74",
"C c #807F77",
"Z c #847B7A",
"A c #887E7D",
"S c #86847B",
"D c #89867D",
"F c #8B887F",
"G c #8E8680",
"H c #8E8A80",
"J c #918783",
"K c #938D84",
"L c #998E88",
"P c #979186",
"I c #989287",
"U c #9C938A",
"Y c #A1958D",
"T c #A2998E",
"R c #A69B91",
"E c #AA9E93",
"W c #ADA195",
"Q c #B0A397",
"! c #B2A599",
"~ c #B6A99B",
"^ c #BAAC9E",
"/ c #BDAEA0",
"( c #BFB0A1",
") c #C3B3A4",
"_ c #C8B7A7",
"` c #C8B8A7",
"' c None",
/* pixels */
"''''''''''''''                      ''''''''''''''",
"''''''''''''''.X.. .................''''''''''''''",
"''''''''''''''ooooooooooXoooooXooooo''''''''''''''",
"''''''''''''''########$#############''''''''''''''",
"''''''''''''''====================**''''''''''''''",
"'''''''''''''=:><1144411114444441<<::'''''''''''''",
"'''''''''''':>66qerrrrrrrrrrtttrrq65>-''''''''''''",
"''''''''''o#=16tfhhcccccchcccccchhpq4:%O''''''''''",
"''''''''' o%:6rhbNZZAAZZAZZZAAAZNbht6>%+.'''''''''",
"'''''''' o+*>6fcZGLYUUUULLYLYLLLJZbfq>*#o.''''''''",
"'''''''Xo+%-6rhZGYEQ!~QQQEQEQQQEYGNhr1=$OX.'''''''",
"'''''''#$*-<6pcALE~////////////!RLNcr5:%@OO'''''''",
"''''''*-:>16thZJRQ)))_))(((()/~QRLCca82-&$@@''''''",
"'''''->166rphZALQ/))```)))((//^ETLCbsw3;-=&&@'''''",
"''o#*:4qthhbZALRQ/))``__))((^~QEUKCbhu972;=&&@OooX",
" .o#=<6thbZZJLRQ!/)))_))((/~!QEUPGCmlsy772;=&$OOXX",
" .o#=<qgbZKITE!~/)/)(((((^~QWWIPKSVMxjayw7,;&$+oXX",
" .o#=1ehNFUEW~~~~~~~^(((~~!WWIIHDCVBnzddy97;=$+OXX",
" .o#=1ehNJTW~~~~/~~~^^^^~!WWTIPHSCVBMvkdaw7;=%OoXX",
" .o#*<qhNJTE!~~!Q!Q!!!!!!WWTUIHDSCVBmnzjay7;-%+OX.",
" .o#=<0gmSLTEWWWEEWWWWWWWTTIIPHSCCVBMnzkdy92;&@oX ",
"..o#*;8icCFLTTTTYYURRTURTTTIIPHSSCVBnnvzdu97;&@O. ",
".Xo+*;5rhmCDFFIILUUUIIUIIIPKKHDSCCVBMvxkday97'''''",
".Xo+%-2wicmNSSFFJKKKPPPKKKKKHHHSSCVBmvzzdduw''''''",
".Xo+%=<8ydznBCCSDFFFFFFFHHHFFFDSSVVBmvzkjds'''''''",
".Xo+%=;5yadxnBBCSSFDFFFDDDDDDDDSSCVmnvzkkkd'''''''",
".Xo+%-28uadznmBVCCSSFDSDSSSDSDDSSVVBmnzzkk''''''''",
"..o+&;;87adkxnBCCCSSDDSSSSSSSDSSSCVmnvzkk'''''''''",
"'.O@*;79uadzxnBVCSSSSSSSSSSSSSSSSCVBnnz'''''''''''",
"'''''279udjzxnBBCCSSDSDSSSSSFSF'''''''''''''''''''",
"''''''wuadjzxmBBCCSSSDDSSSSFFF''''''''''''''''''''",
"'''''''dddzznmBVCSSSDDDSSSSSS'''''''''''''''''''''",
"'''''''djkkzvmBVCSSSSFSSDSDSS'''''''''''''''''''''",
"'''''''kkkzzvnMVCSSSFSFSSDSDD'''''''''''''''''''''",
"'''''''kjkkzvnMVCSSSSSFDDSDSS'''''''''''''''''''''",
"'''''''kkkzzvnMVCSSSFSSSSDSDD'''''''''''''''''''''"
};
