/* XPM */
static char *_[] = {
/* columns rows colors chars-per-pixel */
"50 33 85 1 ",
"  c #010523",
". c #070A27",
"X c #080B27",
"o c #0C0F2A",
"O c #0E112C",
"+ c #12152E",
"@ c #14182F",
"# c #151730",
"$ c #161931",
"% c #1B1D34",
"& c #1E2036",
"* c #202237",
"= c #232439",
"- c #26293B",
"; c #2A2C3E",
": c #2E2D40",
"> c #302F42",
", c #2F3041",
"< c #333444",
"1 c #353845",
"2 c #383C47",
"3 c #393748",
"4 c #3C3C4A",
"5 c #413F4D",
"6 c #3D404A",
"7 c #43434E",
"8 c #464451",
"9 c #494552",
"0 c #4C4C54",
"q c #504E57",
"w c #524E59",
"e c #4E5155",
"r c #515457",
"t c #535559",
"y c #5A555E",
"u c #57595B",
"i c #5B5D5E",
"p c #5D615F",
"a c #5D5760",
"s c #5E5A60",
"d c #625D63",
"f c #5F6260",
"g c #636563",
"h c #666965",
"j c #696B67",
"k c #6B6469",
"l c #6C6D69",
"z c #726B6E",
"x c #6F706B",
"c c #72726D",
"v c #766E70",
"b c #767670",
"n c #7C7474",
"m c #7C7B74",
"M c #807777",
"N c #807F77",
"B c #837D79",
"V c #86847B",
"C c #89857D",
"Z c #8C887F",
"A c #8E8580",
"S c #8D8980",
"D c #918783",
"F c #948C84",
"G c #988F87",
"H c #9B8F89",
"J c #969186",
"K c #989187",
"L c #9D938B",
"P c #A1968D",
"I c #A39A8F",
"U c #A69B90",
"Y c #AB9E94",
"T c #ADA195",
"R c #B0A497",
"E c #B3A699",
"W c #B6A99B",
"Q c #BBAC9F",
"! c #BEAEA0",
"~ c #BFB0A1",
"^ c #C3B3A4",
"/ c #C8B7A7",
"( c #C9B8A7",
") c #CBBAA9",
"_ c None",
/* pixels */
"_____________________. .  .   . ._________________",
"_____________________Oooooooooooo_________________",
"_____________________*==***&*=&=&&________________",
"____________________>555999899954>________________",
"__________.       X=5ydvvvzzvvzka5=o______________",
"_________OoooooX..+;0vDLPPHLPPPDvw>+._____________",
"________%%&*%&&%++%<yMUW^!WW!^!YAd5=%+____________",
"_______-<3555553:;;7dDT^^^^^^^^EFna53;____________",
"______#<9skzzlkdw97rzFR^/^^^^^^WYDMka5:O__________",
"_____X%3anDHLLFBcgignGR!^^^!!!!!EYPDvw>#X_________",
"____X+=7kDR!!QRIZbjcBLRQ^!!WW!!W!!!YDd5=$O________",
"___#%*<0vPW/(/!TFMccVLE!^!!!!!!!^^^WLMd51;________",
".o@&-17gBUQ()(!TJNccVPE!^^!W!!!!!^^!YFMky5:#______",
".O@=17ucAUW///QTFmzcVLE!!!!!!WW!!!!WWYPDby3%X_____",
".o#;6rgmFUWQQQWIZblcBHTWW!!!!W!!!!!!!!WRDk5&OX____",
".o%;6ujmDLTREETLZbllnDLYTEW!!!!!!W!!^^^WLv0>&&____",
"XO&6epjbVJIIIILJVcljcmZZURW!~~!!!!!!^^^!INp61-&@OX",
"___7rpjcNZSJKJFCmchhjxbVZIE!~~!!!QQ!!^^QUZxp6,&$OX",
"____pfjxbNCZZZVNbxhggghbCPTWQQQWQQWQ!!QWUJbfe6-@O.",
"_____hjxmNVVCZVNbxhgppgxVZIREEEERRRRREETLSNjr6-@o.",
"______xcmNVVCVVmbxhgppgjbCLUUUIIIIIIUUILKZNjr6-@o.",
"________NNVVVCVNblhggfgjbVZZZPLZJJJJJJJJSNchr6-@O.",
"________VVVVCVVNblhgffgjcmVCZZZZZZZZZZZZVNxhr6;&o.",
"_________VCVVVVNblhggggjcbVVZCCCVVVVCCCNNbxgu6;&o.",
"__________CCZVVmcjhhhfgjxbNVVVVVVVVVVVVVNbxgu01&o.",
"________________xjfppphjcmNVVVVVVVVVVVVVNbxhpr6___",
"________________hhhhhfgjxmVVVVVVVCVCVVCVNcxhgi____",
"_________________ffhphhjcmNVZZVVVCVVVZCVNbxhg_____",
"__________________hghhfxbmVVVZVVVCVVVCCVVmxj______",
"________________________mNVZVVVVVCVCCCVVVmb_______",
"_________________________VVVVZZVVCVVVVCVVV________",
"_________________________VVVVVVVCVCVVZVVVC________",
"_________________________CCCVVCVCVVCVVCVCZ________"
};
