/* XPM */
static char *_[] = {
/* columns rows colors chars-per-pixel */
"50 30 256 2 ",
"   c #000220",
".  c #030724",
"X  c #040725",
"o  c #050825",
"O  c #050926",
"+  c #070A27",
"@  c #0D102A",
"#  c #0D102B",
"$  c #0E102B",
"%  c #10132D",
"&  c #12142E",
"*  c #12152E",
"=  c #161931",
"-  c #171A31",
";  c #171B31",
":  c #191B33",
">  c #1A1D33",
",  c #1B1D34",
"<  c #1C1D34",
"1  c #1F2037",
"2  c #232639",
"3  c #23243A",
"4  c #25253A",
"5  c #24273A",
"6  c #26263B",
"7  c #26293B",
"8  c #29293D",
"9  c #2A2A3E",
"0  c #2C2B3F",
"q  c #2B2E3E",
"w  c #2C2D3F",
"e  c #2D303F",
"r  c #2D2C40",
"t  c #2D3040",
"y  c #323143",
"u  c #313442",
"i  c #343345",
"p  c #3B3949",
"a  c #3A3C49",
"s  c #3B3C4A",
"d  c #43434E",
"f  c #42454E",
"g  c #43464E",
"h  c #44474E",
"j  c #4C4854",
"k  c #4F4B56",
"l  c #524E58",
"z  c #544F5A",
"x  c #505357",
"c  c #515458",
"v  c #56595B",
"b  c #575A5B",
"n  c #5A5A5E",
"m  c #5B5A5E",
"M  c #5C5B5F",
"N  c #5A5D5D",
"B  c #5B5E5E",
"V  c #5C5C5F",
"C  c #5D605F",
"Z  c #635D64",
"A  c #5F6260",
"S  c #606461",
"D  c #616461",
"F  c #616462",
"G  c #616562",
"H  c #626562",
"J  c #626563",
"K  c #636663",
"L  c #646763",
"P  c #646365",
"I  c #646764",
"U  c #656566",
"Y  c #666666",
"T  c #676666",
"R  c #646864",
"E  c #656864",
"W  c #656865",
"Q  c #666965",
"!  c #676965",
"~  c #676A66",
"^  c #686A66",
"/  c #686A67",
"(  c #696B67",
")  c #696C67",
"_  c #696368",
"`  c #6C656A",
"'  c #6A6C68",
"]  c #6C6E69",
"[  c #6D6C6B",
"{  c #6D6F6A",
"}  c #6E6F6A",
"|  c #6E6F6B",
" . c #70696D",
".. c #71696D",
"X. c #726B6E",
"o. c #6F706B",
"O. c #71716C",
"+. c #72736D",
"@. c #72736E",
"#. c #74736E",
"$. c #73746E",
"%. c #75746F",
"&. c #74756F",
"*. c #75756F",
"=. c #756D70",
"-. c #757470",
";. c #757670",
":. c #767670",
">. c #767770",
",. c #777771",
"<. c #797172",
"1. c #787771",
"2. c #7B7574",
"3. c #7D7575",
"4. c #7F7676",
"5. c #787871",
"6. c #787872",
"7. c #7D7C75",
"8. c #7D7D75",
"9. c #7E7C76",
"0. c #7E7D76",
"q. c #7F7D76",
"w. c #7F7E76",
"e. c #807777",
"r. c #807E77",
"t. c #807F77",
"y. c #837A79",
"u. c #847A7A",
"i. c #847B7A",
"p. c #827E78",
"a. c #837F78",
"s. c #877D7C",
"d. c #897F7D",
"f. c #828179",
"g. c #838279",
"h. c #848079",
"j. c #84827A",
"k. c #84837A",
"l. c #85837A",
"z. c #85837B",
"x. c #86827A",
"c. c #87827B",
"v. c #85847B",
"b. c #86847B",
"n. c #86847C",
"m. c #86857C",
"M. c #87857C",
"N. c #8A807E",
"B. c #8B817F",
"V. c #8C827F",
"C. c #8D827F",
"Z. c #88857C",
"A. c #89857D",
"S. c #8A857D",
"D. c #88867C",
"F. c #88867D",
"G. c #89867D",
"H. c #88877D",
"J. c #89877D",
"K. c #8A877E",
"L. c #8C877F",
"P. c #8A887E",
"I. c #8B887E",
"U. c #8B887F",
"Y. c #8B897F",
"T. c #8D887F",
"R. c #8E8481",
"E. c #8D8980",
"W. c #8E8880",
"Q. c #8E8980",
"!. c #8E8A80",
"~. c #8E8A81",
"^. c #8E8B81",
"/. c #8F8B81",
"(. c #8E8C81",
"). c #908B82",
"_. c #908C82",
"`. c #918D83",
"'. c #928E83",
"]. c #938D84",
"[. c #938E84",
"{. c #958E84",
"}. c #948F84",
"|. c #978F86",
" X c #969086",
".X c #979186",
"XX c #979187",
"oX c #989287",
"OX c #999288",
"+X c #9A9388",
"@X c #9B9489",
"#X c #9C958A",
"$X c #9D968B",
"%X c #9F978C",
"&X c #A29A8E",
"*X c #A39A8E",
"=X c #A69990",
"-X c #A59B90",
";X c #A59C90",
":X c #A69C90",
">X c #A79D91",
",X c #A89E92",
"<X c #A99F92",
"1X c #AD9F95",
"2X c #ABA094",
"3X c #ADA095",
"4X c #ACA195",
"5X c #ADA195",
"6X c #AEA195",
"7X c #AFA196",
"8X c #AEA396",
"9X c #AFA396",
"0X c #AFA397",
"qX c #B0A497",
"wX c #B1A498",
"eX c #B1A598",
"rX c #B2A598",
"tX c #B2A499",
"yX c #B3A599",
"uX c #B3A699",
"iX c #B4A799",
"pX c #B5A69A",
"aX c #B4A79A",
"sX c #B5A89A",
"dX c #B6A89B",
"fX c #B6A99B",
"gX c #B7A99B",
"hX c #B7A99C",
"jX c #B8AA9C",
"kX c #B9AA9D",
"lX c #B9AB9D",
"zX c #BAAB9D",
"xX c #BAAB9E",
"cX c #BAAC9E",
"vX c #BBAC9E",
"bX c #BBAD9F",
"nX c #BCAD9F",
"mX c #BDAD9F",
"MX c #BDAE9F",
"NX c #BDAEA0",
"BX c #BEAEA0",
"VX c #BEAFA0",
"CX c #BEAFA1",
"ZX c #BFAFA1",
"AX c #BFB0A1",
"SX c #C0B0A1",
"DX c #C0B0A2",
"FX c #C1B1A2",
"GX c #C1B2A3",
"HX c #C2B2A3",
"JX c #C2B3A3",
"KX c #C3B2A4",
"LX c #C4B4A4",
"PX c #C5B5A5",
"IX c #CBBAA9",
"UX c None",
/* pixels */
"UXUXUXUXUXUXUXUXUXUXUXUX# # $ $ $ $ $ $ # UXUXUXUXUXUXUXUXUXUXUXUXUXUXUXUXUXUXUXUXUXUXUXUXUXUXUXUXUX",
"UXUXUXUXUXUXUXUXUXUXUX8 <.e.3.3.3.3.3.y.=.1   . . . X X X UXUXUXUXUXUXUXUXUXUXUXUXUXUXUXUXUXUXUXUXUX",
"UXUXUXUXUXUXUXUXUXUXy ` nXLXGXGXLXGXGXLXhXZ k l l l l c k UXUXUXUXUXUXUXUXUXUXUXUXUXUXUXUXUXUXUXUXUX",
"UXUXUXUXUXUXUXUXUX3 X.GXnXnXNXnXnXnXnXnXNXNXNXNXNXNXAXGX=Xa 8 0 0 0 0 w 0 UXUXUXUXUXUXUXUXUXUXUXUXUX",
"UXUXUXUXUXUXUXUX: i.jXnXnXnXnXnXnXnXnXnXnXnXnXnXnXnXnXNXjX4X1X1X1X1X1XyXV.< % * * * * * * UXUXUXUXUX",
"UXUXUXUXUXUXUX6 i.tXGXnXnXnXnXnXnXnXnXnXnXnXnXnXnXnXnXnXnXNXDXDXGXBXBXGXpXV.d.d.N.N.N.R._ % UXUXUXUX",
"UXUXUXUXUXUXi X.jXGXvXnXnXnXnXnXnXnXnXnXnXnXnXnXnXnXnXnXnXnXNXnXnXnXnXnXnXKXKXKXGXKXKXIXd.@ UXUXUXUX",
"UXUXUXUXUX8 X.GXnXnXnXnXnXnXnXnXnXnXnXnXnXnXnXnXnXnXnXnXnXnXnXnXnXnXnXnXnXnXnXnXnXnXNXsX2.2 UXUXUXUX",
"UXUXUXUX< y.NXnXnXnXnXnXnXnXnXnXnXnXnXnXnXnXnXnXnXnXnXnXnXnXnXnXnXnXnXnXnXnXnXnXnXnXjXF.~ v > UXUXUX",
"UXUXUX6 V.pXGXnXnXnXnXnXnXnXnXnXnXnXnXbXnXnXnXnXnXnXnXnXnXnXnXnXnXnXnXnXnXnXnXnXNXjXz./ G N > UXUXUX",
"UXUXw M @X*X@X*XnXNXNXNXnXnXnXnXnXnXnXnXnXnXnXnXnXnXnXnXnXnXnXnXnXnXnXnXnXnXnXDXtXF.) G ~ N ; UXUXUX",
"UXo s I.m.v.v./.<X4X2XqXnXNXNXNXnXnXnXnXnXnXnXnXnXnXnXnXnXnXnXnXnXnXnXnXbXnXBXqXL.I G G G C u > UXUX",
"UXo a m.F.m.m.F.F.F.m.{.pXhXsXjXnXNXNXnXnXnXnXnXnXnXnXnXnXnXnXnXnXnXnXnXnXnXjXV.I I G I G I G e + UX",
"UXo s F.F.m.F.m.m.m.m.F./.(./.@XjXNXnXnXnXNXnXnXnXnXnXnXbXnXnXnXnXnXnXnXnXjXt.I G I G I I I ~ w + UX",
"# d [ m.m.m.m.v.v.z.v.z.z.z.f.I.@X@X+X:XNXNXNXNXnXnXnXnXnXnXnXnXnXnXbXBXpXz./ G G I I J I G G 9 X UX",
"# V (.m.m.v./.@X@X@X@X@X+X@X@X`.6.f.z.).:X<X<XqXNXNXNXNXnXnXnXnXnXnXBXqXL.I G J I I G I L G I g 6 UX",
"@ n E.F././.*XNXNXNXNXNXNXNXNX:X-.9.z.F.F.v.v.oXpXtXaXsXAXvXnXnXnXnXsXF.I I G I I J I G I I G ~ g # ",
"# n I./.tXhXjXvXjXNXjXNXNXNXNXNX4X*.-.F.F.v.F.F.T.T.I.%XvXvXvXvXnXjXt.L I G I J G I J I G I I ~ g # ",
"UX-.F.{.vXAXNXNXNXNXNXNXjXNXNXNXjX*.*.F.M.M.F.F.v.v.v.T.oX X X@X`.t.) G I G I I I J I J G I I I v UX",
"UXUXI n /.tXAXNXNXNXNXNXNXNXwX:X%XO.*.F.M.F.v.v.H.v.I.v.v.v.v.v.9.G G L G I I G J I G I I G I G UXUX",
"UXUXUX; N {.0XtXtXtXqXtXwXtX+Xm.f.) *.F.v.v.v.F.m.m.m.F.m.m.m.I.9.L L G I G I I I G J I G I I UXUXUX",
"UXUXUX, N ~ 5.I.F.E.F.I.F.E.F.F.v.) 6.I.I.I.F.F.F.F.m.m.m.F.m.m.f.~ G L I I G G J I I G I J UXUXUXUX",
"UXUXUX> N K $.m.m.m.m.m.n.n.m.F.z.) T.tXqXqX Xv.m.F.m.F.m.F.F.m.v.9.[ G G I I I I J I I J UXUXUXUXUX",
"UXUXUX7 A K $.F.m.m.m.m.F.m.m.F.F.)  XGXNXNX4X+XF.m.m.F.m.m.F.m.I.v.[ G G I G I J I G I UXUXUXUXUXUX",
"UXUXUXUXG G *.m.m.F.m.m.m.F.m.9.Y I z.4XnXNXGX<X9.v.F.m.m.F.m.m.F.v.[ G G L I G I G G UXUXUXUXUXUXUX",
"UXUXUXUXUXG $.F.F.m.m.F.F.m./.I < x I t.sXjXjXoX' f.F.m.F.m.m.F.F.v.o.L G L I G I I UXUXUXUXUXUXUXUX",
"UXUXUXUXUXUXf.m.F.m.m.m.m.m.T.I = x L +.`.`.[.t.) f.F.m.F.m.m.F.F.m.f.$.G L I I G UXUXUXUXUXUXUXUXUX",
"UXUXUXUXUXUXUXUXUXUXUXUXUXUXUXUXUXV L [ z.v.v.6./ f.F.m.m.m.F.m.m.v.I.6.G L G L UXUXUXUXUXUXUXUXUXUX",
"UXUXUXUXUXUXUXUXUXUXUXUXUXUXUXUXUXI G o.m.F.F.9./ f.F.m.m.m.F.m.F.m.F.-.G I I UXUXUXUXUXUXUXUXUXUXUX",
"UXUXUXUXUXUXUXUXUXUXUXUXUXUXUXUXUXUXG [ v.F.m.m.UXUXUXUXUXF.F.m.F.F.F.-.G G UXUXUXUXUXUXUXUXUXUXUXUX"
};
