/* XPM */
static char *PlaceForTower1[] = {
/* columns rows colors chars-per-pixel */
"50 49 197 2 ",
"   c #13112A",
".  c #2A1C2E",
"X  c #2F1E30",
"o  c #2E202E",
"O  c #33222E",
"+  c #352332",
"@  c #3D2532",
"#  c #3E2934",
"$  c #3F333E",
"%  c #462A34",
"&  c #4C2C35",
"*  c #46333B",
"=  c #4B363B",
"-  c #53373A",
";  c #533B3E",
":  c #5B3B3A",
">  c #5C3136",
",  c #45252F",
"<  c #633638",
"1  c #693739",
"2  c #653A3A",
"3  c #6A3A3A",
"4  c #663436",
"5  c #743D3B",
"6  c #7B3F3B",
"7  c #5E413F",
"8  c #6C453F",
"9  c #62413F",
"0  c #7E423D",
"q  c #71443F",
"w  c #3C3545",
"e  c #353D58",
"r  c #4C3A41",
"t  c #4C3F48",
"y  c #443B48",
"u  c #553E41",
"i  c #3D445D",
"p  c #4C404A",
"a  c #5C4241",
"s  c #5E484A",
"d  c #4E4D5F",
"f  c #584E59",
"g  c #654541",
"h  c #6D4A43",
"j  c #644948",
"k  c #724B43",
"l  c #7C4D44",
"z  c #7C5246",
"x  c #765046",
"c  c #6D5759",
"v  c #6A5354",
"b  c #7E5B53",
"n  c #4B5166",
"m  c #52586D",
"M  c #53566A",
"N  c #4D5C7B",
"B  c #57627C",
"V  c #6A6775",
"C  c #82423C",
"Z  c #91493F",
"A  c #A74F3E",
"S  c #834F44",
"D  c #874940",
"F  c #9A4D40",
"G  c #835545",
"H  c #8B5346",
"J  c #8A5946",
"K  c #8A5C4B",
"L  c #865747",
"P  c #945345",
"I  c #9D5444",
"U  c #9A5847",
"Y  c #915F4B",
"T  c #9B5B48",
"R  c #A35444",
"E  c #AC5644",
"W  c #AE5845",
"Q  c #A35B48",
"!  c #B15744",
"~  c #B55945",
"^  c #BA5B46",
"/  c #B35D48",
"(  c #95614A",
")  c #9B654C",
"_  c #84625B",
"`  c #A1674B",
"'  c #A3694E",
"]  c #AB684D",
"[  c #BC654B",
"{  c #A66C50",
"}  c #AB6E51",
"|  c #B36E51",
" . c #AD7052",
".. c #B37453",
"X. c #BB7753",
"o. c #BD7A56",
"O. c #B97B5A",
"+. c #8B6D66",
"@. c #957A73",
"#. c #C05E47",
"$. c #C96E4F",
"%. c #C47F58",
"&. c #C67C56",
"*. c #D27954",
"=. c #9C857E",
"-. c #B78D7A",
";. c #C68059",
":. c #CB8359",
">. c #CB8157",
",. c #D2865A",
"<. c #DC8C5D",
"1. c #D9875A",
"2. c #E4925F",
"3. c #ED965F",
"4. c #F1975E",
"5. c #D98E60",
"6. c #DA9268",
"7. c #C99172",
"8. c #D79B79",
"9. c #DA9A75",
"0. c #C88B6A",
"q. c #E59462",
"w. c #EB9661",
"e. c #EE9862",
"r. c #E4996B",
"t. c #F19A63",
"y. c #F09760",
"u. c #596986",
"i. c #6C758B",
"p. c #6A7186",
"a. c #747A89",
"s. c #6C7F9D",
"d. c #747C91",
"f. c #636B81",
"g. c #7B818D",
"h. c #73819C",
"j. c #7A849B",
"k. c #7F8A9F",
"l. c #6A81A3",
"z. c #7B8EAB",
"x. c #7287A5",
"c. c #93858A",
"v. c #848A95",
"b. c #888A98",
"n. c #83838C",
"m. c #A88C83",
"M. c #B89B93",
"N. c #B59589",
"B. c #B7A29C",
"V. c #828DA1",
"C. c #8393AD",
"Z. c #8C94A6",
"A. c #999FA8",
"S. c #939CAE",
"D. c #8496B1",
"F. c #8899B3",
"G. c #8798B2",
"H. c #9BA2AA",
"J. c #9AA3B4",
"K. c #91A1B8",
"L. c #9DA9BB",
"P. c #98A6BA",
"I. c #BCABA5",
"U. c #BAA7A1",
"Y. c #BEB2AB",
"T. c #A5AEBE",
"R. c #AFACB3",
"E. c #CEA498",
"W. c #C3B6AF",
"Q. c #CFB6AA",
"!. c #D5AEA2",
"~. c #96A9C1",
"^. c #9BAEC5",
"/. c #92A6C0",
"(. c #A1ADC1",
"). c #A3B1C5",
"_. c #A9B4C5",
"`. c #A9B6C8",
"'. c #AEB9CA",
"]. c #B0B8C6",
"[. c #B3BDCC",
"{. c #B9C1CF",
"}. c #BCC4D1",
"|. c #B4C1D2",
" X c #D8D5CE",
".X c #C1C9D5",
"XX c #C1CCD9",
"oX c #D0C9C3",
"OX c #E3E3DD",
"+X c #E0E6E3",
"@X c #EBECE6",
"#X c #E5ECE8",
"$X c #F3F6EF",
"%X c #F5FBF4",
"&X c #F8FDF6",
"*X c #FEFFFB",
"=X c None",
/* pixels */
"=X=X=X=X=X=X=X=X=X=X=X=X=X=X=X=X=Xw.w.=X=X=X=X=X=X=X=X=X=X=X=X=X=X=X=X=X=X=X=X=X=X=X=X=X=X=X=X=X=X=X",
"=X=X=X=X=X=X=X=X=X=X=X=X=X=X=X=X=Xw.w.=Xw.w.t.g i m m m m n =X=X=X=X=X=X=X=X=X=X=X=X=X=X=X=X=X=X=X=X",
"=X=X=X=X=X=X=X=X=X=X=Xw.=X=X=X=X=X=Xw.w.w.=X=Xh S..X}.}..X].a.i.a.i.e =X=Xw.=X=X=X=X=X=X=X=X=X=X=X=X",
"=X=X=X=X=X=X=X=X=X=X=Xw.=Xw.w.=X=X=X=Xw.w.t.) V {.}.}.}.}.}..X.X}.[.N   t.e.=X=X=X=X=X=X=X=X=X=X=X=X",
"=X=X=X=X=X=X=X=X=X=X=Xw.w.w.w.3.=X=Xw.w.w.t.J i.}.[.[.[.}.}.}.}.{.z.B L t.=X=X=X=X=X=X=X=X=X=X=X=X=X",
"=X=X=X=X=X=X=X=X=X=X=Xw.w.w.e.t.e.w.w.w.w.t.J u.^.~.^.~.`.'.`.'.'.x.c.=X=Xw.=X=X=X=X=X=X=X=X=X=X=X=X",
"=X=X=X=X=X=X=X=Xw.w.=Xe.w.e.} h ,.w.w.w.w.t.J u.^.~.~.~.~.~.~.~.P.x.7.e.w.w.w.=Xw.w.w.=X=X=X=X=X=X=X",
"=X=X=X=Xw.w.=X=Xw.w.w.2.u = V Z.v <.w.w.w.w.,.0.8.8.+.k.[.D.F.L.P.b.q.w.w.w.w.=X=Xw.w.w.=X=X=X=X=X=X",
"=X=X=Xw.w.w.=X=X=Xw.t.2.w K.].}.J.v ,.e.w.w.w.w.w.X.M [.|.C.K r.r.6.w.w.w.w.w.w.w.e.=X=X=X=X=X=X=X=X",
"=X=X=X=Xw.w.=X=Xe.,.( Y V ).[.}.}.J.c ,.e.w.w.w.e.>.+.Q.U.M.q.w.3.w.w.w.w.w.t.t.e.{ G =X=X=X=X=X=X=X",
"=X=X=X=X=Xw.w.w.t.) e a.].[.^.{.}.}.J.c ,.e.3.3.w.w.e.w.w.w.w.w.w.w.w.w.w.<.k k h 2 1 @ =X=X=X=X=X=X",
"=X=X=X=Xw.w.w.w.t.) f.XX`.v.p.^.{.`.z.i X.e.3.3.e.w.w.w.w.w.w.w.w.w.w.w.e.&.@ C C ! #.3 =Xt.w.=X=X=X",
"=Xw.=Xw.w.w.w.w.e.} V R.9.6.<.B.z.l.v.f >.4.2.&.%.>.t.t.t.t.3.w.w.w.w.w.w.w.*.^ ^ ~ ^ 1 ( t.w.w.=X=X",
"=Xw.=X=Xw.w.w.w.3.3.q.q.3.3.e.q.m.-.;.Y ( ) : . , X Y ( ( } w.w.w.w.w.w.w.w.1.~ ~ ~ ^ < ) t.w.w.=X=X",
"=X=X=X=X=Xw.w.w.w.w.w.w.e.w.w.w.e.t.z m v.v.v.B.!.b.v.v.g.$ 2.w.w.w.w.w.w.w.1.~ ~ ~ ~ F g =X=X=X=X=X",
"=X=Xw.w.w.w.w.w.w.w.w.w.w.w.w.w.w.t.L H.*X&X&XI.=.@X&X&X#Xt 2.w.w.w.w.w.w.w.&.U ~ ~ ~ ~ & } =X=X=X=X",
"=X=Xw.w.w.w.w.w.w.w.w.w.w.w.w.w.w.t.G H.%X%XW.k q @.OX$X+Xp 2.3.w.w.w.w.e.t.:.U ~ ~ ~ ^ & o.e.=X=X=X",
"=Xw.w.w.w.w.w.w.w.w.w.w.w.w.w.w.w.t.z H.%X%XoX_ k q @.OX+Xp 2.3.w.w.w.e...{ w.*.! ~ ~ ^ % %.y.=X=X=X",
"=Xw.=Xw.w.w.w.w.w.w.w.w.w.w.w.w.3.t.G H.%X%X X+.q x 8 I.#Xp 2.3.w.w.e. .2 < k P ~ ~ ~ ~ C z 2.w.=X=X",
"=X=X=Xw.w.w.e.w.2.<.2.w.w.w.q.w.w.t.0 H.&X X_ x B.b =.OX+Xp 2.3.w.w.e.k D ! 0 D R ~ ~ ~ ~ X >.e.=X=X",
"=X=X=Xt.t.2.%.%.- + K t.w.w.w.w.w.t.L H.@X_ x Y.$XOX@X$X+Xp 2.3.w.e.} < ! ~ ^ U Q ^ ~ ~ ! X =Xe.=X=X",
"e.=Xt...) G % & R 5 z t.w.w.w.w.w.t.z H.%X=.W.%X%X&X%X%X#Xp 2.3.w.2.S 6 ^ ^ I } $.~ ~ ~ ! @ 5.w.=X=X",
",.z z 2 > C ^ ~ ^ 5 z t.w.w.w.w.w.t.z n n.g.g.N.E.n.g.g.a.$ 2.3.y.&.% ^ ~ ! T :.$.! ~ ~ ~ 5 L =Xw.w.",
"..+ 6 E ^ ~ ~ ~ ^ R 2 X.q.2.q.e.e.e.,.{ ` { 7 4 A O ) ) ) ..w.3.2.h D ^ ~ R ) w.] E ~ ~ ~ R   =X=X=X",
"..& ^ ^ ~ R I ~ ~ ^ 1 + % # G :.;.>.:.>.,.5.) 0 / 9 w.e.e.e.w.w.>.& W ~ ~ H <.e.{ E ~ ~ ~ R . =X=X=X",
"%.q W ~ ~ ~ ~ ~ ~ ~ ! W W ! 0 % % % & % # = w.2.2.2.w.w.w.w.w.e.- F ~ ~ R { q.w.2.[ ^ W R D * w.=X=X",
"y.o.P ^ ~ ~ R W ~ ~ ~ ~ ~ ~ ~ ^ ^ ^ ~ ^ A * w.w.3.3.3.w.w.w.e. .3 E ~ ^ H <.w.w.w.Q U S h h ( w.=X=X",
"=X<.[ ! ~ ~ P I ~ ! ~ ! ! ! ~ ~ ~ ! ~ ~ ! q ( t.3.3.w.w.w.w.t.h C ^ ~ I ..w.w.w.q.H k ( %.>.e.w.=X=X",
"=Xw.} R ~ ~ ! H l l l l l l P W W W E E W C g t.w.w.w.w.w.w.t.h - S W P >.w.w.w.w.5.<.2.e.e.=X=X=X=X",
"=Xw.X.W ~ ~ ~ P H S S S g ( G k k k k k k ; g t.w.w.w.w.w.w.e.( z Y k } w.w.w.w.w.w.w.w.w.w.=X=X=X=X",
"=Xe.e.] ! ~ ! ~ ~ ~ ~ ! 3 ' :. .} }  . . .) { e.w.w.w.w.w.3.w.e.t.q. .,.t.e.e.w.w.w.w.w.w.w.w.=X=X=X",
"=X=X=XL W ~ ~ ! P ~ ~ ~ F - e.e.e.e.e.e.e.e.e.w.w.w.w.w.2.2.2.2.5.h a a a u G e.w.w.w.w.=X=Xw.=X=X=X",
"=X=X=X,./ ~ ~ ~ W ~ ~ ~ F : 5.e.w.w.w.w.w.w.w.w.w.w.w.w.g w y t p Z.J.J.J.k.- e.w.=X=Xw.=X=Xw.=X=X=X",
"=X=Xw.q.H ! ~ ~ ! R ~ ~ ^ 6 z t.w.w.w.w.w.w.w.w.w.w.w.q.= L.].].'.}.}.}..XJ.u e.w.=X=Xw.w.=X=X=X=X=X",
"w.w.=Xq.| ~ ~ ~ W I ~ ~ ^ 6 x t.w.w.w.w.w.w.3.w.w.w.w.3.r T.}.}.}.}.}.}.}.T.u w.w.w.w.w.w.w.=X=X=X=X",
"=X=X=Xe.<.I ~ ~ ^ ~ ~ ! P : x t.w.w.w.w.w.w.w.w.w.w.w.w.r T.{.{.}.].F.G.F.h.r e.w.=X=X=Xw.=X=X=X=X=X",
"=X=X=X=X,.P ^ W W R l l G u G t.w.w.w.w.w.w.w.w.w.w.w.q.* l.z.C.C.h.j.d.j.i.j w.=X=X=X=X=X=X=X=X=X=X",
"=X=X=X=X=X&.R l k l Y Y <.2.q.e.w.e.t.t.w.w.w.w.w.w.w.w.h B K.|.'.d O.r.q.q.q.w.=X=X=X=X=X=X=X=X=X=X",
"=X=X=X=X=X..k ) } o.w.w.w.w.e.w.e.,.G J <.e.w.w.w.w.w.w.<.p |.}.^.u.u e.q.w.w.w.w.w.=X=Xw.=X=X=X=X=X",
"=X=X=X=X=X=X .<.=Xe.w.w.w.w.w.w.,.c g.d.v <.w.e.w.w.w.w.<.w G.F.x.a.O.w.=X=Xw.=Xw.w.=X=X=X=X=X=X=X=X",
"=X=X=X=X=Xe.t.=X=Xw.w.=X=Xw.w.q.j J..X{.e j 5.e.w.w.w.w.q.:.-.h.j.7.e.w.w.w.w.=Xw.=X=X=X=X=X=X=X=X=X",
"=X=X=X=X=Xw.w.=Xw.w.=X=X=X=Xw.2.w ^._.C.).V.h e.w.w.w.w.w.w.q.q.q.w.w.w.w.w.=X=X=X=X=X=X=X=X=X=X=X=X",
"=X=X=X=X=X=Xw.=X=Xw.w.=X=X=Xw.2.K c.l.l.E.N.' e.w.w.w.w.w.w.w.w.e.w.=X=Xw.w.=X=X=X=X=X=X=X=X=X=X=X=X",
"=X=X=X=X=X=X=X=X=X=X=Xw.w.w.w.e.=X6.-.-.6.e.e.w.w.=Xw.w.w.=X=Xw.w.=X=X=Xw.=X=X=X=X=X=X=X=X=X=X=X=X=X",
"=X=X=X=X=X=X=X=X=X=X=X=X=Xw.w.=X=X=X4.e.e.w.w.w.w.=X=Xw.=X=X=X=Xw.w.w.=X=X=X=X=X=X=X=X=X=X=X=X=X=X=X",
"=X=X=X=X=X=X=X=X=X=X=X=X=X=X=Xw.=X=Xw.w.=X=Xw.w.w.w.w.=X=X=X=X=Xw.w.=X=X=X=X=X=X=X=X=X=X=X=X=X=X=X=X",
"=X=X=X=X=X=X=X=X=X=X=X=X=X=X=X=X=Xw.w.w.=Xw.w.=X=X=Xw.w.=X=X=X=X=X=X=X=X=X=X=X=X=X=X=X=X=X=X=X=X=X=X",
"=X=X=X=X=X=X=X=X=X=X=X=X=X=X=X=X=X=X=X=X=X=X=X=X=X=X=X=X=Xw.=X=X=X=X=X=X=X=X=X=X=X=X=X=X=X=X=X=X=X=X",
"=X=X=X=X=X=X=X=X=X=X=X=X=X=X=X=X=X=X=X=X=X=X=X=X=X=X=X=X=Xw.w.=X=X=X=X=X=X=X=X=X=X=X=X=X=X=X=X=X=X=X"
};
