/* XPM */
static char *PlaceForTower2[] = {
/* columns rows colors chars-per-pixel */
"49 50 178 2 ",
"   c #342A29",
".  c #2D2335",
"X  c #2C2B3E",
"o  c #272136",
"O  c #3A2A35",
"+  c #342C3B",
"@  c #3A2D3B",
"#  c #3C3232",
"$  c #3E343C",
"%  c #443139",
"&  c #433A3A",
"*  c #4C463F",
"=  c #6E763F",
"-  c #2C2E40",
";  c #333444",
":  c #393647",
">  c #373748",
",  c #353845",
"<  c #4B3644",
"1  c #4C3A45",
"2  c #463945",
"3  c #553D41",
"4  c #563E49",
"5  c #4A414B",
"6  c #4C4343",
"7  c #524045",
"8  c #53424A",
"9  c #59434D",
"0  c #5F4443",
"q  c #5C5C4B",
"w  c #49485B",
"e  c #524D5A",
"r  c #564E57",
"t  c #5C5556",
"y  c #5A545D",
"u  c #664641",
"i  c #644D44",
"p  c #6D4A43",
"a  c #6B4B4E",
"s  c #64494C",
"d  c #714C43",
"f  c #724F4F",
"g  c #77524B",
"h  c #6C4E54",
"j  c #654A50",
"k  c #635C5D",
"l  c #6D565A",
"z  c #735255",
"x  c #775658",
"c  c #795759",
"v  c #7B5959",
"b  c #785351",
"n  c #6C7141",
"m  c #5D5860",
"M  c #5F6367",
"N  c #5B6176",
"B  c #646564",
"V  c #696964",
"C  c #686869",
"Z  c #73696B",
"A  c #71736E",
"S  c #766770",
"D  c #756E72",
"F  c #797A74",
"G  c #7C7476",
"H  c #875948",
"J  c #8A5B4A",
"K  c #925F49",
"L  c #8B5D51",
"P  c #94624C",
"I  c #9A644B",
"U  c #976C4C",
"Y  c #866958",
"T  c #966352",
"R  c #9F6854",
"E  c #A76B4E",
"W  c #A86D50",
"Q  c #A16B54",
"!  c #B27352",
"~  c #B87654",
"^  c #BD7A55",
"/  c #B87758",
"(  c #807062",
")  c #8D7562",
"_  c #947762",
"`  c #807D77",
"'  c #C67F57",
"]  c #C27D59",
"[  c #8E9549",
"{  c #B69252",
"}  c #A7AF4F",
"|  c #A8AF4F",
" . c #A5B04F",
".. c #ABAE50",
"X. c #BEA755",
"o. c #B3AB52",
"O. c #BAA954",
"+. c #B9A359",
"@. c #B1B352",
"#. c #9B826E",
"$. c #86847C",
"%. c #89867D",
"&. c #8B8877",
"*. c #988777",
"=. c #998877",
"-. c #928F71",
";. c #A78063",
":. c #BA8562",
">. c #BD8E6D",
",. c #A99768",
"<. c #A38A74",
"1. c #CA8259",
"2. c #D1865B",
"3. c #D6895B",
"4. c #DB8C5D",
"5. c #D49F5B",
"6. c #DB9C5D",
"7. c #E3905E",
"8. c #E2995F",
"9. c #E89A5F",
"0. c #C4A557",
"q. c #C7A458",
"w. c #CCA259",
"e. c #C2AD56",
"r. c #D1A05A",
"t. c #C18762",
"y. c #CE8C61",
"u. c #C89A61",
"i. c #D19169",
"p. c #DB9264",
"a. c #E69660",
"s. c #EB9661",
"d. c #E69860",
"f. c #EE9862",
"g. c #F19A62",
"h. c #F09762",
"j. c #787B8B",
"k. c #777A8B",
"l. c #7F8292",
"z. c #8F8A81",
"x. c #8E8A8D",
"c. c #8B8482",
"v. c #928C84",
"b. c #908C8F",
"n. c #9E948B",
"m. c #828594",
"M. c #928E91",
"N. c #A39A8E",
"B. c #A69B90",
"V. c #A79A96",
"C. c #ACA095",
"Z. c #B0A497",
"A. c #B2A599",
"S. c #B6A99B",
"D. c #BCAD9F",
"F. c #8E93A3",
"G. c #9799A3",
"H. c #9FA3B0",
"J. c #BEAFA0",
"K. c #BFB0A1",
"L. c #A1A5B1",
"P. c #A8ACB7",
"I. c #B1AFB3",
"U. c #B5B3B6",
"Y. c #B7B4B9",
"T. c #C1B1A2",
"R. c #BFBEC3",
"E. c #C5BFC3",
"W. c #C1C0C5",
"Q. c #C5C5CA",
"!. c #CACACE",
"~. c #C6C8D0",
"^. c #D5D5DA",
"/. c #D9DADF",
"(. c #D4D5D9",
"). c #DCDDE1",
"_. c #E0E1E6",
"`. c None",
/* pixels */
"`.`.`.`.`.`.`.`.`.`.`.`.`.`.`.`.`.`.`.`.`.`.`.`.`.`.`.`.`.`.`.`.`.`.`.`.`.`.`.`.`.`.`.`.`.`.`.`.`.",
"`.`.`.`.`.`.`.`.`.`.`.`.`.`.`.`.`.`.`.`.`.`.`. . .`.`.`.`.`.`.`.`.`.`.`.`.`.`.`.`.`.`.`.`.`.`.`.`.",
"`.`.`.`.`.`.`.`.`.`.`.`.`.`.`.`.`.s.`.`.`. .`.}  .`.`.`.`.`.`.`.`.`.`.`.`.`.`.`.`.`.`.`.`.`.`.`.`.",
"`.`.`.`.`.`.`.`.`.`.`.`.`.`.`.`.`.8.s.`.8...0.O.o.s.s.s.`.`.`.`. .`.`.`.`.`.`.`.`.`.`.`.`.`.`.`.`.",
"`.`.`.`.`.`.`.`.`.`.`.`.`.`.`.O. .o.6.s.8...0.r.8.s.s.s.s.s.6.6.O. .`.`.`.`.`.`.`.`.`.`.`.`.`.`.`.",
"`.`.`.`.`.`.`.`.`.`.`.s.`.`.s.w. . .X.s.d.w.6.s.s.s.s.s.s.s.X.q.5. .w.`.s.`.`.`.`.`.`.`.`.`.`.`.`.",
"`.`.`.`.`.`.`.`.`.`.`.s.s.q.d.8.O.| 0.s.s.s.s.s.s.s.s.s.s.s.X...r. .6.d.s.`.`.`.`.`.`.`.`.`.`.`.`.",
"`.`.`.`.`.`.`.`.`.`.`.6.d.q.w.w.d.8.d.s.s.s.s.s.s.s.s.s.s.s.q.o.5.r.8.o.0.`.`.`.`.`.`.`.`.`.`.`.`.",
"`.`.`.`.`.`.`.`.`.d... .O.6...0.s.s.s.s.s.s.s.s.s.s.s.s.s.s.d.w.9.s.9.q.5.s.w.w.s.s.`.`.`.`.`.`.`.",
"`.`.`.`.`.s.s.`.s.s.5.0. .5...q.s.s.s.s.s.s.s.s.s.s.s.s.s.s.s.s.h.9.7.s.s.a.o.o.6.s.s.`.`.`.`.`.`.",
"`.`.`.`.s.s.d...o.6.h.6...5.X.d.s.s.s.s.s.s.s.s.s.s.s.s.s.s.s.a.2.1.u @ H 9.6.6.8.8.o.`.`.`.`.`.`.",
"`.`.`.`.s.s.q.O.w.s.s.s.r.6.s.s.s.s.s.s.s.s.s.s.s.s.d.s.s.s.s.1.o @ j 4 p 0.8.s.8.8.X. .`.`.`.`.`.",
"`.`.`.`.`.s.s.s.s.s.s.s.s.s.s.s.s.s.s.s.s.s.s.s.s.s.s.s.s.s.s.' @ x v h * [ d.s.0.0.5.} `.`.`.`.`.",
"`.`.`.`.`.4.4.7.h.s.s.s.s.s.s.s.s.s.s.s.s.s.s.s.f.f.f.s.s.s.s.1.+ z v v 1 n 8.s.0...5.} r.s.`.`.`.",
"`.`.s.`.U @ 2 s ^ ^ 9.h.g.s.s.s.s.s.s.s.g.g.g.3.^ ^ 3.s.s.s.s.s.! z c v x $ 1.s.w...5.w.s.s.s.`.`.",
"`.`.d.@.= B J.N.e r J K P 3.h.s.s.s.f.^ K K P O . o K g.g.g.s.s.f.T z c v 1 P s.s.w.d.s.6.d.s.`.`.",
"`.`.`.{ q n.K.K.T.D.G D , ! f.s.s.s.f.p N m.m.m.V.9 % p p u ^ f.h.1.b z v x % 4.s.s.s.s.X.5.`.`.`.",
"`.`.s.~ y K.D.D.D.D.T.T.y ! f.s.s.s.g.d L./.!./.^.Y.G.L.P.N I f.s.s.L z c c 9 g g.s.s.s.8...`.`.`.",
"`.`.7.3 B.K.D.D.D.D.D.N., ! f.s.s.s.g.p L.U.& x.(.x.& U._.j.I f.s.s.3.a v v h 4 2.f.s.7.8.0. .`.`.",
"`.`.P Z S.D.D.D.D.D.A.$.; ! f.s.s.f.g.d L.Q.k # D # k Q.).j.I g.s.s.a.T z c v 1 H g.f.r.X.6...`.`.",
"`.`.u n.K.D.D.D.D.D.C.B Y 4.f.s.s.f.~ D ~./.W.t   t W.^./.k.I g.s.s.f.1.h c v z 3 1.h.w.| 5.} `.`.",
"`.`.D J.D.D.D.D.D.D.F V :.f.s.s.s.g.P j./.(.x.$ 6 & b.(.P.f 7.9.s.s.s.9.R h v v 2 I s.5.| | o.`.`.",
"`.; v.T.D.D.D.D.K.B.V ) s.s.s.s.s.g.I j.).I.# k Y.k # U.L.d g.f.s.s.s.h.] z x v x @ 4.s.r.q.6.`.`.",
"`.y T.D.D.D.D.D.K.F V t.s.s.s.f.s.f.I k.).Q.x.E./.R.M.!.H.d g.f.s.s.s.s.s.L z x c 8 J 9.s.s.5.0.s.",
": B.J.D.D.D.D.T.n.C ( s.s.s.4.3.3.g.W : e e w S W.~.~.~.F.p f.s.s.s.s.s.s.1.f x c h % s.s.d.o.w.s.",
": Z.A.S.J.D.D.S.$.B y.s.f.~ 5 1 5 Q W I E 3.d < l + 7 4 2 J f.s.s.s.s.s.s.s.L z s < % s.s.6. .`.`.",
"- $.$.N.N.A.T.B.B ) a.f.~ k A.D.S.C y m + 4.! T Q I s.s.s.s.s.s.s.s.s.s.s.s.3.4 b T K s.s.d.q.`.`.",
"- $.$.$.%.v.n.%.B :.f.g.p c.K.D.D.K.K.J.5 3.f.g.f.f.s.s.s.s.s.s.s.s.s.s.s.s.a./ 3.g.g.s.d.d.r.`.`.",
"- $.$.$.%.$.$.F _ d.s.g.d C v.%.B.S.S.%.+ 3.s.s.s.s.s.s.s.s.s.s.s.s.s.s.s.s.s.g.s.s.s.s.d.6.q.0.`.",
"X =.<.-.$.$.$.&.:.f.s.g.p M $.$.%.%.%.A i 4.s.s.s.s.s.s.s.s.s.s.s.s.s.s.s.6.s.s.s.s.s.s.0.w.q. .`.",
"`.`.g.O.,.-.$.=.s.s.d.f.! ;.,.>.*.$.%.<.p.9.s.s.s.s.s.s.d.s.s.s.s.s.s.s.s.0.6.5.s.s.s.s.X. . .| `.",
"`.`.r.p.@.{ i.p.f.d.d.f.f.d.0.5.u.i.i.a.s.s.s.s.s.s.s.s.s.s.s.s.s.s.s.6.w.6.o.X.s.s.s.s.X...q.| `.",
"`.`...w. .w.h.s.s.s.s.s.w.r.5.| 5.s.s.s.s.s.s.s.s.s.s.s.s.s.s.s.s.s.s.6...5...X.s.s.6...w.X.`.`.`.",
"`.`. . ...6.s.s.s.s.s.s.0...5. .5.s.s.s.s.s.s.s.s.s.s.s.s.s.s.s.s.d.s.6. .r.o.r.6.5.5. ...6.`.`.`.",
"`.`.| w.6.s.s.d.s.s.s.s.0...5.O.8.s.s.s.s.s.s.s.s.s.s.s.s.s.s.s.s.s.s.7.X.r.6.s.q...6.X.| `.`.`.`.",
"`.f.`.d.s.s.d.0.s.s.s.s.8.0.8.8.s.s.s.s.s.s.s.s.s.s.s.s.s.s.s.s.s.s.d.f.d.s.s.s.6.6.d.s.6.`.`.`.`.",
"`.f.`.`.s.8.8.q.0.5.s.s.s.s.s.s.s.s.s.s.s.s.s.s.s.s.s.s.s.s.s.s.s.s.s.s.s.s.s.d.X...o.8.`.`.`.`.`.",
"`.`.`.`.s.0.0.6. .5.s.s.s.s.s.s.s.5.s.s.s.s.s.s.s.d.s.s.s.s.s.s.s.6.8.s.s.s.s.5. . . .O.`.`.`.`.`.",
"`.`.`.`.`.o...r.} 5.s.s.s.s.s.s.d.X.5.5.s.s.s.s.s.s.s.s.s.s.s.s.s.0.r.w.s.s.s.5. . . ...`.`.`.`.`.",
"`.`.`.`.`.`...6.w.s.s.s.s.s.s.w.w.6...w.s.s.s.s.s.s.s.s.s.s.s.6.0.8.O.o.6.d.s.s.w...O.d.`.`.`.`.`.",
"`.`.`.`.`.`.`.8.w.8.s.8.8.s.s.w. .5.} w.s.s.s.s.s.s.s.s.s.s.s.6. .w.o. . .r.5.6.s.s.`.s.`.`.`.`.`.",
"`.`.`.`.`.`.s.w. .5.d.O.o.q.s.w...5.o.8.s.s.s.s.s.s.s.d.r.s.s.8.| w.X.w.w.8...X.s.`.`.`.`.`.`.`.`.",
"`.`.`.`.`.s.s.d.w.8.O. . ...s.8.X.6.d.s.q.d.d.s.s.s.d.8.0.w.6.s.w.w.6.d.s.w...6.`.`.`.`.`.`.`.`.`.",
"`.`.`.`.`.`.s.s.`.s...}  ...d.s.s.s.d.8.w.q.q.s.s.s.w.w.6. .5.s.d.X.| O.s.0. .`.`.`.`.`.`.`.`.`.`.",
"`.`.`.`.`.`.`.`.`.`. .o.o.0.s.6.w.w.5.O.6...q.s.d.w.o...5.| 0.d.r. . .w.s.`.`.`.`.`.`.`.`.`.`.`.`.",
"`.`.`.`.`.`.`.`.`.`.`.o.`.d.s.w. ...o. .5...q.s.8.......o. . .X.d.r.5.`.`.`.`.`.`.`.`.`.`.`.`.`.`.",
"`.`.`.`.`.`.`.`.`.`.`.`.`.`.`.d.O...o.....o.d.d.6.6.8.o. . ...o.s.`.`.`.`.`.`.`.`.`.`.`.`.`.`.`.`.",
"`.`.`.`.`.`.`.`.`.`.`.`.`.`.`.`.`.d.s.q.o.w.s.X. .0.s.q.|  .r.`.`.`.`.`.`.`.`.`.`.`.`.`.`.`.`.`.`.",
"`.`.`.`.`.`.`.`.`.`.`.`.`.`.`.`.`.`.`.`.`.`.`.`.`.`.`.`.`.s.`.`.`.`.`.`.`.`.`.`.`.`.`.`.`.`.`.`.`.",
"`.`.`.`.`.`.`.`.`.`.`.`.`.`.`.`.`.`.`.`.`.`.`.`.`.`.`.`.`.s.`.`.`.`.`.`.`.`.`.`.`.`.`.`.`.`.`.`.`."
};
