/* XPM */
static char *_0[] = {
/* columns rows colors chars-per-pixel */
"50 39 69 1 ",
"  c #020623",
". c #070A27",
"X c #080B27",
"o c #0A0D29",
"O c #0E112C",
"+ c #13162F",
"@ c #171931",
"# c #191C33",
"$ c #1F2136",
"% c #232439",
"& c #26293B",
"* c #292A3E",
"= c #2E3141",
"- c #313242",
"; c #383747",
": c #363846",
"> c #393748",
", c #3D3C4B",
"< c #3F404C",
"1 c #43444F",
"2 c #454450",
"3 c #4A4653",
"4 c #4C4A55",
"5 c #524E58",
"6 c #505157",
"7 c #55585A",
"8 c #595A5D",
"9 c #5D605F",
"0 c #645E64",
"q c #5F6260",
"w c #636663",
"e c #686267",
"r c #666965",
"t c #686B66",
"y c #6B6569",
"u c #6C6D69",
"i c #736D6E",
"p c #6F706B",
"a c #72726E",
"s c #767570",
"d c #7B7474",
"f c #7C7B74",
"g c #807F77",
"h c #827D79",
"j c #87857C",
"k c #89867D",
"l c #8B897F",
"z c #8D8780",
"x c #8D8A80",
"c c #928C83",
"v c #998F87",
"b c #9B8F89",
"n c #979186",
"m c #989287",
"M c #9C948A",
"N c #9F988C",
"B c #A1958D",
"V c #A2998D",
"C c #A69C90",
"Z c #A99E93",
"A c #ADA195",
"S c #B0A397",
"D c #B3A699",
"F c #B6A99B",
"G c #BCAD9F",
"H c #BEAEA0",
"J c #BFB0A1",
"K c #C2B2A3",
"L c None",
/* pixels */
"LLLLLLLLLLLLLLLLLLLLoo.oXoXXXXXX...XXXoLLLLLLLLLLL",
"LLLLLLLLLLLLLLLLLLLL&======:,,,,,,,,,,>LLLLLLLLLLL",
"LLLLLLLLLOoooooOooX@4asiaiafbBBBBMBBBCh% LLLLLLLLL",
"LLLLLLLLL,4444444435dNVBNNNAHKKKKKKKKKb0>LLLLLLLLL",
"LLLLLLL.%iZSZZZZZZZZSFFFFFFFHHFHHGGHGGFSi% LLLLLLL",
"LLLLLLL,0bKKKKKKKKKKKKHHHHHHHHHHGGGGGGKKB0,LLLLLLL",
"LLLLLL@eSHGHHGGGHGGGFGGGHHHHHFHFGGGGGGHGGSy%LLLLLL",
"LLLLLL@yHKGGGGGGHGGGHGGGFHFHHHHHGGGGGGGGKKbe,.LLLL",
"LLLLLL@yFJGGGGGGFHFHHFHFHHHHFHFHGGGGGGGGGGHSw%LLLL",
"LLLLLL+eGKGGGGGGHHHHHHHHFHHFHHHHGGGGHGGGGGKHbi,OLL",
"LLLLL+*iFKGGGGGGHHFHHFHHHHFHHHFHGGGGGGGGGGHGKZ4oLL",
"LLLLO:ecGHGGGGGGHFHHHHFHHHHHHFHHGGGGGGGGHHKKKS6OLL",
"LLLL+1jAGHGHGHGGHHHHHHHHHFHFHHHFGGGHHGHGDZZZAn1OLL",
"LLLLO1jAHHGGJGGGHFHFFHFHHHHHFHHHGGGHHGKHCfasft*OLL",
"LLLLo,scBCAAAAAGHHHHHHHHHHHHHHHHHHFZVBVVjwwww9<&#L",
"LLLLO:wpajxcxxNFHHHFHFHHFHHFHHHFGHDjaaaiuwwww991%o",
"LLL-4efjjxmmmmAFHHHFHFSCCZCCACCAAAMs999qwwww9ru9&o",
"LLo3mDDSDFFDFDFFFHHHHFNzxxxxlxxllljpwwwwwwwwrrr9&o",
"LLo5SKHHJJJHJJHGHHHHHFnjjjjggjjjjjguwwwwwwrwr997&o",
"LLo5ZKHHFHHJFHGHHHFFHDnjjjjjjjjjkkgpwwwwwwwwwwr7%o",
"LLo5ZKHHJFJHHJHJHHSBNNxjjjjjjjjjjkgp9wwwwwwwwwr9&o",
"LLo3CJHHHHJFJFDFFSBjjjjjjjjjjjjjjkjprwwwwrwwwww9&o",
"LLX,xSHJJJJJDNmMMMcjjjjjjjjjjjjjjkjgstwwwwwrrwr9,L",
"LL$3fNSFDDDDAcjjjjjjjjjjjjjjjjjjjjjkguwwwwwwqr9rLL",
"o=7ujxnnnnnncjjjjjjjjjjjjjjjjljjjjjlguwwwwwwwwwLLL",
"X=sxjjjjjjjjjjjjjjjjjjjjjljjjjjjjjjjgtwwwwwwwwLLLL",
"X-szjjjjjjjjjjjjjjjjjjjjjjjjjjjjjjjjgt9wwwwwwLLLLL",
"X-szjjjjjjjjjjjjjjjjjxjjjjjjjjjjjjkncjffatrwLLLLLL",
"o=ajzjjjxjjjjjjjjjjjjjjjjjjjjjjjjjlVDSSAcu9LLLLLLL",
"o=axjjjjjjjjjjjjjjjjjjjjjjjjjjjnMMNDJKKKc6<LLLLLLL",
"o=szjjjjjjjjjjjjjjjjxjjjjjjjjjjNFFFGGGJGd&oLLLLLLL",
"o=axjjjjjjjjjjxjjjjjjjjjjjjjjffNGKJKFZCVy# LLLLLLL",
"LLLLjjjjkjjjjjkjjjjjjkjjjjkkjftxDGGGAnll8# LLLLLLL",
"LLLLLLLLLLLLLLLLkjjjjjjkjjjxjfralmNNMljj8#.LLLLLLL",
"LLLLLLLLLLLLLLLLLjjjjjjjjjjjfprwrfjkjjlk8#LLLLLLLL",
"LLLLLLLLLLLLLLLLLLLLLLLLLLL7<4qwwsjjjjjjaLLLLLLLLL",
"LLLLLLLLLLLLLLLLLLLLLLLLLLLLO=8rrfjjjjjjjLLLLLLLLL",
"LLLLLLLLLLLLLLLLLLLLLLLLLLLLo=qwwfjjjjjLLLLLLLLLLL",
"LLLLLLLLLLLLLLLLLLLLLLLLLLLLO=qrrfjjjjjLLLLLLLLLLL"
};
