/* XPM */
static char *_1[] = {
/* columns rows colors chars-per-pixel */
"50 43 72 1 ",
"  c #00001F",
". c #020623",
"X c #060A26",
"o c #080B27",
"O c #0B0E29",
"+ c #0D102B",
"@ c #11142D",
"# c #161830",
"$ c #1A1C33",
"% c #1E2136",
"& c #202337",
"* c #232539",
"= c #26283B",
"- c #292B3E",
"; c #2E3140",
": c #333444",
"> c #373847",
", c #3C3D4A",
"< c #413F4D",
"1 c #3D404A",
"2 c #44424F",
"3 c #464350",
"4 c #4A4753",
"5 c #4D4C55",
"6 c #534F59",
"7 c #4E5056",
"8 c #515157",
"9 c #54515A",
"0 c #5A555E",
"q c #55585A",
"w c #5B5D5E",
"e c #5E5E61",
"r c #625C63",
"t c #5F6360",
"y c #636663",
"u c #666865",
"i c #686A67",
"p c #6B6469",
"a c #6B6C69",
"s c #726D6E",
"d c #6F706B",
"f c #73736E",
"g c #756D70",
"h c #757670",
"j c #7B7474",
"k c #7C7B74",
"l c #807777",
"z c #807E77",
"x c #817F78",
"c c #87857C",
"v c #89867D",
"b c #8B887F",
"n c #8F8481",
"m c #8E8A81",
"M c #918682",
"N c #938D84",
"B c #9A8F89",
"V c #969086",
"C c #989187",
"Z c #9D958A",
"A c #A2998E",
"S c #A69C91",
"D c #AB9F94",
"F c #AEA295",
"G c #B0A497",
"H c #B3A699",
"J c #B6A99B",
"K c #BCAD9F",
"L c #BEAEA0",
"P c #BFB0A1",
"I c #C2B2A3",
"U c None",
/* pixels */
"UUUUUUUUUUOOOOO+UUUUUUUUUUUUUUUUUUUUUUUUUUUUUUUUUU",
"UUUUUUUUU$rpppp6o....UUUUUUUUUUUUUUUUUUUUUUUUUUUUU",
"UUUUUUUU&4FIIIIM>::::;UUUUUUUUUUUUUUUUUUUUUUUUUUUU",
"UUUUUUUX6FKLKKKJFDDDD0@@@@@UUUUUUUUUUUUUUUUUUUUUUU",
"UUUUUUUX0ILKKKKLIIIILBgjjlg-....UUUUUUUUUUUUUUUUUU",
"UUUUUUUo5AKKKKKKLLKKJIIIIIJr,<33,UUUUUUUUUUUUUUUUU",
"UUUUUUUO:fFLKKKKKLKKLKKKLKKJHHJKM=##$$$UUUUUUUUUUU",
"UUUUUUUO-fHIKKKKKKKKLKKKKKKLIILIGnnnnnqXXXXoUUUUUU",
"UUUUUUUO;amFKKKKKKKKKKKKKKKKKKKKLLIIIIn6665,=UUUUU",
"UUUUUUUo:yyNLKKKKKKKKKKKKKKKKKKKKKLLLLKKLLHm>XUUUU",
"UUUUUUOX:yyNLKKKKKKKKKKKKLKKKKKKKKKKLKLLLLLG2.UUUU",
"UUUUU:rpjvixDKKKLKKKKKKKKKKKKKKKKKKLKKKKLLLK3.UUUU",
"UUUU$0KPIHxkNJLKKKKKKKKKKKKKKKKKKKKKKKKKLKKD3.UUUU",
"UUU@9VKLKKJCNJKKKKKKKKKLKKKKKKKKKKKKKKKKKLGm>oUUUU",
"UUU@sKKKKKKZbCHKKKKKKKKKKKKKKKKKKKKKKKKLLFNcu3@UUU",
"UUU@kIKKKKKDNvFKKKKKKKKKKKKKKLKKKKKKKKLLFNccmt@UUU",
"UUU@jPKKKKKKHbSLKKKKKKKKKKKKKKKKKKKKKLKFmcccce+UUU",
"UUU@8VKPKKKLHbbAKKKKKKKKKKKKKKKKKKKKKPFVccccne+UUU",
"UU$-7fCJPKKLHZbCKLKKKKKKKKKKKKKKKKKLKFCcccccmq+UUU",
"Uo&wyyuAKKKKLKCbGKKKKKKKKKKKKKKLKKKLGmccccccmy%UUU",
"Uo&wuyydNPKKLKCkjDKKKKKKKKKLLKKKLLPGNcccccccmxu=UU",
"Uo&wuyyyfNJPKKFviSIIIKLLLHAZAAAAASZCccccbccccmx;XU",
"UX&wyyyyyfSKLKPZaBFFGHHHKFNbNmNckxccccbccccccbk-XU",
"Uo*wyyyyfcbSKKLZiiafvMbbFKJJJJJvuikccccccccccck-.U",
"+-7tyyyyfccbAZZcuthBAADAHKLLLLIvtykccccccccccbk=.U",
"+1iyyyytfcccccckytbPILKKKKKKLKFctukccccccccccbk2*U",
"+,yyyyyufcvcccvkyybKKKKKKKKKKHNfyukccccccvcccccc5O",
"+1yyyyuhccccccckytbKLKKKKKKLFNvxhukbcccccccccccm5+",
"O1uyyyuzvccccvvjuybPKKKKKKKFCccvxufkcccbcccbcccv5O",
"O1uuyyukvccccvvkyycHKKKKKKHVcccvkuydccccccccccvb7+",
"UquttuuzvcccvcckuyizHILLLFVccccvkutdccccccccvccv5+",
"UUyyutuzvvccccvkyytuvNNNZCccccccchudcccccccccccvyO",
"UUUUyyizccccbcckyyyyyyyykcccccccccddccccccbcccccUU",
"UUUUUUUcccccccckuyyyyyyykccccbccbcddccccccccccUUUU",
"UUUUUUUUUUUUUUUUUyyuyyyukccccccccckkbccccccUUUUUUU",
"UUUUUUUUUUUUUUUUUyyyyyyyfccccccccccckccccccUUUUUUU",
"UUUUUUUUUUUUUUUUUUUyyyyuyfccccccccckikbcUUUUUUUUUU",
"UUUUUUUUUUUUUUUUUUUUyyyyydccccccccckuUUUUUUUUUUUUU",
"UUUUUUUUUUUUUUUUUUUUyyyyydccccccccckyUUUUUUUUUUUUU",
"UUUUUUUUUUUUUUUUUUUUUyyyydccccccccUUUUUUUUUUUUUUUU",
"UUUUUUUUUUUUUUUUUUUUUUUyydcccbccUUUUUUUUUUUUUUUUUU",
"UUUUUUUUUUUUUUUUUUUUUUUyydcccccUUUUUUUUUUUUUUUUUUU",
"UUUUUUUUUUUUUUUUUUUUUUUUydcccUUUUUUUUUUUUUUUUUUUUU"
};
