/* XPM */
static char *_2[] = {
/* columns rows colors chars-per-pixel */
"50 38 67 1 ",
"  c #030724",
". c #060926",
"X c #080B27",
"o c #0A0D28",
"O c #0F112C",
"+ c #12152E",
"@ c #171A31",
"# c #1A1C33",
"$ c #1F2236",
"% c #202337",
"& c #222438",
"* c #26293B",
"= c #2B2C3E",
"- c #343545",
"; c #373846",
": c #393C47",
"> c #3A3B49",
", c #413E4D",
"< c #3E414A",
"1 c #42454E",
"2 c #464451",
"3 c #494653",
"4 c #464950",
"5 c #4A4B53",
"6 c #4E5155",
"7 c #545359",
"8 c #5A575E",
"9 c #56595A",
"0 c #5A5D5D",
"q c #5E615F",
"w c #645E64",
"e c #5F6260",
"r c #636663",
"t c #686567",
"y c #666965",
"u c #696B67",
"i c #6C6D6A",
"p c #70696D",
"a c #6F706B",
"s c #73746E",
"d c #756E70",
"f c #767770",
"g c #7A7273",
"h c #7D7C75",
"j c #827D79",
"k c #887E7C",
"l c #87857C",
"z c #89867D",
"x c #8B897F",
"c c #8F8481",
"v c #8E8A80",
"b c #928D83",
"n c #9A8F89",
"m c #979186",
"M c #9B9389",
"N c #A2998E",
"B c #A79D91",
"V c #AB9E94",
"C c #ADA195",
"Z c #B1A397",
"A c #B2A599",
"S c #B7A99C",
"D c #BCAD9F",
"F c #BEAEA0",
"G c #BFB0A1",
"H c #C1B2A2",
"J c None",
/* pixels */
"JJJJJJJJJJJJJJooXXXooooOooXooXoJJJJJJJJJJJJJJJJJJJ",
"JJJJJJJJJJJJJ=2333233,3,,---;;-JJJJJJJJJJJJJJJJJJJ",
"JJJJJJJJJJJJo2nSZCCCZVZNkhhhhji=++++++++JJJJJJJJJJ",
"JJJJJJJJJJJ#7kSHHHHHHHHDZVVBBVMdwwwwtww3OJJJJJJJJJ",
"JJJJJJJJJJ#>bHDDHDDDDDHDDDDDDDDSSFSSSFFg-JJJJJJJJJ",
"JJJJJJJJJ+8cAHDDDDDDDDDDDFDFFFFHFHHHFHHVj,.JJJJJJJ",
"JJJJJJJJ&,kHHDDDDDDDDDDDDDDDDDDDSFSFFFSHSp-JJJJJJJ",
"JJJJJJJo3nADDDDDDDDDDDDDDDDDDDDDFFFFFSFFFZk-.JJJJJ",
"JJJJJJ@=iDHDDDDDDFDDDDDDDDDDDDDDSFFFFSFFFHZp>JJJJJ",
"JJJJJo%7zSGDDDDDDDDDFDDDDDDDDDFDFFSFFFSFSFFSj-oJJJ",
"JJJJJo%9vSFDDDDDDDDDDDDDDDDDDDDDSFSFFFFFFFFHVg3+JJ",
"JJJJJo$9xSGDDDDDDDDDDDDDDDFDDDDDFFFFSFSFSFFFFFt+JJ",
"JJJJJ.$9xSHDDDDDDDDDDDDDDDDDDDDFSFFFFFFFFSFFGFt+JJ",
"JJJJJ&-0xSDDDDDDDDFDDDDFDDDDDDDDFFFSFSFSFFFFGFw+JJ",
"JJJJ@1qrzSHDDDDDDDDDDDDDDDFDDDDDSFSFSFFFFFSFFSt+JJ",
"JJJ.@5yrzDHDDDDDDDDDDDDFDDDDDDDDFFFFFFFFFVNNBB8OJJ",
"JJJ.@4yrlZDDDFDDDDFDDDDDFDDDDFDDDDDDSSSDAMxlvl5OJJ",
"JJJ @4yrilBGFDDDDDDDDDDDDDDDDDDFDGGDBMmmMvllll5OJJ",
"JJJ@*6yreyzCSFDDDDDDDDDDDDFDDDDAAAACmlllllllll9=JJ",
"JJ@=9qrrrrulCFDFDDDDDDDDDDDFFGSMvbbvllllllllllhu-O",
"JJ+<yyrrrreuxBDFDDDDFFFFGSCBCVNxllllllllllllllvh:o",
"JJO:rrrrrrrrrlZFDFDDDDSDDCblxxxlllllllxlllllllxh;o",
"JJO;ryrrrrrrqalBDHFFANMNNmllllllllllllllllllllvh-o",
"JJ@<ryrrrrrrrryxASSSNxzzzlllllllllllllllllllllxh;o",
"O*49yrryyeyryqehmmmmblllllllllllllllxlllllllllzh;o",
"o=qyrrrrryrryeysllllllllllllllxlllllllllllllllxh;o",
"o=qyyerryeeyyeysllllllllllllllllllllllllllllllxh;X",
"O*qreyrreyyeeushllllllllllllllllllllllllllllllll4o",
"o=qyyyeyrrryrahlllllllllllllllllxllllllllzlllzllJJ",
"J<qyyeeyrrrrealllllllllllllllllllllllllxlllllllJJJ",
"JJyyyqyrryrrralllllllllllllllxllllllllllllllllJJJJ",
"JJJqyyrrrrrrealllllllxllllllllllllllllllJJJJJJJJJJ",
"JJJJrrrrrrryuslllllllllllllllllllllllllJJJJJJJJJJJ",
"JJJJJrryrrruhllllllllxllllxlxllllJJJJJJJJJJJJJJJJJ",
"JJJJJJyrrreuhlllllllllllllllllllJJJJJJJJJJJJJJJJJJ",
"JJJJJJJryrruhllllllxllllllJJJJJJJJJJJJJJJJJJJJJJJJ",
"JJJJJJJJqyyuhllllllJJJJJJJJJJJJJJJJJJJJJJJJJJJJJJJ",
"JJJJJJJJJyqulllllxlJJJJJJJJJJJJJJJJJJJJJJJJJJJJJJJ"
};
