/* XPM */
static char *_4[] = {
/* columns rows colors chars-per-pixel */
"50 36 72 1 ",
"  c #020623",
". c #060A26",
"X c #090C28",
"o c #0E112B",
"O c #12152E",
"+ c #14182F",
"@ c #151830",
"# c #1B1D34",
"$ c #1F2237",
"% c #202237",
"& c #232539",
"* c #26293B",
"= c #292A3E",
"- c #2D303F",
"; c #2C2F40",
": c #2E3140",
"> c #323443",
", c #363946",
"< c #3B3E49",
"1 c #403E4D",
"2 c #3E414B",
"3 c #41444D",
"4 c #474651",
"5 c #4B4D53",
"6 c #504C57",
"7 c #4D5055",
"8 c #505357",
"9 c #54555A",
"0 c #5B565F",
"q c #5B5D5E",
"w c #5D605F",
"e c #5F5B61",
"r c #615C63",
"t c #5E6160",
"y c #636663",
"u c #686666",
"i c #656865",
"p c #686B66",
"a c #696468",
"s c #6C6D69",
"d c #6E706B",
"f c #72736E",
"g c #766E70",
"h c #777671",
"j c #7A7273",
"k c #777871",
"l c #7B7A73",
"z c #807F77",
"x c #847C7A",
"c c #87857C",
"v c #89867D",
"b c #8C897F",
"n c #8E8481",
"m c #8E8A81",
"M c #938E84",
"N c #969086",
"B c #989187",
"V c #9B9489",
"C c #A2978E",
"Z c #A3998E",
"A c #A79D91",
"S c #AB9F94",
"D c #ADA195",
"F c #B0A497",
"G c #B3A699",
"H c #B7A99B",
"J c #BCAD9F",
"K c #BEAEA0",
"L c #BFB0A1",
"P c #C2B2A3",
"I c #C8B8A7",
"U c None",
/* pixels */
"UUUUUUUUUUUUUUUUUUUUUUUXX................UUUUUUUUU",
"UUUUUUUUUUUUUUUUUUUUUUU%%%&&======*==*==&UUUUUUUUU",
"UUUUUUUUUU  ..    .. .=6990agggggghfggjg0=UUUUUUUU",
"UUUUUUUUU###########@%4jbvMZHHHHHHHHHHHHx1#UUUUUUU",
"UUUUUUUU;6rrrrrrrrrrrrjVDADHPPPPLLILLLILCj6>UUUUUU",
"UUUUUUUX>jSFSDSDSSSSSSFFHHHJHKJJKKJJKJJJHGn4OUUUUU",
"UUUUUUU.>xPIPPPPPPPPPPPPJKKJJJJKHKJJKKJJPPCr:#UUUU",
"UUUUUUUX>xJPKKKKPKKKPKJJJJKJJJJJKJJJJKJJPPSj8;+UUU",
"UUUUUU+$4nJPJJJJJJJJJJJJJJKJJJJJKJJJJJKKKLDcw>+.UU",
"UUUUUo*2iVJPJJJJJJKJJJJKJJJJJJJJJJJJKJKHKLDcw>O.UU",
"UUUUUo*7hBDHJJKJJJJJJJJJJJJJJJKJJJJKHKJKKGAzw>O.UU",
"UUUUUo*9dlbAJPLJKJJJJKJJKJJJJJJJJJJJKKKKGAmkw:O UU",
"UUUUo@-9iidMFHHHJJJJJJJJJJJKJJJJJJJJKHKHDMzfw2$oUU",
"UUUO*,5qyyilbBCDHLLKJJJJJJJJKJJJKJJJKKGAVbzdt8,*#X",
"UU.O>9yyyyiidhvBDJJJJJJJJJJJJJJJJJKJKHAbvczdttw2#X",
"UU.O>wpyyyywydxMVDZDGJLKKKJJJJKJJJKKGAVvccckfft2#.",
"UU.+>wpyyyyyidcvMmmNAHKLKKKKKJJJKKKGAmbcccczzft2#X",
"UU$*2wpiyyytifzccccvBDDDGHKKKJKKKJFDBccccccbcki2#X",
"X#,7wwyyyyyyifzcccccbNNNVFKKKKKKKGVNbccccccbzkt2#.",
".$2tpyyyiyyyifcvccccccccNDGGGGGFGDBcccccvccccki2$X",
".#2tpyyyyyyyifcvccccccccbNVVVVVVVBbccccccccbzkt2#.",
"X$3tpyyyyyyyifzcccvccccccccccvcbvcccccvccccvcki2#.",
"U*7ypyyyyyyyifcvvcvccccccccccccccccvccccvccvczfw=U",
"UUtyyyyyyyyyyfzcccccccvcccccccccccccccvcccvccczzUU",
"UUUyyyyyyyyypfzcvccccccvcccccccccvcccvcccccvcvvbUU",
"UUUUyiyyyyyyyfcvccvcvcccccvccvvccccccccvvcccccvvUU",
"UUUUUiyyyyyyifcvvcccccccccvcccccccccccccccccccvUUU",
"UUUUUUUUUyyyifzcccvcccccccccccvcvccvcvccccccvcUUUU",
"UUUUUUUUUyiyikzvvcccvccvccccvccvvcccvcccvcccvUUUUU",
"UUUUUUUUUUUUUlcvcccvcccccvcvcccccccccccvcccvUUUUUU",
"UUUUUUUUUUUUUUbcccccccccccccccccccccccccvccUUUUUUU",
"UUUUUUUUUUUUUUUUUcvccvcccvccvccvvcccvccccvUUUUUUUU",
"UUUUUUUUUUUUUUUUUUvcvcccvccvcccccvccccvccUUUUUUUUU",
"UUUUUUUUUUUUUUUUUUUccccccccccvvcccccccccUUUUUUUUUU",
"UUUUUUUUUUUUUUUUUUUUUUUvccccccccvcvccvvUUUUUUUUUUU",
"UUUUUUUUUUUUUUUUUUUUUUUcvccvccvccccccccUUUUUUUUUUU"
};
