/* XPM */
static char *_5[] = {
/* columns rows colors chars-per-pixel */
"50 48 81 1 ",
"  c #020523",
". c #060926",
"X c #080B27",
"o c #090C28",
"O c #0E112C",
"+ c #11142D",
"@ c #151730",
"# c #161931",
"$ c #1A1C33",
"% c #1E2136",
"& c #202437",
"* c #24243A",
"= c #26293B",
"- c #2A2C3E",
"; c #2E2E40",
": c #2F3341",
"> c #333344",
", c #383647",
"< c #373A46",
"1 c #3C3C49",
"2 c #403E4D",
"3 c #43424E",
"4 c #45484F",
"5 c #464350",
"6 c #494653",
"7 c #474B51",
"8 c #4C4B54",
"9 c #504C57",
"0 c #514D58",
"q c #4D5155",
"w c #515457",
"e c #545559",
"r c #59555D",
"t c #56595A",
"y c #5B5E5E",
"u c #5D605F",
"i c #5F5C61",
"p c #5F6260",
"a c #626563",
"s c #666865",
"d c #696B67",
"f c #6B6569",
"g c #6C6E69",
"h c #716A6D",
"j c #6F706B",
"k c #72736E",
"l c #776F71",
"z c #767670",
"x c #7B7573",
"c c #7B7B74",
"v c #807777",
"b c #807F77",
"n c #837B79",
"m c #887F7D",
"M c #86847B",
"N c #88867D",
"B c #8B887F",
"V c #8F8581",
"C c #8D8980",
"Z c #918782",
"A c #938D84",
"S c #988D87",
"D c #9A8E88",
"F c #969086",
"G c #989287",
"H c #9D948A",
"J c #A1968D",
"K c #A2998E",
"L c #A69B90",
"P c #AA9E93",
"I c #ADA195",
"U c #B0A497",
"Y c #B3A599",
"T c #B6A89B",
"R c #BCAD9F",
"E c #BEAEA0",
"W c #BFB0A1",
"Q c #C2B2A3",
"! c #C9B8A7",
"~ c #CABAA8",
"^ c None",
/* pixels */
"^^^^^^^^^^^^^^ ....^^^^^^^^^^^^^^^^^^^^^^^^^^^^^^^",
"^^^^^^^^^^^^^^&&***^^^^^^^^^^^^^^^^^^^^^^^^^^^^^^^",
"^^^^^^^^^^^^^$8fffr;^^^^^^^^^^^^^^^^^^^^^^^^^^^^^^",
"^^^^^^^^^^^^O;hPTIm2#^^^^^^^^^^^^^^^^^^^^^^^^^^^^^",
"^^^^^^^^^^^-2iZR~QJh5;^^^^^^^^^^^^^^^^^^^^^^^^^^^^",
"^^^^^^^^^^+1lJYRQQYLm9$ ^^^^^^^^^^^^^^^^^^^^^^^^^^",
"^^^^^^^^^^+5ZQQRRREQPh,*^^^^^^^^^^^^^^^^^^^^^^^^^^",
"^^^^^^^^^^+2ZQQRRREQRDv0=^^^^^^^^^^^^^^^^^^^^^^^^^",
"^^^^^^^^^^O3ZRQREEEETQUv,#^^^^^^^^^^^^^^^^^^^^^^^^",
"^^^^^^^^^^+3ZQQREETEQQQDh9-^^^^^^^^^^^^^^^^^^^^^^^",
"^^^^^^^^^^O2ZRQRTETEEERYPn2@^^^^^^^^^^^^^^^^^^^^^^",
"^^^^^^^^^^o1xLTREEEEETRQQLh2-^^^^^^^^^^^^^^^^^^^^^",
"^^^^^^^^^^+;iMKRETEERREQQYJv0$^^^^^^^^^^^^^^^^^^^^",
"^^^^^^^^^^o=8kHTQEEERRTEEEQUh,$^^^^^^^^^^^^^^^^^^^",
"^^^^^^^^^^X&7kGRQETEERETEEQTSl0=^^^^^^^^^^^^^^^^^^",
"^^^^^^^^^+@-qkGTEEEEREEERRERRUv1@^^^^^^^^^^^^^^^^^",
"^^^^^^^^^>6eyjBKITQERRRRRRREQQHf2;^^^^^^^^^^^^^^^^",
"^^^^^^^ $rmMkjcALTEERRRERRRREEYJm2#^^^^^^^^^^^^^^^",
"^^^^^^^*2lILcsjMDYEEREREERRERRQQPf,&^^^^^^^^^^^^^^",
"^^^^^o;rvJTKcaskZIQERRRRRRRRREEQTDl9&^^^^^^^^^^^^^",
"^^^^^o>xYQTJzaudmPRERRRRRRRERRRREEPl>@^^^^^^^^^^^^",
"^^^^^o>nE!RJcpuscHITRERRERRRRERRQQESf8-^^^^^^^^^^^",
"^^^^^o>xT!RJcapskMHURERERRRRRREREEETPv1O^^^^^^^^^^",
"^^^^^.>vTQRJzapskbAIRERRRRRRERRRTEEQQJf2=^^^^^^^^^",
"^^^^^.>xRQWHcapsjbFIRERRRRRRRRRRRRREEYDv8#^^^^^^^^",
"^^^^^#1vTQRHzapsjbFIYRRRRERRRERRRRREEEQPf>$^^^^^^^",
"^^^+&<rZT!WHzapskMCGKIRRRRREERERRERREEQTSh8=^^^^^^",
"^^^+-8kHRWRHcapsjbMBALREERRRRRRRRRREREETEPz:O^^^^^",
"^^.+-tcKTTIFcjsskbMMCKRWERRRRRREERRRRRREQEv>o^^^^^",
"^^.+-wcKTIFBMcjdkMMMCKTEERRERRRRRRRRRRREQEv;X^^^^^",
"^^.O-wkGIHBMMbjdjcbMCHIRRRRRRRRRRRRRREERQTn2%O^^^^",
"^^ O-wkBFFNMNbjssjzbNAGLYRERRRERRERRRREEQTSi1=+^^^",
"^^O#-udcNNNNNbksssjcNNBHUWWRRRRRRRERRRRRERKkq-+X^^",
"^#=<7ugcMNMNNbksppdcMMNGYWWRRRRERRRRERREERKct=O.^^",
"o#<wuugcMNMNBbkssajcMMBGUWRRRRRERRRRRRRRERHzt-O.^^",
"o$1pssdcMNMNNbkpppjcMMNFLUTREEEEEEEEREERRIFku<=%^^",
"o#1udsdcMNNNNbksasjcMNNBAHUEWWEEEEEEEEERIGMjut7-#X",
"o$1ussdcMNNNNbkspadcNNMMMAKTTTTYYYTTTTRUHMzdusu1$X",
"o#1ussdcMNMNMbkspsjcMNMMMBFHKKHKKKHHHKKGNzdssda1$X",
"o#1uspgcMNMNNbksppjcMNNMMMBBNBBBNBBBBBBMzdasadu1%o",
"o%4udjzbNNMNNbzdaajcMNNMNMMMMMMMMMMMMMMbzsaaasu7%o",
"^^tajcbNMNNNMM^^pajcMNMNMNMMMMMMMMMMMNNbzsaaaspt^^",
"^^^djbBNNNNBNB^^^ajcMNMNNMNMMMMNMMMNMNNMzsaaasa^^^",
"^^^^^^^^^^^^^^^^^^kMNNNMMNMNMNNMMNNMNNMMksaasd^^^^",
"^^^^^^^^^^^^^^^^^^^NMMNMNMMNMNMNNMNMMNNbzdpsu^^^^^",
"^^^^^^^^^^^^^^^^^^^^NNMNMNNMNNNMMNNNMNNMzdps^^^^^^",
"^^^^^^^^^^^^^^^^^^^^^NNMMNMNNMNMMNMNMNNMksp^^^^^^^",
"^^^^^^^^^^^^^^^^^^^^^NMNMMNMMNMNNMNMNMNbzss^^^^^^^"
};
