/* XPM */
static char *_6[] = {
/* columns rows colors chars-per-pixel */
"50 39 72 1 ",
"  c #010523",
". c #060926",
"X c #080B27",
"o c #090C28",
"O c #0E122B",
"+ c #151730",
"@ c #161931",
"# c #1A1C33",
"$ c #1F2136",
"% c #24253A",
"& c #27293C",
"* c #28293D",
"= c #2E2F41",
"- c #302F42",
"; c #333444",
": c #363945",
"> c #383947",
", c #3C3E4A",
"< c #423F4E",
"1 c #3F424B",
"2 c #42444D",
"3 c #474451",
"4 c #494653",
"5 c #474851",
"6 c #4C4C54",
"7 c #514F58",
"8 c #505057",
"9 c #54525A",
"0 c #5A555E",
"q c #5B5B5E",
"w c #5D605F",
"e c #5D5760",
"r c #5E5960",
"t c #645F65",
"y c #626563",
"u c #686767",
"i c #666965",
"p c #686A67",
"a c #6B6569",
"s c #6C6E69",
"d c #726B6E",
"f c #6F706B",
"g c #71726D",
"h c #756E70",
"j c #767770",
"k c #7C7474",
"l c #7C7C75",
"z c #807F77",
"x c #847E7A",
"c c #86847C",
"v c #88867D",
"b c #8B887F",
"n c #8F8581",
"m c #8D8980",
"M c #908581",
"N c #938E84",
"B c #969086",
"V c #989187",
"C c #9C948A",
"Z c #A0978C",
"A c #A2998E",
"S c #A69B91",
"D c #AA9E93",
"F c #ADA195",
"G c #B0A397",
"H c #B4A699",
"J c #B6A99B",
"K c #BCAD9F",
"L c #BEAEA0",
"P c #BFB0A1",
"I c #C2B2A3",
"U c None",
/* pixels */
"UUUUU............. ....UUUUUUUUUUUUUUUUUUUUUUUUUUU",
"UUUU#%%%**********%$%##UUUUUUUUUUUUUUUUUUUUUUUUUUU",
"UUU+:6radddddddhdat798,+        .  .UUUUUUUUUUUUUU",
"UU.+3jCFHHHHGGHHHDVxvzr=+##+####@#@+UUUUUUUUUUUUUU",
"UU #7NHPIIIIIIIIIIGSSAxt99000000094,&UUUUUUUUUUUUU",
"UU #0SPLLLLKLKLLLLJHJJGDSSSSSSSSSCvs,#UUUUUUUUUUUU",
"UU #rDIPKKKKKKKKJLLLLLLIIIIIIIIIIKDNa3-UUUUUUUUUUU",
"UU #rDILKKKKKKKKLLJLLLLLIILILLLLLLJDSn0# UUUUUUUUU",
"UU #eDILKKKKKKKKHLLHLHLLLHLLLLLLLLJLIHx<%UUUUUUUUU",
"UU #eDIIKKKKKKKKLLLLLLLHLLHLLHLLLLLIILZxe* UUUUUUU",
"UU #eDILKKKKKKKKLLLLLLLLLHLLHLHLLJHLLLIHx<#UUUUUUU",
"UU #eSILKKKKKLKKLLLLHLLLLLLLLLLLLLLKJLIISk9-UUUUUU",
"UU.#tDILKKKKKKKKHLLLLLLLLLLLLHLLLJLKLJLLLHM3@UUUUU",
"UU$:dFIIKKKKKKKKLLLHLHLHLLHLLLLLLLLLLLLJIIDh4;UUUU",
"o#:qcGILLKKKLKKKLLLLLLLLLHHLHLLHLJLKLJLLLIJDM9#UUU",
"o#1icZGJLKKKKKKKLLHLLLHLLLLLILLLLLJLLLLJLLIIDr# UU",
"o#1yglBGLLLLKKLLLLLLLHLLLHHLLLHLKKKKPKKKKKPIFr+ UU",
"o#1yiilAJKLPLKKLHLLJLLLLLLLLLLLLKKKKKKKKKKPPFy&OUU",
"o$1wyygNFHPPLLPLLLLLHLLLLILLLLLLKKKKKKKKKKPIHj1&$.",
".#1yyiscBFJJJJJLLLHLLLLHLHHLHLLHKKKKKKKKKKPPFbi1$.",
"o$1wyifzcmBBBVCGHLLLLHLLHDSADGLIKKPKKPKKPPKFZci1#.",
"o#1wiifzzjffflbCGLLLLLIHFCmmMSJLKKKKKKKKKKHZbly1#.",
"o#2wiygllfyslcNAGLLLLLLLHANzlNSDFFFFFFFFFFSBzjw1$o",
"o#1yiygclppcCFFJJILHLJLLKHSzglNVBNBNBBNBBBNbcjy1#o",
"o$1wpifzlgjCJPKKKKKKKKLLLPFcpgcccccccccccccvclp1$.",
".#2wpyfzclcCPPPKLKKKKKLLPPFcpdccccccccccccccccj6$.",
".$1yiyfzczbCJKKKKKKKKKKJKKDcpgzcbccccccccccvcvc9$o",
"U&6wyigzcllbAGKKLLLLLLHSAABjpfcccvcccccvvccccbcp*U",
"UUwiyigzzgslbAHKKKJLKJFBbvcfpgcvccccbccccccccvczUU",
"UUUiwigzlfpgcBAFFSFFFFVbcczfigcvcbcbcccbcbccvccUUU",
"UUUUwifzlfijcbNNNNbNBmmvcvzfpgccccccccccbcbcvcUUUU",
"UUUUUigzlfpjcvcczccccccccvcfpfccvccbccccccccvUUUUU",
"UUUUUUlczfpjcvccccccccccbvzfpgccccccccvvccvcUUUUUU",
"UUUUUUUvlspjccccvccccccvcvzgpjcccccvvvcccvvUUUUUUU",
"UUUUUUUUjppjcvvcvccvccvccvcjUUUUUUUUUUUUUUUUUUUUUU",
"UUUUUUUUUypjcvvccvccvccvvvcUUUUUUUUUUUUUUUUUUUUUUU",
"UUUUUUUUUUplcccccvccvccvcvUUUUUUUUUUUUUUUUUUUUUUUU",
"UUUUUUUUUUUccccvcvcvccvUUUUUUUUUUUUUUUUUUUUUUUUUUU",
"UUUUUUUUUUUvcccvccvcvcvUUUUUUUUUUUUUUUUUUUUUUUUUUU"
};
