/* XPM */
static char *_[] = {
/* columns rows colors chars-per-pixel */
"50 33 88 1 ",
"  c #020623",
". c #050925",
"X c #080B27",
"o c #0A0D28",
"O c #0F122C",
"+ c #11142D",
"@ c #14182F",
"# c #161931",
"$ c #1A1C34",
"% c #1E2136",
"& c #202237",
"* c #232539",
"= c #27293C",
"- c #2A2B3E",
"; c #2D303F",
": c #2D2E40",
"> c #302F42",
", c #2E3140",
"< c #333444",
"1 c #383747",
"2 c #353945",
"3 c #383B47",
"4 c #393748",
"5 c #3C3B4A",
"6 c #403E4D",
"7 c #3E424B",
"8 c #42434E",
"9 c #464550",
"0 c #4A4753",
"q c #464950",
"w c #4C4B54",
"e c #504D57",
"r c #524E59",
"t c #4E5155",
"y c #515357",
"u c #54535A",
"i c #59555D",
"p c #55595A",
"a c #5A5B5D",
"s c #5D615F",
"d c #5E5B61",
"f c #625E63",
"g c #5F6260",
"h c #636463",
"j c #686467",
"k c #666965",
"l c #696A67",
"z c #6B6569",
"x c #6C6D6A",
"c c #726C6E",
"v c #6F706B",
"b c #72736D",
"n c #766F70",
"m c #767570",
"M c #7A7473",
"N c #7C7B74",
"B c #807777",
"V c #807D77",
"C c #837C79",
"Z c #887E7C",
"A c #85837A",
"S c #89857D",
"D c #8B887F",
"F c #8E8580",
"G c #8E8A80",
"H c #908782",
"J c #938D84",
"K c #988E87",
"L c #998E88",
"P c #979186",
"I c #989287",
"U c #9D948A",
"Y c #A1968D",
"T c #A3998E",
"R c #A69C90",
"E c #AA9E93",
"W c #ADA195",
"Q c #B0A497",
"! c #B3A699",
"~ c #B6A99B",
"^ c #BAAC9E",
"/ c #BEAFA0",
"( c #BFB0A1",
") c #C3B3A4",
"_ c #C8B7A7",
"` c #C8B8A7",
"' c #CAB9A8",
"] c None",
/* pixels */
"]]]]]]]]]]]]]]]]]                  .. .. ]]]]]]]]]",
"]]]]]]]]]]]]]]]]].....    ..   .......X..]]]]]]]]]",
"]]]]]]]]]]]]]]]]]XXXXXXXXXXXXXXXXoooooooo]]]]]]]]]",
"]]]]]]]]]]]]]]]]]++++++O+++++++++O+++OOO++]]]]]]]]",
"]]]]]]]]]]]]]]]]#$$$$$$$$$$$$$$$##$###@@##]]]]]]]]",
"]]]]]]]]]]]]]]]]**==:=--:=::=:=*%::$%%%%%$]]]]]]]]",
"]]]]]]]]]]]]]]]->>444466464644441<2,,::::*%]]]]]]]",
"]]]]]]]]]]]]]]*>46900rerrrrrree099995512:::%]]]]]]",
"]]]]]]]]]]]]+$-46rriffzzfzfzfffddiuuw09741;*$#OoX.",
"]]]]]]]]]]]o+%:46rzzBBBBZZBBBBBncxzhddyw84>-&#OoX.",
"]]]]]]]]]].o@&>6rzBBZZLLLLLLLHZZANNbxjgde8<-&#Oo..",
"]]]]]]]]].oO#*<9izBHLYEEEEEEYYYLPPDANmxdy84-&#Oo..",
"]]]]]]]].oOO%=40fzZLRQ!^^^^!!QEETUIJSCbji03;&#Oo..",
"]]]]]]]]O@@%&;5efBHYQ~/))))))~~!WWRUJDNcdw5;*#OX..",
"]]]]]]]@@#%%-28izBHE!/)___)))^^^~!WWUJZbhe8;*#+o..",
"]]]]]]#$$%*-<7wfcZLE~)_''_))))))^~!WTUDMju6<*#Oo. ",
".ooO@@$%&=;270pkBZLQ~)__''_))))///^!WYDCzi9;*$OX..",
".ooO@@%%-;27qydvBZLQ~))____)))/)(/^^QRKCcd91*#OX..",
".ooO@@%=;27qyakbZHYQ~())))))))/)((/^!EIScd01-#Oo..",
".ooO@@%=;78tahvNZLYQ!^/)))//^/^^////~WYSnf04-$Oo. ",
".ooO+$*;27qpslbNHLYWQ~^/)^^^~^^^///~~WYSnf04-$+o. ",
".ooO+%*;2qtaglNAFLYEQ!!^~^~~~~~~~^~~QELSBfe6-$OX. ",
".XoO@%=;7qyskvbAFKYTWWQQ!!QQQWQQ!!QWEYISnfr6-%Oo  ",
".ooO@%;27qpskvNVZHKYTEWWWWWEEEEERRRTYLDCnfr6;%OX  ",
"XoOO#*;77ysskvbNADPITTTTTTRTUTUTUUUIPDSBchu8<%@o. ",
"]]]]]-27qysskvbNNADPPIUTYYUUUUIIPPDDDAVmchi9]]]]]]",
"]]]]]]]qtpsgklbmNADDDPIIIPPPPPJDDAAAVNmbxhi]]]]]]]",
"]]]]]]]]pssgkkvbNNADDDDPPJPDDDDDAANmmbbxjh]]]]]]]]",
"]]]]]]]]ssgkkkvbmNNAADDDDDDDDDAAAmmbvxlkhh]]]]]]]]",
"]]]]]]]]gggkkkvvbNNAADDDDDDDDAANNmbvlkkkhh]]]]]]]]",
"]]]]]]]]]kgkkklvbmNAAAAADDDAAANNmbvkkkhgh]]]]]]]]]",
"]]]]]]]]]kkkkkvbbmNNAAADADAAAANNmvxkkhhgs]]]]]]]]]",
"]]]]]]]]]khkkklvbmNNAAAAAAAAAANNbvlkggggg]]]]]]]]]"
};
