/* XPM */
static char *_[] = {
/* columns rows colors chars-per-pixel */
"50 31 83 1 ",
"  c #020623",
". c #070A27",
"X c #0C0F2A",
"o c #0E112B",
"O c #12152E",
"+ c #14182F",
"@ c #161931",
"# c #1A1D33",
"$ c #1E2136",
"% c #202337",
"& c #25263B",
"* c #25283A",
"= c #2A2C3E",
"- c #2D303F",
"; c #2F2F41",
": c #2F3241",
"> c #343544",
", c #383747",
"< c #363946",
"1 c #383B47",
"2 c #393748",
"3 c #3B3C49",
"4 c #403E4D",
"5 c #3D414A",
"6 c #42454E",
"7 c #474451",
"8 c #4A4653",
"9 c #474A51",
"0 c #4D4C55",
"q c #504C57",
"w c #514C58",
"e c #4E5155",
"r c #505356",
"t c #535359",
"y c #5C575F",
"u c #55595A",
"i c #5B5E5E",
"p c #5D605F",
"a c #5D5860",
"s c #645E65",
"d c #5F6260",
"f c #636663",
"g c #686667",
"h c #666965",
"j c #696A67",
"k c #6A6368",
"l c #6B6D69",
"z c #70696D",
"x c #6F706B",
"c c #73736E",
"v c #766E70",
"b c #767670",
"n c #7C7474",
"m c #777871",
"M c #7C7C75",
"N c #807777",
"B c #807F77",
"V c #847C7A",
"C c #86857C",
"Z c #89867D",
"A c #8C887F",
"S c #8E8480",
"D c #8D8A80",
"F c #918682",
"G c #938D84",
"H c #998E88",
"J c #969186",
"K c #989287",
"L c #9D958B",
"P c #A2968E",
"I c #A1998D",
"U c #A69C91",
"Y c #AA9D93",
"T c #AEA295",
"R c #B0A497",
"E c #B3A699",
"W c #B6A89B",
"Q c #BBAD9F",
"! c #BEAEA0",
"~ c #BFB0A1",
"^ c #C2B2A3",
"/ c #C8B8A7",
"( c None",
/* pixels */
"((((((((((((                .  (((((((((((((((((((",
"((((((((((((XOooOoooooooooooooO(((((((((((((((((((",
"(((((((((((%&&&&&&&&&&&&&&&&&&%(((((((((((((((((((",
"((((((((((&270wwwwwwqqwwwwwww84&((((((((((((((((((",
"(((((((((O=8knNVNNnNNNnNNNNNNzw>O ((((((((((((((((",
"((((((((.+>yVPTTYYYYYYYYYYRTYFs4%X((((((((((((((((",
"(((((((o+&3kHW^^^^!^!!!^^^^^!PNy2&#(((((((((((((((",
"((((((O#*>tvPQ//^^^^^^^^^^/^^RFva82&((((((((((((((",
"(((((X+*19fVI~/^^^^^^^^^^!^^!WYHVzw;O ((((((((((((",
"((((oO$:6pcAIWQ~W^WW!W!W!QQ!QW!WYSs2#X((((((((((((",
"(((@#$-5efbALTWQ!!!!W!Q!QQ!Q!!^^QLv0;$@(((((((((((",
"((@%*>59uhcCJLTEW!!!!!!!QQQQQ^^^!YVk02;#((((((((((",
".o#=19ruihcMCJITE^!!!!Q!QQQQ!!!^QTJMgr1$o ((((((((",
".o#-6udffhlcMAKIRWW!!W!W!Q!QQ!!!QTIGMf7=@o((((((((",
".o#:9phhffjcMCGLYRWW!!!!Q!Q!!Q!!QEUGMg0<*#@(((((((",
".o#:9phhfhjcMCAJHYYEW!!!!!!!!!^^QRLDMgu6<-%+((((((",
".X$-9phhhdjbMCZAFJITW~~~~Q~~Q~~~QTKClfpue5-#o.((((",
".X$-9phhhhxbBCZCZDKITEWQQWQWWQQQWIGMjfffu9>$Oo((((",
" o$>9pfhjxxMBCCCCZGLTTRTTRTRTRTRTLZchfffpu5:*$#(((",
"((*5uphxxbMBBCCCCCDJLLIILLLILLIILJBxfffffpe61-%#o.",
"(((epfhxMBBCCCCCCCADDGDGGGGGJJGJGZMxhdfffppue5-+o.",
"((((dflbMBCCZCCCCCCZCACCZZCCZZZZZBMxhhffffffu6-$o.",
"(((((hxbBCZZZCCZCZCCCCCCCCCCCCCCBBMbxxhffhhhpe<$o.",
"((((((xMBCZZZCCCCCCCCCCCCCCCBCCCCBBMMxxhhfhhfu5*((",
"(((((((CCCZZCCZCZCZCCCCCCCCCCCCCCCCCMMxxfffffpr(((",
"((((((((ZZCCCZCCCCCCCZCCCCCCZCCZCCCCCMbhffffff((((",
"(((((((((ZZZCZZZCZCCCCCZCCCCZCCCZZZZCBcxfffff(((((",
"((((((((((((((ZCCCZCCZCCCCCCCCCZCZZZCMbjffff((((((",
"(((((((((((((((ZCCCZCZCZZCZCCCCZCZAZCBclhfd(((((((",
"(((((((((((((((ZZCCCCZCCCCCCZCCCCCCZCMclff((((((((",
"(((((((((((((((ZCCCZCCCZCCCZCCCZCCACCMclhf(((((((("
};
