/* XPM */
static char *_[] = {
/* columns rows colors chars-per-pixel */
"50 36 66 1 ",
"  c #020623",
". c #060926",
"X c #080B27",
"o c #0C0F2A",
"O c #0D102B",
"+ c #13162E",
"@ c #161930",
"# c #1A1C33",
"$ c #1E2136",
"% c #202237",
"& c #232539",
"* c #262A3B",
"= c #292B3D",
"- c #333444",
"; c #393C47",
": c #3C3F49",
"> c #3D404A",
", c #41434D",
"< c #4A4753",
"1 c #464850",
"2 c #4C4A55",
"3 c #504C57",
"4 c #524E59",
"5 c #4F5057",
"6 c #515457",
"7 c #55565A",
"8 c #56595B",
"9 c #595B5D",
"0 c #5D615F",
"q c #5F5A61",
"w c #655F65",
"e c #5E6160",
"r c #636563",
"t c #666965",
"y c #696B67",
"u c #6B6569",
"i c #6C6D69",
"p c #6F706B",
"a c #72736E",
"s c #757570",
"d c #797173",
"f c #7D7C75",
"g c #807F77",
"h c #837D79",
"j c #87857C",
"k c #88867D",
"l c #8B887F",
"z c #8E8A80",
"x c #938D83",
"c c #959085",
"v c #989287",
"b c #9B9489",
"n c #9F988C",
"m c #A1958D",
"M c #A39A8E",
"N c #A79D91",
"B c #A99E92",
"V c #ADA295",
"C c #B0A397",
"Z c #B3A699",
"A c #B6A89B",
"S c #BCAD9F",
"D c #BEAEA0",
"F c #BFB0A1",
"G c #C2B2A3",
"H c None",
/* pixels */
"HHHHHHHHHHHHHHHHHHHHHHHoOOOOOOOOoooOOOHHHHHHHHHHHH",
"HHHHHHHHHHHHHH        @59777uddddddddw+HHHHHHHHHHH",
"HHHHHHHHHHHHH-3<<<<<<<7xMnnnAGGGGGGGGM3%HHHHHHHHHH",
"HHHHHHHHHHHH#uGSSSSSSSDSSSSSSSSDSSSSGGZ<@HHHHHHHHH",
"HHHHHHHHHHH#hASSSSDSDSDSSDSSSSSSSSSSSSDBw.HHHHHHHH",
"HHHHHHHHHH=dCGSSSSSSSSSSSSSSSSDSSSSSSDDGmw+HHHHHHH",
"HHHHHHHHH-uSDSSSSSSSSSSSSSSSSSSSSDSSSSSSGB4&HHHHHH",
"HHHHHHHH.wGSSSSSSSSSSSSSSSSSSSSSSSSSSSSSDDA4#HHHHH",
"HHHHHHHHouFSSSSSSSSSSSSSSSSSSDSSSDSSSSSSDDDBrOHHHH",
"HHHHHHH+;hGSSSSSSSSSSSSSSSSSSSSSSSSSSSSSSDDGx5#HHH",
"HHHHHHH+6lVDSSSSSSSSSSSSSSSSSSSSSSSSSSSSSSDDBs#HHH",
"HHHHHHH$7szVSSSSSSSSSSSSSSSSSSSSSSSSSSSSSDDDBi$HHH",
"HHHHHH&8rtyaVDSSSSSSSSSSSSSSSSSSSSSSSSSSSSSDv0+HHH",
"HHHHH &rrrrrsjzSFDSSSSSSSSSSSSSSSSSSSSSSSDDxs6+HHH",
"HHHHH&:rrrrrr0pMBZDDSSSSSSSSSSSSSSSSSDSSDAbpt0=$HH",
"HHHHo:trrrrrrryjjbAASDSSSSDSSSSSSSSSSSSSSNurett=.H",
"HHHHO>trtrterttjjkzzVFSDSSSSSSSSSSSSSSSFVjrrete=.H",
"HHH@>8rterrtreyjjjjjxbnAFFSSSSSSSSSSSDSMzftrtet=.H",
"HHH@8trereetrysjjjjjjjkNNCFFDSSSSSSFFAVljgtette*.H",
"HHH$7pppppytrajjjjjjjjjjjcZAASSSSSSAAVjjkfyrett-+H",
"H.*8rzZVZZbyeskjjjjjjkjjjkzkVFSSSSAvzkkjkgtetrt0:O",
"H.*yxZFFFFAbvNMzjjjjjjjjjjjjzbbbbvbkjjjjkgyrrret,O",
"H&>iVFSSSSFFFFVgjkkjjjjjjjjjjjjjjjjjjjjjkgyrrett,o",
"O,rpVFSSSSSSDFNyskjjjjjkjjjjjjjjjjjjjjjjkgyrrttt,O",
"O>ryVFSSSSSAFFNyfkjjkjjjjjjkjjjjjjkjjjkjjjfyrrrt>O",
"H&1fcbbnZFFFFVzyfkjjjjjjjjjjjjjjjjjjjjjjjkkprrrt6H",
"H -jjjjjnVNVVvftfjjkjjjjjjjjjjjkjjjjjjjjjkjprrrrHH",
"H.-jjjjjjjjkjjfyfjjjjjkjjkjjjjjjjjkjkjjjjjjprrrHHH",
"H -jjjjjjjjjkkfyfkjjjjjjjjjkjjjjjjjjjjjjjjjprrHHHH",
"H.-jjjjjjjjjjkfyfjjjjjjjjjjjjkjjkjjjjjkjjkjprHHHHH",
"HH,jkjjjjjjjjkfyfkjjjkjjjjjjjjjjjjjjjjjjjkjpHHHHHH",
"HHHjjjjjkjjjjkftfkjjjjjjjkjjjjkjjjjkjjjjjjjHHHHHHH",
"HHHHjjjjjjkjjkfyfjjjjjjjjjjjjjjjjjjjjjjkjjHHHHHHHH",
"HHHHHjkjjjjHHHstfkjjjjkjjjjkkjjjjkjjjjjjjHHHHHHHHH",
"HHHHHHjjjjHHHHHtfkjjkjjjjjjjjjjjjjjjkjjjHHHHHHHHHH",
"HHHHHHHHHHHHHHHHHHjjjjjjjjjjjjjkjjkjjjjHHHHHHHHHHH"
};
