/* XPM */
static char *_[] = {
/* columns rows colors chars-per-pixel */
"50 42 73 1 ",
"  c #020623",
". c #050926",
"X c #080B27",
"o c #0A0D29",
"O c #0E112B",
"+ c #12152E",
"@ c #141730",
"# c #161930",
"$ c #1B1D34",
"% c #1D2135",
"& c #202137",
"* c #24253A",
"= c #25283A",
"- c #2A2C3E",
"; c #2C303F",
": c #2F2E41",
"> c #302F42",
", c #2E3240",
"< c #323443",
"1 c #373946",
"2 c #3B3D49",
"3 c #3F414B",
"4 c #41434D",
"5 c #464350",
"6 c #474951",
"7 c #4A4C53",
"8 c #524E59",
"9 c #4E5156",
"0 c #54545A",
"q c #59545D",
"w c #565A5B",
"e c #5A5D5D",
"r c #5D605F",
"t c #5E5B61",
"y c #605B62",
"u c #5F6160",
"i c #636663",
"p c #666965",
"a c #686B67",
"s c #6A6469",
"d c #6D6E6A",
"f c #716C6D",
"g c #6F706B",
"h c #72736E",
"j c #766E70",
"k c #767670",
"l c #797572",
"z c #7D7C75",
"x c #807E77",
"c c #817C78",
"v c #887F7C",
"b c #87857C",
"n c #89867D",
"m c #8B887F",
"M c #8E8380",
"N c #8E8A81",
"B c #938D84",
"V c #9A8F89",
"C c #969086",
"Z c #9D948B",
"A c #A3968E",
"S c #A39A8F",
"D c #A69C91",
"F c #A99E92",
"G c #ACA195",
"H c #B0A497",
"J c #B3A699",
"K c #B7A99B",
"L c #BCAD9F",
"P c #BEAEA0",
"I c #BFB0A1",
"U c #C2B2A3",
"Y c None",
/* pixels */
"YYYYYYYYYYYYY..........X.X..XX....YYYYYYYYYYYYYYYY",
"YYYYYYYYYYYYY$$&$$&$$$$$$#@$$@$$#$YYYYYYYYYYYYYYYY",
"YYYYYYYYYYYY*5qqqqqqqqq85444342441-YYYYYYYYYYYYYYY",
"YYYYYYYYYYYo<sVAZZVVZVVvlfffffhkft1@.ooYYYYYYYYYYY",
"YYYYYYYYYY*>8nLUUUUPUULFZBNCCBCCBc0<>>:-YYYYYYYYYY",
"YYYYYYYYY&5svSIUUUUUUUUKGGGGGGGGFAvjjjy5$YYYYYYYYY",
"YYYYYYYY.*qVKLLLLLLLKLLLKKKLKKKKKJJKJJVy-oYYYYYYYY",
"YYYYYYYY.&yFUULLLLLLLLLLIILIIIIIUUUUUUHc82:YYYYYYY",
"YYYYYYYY &yDUULLLLLLLLLLPPPPPPLPLIIIUUKFBs2+YYYYYY",
"YYYYYYYY+-sAIULLPLLLPLLPLPKPPLLLLLLLLLUUPM5+ YYYYY",
"YYYYYYY%-6lDIILLLLLPLLLLLPKLLPLLLLLLLLLUUM5+ YYYYY",
"YYYYY.+=4smFIILLLLLLLLLLLLPPLLLLLILLLLLUPv6+ YYYYY",
"YYYYY.O=7hBHIILLLPLLLLPLLLLLLLLLLLLLLLLUPMq-#YYYYY",
"YYYYY O=7gBHLILLLLLLLLLLPLLLLLLPLLLLLLIUPVf5;%OYYY",
"YYYYYO@;9dmHIILLLLLLLLLLLLLPLLLLLLLLLLLLKSce1%OYYY",
"YYYY$*,39gBHILLLLPLLLLPLLLLLLLLPLILLKGFFDCci3%oYYY",
"YYYo#39wrgmJIILLLLPLPLLLLLLLPLLLIIILGZCmCbkr3%XYYY",
"YYYO%3rpihmJIILLLLLLLLLLLPLPLPLKJKJHSCbbbzkp6;%+YY",
"YYYO$3rpigmJIILLLLLLLLPLLLPIIILGDZZZCmbbbxzkr73=#o",
"YYYO%3rprgmHLLLLLPLLLLLLLLLKLPKSCmmbbbbbbbbxku7;#.",
"YY%=<7riigbSJLLLLLLPLPPPIKKGGGGCmbbbbbbbbbmbzgw;@.",
"o#;39riiiazmZGLLPLLLPLPPIJGCCCCNmbbbbbbbbbbbzd9;@.",
".#<wipiiiphbCGKIPLLLKKKKKGZmbbnnbbbbbbbbbbbbzgr3%O",
".+;wppiiiphzBGLIPPPPKGGSGZNbbbbbbbbbbbmbbmbbxki93,",
".#;wipuiiphxCGLIILILHZBNNmnnbbbbbbbbbmbbbbnbbxkpww",
"%=3ripiiiphxBSHJJHJHSCbbbbbbbbbbbbbbbbbbbbbbnbbkau",
"349ruppripkxmCCZZZZZCmbbbbbbbbbbbbbmbbbbbnbbnnxkap",
"rrripiipiakxmmmmmmmmmbbbbbbbbbnbbbbbbbbbbbbbnbxhau",
"ppppirpaghzbbbbbbxbbbbbbnbbbbbbbbbbbbbbbbnbbnbbkai",
"pprpuppdkxxbbbbbbbbbbbbbbbbnnbnbbbbbbbbbbbbbbnbzYY",
"rpprpupdzbbbbbbbbbbbbbbbbbbbnbbbbbbmbbbbbbbnbbnYYY",
"YpprprpgxbbbbbbbbbbbbbbbbbbbbbbbbbbbbbbbbbbbbnYYYY",
"YYppiiigxbmbbnbbbbbmbbmbbbbbbbbbbbbbbbbmbbbbmYYYYY",
"YYYiiiigzbbbbbbbbbbbbbbbbbbbbbbmbbbbbbbbbbbbYYYYYY",
"YYYYYiigzbbbbbbbbbbbbbbbmbbbbbbbmbbbbbbbbbbYYYYYYY",
"YYYYYupgxbnbbbbnbbbbbbbbbbbbbbbbbbbbbbbbbbYYYYYYYY",
"YYYYYYakbbbbbbbbbbbmbbbbbbbmbbmbbbmbbbbmbYYYYYYYYY",
"YYYYYYYYbbbbbbbbbbbbbbnbbbbbbbbbbbbbbbbbYYYYYYYYYY",
"YYYYYYYYbbbbbbbbbbbbbbbbbbbbbbbbbbbbbbbYYYYYYYYYYY",
"YYYYYYYYYYbbmbbbbbbbbnnbbbbYYYYYYYYYYYYYYYYYYYYYYY",
"YYYYYYYYYYnbbbbbbbnbbbbbnbYYYYYYYYYYYYYYYYYYYYYYYY",
"YYYYYYYYYYYnbnbbbbbbbnbbbnYYYYYYYYYYYYYYYYYYYYYYYY"
};
