/* XPM */
static char *_[] = {
/* columns rows colors chars-per-pixel */
"50 33 2 1 ",
"  c #819447",
". c None",
/* pixels */
"............................                 .....",
"............................                ......",
"............................                ......",
"............................                ......",
"............................               .......",
"      ......................              ........",
"               .............            ..........",
"                ............           ...........",
"                 ...........           ...........",
"                 ............         ............",
"                   ...........       .............",
"...                 ..............................",
".....                .............................",
"......                ............................",
"......                ............................",
".......               ............................",
"........              ....................        ",
"..........            .............               ",
"...........           ............                ",
"...........           ...........                 ",
"............         ............                 ",
".............       ...........                   ",
"..............................                 ...",
".............................                .....",
"............................                ......",
"............................                ......",
"............................               .......",
"............................             .........",
"............................            ..........",
"............................           ...........",
"............................           ...........",
"............................           ...........",
"............................           ..........."
};
