/* XPM */
static char *_[] = {
/* columns rows colors chars-per-pixel */
"50 31 2 1 ",
"  c #C5CF4D",
". c None",
/* pixels */
".........................      ...................",
".........................      ...................",
".........................      ...................",
".........................      ...................",
".........................      ...................",
".........................       ..................",
"                .........       ..................",
"                 ........       ..................",
"                  .......      ...................",
"                   ......      ...................",
"                   ......      ...................",
"                    .....     ....................",
"                        . ...............         ",
".....                    ..............           ",
"......                   .............            ",
"......                   ............             ",
".......                  ............             ",
"........                 ...........              ",
".........                ..........               ",
"...........              ........             ....",
"............             .......            ......",
"............             .......            ......",
".............           .......             ......",
"..............          .......             ......",
"................      .........             ......",
"...............................             ......",
"...............................             ......",
"...............................             ......",
"...............................             ......",
"...............................             ......",
"...............................             ......"
};
