/* XPM */
static char *FieldsTile_04[] = {
/* columns rows colors chars-per-pixel */
"50 50 65 1 ",
"  c #B35744",
". c #B55945",
"X c #B95D47",
"o c #BA5F48",
"O c #B16E47",
"+ c #BC6249",
"@ c #BD794D",
"# c #C1664B",
"$ c #C56B4D",
"% c #C96F4F",
"& c #CC7351",
"* c #CB7E53",
"= c #D07753",
"- c #D47B55",
"; c #D87F57",
": c #AA8B4A",
"> c #AF984E",
", c #B19E4F",
"< c #B99451",
"1 c #B59B50",
"2 c #BD9C53",
"3 c #9EB34D",
"4 c #ACA54F",
"5 c #A5AF4F",
"6 c #A8AC4F",
"7 c #A5B04F",
"8 c #ADA550",
"9 c #ACAD50",
"0 c #B2A351",
"q c #BEA755",
"w c #B5AB53",
"e c #BAA854",
"r c #A7B150",
"t c #AAB150",
"y c #CB8353",
"u c #C18A51",
"i c #C98F55",
"p c #D58256",
"a c #D88057",
"s c #D08956",
"d c #DC8459",
"f c #D68958",
"g c #DE885A",
"h c #C09052",
"j c #C39C55",
"k c #C99E57",
"l c #CC9E58",
"z c #D5965A",
"x c #DD905B",
"c c #D59E5B",
"v c #DC9C5D",
"b c #E1845B",
"n c #E38D5D",
"m c #E88A5E",
"M c #E6915F",
"N c #E8925F",
"B c #E2995F",
"V c #C2A556",
"C c #C7A458",
"Z c #CCA259",
"A c #D2A05B",
"S c #E79760",
"D c #EB9661",
"F c #E69860",
"G c #ED9862",
/* pixels */
" &DDDDDDDDDDDDDDDDDDDDDDDD-X$dDDDDDDDg&    +&+    ",
"#-DGDDDDDDDDDDDDDDDDDDDDDDa$-nDDDDDDDnd-#X$-d-&#+ ",
"=dDDDDDDDDDDDDDDDDDDDDDDDDg*nDDDDDDDDDDD-+dGDDM-$ ",
"=dDDDDDDDDDDDDDDDDDDDDDDDG-#gGDDDDDDDDGGg&nGDDDM-&",
"&dDDDDDDDDDDDDDDDSDDDDDDDD&+dGGDDDDDDDDDd&gDDDDDd=",
"&dDDDDDDDDDDDDDDDDDDDDDDDD-+dGDDDDDDDDDD-+dGDDDDd-",
"+-DDDDDDDDDDDDDDDDDDDDDDDD=+dGDDDGDDDDDDndMDDDDDDn",
" &DDDDDDDDDDDDDDDDDDDDDDGD-$bGDDDDDDDDDDDMDDDDDGDn",
".&DGDDDDDDDDDDDDDDDDDDDDDDd-nGDDDDDDDDDDn-nDDDDDd-",
"$-DGDDDDDDDDDDDDDDDDDDDDDGg-nDDDDDDDDDDDd--nDGMd%+",
"adMDDDDDDDDDDDDDDDDDDDDDDMgaMDDDDDDDDDDDn---nDMa%+",
"Mg-MGDDDDDDDDDDDDDDDDDDDNadMDDDDDDDDDDDDDM-=-nDMnn",
"Gg-nDDDDDDDDDDDDDDDDDDDDM-dDDDDDDDDDDDDDDDnddMDGGG",
"Dg-nGDDDDDDDDDDDDDDDDDDDn-dDDDDDDDDDDDDDDDMDDDDDDD",
"Dg-nGDDDDDDDDDDDDDDDDDDn-=dDDDDDDDDDDDDDDSddDDDDDD",
"Db-dnDDDDDDDDDDDDDDDDDDg&$aDDDDDDDDDDDDDDD-dDDDDDD",
"Dg-&dDDDDDDDDDDDDDDDDDDd%X&DDDDDDDDDDDDDGD--DDDDDD",
"DDn-aDGDDDDDDDDDDDDDDDD-X #dMDDDDDDDDDDDGD%$-MDDDD",
"GDb-dSDDDDDDDDDDDDDDDDn-$$$%dMDDDGDDDDDDM;+X$;nDDD",
"Dg-&dMDDDDDDDDDDDDDDDM-dDM-+%dDDDDDDDDDD-+  X%dMDD",
"d&+&-dnDDDDDDDDDDDDDDn-gGGn-#=DGGGGGGnad-# o$&-add",
"&$#&aanDDDDDDDDDDDDDDd&-MDGM$$dgddgdg-&-d-%%------",
"&&=nDNDDDDDDDDDDDDDDd&+$aNGN-$++o+o++$-nDMMMDDMDMD",
"nd-MGDDDDDDDDDDDDDSg-&-agDnd-&#X  o$&dnDDDDGDGDDDD",
"Dd&dMDGDDDDDDDDDDMa&&dDGDDb---&+ o&dMDDDDDDDDDDDDD",
"G-o+&DGn-nDDDDDGM&X+-MDDDDDMNg-+o&dMDDDDDDDDDDDDDD",
"Dg&X+=dd=ad----ad$#&nGDDDDDGGMd++dDDDDDDDDDDDDDDDD",
"DGn# X&---&+  X$--dDDDDDDDDDDGM%$nDDDDDDDDDDDDDDDD",
"DGM#X&dnnMg&+.#-nMMDDDDDDDDDDDD--DDDDDDDDDDDDDDDDD",
"DDM%$dMGGGM-$$-nDDDDDDDDDDDDDGDa-MDDDDDDDDDDDDDDDD",
"DGMaaDDDDDM-&-nDDDDDDDDDDDDDDDNadDDDDDDDDDDDDDDDDD",
"DDDnMGDDDDDnd-MGDDDDDDDDDDDDDDDa-SDDDDDDDDDDDDDDDD",
"DDDDMnDDDDDDndMDDDDDDDDDDDDDDDD--DDDDDDDDDDDDDDDDD",
"DDDGn-nDDDDDDMDDDDDDDDDDDDDDDDM$#MGDDDDDDDDDDDDDDD",
"DDDDg-nGDDDDDDDDDDDDDDDDDDDDDDD$#MGDDDDDDDDDDDDDDD",
"DDDDn-dMnDDDDDDDDDDDDDDDDDDDDDn$$MDDDDDDDDDDDDDDDD",
"DDDDn----nDDDDDDDDDDDDDDDDDDDn-&-DDDDDDDDDDDDDDDDD",
"DDDGd#$-dMDDDDDDDDDDDDDDDDDDDn-anDGDDDDDDDDDDDDDDD",
"DDDGa+&dDDDDDDDDDDDDDDDDDDDDDg&nDDDDDSBBBBDDDDDDDD",
"DDDGg&dMDDDDDDDDDDDDDDDDDDDDGa#dGDDDDAwwwevDDDDDDD",
"DDDd=-nGDDDDDDDDDDDDDGDDDDDDG-o-GDDScw7777VvSDDDDD",
"DDn$+*xSMDDDDDDDDDDDSDBSDDDDDs+aGDDv9777777qSDDDDD",
"DGn#O1wjpnGDDDDGDDDSZeecDDDSC0,zGDDv9777777eDDDDDD",
"DDg@:r74ufnnnnvccSDSq37qvDDBw7tADDDv9777777eSDDDDD",
"Dby157779u*--y05wcDSV7r7wBDBw7tcDDDBw777775qSDDDDS",
"Dz19r57778111,675wADvVt39vmf075ibDDDce7779VvDDBCqq",
"vV777r5r7777775777wvDBqwVFgu879<ynDDDcewwevDMxZt77",
"9t775r77777775777779cDBBBDZ857551pbDDSBBBBDnp29777",
"77777r75r757r57r5775wlddgCw7777781qkdnDDDDbp<97777",
"7777757r57r7r7755rr770&=y877777rrr78ydDDDD;u675777"
};
