/* XPM */
static char *FieldsTile_31[] = {
/* columns rows colors chars-per-pixel */
"50 50 75 1 ",
"  c #B35744",
". c #B55945",
"X c #B95D47",
"o c #BF5E49",
"O c #BD6249",
"+ c #BF694B",
"@ c #AF7147",
"# c #BA7A4C",
"$ c #C1664B",
"% c #C46A4D",
"& c #C96F4F",
"* c #C9704F",
"= c #CC7351",
"- c #CC7C53",
"; c #D17753",
": c #D47C55",
"> c #D87F57",
", c #DA7F58",
"< c #AC894A",
"1 c #B0894C",
"2 c #AD914C",
"3 c #B3984F",
"4 c #BF8750",
"5 c #BC8F51",
"6 c #B79650",
"7 c #BC9451",
"8 c #B59B50",
"9 c #BA9A52",
"0 c #A5A54D",
"q c #ADA54F",
"w c #A7AE4F",
"e c #A9AC4F",
"r c #A5B04F",
"t c #AEA650",
"y c #ABAE50",
"u c #B3A652",
"i c #BDA655",
"p c #B4AB53",
"a c #B9A954",
"s c #AFB052",
"d c #C38551",
"f c #CA8553",
"g c #C48C53",
"h c #CB8B55",
"j c #D68056",
"k c #D88057",
"l c #D38857",
"z c #DB8459",
"x c #D58958",
"c c #DD895A",
"v c #CA9256",
"b c #C39B55",
"n c #C89D57",
"m c #CF9758",
"M c #CD9C58",
"N c #D59359",
"B c #DC935C",
"V c #D59E5B",
"C c #DB9C5D",
"Z c #E2865B",
"A c #E38D5D",
"S c #E8895E",
"D c #E6915F",
"F c #E8925F",
"G c #E2995F",
"H c #C4A457",
"J c #C7A458",
"K c #CDA259",
"L c #D1A05A",
"P c #EC8F60",
"I c #E79760",
"U c #EB9661",
"Y c #E69860",
"T c #EC9862",
"R c #F09562",
/* pixels */
"rrpCTU>derrrrsrrwrrrrpGUF>5wrrsVUUUUUZftwrrwrrrrrw",
"rq9BTUZverrrrrwrrsrrpKUUUzbrryHCRUCMKNxMarrrrrrsrr",
"r6jAUUUCprrrrrwrrrwyVUUUUUMtyHIIYCarwJIIVyrrrrrrrr",
"rHAUUUUICarrrrrrrrpCTUUUUUcgNGUJpayrryiYIVprrrrrrr",
"8MTUUUUUUVawrrrrwpLUUUUUUUAzFUTarrrrrryCUUKi822888",
"=zUTUUUUUUCprwsypVUUUUUUUUUUUUIisrrrrraCUUUA-+O-:-",
"O;UUUUUUUUICVVVLVIUUUUUUFzZTUUUCJrryKVVIUUUUZzzZZA",
"@dCITUUUUUUUUUUUUUUUUUUTS:zUUUUUCiaJIUUUUUUUTIPUTT",
"0rpCUUUUUUUUUUUUUUUUUUUUF:zIUUUUUYYIUUUUUUUUUz:IUU",
"rryhZUUUUUUUUUUUUUUUUUUVH8mTUUUUUUUUUUUUUUUUUz=*:z",
"pse5lUUUUUUUUUUUUUUUUUFirriDUUUUUUUUUUUUUUUPc:=+=:",
"GJeeHTUUUUUUUUUUUUUUUAj9rr9jATUUUUUUUUUUUUUz$&>cAF",
"UCn94-ATTTTTTTUUUZAUTFcNb1#:AUUUIUUUUUUUUUTz$:AUTT",
"UUUk*$>AAAAAFFUUUkzFTUUUA%$:AUUUUUUUUUUUUUTAkZTUUU",
"UUUUAz=$$O%:>kFTIDFUUUUUUA>=:cUUUUUUUUUUUUUUAUUUUU",
"UUUURU% OO%>kzFUUTUUUUUUUTFk;kUUUUUUUUUUUUAAUUUUUU",
"UUUUUA%O=->FUUUUUUUUUUUUUUUFjkFUUUUUUUUUUU>>IUUUUU",
"UUUUTI>*;zAIUUUUUUUUUUUUUUUUFckFUUUUUUUUUI>>UUUUUU",
"UUUUUUk:,ATUUUUUUUUUUUUUUUIUTz=>FUUUUUUUUZ==ZUUUUU",
"UUUUUUkjIUUUUUUUUUUUUUUUUUUUU>O%>FUUIUUUc;OO;cUUUU",
"UTTTAzcFUUUUUUUUUUUUUUUUUUUUTjXX$*&=>kk,=O XO$=,kk",
"AZcc>:ZTUUUUUUUUUUUUUUUUUUUUTj   XO%:>>:=$$$$$%:,>",
":=OX%;AUUUUUUUUUUUUUUUUUUUUUUjX o=kUIAIIUAFAIAIUIU",
"zk;%O%zUUUUUUUUIUUUUUIUUUUUU>&%=>zUTUUUTTTTTUTUUUU",
"UUUk&OkTUUUUUUUUUUUUUUUUUUTc%$>DUUUUUUUUUUUUUUUUUU",
"UUUIk;ZTUUUUUUUUUUUUUUUUUUZ>=:AIUUUUUUUUUUUUIUUUUU",
"UUTTFzcAUUUUUUUUUUUUUUUUUA=%>AUTUUUUUUUUUUUUUUUUUU",
"UUUUUUzkUTUUUUUUUUUUUUFIA:%$cTUUUUUUUUUUUUUUUUUUUU",
"UUUUUUFFUUUUUUUUUUUUUFj:>=>cFUUUUUUUUUUUUUUUUUUUUU",
"UUUUUUUFAFUUUUUUUAAUUFz:;>ATUUUUUUUIUUUUUUUUUUUUUU",
"UTUUUUTA:zUUUUUUUkzIUUUz:FUUUUUUUUUUUUUUUIUUUUUUUU",
"UIUUUUUA::zITTTUUAAUUUUk:FTUUUUUUUUUUUUUUUUUUUUUUU",
"UUUUUUUA:%=cAAAAAUTUUUUZkIUUUUUUUUUUUUUUUUUUUUUUUU",
"UUUUUUUA:$O=::;::ATUUUUUUUUUUUUUTUUUUUUUUUUUUUUUUU",
"UUUUUUUF:O OO$==:AUUUUzAUUUUUUUUUUUUUUUUUUUUUUUUUU",
"UUUUUUUz=$$$$$;>jZFCCN=zUUUUUUUUUUUUUUUUUUUUIUUUUU",
"UUUIUUz=O:AAZFFFFkgps3O:UUUUUUUUUUIUUUUUUUUUUUUUUU",
"UUUUUIk=-cTTTTTUTZvwr0<hUUUUUUUUUUTUUUUUUUUUUUUUUU",
"UUUUUUkkUUUUUUUUUUVprrsJUUUUUUUUUUUUUUUUUUUUUUUUUU",
"UUUUUUFFUUUUUUUUUUTVarrJUUUUUUUUUUUUUUUUUUUUUUUUUU",
"UUUUPAUTUUUUUUUUUUUULH9hZUUUUUUUUUUUUCKKKKJCUUUUUU",
"UUUUcfcIFUUTUUUUUUUUTA>->IUUUUUUUUUUIJyrsywaGIIUUU",
"UUPzh8uaaCUUUUUUUUUUUUAj:AUUUUUUUUUIHyrrrrryapJIUU",
"UUIh8rrrriCIUICVVVVVITUZkVGUUUUUUUUCyrrrrrrrrraGUU",
"UUGawrrrrraGUGaryyyyKUUUCpHIUUUUUUUCyrrrrrwrrrpCRU",
"UCiyrrrwwrtlSYprrrrrpMUUGpyHxZUUUUUCyrrrwrrrrrpYUU",
"CHwrrrrrrr0glBi0rrrrrpGUBtrw5hCIUURYiapyrrrrwpJYUA",
"yywrryrrrrwyg:-7wrrrraYcftrweypVUUUIGYCprrrryJIIz:",
"rrrrrrrrrrrrt7--7nKKKVzh8yrrrrraJJCUURUVJKKKLYUzg6",
"rrrrrwryrrwrrtd;;ARUTA:6rrrrrrrrrrKUUUUUUUUUUTA:6r"
};
