/* XPM */
static char *FieldsTile_48[] = {
/* columns rows colors chars-per-pixel */
"50 50 84 1 ",
"  c #B65645",
". c #B55A45",
"X c #B95D47",
"o c #BA5F48",
"O c #AF6745",
"+ c #B46346",
"@ c #B76648",
"# c #BE634A",
"$ c #BD6B4B",
"% c #AE7347",
"& c #AF7448",
"* c #AE7A48",
"= c #B37249",
"- c #BF754D",
"; c #B67D4B",
": c #BB7D4D",
"> c #C1664B",
", c #C56B4D",
"< c #C86E4F",
"1 c #C4754F",
"2 c #C9704F",
"3 c #CD7351",
"4 c #CD7B53",
"5 c #D17753",
"6 c #D47C55",
"7 c #D87D57",
"8 c #DC7F58",
"9 c #AC864A",
"0 c #AC8C4B",
"q c #B48C4D",
"w c #AB944C",
"e c #AB9C4D",
"r c #B5964F",
"t c #B39B4F",
"y c #BF8450",
"u c #BE8D51",
"i c #BB9451",
"p c #B59B50",
"a c #9EB44D",
"s c #A6A44D",
"d c #ADA44F",
"f c #A6AD4F",
"g c #AAAB4F",
"h c #A5B14F",
"j c #AFA450",
"k c #ACAD50",
"l c #B2A451",
"z c #BDA555",
"x c #B2AB52",
"c c #BBA954",
"v c #A5B550",
"b c #AAB050",
"n c #C48552",
"m c #CB8554",
"M c #C38A52",
"N c #CC8A55",
"B c #D58457",
"V c #D88057",
"C c #D28957",
"Z c #DC8459",
"A c #DE895B",
"S c #C59354",
"D c #CC9256",
"F c #C09A54",
"G c #C99A57",
"H c #CC9E58",
"J c #D49459",
"K c #DA915B",
"L c #D59E5B",
"P c #DB9C5D",
"I c #E0855B",
"U c #E38C5D",
"Y c #E98D5F",
"T c #E6915E",
"R c #E8925F",
"E c #E3995F",
"W c #C3A557",
"Q c #C7A358",
"! c #CBA259",
"~ c #D1A05A",
"^ c #EB9661",
"/ c #E79860",
"( c #ED9862",
") c #F09462",
/* pixels */
" 3^^LbhhhhhhQ^^^^^^^^^^^^^6.<Z^^^^^^^Z45ufht4rhhhh",
">6^^~fhhhhhhQ^^^^^^^^^^^^^V,6U^^^^^^^TZZJWkgiiphhh",
"4A^^~xfhhhhk!^^^^^^^^^^^^^A6U^^^^^^^^^R^^EWkkMNlkg",
"dG^^/Lxhhhx~E^^^^^^^^^^^^^^U^^^^^^^^^^^^)^PLLTTPDn",
"hW^^^^!WWc!E^^^^^^^^^^^^^^^^^^^^^^^^^^^^^^^^)^^)U8",
"hQ^^^^/^^^^^^^^^^^^^^^^^^^^^^^^^^^^^^^^^^^^^^^^^^^",
"hW^^^^^^^^^^^^^^^^^^^^^AZE^^^^^^^^^^^^^^^^^^^^^^^^",
"eSU^^^^^^^^^^^^(^^^^^^^Z6U^^^^^^^^^^^^^^^^^^^^^(RU",
"+,6T(^^^^^^^^^^^^^^^^^^Z6R^^^^^^^^^^^^^^^^^^^^^RZ5",
">:iP)^^^^^^^^^^^^^^^^^^Z6T(^^^^^^^^^^^^^^^^^^(U3Mr",
"7ik!PE/^^^^^^^^^^^^^^^^V5U(^^^^^^^^^^^^^^^^^^^C$wh",
"^!kkxxL^^^^^^^^^^^^^^(^3>U(^^^^^^^^^^^^^^^^^^Zmdfh",
"^PWgafDZZAU^^^^^^^^^UZZ,#U(^^^^^^^^^^^^^^^^^^Dpghf",
"^^EzgxN6634URTU^^^^^Z66,#A^^^^^^^^^^^^^^^^^^Echhhh",
"^^^BNPTTU3#6666A^^^^TTT636U^^^^^^^^^^^^^^^^Lxbhhhh",
"^^^II^^((5>36ZZU^^^^^^^T6<6^(^^^^^^^^^^^^^^Lghhhhh",
"^^^^^^^^^Z63Z^^^^^^^^^^(U#3^^^^^^^^^^^^^^^^Lkhhhhf",
"^^^^^^^^^TA6A^^^^^^^^^^(U#>ZU(^^^^^^^^^(^^)~bhhhhh",
"^^^^^^^^^(U36U^(^^^^^^UZ6#o2ZT^^^^^^^^^^^^^Jwfhhhh",
"/^/^^^^^^(A#,6U^^/^^^T6,+  +2Z^^^^^^^^^^^^^Z@0ffhh",
"ccQE(^^^^(I# >6ZZT^^^^UZ6<# o<ZU(^^^^^^^^^(VoO9fvb",
"hhk!E^^^^(A,o#56VU^^^^^^TZ3,>,6ZU^^^^^^^^^(Z>o:ree",
"hfhbQ^(^^^U635U^T^^^^^^^^TRUTZ56ZE^^^^^^^^^U5ZU4-+",
"udhhc^((^Z336UR^(^^^^^^^^(^((RAZAZ56R((((^IZIRT6:9",
"6SljiAUUI3#4U^^^^^^^^^/^^^^^^^^^U6,,ZUUU^RZZ^^UNrh",
"UEPC1,##>,5U^^^^^^^^^^^^^^^^^^^^^T62##>5Z^RR^)Plfh",
"(^^I5# +*qSE^^^^^^^^^^^^^^^^^^^^^^U6o#37U^^^^PWhhh",
"^^^^U5$*sfzE^^^^^^^^^^^^^^^^^^^^^((U#4^^^^^^Ezhhhh",
"VI^(^TisfpNT^^^^^^^^^^^^^^^^^^^^^^(U5Z(^^^^Pckhhhf",
"uDLAY/chbSIR^/^^^^^^^^^^^^^^^^^^^^^U6Z^^^^LWhhhhhh",
"fhsMZEcfg!^^^^^^^^^^^^^^^^^^^^^^^^^T6Z^^^/zbbhhhhh",
"hhfdSVmMMK(^^^^^^^^^^^^^^^^^^^^^^^(T6Z^^^/xhhhhhgh",
"hhhhlM458U^^^^^^^^^^^^^^^^^^^^^^^^EI5Z^^^/zhhhfhhb",
"hhbhbsM6U^^^^^^^^^^^^^^^/^^^^^^^^/Z64Z^^^Exhhhhhhh",
"fhhhhf;3^^^^^^^^^^^^^^^^^^^^^^^^^^Z4iz!E)/chhhhhfh",
"hhhhhg%>U^^^^^^^^^^^^^^^^^^^^^^^^^ZnghkP)/chhhhfhh",
"hhhkhf&#6U^^^^^^^^^^^^^^^^^^^^^^^^ImshxP^Echhhhhhh",
"bhhhhf:,3I(^^^^^^^^^^^^^^^^^^^^^RZSpghxP)^Lzghhhhh",
"hhhhhjM66AR^^^^^^^^^^^^^^^^^^^^^U3rhhflP^^^Lxkkhhh",
"hfhhpMARTZZR^^^^^^^^^^^^^^^^^^^(Z>0hhpNT^^^^PNughh",
"hhhhr6U(^6<ZT^^^^^^^^^^^^^^^^^^T6+0hhiIR^^^^^YVidh",
"hhhhp6Y(T3o3Z^^^^^^^^^^^^^^^^^TV,.0kbH^^^^^^^^UBik",
"hfhhzK^UV3,#<ZT(((^^^^^^^^^^^U7,XXmL~/^^^^^^^^^UCn",
"hhflG^^YZV6<256ZVZT^^(^^^(TU^T6,X 7()^^^^^^/LLL^85",
"hhkM7^^^^^R^Z4>o#3ZTR^^^^^Z6U(^Z,o6^^^^^^^)LxhcEZ5",
"hhsn8^^^^)^(TIV6653<<36ZZV66U)^YZ2Z)^^^^^^^~gaxEZ5",
"hhkNI^ELPPP^^^((^Z3,#<6686mmLPP^U3ZT^^^^^^^LcxQEKn",
"ffkP^/WkkkcE^^^^^^TUTURTY^Gkkbx~Z#,V^^^^^^^^EE/^Qg",
"hdSEPQkhhhfzL^^^^^((((^((^C9shfy,Xo,VU(^^^^^^)/Qxh",
"hi6ULfhhhhhhQ^^^^^^^^^^^^^6+ehf*   o3Z^^^^^^^^Pkhh"
};
