/* XPM */
static char *FieldsTile_61[] = {
/* columns rows colors chars-per-pixel */
"50 50 77 1 ",
"  c #B45744",
". c #B55945",
"X c #B95D47",
"o c #BA5F48",
"O c #B46346",
"+ c #BC6249",
"@ c #BC6C4B",
"# c #AC7D48",
"$ c #B07548",
"% c #BE724C",
"& c #BE7A4E",
"* c #C1664B",
"= c #C56B4D",
"- c #C86F4F",
"; c #C17C4F",
": c #CD6E50",
"> c #CD7351",
", c #C57B50",
"< c #CC7C53",
"1 c #D07753",
"2 c #D47B55",
"3 c #D97E57",
"4 c #AF864B",
"5 c #AC8A4B",
"6 c #B28F4D",
"7 c #AE924C",
"8 c #A9994C",
"9 c #B2914E",
"0 c #B19C4F",
"q c #BE8950",
"w c #BA9551",
"e c #B49C50",
"r c #BB9B52",
"t c #A6A54D",
"y c #ACA54F",
"u c #A7AD4F",
"i c #A9AB4F",
"p c #A5B14F",
"a c #AFA450",
"s c #ABAD50",
"d c #B0A350",
"f c #BEA655",
"g c #B2AB52",
"h c #BAA954",
"j c #A5B550",
"k c #AEB051",
"l c #C38651",
"z c #C98453",
"x c #C38B52",
"c c #CB8E55",
"v c #D68056",
"b c #D88057",
"n c #D08B56",
"m c #DC8459",
"M c #D68E59",
"N c #DE895B",
"B c #C39153",
"V c #C29B54",
"C c #CA9B57",
"Z c #CE9D59",
"A c #DC965C",
"S c #D59E5B",
"D c #DB9C5D",
"F c #E0865B",
"G c #E38D5D",
"H c #E88F5F",
"J c #E6915F",
"K c #E8925F",
"L c #E2995F",
"P c #C3A456",
"I c #C7A458",
"U c #CBA359",
"Y c #D3A05B",
"T c #E79760",
"R c #EB9661",
"E c #E69960",
"W c #ED9862",
/* pixels */
" >RRRRRRRRRRRRRRRRRRRRRRRR1X-mRRRRRRRN>X#jpe<wjupp",
"*2RRRRRRRRRRRRRRRRRRRRRRRR3=2GRRRRRRRJm1&5tswweujp",
">NRRRRRRRRRRRRRRRRRRRERRRRN<GRRRRRRRRRRR2O7ssxzdup",
"1NRRRRRRRRRRRRRRRRRRRRRRRR2=NRRRRRRRRRRRF>,cDJNzep",
"1NRRRRRRRRRRRRRRRRRRRRRRWR1oNRRRRRRRRRRRN-1FWWHFxe",
">bRRRRRRRRRRRRRRRRRRRRRRRR1+NRRRRRRRRRRR2+NRRWRRN<",
"+1RRRRRRRRRRRRRRRRRRRRRRRW1+NWRRRRRRRRRRGNGRRRRRm1",
" >RRRRRRRRRRRRRRRRRRRRRRRR2*NRRRRRRRRRRRRGRRRRWRMz",
" >WWRRRRRRRRRRRRRRRRRRRRRRN1GWRRRRRRRRRRG2GRRRRRVa",
"=2RWRRRRRRRRRRRRRRRRRRRRRWF1JRRRRRRRRRRRN12GRREIgj",
"2NJRRRRRRRRRRRRRRRRRRRRRRKN3JRRRRRRRRRRRG213GLUspp",
"KNvGWRRRRRRRRRRRRRRRRRRRKbmHRRRRRRRRRRRRRJ312rsppp",
"RF1GWRRRRRRRRRRRRRRRRRRRJ2bRRRRRRRRRRRRRRR2<wypppp",
"RN2GWRRRRRRRRRRRRRRRRRRRG2NRRRRRRRRRRRRRRRvlsppppp",
"RF2GWRRRRRRRRRRRRRRRRRRN21NRRRRRRRRRRRRRRTbluppppp",
"RN1NGRRRRRRRRRRRRRRRRRRN>-vRRRRRRRRRRRRRRRbxjppppp",
"RN11bRRRRRRRRRRRRRRRRRRN-X>KRRRRRRRRRRRRRR2lapppup",
"RRG2bRWRRRRRRRRRRRRRRRR1X =bJWRRRRRRRRRRWR:@lapppp",
"WRG2bRWRRRRRRRRRRRRRWRG1--=-bJRRRRRRRRWRJ2+X-qappp",
"RN11bRRRRRRRRRRRRRRRWG2mKK1+>mRRRRRRRRRR3+  .-lauj",
"b>*>1NGRRRRRRRRRRRRRRG2GWWG2*>RWRRRRRGmm1= X=><ldp",
">=+>vvGWRRRRRRRRRRRRGN>2GRWH-=NADSDAN2<2b2-:2232Ba",
"111GRTRRRRRRRRRRRRRRN>o-bRWR2=+9ksk0@=2GRTGKRRJRm<",
"Nb2JWRRRRRRRRRRRRRRN2>1bFRGb2;5tjppy<3NRRRRWWRRRGN",
"RN>mJRRRRRRRRRRRRJm>>mRRRRN22xppppsfERRRRRRRRRRRRR",
"R2X+<RRG2GRRRRRRJ>X+2KRRRRRJHSjppkPLRRRRRRRRRRRRRR",
"RG:.+1mb13N1121vb-+>GWRRRRRWRDI65PLRRRRRRRRRRRRRDU",
"RRG= o>222>+..X-21mRRRRRRRRRRRJ--JWRRRRRRRRRRRRLPp",
"RWG@X:bJGJN>+ =2GJJRRRRRRRRRRRR21RWRRRRRRRRRRRDfsp",
"RRJ:-mJWWWJ2-=2GWWRRRRRRRRRRRWR32RRRRRRRRRRRRDIspp",
"RRR2bRRRRRJ2>1GRRRRRRRRRRRRRRRR32RWRRRRRRRRRRPijpp",
"RRRGJWRRRRRJb2JWRRRRRRRRRRRRRRR33RRRRRRRRRRRTfpppp",
"RRRWRGRRRRRRN2GRRRRRRRRRRRRRRRR11JRRRRRRRRRRRfpppp",
"RRRRG2GRRRRRN2GRRRRRRRRRRRRRRWJ--JWRRRRRRRWRRfppsp",
"RRRWF1GRRRRRGGRRRRRRRRRRRRRRRRJ==JWRRRRRRRRRRfpppp",
"RRRRG2MDDJJRRRRRRRRRRRRRRRRRRRG>-JWRRRRRRRREDhppuu",
"RRRRF1rsgx3RWRRRRRRRRRRRRRRRRG2>2JRRRRRRRRRDgppppj",
"RRRRArtjjVFRRRRRRRRRRRRRRRRRWN1bGRRRRRRRRRRSkpppuu",
"RRRRSsppaSRRRRRRRRRRRRRRRRRRRN1NRRRRRRRRRRRSsppupj",
"RWRmxppylNWRRRRRRRRRRRRRRRRRWb=bRRRRRRRRRRRYsppppp",
"RWJ>&rfZmGRRRRRRRRRRRRRRRRRRW2+bWRRRRRRRRRWSsuupup",
"RWG=+1GRRRRRRRRRRRRRRRRRRRRRW1+bWRRRRRRRRRRSgjpppp",
"RWG*=GRRRRRRRRRRRRRRRRRRRRRRN:XbRRRRRRRRRRRESgpppp",
"RWG=>RRRRRRRRRRRRRRRRRRRRRRR2-*bWRRRRRRRRRRRRSgppp",
"RRG3bRRRRRRRRRRRRRRRRRRRRRRJv>1GRRRRRRRRRRRRRRDgpp",
"mmNFJRRRWRRRRRRRRRRRRRRRRRYr%:GRRRRRRRRRRRRRRREShp",
"z,>GRGDDDDDRRRRRRRRRRRRRRRUs#&DEWRWRRRRRRRRRRRRRIp",
"y4+NGvrsgshLWRRRRRRRRRRRRRUpitgSRRRRRRRRRRRRRRRRPp",
"p7=3cwipppufSRRRRRRRRRRRRRn4yjuq>>>1mGRRRRRRRRLIgp",
"jw11lsppppppIRRRRRRRRRRRRW1O8ji$   X>NRRRRRRRRDgpp"
};
