/* XPM */
static char *FieldsTile_17[] = {
/* columns rows colors chars-per-pixel */
"50 50 76 1 ",
"  c #B45744",
". c #B55945",
"X c #B95D47",
"o c #BA5F48",
"O c #B46346",
"+ c #BC6249",
"@ c #BC6C4B",
"# c #AC7D48",
"$ c #B07548",
"% c #BE724C",
"& c #BF7B4E",
"* c #C1664B",
"= c #C56B4D",
"- c #C96F4F",
"; c #C17C4F",
": c #CD6E50",
"> c #CD7351",
", c #C57D50",
"< c #CC7C52",
"1 c #D07753",
"2 c #D47B55",
"3 c #D97E57",
"4 c #AE864A",
"5 c #AC8A4B",
"6 c #B28F4D",
"7 c #AE924C",
"8 c #A9994C",
"9 c #B2924E",
"0 c #B19C4F",
"q c #BE8950",
"w c #BA9351",
"e c #B49C50",
"r c #BE9A53",
"t c #A6A54D",
"y c #ABA64F",
"u c #A7AD4F",
"i c #A8AC4F",
"p c #A5B04F",
"a c #AFA450",
"s c #ABAD50",
"d c #B0A350",
"f c #BEA755",
"g c #B2AB52",
"h c #B9A954",
"j c #A5B550",
"k c #AEB051",
"l c #C28651",
"z c #C98453",
"x c #C38A52",
"c c #CB8E55",
"v c #D78057",
"b c #D88057",
"n c #D08A56",
"m c #DC8459",
"M c #D68E59",
"N c #DE885B",
"B c #C29153",
"V c #C09E54",
"C c #CE9D59",
"Z c #DC965C",
"A c #D59E5B",
"S c #DA9C5D",
"D c #E0865B",
"F c #E38D5D",
"G c #E88F5F",
"H c #E6915F",
"J c #E8925F",
"K c #E2995F",
"L c #C3A457",
"P c #C7A458",
"I c #CBA359",
"U c #D3A05B",
"Y c #E79760",
"T c #EB9661",
"R c #E69960",
"E c #ED9862",
/* pixels */
" >TTTTTTTTTTTTTTTTTTTTTTET1o-mTTEEJEJN>X#upe<0uppp",
"*2TTTTTTTTTTTTTTTTTTTTTTETb=2FTTJEEEJHb<;5iyww0upp",
">NTTTTTTTTTTTTTTTTTTTTTTTTm<FTTTEJTTEEJE2+7uyczdpp",
"1NTTTTTTTTTTTTTTTTTTTTTTTT2*NTTTTTTTJEEEN>,cSKNzep",
">mTTTTTTTTETTTTTTTTTTTTTTT1+NTTTTTETEJJEb-2DTEJDBe",
">mTTTTTTTTTTTTTTTTTTTTTTTT1+NTTTTTJETEET2*mTTTTTN1",
"+2TTTTTTTTTTTTTTTTTTTTTTET1+NETTTTJETTTEHNFETTTTm1",
" >TTTTTTTTTTTTTTYTTTTTTTTT2*NETTTTETTTTTJHJETTTTMz",
" >TETTTTTTTTTTTTTTTTTTTTETN1FTTTTTTTTTTTF2FTTTTELi",
"=vTETTTTTTTTTTTTTTTTTTTTTEN2FTTTTTTTTTTTN13FTTKPgp",
"2NHTTTTTTTTTTTTTTTTTTTTTTHNbHTTTTTTTTTTEF212FJIkpu",
"HN2FETTTTTTTTTTTTTTTTTTTHbmHTTTTTTTTTTTTJH2<vrgppp",
"EN2FETTTTTTTTTTTTETTTTTTH2mTTTTTTTTTTTTTEJbzwypppp",
"TN2FETTTTTTTTTTTTTTTTTTTF1mTTTTTTTTTTTTTEJ3xippppp",
"TN1FETTTTTETTTTTTTTTTTTN21NTTTTTTTTTTTTTEJ3lijpppp",
"EN1NFTTTTTTTTTTTTTTTTTTN>-3TETTTTTTTTTTTEJ3xuppppp",
"TD11bTTTTTTTTTTTTTTTTTTN-X>HTTTTTTTTTTTTTJ3lypppij",
"TTF2bJETTTETTTTTTTTTTTT1X =mHETTTTTTTTTTEJ-*xdppup",
"EJF2mTETTTTTTTTTTTTTTTF1===-mHTTTTTTTTETH2++=qaupp",
"TN1<bJTTTTTTTTTTTTTTEH2NJJ2+=mTETTTTTTTT2+X X-xypp",
"m>*>2bHTTTTTTTTTTTTTEF2NEEF2=>EEEETTEFmb1= X=><xdp",
">=+>vvHTTTTTTTTTTTTTHN>vHTEH==NZUSKZN212b2--23b2Bd",
"1>1FJJJTTTTTTTTTTTETN>+=bJEJ2=+9pss0@=2FJJHHJJJJN<",
"Nm2HEEETETTTTTTTTEHN1>1bDTFm2;5tpppyz3FJEEEEEEETFD",
"EN>mHTETJTTTTEETTFb>>mJETTF22BupppiLKETTTTTTTTTTET",
"T2X+>TEF2FTTTTEEH>++vJTETTJHGCjppuPKETTTTTTTTTTTTT",
"TN>X+1mm1bm2121vm=*>FETTTTTEEKP69LKETTTTTTTTTTTTSI",
"TEF* +>122>+X X=21mJTTTTTTTTTTH-=HETTTTTTTTTTTEKLp",
"TEF=X-mFFHN>+ =2FHHTTTTTTTTTTEJ22JTTTTTTTTTTJESfsp",
"TEH-=NHEEEH2==2FEETTTTTTTTTTTETbbJTTTTTTTTTTESLkpp",
"TTHvbTTTTEJ2>2FTTTTTTTTTTTTTTTJbbJTTTTTTTTTTELpppp",
"TTTFHTETTTTFb2HETTTTTTTTTTTTTTTbbJETTTTTTTTTJfpppp",
"TTTETFJTTTTEDmHETTTTTTTTTTTTTEJ21JEETEJEEJTTTfpppp",
"TTTTF2FETTTTEJTTTTTTTTTTTTTTTEH==JEJTTEJEETTJLpppp",
"TTTED2FEETTTTETTTTTTTTTTTTTTTEJ=+HEETTEJJJETEfpppu",
"TTTTF1NHHHTTTTTTTTTTTTTTTTTTETF--HEETTTEEEEKShpppp",
"TTTTF1122NTTTTTTTTTTTTTTETTTEF2>2JETTTTTTTTSgppppp",
"TTTEm=-1mHTTTTTTTTTTTTTTTTTTEN2bFEEJTTTTTTTApppupp",
"TTTEv+-mTETTTTTTTTTTTETTTTTTTN>DETTETETTTTTAsppppu",
"TTTEN>NHTTTTTTTTTTTTTTTTTTTTEv*mETJEEJTTTTTUsppppp",
"TTJm12FETTTTTTTTTTTTTTTTTTTTE2+bETTTTTTTTTEAuppppp",
"TEH=+1FETTTTTTTTTTTTTTTTTTTTE2XbETTTTTTTTTEUgppupp",
"TEH+=FJETTTTTTTTTTTTTTTTTTETN-XbETTTTTTTTTTJUhppup",
"TJN=>TETTTTTTTTTTTTTTTTTTTTJb=*mTTTTTTTTTTTETUhppp",
"EN<1bTETTTTTTEJETTTTTTTTTTTHv>1FETTTTTTTTTTTTTAgpp",
"Ev=3HTTTTTTTTTTTTTTTTTTTTTUV%:FJTTTTTTTTTTTTTTKUhp",
"N>XNETTTTTTTETTTTTTTTTTTTTIu#&SRTTTETTTTTTTTTTTTLp",
"+ XNETTTTTYEJTTTTTTTTTTTTTIutigATTTTTTTTTTTTTTTTLp",
" X-FTTTTTTTTTTTTTTTTTTTTTTc4ypul1>>1mFTTTTTTTTKPgu",
" *2FETTTTTTTTTTTTTTTTTTTET1O8pi#   X>NTTTTTTTTSgpp"
};
