/* XPM */
static char *FieldsTile_46[] = {
/* columns rows colors chars-per-pixel */
"50 50 59 1 ",
"  c #B35744",
". c #B55945",
"X c #B85D47",
"o c #BA5F48",
"O c #BD6249",
"+ c #BF684B",
"@ c #AE7F49",
"# c #B37749",
"$ c #B27F4A",
"% c #C1664B",
"& c #C56B4D",
"* c #C86F4F",
"= c #C3764F",
"- c #C9704F",
"; c #CD7451",
": c #CB7E53",
"> c #D07753",
", c #D47B55",
"< c #B2864C",
"1 c #B58A4D",
"2 c #BD8F51",
"3 c #B49D50",
"4 c #BF9E54",
"5 c #ADA44F",
"6 c #A5AF4F",
"7 c #A8AD4F",
"8 c #A5B14F",
"9 c #AFA350",
"0 c #AEAC51",
"q c #BEA755",
"w c #B6AA53",
"e c #BCA855",
"r c #AAB050",
"t c #C28250",
"y c #CD8053",
"u c #C38C52",
"i c #D68157",
"p c #D88057",
"a c #D38A57",
"s c #DB8459",
"d c #DF895B",
"f c #C79555",
"g c #C49A55",
"h c #C89956",
"j c #CE9958",
"k c #DF915C",
"l c #D59E5B",
"z c #DC9C5D",
"x c #E38C5D",
"c c #E6915F",
"v c #E8925F",
"b c #E3995F",
"n c #C4A557",
"m c #C7A358",
"M c #CAA258",
"N c #E79760",
"B c #EB9661",
"V c #E79860",
"C c #ED9862",
/* pixels */
".%>>u7668686MBCBBBBBBBBBBB,X&dBBBBBBBd>>&. O;% ...",
"@tssf6866888mBBBBBBBBBBBBB,&,xBBBBBBBxss,;;,p>;;O ",
"6nBCl9688660MBCBBBBBBBBBBBs,xBBBBBBBBBBBBBBBBBBv;.",
"8nBCdu58880lVBBBBBBBBBBBBC,%dBBBBBBBBBBBBCBBBCCBp;",
"3jBCxshqqqMbCBBBBBBBBBBBBB>odCCBBBBBBBBBBBBBBBBBxp",
";pBBCBBVBBBBBBBBBBBBBBBBBB,OpCBBBBBBBBBBBBBBBBBBCB",
"%>BCCBBCBBBBBBBBBBBBBBBBCB>odCBBBBBBBBBBBBBBBBBBBC",
" =zlzBBBBBBBBBBBBBBBBBBBBB,%dCBBBBBBBBBBBBBBBBBBBB",
".$00nVBBBBBBBBBBBBBBBBBBCBd>xCBBBBBBBBBBBBBBBBBCBB",
"&188qCCBBBBBBBBBBBBBBBBBBCd,xCBBBBBBBBBBBBBBBBCCxp",
"iu55hxBBBBBBBBBBBBBBCBCCBxppxCBBBBBBBBBBBBBBBBBxd,",
"cdyt:,xCBBBBBBBBBBBBBBCCx&;cCBBBBBBBBBBBBBBBBCx,dc",
"Ccs,>>,xddxBBBCCBBBBxdp,;.;CCBBBBBBBBBBBBBBBBBcxxC",
"BBB,>>,,,;,xBxxBBBBBd,,&XX;BCBBBBBBBBBBBBBBBBBBBBB",
"BCc,,xccx;O>,,,dBBBBcxc,*-pCBBBBBBBBBBBBBBBBCCBBBB",
"BBBdxCCCB>%;,dpxBBBBCCCxp*,BBBBBBBBBBBBBBBCcxxBBBB",
"BBBBBBBBCp>>dBBBBBBBBBBCxO;cBBBBBBBBBBBBBBvd,xCBBB",
"BBBBBBBBBcx,dBCBBBBBBBCCxO&pvCBBBBBBBBBBCv>&,xCBBB",
"BBBBBBBBBCx;,xBCBBBBCvxd,%O*dvBBBBBBBBCBc,OX*,xCBB",
"BBBBBBBBBCdO%,xCBBBBCx,&O;&O*pBBBBBBBBBB,o. o-,BBB",
"BcdcCBBBBCxo.%,ppxBBBBxp,xd,%;CCCCCCCcs,,&XX&*,,,x",
"x,;xCBBBBCx%XO,,pxBBBBBBCBCc&&pxsxdsx,>,,,**,,,,,,",
",&OdCBBBCCx,;>xBBBBBBBBBBBCv,&OOoOooo&>xCcxcCvvccc",
"d,%*pCCCCp;;,xvCCCBBBBBBBBCCx,%.  o&>,xBCCCCCCCCCB",
"Bx,O&dxxx&O;xBBBBBBBBBBBBBBBCx;O o-,BCBBBBBBBBBBBB",
"BBx>&%OOO&,xBBBBBBBBBBBBBBBBCx;Oo*sBBCCBBBBBBBBBBB",
"BBBx,O..O,xBBBBBBBBBBBBBBBBBCcp%%scCBBBBBBBBBBBBBB",
"BBBBx,OO;dBBBBBBBBBBBBBBBBBBBCv*&xCBBBBBBBBBBBBBBB",
"BBBCBx%o;xCBBBBBBBBBBBBBBBBBBCB,,BCBBBBBBBBBBBBBBB",
"BBBBBv;%;dCBBBBBBBBBBBBBBBBBBBB,,BBBBBBBBBBBBBBBBB",
"BBBBCBp;>xBBBBBBBBBBBBBBBBBBBCB,,CCBBBBBBBBBBBBBBB",
"BBBBBBp>>dBBBBBBBBBBBBBBBBBBBCBp,vCBBBBBBBBBBBBBBB",
"BBBBBBp,pxBBBBBBBBBBBBBBBBBBBBB,>cCBBBBBBBBBBBBBBB",
"BBBBBB,,cCBBBBBBBBBBBBBBBBBBBCc&&cCBBBBBBBBBBBBBBB",
"BBBBCv;;vCBBBBBBBBBBBBBBBBBBBBB&%cCBBBBBBBBBBBBBBB",
"BBBBCc**cCBBBBBBBBBBBBBBBBBBBBx&&cCBBBBBBBBBBBBBBB",
"BBBBBB,,BBBBBBBBBBBBBBBBBBBBBx,;,BCBBBBBBBBBBBBBBB",
"BBBBBc>;cCBBBBBBBBBBBBBBBBBBBx,pxBBBBBBBBBBBBBBBBB",
"BBBBCv&%xBBBBBBBBBBBBBBBBBBBBx;xBBBBBBBBBBBBBBBBBB",
"BBBBCc&O,xCCBBBBBBBBBBBBBBBBC,%pCBBBBBBBBBBBBBBBBB",
"BBBBCB&X%;,xxBBBBBBBBBBBBBBBC,OpCBBBBBBBBBBBBBBBBB",
"BBBBCx* XXO;dBBBBBBBBBBBBBBBC,XpCBBBBBBBBBBBBBBBBB",
"BBCCx,%X&&&O*svCCCBBBBBBBBBBd*opCBBBBBBBBBBCBBCBBB",
"BCCxs>%*id,**,,,pxxCCCBBBBBBi&%pCBBBBBBBBBxkllzBBB",
"BCc,>>;,xBBcd;OXO;pcBBBBBBBc,;,xBBBBBBBBCvpu08wbBB",
"Bxp,,xxxCCBCcxp,,;;*&;,ppBCc*;xcBBBBBBBBCbh568wbBB",
"c,;,dBCBBBBBBCCCBd;&%&,,pxBxO*BCBCBCBBBCBdw8674bCB",
",&%pBBBBBBBBBBCCBBvcxxcBBBx;O&vBBvBBBBBCxy3872icBB",
"%%*xCBBBBBbmlBBBBBCCCCBBCB,%.O;;;;;>pxBd>O#<2axBlm",
" %,xCBBBBCzwmBBBBBBBBBBBBC,. ...   o;xv,&..O>xCBn6"
};
