/* XPM */
static char *FieldsTile_43[] = {
/* columns rows colors chars-per-pixel */
"50 50 87 1 ",
"  c #B55645",
". c #B55A45",
"X c #B95D47",
"o c #BA5F48",
"O c #AF6745",
"+ c #B46246",
"@ c #B76648",
"# c #BE634A",
"$ c #B76B49",
"% c #BC6B4A",
"& c #AE7347",
"* c #AF7448",
"= c #AE7A48",
"- c #B37249",
"; c #BF754D",
": c #B67D4B",
"> c #BB7D4D",
", c #C1664B",
"< c #C56B4D",
"1 c #C86F4F",
"2 c #C4754F",
"3 c #C9704F",
"4 c #CD7451",
"5 c #CD7B53",
"6 c #D17653",
"7 c #D47B55",
"8 c #D87D57",
"9 c #DC7F58",
"0 c #AD854A",
"q c #AB8C4B",
"w c #B7854D",
"e c #B48C4D",
"r c #AD934C",
"t c #AB9B4D",
"y c #B5964F",
"u c #B39B4F",
"i c #BF8450",
"p c #BE8C51",
"a c #BA9451",
"s c #B49B50",
"d c #BA9952",
"f c #9DB34D",
"g c #A6A44D",
"h c #ACA54F",
"j c #A6AD4F",
"k c #A9AB4F",
"l c #A5B04F",
"z c #AFA450",
"x c #ACAD50",
"c c #B2A351",
"v c #BDA555",
"b c #B3AB52",
"n c #BBA954",
"m c #A5B550",
"M c #AAB050",
"N c #C48552",
"B c #CA8553",
"V c #C48A52",
"C c #CC8A55",
"Z c #D58457",
"A c #D88057",
"S c #D18B57",
"D c #DC8459",
"F c #DE8A5B",
"G c #C59354",
"H c #CA9356",
"J c #C09A54",
"K c #C99A57",
"L c #CD9D59",
"P c #D5965A",
"I c #DA945B",
"U c #D59E5B",
"Y c #DB9C5D",
"T c #E0855B",
"R c #E38C5D",
"E c #E98D5F",
"W c #E6915F",
"Q c #E8925F",
"! c #E3995F",
"~ c #C4A457",
"^ c #CAA259",
"/ c #D3A05B",
"( c #E79760",
") c #EB9661",
"_ c #E79960",
"` c #ED9862",
"' c #F09462",
/* pixels */
"llkNVjlllllllxlljllMlll0   +tllljllllljlllls5sllll",
"lb^ZHjllllllllllllllljq>44,.wzlllllljllllllkaasjMj",
"l~)`/blllllMljllllljxr%6`)6#4VxMllllMlllMxxxxCVzll",
"l~)`_UblllljlllMllllyBDE``D4DWUbllllllllnYYYYWPxfl",
"j~))`)LvsssjflljllxvST)`))ED)`)UbMlllljvU)``))!~nv",
"j~))`)_R76BxMxxxMj~!))))))))))))PbMxlMbY))))))))__",
"l~`)```)RRRP/UUUUUY)`))FDW)_))))(UUUUUU())))))))'`",
"lnUYIRQ)``_)``))``)))))D6W)))))))))``))))))))))`WE",
"MxxMd7R)))))))))))))`_)D7W``_)))))))))))))))))))D6",
"llllkdP`))))))))))))`))D7)''``)))))()))))))))`R6Ns",
"llllllU`)))))))))))))`)84PYY()))))))))))))))))D-rM",
"lllljxU`)))))))))))))`)4$sMnY`)))))))))))))))DNtjl",
"atllllHDDFR)_```))))RDDNqjb^W`))))))))))))))`SsMfl",
"7GxzxbC7746R)WW))))WF67dll~)))))))))))))))))Ynlllj",
"EWYCCYWEE4#6777D))))WEEvll~)))))))())))))))Ybxllll",
"``)DT```)5,47DDR)))))))UvrH))))))))))))))))Ullljll",
")))))))))D66D))))))))))`F%4))))))))))))))))UMllllj",
"))))))))))F6F))))))))))`R,,DE)))))))))))))`/Mlllll",
")))))))))_R46E))))))))RD6oo3DW)))))))))_))`PrjlllM",
"()()))))``R#%7E))))))W7<X..o1D))))))))))))`9@qjjll",
"vv~!```))`T#.,7DDR_``QRD6<# X<DW)))))))))))9.O0jll",
"llx^__)))`F<.%68AW)))))`(D4<,<6DE))))))))))D##2sht",
"ljlx~_``)`R646R)W)))))))))WEWD67D())))``)))R6DFB%+",
"aclf~_`'_D447RW)))))))))))```WFFFD66)``_))FDR)E6>0",
"7VbbJRTRR1#6R))))))))))))))))))_R7<<DFRE)W9D)`ECsl",
"W(IC2%###<6R)))))))))))))))))))))E71%#,4D)W))`Ycjl",
"``ET6% .=eG_))))))))))))))))))))`)W7.#48R))`)YvMlM",
"))`)R6%=jjvI)))))))))_)))))))))))`_F,6`)))``Ivllll",
"7R`_)RaglsCE)))))))))))))))))))))))R4D)`))`Ynxllll",
"VGUFE)nlMGT)_))))))))))))))_)))))))E7D))))Y~llllll",
"jxhVDWnMjL))`)())))))))))))))))))))E7D))_Wvlllllll",
"lljhGDBpVF`)))))))))))))))))))))))`(7D```_bllMjlll",
"llllzV569R))))))))))))))))))))))))WD6D```!bllllxll",
"lllljxN7W))))))))))))))())))))))))F65F)`)(vfllljll",
"jllllj:4)))))))))))())))))))))))))D5ad^_)(vllllMMl",
"Mllllh&,R)))))))))))))))))))))))))DNxlxY'(nljlllll",
"lllllj*#6E))))()))))))))))))))))))DNzlxY`_blllllll",
"lllllj><4D`))))))))))))))))))))`)DCsxfbY))Uvllllll",
"ljMljcV77F())))))))))))))()))))`R4yMljcY)))Ybxxjll",
"llllcNFWWDDW)))))))))))))))))))_D#qmlsCW))`)YCpjll",
"Mllly5R`)6<D())))))))))))))))))W7+qMMdDE`))))TZahl",
"lllls7R))4X4D))))`))))))))))))WA<.qMxL`)))))))W7ax",
"llllvR)EA4<#<D))_`)))))))))))RA<X.5UU!))))))```RZN",
"lljcK_)EDA73467AAFE)`))`))WR)W7<X.7```)))))(UUY)D6",
"llxND)))))))D4,X#4D)))()))D7E_)A<o7`)))))))Ubln!T6",
"llkN9)`)))`_(FD7753<<47DDA76E``ED3D`)))))))Ujfb!T6",
"llkCD)!YIYY)`))`)D4<#<6A87BCPYY_R49W))))))`Ynb~(ZV",
"llxP)_~xxxnW`)))))WRWEE()ELxxxbUD#<D())))))(!!_)~j",
"lzGI_~MlllMvU)))))```)`)``C0hljp,.o<9E_`))))`)W~bM",
"la6E/Mllllll~)``))))))))))6+tmj* . o4D)`))))))Ybll"
};
