/* XPM */
static char *FieldsTile_44[] = {
/* columns rows colors chars-per-pixel */
"50 50 77 1 ",
"  c #B55945",
". c #B95D47",
"X c #BB5F48",
"o c #BC6349",
"O c #B56C48",
"+ c #BC6C4B",
"@ c #AD7E49",
"# c #B47249",
"$ c #BC744C",
"% c #BF7B4E",
"& c #C1664B",
"* c #C56A4D",
"= c #C86E4F",
"- c #C27B4F",
"; c #CD6E50",
": c #CD7351",
"> c #C57D50",
", c #CC7C52",
"< c #D17653",
"1 c #D47C55",
"2 c #D97E57",
"3 c #AC8A4B",
"4 c #B2864C",
"5 c #BA874F",
"6 c #B08D4C",
"7 c #AB924B",
"8 c #AC9C4D",
"9 c #B2924E",
"0 c #B19B4F",
"q c #BD8D50",
"w c #BB9451",
"e c #B49C50",
"r c #BC9C53",
"t c #A5A44D",
"y c #ABA64F",
"u c #A6AE4F",
"i c #A9AC4F",
"p c #A6B04F",
"a c #AEA550",
"s c #ACAD51",
"d c #B1A250",
"f c #BDA755",
"g c #B2AB52",
"h c #B9A954",
"j c #AAB050",
"k c #C38651",
"l c #CB8353",
"z c #C48B52",
"x c #CB8D55",
"c c #D48356",
"v c #D88057",
"b c #D18A56",
"n c #DC8459",
"m c #D48E58",
"M c #DE885B",
"N c #C29153",
"B c #C99556",
"V c #C29C55",
"C c #CE9A58",
"Z c #D59059",
"A c #DD965C",
"S c #D49E5B",
"D c #DB9C5D",
"F c #E0865B",
"G c #E38C5D",
"H c #E88F5F",
"J c #E6915E",
"K c #E8925F",
"L c #E2995F",
"P c #C3A457",
"I c #C7A358",
"U c #CBA259",
"Y c #D1A05A",
"T c #EB9661",
"R c #E69860",
"E c #ED9862",
"W c #F09563",
/* pixels */
" :TTYsppppppITTTTTTTTTTTTT<.=nTTTTTRTG:.@upe,wpppp",
"o1TWYjppppppITTTTTTTTTTTTTc*1GTTTTTTTGn<%3tawwdppp",
"<nTTSgppppjsUTTTTTTTTTTTRTn1GTTTTTTTTTTT2o7jaNldsp",
"<nTTLSgpppsYLTTTTTTTTTTTTT2&MTTTTTTTTTTTn:>BSJMlep",
"qZTTTTYfPfURTTTTTTTTTTTTTT<XnEETTTTTTTTTn=1FTTTnze",
"uITTTTTRRTRTTTTTTTTTTTTTTT<onETTTTTTTTTE2onTTTTTM,",
"pPETTTTTTTTTTTTTTTTTTTTTET,XnETTTETTTTTTGnJTTTTTn<",
"uPGTTTTTTTTTTTTTTTTTTTTTET2&GETTTTTTTTTTJJTTTTTTmk",
"pwcGTTTTTTTTTTTTTTTTTTTTTTn1GETTTTTTTTTRM2GTTTTRIu",
"p3*GTTTTTTTTTTTTTTTTTTTGMTn1GETTTTTTTTTTM:2GTTRIgp",
"p7OnTTRTTTTTTTTTTTTTTTG2:GnnJRTTTTTTTTTTG2:cGLUspu",
"ptylFTTTTTTTTTTTTTTTTJc&o<nKTTTTTTTTTTTRTG2<1Vsppp",
"ppjek<GEEETETTTTTMGTETn2::nTTTTTTTTTTTTTRT2,wypppp",
"pppp7O1GGGGJJKTTKnnKTTTTJ2nTTTTTTTTTTTTTET2quppppp",
"ppppu8$o&&*12cKTTJJTTTTEJ2nTTTTTTTTTTTTTTJ2ksppppu",
"pppppp7#oo*2nnKTTTTTTTTRG:2TTTTTTTTTTTTTTT2zuppppp",
"pppuppue,<2JTTTTTTTTTTTEGo:JTTTTTTTTTTTTEJ2kyppppp",
"ppjppppy,nJTTRTTTTTTTTTEGo&nKTTTTTTTTTTTET=+zdpppu",
"pupppppdcGETTTTTTTTTTTTRG:&=nJTTTTTTTTTTG2o.=5dupp",
"ppppppufLTTTTTTTTTTTTTTTTT1o=nTETTTTTTTT2X  .=zapj",
"ppjppjPDTTTTTTTTTTTTTTTTTTG1&:TEWTWTEGvn<& .&:,5ap",
"ppppidDTTTTTTTTTTTTTTTTTTTEH=*nAYDDDM2:1c2=;2v22Na",
"pppp0lGTTTTTTTTTTTTTTTTTTTTT1*+9jss0O*1GTKJJJTJTn,",
"@4q4#*FTTTTTTTTTTTTTTTTTTTGn<-3tpppyl2GTTTTEETTTGF",
".=1*.onTTTTTTTTTTTTTTTTTETG11zppppsfLTTTTTTTETTTTT",
"=2JGv:GETTTTTTTTTTTTTTTTTTTJGSpppuPLTTTTTTTTTTTTTT",
"nGEEKnnGKTTTTTTTTTTTTETGGTTEELI99IATTTTTTTTTTTTTDU",
"TTTTTTvnTTTTTTTTTTTTTTKn1GTTTRJ==JETTTTTTTTTTTRLPp",
"TTTTTTJJTTTTTTTTTTTTEJv*&GETTTT11KTTTTTTTTTTTTAfjp",
"GGTTTTTTGKTTTTTTTGGTTKn&oGETTRKn2JTTTTTTTTTTTDIjpp",
"<MTTTTTG2FTTTTTTTvnKETK:&GETTTT22TETTTTTTTTTTPpppp",
"0NnKTTTG<1nTEERTTGJTTRT2:GTTTTT22TRTTTTTTTTTRfpppp",
"p0zJTTTG:-zSAGGGGTTTTTTGnJTTTTT1<JTTTTTTTTTTTPpppp",
"ppgDTTTno4ujN1<12GETTTTTKTTTTTJ=*JETTRTTTTTTRPpppp",
"ppphCnFl3tpp4&::<GETTTFGTTTTTTT&*GWRUfULTTTWTmwupp",
"ppppek,qsppg5&,22FLDDZ:nTTTTTTG==LRYjpsDTTLDDbqupp",
"ppppuaiippgDJGJTGnxgs0o1TTTTTG2:1KUjppgDTRPsgiiupp",
"uppppppiwVYREEETTGBtpt3xTTTTTG<cGTfppgURLPsppppupp",
"pppjpppdlGTTTTTTTTSgpppUTTTTTn<GTTUssUTRUupppppppp",
"pppuppphJTTTTTTTTERDhpjUETTTEn&nTTLDDRRPsppjppupps",
"pppjpudBLTTTTTTTTTTTYPexGTTTT2XvWTTTTLUsppjpppuppp",
"pppupsqcJTTTTTTTTTTTRG2<1KTTT2X2ETTTRIpppppupppppp",
"upppppadfDTTTTTTTWTTWTG21HETn=.2EETLPspppppppppppp",
"pppppppppfDRTRDSSYSSLTTGvSDJ2=&nETTDsppppppppjupup",
"psppppuppphLWLhusjusYTRTAhPL1:<GETTDsppppspppppppp",
"ppppppppppgLWLsppppphURWDgsV$;GTTTWDsppppppppupppp",
"ppppppppppgSRRPspppppgREDgpt@-DRTTTLf0dupppppppppp",
"pupppuppppjsURRUppppphRWDgppiigYTTTJl,kappupppjups",
"ppppppuppsppgURLUUUYUSTDfsppppphIPPPwweapppjpppppp",
"sppppppppppppsDTTTTTTTTPppppppppppppppppppppppuppp"
};
