/* XPM */
static char *FieldsTile_42[] = {
/* columns rows colors chars-per-pixel */
"50 50 86 1 ",
"  c #B35644",
". c #B65945",
"X c #B95D47",
"o c #BC5F48",
"O c #B36446",
"+ c #BD6249",
"@ c #B76949",
"# c #B96E4A",
"$ c #AE7447",
"% c #AF7548",
"& c #AC7E48",
"* c #B07147",
"= c #B07548",
"- c #BE704C",
"; c #B77A4B",
": c #BE7B4E",
"> c #C1654B",
", c #C56A4D",
"< c #C96E4F",
"1 c #C4784F",
"2 c #CD7451",
"3 c #CC7B52",
"4 c #D17753",
"5 c #D37B55",
"6 c #D87E57",
"7 c #DA7F58",
"8 c #AC864A",
"9 c #AD8C4B",
"0 c #B3834B",
"q c #B9854E",
"w c #BA894F",
"e c #A7994C",
"r c #AC9B4E",
"t c #B2914E",
"y c #B19C4F",
"u c #BE8D51",
"i c #B79650",
"p c #BC9251",
"a c #B59C50",
"s c #B99A51",
"d c #A5A44D",
"f c #ACA64F",
"g c #A7AD4F",
"h c #A9AB4F",
"j c #A5B04F",
"k c #AEA550",
"l c #ABAE50",
"z c #B3A451",
"x c #BDA554",
"c c #B4AB53",
"v c #BAA854",
"b c #AAB050",
"n c #C58552",
"m c #CC8354",
"M c #C48A52",
"N c #CB8C55",
"B c #D48456",
"V c #D88057",
"C c #D18A57",
"Z c #DC8459",
"A c #D68A58",
"S c #DE8A5B",
"D c #C39554",
"F c #CB9556",
"G c #C39955",
"H c #C89C57",
"J c #CE9958",
"K c #D29659",
"L c #D8915A",
"P c #D49E5B",
"I c #DB9C5D",
"U c #E0865B",
"Y c #E38C5D",
"T c #E88F5F",
"R c #E5925E",
"E c #E8915F",
"W c #E3995F",
"Q c #C3A456",
"! c #C7A458",
"~ c #CCA259",
"^ c #D4A05B",
"/ c #E79760",
"( c #EB9661",
") c #E69860",
"_ c #EC9862",
"` c #F09462",
/* pixels */
"jjhn7((((Z42pjjjjjjjjjjjjjgjjs3yjjjjjjjjjbjjbjjjjj",
"jki35SK~~GM2nagjjgjbjjbjjjksQJZDyhjjjjhjjjjjjjjhjj",
"js5553abjjkn5mahjjjgjhjjjhp6Y(RZMljjbjjjjjjhjjjjjj",
"jQYRZ3zjjjjkJYmyjjjjjjjjluBY(((TKljjjjjjjjjjjjjjjj",
"sJ((TZwejjjj!(UNxbjjjjjfpBY_((((^ljjjjjgjjjjjjjjfs",
"3Z(((R<=kbbb!(((WxhhggguVT((((_`Iljjjjjjjbjjljjhp5",
"o<ZE((43K^^KW((YVnq=$==3Y(((((((PljjgjjjjjjjjjhuAY",
"*;MSYYZZ(``((((Y665,+X.5_(((((((IahjjjjjjhjjjcGBY`",
"dgkn55Y((((((((((E(R5<X5((_((((_Y3shjjgjjjjjb~E(((",
"jjln5Z((((((((/((((_RV<V_(((((((EYNigjjjjjjc~W`(PQ",
"clhuA(_(((((((((((((_Y5Y((((((((((Ymvcccccc!((_Ixj",
"W!ghQ((((((((((((((((R5Z((((((((((ERWIWWWIWW(`Icjg",
"(I~!^(((((((((((((((_Y5Z(((((((((((_`((((((`_^xbjj",
"((((((((((((((((((((_Y5Y(_((((((((((((((((((Wxjjjj",
"(((((((((((((((((((((Y5Z(((((((((((((((((((Ivjjjjj",
"((((((((((((/((((((((RDG^)((/((((((((((((((Phjjjjj",
"(((((((((((((((((((((IcjlI(((((((((((((((((Pbjjjjj",
"((((((((((((((((((((_IbjkCY((((((((((_(((((^hjjjjj",
"_R((((((((((((((((((YAtdhpCY(((((((((((((((Ixbjghj",
"__((((((((((_((((((RZ2+9ghp5Y(((((((((((((((Wxggjj",
"____((((((((((((__YZ<+,tjj9+4Y(____((((((__EZ18gjj",
"YSSYE(___(_(((RYRRR5<,5Gccw+,4ZYYYYR(_(RYZZV2>#yfr",
"5<+2ZR(_(_R_(RV55Y((YR(RW)Z2+X+2555VR(EV<++,4223#O",
"Z5>+,234ZZZZY(SZYR((__((__RZ++2ZZ42242234435ZYZ518",
"_Y4+X. +<245Y_(_(((((/((_(_R<2(_Y652X X<Z(_(((Rmaj",
"((Y4,. .X,5YR(((((((((((((_RYR(((RV<X X<Z(_(((Izhj",
"(_(Y5>XX>4S(_((_((((((((_(((__((_(Y4X+4VY(_((IQbjj",
"((((Y4+O2Y((((((((((((((((((((((((_Y+4__(((_Wxjjjj",
"(((_(Y>X2Y_((((((/((((((((((((((((_Y2Z(((((Ixbjjjj",
"((((((2,2Y(((((/((((((((((((((((((_R5U(((_IQjjjjjj",
"(((((RV24S(((((_((((/(((((/(((((((_Y5S((`Wvjjjjjjj",
"((((((Z22S_(((((((((_(((((((((((((_E5Z(((Wcjjbjjjj",
"((((((V5VY(((((((((((((((((/_R_((_RS4Z(((Wvjjjjjbj",
"((((((5VR((((((((_(/((((((((((_((EZ43Z((`Wcjjjjjjj",
"(((((E22E(((((((((((((((((((((((((Z3px!W`)xjjjjhjj",
"(((((Y,>Y(((((((((((((((((((((((((AugjcI`Wvjjjjjjj",
"(_((Y5++4Y_(((((((((((((((((((((((QhggcI(Wvjjjjjjj",
"((((Z,>,2S_((((((((((((((((/((((ESxjjc~W((^vjjjjjj",
"((/(5@255YR(((_R(((((((((((((((_Y2pcl~(((((Ickkjjj",
"((RZMrFTYZZR_(__(((((_(((((((((_Z>mIIW(((((_ICphjj",
"((RFyb^`_5<ZR(((((`((((((((((((^D0A`(((_W^~^PSAifj",
"((WvjlP(R2+2ZE_)WW))_(((((((((Wxgh~((((R~hjjh~R5ph",
"((WcjjPTV2,+<BxvcvvxI(((((((`Ixbjj~_(`WQljjjjcQSAn",
"(`WvhaIEZV5<1uhjjjjjQ^PW_(W^^QjjjjJY((WcjjjjjjcWU7",
"((WcymS(E(((Hgjjjjjhljl~((Jlbbjjjhp6E(WcjjjjjjcW((",
"`IxlhsxGZY((!jjjjjjjjjjpZ7Gjjjjjjju6((WcjjgjjjcW`(",
"IQjjjjjfnS((^vzhjjjjjjvF54pgjjhjjjimYEW!ljjjjl!WWI",
"lbjjjjjgh^((WLBpbjhjjcI(Y5pjjjjjjjhamU(W~jjjl~W_!l",
"jjjjjjljj~_(((YS~~~~~I__Y<0gjjjjjjjhsK((W~~~^WW!cj",
"jjjjjjjjh~(((((((((((((_Y+8gjjjjjjjjj!((((((((Iljg"
};
