/* XPM */
static char *FieldsTile_21[] = {
/* columns rows colors chars-per-pixel */
"50 50 65 1 ",
"  c #B35744",
". c #B55945",
"X c #B85D47",
"o c #BB5F48",
"O c #BD6249",
"+ c #B56C48",
"@ c #AD7F49",
"# c #B47249",
"$ c #B9764B",
"% c #C1664B",
"& c #C46A4D",
"* c #C86F4F",
"= c #C47A4F",
"- c #CC7351",
"; c #CD7C53",
": c #D07753",
"> c #D47C55",
", c #AD8B4B",
"< c #B2864C",
"1 c #BA874F",
"2 c #B18C4C",
"3 c #A9924B",
"4 c #AC9C4D",
"5 c #B19E4F",
"6 c #BA8E50",
"7 c #BA9551",
"8 c #B49C50",
"9 c #B99C52",
"0 c #A6A14C",
"q c #ADA54F",
"w c #A6AE4F",
"e c #A8AD4F",
"r c #A5B04F",
"t c #ACAE50",
"y c #B3A251",
"u c #BEA755",
"i c #B2AB52",
"p c #BAA954",
"a c #A8B050",
"s c #C18651",
"d c #CB8253",
"f c #C48C53",
"g c #C98A54",
"h c #D78257",
"j c #D88057",
"k c #DB8459",
"l c #DF885B",
"z c #C39153",
"x c #C99F57",
"c c #D39158",
"v c #DC955C",
"b c #D39D5B",
"n c #DA9C5C",
"m c #E38D5D",
"M c #E6915F",
"N c #E8925F",
"B c #E29A5F",
"V c #C2A556",
"C c #C7A458",
"Z c #CBA259",
"A c #D1A05A",
"S c #EB9661",
"D c #E69860",
"F c #ED9862",
"G c #F09663",
/* pixels */
" -SSbtrrrrrrCSSSSSSSSSSSSS>X*kSSFNFSSk::&X O-%    ",
"%>SGAarrrrrrCSSSSSSSSSSSSS>&>mSSFNFSFmlk>-&&:&%%O ",
":kSSbirrrretCSSSSSSSSSSSSGm:mSSSFSFFSNFNNNj::>>>&X",
":kSSDbirrribBSSSSSSSSSSSSSk>mSSSFNSNSFFSFFNl:kMm>*",
"fcSSSSZVuuCBSSSSSSSSSSSSSSmkNSSSNFFFFNNFFSFMkMFFmk",
"wCSSSFSDSSSSSSSSSSSSSSSSSSNSSSSSFFNFFFFFSSFNNNFNNN",
"rVFSSSSSSGSSSSSSSSSSSSSSMkmSSSSSSNFFSNSNSSNFFSFFFF",
"wVmSSSSSSSSSSSSSSSSSSSSSM>kSSSSSFFNNFFFFSSFFFMMNFF",
"r7>MSSSSSSSSSSSSSSSSSSSFM>kSSSSSFNFNFFFNSSNFSjjNNN",
"r,&lSSSSSSSSSSSSSSSSSSSm>&>FSSSSFNFSFNFNSSFFSk-*>k",
"r3#kSSSSSSSSSSSSSSSSSSN>&X-mSSSSFFFNFFSFSSSNm>-%-j",
"rw4dkSFDSSSSSSSSSSSSSN>*X &>MFSSNSFSNFNFSSFj%*>mMN",
"rra8s:mFGFFFFSSSSmmNSSk>*X%:mSSSSSSSSSSSSSFk&:mSFN",
"rrra3+>MmmmMNNSFSjkNFSSFm&&>mSSSSSSSSSSSSSFm>mFSSF",
"rrrre4$O%%&>>kMSSMMSSSSSSm>:>kSSSSSSSSSSFFFNNNSSSS",
"rrwrrr,#OO&>kkMSSSSSSSSSSDMk:jSSSSSSSSSSSNmmSFSSSS",
"rwarrrr5;:>NSSSSSSSSSSSSSSSMjkNSSSSSSSSSFNjjNFFSSS",
"rrrrrrry;kNSSSSSSSSSSSSSSSSSMkkmFSSSSSSSFNjjNFDSSS",
"rarrrrryjmSSSSSSSSSSSSSSSSSSFk-jMSFFSFSFNm::mNFFFS",
"rrerrrruBSSSSSSSSSSSSSSSSSSSF>O&jNNNNSNSm-OO:mNNSN",
"wrarrrVnSSSSSSSSSSSSSSSSSSSSFjXX&**-jkjk-O  O&-jjj",
"rrrreynSSSSSSSSSSSSSSSSSSSSSFjX  XO&>>j>-&&&%%&>jj",
"errr5;mSSSSSSSSSSSSSSSSSSSSSFjX O-kMMNNNMmMmmMMNNM",
"<<6<+%mSSSSSSSSSSSSSSSSSSSFN>&&->lNFFSFSSFFFFFSSFF",
" *:&oOkSSSSSSSSSSSSSSSSSSFSl&%>MFSSSSSSSSSSSSSSSSS",
"->Nmj:mSSSSSSSSSSSSSSSSSSSm>->MSFSSSSSSSSSSSSSSSSS",
"kmFFmmkmNSSSSSSSSSSSSSFFSm-&>mSSSSSSSSSSSSSSSSDSSS",
"SSSSSNkjSSSSSSSSSSSSSSNNm>&&lSSSSSSSSSSSSSSSSSFNSS",
"SSSSSSMmSSSSSSSSSSSSSMjj>:>lNFSSSSSSSSSSSSSSSSSSSS",
"mmSSSSSSmmSSSSSSSmmSFMk::jmFFSSSSSSSSSSSSSSSSSSSSS",
":kSSSSSm>mSSSSSFNjjSSSSk>MSSSSSSSSSSSSSSSSSSSSSSSS",
"8zkNSSFm>>kSGSDFSMmSSSSk>MFSSSSSSSSSSSSSSSSSSSSSSS",
"r5gMSSFm-=gbvmmmmNFSSFSmjNFSSSSSSSSSSSSSSSSSSSSSSS",
"rrtnSSGkO,aaz>>:>MFSSSFNNDSSSSSSSSSSSSSSSSSSSSSSSS",
"rrepbSSv20rr,%*-:mFSFNlmFSSSSSSSSSSSSSSSSSSSSSSSSS",
"rrrrunmberri1&:j>mmmml-kSSSSSSSSSSSSSSSSSSSSSSSSSS",
"wrwraiggeribMmNNMk*O--O>SSSSSSSSSSSSSSSSSSSSSSSSSS",
"rrrrresdZCASSFFFNm>&%O >FSSSSSSSSSSSSSSSSSSSSSSSSS",
"rwrarefkNSSSSSSSSFm>& X:SSSSSSSSSSSSSSSSSSSSSSSSSS",
"arrrrabmSSSSSSSSSFNM>&X:FSSSSSSSSSSSSSSSSSSSSSSSSS",
"rarrq9vGSSSSSSSSSSSSm>&:mNSSSSSSSSSSSSSSSSSSSSSSSS",
"rrrr8:mSSSSSSSSSSSSSFm>:>MFSSSSSSSSSNSSSSSSSSSSSSS",
"rrrr8:mSSSSSSSSSSSSSFSm>>MFSSSSSSSSSFDSSSSSSSSSSSS",
"raarykmSSSSSSSSSSSSSSSSmjmMFSSSSSSSSSSSSSSSSSSSSSS",
"rrrrVBSSSSSSSSSSSSSSSSSSMjkNSSSSSSSSSSSSSSSSSSSSSS",
"rwrrVDGGSGSSSSSSSSSSSSSFM:*-MFSSSSSSSSSSSSSSSSSSSS",
"arriZDBnnnnSSSSSSSSSSSSDNk&O:mmSFSSSSSSSSSSSSSSSSS",
"rrtASBVtituBSSSSSSSSSSSSSS: X&>mSSSSSSSSSSSSSSSSSS",
"r5zMnCtrrraunSSSSSSSSSSSSF>  X%*:kmSSSSSSSSSSSSSmk",
"r7>mAarrrrrrCSSSSSSSSSSSSS:X  X O:mSSSSSSSSSSSFNk:"
};
