/* XPM */
static char *FieldsTile_41[] = {
/* columns rows colors chars-per-pixel */
"50 50 76 1 ",
"  c #B35744",
". c #B65A45",
"X c #B95D47",
"o c #BA5F48",
"O c #B26546",
"+ c #B16B47",
"@ c #BC6249",
"# c #B76949",
"$ c #B07147",
"% c #B77B4B",
"& c #C1664B",
"* c #C56B4D",
"= c #C96E4F",
"- c #C6714F",
"; c #CB6E50",
": c #CC7351",
"> c #CB7D52",
", c #D17653",
"< c #D47B55",
"1 c #D87F57",
"2 c #AD8C4B",
"3 c #BB834E",
"4 c #BA894F",
"5 c #AC994D",
"6 c #B19A4F",
"7 c #BD8F51",
"8 c #B59750",
"9 c #BA9351",
"0 c #B49B50",
"q c #BC9B53",
"w c #9FB44D",
"e c #A5A44D",
"r c #ACA44F",
"t c #A7AE4F",
"y c #A9AC4F",
"u c #A5B04F",
"i c #AEA450",
"p c #ABAD50",
"a c #B3A351",
"s c #BDA655",
"d c #B4AB53",
"f c #BBA854",
"g c #A7B150",
"h c #AAB050",
"j c #C58552",
"k c #CB8454",
"l c #C28A52",
"z c #CC8C55",
"x c #D48356",
"c c #D88057",
"v c #D28B57",
"b c #DC8459",
"n c #D68958",
"m c #DC895A",
"M c #C19052",
"N c #C29D55",
"B c #CA9B57",
"V c #CC9C58",
"C c #D49259",
"Z c #DF935C",
"A c #D59E5B",
"S c #DC9C5D",
"D c #E1855B",
"F c #E38C5D",
"G c #E98C5F",
"H c #E6915F",
"J c #E8925F",
"K c #E2995F",
"L c #C3A557",
"P c #C7A458",
"I c #CCA259",
"U c #D2A05B",
"Y c #E79760",
"T c #EB9661",
"R c #E69860",
"E c #ED9862",
/* pixels */
"uupklyutuyuuuuuuguuuuuu9,,&O5uuuugutuugtuy$@,@+ruu",
"ui9>7yuuuuuuuggutuuyuy0zbb:*4auuuuuguuuuut%*1<kruu",
"u8<<liuutuuuuuuuuuuut0kDEEb,<lptuuuuguuuyrkbJESpuu",
"uLFFmlruuuuuuyuuuuuu9kFJEE<&bmjruuuutuuuazmJEEAhuu",
"tPEEFcMitutuuuuuuupLvDTTTE,@bTcBfuuuuug63*DEEEKLa6",
"tPTEETclppygpgypppsKTTTTTT,@bETTApgygydl=&bEEJTJm>",
"uLEETTGHSAAAAUAAUASTTTTTTE,@bEETJSAAAUAFbbHEEEEEJF",
"ufARTTTTTTTTEETTEEETTTTTTT<&DETTTTETEEEEJHJEJEJEJF",
"uudAEEETTTTTTTTTTTTTTTTTTTb,HETTTTTTTTTEF<FEJEEJb,",
"uupzDTTTTTTTTTTTTTTTTTTTEED<FETTTETTTTTTm,<DEEJb:@",
"iyp7vZYTTTTTTTTTTTTTTTTHHKCkHETTEJEETTTTF<>1FTJc*&",
">9yypdATTTTTTTTTTTTTTTTbkayaSETTEJTJTTTTJJc,<FJJJF",
"bk2euuATTTTTTTTTTTTTTTTC8trNZTTTJEEEJTTTEJFbbJEEEE",
"E<#6hdSTTTTTTTTTTTTTTTTPut8<FTTTEEJEETTTEEJJEJJEEE",
"Eb:nSSTTTTTTTTTTTTTTTTTLuu8,FTTTTJEEEJTTEJbmEEEEJJ",
"EFbTEEETTTTTTTTTTTTTTTTA62lbTTTTEEJJEETEEJ1cJEJJEE",
"TTTTTTTTTTTTTTTTTTTTTTTb-@:HTTTTEJEEEJEEEJ<<JEJEJE",
"TTETTTTTTTTTTTTTTTTTTTT,X *bJETTEJEJEEJEEJ:*cHEEEE",
"EHFJTTTTTTTTTTTTTTTTETF,==*-bHTTEEJEJEEEH<@X=<HJEE",
"Tm<FTTTTTTTTTTTTTTTTEH<bHH,@-cTTJEEEEJJE1X..@*cJJJ",
"fs8vFTTTTTKETTTTTTTTEH<mEEF<*,EEEEEEEFbc,*XX*-,cbc",
"uuy4vJETTTTTTTTTTRTTHb:cHTEJ**bbDbmmb1><c<-*111<<1",
"uuuyPTETTTTTTTTTTTTTb:@=cJET<*@@@Xoo@*<HJJHHJJJJJJ",
"9auufJTTTETTTTTTTEJm<:,cDJFc<:&X  o*,1DJEEEEEEEEEE",
"<lr5qRETHJETTEETEFc:>bJTETF<<<,@.X-bJEEEEEEJEEEEEJ",
"J>+O>JEFcFETTTTEJ:@@<JTTTTJHHm,@X-bJEEJEJJETJJTJEE",
"ED;.@,bnlNBx,<,cc*&:FETTTTTEEJb@@bJTJJEEEEEEEEEEJJ",
"EEF*.@-lpg6#..X*<<cJTETTTTTTEEJ-=HETEEEJEJJEEJJEEE",
"EEF&X-9ruLC:@.*<FFJETTTTTTTTTEJ,<JETEEEJEETJTJEEJE",
"AUA-=bawuUJ<=*,FEEEETTTTTTTTTETccJTTJJEEJEEEEEEJEE",
"yuyjbJLupUHc:,FETTTTTTTTTTTTTETccJETEEJEJEJEEJEJET",
"uutrBTSUAKTFc<FETTTTTTTTTTTTTTTccJEEJTTEEEJEEJEEEJ",
"uuuudAKETTTEDbHETTTTTTTTTTTTTTJ<,JTTEJEEEJEEJJEEJE",
"uuuuudSETTTTTJJETTTTJTTTTTTTTEJ-=HTTEJEJEEJEEEEJEE",
"uuuuutAEEEETTEETTTTTTTTTTTTTTEH**JETEEJEJJEEEEEJEJ",
"utuuuyAGFJTTTTTTTTTTTTTTTTTTTJF=*JTTJEEEEEEJJJEEEJ",
"uguguyl<<DTTTTTTTTTTTTTTTTTTRH<:<JEJEEEJTTJEEEEJTT",
"utuuuyl,mHTTTTTTTTTTTTTTTTTTEm<bFKEEJEEETEEEEJEETT",
"ugtuurzbJETTEJTTTTJTTTTTTTTTEm,DEEJJEJSKKJJEJEJETT",
"uuuuajmHTTTTTTTTTTETTTTTTTTTEc&cEEEETAdddfSEEEJETT",
"uuuu6<GEETTTTTTTTTTTEEEETTTTE<XcEEEJAduuuuLAJEEETT",
"uguu0kmJJTTETTTTTTTTKJKTTTTJTv#bEJESpuuuuuusKEJETT",
"guuuy0dNxFEETETTETEKIdfAEEEJPa5CEETKduuuuuusJTEETT",
"guuguuurlvFFFDSASJETfuusAKEKduhUEJESywuuuuudKEJTEE",
"tuuguuuuyM<<,kagdAEKLguufKEKduyUTETKduuuutuLETTJKE",
"uuuttuguur6060tugdAJSLywdSGxduyzDTEJAfuuugLSEEKPss",
"uuuuuguguuuuuuuuuudATKLdLKmlruy9kFJEEUdfdfSTFKIyuu",
"uuyuutuuuuuuuuuuuuudUTKKKTVytuug6xDEEJKKKKTF<qhguu",
"uuuugyuuguuugugutuuudBmbmNduuuguy8LBnFEETTDv9ruuuu",
"ugtuuuuuuututuuuuutgua>,>auuuuuuggur>bTEEJ1jguuuuu"
};
