/* XPM */
static char *FieldsTile_28[] = {
/* columns rows colors chars-per-pixel */
"50 50 84 1 ",
"  c #B55644",
". c #B55B45",
"X c #B95D47",
"o c #BA5F48",
"O c #AF6845",
"+ c #B36246",
"@ c #B76548",
"# c #BD6349",
"$ c #B46F49",
"% c #BB6D4A",
"& c #AE7E49",
"* c #B37249",
"= c #BC774C",
"- c #B67B4B",
"; c #BA7B4C",
": c #C1664B",
"> c #C56A4D",
", c #C96E4F",
"< c #C4744F",
"1 c #C9704F",
"2 c #CB6D50",
"3 c #C77750",
"4 c #CD7451",
"5 c #C37D50",
"6 c #CD7B53",
"7 c #D07653",
"8 c #D47B55",
"9 c #D87D57",
"0 c #DA7F58",
"q c #AC8449",
"w c #AB8D4B",
"e c #B4864C",
"r c #B28E4D",
"t c #AA964C",
"y c #AE9F4F",
"u c #B1974E",
"i c #BD8E50",
"p c #B79250",
"a c #BB9251",
"s c #B49C50",
"d c #BC9B53",
"f c #A7A54E",
"g c #AAA44E",
"h c #A6AE4F",
"j c #AAAB4F",
"k c #A6B04F",
"l c #AFA550",
"z c #ADAD51",
"x c #B2A351",
"c c #BCA454",
"v c #B3AB52",
"b c #B9A954",
"n c #A8B050",
"m c #C58452",
"M c #CB8253",
"N c #C48B53",
"B c #CA8854",
"V c #D48156",
"C c #D88157",
"Z c #D08E57",
"A c #DC8459",
"S c #DE895B",
"D c #C39554",
"F c #CC9256",
"G c #C99B57",
"H c #CD9858",
"J c #D5945A",
"K c #DE935C",
"L c #D6995A",
"P c #DC9C5D",
"I c #E0875B",
"U c #E38C5D",
"Y c #E5925E",
"T c #E8925F",
"R c #E2995F",
"E c #C2A456",
"W c #C7A458",
"Q c #CCA259",
"! c #D1A15B",
"~ c #E79760",
"^ c #EB9661",
"/ c #E79860",
"( c #ED9862",
") c #F09462",
/* pixels */
" 4^^^^^^^^^^^^^^^^^^^^^^^^6X,A^~^^^^^A77ihksMukkkn",
":8^^^^^^^^^^^^~^^^^^^^^^^^9>7U^(^^^^(UAAJEnfaaxhkk",
"4A^^^^^^^^^^^^^^^^^^^^^^^^S9U^^^T(^^^^^((/EnlNmvhj",
"7S^^^^^^^^^^^^^^^^^^^^^^^^TY^(^^^^^^^^^~(~RPPYYKFm",
"7A^^^^^^^^^^^^^^^^^^^^^^^^^(^^^^^^^^^^^^(^(^^^^)U0",
"4A^^^^^^^^^^^^^^^^^^^^^~^^^^^^^^^^^^^^^^^^^^^^^^^^",
"#8^(^^^^^^^^^^^^^^^^^^^SAY^^^^^^^^^^^^(^^^^^^^^^((",
" 1U^~^^^^^^^^^^^^^^^^^^A8Y^^^^^^^^^^^^(~^^^^^^^(TU",
" >8Y(^^^^^^^^^^^^^^^^^^A9U^^^^^^^^^^^^^T^^^^^^^^A7",
">#>S((^^^^^^^^^^^^^^^^^A9Y(^^^^^^^^^^^^^^^^^^(U427",
"V1#AYY^^^^^^^^^^^^^^^~^V4U~(^^^^^^^^^^^^^^^^^TA%=m",
"TA4779U(^^^^^^^^^^^^((^4>U((^^^^^^^^^^^^^^^((Amgjx",
"(YA944CSASU^(^^^^^^^UAA>#I(^^^^^^T(^^^^^^T((/Hunkk",
"^(Y96979947U^YY^^^^^A99>:S^^^^^^^^^^^^^^^^(TTEkkkn",
"^(Y99YUTU4#7998S^^^^TUU948S^^^^^^^^^^^T(^((UVskkkn",
"^^^AI~((^6:48CAS^^^^((~UV,9^^^^^^^^^^^((T((I8ukkkk",
"^^^^^^^^(A76A^^^^^^^^^^(U#4Y^^^^^^^^^^^^^^(I6skknh",
"^^^^^^^^^YS9S(~^^^^^^^~(U#:AT(^^^^^^^^^^^^(U8ukkhh",
"^^^^^^^^^(U48U^(^^^^^TUA7##1AT^~^^^^T^^^^^(I1ykkkn",
"^^T^^^^^^(I#:9U^T^^^^Y9,#  X4C^(^^^^^^^^^((C@wkhkk",
"^USY(^^^^(A# >7AAY^^^TUC7,o .,CY(((^^^^^^^(CXOqhkk",
"U94U(^^^^(I>X#7CVU^^^^((^A4>:,7AT~(^^^^^^^(A#:<cvb",
"8,#A(^^^((U747UT^^^^^^^^^TYYYA77AT~T^^^^^^^I7VRRRR",
"S7>10(((^A47CIT(^^^^^^^^^((((YUIAS79T((((^LcdG!~)(",
"^U7#1SUYK5%6I~^^~^^^^^^^^^^^^^^~U9::AUUURPvkkkbR^(",
"^^Y7,##=xjsK((^^^^^^^^^^^^^^^^((^YV,:#:7NvhkkkyMI^",
"^^^I7%*whgDT(^^^^^^^^^^^^^^^^^^^^^U9X#40DnkkkkjpJ(",
"^^^^U6ykhDCU(^^^^^^^^^^^^^^^^^^^^^(I#7((QnkkkkkkG)",
"^^^^^YbknG^^^^^^^^^^^^^^^^^^^^^^^^(U40((!kkkkkkkQ(",
"^^^^)^DysL((^^^^^^^^^^^^^^^^^^^^^^^U9A^(JshkkkkkQ(",
"^^^^(^C66I^^^^^^^^^^^^^^^^^^^^^^^^(U7S^^IMxkkkknG(",
"^^^^^T074S^^^^^^^^^^^^^^^^^^^^^^(((T8A((TSbkkkvLR(",
"^^^^^TC7VU^^^^^^^^^^^T^^^^^^^^^^^^TSBFP/(~QbbbQR^^",
"^^^^(^09Y(^^^^^^^^^^^^^^^^^^^^^^~(AmgkvP((RTRRT(^(",
"^^^^(T44T(^^^^^^^^^^^^^^^^^^^^^^^^HshkzP^^^)))((UA",
"^^^^^U::U^^^^^^^^^^^^^^^^^^^^^^^^^EkkkvP)^RPPPPPZm",
"^^^(U7:#7U^^^^^^^^^^^^^^^^^^^^^^(^EkkklP)REhvvzvlj",
"^^((A>:>7I((^^^^^^^^^^^^^^^^^^^^YSckkfDRRWzkkkkkkk",
"^^^~C#<6MST^^^^^^^^^^^^^^^^^^^^(U4avzD9YWnkkkkkkkk",
"^^^^I4uggNAY^^^^^^^^^^^^^^^^^^^~A:MPPRKcznkkkhkkhk",
"^^TUA6xkne,AY(^^^^^^^^^^^^^^^(^Y8o7)()Rvkkkkhkkkkk",
"^(Y976xkhe#4A^^^^(^^^^^^^^^^^^Y9>o8(((Rvkkkkkkkhnk",
"^(^0mshkhfw@,AT(((~^^^^^^^(((U9>..8(^^Rvkkkkkkkkhk",
"^TIBskknhkf&;mV0CUU^((^^^(TULHN%o.8((^Kvkkkkkhkkkk",
"^IMxkkkkknhhhg*X#1AT^^^^T^I6xhjN>X8~(^Rbkhkknkkknk",
"(JsjkkhkkkkkkhtwtuxE5290A006gkhxN1A(((Rvkknkkhnkkh",
"PEkkknkkkkhkkkkkkkkhq*mmmm3<ufkkg4AT^(Rdjkkknkkhkk",
"zzkkkhknkhknkhkkkkknjfjjhjeXXqhkt@>0T~TVahkhkkkkkk",
"kkkkkkkkkkkknkknkknkkkkkkkfq++&q*X-sWWEdyhkkkkkkkh",
"kkkkkkhknkhkkkkhkhkkkkkkkkkj$     wkkkkkkkkkhnkknk"
};
