/* XPM */
static char *FieldsTile_60[] = {
/* columns rows colors chars-per-pixel */
"50 50 72 1 ",
"  c #B35744",
". c #B55945",
"X c #B95D47",
"o c #BA5F48",
"O c #B36446",
"+ c #B06E47",
"@ c #BD6249",
"# c #BF684B",
"$ c #AE7F49",
"% c #B37749",
"& c #B27F4A",
"* c #B8784B",
"= c #C1664B",
"- c #C56B4D",
"; c #C86F4F",
": c #C3764F",
"> c #C1784E",
", c #CB6F50",
"< c #CD7351",
"1 c #CB7C52",
"2 c #D07753",
"3 c #D47B55",
"4 c #D97E57",
"5 c #AD8349",
"6 c #B2864C",
"7 c #B58A4D",
"8 c #B2944E",
"9 c #BD8F51",
"0 c #B99551",
"q c #B49C50",
"w c #BF9E54",
"e c #ACA44F",
"r c #A6AE4F",
"t c #A8AB4F",
"y c #A5B14F",
"u c #AFA350",
"i c #ADAC51",
"p c #B1A450",
"a c #BEA655",
"s c #B5A953",
"d c #BCA855",
"f c #AAB050",
"g c #C28250",
"h c #CB8354",
"j c #C38C52",
"k c #D38256",
"l c #D88057",
"z c #D28957",
"x c #D78658",
"c c #DC8459",
"v c #DE895B",
"b c #C79555",
"n c #C49B55",
"m c #C99B57",
"M c #CE9958",
"N c #DF935C",
"B c #D59E5B",
"V c #DC9C5D",
"C c #E38C5D",
"Z c #E88F5F",
"A c #E6915F",
"S c #E8925F",
"D c #E4995F",
"F c #C3A556",
"G c #C2A857",
"H c #C7A358",
"J c #CAA258",
"K c #D2A05B",
"L c #E79660",
"P c #EB9661",
"I c #E79860",
"U c #ED9862",
/* pixels */
".=22jtyryryyJPPPPPPPPPPPPP2X-cPPPPPPPc<X ..@<=+eyy",
"$gccbtyyryyyHPUPPPPPPPPPPUc-3CPPPPPPPZc2=.-2l<*eyy",
"rFPUBpryyyyiJPPPPPPPPPPPPPc2CUPPPPPPPPPP3@cUSchuyy",
"yGPUvjeyyyiBIPPPPPPPPPPPPU3=vUPPPPPPPPPUv<CUPSvhqy",
"qMPPZxbaaaJIUPPPPPPPPPPPPU<@cUUPPPPPPPPPC2CUUUZcjq",
"<cPPPPPIPPPPPPPPPPPPPPPPUU2ocUPPPPPPPPPPC3CUPPPPc1",
"@3PUUPUUPPPPPPPPPPPPPPPPPP2@cUPPPPPPPPPUv2ZUPPPPAZ",
" :VBVPPPPPPPPPPPPPPPPPPPPU3-vUPPPPPPPPPPc<xAPPPPSZ",
" &iiGPPPPPPPPPPPPPPPPPPPPPc2ZUUUPPPPPPPU4o;cPIIPx2",
"-7yyaIUPPPPPPPPPPPPPPPPPUUC2CIPPPPPPPPPU3 X*FGmx,@",
"3beenSPUPPPPPPPPPPPPPPPUPCclZUPPPPPPPPPP4@O$rypk,@",
"Sx1h13ZUPPPPPPPPPPPPPPUUC=<SPPPPPPPPPPPUc<8ryysNZZ",
"IAc3223cccCPIUUPPPPPCcv3;.<PPPPPPPPPPPPUSxst0nKIUU",
"UUP423333<2ZPAZPPPPPc23-XX<PPPPPPPPPPPPPUDFqkCPPPU",
"UUZ33CZZZ<@2343cPPPPSZZ3;<cPPPPPPPPPPPPPUDkzZAPPPP",
"PPPcCPUUP2=<3xcCPPPPUUISl-lPPPPPPPPPPPPPUP3lPUPPPP",
"PPPPPPPUUx2<cPPPPPPPPPPUC@<SPPPPPPPPPPPPPA43SPPPPP",
"PPPPPPPPPSC3cUPPPPPPPPPUC@=cSPPPPPPPPPPPUA<-lSUPPP",
"PPPPPPPPPUC<3ZPPPPPPUPCc3==;cAPPPPPPPPUPS3@X-lZUPP",
"PPPPPPPPPUC@=3CPPPPPIS3-@<-@,xPPPPPUPPPP3X..X-lAPP",
"PZcSPPPPPUCo.=3ccSPPPPCl3Cv2=<UUUUUUUZcc2-XX=<2l44",
"C3<CUPPPPUC=X@24lCPPPPPPUUUS;-cccxcvc3<3l3;-3l4344",
"3-@cUUPPUUZ<<2CASPPPPPPPPPUS3-@@@@@@@-2CPSSSSAPAAA",
"C2=<4UUUUx<23CPUPPPPPPPPPPPPZ3=X  X-<lCPUPPUIUUUUU",
"PC2=-vCCC-@<CPUPPPPPPPPPPPPPUC<@.X;cSUPPPPPPPPPPUU",
"PPC2-=@@=-2ZPPPPPPPPPPPPPPPPUC<@X<cAPUPPPPPPPPPPPP",
"PPPC3@X.@2CPIPPPPPPPPPPPPPPPPSc=@lSUPPPPPPPPPPPPPP",
"PPPPC2@@<vPPUUPPPPPPPPPPPPPPPPP--SPPPPPPPPPPPPPPPP",
"PPPPPC-X<CUPPPPPPPPPPPPPPPPPPUP23PUPPPPPPPPPPPPPPP",
"PPPPIP<=2cUPPPPPPPPPPPPPPPPPPPSc3PPPPPPPPPPPPPPPPP",
"PPPPPSc<2CPPPPPPPPPPPPPPPPPPPPPllAUPPPPPPPPPPPPPPP",
"PPPPPPc22CIPPPPPPPPPPPPPPPPPPPPl4APPPPPPPPPPPPPPPP",
"PPPPPP2<lCPPPPPPPPPPPPPPPPPPPUA22AUUPPPPPPPPPPPPPP",
"PPPPPS--ZIPPPPPPPPPPPPPPPPPPPUA;;SUPPPPPPPPPPPPPPP",
"PPPPPP<<PUPPPPPPPPPPPPPPPPPPPUA-=SUPPPPPPPPPPPPPPP",
"PPPPPPclSPPPPPPPPPPPPPPPPPPPPPC;-ZUPPPPPPPPPPPPPPP",
"PPPPPPclPPPPPPPPPPPPPPPPPPPPUC323PUPPPPPPPPPPPPPPP",
"PPPPPS2<SUPPPPPPPPPPPPPPPPPPPC24CPPPPPPPPPPPPPPPPP",
"PPPPUS-=SPPPPPPPPPPPPPPPPPPPPv<CPPPPPPPPPPPPPPPPPP",
"PPPPUS-=SPPPPPPPPPPPPPPPPPPPPl=xPPPPPPPPPPPPPPPPPP",
"PPPPUS-@xPPPPPPPPPPPPPPPPPPPU3olUPPPPPPPPPPPPPPPPP",
"PPPPPS-@<cPUPPPPPPPPPPPPPPPUU3olUPPPPPPPPPUUPPPPPP",
"PPUUS3=.@<cUUPPPPPPPPPPPPPPAc<XlUPPPPPPPPPUIUUUPPP",
"PPPSx<=X @<cAPUUPPUPPPPPPUUP4-=xUPPPPPPPIUZvBBBSPP",
"PPZ3222;XX@<cPPAPPPPPPPPPPPS3<2CUPPPPPPPPP4jpydDPP",
"UZx22CZvlll<<-;<lccPPPPCllc3-<CPPPPPPPPPUDberysDPP",
"Z4<2vPUUIUSl<==,33cPUPPc333<X;PUPPPUPPPPPvsyyeaDUP",
"2-=cPPPPPUPSSCZZPAAPPPPPPPc<o-SPPPPPSPPPCkpyr9kSUP",
"==-CUUUUPPPUUUUUPUPPPPPPUU4=.@<<<<<<xZAC2=%69zCPBF",
".=3CUIPPPPPPPPPPPPPPPPPPUP2......  X<CS3=..@2CUPFr"
};
