/* XPM */
static char *FieldsTile_27[] = {
/* columns rows colors chars-per-pixel */
"50 50 139 2 ",
"   c #B35744",
".  c #B45844",
"X  c #B45845",
"o  c #B55945",
"O  c #B65A45",
"+  c #B65A46",
"@  c #B75B46",
"#  c #B75C46",
"$  c #B85C46",
"%  c #B85D47",
"&  c #B95D47",
"*  c #B95E47",
"=  c #BA5E47",
"-  c #BA5E48",
";  c #BA5F48",
":  c #BB5F48",
">  c #BB6048",
",  c #BC6048",
"<  c #BC6149",
"1  c #BD6149",
"2  c #BD6249",
"3  c #BE6349",
"4  c #BE634A",
"5  c #BF644A",
"6  c #BF654A",
"7  c #C0654B",
"8  c #C1664B",
"9  c #C1674B",
"0  c #C2674B",
"q  c #C2674C",
"w  c #C2684C",
"e  c #C3694C",
"r  c #C4694D",
"t  c #C46A4D",
"y  c #C56A4D",
"u  c #C56B4D",
"i  c #C56C4E",
"p  c #C66C4E",
"a  c #C66D4E",
"s  c #C76D4E",
"d  c #C76E4F",
"f  c #C86E4F",
"g  c #C86F4F",
"h  c #C96F4F",
"j  c #C9704F",
"k  c #C97050",
"l  c #CA7050",
"z  c #CA7150",
"x  c #CB7150",
"c  c #CB7250",
"v  c #CB7251",
"b  c #CC7251",
"n  c #CC7351",
"m  c #CD7351",
"M  c #CD7451",
"N  c #CD7452",
"B  c #CE7452",
"V  c #CE7552",
"C  c #CE7652",
"Z  c #CF7652",
"A  c #CF7653",
"S  c #D07753",
"D  c #D07853",
"F  c #D17853",
"G  c #D17854",
"H  c #D17954",
"J  c #D27954",
"K  c #D27A54",
"L  c #D37A54",
"P  c #D37B54",
"I  c #D37A55",
"U  c #D37B55",
"Y  c #D47B55",
"T  c #D47C55",
"R  c #D57C55",
"E  c #D57D56",
"W  c #D67D56",
"Q  c #D57E56",
"!  c #D67E56",
"~  c #D67F56",
"^  c #D77F56",
"/  c #D77F57",
"(  c #D78057",
")  c #D88057",
"_  c #D88157",
"`  c #D98157",
"'  c #D98158",
"]  c #D98258",
"[  c #DA8258",
"{  c #DA8358",
"}  c #DB8358",
"|  c #DB8359",
" . c #DB8459",
".. c #DC8459",
"X. c #DC8559",
"o. c #DD865A",
"O. c #DD875A",
"+. c #DE875A",
"@. c #DE885A",
"#. c #DF885B",
"$. c #DF895B",
"%. c #E0895B",
"&. c #E08A5B",
"*. c #E08A5C",
"=. c #E18A5C",
"-. c #E18B5C",
";. c #E28B5C",
":. c #E28C5C",
">. c #E28C5D",
",. c #E38C5D",
"<. c #E38D5D",
"1. c #E48E5D",
"2. c #E48E5E",
"3. c #E48F5E",
"4. c #E58F5E",
"5. c #E5905E",
"6. c #E6905E",
"7. c #E6915E",
"8. c #E6915F",
"9. c #E7915F",
"0. c #E7925F",
"q. c #E8925F",
"w. c #E8935F",
"e. c #E89360",
"r. c #E99360",
"t. c #E99460",
"y. c #EA9460",
"u. c #EA9560",
"i. c #EA9561",
"p. c #EB9561",
"a. c #EB9661",
"s. c #EB9761",
"d. c #EC9761",
"f. c #EC9762",
"g. c #EC9862",
"h. c #ED9862",
"j. c #ED9962",
"k. c #EE9962",
"l. c #EE9A63",
/* pixels */
"X 7 H 6.f.a.a.a.a.a.a.a.a.a.a.a.a.a.a.a.a.a.a.a.f.f.D & a ] a.a.a.a.a.a.a...S S y X   3 C 5 . X X X ",
"7 a H ] 4.a.f.a.a.a.a.a.a.a.a.a.a.a.a.a.a.a.a.h.a.&.^ C ( ,.a.a.a.a.a.a.a.,.....^ C b H ] H C l 7 X ",
"S H H Y ..6.a.a.a.a.a.f.a.a.a.a.a.a.a.a.a.a.a.6.&.^ ..a.a.a.a.a.a.a.a.a.a.a.a.a.a.a.a.a.a.a.a.a.C # ",
"S ] 4.4...) 4.f.f.a.f.f.a.a.a.a.a.a.a.a.a.h.a.^ g ..a.f.a.a.a.a.a.a.a.a.a.a.a.f.a.f.a.a.a.a.a.a.) g ",
"S ..f.h.6.] ^ ] %.&.&.&.4.a.a.a.f.a.f.a.6.#.( a y 4.h.a.a.a.a.a.a.a.a.a.a.a.a.a.a.a.a.a.a.a.a.a.,.] ",
"C ] a.a.h.q.g 7 S Y H Y #.a.a.a.a.r.a.6.] g : y ^ 6.f.a.a.a.a.a.a.a.a.a.a.a.a.a.a.a.a.a.a.a.a.a.a.a.",
"3 l ..q.h.a.H b #.,.&.&.6.f.f.,./ ] H a 7 & X b 4.a.a.a.a.a.a.a.a.a.a.a.a.a.a.a.a.a.a.a.a.a.a.a.a.a.",
". : k ..4.,.....a.h.h.f.a.a.f.&./ / S y 3 & X ^ a.a.a.a.a.a.a.a.a.a.a.a.a.a.a.a.a.a.a.a.a.a.a.a.a.f.",
"X @ 3 b Y ^ &.a.a.a.a.a.a.a.a.a.r.r.r.4.) a & H a.a.a.a.a.a.a.a.a.a.a.a.a.a.a.a.a.a.a.a.a.a.a.a.a.a.",
"y l ^ ..#.%.6.f.a.a.a.a.a.a.a.a.f.f.f.a.6.] g ] a.a.a.a.a.a.a.a.a.a.a.a.a.a.a.a.a.a.a.a.a.a.f.a.,.] ",
"^ %.f.f.f.a.a.a.a.a.a.a.a.a.a.a.a.a.a.a.h.4.^ ..a.a.a.a.a.a.a.a.a.a.a.a.a.a.a.a.a.a.a.a.a.a.a.4. .^ ",
"6.r.a.a.a.a.a.a.a.a.a.a.a.a.a.a.a.a.a.a.f.4.Y #.a.f.a.a.a.a.a.a.a.a.a.a.a.a.a.a.a.a.a.a.a.f.4.^ ..6.",
"f.f.a.a.a.a.a.a.a.a.a.a.a.a.a.a.a.a.a.a.f.,.Y #.a.a.a.a.a.a.a.a.a.a.a.a.a.a.a.a.a.a.a.a.a.f.6.#.6.h.",
"a.a.a.a.a.a.a.a.a.a.a.a.a.a.a.a.a.a.a.a.f.,.Y ..f.a.a.a.a.a.a.a.a.a.a.a.a.a.a.a.a.a.a.a.a.a.a.a.a.a.",
"a.a.a.a.a.a.a.a.a.a.a.a.a.a.a.a.a.a.a.a.f.4.^ #.a.a.a.a.a.a.a.a.a.a.a.a.a.a.a.a.a.a.a.a.a.a.a.a.a.a.",
"a.a.a.a.a.a.a.a.a.a.a.a.a.a.a.a.a.a.a.a.h.&.g H &.a.a.a.a.a.a.a.a.a.a.a.a.a.a.a.a.a.a.a.a.a.a.a.a.a.",
"a.a.a.a.a.a.a.a.a.a.a.a.a.a.a.a.a.a.a.a.h.#.3 7 ^ 6.f.a.a.a.a.a.a.a.a.a.a.a.a.a.a.a.a.a.a.a.a.a.a.a.",
"a.a.a.a.a.a.a.a.a.a.a.a.a.a.a.a.a.a.a.a.h...3 7 ^ q.h.a.a.a.a.a.a.a.a.a.a.a.a.a.a.a.a.a.a.a.f.a.a.a.",
"a.a.a.a.a.a.a.a.a.a.a.a.a.a.a.a.a.a.a.a.r.^ & 3 l ..,.4.a.f.a.a.a.a.a.a.a.a.a.a.a.a.a.a.a.6.4.a.f.a.",
"a.a.a.a.a.a.a.a.a.a.a.a.a.a.a.a.a.a.a.r.] l & X 3 C H Y ,.a.a.a.a.a.a.a.a.a.a.a.a.a.a.a.r.] ^ 6.a.a.",
"f.h.h.f.f.a.a.a.a.a.a.a.a.a.f.f.f.f.6.] a 3 e y y C a 7 H ,.f.h.f.f.a.f.a.a.a.f.f.f.h.a.] a 3 a D ] ",
",.&...,.6.a.f.f.a.f.a.a.f.a.4.,.,.a.4.^ g a ^ ) ) ^ l 3 y S ..&.4.4.4.4.a.f.a.6.&.....) C a 9 9 b ^ ",
"Y g 7 b ..a.a.a.a.a.a.a.a.6.] H ^ 4.a.q.4.4.q.q.r.q...b 3 & 5 b Y Y H ) 6.f.6.] l 3 : 7 S ..6.6.6.q.",
"..H 9 7 y C b S ] ....] 4.a.&.....r.a.f.h.h.f.f.f.f.6.] 3 3 D  .] S C C C b b C S H S ^ #.q.h.h.h.f.",
"h.,.H 7 X X : y H ^ ^ ^ ..f.a.a.a.a.a.a.a.a.a.a.a.a.h.6.y l a.h.4.^ H l 3 : e S #.a.f.f.a.a.a.a.a.a.",
"a.a.4.H 9 : H 4.4.6.4.4.r.f.f.a.a.a.a.a.a.a.a.a.a.a.h.6.H ^ a.h.a.6.] C l ^ &.4.a.a.a.a.a.a.a.a.a.a.",
"a.f.a.&.b : ] h.f.f.a.f.a.a.a.a.a.a.a.a.a.a.a.a.a.a.f.q.^ ] a.a.f.a.] H ] 4.h.f.a.a.a.a.a.a.a.a.a.a.",
"a.a.a.f.^ 5 ] h.a.a.a.a.a.a.a.a.a.a.a.a.a.a.a.a.a.a.a.r.] ] 6.a.f.a...^ r.f.a.a.a.a.a.a.a.a.a.a.a.a.",
"a.a.a.f...b #.h.a.a.a.a.a.a.a.a.a.a.a.a.a.a.a.a.a.a.a.a.6.#.] 4.a.a.6.6.a.a.a.a.a.a.a.a.a.a.a.a.a.a.",
"a.a.a.a.&.^  .4.a.a.a.a.a.a.a.a.a.a.a.a.a.a.a.a.a.a.a.a.h.&.H ] 4.a.f.f.a.a.a.a.a.a.a.a.a.a.a.a.a.a.",
"a.a.a.f.,.H C ( r.f.a.a.a.a.a.a.a.a.a.a.a.a.a.a.a.a.a.a.f.&.S C ] r.a.a.a.a.a.a.a.a.a.a.a.a.a.a.a.a.",
"a.a.a.a.r.%.g l 6.f.a.a.a.a.a.a.a.a.a.a.a.a.a.a.a.a.a.f.h.] 7 g ^ r.a.a.a.a.a.a.a.a.a.a.a.a.a.a.a.a.",
"a.a.a.a.h.r.y e 6.f.a.a.a.a.a.a.a.a.a.a.a.a.a.a.a.a.a.a.h.^ & l ..a.a.a.a.a.a.a.a.a.a.a.a.a.a.a.a.a.",
"a.a.a.a.h.6.a e 6.h.a.a.a.a.a.a.a.a.a.a.a.a.a.a.a.a.a.a.f.^ > ^ f.a.a.a.a.a.a.a.a.a.a.a.a.a.a.a.a.a.",
"a.a.a.a.f.r.D C 6.f.a.a.a.a.a.a.a.a.a.a.a.a.a.a.a.a.a.a.f...l #.h.a.a.a.a.a.a.a.a.a.a.a.a.a.a.a.a.a.",
"a.a.a.a.a.a.) ) a.a.a.a.a.a.a.a.a.a.a.a.a.a.a.a.a.a.a.a.f.&.Y &.a.a.a.a.a.a.a.a.a.a.a.a.a.a.a.a.a.a.",
"a.a.a.a.f.a.) ^ q.h.a.a.a.a.a.a.a.a.a.a.a.a.a.a.a.a.a.a.f.&.H ,.f.a.a.a.a.a.a.a.a.a.a.a.a.a.a.a.a.a.",
"a.a.a.a.f.6.C C q.h.a.a.a.a.a.a.a.a.a.a.a.a.a.a.a.a.a.a.h...g ..h.a.a.a.a.a.a.a.a.a.a.a.a.a.a.a.a.a.",
"a.a.a.a.h.r.y 7 ,.a.a.a.a.a.a.a.a.a.a.a.a.a.a.a.a.a.a.a.a.H 3 ) h.a.a.a.a.a.a.a.a.a.a.a.a.a.a.a.a.a.",
"a.a.a.a.h.6.a 3 T 4.h.a.h.a.a.a.a.f.a.a.a.a.a.a.a.a.f.r...a & ] h.a.a.a.a.a.a.a.a.a.a.a.a.a.a.a.a.a.",
"a.a.a.a.h.r.g X e C ^ ..%.#.#.#.#.#.,.a.f.f.f.f.h.h.a...l 3 & ] a.a.a.a.a.a.a.a.a.a.a.a.a.a.a.a.a.a.",
"a.a.a.a.a.6.a X & X 5 S ^ H H ^ Y H ] r.a.r.r.r.r.6...b > X > ] f.a.a.a.a.a.a.a.a.a.a.a.a.a.a.a.a.a.",
"a.a.a.f.4.^ 5 & y a C ..,.,.,.,.,.,.#.( ^ ^ ^ ] ^ a 5 & X & g &.h.a.a.a.a.a.a.a.a.a.a.a.a.a.a.a.a.a.",
"a.f.a.6.] C e y ( ] ..a.h.f.f.a.f.h.4.) ^ ) ) H l 5 7 a a C ] %.,.a.a.a.a.a.a.a.a.a.a.a.a.a.a.a.a.a.",
"a.a.6.) S D C ^ 6.a.a.a.a.a.a.a.a.a.a.a.r.a.a...D C ] q.q.a.6.] ] a.a.a.a.a.a.a.a.a.a.a.a.a.a.a.a.a.",
"f.4.] H ^ %.&.4.a.f.a.a.a.a.a.a.a.a.a.a.a.f.a.6...Y ..h.h.f.a.,.,.a.a.a.a.a.a.a.a.a.a.a.a.a.a.a.a.a.",
"4.) l H #.a.f.a.a.a.a.a.a.a.a.a.a.a.a.a.a.a.a.f.6.] ] %.a.f.f.h.a.6.q.a.a.a.a.a.a.a.a.a.a.a.a.a.a.f.",
"H a 5 ..a.a.a.a.a.a.a.a.a.a.a.a.a.a.a.a.a.a.a.f.a.a.H e ..a.a.a.,.^ &.a.a.a.a.a.a.a.a.a.a.a.a.a.a.a.",
"7 7 g &.h.a.a.a.a.a.a.a.a.a.a.a.a.a.a.a.a.a.a.a.f.f.H & a C C b b S %.f.a.a.a.a.a.a.a.a.a.a.a.a.,...",
"X 7 Y 4.h.f.a.a.a.a.a.a.a.a.a.a.a.a.a.a.a.a.a.a.a.f.H X   . X   > C &.a.a.a.a.a.a.a.a.a.a.a.a.a...C "
};
