/* XPM */
static char *FieldsTile_57[] = {
/* columns rows colors chars-per-pixel */
"50 50 70 1 ",
"  c #B35744",
". c #B55945",
"X c #B95D47",
"o c #BA5F48",
"O c #B36446",
"+ c #B06E47",
"@ c #BD6249",
"# c #BF684B",
"$ c #B37749",
"% c #BA784C",
"& c #C1664B",
"* c #C56B4D",
"= c #C86F4F",
"- c #C1754E",
"; c #C9704F",
": c #C1784E",
"> c #CB6F50",
", c #CC7351",
"< c #C57950",
"1 c #CA7851",
"2 c #D07753",
"3 c #D47C55",
"4 c #D97E57",
"5 c #AE844A",
"6 c #B2864C",
"7 c #B2924E",
"8 c #BD8F51",
"9 c #B69550",
"0 c #B99651",
"q c #B49C50",
"w c #BB9B52",
"e c #AAA64E",
"r c #A6AE4F",
"t c #A9AA4F",
"y c #A4B24F",
"u c #AFA450",
"i c #ACAC50",
"p c #B1A450",
"a c #BDA354",
"s c #B5AA53",
"d c #BBA854",
"f c #A8B050",
"g c #C48652",
"h c #CC8354",
"j c #C38D52",
"k c #D28256",
"l c #D88057",
"z c #D18B57",
"x c #D78658",
"c c #DB8459",
"v c #DF895B",
"b c #C49A55",
"n c #C99D57",
"m c #CD9B58",
"M c #DD945C",
"N c #D49F5B",
"B c #DA9C5D",
"V c #E38C5D",
"C c #E88F5F",
"Z c #E6915F",
"A c #E8925F",
"S c #E3995F",
"D c #C2A456",
"F c #C2A857",
"G c #CBA359",
"H c #D1A05A",
"J c #E79660",
"K c #EB9661",
"L c #E69A60",
"P c #ED9862",
/* pixels */
".@3CPKKKKKKKKKKKKKKKKKKKPK3o*cKPKKKKKv,o.. @,&+eyy",
"&=1cCKKKKKKKKKKKKKKKKKKPKV2*3VKPKKKKKVl1&o*2l,%eyr",
"2233cAKKKKKKKKKKKKKKKKPKV3,2VKKKKKKKKKKK3@vPKlhpyy",
"2lCVvlVPPKKKKKKKKKKKKPK3&,*&vPKKKKKKKPKPv,VPKAv<qy",
",vPPCl3cVvVVAKKKPKKKAvl*&,&ovPKKKKKKKKKPv2VPKPCVjq",
",lJKKA;@2223vKKKKJKKl=@*22&@cPKKKKKKKKKKV3VPKKKJv2",
"@,cAPK2,vVVvAKKVll2*@&lvV3,,VPKKKKKKKKKKv3CPKJKPAC",
" @,cVVcvKPKKKKKV3l2*&,KPA3,3VPKKKKKKKKKPl,lZPPKKAV",
"..@,33VKKKKKKKKKJAAACCKPA3,3CKKKKKKKKKKK3o=lKKKKc2",
"*,3cvvAKKKKKKKKKKKKPPPKKA322CKKKKKKKKKKP3.X%Ddnx,@",
"3vKPKPKKKKKKKKKKKKKKKKKPV124AKKKKKKKKKKP4@O5typk,@",
"AKKKKKKKKKKKKKKKKKKKKKPPV&,JKKKKKKKKKKKKV17ryysMCV",
"PKKKKKKKKKKKKKKKKKKKKKKPv@,KKKKKKKKKKKKKVxsi0bHLPP",
"KKKKKKKKKKKKKKKKKKKKKKKPV&,KKKKKKKKKKKKKPAaq3VPPKK",
"KKKKKKKKKKKKKKKKKKKKKKPPA1lPKKKKKKKKKKKKKKzkVKKKKK",
"KKKKKKKKKKKKKKKKKKKKKKKZl,3KPKKKKKKKKKKKKK4lKPKKKK",
"KKKKKKKKKKKKKKKKKKKKKKKv,o,KPKKKKKKKKKKKKJ33AKKKKK",
"KKKKKKKKKKKKKKKKKKKKKPPv>.&lAPKKKKKKKKKKPJ>*3APKKK",
"KKKKKKKKKKKKKKKKKKKKZVl,*@@>cAKKKKKKKKKKC3@o*lVKPK",
"KKKKKKKKKKKKKKKKKKKKl,@o@,*@,lKKKKKKKKKK3o..@*lKKK",
"PPPKPKKKKKKKKKKPKKCl*@&**vv2&,PPKPPPPCcl2*.o&,2l44",
"VVvVCPPPKKKPKJCVVKA3,*3lcKPA**cvvvvcv413l3;*3ll344",
"2>@>cJKKKKKKPJ423CKAAVJZKKPAl*@@oo@@o*2CKACAKAAAJZ",
"v2&&*,,3ccccVCVVvJKKKPPKKKKKV3&.  @*,3vKPPKPKKPKPP",
"PV2&...@>,23VJPKKKKKKKKJKKKKPv1@.o>lKPKKKKKKKKKKJK",
"KKV2&. .X*3VJKKKKKKKKKKPKKKKPV2@o>lKKKKKKKKKKKKKKK",
"KPKV2&.o&2VKKKKKKKKKKKKKKKKKKCc&&lCPKKKKKKKKKKKKKK",
"KKKKC2@o>VKKKKKKKKKKKKKKKKKKKPA=*CPKKKKKKKKKKKKKKK",
"KKJPKV&@2VJKKKKKKKKKKKKKKKKKKPJ33JKKKKKKKKKKKKKKKK",
"KKKKPK,@,vKKKKKKKKKKKKKKKKKKKKJ44CKKKKKKKKPKKKKKKK",
"KKKKPJc,2VKKKKKKKKKKKKKKKKKKKPJ44JPKKJKKKKKKKKKKKK",
"KKKKPPl12VKPKKKKKKKKKKKKKKKKKPJ44JKKKKKKKKKKKKKKKK",
"KKKKPK434CKKKKKKKKKKKKKKKKKKKKK22JPKKKKKKKKKKKKKKK",
"KKKKPC43CKKKKKKKKKKKKKKKKKKKKPA**APKKKKKKKKKKKKKKK",
"KKKKPJ,,ZPKKKKKKKKKKKKKKKKKKKKK*@CPKKKKKKKKKKKPKKK",
"KKKKJV-%MLKKKKKKKKKKKKKKKKKKKKV=;APKKKKKKKKKKKKKKK",
"KKKKC37tsNKKKKKKKKKKKKKKKKKKKV3,3KKKKKKKKKKKKKKKKK",
"KKKKM0iyyGPKKKKKKKKKKKKKKKKKKV2lVKKKKKKKKKKKKKKKKK",
"KKKKNiyrumJKKKKKKKKKKKKKKKKKKv,VKKKKKKKKKKKKKKKKKK",
"KKKKNryeg1cAPKKKKKKKKKKKKKKKKl&cPKKKKKKKKKKKKKKKKK",
"KJKVzwwmv,>cAKKKKKKKKKKKKKKKP3olPKKKKKKKKKKKKKKKKK",
"KPJ413VPA,o,cKKKKPKKKKKKKKKKP2@lPKKKKKKKKKKKKKKKKK",
"KPJ33CJCl,*@=vJPPPPPKKKKKKKKv*olPKKKKKKKKKKKKKPJKK",
"KPK3lKPCll3,>2333vCPPPKKKKPKl*&cPKKKKKKKKJCMBNBKKK",
"JPC4lKKJKKJZv,@oo,cZJKKKKKKA3,2VKKKKKKKKKKljirdSKK",
"44cVAKPPKKPPAvl332>=*,3lcAPA=,VKKKKKKKKKKKburysSKK",
"g<,VKVBBMBBKPKPPJv,&@*2llAKv@=KPKKPKPKKKJZsyyeaSKK",
"i6oVC3wfsidSPKKPPJJZCAAAKKV,@*JPKKKKKKKKV1qyr8kAPK",
"r7*4z0eyyyiaBKKKKPPPPPKKPKl@.@,,,,,,cVKv2@$68zVJBD",
"y922jryyyryyGKKKKKKKKKKKPK2....... o,vJ3*..@2VPPDr"
};
