/* XPM */
static char *FieldsTile_29[] = {
/* columns rows colors chars-per-pixel */
"50 50 70 1 ",
"  c #B45744",
". c #B55945",
"X c #B95D47",
"o c #BA5F48",
"O c #B46146",
"+ c #BE6349",
"@ c #BE684A",
"# c #AE7347",
"$ c #AF7448",
"% c #AE7A48",
"& c #B67D4B",
"* c #BA7E4D",
"= c #C1664B",
"- c #C56B4D",
"; c #C86E4F",
": c #C4754F",
"> c #C9704F",
", c #CD7351",
"< c #CC7C52",
"1 c #D07753",
"2 c #D47C55",
"3 c #D87D57",
"4 c #DC7F58",
"5 c #B48C4D",
"6 c #A9964C",
"7 c #BF8B51",
"8 c #BC9452",
"9 c #B49B50",
"0 c #9FB44D",
"q c #A6A24D",
"w c #AFA24F",
"e c #A7AD4F",
"r c #AAAB4F",
"t c #A5B14F",
"y c #AFA450",
"u c #ACAD50",
"i c #B0A250",
"p c #BDA555",
"a c #B3AA52",
"s c #BCAA55",
"d c #C38651",
"f c #CB8654",
"g c #C48952",
"h c #CC8A55",
"j c #D78157",
"k c #D88057",
"l c #DB8459",
"z c #DE895B",
"x c #C59354",
"c c #C99456",
"v c #C09B54",
"b c #C99A57",
"n c #CC9E58",
"m c #DA915B",
"M c #D59D5B",
"N c #DB9B5D",
"B c #E0855B",
"V c #E38C5D",
"C c #E98D5F",
"Z c #E6915F",
"A c #E8925F",
"S c #E29A5F",
"D c #C3A557",
"F c #C7A358",
"G c #CBA259",
"H c #D1A05A",
"J c #EB9661",
"K c #E79860",
"L c #ED9862",
"P c #F09562",
/* pixels */
" ,JPMuttttteFKJJJJJJJJJJJJ2 ;lKJJJJJJB11-  =,@    ",
"=2JJHtttttttGJJJJJJJJJJJJJk-2VJJJJJJJVll2,-;,;==o ",
"<lKPHattttuuGJJJJJJJJJJJJJB2VJJJJJJJJJJJLZk12222-.",
"inKJKMatttuMKKJJJJJJJJJJJJJVJJJJJJJJJJJJJLZVVZCV2>",
"tDJJJJHpDDGKJJJJJJJJJJJJLJJJJJJJJJJJJJJJJJJJLJLJVl",
"tFJJJJKKKKKKJJJJJJJJJJJJJJJJJJJJJJJJJJJJJJJJJJJJJK",
"tDJJJJJPPJJJJJJJJJJJJJJVlJLJJJJJJJJJJJJJJJKJJJJJJJ",
"6xVJJJJJJJJJJJJJJJJJJJJl2VJJJJJJJJJJJJKJJJJJJJJLJV",
"O-2ZLJJJJJJJJJJJJJJJJJJl2ZJJJJJJJJJJJJJJJJJJJJJKl2",
"-*8NPJJJJJJJJJJJJJJJJJJl2CJJJJJJJJJJJJJJJJJJJLV,,,",
"38uGSNKJJJJJJJJJJJJJJJJ42VLJJJJJJJJJJJJJJJJJJJl-,2",
"JGuuuaNJJJJJJJJJJJJJJJK,=VLKJJJJJJJJJJJJJJJJJl2VZC",
"KNDu0ecllBVJKJJJJJLKVll-+VLJJJJJJJJJJJJJJJJJJVBJLJ",
"JPZpuah3212VJCZJJJJJl22-=BJJJJJJJJJJJJJJJJJJZJJJJK",
"JJJfhNZVV,+1222lJJJJZZVj,2VJJJJJJJJJJJJJJJJV3VJJJJ",
"JJJBVJJJK2=,2llVJJJJJLLV2;2JLJJJJJJJJJJJJJJV2VJJJJ",
"JJJJJJJJKl21lJJJJJJJJJJLV=,ZKJJJJJJJJJJJJJLV2zKJJJ",
"JJJJJJJJKJl2BPJJJJJJJJJPV+-kJJJJJJJJJJJJJJJV2VJJJJ",
"PJJJJJJJJPV,2ZKJJJJJJKVl2+o;lCJJJJJJJJJJJJJB,2ZJJJ",
"KKKJJJJJJJB@=2CKJJJJLV3-X  +,kJJJJJJJJJJJKLl+-3ZJJ",
"DsDSJJJJJLVo =2klVJJJJVl2;+ X;kZJJJJJJJJJJLkX -2lk",
"ttuGSLJJJLV=X+22kCJJJJJJJl,-=-2lVJJJJJJJJJLl=@;223",
"teuuFKJJJJV2,1VJJJJJJJJJJZZVZl12lJJJJJKJJJJB1lZZZJ",
"8wt0sLPLJk,13BJJKJJJJJJJJJLJLZzlBl12KLLLJJVlBZLLJL",
"2gayvBVVB,+1VKJJJJJJJJJJJJJJJJJJC2-=lVVVJJllJJJJJJ",
"ZZSh:@+@@-<VJJJJJJJJJJJJJJJJJJJJKZ2;=+=1lKCJJJJJJJ",
"LPJB1@ .%5cKJJJJJJJJJJJJJJJJJJJJLJV2X+,kVJJJJJJJJJ",
"KKJJV2@%qepSPJJJJJJJJJJJKJJJJJJJJJLV=,JLJJJJJJJJJJ",
"3VJLJV8qe9hVJJJJJJJJJJJJJJJJJJJJJJJV1lJJJJJJJJJJJJ",
"gxMzCKsttxBJJJJJJJJJJJJJJJJJJJJJJJJC2lJJJJJJKJJJJJ",
"etuglSseuMJJJJJJJJJJJJJJJJJJJJJJJJJZ2lJJJJJJJJJJJJ",
"tteygjf7gmJJJJJJJJJJJJJJJJJJJJJJJKLC2lJJJJJJJJJJJJ",
"ttttid<14VJJJJJJJJKJJJJJJJJJJJJJJJZB2lKJJJJJJJJJJJ",
"tttterd3VJJJJJJJJJJJJJJJJJJJJJJJLJl22lJJJJJJJJJJJJ",
"ttttte&,JPJJJJJJJJJJJJJJJJJJJJJJJJk2lCJJJJJJJJJJJJ",
"tttutr#=VKJJJJJJJJJJJJJJJJJJJJJJJKl2JJJJJJJJJJJJJJ",
"tetttr$+1VJJJJJJJJJJJJJJJJJJJJJJJJk2KJJJJJJJJJJJJJ",
"ttttte*-1VJJJJJJJJJJJJJJJJJJJJJJCVlVJJJJJJJJJJJJJJ",
"tttteyg22BJKJJJJJJJJJJJJJJJJJJJJV,zJJJJJJJJJJJJJJJ",
"tuttifzZVlkJJJJJJJJJJJJJJJJJJJJLl=2LJJJJJJJJJJJJJJ",
"tttt92VLJ2;kJJJJJJJJJJJJJJJJJJJZ2X2LJJJJJJJJJJJJJJ",
"tttt92VJJ,+>kKJJJJJJJJJJJJJJJJZk-X2JJJJJJJJJJJJJJJ",
"ttttpVJC3,-+>kJJLLJJJJJJJJJJJV2-X 2LLJJJJJJJJJJJJJ",
"tte9bKPVkk2,>224kBZJLLJJJJJVJZ3-XX2LJJJJJJJJJJJJJJ",
"tteg4JJJJJJJl,=o=>kZJJJKKJB2CLJl;X2KJJJJJJJJJJJJJJ",
"utrd4JJJJPJJJlk221,;-,3k4k22VLKVj,lJJJJJJJJJJJJJJJ",
"etuhBJNNNNNKJLLLJB1-=-22321,3VJLV,kZJJJJJJJJJJJJJJ",
"teuNJKDuuusKJJJJJKVZVVCJKZ2XX1KJl=-lZJJJJJJJJJJJJJ",
"twgSSDuttttpNKJJJJLLLLJLLL2  +,<- X;3ZKJJJJJJJJJVl",
"e92VHuttttttFJJJJJJJJJJJJJ2   .    +,lJJJJJJJJJJl1"
};
