/* XPM */
static char *FieldsTile_26[] = {
/* columns rows colors chars-per-pixel */
"50 50 72 1 ",
"  c #B45744",
". c #B55945",
"X c #B85D47",
"o c #B36246",
"O c #BC6249",
"+ c #AE7F49",
"@ c #BC7B4D",
"# c #C1664B",
"$ c #C56A4D",
"% c #C96D4F",
"& c #CA6F50",
"* c #CC7351",
"= c #CC7D53",
"- c #D07653",
"; c #D47C55",
": c #DA7F58",
"> c #AD8249",
", c #AB8A4A",
"< c #B08A4C",
"1 c #BA884F",
"2 c #B2984F",
"3 c #BD8E51",
"4 c #B79650",
"5 c #BC9451",
"6 c #B39C50",
"7 c #BA9B52",
"8 c #A5A54D",
"9 c #ADA44F",
"0 c #A6AE4F",
"q c #A9AC4F",
"w c #A5B04F",
"e c #AEA550",
"r c #ACAD50",
"t c #B3A351",
"y c #BEA655",
"u c #B4AB53",
"i c #BAA954",
"p c #AFB052",
"a c #C58452",
"s c #CA8353",
"d c #C38B52",
"f c #CC8C55",
"g c #D58257",
"h c #D88057",
"j c #D38857",
"k c #DB8459",
"l c #D58C58",
"z c #DE895B",
"x c #C19653",
"c c #C89556",
"v c #C69A56",
"b c #C89B57",
"n c #D79059",
"m c #DC945C",
"M c #D49E5B",
"N c #DB9C5D",
"B c #E2865B",
"V c #E38D5D",
"C c #E88B5E",
"Z c #E6915F",
"A c #E8925F",
"S c #E2995F",
"D c #C3A557",
"F c #C7A358",
"G c #CCA259",
"H c #D2A05B",
"J c #EC8F60",
"K c #E79760",
"L c #EB9661",
"P c #E69860",
"I c #EC9862",
"U c #F09663",
/* pixels */
". X%d0wwwwwwFLLLLLLLLLLKLI;X$kLLLLLLLz-=$. #*# . .",
"+@-:c0wwwwwwFLLLLLLLLLLLLL;$;VLLLLLKLVkk;*#$-$##X ",
"0DLUMe0wwwprGLLLLLLLLLLLLLz;CLLLLLLLLLLLLAk---;;$X",
"wDLLzdewwwrHSLLLLLLLLLLLLIz;VLLLLLLLLLLLLLAz=kZC;%",
"wiHPAkvyDyFKLLLLLLLLLLLLLLVkZLLLLLLLLLLLLLLZzCILVk",
"wwuNLLKLKLKLLLLLLLLLLLLLLLKLLLLLLLLLLLLLLLLLLALLAL",
"wwwuGLLLLLLLLLLLLLLLLLLLZkBLKLLLLLLLLLLLLLLLLLLLLK",
"wwwwyLLLLLLLLLLLLLLLLLLLZ;zLLLLLLLLLKLLLLLLLLZZLIL",
"wwwwyKILLLLLLLLLLLLLLLKKC;kLLLLLLLLLLLLLLLLLAkgZLL",
"wwwwDKLLLLLLLLLLLLLLLIICg$;LLLLLLLKLLLLLLLLILk**;k",
"wwwwyKLLLLLLLLLLLLLLLLZ;$.*ZLLLLLLLLLLLLLLLAz;*#*;",
"wwwwDLLLLLLLLLLLLLLLLZ:$X.#;ZLLLLLLLLLLLLLLz#%;BCZ",
"w955a=VILLLLLLLLLBVLIAz;*XO;CIILLLLLLLLLLLIz$-VLII",
"e5;;%O;ZSSSZZALILhkALLLIV$#;zKLLLLLLLLLLLLLVgBLLLL",
"ajCZk%#@tpyj;:CILZZLLLLILzg*;zLLLLLLLLLLLLLAZLLLLL",
"kVIIZk@,0wej:zAKLLLLLLLLLICk-hLILLLLLLLLLLVVLLLLLL",
"LLLLLSiwwwiSLLLKLLLLLLLLLLKAhkZLLLLLLLLLLAhhLLLLLL",
"LLLLLPywwDNLLLLLLLLLLLLLLLLLZzkCILLLLLLLKLhhLKLLLL",
"LLLLLLv6yNULLLLLLLLLLLLLLLKLIz&gZLIILLLLAV*-BLILLI",
"LLLLLLgjAKLLLLLLLLLLLLLLLLLLI;O$hZLLLLLLB-OO=BLLLL",
"yMLLZkzCLLLLLLLLLLLLLLLLLLLLI:.X#%$*gkkh*O..O$*hhk",
"wiNNl-VLLLLLLLLLLLLLLKLLLLLLIhX .XO$;;;:=#####$;;h",
"wprr7;VILLLLLLLLLLLLLLLLLLLLLgX O*kAAAAAZCZZZCZAAA",
"ww06@#zIKLLLLLLLLLLLLLLLLLLL;$$*;BAILLIILLIIIIKILL",
"w0tf&#kLLLLLLLLLLLLLLLLLLLLB$OgZILLLLLLLLLLLLLLLLL",
"wySAz*BLLLLLLLLLLLLLLLLLLIB;*;ZLLKLLLLLLLLLLLLLLLL",
"wFLIZzzBALLLKLLLLLLLLLLLLV=$;CLLLLLLLLLKLLLLLLLLLL",
"wDLLLLhkLLLLLLLLLLLLLLALC;$#zKLLLLLLLLLLKLLLLLLLLL",
"wDLLLLZCLLLLLLLLLLLLIZh;;-;BLKLLLLLLLLLLLLLLLLLLLL",
"wFLLLLKAVCLLLLLLLVVLLZk;;gVILLLLLLLLLLLLLLLLLLLLLL",
"wDSLLLIC;zLLLLLLAkhLILAk;CLLLLLLLLLLLLLLLLLLLLLLLL",
"wuDSLLKZ;;zLLLLILVVLIIKk;ZILLLLLLLLKLLLLLLLLLLLLLL",
"ww0GSLIC;%*BmMNNVAKLLILzkZLLLLLLLLLLLLLLLLLLLLLLLL",
"wwwpDALV=OO*xrp5gVILLLLLALLLLLLLLLLLLLLLLLLLLLLLLL",
"0wwwrDs%#..O,ww2-CULLLBVLLLLLLILLLLLLLLLLLLLLLLLLL",
"wwwww0>o.O##1uu7gBZNNn*kLLLLLLLLLLLLLLLLLLLLLLLLLL",
"wwwpw00,o-ZCSSSACkdup6o;ILLLLLLLLLLLLLLLLLLLLLLLLL",
"wwwwwww9=VKILLLILVc0w8,jLLLLLLLLLLLLLLLLLLLLLLLLLL",
"0wwww0wiALLLLLLLLLNupw0GLLLLLLLLLLLLKLLLLLLLKLLLLL",
"www0wwwiPLLLLLLLLKPMuwwGLLLLLLLLLLLLLLLLLLLLLLLLLL",
"ww0ww02cLLLLLLLLLLLLHD7cVLLLLLLLLLLLLSGGHHGNLULLLL",
"wwwww03jSKLLLLLLLLLLKV;-;ALLLLLLLLLLPD0wwwwySSKLLL",
"0wwwwp9tyMLLLLLULLLLLLC;;CLLLLLLLLLSDrwwwwwriuDPLL",
"wpwwwwwwwDNKLKNHNHMMPLIVjMSLLLLLLLLNrwwwwwwwwwiSUL",
"wwwwwwwwwwuSUSi0p00rHLLLmuDKLLLLLLUNuwwwp0wwwwuSLL",
"w0wwpw0wwwtjCSuwwwwwuGPUSurFjVLLLLLNrwwwwwwwwwuSIK",
"0w0ww0ww0w93lzy8wwwwwuSCnuw05jNPLLUSDuu0wwww0rDPCC",
"pwwwwwwwwwp8x;=5rw0wwuSBf9ww80uNLLLLSSNuwwwwrGKLz;",
"wwwww0wwwwww95==5bGGGMlf20wwwwwiFDNLLULMGGGGHSAzd5",
"ww0wwwww0pwww8s-;CLLIC;400wwwwwww0GLLLLLLLLLLLC;6w"
};
