/* XPM */
static char *FieldsTile_13[] = {
/* columns rows colors chars-per-pixel */
"50 50 66 1 ",
"  c #B35744",
". c #B55945",
"X c #B85D47",
"o c #BD5D48",
"O c #B36246",
"+ c #BD6249",
"@ c #AE7C49",
"# c #BC7B4D",
"$ c #C1664B",
"% c #C46A4D",
"& c #C96E4F",
"* c #CA6F50",
"= c #CD7351",
"- c #C47A50",
"; c #CD7E53",
": c #D07753",
"> c #D47C55",
", c #DA7F58",
"< c #AD8249",
"1 c #AA8B4A",
"2 c #B08A4C",
"3 c #BA884F",
"4 c #B3984F",
"5 c #BE8B50",
"6 c #BB9551",
"7 c #B39A50",
"8 c #BA9851",
"9 c #ADA44F",
"0 c #A5AD4E",
"q c #AAAC4F",
"w c #A5B04F",
"e c #AEA450",
"r c #ACAD51",
"t c #B3A351",
"y c #BEA655",
"u c #B3AC53",
"i c #BAA954",
"p c #C48551",
"a c #CA8153",
"s c #C28A52",
"d c #CD8955",
"f c #D58257",
"g c #D88057",
"h c #D38957",
"j c #DB8459",
"k c #D58E58",
"l c #DF895B",
"z c #C19653",
"x c #C89656",
"c c #C69A56",
"v c #C89B57",
"b c #DD975D",
"n c #D59E5B",
"m c #DB9C5D",
"M c #E38D5D",
"N c #E88C5E",
"B c #E6915F",
"V c #E8925F",
"C c #E2995F",
"Z c #C2A556",
"A c #C7A358",
"S c #CBA259",
"D c #E79760",
"F c #EB9661",
"G c #E69860",
"H c #EC9862",
/* pixels */
". X*sqwwwwwwAFFFFFFFFFFFFF>X%jVFFFFFFl=:%. +=$   .",
"@#:,xqwwwwwwAFFFFFFFFFFFHF>%>NFFHHFFFMlj>=$&=&$$X ",
"wZFHnr0www0rSFFFFFFFFFFFFFl>NFFFVDFFFFFFFVj:;:>:%X",
"wZFHls9wwwunCFFFFFFFFFFFFFl>BDFFFFFFFFFFHFBl:lBN>&",
"winFNjcyyySCFFFFFFFFFFFFFFMjBFFFFFFFFFFFFFHBlMHHMj",
"wwrnFFDFFFFFFFFFFFFFFFFFFFFFFFFFFFFFFFFFFFFFFVFFFF",
"0wwuSFFFHHFFFFFFFFFFFFFFBjlFFFFFFFFFFFFFFFFFFFFDFF",
"wwwwZFFFFFFFFFFFFFFFFFFFB>jFFFFFFFFFFFFFFFFFFBNFFF",
"wwrwyGFFFFFFFFFFFFFFFFHDB>jFFFFFFFFFFFFFFFFFFggBFF",
"wwwwZDFFFFFFFFFFFFFFFHFN>%>FFFFFFFFFFFFFFFFHFj==>j",
"wwwwZDFFFFFFFFFFFFFFFFB>%X=BFFFFFFFFFFFFFFFBM>*$=>",
"wwwwyFFFFFFFFFFFFFFFFB,%X.$>BFFFFFFFFFFFFFFl+&>MNB",
"w966p;MFFHFFFFFFFlMFFBl>=.+>NDFFFFFFFFFFFFHl%:MFHD",
"r6>>&+>BCCCBNFFFBjjVFFFHM%%>lFFFFFFFFFFFFFFM>MFFFF",
"ahMNj=$#tuid>,BFFBBFFFFFFMf=>lFFFFFFFFFFHDFVBFFFFF",
"jMFFNj#1qw9hjjVFFFFFFFFFFFNj:gFHFFFFFFFFFVMNFFFFFF",
"FFFFFDiww0iCFFFFFFFFFFFFFFFBfgCFFFFFFFFFFVggVHFFFF",
"FFFFFCiwwZmFFFFFFFFFFFFFFFFFNljNFFFFFFFFFFggFFFFFF",
"FFFFFFc7ymFFFFFFFFFFFFFFFFFFHl*gBFHFFFFFVM=:MVFFFF",
"CFFFFFhfCDFFFFFFFFFFFFFFFFFFF>+%gBFVFFFFM:++=MFFFF",
"ZnFFNjlNFFFFFFFFFFFFFFFFFFFFH,XX$&&=>jjg=+..+$*fgg",
"0ymmk>MFFFFFFFFFFFFFFFFFFFFFHg. .X+%>g>,=$%$$$&>>g",
"wwrr6:MHFFFFFFFFFFFFFFFFFFFFH>X +=lBVVVVBBNBBNBVVV",
"ww07#$MFFFFFFFFFFFFFFFFFFFHF>&%=>lBHFHFDFHDHHHDHHH",
"wrud&+jFFFFFFFFFFFFFFFFFFFDM%$>BHFFFFFFFFFFFFFFFFF",
"wZCBj:MFFFFFFFFFFFFFFFFFFDl>=>NFDFFFFFFFFFFFFFFFFF",
"wAHHNljMFFFFFFFFFFFFFFFFFM=&>NFDFFFFFFFFFFFFFFFFFF",
"wZFFFVj,VFFFFFFFFFFFFFVFN>&+lHFFFFFFFFFFFFFFFFFFFF",
"wZFFFFBBFFFFFFFFFFFFFVg>>:>MCFFFFFFFFFFFFFFFFFFFFF",
"wSFFFFHVMNFFFFFFFMNFDBj>:,MHFFFFFFFFFFFFFFFFFFFFFF",
"wZGFFFFM>MFFFFFHFggFFFFj>NFFFFFFFFFFFFFFFFFFFFFFFF",
"wrZCFFHM:>lFFFFFFMMFFFFj>BFFFFFFFFFFFFFFFFFFFFFFFF",
"qwwSCFFN:*=lmmnbNVFFFFFljBDFFFFFFFFFFFFFFFFFFFFFFF",
"wwwwACFM>++=zrw6>MFFFFFFVFFFFFFFFFFFFFFFFFFFFFFFFF",
"wrwwrZ;&+X +1ww4;MHFHBlMHFFFFFFFFFFFFFFFFFFFFFFFFF",
"wwwww0<OX++$3uucfMNMNl=jFHFFFFFFFFFFFFFFFFFFFFFFFF",
"wwwrww01X:MNCCCCNg=+==+>FFFFFFFFFFFFFFFFFFFFFFFFFF",
"wwwwwwwt;MHHFFFHFM>$++.:HFFFFFFFFFFFFFFFFFFFFDFFFF",
"qwwwwwwiCFFFFFFFFFB>%..>FFFFFFFFFFFFFFFFFFFFFFFFFF",
"wwwwwrwuFFFFFFFFFFCN>%X>HFFFFFFFFFFFFFFFFFFFFFFFFF",
"wwwqwwinFFFFFFFFFFFFN>%=MFFFFFFFFFFFFFFFFFFFFFFFFF",
"wwwwwqnFFFFFFFFFFFFFFM>:>VHFFFFFFFFFFFFFFFFFFFFFFF",
"wwwwwwnFFFFFFFFFFFFFDFNf>NFFFFFFFFFFFFFFFFFFFFFFFF",
"wwwwryCFFFFFFFFFFFFFFHFljlVHDFFFFFFFFFFFFFFFFFFFFF",
"rwwwyCFFFFFFFFFFFFFFFFFFB>jVFFFFFVDDFFFFFFFFFFFFFF",
"wwwwyFHFFFFFFFFFFFFFFFFFB>*=MHFFFFFHFFFFFFFFFFFFFF",
"www9vFCmmmmFFFFFFFFFFFFFVj&X>MBFHFFFFFFFFFFFFFFFFF",
"wwqsjCZrrryCFFFFFFFFFFFFFV;.X$>MFFFFFFFFFFFFFFFFFV",
"wt5%-ZrwwwwymFFFFFFFFFFFFH>. .+*:lNFFFFVFFFFFFFFMl",
"w8=o@0w0wwwwAFFFFFFFFFFFFF>.... +=MFFFFDFFFFFFFFl="
};
