/* XPM */
static char *FieldsTile_35[] = {
/* columns rows colors chars-per-pixel */
"50 50 70 1 ",
"  c #B35744",
". c #B55945",
"X c #B95D47",
"o c #BB5F48",
"O c #BD6249",
"+ c #AE7447",
"@ c #AF7548",
"# c #B07147",
"$ c #B07548",
"% c #B77A4B",
"& c #C1664B",
"* c #C56B4D",
"= c #C86E4F",
"- c #C9704F",
"; c #CD7451",
": c #CC7B52",
"> c #D07753",
", c #D47B55",
"< c #D97F57",
"1 c #AD8C4B",
"2 c #B9854E",
"3 c #BA894F",
"4 c #A7994C",
"5 c #B2914E",
"6 c #BE8D51",
"7 c #B79650",
"8 c #BC9251",
"9 c #B59C50",
"0 c #B99851",
"q c #A5A44D",
"w c #ACA64F",
"e c #A7AC4F",
"r c #A9AB4F",
"t c #A6B04F",
"y c #AEA550",
"u c #ACAE51",
"i c #BCA554",
"p c #B4AB53",
"a c #ACB051",
"s c #C68552",
"d c #CC8454",
"f c #C48B52",
"g c #CD8955",
"h c #D58357",
"j c #D88057",
"k c #D18C57",
"l c #DB8459",
"z c #D58A58",
"x c #DE885B",
"c c #C59354",
"v c #CC9757",
"b c #C39A55",
"n c #CE9958",
"m c #D29759",
"M c #D59D5B",
"N c #DB9B5D",
"B c #E0855B",
"V c #E38D5D",
"C c #E98F5F",
"Z c #E6915F",
"A c #E8925F",
"S c #E29A5F",
"D c #C2A156",
"F c #C7A458",
"G c #CBA259",
"H c #D5A05B",
"J c #E79660",
"K c #EB9661",
"L c #E79960",
"P c #ED9862",
/* pixels */
"ttrsjKKKKj>>8tttttttettattttt9:9ttttttrttttttttttt",
"ty7:,xMGGbf;s9rttttettttttw0Dnzf9rttttttttttttrttt",
"t0,,,:9tttws>d9etttttttttr8jVKKlfwtttttttttttttttt",
"tDZVl:9tttewnVd9etttttttr6hVKKKCMrtttttttttrtetttt",
"9mKKCh64etttGCBmiattttty8jBKKKKPHuttttttttttttttw9",
":jKKKA=#yuaaGKKKSiereer8<CPKKKKPNuttttettttttttec,",
"O=lAPK>:mMMMNKJVjd2$@@$:VKPKKKKPNttttttttrttrtrchB",
"#%fxVVllKPPKKKKBj<>*OX.,KKKKKKKPN9rttttttttttpbhVP",
"weys,,VKKKKKKKKKAKKVj=O>KPKKKKKPVh9ettetttttrHSAAK",
"ttrs,BKKKKKKKKKKKPKPAj=jKKKKKKKKABg7ettttttpGSPKZj",
"pur6zKKKKKKKKKKKKKKKKV>xKKKKKKKKKKlhippppppFKKAAl<",
"SFtrDJKKKKKKKKKKKKKPJV<xKKKKKKKKKKACSSNSSNSSKKAjhA",
"KSGFHKKKKKKKKKKKKKKKPV,BKKKKKKKKKKKPPPPPKKPPKJABAP",
"KKKKKKKKKKKKKKKKKKKKKV,BKKKKKKKKKKKKCPCKKKKKKKKKKK",
"KKKKKKKKKKKKKKKKKKKKKV<BKKKKKKKKKKKKPPKKKKKKKKKKKK",
"KKKKKKKKKKKKKKKKKKKKKNfbHJPKKKKKKKKKKKKKKKKKKKKKKK",
"KKKKKKKKKKKKKKKKKKKKPNptpNKKKKKKKKKKKKKKKKKKKKKKKK",
"KKKKKKKKKKKKKKKKKKKKPMatygVJKKKKKKKKKKKKKKKKKJPKKK",
"KKKKKKKKKKKKKKKKKKKKAk5qr8kVKKKKKKKKKKKKKKKKAAAKPP",
"KKKKKKKKKKKKKKKKKKKKh=O1eu8>VKKKKKKKKKKKKKKKAj<AAK",
"PKPPKKKKKKKKKKJKKKAj=o*5tt1&,VKKPPPKKKAKPPPAh=O=>j",
"VVlVAKKKKPKKKKAVVKV<==<cpp3O*>lVVVVAKPKAVllj>=&&;j",
">;&;lKKKKKKKKAj><VKKVAAJLSh;oX&-<,>jAPAj-OO&>BAVAA",
"x>&O*;;>lllhVKVlxAKJJPKKKPCl&o>lh>;;;;;;;>:<lAPPPP",
"PV>&X.O*><<,xJKKKKKKKKKKKKPV=;APV<>;OX&>BKPPKKKKKK",
"KKV>OO:VVAAVKPKKJKKKKKKKKKKA><KJKAj>-<VAAKKJKKKKKK",
"KKKV;XjPPPPJKKKKKKKKKKKKKKPA<jKPPKl>lAKPPJKKKKKKKK",
"KKKK<&jPKKKKKKKKKKKKKKKKKKKKjjAKPKh<AKAJKPKKKKKKKK",
"KKKPl;BPKKKKKKKKKKKKKKKKKKKKAljAKKAAKJKKKKKKKKKKKK",
"KKKKV>hAKKKKKKKKKKKKKKKKKKKKJV,jAKKKKKKKKKKKKKKKKK",
"KKKPV>>jAKKKKPKKKKKKKKKKKKKKKV>;jAPKKKKKKKKKKKKKKK",
"KKKKAx=;APKKKKKKKKKKKKKKKKKKPj&=jAKKKKKKKKKKKKKKKK",
"KKKKPA=&AJKKKKKKKKKKKKKKKKKPP<X-xKJPKKKKKKKKKKKKKK",
"KKKKPA*&APKKKKKKKKKKKKKKKKKKP<O,KAKKKKKKKKKKKKKKKK",
"KKKKPA>;APKKKKKKKKKKKKKKKKKKPl-xPKKKKKKKKKKKKKKKKK",
"KKKKPKjjKKKKKKKKKKKKKKKKKKKKJx<VPKKKKKKKKKKKKKKKKK",
"KKKKJKjjAKKKKKKKKKKKKKKKKKKKKB,BPKKKKKKKKKKKKKKKKK",
"KKKKPA;;APKKKKKKKKKKKKKKKKKKPx=hPKKKKKKKKKKKKKKKKK",
"KKKKPA*OVPKKPKKKKKKKKKKKKKKKA>OjPKKKKAJKKKKKJKKKKK",
"KKKKPA=O<VPPKJKKKPJKKKPPKKJKx=OjPKKKKKPKKKKKKKKKKK",
"KKKKPA=X&;<lBxxxxxVKJPPJPKKl;OohPKKKKKKKKKKKKKKKKK",
"KKKKPV*.XXO:<,>,<>jAKAAAAAl;X.OhPKKKKKKKKKKKKKKKKK",
"KKJPA<OX*=-xVVVVVVBj<<<j<=OX.X-BPKKKKKKKKKKKKKKKKK",
"KPAAj;&*<jxAPPJPPPAhjjj>-O&*=;jxAAPKJKKKPKKKKKKKKK",
"KPAj:>><AKKKPKKKKKKAAKAl>;hKAKAljAPKKKKKKKKKKKKKKK",
"PVj><BVVKJKKKKKKKKKKPKPAx>BPPPKVVKJKKKKKKKKKKKKKKK",
"V<;>xKPKKKKKKKKKKKKKKKKPKhjBAPPJAAAPKKKKKKKKKKKKKK",
"<=&hKKKKKKKKKKKKKKKKKKKKPA,&lPKKVjBKKKKKKKKKKKKKKK",
"O&-VPKKKKKKKKKKKKKKKKKKKPP>X=;;;;>BPJKKKKKKKKKKKVh",
".O>AJKKKKKKKKKKKKKKKKKKKKP>X    O;VJPKKKKKKKKKPKl>"
};
