/* XPM */
static char *FieldsTile_11[] = {
/* columns rows colors chars-per-pixel */
"50 50 140 2 ",
"   c #B25644",
".  c #B35644",
"X  c #B35744",
"o  c #B45744",
"O  c #B45844",
"+  c #B45845",
"@  c #B55945",
"#  c #B65A45",
"$  c #B65A46",
"%  c #B75B46",
"&  c #B75C46",
"*  c #B85C46",
"=  c #B85D47",
"-  c #B95D47",
";  c #B95E47",
":  c #BA5E47",
">  c #BB6048",
",  c #BC6048",
"<  c #BC6149",
"1  c #BD6149",
"2  c #BD6249",
"3  c #BE6349",
"4  c #BE634A",
"5  c #BF644A",
"6  c #BF654A",
"7  c #C0654A",
"8  c #C0654B",
"9  c #C0664B",
"0  c #C1664B",
"q  c #C1674B",
"w  c #C2674C",
"e  c #C2684C",
"r  c #C3684C",
"t  c #C3694C",
"y  c #C3694D",
"u  c #C4694D",
"i  c #C46A4D",
"p  c #C56A4D",
"a  c #C56B4D",
"s  c #C66C4E",
"d  c #C66D4E",
"f  c #C76D4E",
"g  c #C76D4F",
"h  c #C76E4E",
"j  c #C76E4F",
"k  c #C86E4F",
"l  c #C86F4F",
"z  c #C96F4F",
"x  c #C9704F",
"c  c #CA7050",
"v  c #CA7150",
"b  c #CB7150",
"n  c #CB7250",
"m  c #CB7251",
"M  c #CC7251",
"N  c #CC7351",
"B  c #CD7351",
"V  c #CD7451",
"C  c #CD7452",
"Z  c #CE7452",
"A  c #CE7552",
"S  c #CF7652",
"D  c #CF7653",
"F  c #D07753",
"G  c #D07853",
"H  c #D17853",
"J  c #D17854",
"K  c #D17954",
"L  c #D27954",
"P  c #D27A54",
"I  c #D37A54",
"U  c #D37B54",
"Y  c #D37B55",
"T  c #D47B55",
"R  c #D47C55",
"E  c #D57C55",
"W  c #D57D55",
"Q  c #D57D56",
"!  c #D67D56",
"~  c #D67E56",
"^  c #D77E56",
"/  c #D67F56",
"(  c #D77F56",
")  c #D77F57",
"_  c #D78057",
"`  c #D88057",
"'  c #D88157",
"]  c #D98157",
"[  c #D98158",
"{  c #D98258",
"}  c #DA8258",
"|  c #DA8358",
" . c #DB8358",
".. c #DB8359",
"X. c #DB8459",
"o. c #DC8459",
"O. c #DC8559",
"+. c #DD865A",
"@. c #DE875A",
"#. c #DE885A",
"$. c #DF885B",
"%. c #DF895B",
"&. c #E0895B",
"*. c #E08A5B",
"=. c #E08A5C",
"-. c #E18A5C",
";. c #E18B5C",
":. c #E28B5C",
">. c #E28C5C",
",. c #E28C5D",
"<. c #E38C5D",
"1. c #E38D5D",
"2. c #E48E5D",
"3. c #E48E5E",
"4. c #E48F5E",
"5. c #E58F5E",
"6. c #E5905E",
"7. c #E6905E",
"8. c #E6905F",
"9. c #E6915F",
"0. c #E7915F",
"q. c #E7925F",
"w. c #E8925F",
"e. c #E8935F",
"r. c #E89360",
"t. c #E99360",
"y. c #E99460",
"u. c #EA9460",
"i. c #EA9560",
"p. c #EA9561",
"a. c #EB9561",
"s. c #EB9661",
"d. c #EB9761",
"f. c #EC9761",
"g. c #EC9762",
"h. c #EC9862",
"j. c #ED9862",
"k. c #ED9962",
"l. c #EE9962",
"z. c #EE9963",
/* pixels */
"O V a.g.a.a.g.a.a.a.g.a.g.a.a.a.a.a.g.a.a.g.a.a.g.a.H - d X.a.a.a.g.a.a.a.#.S S d X X 6 V 9 O O O O ",
"9 Y a.g.a.a.a.a.g.a.a.a.g.a.g.a.g.a.g.a.a.a.a.g.a.g._ p E 1.a.a.a.g.a.g.a.1.X.X._ B e d V d 9 9 > O ",
"V o.a.g.a.a.g.a.a.a.g.a.a.a.a.a.g.a.a.a.a.g.a.g.g.a.#.U 1.g.a.a.a.a.a.g.a.a.a.a.a.e.] H H H U H p & ",
"Y o.a.a.g.a.g.a.g.a.a.a.a.g.a.g.a.a.g.a.a.g.a.a.a.g.o.E 1.j.g.a.a.g.a.a.g.a.g.g.g.g.e.o.H X.0.6.E x ",
"H o.a.g.a.a.a.a.a.g.a.g.g.a.j.a.a.a.a.g.a.a.a.a.a.a.1.X.0.j.a.a.g.a.a.a.a.g.g.a.a.g.g.0.X.0.g.g.1.X.",
"V X.a.a.a.g.a.g.a.g.a.a.a.a.a.a.a.g.a.g.a.g.g.a.a.a.a.a.a.a.g.a.a.a.a.g.a.a.a.a.a.a.a.a.a.e.a.a.a.a.",
"4 Y a.g.a.g.a.g.a.a.a.g.a.a.g.a.a.a.g.a.a.a.a.a.0.o.1.a.j.a.a.a.a.g.a.a.a.g.g.a.a.a.g.g.g.a.g.a.a.a.",
"X l 2.a.g.a.a.a.g.a.a.a.a.g.a.a.g.a.a.a.a.g.g.j.0.E X.a.a.a.a.g.a.a.g.g.a.a.a.a.g.a.a.a.a.0.0.a.g.g.",
"O 9 E 2.j.a.a.a.a.a.a.g.a.a.a.a.g.a.g.a.a.a.a.a.0.Y X.a.g.a.a.a.a.g.a.a.a.g.a.g.a.a.a.g.a.X._ 0.a.a.",
"p 9 p ;.j.a.a.g.a.g.a.a.j.a.a.j.a.a.a.a.a.g.g.0.E p U a.g.a.a.g.a.a.a.g.a.a.a.g.g.g.a.j.a.X.V x Y } ",
"E l 6 } a.a.a.a.a.g.a.j.a.a.g.a.a.g.g.a.g.a.0.E d & c 0.a.a.a.a.a.g.a.g.a.a.g.a.a.a.a.0.#._ c e c E ",
"t.X.V H o.a.j.j.a.a.a.a.g.a.a.a.a.a.a.a.a.0.E d & O t E 0.j.a.g.a.g.a.a.g.a.a.a.a.g.g.X.e d E ;.0.0.",
"j.0.o.Y B F 2.j.j.j.j.j.a.j.a.a.a.*.*.a.g.0.#.E x & 4 Y 0.a.a.a.g.a.a.a.a.g.a.g.a.a.g.X.p H 1.a.j.j.",
"a.g.t.} c 9 E 2.1.1.1.0.0.0.a.j.a.] X.a.g.a.a.j.1.p e Y *.a.a.a.a.a.g.a.a.a.a.a.a.g.g.1.E 1.g.a.a.a.",
"a.a.a.0.1.o.c 9 9 6 p Y E } 0.j.a.0.0.a.a.g.a.j.a.1.E H Y #.a.j.g.a.a.a.g.a.g.a.a.g.g.e.0.e.g.a.g.a.",
"a.g.g.g.j.a.d O 4 4 t E X.o.0.a.a.g.a.a.a.g.a.a.a.a.0.} H ] a.g.a.a.g.g.a.a.a.a.g.e.1.6.a.g.a.a.a.a.",
"a.a.a.a.j.0.d 4 V V _ 0.a.a.g.a.a.a.a.g.a.g.a.g.a.a.g.0._ } 0.a.a.a.g.a.g.a.a.a.g.e._ ] e.g.g.g.g.a.",
"j.a.g.a.j.e.Y l H X.0.a.g.g.a.a.a.g.a.a.a.g.a.a.a.g.a.a.0.#.X.0.g.g.a.a.g.a.g.a.g.e._ ] a.g.a.a.a.a.",
"a.a.a.j.a.a.} Y ] 2.j.g.a.a.g.a.a.a.g.a.a.a.a.g.a.a.a.g.j.o.x _ 0.a.j.g.g.g.g.g.e.;.V S 1.e.g.g.g.g.",
"a.a.a.a.a.e.] _ 0.a.a.a.g.a.a.a.g.g.a.a.a.g.a.a.g.a.g.a.j._ > d _ 0.a.e.e.a.e.a.#.V 6 6 S ;.e.e.a.e.",
"j.j.j.j.0.X.o.2.a.j.a.a.a.a.g.g.a.a.a.a.g.a.g.a.g.a.a.a.j._ & - e d k x _ ] ] ] V 6 X O 4 e B _ ] X.",
"2.;.#.o.E Y 1.j.j.a.a.a.a.g.a.a.g.a.g.a.g.a.a.a.a.a.g.g.j._ &   O - 6 d Y _ _ _ V e e e e e d U _ E ",
"E x 4 > t H 1.g.a.a.g.a.a.a.a.g.a.a.a.a.a.g.a.a.a.a.g.a.g._ & X > B X.0.0.0.0.e.0.0.1.6.1.6.0.0.e.0.",
"#.] V p 6 t o.j.g.g.a.a.g.a.a.a.a.g.g.a.a.a.a.g.a.g.j.e.E d t B _ #.0.j.g.g.g.g.j.j.j.j.j.j.g.g.g.g.",
"a.j.a.X.d 6 X.j.a.a.a.a.g.a.g.a.a.a.a.a.a.g.a.a.a.g.a.;.t e E 0.g.a.a.a.a.g.a.g.a.a.a.g.a.a.a.a.a.a.",
"g.a.a.e.X.V #.g.a.a.g.a.a.a.a.a.g.g.a.g.a.a.a.a.a.g.1.U B U 0.a.g.g.a.g.a.a.a.a.a.g.a.a.g.a.g.g.a.g.",
"a.a.a.j.0.o.o.1.a.a.a.g.g.g.a.g.a.a.a.a.a.g.g.j.a.1.S t E 1.a.a.a.a.g.a.a.a.g.g.g.a.g.a.a.a.a.a.a.a.",
"a.g.a.g.g.a.X.} a.j.a.a.a.a.a.a.a.g.g.a.a.a.0.a.1.U p e #.j.a.a.g.a.a.a.g.a.a.a.g.a.a.a.a.g.g.a.g.a.",
"a.a.a.g.a.a.0.0.a.a.a.a.a.g.g.a.a.g.a.a.g.0._ E E H E #.e.g.a.a.a.g.a.g.g.a.a.a.a.a.a.a.g.a.a.a.a.g.",
"g.g.a.a.a.g.j.0.1.0.j.a.a.a.a.a.a.1.1.a.g.0.X.Y H _ 1.j.j.a.a.g.a.g.a.a.a.a.g.a.a.g.a.g.a.a.g.a.a.a.",
"a.a.a.a.g.a.g.1.U #.a.a.a.g.a.g.a.} X.a.g.a.a.X.E 0.a.a.a.g.a.a.a.a.a.g.a.a.a.g.a.g.a.g.g.a.a.a.g.a.",
"g.a.g.a.a.a.a.1.Y E o.a.j.g.g.a.a.2.1.a.a.a.a.X.U 0.g.g.a.a.a.g.a.g.a.a.a.g.a.g.a.a.a.a.a.a.g.g.a.a.",
"a.a.a.g.g.a.j.1.Y x V #.0.1.1.1.2.a.a.a.a.g.a.*.X.0.a.a.a.a.a.a.g.g.a.a.g.a.a.a.g.a.g.a.a.a.a.g.a.g.",
"a.g.a.a.a.a.g.1.H 6 4 V Y H H Y U 0.j.a.a.a.a.a.a.a.a.a.g.a.g.a.a.a.g.a.a.a.g.a.a.a.a.a.g.a.a.a.a.a.",
"a.a.a.g.a.g.g.0.Y 6 X > 4 9 c V H 1.j.j.j.e.#.2.g.g.g.a.g.a.g.a.g.a.a.a.g.a.a.a.g.g.a.g.a.a.g.a.a.g.",
"a.g.a.a.a.a.0.#.c p 9 9 6 t Y E E 1.1.#.2.#.V X.a.a.g.a.a.a.a.a.a.a.a.g.a.a.g.a.a.a.a.a.g.a.g.a.a.g.",
"g.a.a.a.g.a.o.c 4 H 2.1.1.1.0.0.0.] c 6 c V 4 U g.a.g.a.a.g.a.g.a.g.g.a.a.a.a.g.g.a.a.a.a.a.a.a.a.a.",
"g.a.g.a.g.e._ V V ;.j.j.j.j.g.j.a.1.Y e 9 6 O H a.g.a.a.a.a.a.g.a.a.a.a.a.g.a.g.a.a.g.a.a.g.a.g.g.a.",
"a.a.a.a.g.a.X.} a.j.a.g.a.a.a.a.g.g.1.E t & O Y j.g.a.g.a.a.g.a.g.a.g.g.a.a.a.a.a.g.a.g.a.a.a.g.a.a.",
"a.g.a.g.a.a.0.0.a.a.a.g.a.g.a.a.a.a.a.2.E e & Y g.a.a.a.g.a.a.a.a.a.a.a.g.a.g.a.a.a.a.g.a.g.a.a.g.a.",
"a.g.a.g.0.*.0.j.a.g.a.a.a.a.a.g.a.g.g.a.1.E p H ;.a.g.a.a.g.a.g.g.a.g.a.a.g.a.g.a.g.g.a.a.a.a.g.g.a.",
"a.a.a.a.1.E 1.g.a.a.j.a.g.a.a.a.a.g.a.a.g.2.E V E 0.j.a.a.a.a.a.a.a.a.a.a.a.a.a.a.a.a.a.a.g.a.a.a.a.",
"g.a.a.j.0.1.0.g.a.a.a.a.a.a.g.a.a.a.a.g.g.a.2.E U 0.j.a.g.a.g.a.a.g.a.g.g.a.g.a.g.a.g.g.a.a.g.a.a.g.",
"a.g.a.2.0.a.g.g.j.a.g.a.a.j.a.a.a.g.a.a.a.a.g.1.} *.0.g.j.a.a.a.a.a.a.g.a.a.a.a.a.a.a.a.g.g.a.a.a.a.",
"a.a.0._ X.a.a.a.a.a.a.g.g.a.g.a.g.a.a.a.a.g.a.a.0.E X.e.a.a.g.a.a.a.g.a.a.g.a.g.g.a.a.a.a.g.a.a.a.g.",
"j.0.] H ] a.a.a.g.g.a.a.a.a.g.a.a.a.a.g.a.a.a.j.0.Y c V 2.j.j.a.g.a.g.a.a.g.a.a.a.a.g.g.a.a.a.g.a.a.",
"0._ c Y #.a.j.a.a.a.a.a.g.a.a.a.a.g.a.a.a.g.g.g.0.} p - Y *.2.a.g.g.a.a.a.a.a.g.a.a.a.a.a.g.a.g.g.g.",
"Y p 6 X.a.a.a.a.g.a.g.a.a.a.a.g.a.g.a.g.a.a.a.a.a.a.Y O - p U 1.a.a.a.g.g.a.a.a.a.g.a.g.a.a.a.a.a.g.",
"6 6 l 1.j.a.a.g.a.a.a.a.a.g.a.a.j.a.a.a.j.a.a.j.j.j.Y O X - 9 x H X.0.a.a.a.a.a.a.a.g.a.g.a.g.a.1.X.",
"O 6 Y 2.a.a.a.a.j.a.g.a.a.a.a.g.a.a.a.g.a.a.a.a.a.j.Y O O O O X > V ;.g.a.g.a.g.g.a.a.a.g.a.a.a.o.V "
};
