/* XPM */
static char *FieldsTile_55[] = {
/* columns rows colors chars-per-pixel */
"50 50 78 1 ",
"  c #B35744",
". c #B55945",
"X c #B95D47",
"o c #BB5F48",
"O c #BD6249",
"+ c #AE7447",
"@ c #AF7548",
"# c #AD7A48",
"$ c #B07147",
"% c #B17448",
"& c #B77A4B",
"* c #C1664B",
"= c #C56B4D",
"- c #C96E4F",
"; c #C7734F",
": c #C9704F",
"> c #CD7451",
", c #C57A50",
"< c #CC7A52",
"1 c #D17653",
"2 c #D47B55",
"3 c #D87F57",
"4 c #AF864B",
"5 c #AD8C4B",
"6 c #B9854E",
"7 c #BA894F",
"8 c #AD914C",
"9 c #A7994C",
"0 c #A99D4D",
"q c #B2914E",
"w c #BE8D51",
"e c #B79650",
"r c #BB9451",
"t c #B59C50",
"y c #B99951",
"u c #A5A44D",
"i c #ABA64F",
"p c #A7AD4F",
"a c #A9AB4F",
"s c #A5B14F",
"d c #AEA550",
"f c #ACAE50",
"g c #BCA554",
"h c #B4AB53",
"j c #BBA854",
"k c #AAB051",
"l c #C58552",
"z c #CC8454",
"x c #C38C52",
"c c #CD8A55",
"v c #D48356",
"b c #D88157",
"n c #D18C57",
"m c #DB8459",
"M c #D58A58",
"N c #DE885B",
"B c #C59354",
"V c #CC9757",
"C c #C39A55",
"Z c #CE9958",
"A c #D29759",
"S c #DB965C",
"D c #D49E5B",
"F c #DA9B5D",
"G c #E0855B",
"H c #E38D5D",
"J c #E98F5F",
"K c #E6915F",
"L c #E8925F",
"P c #E29A5F",
"I c #C1A256",
"U c #C7A458",
"Y c #CBA359",
"T c #D2A05B",
"R c #E79660",
"E c #EB9661",
"W c #E69960",
"Q c #ED9862",
/* pixels */
"ssflbEEEEb11rpsssssspsssssssst<tssssssspssssskpsss",
"sdr,2NAYYCx<ltfsssspssskssiyIZmxtpsssssksspsssssss",
"sy2222tkssdl2<dpssssssssparbHEEmxassspssssksssssps",
"sIHKm<dssspiVHzrpsssssssfwvHEEELAfsssssspssspsssss",
"tZQEHm79psssULGnjksssssdrbHEEEEQFksssspsssspssssit",
"<bEEEL-%dkkkYEEEPgaappar3JEEEEEQFfsssssssssssssfB2",
"O-mJQE1<ADDDPEEHbz6%@@%<HEQEEEEEDkssssssskssssawvH",
"$&xNHHmmEQEEEEEH331=OX.2EEEEEEEEFtpskpssspssshCvHW",
"ipdl12HEEEEEEEEELEEKb-X2EEEEEEEQHzrpssspssssfYEEEE",
"ssfl3mEEEEEEEEEEEEEQKb-bEEEEEEEEJHcepsssssshYPEEHm",
"hfawMEEEEEEEEEEEEEEEEH2NEEEEEEEEEEGvghhhdhhUEEEKm2",
"PUpaUEEEEEEEEEEEEEEEWH3GQEEEEEEEEEEJPFPPPFPEEEHbmJ",
"EFYUTEEEEEEEEEEEEEEEEH3mEQEEEEEEEEEEQEEEEEQQEELmHQ",
"EEEEEEEEEEEEEEEEEEEEEJ2mEEEEEEEEEEEEEEEEQEEEEEEEEE",
"EEEEEEEEEEEEEEEEEEEEEH2GEEEEEEEEEEEEEEEEEEEEEEEEEE",
"EEEEEEEEEEEEEEEEEEEEEPxCTWEEEEEEEEEEEEEEEEEEEEEEEE",
"EEEEEEEEEEEEEEEEEEEEEFhshFEEEEEEEEEEEEEEEEEEEEEEWE",
"EEEEEEEEEEEEEEEEEEEEEFksdcHWEEEEEEEEEEEEEEEEEEEEEE",
"EEEEEEEEEEEEEEEEEEEEKnqufrvHEEEEEEEEEEEEEEEEEJKEEE",
"EEEEEEEEEEEEEEEEEEEEm>O4spr2HEEEEEEEEEEEEEEEPb3KEE",
"QEQQEEEEEEEEEEEQEEHb-**qss8O1HEQEWEEEEEQQQQKm-O-2b",
"HHmHLEEEWEEEEEHHHEH3-=3Bhh7O=1mHKHHLEQEKHmNb>-**>3",
"2-O>mEEEEEEEELb23KEEHLEPWPm>OX*>222bKEKb>OO*>NKHKL",
"N2**=>>1mmmmHEHmmKEWEQEEEQJmOO13m1>>>>>>>1>3NLQQEE",
"EH<*..o=2323NEWEWEEEEEEEEEQK=>KQH32>OX*1GEQEEEEEEE",
"EEH2*X2HKKHKKEEEEEEEEEEEEEEK23EEEKb>>3HHEEEEWEEEEE",
"EEEH>ObQQEEEEEEEEEEEEEEEEEQKbbEEQEb2bKQQEEEEEEEEEE",
"EEEE3ObQEEEEEEEEEEEEEEEEEEEEbbKEEEm3KEEEEEEEEEEEEE",
"EEEQm>NEEEEEEEEEEEEEEEEEEEEEKmbKEEKKEEEEEEEEEEEEEE",
"EEEEH2mHEEEEEEEEEEEEEEEEEEEEQH2bHEEEEEEEEEEEEEEEEE",
"EEEEH2>bEEEEEEEEEEEEEEEEEEEEEH1>bEEEEEEEEEEEEEEEEE",
"EEEEKN->KQEEEEEEEEEEEEEEEEEEQb*-3EQEEEEEWEEEEEEEEE",
"EEEEQL=*KQEEEEEEEEEEEEEEEEEEQ3X;mEEEEEEEEEEEEEEEEE",
"EEEEEK-*KQEEEEEEEEEEEEEEEEEEQbO3EEEEEEEEEEEEEEEEEE",
"EEEEEE11EEEEEEEEEEEEEEEEEEEEQm:mEEEEEEEEEEEEEEEEEE",
"EEEEEHvcSPEEEEEEEEEEEEEEEEEEWG2HEEEEEEEEEEEEEEEEEE",
"EEEEHbtfhDEEEEEEEEEEEEEEEEEEEN2HQEEEEEEEEEEEEEEEEE",
"EEEESrassYEEEEEEEEEEEEEEEEEEQm:mQEEEEEEEEEEEEEEEEE",
"EEEEZkspiVEEEEEEEEEEEEEEEEQEE2XbQEEEEEEEEEEEEEEEEE",
"EEEETssu$;mEQEQEEEEEEEEEEEQEm-XbQEEEEEEEEEEEEEEWEE",
"EEEEFy5#.o=1bNNNNNHEQEEEQQKN>OObWEEEEEEEEEEEEEEEEE",
"EEEEN1*oooOO-22222bLLEPKLKm>O XmQEEEEEEEEEEEEEEEEE",
"EEL>->3mmmmbNHHHHHNb333b3-OO X:NQEEEEEEEEEEEEEEEEE",
"EEm==bLQQQQQQEQEQQHbbbb2>OO==>mGHEEEEEEEEEEEEEEEEE",
"EG21bEEEEEEEEEEEEEEELEEm>>bKLEKbbEEEEEEEEEEEEEEEEE",
"b22mLEEEQEEEEEEEEEEEEEEJN2NQQEEHHEEEEEEEEEEEEEEEEE",
"l,>HEHFFFFFEEEEEEEEEEEEEPmbGEQEQEKEEEEEEEEEEEEEEEE",
"f4ONHvyfhfjPEEEEEEEEEEEEEE2*GEEEHbGEWEEEEEEEEEEEEE",
"sq-2nrassspgFWEEEEEEEEEEQQ2X=>>>>>NQWEEEEEEEEEEEHm",
"sy11wpssssssUEEEEEEEEEEEEE2.    O>GQEEEEEEEEQEEEm1"
};
