/* XPM */
static char *FieldsTile_03[] = {
/* columns rows colors chars-per-pixel */
"50 50 64 1 ",
"  c #B35744",
". c #B55945",
"X c #B95D47",
"o c #BA5F48",
"O c #BE634A",
"+ c #B76949",
"@ c #AC7E48",
"# c #C1664B",
"$ c #C56A4D",
"% c #C96F4F",
"& c #C9704F",
"* c #C4784F",
"= c #CD7451",
"- c #D07753",
"; c #D47B55",
": c #D87E57",
"> c #B3834B",
", c #AF9B4E",
"< c #B19D4F",
"1 c #BE8E51",
"2 c #B79650",
"3 c #BC9151",
"4 c #B59C50",
"5 c #B89C51",
"6 c #ACA54F",
"7 c #A7AF4F",
"8 c #A9AC4F",
"9 c #A5B04F",
"0 c #ABAE50",
"q c #B1A350",
"w c #BDA555",
"e c #B5AA53",
"r c #BAA854",
"t c #A9B050",
"y c #CC8354",
"u c #C48A52",
"i c #CA8F55",
"p c #D38356",
"a c #D88057",
"s c #D18A56",
"d c #DC8459",
"f c #DF895B",
"g c #C19754",
"h c #C99255",
"j c #C19854",
"k c #C89C57",
"l c #D19558",
"z c #D8915A",
"x c #D49E5B",
"c c #DB9C5D",
"v c #E0875B",
"b c #E38C5D",
"n c #E88F5F",
"m c #E6915F",
"M c #E8925F",
"N c #E2995F",
"B c #C3A456",
"V c #C7A458",
"C c #CDA159",
"Z c #D2A05B",
"A c #E79760",
"S c #EB9661",
"D c #E69860",
"F c #ED9862",
/* pixels */
" =SSSSSSSSSSSSSSSSSSSSSSSS-X%dSSSSSSSf--$  #=O   X",
"#;SSSSSSSSSSSSSSSSSSSSSSSSa$;bSSSSSSNmdd;=#%=%##O ",
"=dFFSSSSSSSSSSSSSSSSSSSSSSf;bSSSSSSSSSSSFMa-;-;-#X",
"-dSSSSSSSSSSSSSSSSSSSSSSSSAmSSSSSSSSSSSSSSmmbmmm;&",
"-dSSSSSSSSSSSSSSSSSSSSSSSSSSSSSSSSSSSSSSSSSFFSFSbd",
"=dSSSSSSSSSSSSSSSSSSSSSSSSSSSSSSSSSSASSSSSSSSSSSSM",
"O;SSSSSSSSSSSSSSSSSSSSSfdMSSSSSSSSSSSSSSSSSSSSSSSS",
" &bSSSSSSSSSSSSSSSSSASSd;mSSSSSSSSSSSSSSSSSSSSSSmm",
" $;mFSSSSSSSSSSSSSSSSSSd;mSSSSSSSSSSSSSSSSSSSSSMd;",
"$O$fFFSSSSSSSSSSSSSSSSSd;mSSSSSSSSSSSSSSSSSSSSm-&=",
";&OdmmSSSSSSSSSSSSSSSFSa-mSSSSSSSSSSSSSSSSSSMMa$&a",
"Sd=-;;bFSSSSSSSSSSSSSSS=$fFSSSSSSSSSSSSSSSSSMfabmm",
"Smd;==addfbSSSFSSSSSbfd$ObFSSSSSSSSSSSSSSSSSSbfSFS",
"SSma-;;;;=-bSmmmSSSSd-;$OfSSSSSSSSSSSSSSSSSSMMSSSS",
"SFM;abmmb=O-;;;fSSSSmmbp=;fSSSSSSSSSSSSSSSSmabSSSS",
"SSSfbSFFS-$=;ddbSSSSSFFba&aSSSSSSSSSSSSSSSSf;bSSSS",
"SSSSSSSSSd--dSSSSSSSSSSFbO=MSSSSSSSSSSSSSSSm;fSSSS",
"SSSSSSSSSmb;fSSSSSSSSSSFbO#aMSSSSSSSSSSSSSSf;bSSSS",
"SSSSSSSSSFb=-mSSSSSSSMbd;OX%dmSSSSSSSSSSSSSf&amSFS",
"SSSSSSSSSFfO#;mSSSSSSma$O  O&dASSSSSSSSSSSFaO#aMSS",
"SbdMSSSSSFfO $;damSSSSbd-%O X%amFSSSSSSSSSFaXX#a:a",
"ma=bFSSSSFb#XO-;amSSSSSSSd=$#%-dMSSSSSSSSSFdOO&;::",
";%OdFSSSSSb-==bSmSSSSSSSSmmbmf--aMSSSSSSSSSf-dmMMM",
"d-$&aFFFSd=-abASSSSSSSSSSSFFSMfffd-;MFFSSSfffMSSFF",
"Sm-O&fmff=O-fSSSSSSSSSSSSSSSSSSSb;$#dbbmMMddMSSSFS",
"SMm-$OOOO$-bSSSSSSSSSSSSSSSSSSSSSm;%#O#-vSmmFSSSSS",
"SSSb;OX O-bSSSSSSSSSSSSSSSSSSSSSFSb;XO=abSFSSSSSSS",
"SSSSb-OO-fSSSSSSSSSSSSSSSSSSSSSSSFFfO-SSSSSSSSSSSS",
"SSSSAb#O-fSSSSSASSSSSSSSSSSSSSSSSSFb=aFSSSSSSSSSSS",
"SSSSSS=#-fSSSSSSSSSSSSSSSSSSSSSSSSSm;dSSSSSSSSSSSS",
"SSSSSSa=;fSSSSSSSSSSSSSSSSSSSSSSSSFm;fSSSSSSSSSSSS",
"SSSSSMd=-fSSSSSSSSSSSSSSSSSSSSSSSSFm;dSSSSSSSSSSSS",
"SSSSFMa;:bSSSSSSSSSSSSSSSSSSSSSSSSMf-fSSSSSSSSSSSS",
"SSSSFM:;mFSSSSSSSSSSSMSSSSSSSSSSSSf--dSFSSSSSSSSSS",
"SSSSFM==MFSSSSSSSSSSSSSSSSSSSSSSSSa;fmSSSSSSSSSSSS",
"SSSSFb##bSSSSSSSSSSSSSSSSSSSSSSSSSd;mSSSSSSSSSSSSS",
"SSSSb;OO-bSSSSSSSSSSSSSSSSSSSSSSSSd;MFSSSSSSSSSSSS",
"SSSFd$#$=bFSSSSSSSSSSSSSSSSSSSSSmfdbSSSSSSSSSSSSSS",
"SSSSp+&;;fMSSSSSSSSSSSSSSSSSSSSSb-dFSSSSSSSSSSSSSS",
"SSMdu,hMmddmSSSSSSSSSSSSSSSSSSSSdO;FSSSSSFFSSSSSSS",
"SSMi4tZFS;%dmSFFFFSFFSSSSSSSSFFch>sFSSFFNkCCCNFFSS",
"SSNr90cFm=X=dSNMNNMNSSSSSSSSFSNr90kFSSSNC0990CMSSS",
"SFNr99xba=$O%pBrrrrrcSSFSSFSScrt99ZFSSMVe9999eVNSS",
"SFNe75cmda;&*1899999BxcNSFNxxB9999hbSSce999999eNSS",
"SSNe<yfSMSSmk7999797970CSSx07797971:MFNe979799eNSS",
"Scw065wkdbFFV9999979999g::g79979971:MFNe997999eNFF",
"cB999996ufFSZrq8999997rh;-379999972ybMNVt99990BNMb",
"009779970kSSSzp3t9779ecSb;3997979975yfSNCt99tCMSf-",
"997979799CFFSSvfCCCCCxSFb%>7979999974lSFcxCCkNSvi2",
"999797999ZFFSSSSSSFSSSSFbO>7999999797CSSSFSSFFb-29"
};
