/* XPM */
static char *FieldsTile_32[] = {
/* columns rows colors chars-per-pixel */
"50 50 85 1 ",
"  c #B45744",
". c #B65A45",
"X c #B85C46",
"o c #BC5D48",
"O c #B46246",
"+ c #BD6249",
"@ c #B56C48",
"# c #BF694B",
"$ c #AF7448",
"% c #AE7C49",
"& c #BF744D",
"* c #BC7B4D",
"= c #C1664B",
"- c #C46A4D",
"; c #C96D4F",
": c #C07C4F",
"> c #CA6F50",
", c #CD7351",
"< c #C47A50",
"1 c #CC7D53",
"2 c #D17753",
"3 c #D47C55",
"4 c #DA7F57",
"5 c #DA7F58",
"6 c #AD854A",
"7 c #AA8B4A",
"8 c #B4854C",
"9 c #B18B4C",
"0 c #BA884F",
"q c #AA954C",
"w c #AB9A4D",
"e c #B3994F",
"r c #BF8750",
"t c #BE8D51",
"y c #BB9451",
"u c #B59A50",
"i c #BA9851",
"p c #A6A24D",
"a c #ADA54F",
"s c #A6AD4F",
"d c #A9AC4F",
"f c #A5B04F",
"g c #AEA550",
"h c #ACAE50",
"j c #B3A451",
"k c #BEA655",
"l c #B4AB53",
"z c #BAA954",
"x c #A5B550",
"c c #A8B250",
"v c #C58552",
"b c #CC8354",
"n c #C38A52",
"m c #CC8B55",
"M c #D58256",
"N c #D88057",
"B c #D38A57",
"V c #DC8459",
"C c #D68E59",
"Z c #DD8A5A",
"A c #C29654",
"S c #CB9657",
"D c #C59D56",
"F c #C89B57",
"G c #CC9D58",
"H c #D49559",
"J c #DD945C",
"K c #D49E5B",
"L c #DB9C5D",
"P c #E2875C",
"I c #E38D5D",
"U c #E88C5E",
"Y c #E6915F",
"T c #E8925F",
"R c #E2995F",
"E c #C2A556",
"W c #C7A458",
"Q c #CCA259",
"! c #C5A858",
"~ c #D0A15A",
"^ c #E79760",
"/ c #EB9661",
"( c #E69860",
") c #EC9862",
"_ c #F09462",
/* pixels */
"  X>nhfffsffE/////////////3X;N/////^/V22tsfe1ufffc",
"%*,5FsffffffW////////////)N-3I//////^UVVHEhdyyefff",
"fE/_KgsfffchQ/////////////Z3U///////)////REsjnmjcf",
"f!//Znafffl~R/////////////V3I)/////////)_^RHvBYLkf",
"fz~^UVFkEkW(//////////////IVT^//////T//////UVU)/KE",
"fflK^/^^//^////////////////T////////^///////////TR",
"fffl~^//////////////////TVI/////////))//////^///)/",
"cfffE///////////////////T3V////////////////)/TU///",
"sfsfk(//////////////////Y3V^/////////////////V3T)^",
"ffffE^/////////////////T3-3////////////////)/NbWEE",
"ffffE(////////////////T3-X,U///////////////TIMnsff",
"ffffk////////////////T3;X =MT^////////////)V#6dffc",
"fgyyv1I//_//////TZI/)/V3,X+2U^/////////////H8pffff",
"gy33;o3TRRRTTT///NVT^//)I--3Z//////////////Kdfffff",
"vBUTV>=*jhkB3NT//TT/////TI333V////////////_Kccscff",
"VU//TV*7sfgB5VT///////////TN3N/)/////////TUSsfffcs",
"/////RzfsfzR///////////////TMVT//////////T4nsffffc",
"////_RzxfEL//////////////^//UVNU////////)/4ncfcssf",
"//////FukL/////^/////////////JnSL//////)TI,:uhfffc",
"T////TMBR^///////////////////KhfkR/T///TZ2++<esssf",
"k~/_IVVU//////////^//////////~cfcEv,4NNN,+  +@6dff",
"fzLLC3I)////////////////////_Hwsff8-34M4,====-&esc",
"fchhi3U///////T/////////////^M@qccFUTTTTTTUTTTIbuc",
"sffu*-V///////////////////)/3;-m!QR)//)))))LWEGZHQ",
"fczb;+N)///////////////////Z-=3U///////////KsxzR_/",
"fEL/V2I)//////////////////I3,3T///////////_KfflR_/",
"fE_/TVVI//////////////))/I,-3U/////////////LWESZHQ",
"fE////VN//////////////TTI3;#Z^////^//////////^Jbif",
"fW////TU/////////////TN3323ZT)///////////////Qljdf",
"fE/////RI////////II//TV32MU)^///////////////Rkffff",
"sE^////U3V//////TMN////V3T///////////////////Effsc",
"flER///I33V/)_///YI////N3T)////////////////_Rkffsf",
"ffcWR//U2>,IJLKLIR/////ZVT///////////////////Qlfff",
"fffhWR/I1#+,yhhy3U/////T//////////////////////Klfs",
"ffsfhEb-=  +7ffe1U)))TZU^/////////////////////RKAt",
"fffffd6O o==0llA3IUZUZ,V/////////////////^RLLLR/P3",
"sccffsd7O,IURRRRYN,#,,+3/////////////////REhlhkR/T",
"fffscffa1I))//_//I2=#+X2/)//////////////_RzfffhER/",
"sfsfscfz(/////////I3# X3))/////////^////^Lzfffcs~/",
"cfcffffz(_/////////T3=X2////////////////~zsscfscQ/",
"fsfsscz~^/////////^/U3-2I///////////////~ffffffsQ/",
"fcfcfh~/)///////////^I323T)/////////////~sfsfffcQ/",
"fcsffcK_////////////)/U33U/////////////_~sfcfcffQ/",
"fsffhkL///////////////^INIU/////////////QcffffskL/",
"ffffkR^/////////////////T3VR////////////~hffsflL//",
"csffE^_////////////////)U3nWBP//////////R~hffflR_/",
"fffaF/RLLLL/////////////UVysymL^/)///////TWzzlE/RL",
"sfdnVREhhhzR//////////////QsddlK/////////^RRRRR/Wh",
"fjt-:EhsffsEL^///////////)B6pfsr2VU/////////__RWlf",
"fi,o%dffffffE/////////////3Owxs$o2I///T//^////Lhff"
};
