/* XPM */
static char *FieldsTile_18[] = {
/* columns rows colors chars-per-pixel */
"50 50 139 2 ",
"   c #B25644",
".  c #B35644",
"X  c #B35744",
"o  c #B45744",
"O  c #B45844",
"+  c #B45845",
"@  c #B55945",
"#  c #B55A45",
"$  c #B65A46",
"%  c #B75B46",
"&  c #B85C46",
"*  c #B85C47",
"=  c #B85D47",
"-  c #B95D47",
";  c #B95E47",
":  c #BA5E48",
">  c #BA5F48",
",  c #BB5F48",
"<  c #BB6048",
"1  c #BC6048",
"2  c #BC6149",
"3  c #BD6149",
"4  c #BD6249",
"5  c #BD6349",
"6  c #BE6349",
"7  c #BE634A",
"8  c #BF644A",
"9  c #C0654B",
"0  c #C0664B",
"q  c #C1674B",
"w  c #C2674C",
"e  c #C2684C",
"r  c #C3684C",
"t  c #C3694C",
"y  c #C4694D",
"u  c #C46A4D",
"i  c #C56B4D",
"p  c #C66B4E",
"a  c #C66C4E",
"s  c #C66D4E",
"d  c #C76D4E",
"f  c #C76D4F",
"g  c #C76E4E",
"h  c #C76E4F",
"j  c #C86E4F",
"k  c #C86F4F",
"l  c #C96F4F",
"z  c #C97050",
"x  c #CA7050",
"c  c #CA7150",
"v  c #CB7150",
"b  c #CC7251",
"n  c #CC7351",
"m  c #CD7351",
"M  c #CD7451",
"N  c #CD7452",
"B  c #CD7552",
"V  c #CE7552",
"C  c #CF7552",
"Z  c #CE7652",
"A  c #CF7653",
"S  c #CF7753",
"D  c #D07753",
"F  c #D07853",
"G  c #D17853",
"H  c #D17854",
"J  c #D17954",
"K  c #D27954",
"L  c #D27A54",
"P  c #D37A54",
"I  c #D37A55",
"U  c #D37B55",
"Y  c #D47B55",
"T  c #D47C55",
"R  c #D57C55",
"E  c #D57D55",
"W  c #D57D56",
"Q  c #D67D56",
"!  c #D67E56",
"~  c #D77F56",
"^  c #D77F57",
"/  c #D78057",
"(  c #D88057",
")  c #D88157",
"_  c #D98157",
"`  c #D98158",
"'  c #D98258",
"]  c #DA8258",
"[  c #DA8358",
"{  c #DB8359",
"}  c #DB8459",
"|  c #DC8459",
" . c #DC8559",
".. c #DD855A",
"X. c #DD865A",
"o. c #DD875A",
"O. c #DE865A",
"+. c #DE875A",
"@. c #DE885A",
"#. c #DF885B",
"$. c #DF895B",
"%. c #E0895B",
"&. c #E08A5B",
"*. c #E08A5C",
"=. c #E18A5C",
"-. c #E18B5C",
";. c #E28B5C",
":. c #E28C5C",
">. c #E28C5D",
",. c #E38C5D",
"<. c #E38D5D",
"1. c #E48D5D",
"2. c #E48E5D",
"3. c #E48E5E",
"4. c #E58F5E",
"5. c #E5905E",
"6. c #E6905E",
"7. c #E6915F",
"8. c #E7915F",
"9. c #E7925F",
"0. c #E8925F",
"q. c #E8935F",
"w. c #E89360",
"e. c #E99360",
"r. c #E99460",
"t. c #EA9460",
"y. c #EA9560",
"u. c #EA9561",
"i. c #EB9561",
"p. c #EB9661",
"a. c #EB9761",
"s. c #EC9761",
"d. c #EC9762",
"f. c #EC9862",
"g. c #ED9862",
"h. c #ED9962",
"j. c #EE9962",
"k. c #EE9963",
"l. c #EE9A63",
/* pixels */
"O M i.s.i.s.i.i.i.s.i.i.s.i.i.s.i.i.s.i.i.i.s.i.s.s.U * d [ i.i.i.s.i.s.i.| m * O O O 8 M 8 O O O O ",
"0 U i.s.s.i.i.s.i.s.s.i.i.s.s.i.i.s.s.i.s.i.i.s.i.s.) y ! -.i.s.s.i.i.s.s.3.[ D 0 * y Y [ U z 0 < O ",
"M | i.i.s.i.i.s.s.i.i.s.i.i.s.i.s.i.i.s.i.s.s.i.s.s.| D ,.s.i.i.s.i.i.s.s.i.i.s.! 8 | g.i.s.3.! y * ",
"U | i.s.i.i.s.i.i.i.s.i.s.i.i.s.i.s.i.i.i.s.i.i.s.i.! w @.g.s.i.i.s.i.i.s.s.s.s.| M -.g.i.s.i.6.! z ",
"U | i.s.s.s.i.s.i.i.s.i.s.i.i.s.i.s.i.i.s.i.i.s.i.s.F < | g.g.s.s.i.s.s.i.i.s.s.[ b %.g.i.i.s.i.| F ",
"m } i.i.i.i.i.i.s.i.i.s.i.s.i.i.s.i.s.i.i.s.s.i.g.i.F 4 | g.s.i.i.i.i.i.s.i.s.s.! 8 | g.i.i.g.i.| F ",
"4 U i.s.i.s.s.i.i.s.s.i.i.s.i.s.i.i.s.s.i.s.i.i.i.g.M 4 | g.i.i.i.s.s.i.i.s.i.s.,.} 6.i.s.i.s.i.0.3.",
"  b i.s.s.i.i.s.i.s.i.i.s.i.i.s.i.s.i.i.s.i.i.s.i.i.! t %.g.i.s.s.i.i.s.i.i.i.s.0.6.i.i.i.s.i.s.0.3.",
"O M i.s.i.i.s.i.i.s.i.i.i.s.i.i.s.i.i.s.i.i.s.i.g.i.| U ,.s.i.i.i.s.i.i.s.i.i.s.%.! 3.s.i.s.i.i.| F ",
"y ! s.s.s.i.i.s.s.i.i.s.i.s.i.s.i.i.s.i.s.s.i.i.i.g.@.U ,.g.s.i.s.i.i.s.s.i.i.s.| D ! -.i.g.6.| b 4 ",
") | 6.i.s.i.i.s.s.i.i.s.s.i.i.s.s.i.s.i.i.s.i.s.i.6.@.[ 6.s.i.s.s.i.i.s.i.i.s.s.3.! F ! 3.i.6.) j 0 ",
"w.| ! 3.s.s.i.i.i.i.s.i.i.i.s.i.s.i.i.s.i.i.i.s.6.) | 6.i.s.i.i.i.s.i.i.i.s.i.s.i.3.! M ! ,.i.0.3.,.",
"g.@.U ,.s.i.i.s.s.i.i.s.i.i.s.i.i.i.s.i.i.i.s.g.6.U | s.s.i.i.s.s.i.s.s.i.i.s.i.s.i.,.| | 6.g.s.g.g.",
"g.| U 3.s.i.i.s.s.i.s.i.i.s.i.s.s.i.i.s.s.i.i.i.,.! | i.i.s.i.i.i.i.i.i.s.s.i.i.s.i.w.w.i.i.s.s.s.i.",
"s.| ! 3.s.i.s.i.i.i.s.i.s.s.i.i.s.i.i.s.i.s.i.%.! D | s.s.s.s.i.i.s.s.i.i.s.i.s.s.w.| | i.i.i.i.i.i.",
"s.@.U [ 3.s.s.i.s.i.i.s.i.i.s.i.i.i.s.i.i.s.i.| m d ! i.s.i.i.s.s.i.i.s.i.i.s.s.s.w.! [ i.s.s.s.s.i.",
"s.%.U D [ i.s.i.i.s.s.i.s.i.i.s.s.s.i.i.i.s.i.} j * m 0.i.i.i.i.i.i.s.s.i.s.i.i.g.q.! ! 6.i.s.i.s.i.",
"i.0.-.Y ) i.s.s.s.i.i.s.i.i.s.i.i.i.i.s.i.i.s.U * O t [ 0.g.i.s.i.g.i.i.i.i.i.i.g.q.z y / 6.g.i.i.i.",
"s.w.-.Y [ i.s.i.i.i.i.i.s.i.s.i.i.s.s.i.s.i.,.! d d y j } 6.i.s.i.i.i.i.s.g.i.g.6.! 8 * d ) 6.i.g.s.",
"s.| U M [ 0.s.i.i.s.s.i.s.i.i.s.i.i.s.i.i.3.! | w.w.U 4 b } i.s.i.i.g.g.i.i.i.i.! 4 O O * j ) 6.i.i.",
"} M 0 b Y [ 3.s.s.s.i.s.i.s.i.i.s.i.i.s.g.3.! | g.g.,.! 0 M i.g.g.g.g.g.g.,.[ ) F r % * y b F ) ) ) ",
"D y 4 D ! ^ 3.s.i.i.i.i.i.s.s.i.i.s.s.s.w.| M ! 6.i.g.6.d d | @.@.| @.| | ! D U / ! j z ! / / ! ! ! ",
"H M D -.i.0.i.s.i.i.s.i.s.i.i.s.i.i.s.i.| m 4 y ) 6.g.0.! y 4 4 < < 4 4 4 d ! ,.q.6.6.6.6.0.0.0.0.0.",
"%.^ ! 6.g.s.i.s.s.s.s.i.i.i.s.i.s.g.w.| ! M F ) %.i.3.[ U b 0 %   o * y M / %.i.g.s.g.g.g.g.g.i.g.g.",
"s.| m } 6.i.s.i.0.w.s.s.s.s.s.s.i.3.[ m D [ w.s.i.s.-.! Y ! M 4 O < z } 0.g.i.i.i.i.s.i.i.s.i.g.i.i.",
"s.! : 4 D i.s.3.^ -.s.s.i.s.s.s.6.m * 4 ! w.s.s.s.i.w.6.6.@.M 4 * z | q.i.i.g.i.s.s.i.i.i.i.i.i.i.i.",
"s.| m * 4 F [ [ D ! } U U Y U ) } j w M -.s.s.i.i.i.s.g.s.0.| 0 8 [ 6.g.g.i.i.i.i.s.i.s.s.i.s.i.s.s.",
"s.s.3.w o : b Y U ! M 4 O O % y U U [ w.s.i.i.s.i.s.i.s.s.g.6.j d 6.g.i.i.i.g.i.i.i.s.i.i.s.i.i.i.i.",
"s.g.3.w * j } 3.3.3.| m 4 O w ! ,.3.0.s.s.i.i.i.s.i.i.s.i.s.i.U U 6.g.i.i.s.i.i.s.i.i.s.i.s.i.i.i.s.",
"s.g.6.l j } 0.g.s.g.w.! d w ! ,.i.s.s.i.s.i.s.i.i.i.s.i.i.s.i.) ) q.g.i.i.i.s.s.i.s.s.i.i.s.i.g.i.i.",
"s.s.0.! [ w.s.i.i.s.3.! M Y 3.s.s.i.i.s.i.s.s.i.s.i.s.i.s.s.w.) / q.g.s.s.i.s.i.i.s.i.i.s.i.i.s.s.i.",
"s.i.i.3.3.s.s.s.i.s.i.3.^ Y 3.g.i.i.s.i.i.s.i.i.s.i.i.s.i.s.w.) ) q.s.i.i.s.i.i.s.i.i.s.i.i.s.i.i.s.",
"i.i.s.s.w.3.0.s.s.i.s.s.-.} 0.s.i.i.s.i.i.s.i.i.s.i.i.s.s.g.0.U F i.s.i.i.i.s.i.i.s.i.i.g.i.s.i.i.s.",
"i.s.i.s.-.! -.s.s.i.i.s.w.w.w.s.s.i.i.s.s.i.s.i.i.s.s.i.i.g.0.d y 6.g.i.s.i.i.s.i.i.i.i.i.i.g.i.s.i.",
"i.s.s.s.-.U -.s.s.s.s.i.s.s.s.s.i.s.s.i.i.i.s.s.i.i.i.i.i.g.0.y t 6.g.i.i.s.s.i.g.i.s.g.i.i.i.i.s.i.",
"s.i.i.s.-.Y | 3.3.w.i.s.i.i.i.s.i.s.i.i.i.s.i.i.s.s.i.s.i.i.,.d d 6.g.s.i.s.i.i.i.i.i.i.i.g.i.i.i.s.",
"i.i.s.s.-.U U U Y -.s.i.s.i.i.s.s.i.i.s.i.i.s.i.i.s.i.i.g.,.Y m ! 0.g.i.i.i.i.s.i.i.i.i.s.g.i.i.i.i.",
"i.s.s.s.[ y j U | 3.s.s.i.s.s.i.i.i.s.i.s.s.i.i.i.i.s.i.s.%.U [ ,.i.s.s.s.i.s.i.i.g.i.g.i.i.i.i.s.i.",
"s.s.i.s.) 4 b } w.s.i.i.i.i.i.i.i.s.s.i.i.s.i.s.s.s.i.s.s.@.M %.i.i.i.i.i.i.s.i.i.g.i.i.i.i.g.i.i.s.",
"i.i.s.s.| M } w.s.s.s.i.s.s.i.s.s.i.i.s.i.i.s.i.i.i.s.i.g.) 0 | g.i.s.i.s.i.i.s.i.i.i.i.g.s.i.i.i.s.",
"s.s.w.[ H U -.s.s.s.i.i.s.i.i.s.s.i.i.s.i.i.s.i.i.s.i.i.s.! : ) g.i.s.i.i.s.i.g.i.i.g.i.i.i.i.g.s.i.",
"s.g.3.y 4 Y 3.s.s.i.s.i.i.s.s.i.i.s.s.i.i.s.i.s.i.i.i.i.i.! < ) g.s.i.i.i.i.i.i.i.g.i.i.i.s.i.i.i.i.",
"i.g.3.0 r -.i.s.i.i.s.s.i.i.i.i.i.i.s.i.s.s.i.i.s.i.s.i.| j : ) g.i.i.s.s.i.s.i.i.i.i.i.s.i.i.i.i.s.",
"s.w.%.y m i.s.i.i.s.i.i.s.s.i.s.s.i.i.s.i.i.s.i.i.s.s.0.) d 0 | g.s.s.i.i.s.i.i.i.s.g.i.i.i.i.g.s.i.",
"s.%.F M [ i.s.i.i.i.s.i.i.i.s.i.i.s.i.i.i.s.i.i.i.s.s.0.! M U -.s.s.i.s.s.i.i.s.i.s.i.i.i.i.i.s.s.i.",
"g.^ y [ 3.s.s.s.s.s.i.i.s.i.s.i.i.s.s.i.i.i.s.s.s.i.g.6.j b %.0.i.i.i.i.i.i.s.i.i.i.s.s.g.i.i.i.i.i.",
"| b : | g.s.s.i.i.s.i.s.s.i.i.s.s.i.i.s.s.i.s.i.i.s.i.@.8 j s.g.s.i.g.g.g.i.i.s.s.i.s.i.i.s.s.i.s.s.",
"4 * 4 | s.i.i.s.i.i.s.i.i.s.i.i.i.i.s.i.i.s.i.i.s.i.-.D < j w.g.i.i.i.i.i.i.s.i.i.s.i.i.s.i.i.s.i.i.",
"  : j ,.s.s.i.i.i.s.i.i.s.i.i.s.i.i.i.s.i.i.s.i.i.s.) 0 O 4 M M M M M S ) ,.i.g.i.s.i.i.s.i.i.i.,.| ",
"O 0 Y 3.s.s.i.s.i.s.s.i.i.s.s.i.i.s.i.s.s.i.s.i.s.s.U O O O O O O O X < M @.i.i.i.s.s.i.i.s.g.i.| S "
};
