/* XPM */
static char *FieldsTile_59[] = {
/* columns rows colors chars-per-pixel */
"50 50 71 1 ",
"  c #B35744",
". c #B65945",
"X c #B95D47",
"o c #BA5F48",
"O c #B36446",
"+ c #B06E47",
"@ c #BD6249",
"# c #AE7F49",
"$ c #B27F4A",
"% c #BA784C",
"& c #C1664B",
"* c #C56B4D",
"= c #C86F4F",
"- c #C2764E",
"; c #C9704F",
": c #C1784E",
"> c #CB6F50",
", c #CD7351",
"< c #C57950",
"1 c #CB7C52",
"2 c #D07753",
"3 c #D47C55",
"4 c #D97E57",
"5 c #AE844A",
"6 c #B58A4D",
"7 c #B2924E",
"8 c #B69550",
"9 c #B99651",
"0 c #B59B50",
"q c #B99A52",
"w c #ABA54F",
"e c #A6AE4F",
"r c #A9AA4F",
"t c #A5B14F",
"y c #AFA350",
"u c #ACAC50",
"i c #B1A450",
"p c #BEA555",
"a c #B4A952",
"s c #BCA855",
"d c #A9B050",
"f c #C48451",
"g c #CA8353",
"h c #C38C52",
"j c #D38156",
"k c #D88057",
"l c #D08B56",
"z c #D78658",
"x c #DB8459",
"c c #DE895B",
"v c #C79555",
"b c #C39C55",
"n c #C99B57",
"m c #CD9B58",
"M c #DC965C",
"N c #D49E5B",
"B c #DB9C5D",
"V c #E38C5D",
"C c #E88F5F",
"Z c #E6915F",
"A c #E8925F",
"S c #E4995F",
"D c #C2A556",
"F c #C2A857",
"G c #C7A358",
"H c #CAA359",
"J c #D1A05A",
"K c #E79560",
"L c #EB9661",
"P c #E69960",
"I c #ED9862",
/* pixels */
".&22hrtetdttGILLLLLLLLLLLL2X=xLLLLLLLx,X . @,o+wtt",
"#fxxvettteteGLLLLLLLLLLLILx*3VLLLLLLIVx2&.*3x>%rte",
"eDLINaettteuHLILLLLLLLLLLLx2VLLLLLLLILLL4@xILxgitt",
"tDLIcfwtttuNPLLLLLLLLLLLLL3&xLLLLLLLILLIz,VILZcg0t",
"qmLLZzvsDpGSLLLLLLLLLLLLPL,oxIIILLLLLLLLV3VILICxhq",
",xLILLLPLLLLLLLLLLLLLLLLIL3@cILLLLLLLLLLx2VILLLLc1",
"@2IILLIILLLLLLLLLLLLLLLLII,@xILLLLLLLLLLV3VILLLIZV",
" -NBMLLLLLLLLLLLLLLLLLLLLI4*xILLLLLLLLLIx,xZLLLLLV",
".$uuDLLLLLLLLLLLLLLLLLLLLLx2VILLLLLLLLLL4o*xLPLLx3",
"*6ttsPILLLLLLLLLLLLLLLLIIIV3VILLLLLLLLLI3.X%DFnz>@",
"3vwwbZLILLLLLLLILLLLLLLPLVxxVILLLLLLLLLI4@O5rtij>@",
"Zc1g14VLLLLLLLLILLLLLLLLV&,VILLLLLLLLLLLx<7ettaMVV",
"LZx3224xxxcLLLPILLLLVxx4,.,LILLLLLLLLLLLCcar9bNPII",
"LLZ422344,3VLZZLLLLLx34*.X,LLLLLLLLLLLLLIPp83VLLII",
"LPL44VVZV,@3433xLLLLZZV4;,kLLLLLLLLLLLLLLLlgVLILIL",
"LLLxVLIIL3@,3xxcLLLLIIPV4=4LILLLLLLLLLLLLL4xLILLLL",
"LLLLLLLLLx32xILLLLLLLLLIV@,ZLLLLLLLLLLLLIZ34ZLPLLL",
"LLLLLLLLLKx3xPLLLLLLLLIIV@&xZILLLLLLLLLLIL,&kVIILL",
"LLLLLLLLLIV,4VLLLLLLLPVx3&@=xVLLLLLLLLLLV4@.=4VLLL",
"LLLLLLLLLIV@@4VLLLLLLZ4&@,=@,xLLLLLLLLLL4@...=xZLL",
"LVxLLLLLLIc@.&3xxVLLLLVx4Vx3&,LIIIIIIVxx,&.X&,,xxk",
"Vk,VILLLLIV&X@2kxVLLLLLLIIIZ=*xcxzxVx4,3kk=>4k4443",
"3*@xLLLLLLV3,,VZZLLLLLLLLLIV4*@oo@@@@*2VPKVZZLZZZK",
"x3&,xIIIIx,,4VLIILLLLLLLLLISV4&X  X*,4VLILIIPIIIIL",
"PV2&=xVVV=@3VLLLLLLLLLLLLLLLIV,@.o=xZILLLLLLLLLLLL",
"IIV2*@@&@*2VZLLLLLLLLLLLLLLLIV,@X=zLLLLLLLLLLLLLLL",
"LILV3@..&2VLILLLLLLLLLLLLLLLIVx&@xZLLLLLLLLLLLLLLL",
"LLLLV3@@,xLLLLLLLLLLLLLLLLLLIIZ==ZILLLLLLLLLLLLLLL",
"LLLLLV&X,VILLLLLLLLLLLLLLLLLLIL33ZLLLLLLLLLLLLLLLL",
"LLLLLL,&,VILLLLLLLLLLLLLLLLLLLL44LLLLLLLLLLLLLLLLL",
"LLLLLKx,2cLLLLLLLLLLLLLLLLLLLLZk4KLLLLLLLLLLLLLLLL",
"LLLLLLx,2VPLLLLLLLLLLLLLLLLLLLLk4LPLLLLLLLLLLLLLLL",
"LLLLIL4,kVLLLLLLLLLLLLLLLLLLLIL3,ZILLLLLLLLLLLLLLL",
"LLLLLZ44ZPLLLLLLLLLLLLLLLLLLLLZ=*ZILLLLLLLLLLLLLLL",
"LLLLLL,,LILLLLLLLLLLLLLLLLLLLIL&&ZILLLLLLLLLLLLLLL",
"LLLLLV-%MPLLLLLLLLLLLLLLLLLLLLV*=ZILLLLLLLLLLLLLLL",
"LLLLV48raJLLLLLLLLLLLLLLLLLLLV3,4ZILLLLLLLLLLLLLLL",
"LLLIM9rttmIILLLLLLLLLLLLLLLLLV34VLILLLLLLLLLLLLLLL",
"LLLLmuteumVILLLLLLLLLLLLLLLLLx2VLLLLLLLLLLLLLLLLLL",
"LLLINttwf3xLILLLLLLLLLLLLLLLPx&xPILLLLLLLLLLLLLLLL",
"LLPVl8pmz,=zLLLLLLLLLLLLLLLLL4X4LLLLLLLLLLLLLLLLLL",
"LLZk,3VIZ,o,xLLLLLLLLLLLLLLLL3@xPLLLLLLLLLLLLLLLLL",
"LIZ4kVLCx,&@>zCIIILLLLLLLLLLz=o4IILLLLLLLLLLLLLLLL",
"LIZ4xLIV4x4=>,4kkcZIIILLLLLZ4=&zILLLLLLLLLLLLLLLLL",
"LLV4xLLLLLLZx,&o@,kVLZLLLLIV3,3VILLLLLLLLLLLLLLLLL",
"4xxVVIIILIILKc4442,=*,44zLIL=,cZLLLLLLLLLLLLLLLLLL",
"f<,VLVBBMBBLILLILz3&@=33xZLx@=LILLLLLLLLLLLLLLLLIL",
"u5&xVjquuusSILLLLLZVVZLVLLV2@=ZLLLLLLLLLLLLLLLLLLI",
"t7=3l9rtttupBLLLLLIIIILIILk@.@,,2xVLLLLLLLLLLLLLVx",
"t922hetettttGLLLLLLLLLLLLL3.... @,VLLLLLLLLLLLLLx,"
};
