/* XPM */
static char *FieldsTile_05[] = {
/* columns rows colors chars-per-pixel */
"50 50 226 2 ",
"   c #B25644",
".  c #B35644",
"X  c #B35744",
"o  c #B45744",
"O  c #B45844",
"+  c #B45845",
"@  c #B55945",
"#  c #B65A45",
"$  c #B65A46",
"%  c #B75B46",
"&  c #B75C46",
"*  c #B85C46",
"=  c #B85D47",
"-  c #B95D47",
";  c #B95E47",
":  c #BA5E47",
">  c #BB6048",
",  c #BC6048",
"<  c #BC6149",
"1  c #BD6149",
"2  c #BD6249",
"3  c #BE6349",
"4  c #BE634A",
"5  c #BF634A",
"6  c #BE644A",
"7  c #BF644A",
"8  c #BF654A",
"9  c #BB694A",
"0  c #B07848",
"q  c #C0654A",
"w  c #C0654B",
"e  c #C0664B",
"r  c #C1664B",
"t  c #C1674B",
"y  c #C2674C",
"u  c #C2684C",
"i  c #C3684C",
"p  c #C3694C",
"a  c #C4694D",
"s  c #C46A4D",
"d  c #C56A4D",
"f  c #C56B4D",
"g  c #C66C4E",
"h  c #C66D4E",
"j  c #C76D4E",
"k  c #C76D4F",
"l  c #C76E4E",
"z  c #C76E4F",
"x  c #C86E4F",
"c  c #C86F4F",
"v  c #C96F4F",
"b  c #C9704F",
"n  c #CA7050",
"m  c #CB7050",
"M  c #CA7150",
"N  c #CB7150",
"B  c #CB7250",
"V  c #CB7251",
"C  c #CC7251",
"Z  c #CC7351",
"A  c #CD7351",
"S  c #CD7451",
"D  c #CD7452",
"F  c #CE7452",
"G  c #CE7552",
"H  c #CF7652",
"J  c #CF7653",
"K  c #D07753",
"L  c #D37754",
"P  c #D07853",
"I  c #D17853",
"U  c #D17854",
"Y  c #D17954",
"T  c #D27954",
"R  c #D27A54",
"E  c #D37A54",
"W  c #D37B54",
"Q  c #D37B55",
"!  c #D47B55",
"~  c #D37C55",
"^  c #D47C55",
"/  c #D57C55",
"(  c #D57D55",
")  c #D57D56",
"_  c #D67D56",
"`  c #D47E56",
"'  c #D67E56",
"]  c #D77E56",
"[  c #D67F56",
"{  c #D77F56",
"}  c #D77F57",
"|  c #B3854C",
" . c #B1884C",
".. c #B0904D",
"X. c #BB9551",
"o. c #B89650",
"O. c #BA9851",
"+. c #BC9C53",
"@. c #AEA34F",
"#. c #AAA74F",
"$. c #ADA64F",
"%. c #A7AE4F",
"&. c #A3B14E",
"*. c #A3B24E",
"=. c #A2B34E",
"-. c #A4B14E",
";. c #A5B04F",
":. c #A4B14F",
">. c #A5B14F",
",. c #A6B04F",
"<. c #A4B24F",
"1. c #A2B44E",
"2. c #ADA750",
"3. c #A8AF50",
"4. c #A9AF50",
"5. c #AAAE50",
"6. c #AEAD51",
"7. c #ACAE51",
"8. c #AEAE51",
"9. c #BDA254",
"0. c #BBA854",
"q. c #A8B050",
"w. c #C48752",
"e. c #C88453",
"r. c #C38C52",
"t. c #D38055",
"y. c #D78057",
"u. c #D88057",
"i. c #D88157",
"p. c #D98157",
"a. c #D18856",
"s. c #D98158",
"d. c #DA8058",
"f. c #D98258",
"g. c #DA8258",
"h. c #DA8358",
"j. c #DB8358",
"k. c #DB8359",
"l. c #DB8459",
"z. c #DB8659",
"x. c #DC8459",
"c. c #DC8559",
"v. c #DD865A",
"b. c #DE875A",
"n. c #DA8959",
"m. c #DE885A",
"M. c #DF885B",
"N. c #DF895B",
"B. c #CA9B57",
"V. c #D6965A",
"C. c #D7965B",
"Z. c #D9945B",
"A. c #DE9B5E",
"S. c #D99D5C",
"D. c #DA9D5C",
"F. c #DA9D5D",
"G. c #E0885B",
"H. c #E0895B",
"J. c #E08A5B",
"K. c #E08A5C",
"L. c #E18A5C",
"P. c #E18B5C",
"I. c #E38A5C",
"U. c #E28B5C",
"Y. c #E38B5D",
"T. c #E18D5C",
"R. c #E28C5C",
"E. c #E28C5D",
"W. c #E38C5D",
"Q. c #E38D5D",
"!. c #E48E5D",
"~. c #E58D5E",
"^. c #E68C5E",
"/. c #E68D5E",
"(. c #E78D5E",
"). c #E48E5E",
"_. c #E48F5E",
"`. c #E58F5E",
"'. c #E68E5E",
"]. c #E5905E",
"[. c #E6905E",
"{. c #E6905F",
"}. c #E7905F",
"|. c #E6915F",
" X c #E7915F",
".X c #E7925F",
"XX c #E8925F",
"oX c #E8935F",
"OX c #E0985E",
"+X c #E19A5E",
"@X c #E09B5E",
"#X c #E09D5F",
"$X c #C0A656",
"%X c #C2A656",
"&X c #C4A557",
"*X c #C8A358",
"=X c #D1A05A",
"-X c #D2A15B",
";X c #E99260",
":X c #E89360",
">X c #E99360",
",X c #E99460",
"<X c #EA9460",
"1X c #EA9560",
"2X c #EA9561",
"3X c #EB9561",
"4X c #E99761",
"5X c #EB9661",
"6X c #EA9761",
"7X c #EB9761",
"8X c #EC9561",
"9X c #ED9561",
"0X c #EC9661",
"qX c #EC9761",
"wX c #ED9562",
"eX c #EE9562",
"rX c #ED9662",
"tX c #EC9762",
"yX c #EE9762",
"uX c #E69860",
"iX c #EC9862",
"pX c #ED9862",
"aX c #ED9962",
"sX c #EE9962",
"dX c #EE9963",
"fX c #EE9A63",
/* pixels */
"O S 3X3X3X3X3XtX3XqX3X3XqX3X3X3XqX3X3XqX3XqX3X3XqXqXI = h l.3X3X3X3XqXqX3Xm.P P i O o 7 S 7 O O O O ",
"e Q 3XtX3XtX3X3XqX3X3XqXqX3XqX3X3XqXqX3XqX3X3XqX3XqXy.d / Q.3X3XqX3X3XqX3XQ.l.l.y.A i h S h e e > O ",
"S x.3XtX3X3XtX3XqX3X3XqX3X3XqXqX3X3X3X3XqX3X3XqXqXqXm.~ Q.qX3X3X3XqXqX3X3X3X3X3XqX:Xg.I S Q Q Q d & ",
"Q x.3X3XtXtX3X3X3XqX3X3XqX3X3X3XqXqX3XqX3XqX3X3XqX3Xx.~ ].iX3XqX3XqX3X3X3XqXqXqXqX3XoXx.Q l.].]./ b ",
"Q x.3X3X3XtX3X3X3X3XqX3XqX3X3XqX3X3XqX3X3XqXqX3X3X3XQ.l.].qX3X3XqX3XqXqX3X3X3XqX3XqXqX].x.].iXqXQ.l.",
"S l.3XtX3X3X3XtXqX3X3XqX3X3XqX3X3XqX3XqXqX3X3XqX3X3X3X3X3XqX3XqX3X3X3X3XqXqX3X3X3X3X3X3X3X3X3XqX3X3X",
"2 Q 3XiX3XtX3X3X3XqXqX3X3XqXqX3XqXqX3X3X3X3X3XqX].x.Q.3XqX3X3XqX3XqXqX3X3XqX3XqXqX3X3XqXqXqXqX3X3X3X",
"X x _.3X3X3X3XtX3XqX3X3XqX3X3XqX3X3XqX3X3XqXqXqX]./ l.3XqX3XqX3XqX3X3XqX3X3X3XqX3XqXqX3X3X].].qXiX3X",
"O e / ].iX3XqXqX3X3XqX3X3XqX3X3X3X3X3X3X3X3X3X3X]./ l.3X3XqX3X3X3X3XqX3X3XqXqX3X3X3X3XqX3Xl.y.].3X3X",
"d e d K.iX3X3X3XqX3X3XqX3XqXqX3XiX3XiXqX3XqXiX]./ h ~ iXiX3X3XqXqX3X3XqX3X3X3X3XqXqX3XiX3Xl.S n Q l.",
"/ x 7 g.3X3XqXqXqX3X3XqXqX3X3X3X3XqX3X3XiX3X].y.h & n ].3X3X3XqX3XqXqX3XqX3X3XqX3XqXqXoXm./ n i n / ",
"3Xl.S I x.3XqXiX3X3XqX3X3X3XqXqX3X3X3X3XiX]./ h & O i / ].iXqX3X3XqX3X3X3XqXqX3X3X3XiXl.i h ~ Q.].].",
"3X].x.Q Z K Q.iXiXiXiXiXiXqXqX3X3Xm.Q.3XiX].m./ b & 2 Q ].3X3X3XqX3X3XqX3X3XqX3XqX3XiXx.i Q Q.3XiXiX",
"3XiX3Xl.n e / _.Q.Q.Q.].oX].3XqX3Xg.g.3XiX3XqXiXQ.d i Q Q.3X3X3X3X3XqX3XqXqX3X3X3XqXqXQ./ Q.3X3XqXiX",
"tXtX3X].Q.x.n e e 7 h Q / g.].iX3X].].3X3XqXqXiX3XK.y.K Q m.3XiX3XqXqX3X3XqX3XqX3X3XqX3X].3XqXqX3XqX",
"3X3X3XiXiX3Xh O 7 2 i / l.x.oXqXiXiX3X3XqX3X3X3X3XiX].g.I p.3XiXqX3X3XqX3X3X3XqX3X3XQ.Q.3XqX3X3XqX3X",
"3X3X3X3XiX].h 2 S I y.].3X3X3XiX3XiX3X3XqX3X3XqX3X3X3XoXp.g.].qXqX3XqX3X3XqX3XqXqX:Xy.y.:XqX3XqX3X3X",
"iX3XiX3XiX3X/ h I x.].3XiXiX3X3X3X3XqX3X3XqXqX3X3XqXqX3X].m.l.].qXqX3XqX3X3X3X3XqX3Xy.g.3X3X3X3XqXqX",
"3X3X3XiXtX3Xg.Q p._.iXiX3X3X3X3X3X3X3XqX3X3X3X3XqXqX3XqXiXx.n p.].qXqXqXqX3XqXqX:XQ.S P Q.3XqX3XqXqX",
"iX3X3X3XiX].p.y.].3X3X3XqX3XiX3XiXqX3X3XqX3XqXqX3X3X3XqXiXy.> h y.].3X3X3X3X3X3Xm.S > 7 P m.3X3X3X3X",
"iXiXiXiX].l.x._.3XiX3X3X3X3X3X3X3X3XqX3X3XqX3X3X3XqX3X3XiXy.& = i h h n y.g.g.l.S 7 o O 2 i A y.g.l.",
"_.J.x.m.y.Q Q.iXiX3X3X3XiX3XiX3XiX3X3XqXqX3XqX3X3X3XqXqXiXp.& X O > 7 h Q y./ / S i i i i t h ~ / / ",
"~ b 2 > i I Q.iX3X3XiX3X3X3X3XiX3X3X3X3X3X3XqXqXqX3X3X3XiXy.& o > A l.].].:XoXoX].].].].].].].oX3X].",
"m.g.S h 7 i x.iXiXiX3X3XiX3X3X3X3XqXqX3X3XqX3X3XqX3XqX3X/ h i S y.m.:XiXqXqXqXqXiXiXiXiXqXqXqXqXqXqX",
"3XiX3Xl.h 7 l.iX3X3X3X3X3XiX3X3X3XtX3XtX3XtXtX3X3XqX3XJ.i e / ].qXqX3X3XqX3X3XqXqX3X3XqX3XqXqX3X3X3X",
"qX3X3X3Xl.S m.iX3X3XiX3X3X3XiX3X3X3X3X3X3X3X3X3X3XqXQ.~ S / ].3XqXqXqX3X3XqX3XqX3XqX3X3XqX3X3X3X3XqX",
"3X3XqXiX].x.x.Q.3X3X3XtX3X3X3X3XtX3XtX3X3XiX3XiX3XQ.S d / _.3XiX3X3X3X3X3XqX3X3X3XqX3XqX3X3X3XqX3XqX",
"3XqX3X3XiX3Xl.g.3XiX3X3XiX3XiX3XtX3X3X3X3X3XoX3XQ./ h t m.iX3X3XqX3XqXqXqX3X3XqX3X3X3XqX3XqXqX3XqX3X",
"qX3X3X3XqXqX].].3XiX3X3XtX3X3X3X3X3XiX3XiX].g./ / P / m.3XqX3X3X3XqX3X3X3XqX3X3XqX3X3XqX3X3XqX3XqX3X",
"3X3XqXqX3X3XqX3XQ.].iX3X3X3XtX3X3XQ.Q.3XiX].l.Q I p.Q.iX3X3X3XqX3XqX3XqX3X3XqXqX3XqXqX3XqX3X3XqX3X3X",
"qX3XqX3X3X3XqXQ./ m.3X3X3X3X3XtX3Xp.l.3XiX3X3Xl./ ].3XqX3XqXqX3XqX3X3XqXqX3X3X3X3X3X3X3X3XqXqX3X3XqX",
"qX3X3X3XqX3XqXQ.Q / x.3XiXiXiX3X3X_.Q.3X3X3X3Xl.~ ].iXqX3X3XqX3X3X3XqX3X3XqXqX3XqXqX3XqX3XqX3X3XqX3X",
"3X3XqX3X3X3XtXQ.Q x S J.].Q.Q.Q.Q.3X3X3X3XtX3Xm.l.].iX3X3X3XqX3X3XqX3X3X3X3XqX3X3XqX3X3XqXqX3XqX3X3X",
"qX3X3XqX3XtXtX_.Q e 2 S Q Q Q I / Q.tX3X3X3X3X3X3X3X3X3XqX3X3XqXqX3X3XqXqX3X3XqXqX3XqX3X3X3X3X3XqX3X",
"qX3X3XqXtXtXtX_.K 2 O > 2 e n S Q Q.iXiXiX;Xm._.iX3XqX3X3XqXqX3XqX3X3XqXqX3X3XqX3X3XqXqX3XqXqX3X3XqX",
"3X3XqX3X;X].OXV.e.7 = 7 7 i Q / y.K._.J._.m.S l.3XqXqX3X3XqX3X3X3X3XqX3X3XqX3X3X3XqX3X3XqX3X3XqX3XqX",
"qX3X3XtXI.~ +.8.2.0 q x._._.].3X_.g.n 7 S S > Q iX3X3X3XqX3X3XqXqX3X3X3XqX3X3XqX3XqXqX3X3X3XqX3XqX3X",
"qX3XtXtXZ.X.#.=.,.| m _.iXiXtXtX3XQ.~ i 7 2 O Q qXiX3XiX3XqX3XqXqX3XqX3X3XqX3XqXqX3X3XqX3XqXqX3X3X3X",
"3X3XqXtX-X4.,.%.2.r.g.oXtX3X3X3X3XiX_.~ i & & Q qXiX3X3X3XqX3X3X3X3XqX3X3XqX3X3X3X3X3X3X3X3X3X3X3XqX",
"qX3X3XtX-X,.=.@.w.n.oX3X3XtX3X3X3X3X3X_./ i O Q iX3X3X3XqX3X3XqXqX3X3XqXqX3X3XqX3XqXqX3XqXqX3XqXqX3X",
"tX3X3XtXV.O.9.B.l._.tX3XtX3XtX3XiX3XiXqXQ./ i I K.3XtX3XtX3X3X3X3XqX3X3XqX3X3XqX3XqX3X3XqX3X3XqXqX3X",
"3X3XtX3XQ.~ Q.3X3XtX3XtX3X3XtX3X3X3X3X3X3X_./ I / ].tX3X3X3XtX3X3X3XqXqX3X3XqX3XqX3XqX3X3XqX3X3X3XqX",
"3X3X3XtX;X_.;XtXtX3X3X3XtX3X3X3XiX3XiX3X3X3X_./ / ].iXtX3X3X3XtXqX3XqX3X3XqXqX3X3X3XqXqX3XqXqX3X3X3X",
"3XtX3X_.].3XtX;X3X3XtX3X3X3X3XtX3X3X3X3X3XiX3XQ.g.K.].tXtXtX3XtX3XqX3X3XqX3X3XqX3XqX3X3XqX3X3XqXqX3X",
"tXtX}.} g.3X3XtX3XtX3XtX3X3X3XtXiX3X3X3X3X3X3X3X]./ x.;X3X3XtX3X3X3XqX3X3XqX3X3X3XqXqX3X3X3XqX3XqX3X",
"tX_.g.L p.3XtXtXwXwXtX3X3XtX3X3X3X3X3XiX3XiX3XiXoX! n S _.iXtX3XqX3X3XqX3XqXqX3XqX3X3XqX3XqXqX3X3X3X",
"F.a.b Q m.3XA.D.D.D.A.3XtX3XtX3X3XqX3X3XiX3X3XiX].g.d = Q K._.;XqXqXqX3XqX3X3X3X3X3X3X3X3X3X3XqXqXqX",
"8. .2 j.3XoX%X8.6.8.0.OXwXtX3X3X3XiX3XiX3X3X3XiX3X3XI & = d ! _.3X3XqX3X3X3XqXqX3XqXqX3XqXqX3X3XqXqX",
",...h I.#X&X8.*.*.*.4.0.D.tXtX;XtX3X3X3X3X3XtX3XtXtXQ O o & y x Q l.].qXqXqX3XqXqX3X3XqX3X3XqX3XQ.l.",
",.o./ _.-Xq.,.,.,.,.,.,.*X3XtX3X3XtXtX3XtX3X3X3XtXtXQ o O O O o > S N.qX3X3X3X3X3XqXqX3X3XqXqX3Xx.S "
};
