/* XPM */
static char *FieldsTile_06[] = {
/* columns rows colors chars-per-pixel */
"50 50 72 1 ",
"  c #B35744",
". c #B55A45",
"X c #B85D47",
"o c #BA5F48",
"O c #B66547",
"+ c #B16D47",
"@ c #BD6149",
"# c #AE7B49",
"$ c #B27649",
"% c #B9754B",
"& c #B67B4B",
"* c #C1664B",
"= c #C56B4D",
"- c #C86F4F",
"; c #C3764F",
": c #CC7351",
"> c #CC7E53",
", c #D07653",
"< c #D47C55",
"1 c #AF8B4C",
"2 c #B4834C",
"3 c #A9964B",
"4 c #A99C4D",
"5 c #B6934F",
"6 c #BE8F51",
"7 c #B99551",
"8 c #B49C50",
"9 c #BA9D52",
"0 c #A7A74E",
"q c #ACA54F",
"w c #A7AF4F",
"e c #A9AC4F",
"r c #A6B04F",
"t c #AEA450",
"y c #ABAE50",
"u c #B1A250",
"i c #BDA655",
"p c #B4AA52",
"a c #BAA954",
"s c #A9B050",
"d c #C68552",
"f c #CB8353",
"g c #C38B52",
"h c #CA8B54",
"j c #D58156",
"k c #D88057",
"l c #D38A57",
"z c #DC8459",
"x c #DD895A",
"c c #C49354",
"v c #C39A55",
"b c #C89E57",
"n c #D6935A",
"m c #DC935C",
"M c #D49D5B",
"N c #DB9C5D",
"B c #E1875B",
"V c #E38D5D",
"C c #E98E5F",
"Z c #E6925F",
"A c #E8925F",
"S c #E29A5F",
"D c #C3A557",
"F c #C7A458",
"G c #CBA259",
"H c #D1A15A",
"J c #D8A05C",
"K c #E79760",
"L c #EB9661",
"P c #E69960",
"I c #ED9862",
"U c #F09462",
/* pixels */
"rrwrsrrwrwrrsrrwrrrrrrrwrwrrrrrwwwrrrrrrrwrrrrrwwr",
"wrrrrrrrrwwrrrwrrsrrrrrrrrrrwrrre858wrrrrwaFFFawrw",
"rwrrrrrrrrrrrrrrrrrwrswrwrrrrwyy9<<furrrrsHAILJprr",
"rrrrrrrrrrwrrwrwwwrrrwrrrwsrr4hnNCCBf8rrrrpGKLNsrr",
"rrw49DiarrrrrrrrrwwrrwrwrrrwugznHHHMxh8errraSLSFi8",
"rrthzSLMprrrwrrrrrrrwrrrrrrqdzSarwwamxfqrwwDLLKAz>",
"ruhxCUUKMprrrwrrsrrwrrrrrr3%jNiyrrrwaMmprwFNLLLLZB",
"r7<nJMNNLHpsrrrrrrrrrsrrwu2*BHsrrwrrwFSFpuNULLLIZZ",
"r7>ursyaSLNprrrrrrrrrrwrtd,,CHyrrrrrrFKKljVLLLLLx,",
"r7>urrryDNPHprrrrrrrrrr8g>,<CHwrrrwrrFIUB,<VLLAx-@",
"r7>9yrwryGLLMpuqttutppac<,<<ZNpwrrrrpHKLC<,<CAZ<-*",
"r7<VGwrwwHLLPSf>>ffflNSSV<kALLNarrrpMAILLZj,<VLZCV",
"rqcSSGGGGNLLLLBBxzzBCLLUL<xLLLLMFGFHKULLKLVxxCLLKI",
"rryNLLLLLLLLLLLLLLLLLLLLV<zLLLLLLLLLILLLLLAALLLLLL",
"rryNLLLLLLLLLLLLLLLLLLLB<,xLKLLLLLLLLLLLLLxzLLLLLL",
"rrsDNLLLLLLLLLLLLLLLLLLx:=<LILLLLLLLLLLLLL<<LILLLL",
"rrwrDPLLLILLLLLLLLLLLLLx-X:ALLLLLLLLLLLLLA<<ALLLLL",
"wrrryaNLLLLLKLLLLLLLLLL,X =kAILLLLLLLLLLIL:=kALLLL",
"rrrrrrMLLLLLLLLLLLLLLKC,-==-zZLLLLLLLLLLA<@X=<ALII",
"rrrrryMULLLLLLLLLLLLLZ<xZL,@-zLLLLLLLLLL<oX X-kALA",
"wwrrqgmLLLLLLLLLLLLLLC<BIKC,*:LILIILKCzk,=XX*-<<kz",
"reupvjVLLLLLLLLLLLLLZz:<ZLIZ--zxxxxxxj:<k<--<kk<j<",
"r7fmPLLLLLLLLLLLLLLLx:@-kAKL<=@o@X@@@=<CAAZAAAAAAA",
"r7<CILLLILLLLLLLLILx,:,kBLCz,:*X  X=,<BLIILIIILIIL",
"r5:xCLLLZLLLILILLCk::zLIKIV<<<:@ o-zALLLLLLLLLLLLL",
"r1XX:LKCkVLLLLIIZ:@@<ZLLLLAZZx,@X-xALLLLLLLLLLLLLL",
"r4#O*,zz,kx<,<,jz-*:VILLLLIILAz*@xAILLLLLILLLLLLLL",
"rre+ O;>,<:@X @*,>kLLLLLLLLLLLZ-=ALLLLLLLLLLLKLLLL",
"rrq++3qvZCx:@X*<CCZLILLLLLLLLLL<<ALLLLLLLLLLLLLLLL",
"rrq%&yrpGPZ,-*<VLLKLLLLLLLLLLLLkkALLLLLLLLLLLLLLLL",
"rred6rrryHZ<:,CLLLLLLLLLLLLLLLL<kLILLLLLLLLLLLLLLL",
"rrqdgrrrrGLCj<ZILLLLLLLLLLLLLLLk<LKLLLLLLLLLLLLLLL",
"rrw768wrrGULVkZLLLLLILLLLLLLLIA,,AILLLLLLLLLLLLLLL",
"rrww7d8ryHLLLLLLLLLLLLLLLLLLLKA--ZILLLLLLLLLLLLLLL",
"rrwre7bHHNLLLLLLLLKLLLLLLLLLLIA=*ZILLLLLLLLLKLLLLL",
"wrrrrwMCZALLLLLLLLLLLLLLLLLLLLV--ZLLLLLLLLLLLLLLLL",
"rrwrrsh,<VILLLLLLLLLLLLLLLLLIV<:<AILLLLLILLLLLLLLL",
"rwrwrwg,zZLLLLLLLLLLLLLLLLLLIB<kVLLLLLLLLLLLLLLLLL",
"wwrrrwgzALLLLLLLLLLLLLLLLLLLKB,xLLLLLLLLLLLLLLLLLL",
"rrwrrsMCLLLLLLLLLLLLLLLLLLLKIk*zILLLLLLLLLLLLKLLLL",
"rrrre7mLLLLLLLLLLLLLLLLLLLLLI<@kILLLLKLLLLLLLLLLLL",
"rrrr8>CLLLLLLLLLLLLLLLLLLLLLL<@kILILLLLLLLLLLLLLLL",
"rrrr8,VLLLLLLLLLKLLLILLLLLLLx-X<ILLLLLLLLLLLLLLLLL",
"rrrr9zCLLLLLLLLLLLLLLLLLLLLA<-*zILLLLLLLLLCmNHNLLL",
"rrrrDSLLLLLLLLLLLLLLLLLLLLLA<,<VLLLLLLLLKLjgeraSUL",
"rrrraPUULULLLLLLLLLLLLLLLLIA--BLLLLLLLLLIAvqwrpSLL",
"rrrqvZNJNNNLLLLLLLLLLLLLLLLx*=LILLILLLLLLZarwevSLL",
"rreg,<9pyyaSLLLLLLLLLLLLLIB,o-SILLLLLLLIB>8rw7jAIA",
"rug>>7errrwiNLLLLLLLLLLLLLk@X@:::::,zVLKk*$27lCAND",
"r7,,6wrwrrrrFLLLLLLLLLLLIK,X   X   @:xLI<X @,VLLDr"
};
