/* XPM */
static char *FieldsTile_25[] = {
/* columns rows colors chars-per-pixel */
"50 50 68 1 ",
"  c #B45644",
". c #B55A45",
"X c #B95D47",
"o c #BA5F48",
"O c #AF6745",
"+ c #B36446",
"@ c #B76648",
"# c #BE634A",
"$ c #BD6F4B",
"% c #B37249",
"& c #BF754D",
"* c #BD7C4E",
"= c #C1664B",
"- c #C56A4D",
"; c #C86F4F",
": c #C9704F",
"> c #CD7451",
", c #CD7B53",
"< c #D07753",
"1 c #D47C55",
"2 c #AC864A",
"3 c #AC8C4B",
"4 c #AC934C",
"5 c #AB9C4D",
"6 c #B5964F",
"7 c #B39B4F",
"8 c #BF8450",
"9 c #BE8E51",
"0 c #BA9451",
"q c #B59A50",
"w c #9DB34D",
"e c #A6A64D",
"r c #ABA74F",
"t c #A6AD4F",
"y c #AAAB4F",
"u c #A5B14F",
"i c #ACAD50",
"p c #B4A552",
"a c #BDA555",
"s c #B2AB52",
"d c #BAA854",
"f c #A5B550",
"g c #AAB050",
"h c #C58452",
"j c #CB8453",
"k c #C38A52",
"l c #CC8B55",
"z c #D38657",
"x c #D88057",
"c c #D28957",
"v c #DC8459",
"b c #DE895B",
"n c #CE9157",
"m c #C09953",
"M c #CC9C58",
"N c #D49459",
"B c #D59F5B",
"V c #DB9C5D",
"C c #E38D5D",
"Z c #E6915F",
"A c #E8925F",
"S c #E4995F",
"D c #C3A457",
"F c #C9A258",
"G c #EB9661",
"H c #E79960",
"J c #ED9862",
"K c #F09462",
/* pixels */
" >GGGGGGGGGGGGGGGGGGGGGGGG<o;vGGGGGGGv><9tuq,quuuu",
"=1GGGGGGGGGGGGGGGGGGGGGGGGx-1CGGGGGGGCvvNDiy00qtuu",
">vGGGGGGGGGGGGGGGGGGGGGGGGb1CGGGGGGGGGGGJSagskjpiy",
"<bGGGGGGGGGGGGGGGGHGGGGGGGHCGGGGGGGGGGGGJJVVBZCVnh",
",vGGGGGGGGGGGGGGGGGGGGGGGGGGGGGGGGGGGGGGGGGGGKJGCx",
">vGGGGGGGGGGGGGGGGGGGGGGGGGGGGGGGGGGGGGGGGGGGGGGGG",
"#<GGGGGGGGGGGGGGGGGGGGGbvAGGGGGGGGGGGGGGGGGGGGGGGJ",
" >CGGGGGGGGGGGGGGGGGGGGv1ZGGGGGGGGGGGGGGGGGGGGJGCC",
" =1ZJGGGGGGGGGGGGGGGGGGv1ZGGGGGGGGGGGGGGGGGGGGGGb,",
"-#=CJGGGGGGGGGGGGGGGGGGv1ZGGGGGGGGGGGGGGGGGGGJC<h6",
"x:=vZZGGGGGGGGGGGGGGGGGx<ZGGGGGGGGGGGGGGGGGGGAv%4u",
"Zv><11CGGGGGGGGGGGGGGGG>=CJGGGGGGGGGGGGGGGGJGvj5tu",
"GZb<><xbbbCGGGGGGGGGCvv-#CJGGGGGGGGGGGGGGGGGGnquuu",
"GJZx<111<><ZAAZGGGGHv11-#bGGGGGGGGGGGGGGGGGGVduutu",
"GGG1xCZZC>#<x11bGGGGZZZ1>1bGGGGGGGGGGGGGGGGVdiuuuu",
"GGAbCGGJG<=>1vvbGGGGGGGZx;xGGGGGGGGGGGGGGGGBuuutuu",
"GGGGGGGGGb<<bGGGGGGGGGGJC#>AGGGGGGGGGGGGGGJBguuuui",
"GGGGGGGGGZC<bJGGGGGGGGGJC##vAGGGGGGGGGGGGGJBguuuuu",
"GGGGGGGGGGC><CGGGGGGGHCb<#X;vZGGGGGGGGGGGGGN4yuuut",
"GGGGGGGGGJC#=1ZJGGGGGZ1-#  #;vGGGGGGGGGGGJJx@3uuuu",
"GCvZGGGGGJb# =1xvZGGGGCv<;# +;xAJGGGGGGGGGJ1X+2tfu",
"Zx>CJGGGGJC=X#<xxCGGGGGGGb>-=;>bZGGGGGGGGGJv##&q55",
"1-#bGGGGGGC<>>CAAGGGGGGGGACCCb<<xGGGGGJJGGGC<xC,&+",
"b1=;vGJJJv>>1CGJGGGGGGGGGGJJJZbCbv<<GJJJJGbxCGC1*2",
"GC<=-CCCC:#,CGGGGGGGGGGGGGGGGGGJC1=#vCCCGZvxGJZjqu",
"GGC,-=###-<CGGGGGGGGGGGGGGGGGGGGGZx>##=>bGGZGJVptu",
"GGGC1#  #<CGGGGGGGGGGGGGGGGGGGGGGJZ<X#,xCGGGGVDguu",
"GGGGC<##>bGGGGGGGGGGGGGGGGGGGGGGGGJC#<GGGGGGSduutu",
"GGGGGb-#>CGGGGGGGGGGGGGGGGGGGGGGGGJC>xGGGGGVdiuuuu",
"GGGGGG>#>CGGGGGGGGGGGGGGGGGGGGGGGGGC1bGGGGVDttuutu",
"GGGGGGx><CGGGGGGGGGGGGGGGGGGGGGGGGJZ1bGGGAdttfftuu",
"GGGGGGx,>bGGGGGGHGGGGGGGGGGGGGGGGGJZ<bGGJHsttftuuu",
"GGGGGZx<xZGGGGGGGGGGGGGGGGGGGGGGGGZb<bGGJAduuuutft",
"GGGGGGx1ZGGGGGGGGGGGGGGGGGGGGGGGGGb,,vGGGSsuuuuutt",
"GGGGJG>>GJGGGGGGGGGGGGGGGGGGGGGGGGx,0aFSJSduuuftuf",
"GGGGGC==bGGGGGGGGGGGGGGGGGGGGGGGJGvhiuiVKAduutftuu",
"GGGGC1##<CGGGGGGGGGGGGGGGGGGGGGGGGvhrusVJAduiuuutu",
"GGGJb=#->CJGGGGGGGGGGGGGGGGGGGGGZblqtusVJHBauuuuuu",
"GGGGx#;11bGGGGGGGGGGGGGGGGGGGGGGC>6tutpVGJGVsiytuu",
"GGGJb>vZCxxHGGGGGGGGGGGGGGGGGGGGv=3fuqjZGGGGVl9tuu",
"GGGCv<CJJ1;bCGGGGGGGGGGGGGGGJJJA1+3uf0vGJGGGGCz0ru",
"GJZx<1CGG>o:bGGGGJGGGGGGGGGGGJCx-.3iiMGGGGGGGGC10r",
"GGZ11CGZ1<-#-bZJJJJJGGGGGGJGGCx-X jVVSGGGGGGJJGCzh",
"GJGxxGJCxx1>><1x1CCJJJGGJGACGC1-XX1JJGGGGGGABBVGC<",
"GGZxxGJGGGGZb>#Xo>xCZGGGGJb1CJGx-o1JGGGGGGGBsudS1<",
"GZvbCGGGGGGJCCx11<>;->1v1x11AJJCx>vJGGGGGGJBtwsSC<",
"Z1>CJGGGGGGGGJJJGb<-=-1111,lNVVHC>1GJJGGGGGVdsDHch",
"1-#bGGGGGGGGGGGJGGACCZZGGZMiigsBv=-1CGGGGGGGSSHGFt",
"==-CJGGGGGGGGGGGGGGJJJGGJJl2eut8-Xo-xCGGGGGGGGAFsu",
" #1ZJGGGGGGGGGGGGGGGGGGGGG1+5ft%   o>CGJGGGGGKViuu"
};
