/* XPM */
static char *FieldsTile_62[] = {
/* columns rows colors chars-per-pixel */
"50 50 68 1 ",
"  c #B35744",
". c #B55945",
"X c #B85D47",
"o c #BB5F48",
"O c #BD6249",
"+ c #B56C48",
"@ c #AD7F49",
"# c #B47249",
"$ c #B9764B",
"% c #C1664B",
"& c #C46A4D",
"* c #C86F4F",
"= c #C47A4F",
"- c #CC7351",
"; c #CD7C53",
": c #D07753",
"> c #D47C55",
", c #AD8B4B",
"< c #B1854B",
"1 c #BA874F",
"2 c #B18C4C",
"3 c #A9924B",
"4 c #AC9C4D",
"5 c #B19E4F",
"6 c #BF8550",
"7 c #BC8F51",
"8 c #BA9551",
"9 c #B49C50",
"0 c #BB9D53",
"q c #A6A14C",
"w c #ACA54F",
"e c #A6AE4F",
"r c #A8AD4F",
"t c #A5B04F",
"y c #ACAD50",
"u c #B3A251",
"i c #BEA755",
"p c #B3AB52",
"a c #BAA954",
"s c #A8B050",
"d c #C18651",
"f c #CB8253",
"g c #C48C53",
"h c #C98A54",
"j c #D68257",
"k c #D88057",
"l c #D38A57",
"z c #DB8459",
"x c #DF885B",
"c c #C39153",
"v c #C59855",
"b c #C99F57",
"n c #D39158",
"m c #DC945C",
"M c #D49D5B",
"N c #DA9C5C",
"B c #E38D5D",
"V c #E6915F",
"C c #E8925F",
"Z c #E3995F",
"A c #C3A556",
"S c #C7A458",
"D c #CBA259",
"F c #D1A05A",
"G c #EB9661",
"H c #E69860",
"J c #ED9862",
"K c #F09663",
/* pixels */
" -GGMyttttttSGGGGGGGGGGGGG>X*zGGGGGHGB::&X O-%   X",
"%>GKFsttttttSGGGGGGGGGGGGG>&>BGGGGGGGBzz>-&&-*%%O ",
":zGGMpttttsyDGGGGGGGGGGGGGz>BGGGGGGGGCGGGCk:::>>&X",
":zGGHMptttpMZGGGGGGGGGGGGGB:BGGGGGGGGGGGJGCx>zBB>*",
"gnGGGGDAiiDZGGGGGGGGGGGGGGBzCGGGCGGGGGGGGGJVzBJGBz",
"eSGGGGHHGGHGGGGGGGGGGGGGGCGGGGGGGGGGGGGGGGGGGGGGGC",
"tAGGGGGKGKGGGGGGGGGGGGGGVzBGGGGGGGGGGGGGGGGGGGGGGG",
"eABGGGGGGGGGGGGGGGGGGGGGV>zGGGGGGGGGGGGGGGGGGVVGJG",
"t8>VGGGGGGGGGGGGGGGGGGGJV>zGGGGGGGGGGGGGGGGGGzkVGG",
"t,%BGGGGGGGGGGGGGGGGGGGV>&>GJGGGGGGGGGGGGGGJGz--:z",
"t3#zGGGGGGGGGGGGGGGGGGC>&X-CGGGGGGGGGGGGGGGCx>*%->",
"te4fzGGGGGGGGGGGGGGGGV>&X %>VGGGGGGGGGGGGGJz%*>BVV",
"ets9d:BJJJJJGJGGGBxGJCx>-XO>BGGGGGGGGGGGGGJz&:BGJG",
"tttt3+jBBBBVVCGGGkzCGGGJB&&:BGGGGGGGGGGGGGJB>BJGGG",
"ttttr4$O%%&>>zVGGVVGGGGGCBj:>zGGGGGGGGGGGGHGVCGGGG",
"ttstst,#OO&>zzCGGGGGGGGGGGVz:kGGGGGGGGGGGGBBGJGGGG",
"tttsttt5;:kBGGGGGGGGGGGGGGGVjkCGGGGGGGGGGCkkCGGGGG",
"stettttu;zVGGGGGGGGGGGGGGGGGBBzBGGGGGGGGGGkkGJGGGG",
"tetttttujBGGGGGGGGGGGGGGGGGGGB->VGJGGGGGCB-:BCGGGG",
"tttrtttiZGGGGGGGGGGGGGGGGGGGG>O&kVGCGGGGB:OO-BGGGG",
"tsttttANGGGGGGGGGGGGGGGGGGGGJ>Xo&**->zzz-O  O&-k>z",
"ttttruNGGGGGGGGGGGGGGGGGGGGGJk   XO&>k>>-%%&&%&>>z",
"test5;BGGGGGGGGGGGGGGGGGGGGGJkX O-zVCCCCVBVBVBVCCC",
"@<7<+%BGGGGGGGGGGGGGGGGGGGJG>*&->xCJJGJGGJJJGJJJGG",
"X&>&o%zGGGGGGGGGGGGGGGGGGGGB%%jBGGGGGGGGGGGGGGGGGG",
"->BB>:BGGGGGGGGGGGGGGGGGGGB>->VGGGGGGGGGGGGGGGGGGG",
"BBGGGzzBGGGGGGGGGGGGGGGGGB-&>BGGGGGGGGGGGGGGGGGGGG",
"GGGGGCzkGGGGGGGGGGGGGGCGB>&%BJGGGGGGGGGGGGGGGGGGGG",
"GGGGGGBCGGGGGGGGGGGGJVkk>:>xVGGGGGGGGGGGGGGGGGGGGG",
"BBGGGGGGBBGGGGGGGBBGGVz::kBJGGGGGGGGGGGGGGGGGGGGGG",
":zGGGGGB>BGGGGGGCzzCGGGz>VGGGGGGGGGGGGGGGGGGGGGGGG",
"9czCGGGB:>zGJJJJGBBGGGGz>VJGGGGGGGGGGGGGGGGGGGGGGG",
"t9gVGGGB-=gMmVBBBGGGGGGBkCJGGGGGGGGGGGGGGGGGGGGGGG",
"ttpNGGKzO,ssc:::>VGGGGGCCGGGGGGGGGGGGGGGGGGGGGGGGG",
"tttaMGKn2qtt,%--:BJJJCxVHGGGGGGGGGGGGGGGGGGGGGGGGG",
"etttaNCMyttp1&:k>BBBBx-zGGGGGGGGGGGGGGGGGGGGGGGGGG",
"ttttsphhytpNVBCCBz-%--O>GGGGGGGGGGGGGGGGGGGGGGGGGG",
"tttttrd;DSDGGJJJGB:%%O :GJGGGGGGGGGGGGGGGGGGGGGGGG",
"tttttrgzVGGGGGGGGJB>&  >JJGGGGGGGGGGGGGGGGGGGGGGGG",
"ettrtrMVGGGGGGGGGGGV>&X>GGGGGGGGGGGGGGGGGGGGGGGGGG",
"ttttw0mKGGGGGGGGGGGGB>&:BGGGGGGGGGGGGGGGGGGGGGGGGG",
"tstt9:BGGGGGGGGGGGGGHB>:>VJGGGGGGGGGGGGGGGGGGGGGGG",
"sttt9:BGGGGGGGGGGGGGGGB>>BJGGGGGGGGGGGGGGGGGGGGGGG",
"tttt9zBGGGGGGGGGGGGGGJGBzBCJGGGGGGGGGGGGGGBmNMNGGG",
"ttttiZGGGGGGGGGGGGGGGGGGB>zCHGGGGGGGGGGGGGkgytaZGG",
"stttiHKKGKGGGGGGGGGGGGGJV>--BJJGGGGGGGGGGZvwetpZGG",
"tttpDGZNNNNGGGGGGGGGGGGJCz&X:BBGGGGGGGGGGCptewvZGG",
"styFGZAypyaZGGGGGGGGGGGGGG: O%>BGGGGGGGGKZatr8jZGG",
"t5cZZAytttriNGGGGGGGGGGGGJ>  X%*:zBGGGGGGZd<7lBCNS",
"t8>BFrttttttSGGGGGGGGGGGGG:X  X O-BJGGGGJV&o:BGGAe"
};
