/* XPM */
static char *FieldsTile_14[] = {
/* columns rows colors chars-per-pixel */
"50 50 61 1 ",
"  c #B35644",
". c #B55945",
"X c #B95D47",
"o c #BA5F48",
"O c #BE6349",
"+ c #AE7F49",
"@ c #B27F4A",
"# c #BC784D",
"$ c #C1664B",
"% c #C56B4D",
"& c #C86F4F",
"* c #C2764E",
"= c #C9704F",
"- c #CD7451",
"; c #C57950",
": c #CB7E53",
"> c #D07753",
", c #D47C55",
"< c #AF864B",
"1 c #B58A4D",
"2 c #B1914D",
"3 c #B69550",
"4 c #B99651",
"5 c #B69C51",
"6 c #B99A52",
"7 c #ACA54F",
"8 c #A6AE4F",
"9 c #AAAA4F",
"0 c #A5B14F",
"q c #AFA350",
"w c #ACAC50",
"e c #BEA655",
"r c #B1AB52",
"t c #BCA855",
"y c #A9B050",
"u c #C48451",
"i c #CA8053",
"p c #C28C52",
"a c #D18055",
"s c #D88057",
"d c #D08C57",
"f c #DB8459",
"g c #DF895B",
"h c #C79555",
"j c #C39C55",
"k c #C89956",
"l c #CD9B58",
"z c #DA965C",
"x c #D49E5B",
"c c #DB9C5D",
"v c #E38C5D",
"b c #E6915F",
"n c #E8925F",
"m c #E3995F",
"M c #C2A656",
"N c #C7A358",
"B c #CAA359",
"V c #D1A05A",
"C c #EB9661",
"Z c #E69960",
"A c #ED9862",
/* pixels */
".$>>p8088888NACCCCCCCCCCCC,X&fCCCCCCCf,-%. $-O....",
"+u,vhw000000NCCCCCCCCCCCCC,%,vCCCCCCCvff,-$%-&$Oo ",
"8MCCxr80080wBCCCCCCCCCCCCCg,vCCCCCCCCCCCCbf,,,,,%.",
"0MCCgu7000wVZCCCCCCCCCCCCCCvCCCCCCCCCZCCCCCvvbvv,=",
"4lCAvfktMtBZCCCCCCCCCCCCCCCCCCCCCCCCCCCCCCCCCCACvf",
"-fCCCCCZCCCCCCCCCCCCCCCCCCCCCCCCCCCCCCCCCCCCCCCCCC",
"O,AACCCCCCCCCCCCCCCCCCCvfCCCCCCCCCCCCCCCCCCCCCCCCC",
" *xxmCCCCCCCCCCCCCCCCCCf,vCCCCCCCCCCCCCCCCCCCCCACv",
" @wwMCCCCCCCCCCCCCCCCCCf,bACCCCCCCCCCCCCCCCCCCCCf,",
"%100tCCCCCCCCCCCCCCCCCCf,bACCCCCCCCCCCCCCCCCCAv---",
",hq9jvCCCCCCCCCCCCCCCACs>vACCCCCCCCCCCCCCCCCCCf%-,",
"bgi:,,vCCCCCCCCCCCCCCCC-$vACCCCCCCCCCCCCCCCCCf,vvv",
"Cvv>>>,vfgvbCACCCCCCvff%OvACCCCCCCCCCCCCCCCCCvfCAA",
"CZC,>>,,,-,vCbbCCCCCf,,%$fCCCCCCCCCCCCCCCCCCCCCCCC",
"CAC,,vvCv-O>,,,fCCCCbbb,-,vCCCCCCCCCCCCCCCCv,vCCCC",
"CCCfvCAAC,$-,ffvCCCCCAAv,&,CACCCCCCCCCCCCCCv,vCCCC",
"CCCCCCCCCf,-fCCCCCCCCCCAvO-bCCCCCCCCCCCCCCAv,gCCCC",
"CCCCCCCCCCf,gCCCCCCCCCCAvO$fbCCCCCCCCCCCCCCv,vACCC",
"CCCCCCCCCCv-,vCCCCCCCCvf,oo-fbCCCCCCCCCCCCCg=,vCCA",
"CCCCCCCCCAvO$,vCCCCCCn,%o..o=fCCCCCCCCCCCCCfO%sCCC",
"CvfCCCCCCAgO.$,ffbCCCCvf,&O.X&fvCCCCCCCCCCAf..$,ff",
"vs-vACCCCAv$XO,,svCCCCCAbf-$$&>fbCCCCCCCCCCfOO&,,,",
",%OfCCCCCCv,->vCbCCCCCCCCCbbbf,>fbCCCCCCCCCv,fvCbC",
"f,$-fAAACf--,gCCZCCCCCCCCCCAAbvfff,,CAACCCgfgCCCCC",
"Zv,O%vvvv&O-vCCCCCCCCCCCCCCCCCCCv,$$fvvvCbffCCCCCC",
"CCv,%$OoO$,vCCCCCCCCCCCCCCCCCCCCCC,=$O$,fCbCCCCCCC",
"CCCv,O..$,vCCCCCCCCCCCCCCCCCCCCCACv,oO-,vCCCCCCCCC",
"CCCCv,Oo-gCCCCCCCCCCCCCCCCCCCCCCCCAf$>CCCCCCCCCCCC",
"CCCCCv$o,gCCCCCCCCCCCCCCCCCCCCCCCCAv>fZCCCCCCCCCCC",
"CCCCCC-$-gCCCCCCCCCCCCCCCCCCCCCCCCCC,fCCCCCCCCCCCC",
"CCCCCC,>,gCCCCCCCCCCCCCCCCCCCCCCCCCv,fCCCCCCCCCCCC",
"CCCCCCf>-gCCCCCCCCCCCCCCCCCCCCCCCCCC,fCCCCCCCCCCCC",
"CCCCCC,,fvCCCCCCCCCCCCCCCCCCCCCCCCCf,fCCCCCCCCCCCC",
"CCCCCC,,bCCCCCCCCCCCCCCCCCCCCCCCZCf,,fCCCCCCCCCCCC",
"CCCCCb--nACCCCCCCCCCCCCCCCCCCCCCCCf>fbCCCCCCCCCCCC",
"CCCCCv##zZCCCCCCCCCCCCCCCCCCCCCCCCf,bCCCCCCCCCCCCC",
"CCCCv,39rxCCCCCCCCCCCCCCCCCCCCCCCCf,CCCCCCCCCCCCCC",
"CCCCz4900xCCCCCCCCCCCCCCCCCCCCCCvvfvCCCCCCCCCCCCCC",
"CCCCxw00qlCCCCCCCCCCCCCCCCCCCCCAv>fACCCCCCCCCCCCCC",
"CCCCx807u:fCCCCCCCCCCCCCCCCCCCCAf$,ACCCCCCCCCCCCCC",
"CCCvd4elf-=fCCCCCCCCCCCCCCCCCCCC,o,CCCCCCCCCCCCCCC",
"CCC,-,vCb-o=fCCCCCCCCCCCCCCCCCb,%o,ZCCCCCCCCCCCCCC",
"CCb,svCbf-%O=fbCCCCCCCCCCCCCCv,&..,CCCCCCCCCCCCCCC",
"CAC,fCAvf,,---,ffgbCCACCCCbvCb,%oX,CCCCCCCCCCCCCCC",
"CCC,fCCCCCCCf-OoO=fbCCCCCCf,vCCf%o,CCCCCCCCCCCCCCC",
"f,fvbCCCCCCAbgf,,,-%$-,fff,,CACvf=fCCCCCCCCCCCCCCC",
"u;-vCbzczxcCCCCACf>%$%,,,,--,vCAv-fbCCCCCCCCCCCCCC",
"w<$fvs6wwwtZCCCCCCbvbvbCCb,oo-CAfO&,CCCCCCCCCCCCCC",
"01&,d4w0008exCCCCCCAAACCAA,  O--%.o%fvCCCCCCCCCCvf",
"06->p8088000BCCCCCCCCCCCAC,..  ....o-fCCCCCCCCCCf>"
};
