/* XPM */
static char *FieldsTile_63[] = {
/* columns rows colors chars-per-pixel */
"50 50 71 1 ",
"  c #B35744",
". c #B55945",
"X c #B95D47",
"o c #BA5F48",
"O c #BE634A",
"+ c #B76A49",
"@ c #BE6C4B",
"# c #AD7F49",
"$ c #B27F4A",
"% c #C1664B",
"& c #C56A4D",
"* c #C96E4F",
"= c #C3764F",
"- c #C9704F",
"; c #C4784F",
": c #CD7451",
"> c #C77D51",
", c #D07753",
"< c #D47B55",
"1 c #D87E57",
"2 c #B3834B",
"3 c #B58A4D",
"4 c #AF9B4E",
"5 c #B19D4F",
"6 c #BE8E51",
"7 c #B79650",
"8 c #BC9151",
"9 c #B59C51",
"0 c #BB9A52",
"q c #ACA34F",
"w c #A7AF4F",
"e c #A9AC4F",
"r c #A5B04F",
"t c #ABAE50",
"y c #B1A350",
"u c #BEA655",
"i c #B5AA53",
"p c #BBA954",
"a c #AAB050",
"s c #C28250",
"d c #CC8354",
"f c #C48B52",
"g c #CA8F55",
"h c #D38356",
"j c #D88057",
"k c #D18A56",
"l c #DC8459",
"z c #DF895B",
"x c #C39654",
"c c #C99255",
"v c #C19854",
"b c #C89C57",
"n c #CE9958",
"m c #D19558",
"M c #D8915A",
"N c #D49E5B",
"B c #DB9C5D",
"V c #E0875B",
"C c #E38C5D",
"Z c #E88F5F",
"A c #E6915F",
"S c #E8925F",
"D c #E3995F",
"F c #C3A556",
"G c #C7A458",
"H c #CDA159",
"J c #D2A05B",
"K c #E79760",
"L c #EB9661",
"P c #E69860",
"I c #ED9862",
/* pixels */
".%,,ftrrrrrrGLLLLLLLLLLLLL<.*lLLLLLLLz,,&  O:@ ...",
"#sllcrrrrrrrGLLLLLLLLLLLLLj%<CLLLLLLLCll1:%&:&O%X ",
"wFLLmtrrrrrtHLLLLLLLLLLLLLz1CLLLLLLLKLLLLAl<,<<<&.",
"rFLICfqrrriJDLLLLLLLLLLLLLKALLLLLLLLLLLLLLAAACAA1*",
"9nLIZjbuuuGKLLLLLLLLLLLLLLLLLLLLLLLLLLLLLLLLLLILCj",
":lLLLLLKLLLLLLLLLLLLLLLLLLLLLLLLLLLLLLLLLLLLLLLLLL",
"%,LILLLLLLLLLLLLLLLLLLLVlSLLLLLLLLLLLLLLLLLLLLLLLI",
" =NBBLLLLLLLLLLLLLLLLLLl<ALLLLLLLLLLLLLLLLLLLLLIKC",
".$ttFKILLLLLLLLLLLLLLLLl<ALLLLLLLLLLLLLLLLLLLLLLl<",
"&3rruLILLLLLLLLLLLLLLLLl<ALLLLLLLLLLLLLLLLLLLLC:::",
"<xqq0CLLLLLLLLLLLLLLLLLj,ALLLLLLLLLLLKLLLLLLLKl&-1",
"Az>+@<ZLLLLLLLLLLLLLLLL:%CLLLLLLLLLLLLLLLLLLLljCZA",
"LZj-%%<llzzLLLILLLLLCll*OzILLLLLLLLLLLLLLLLLLVVLLL",
"LLA1*%:<1:<CLAAALLLLl<<%%zLLLLLLLLLLLLLLLLLLAKLLLL",
"LLL1<zZAC:O<11<zLLLLAAAj:<zLILLLLLLLLLLLLLLCjCLLLL",
"LLAzVILIL,O:<jlzLLLLLLKCj-jLLLLLLLLLLLLLLLLC<CLLLL",
"LLLLLLLLLl<:lLLLLLLLLLLIVO:SLLLLLLLLLLLLLLLC<zLLLL",
"LLLLLLLLLAz<lILLLLLLLLLIZO%jSLLLLLLLLLLLLLLz<zLLLL",
"LLLLLLLLLIA:1CKLLLLLLKCl<OO*lALLLLLLLLLLLLIz:1ZLLL",
"LLLLLLLLLIzO%<ALKLLLLA1*.. O-lKLLLLLLLLLLLLlO%jALL",
"LClAILLLLIzO.%1jlALLLLCj<*O X*jALLLLLLLLLLIj..%1jj",
"A1:CILLLLIV%.O,jjCLLLLLLAl:%%*,lALLLLLLLLLLl%O*<11",
"<*OzILLLLLA<:,CLKLLLLLLLLKAAAl<,lLLLLLLLLLLC<jALLL",
"l<%-jIIIIj::jVKLLLLLLLLLLLLIIAzzlj<<LIIILLzlzKILLL",
"LC<O*zCCC:O,zLLLLLLLLLLLLLLLLLLLA1%OlCVAZLljLLLLLL",
"LKC<%OOOO%,CLLLLLLLLLLLLLLLLLLLLLA1*%+%,lLKALLLLLL",
"LLLC<O..O<zLLLLLLLLLLLLLLLLLLLLLLLC<.O:jCLLLLLLLLL",
"LLLLC<OO:CLLLLLLLLLLLLLLLLLLLLLLLLIz%,LLLLLLLLLLLL",
"LLLLKV%O:CLLLLLLLLLLLLLLLLLLLLLLLLLA:jILLLLLLLLLLL",
"LLLLLL:%,CLLLLLLLLLLLLLLLLLLLLLLLLLA1lLLLLLLLLLLLL",
"LLLLLLj:,zLLLLKLLLLLLLLLLLLLLLLLLLLA1lLLLLLLLLLLLL",
"LLLLLLl:,zLLLLLLLLLLLLLLLLLLLLLLLLLA<lLLLLLLLLLLLL",
"LLLLLL1,jCLLLLLLLLLLLLLLLLLLLLLLLLKz<lLLLLLLLLLLLL",
"LLLLLL11ALLLLLLLLLLLLLLLLLLLLLLLLLl<<lLLLLLLLLLLLL",
"LLLLIL::SILLLLLLLLLLLLLLLLLLLLLLLLj<lALLLLLLLLLLLL",
"LLLLLC%OzLLLLLLLLLLLLLLLLLLLLLLLLLj<ALLLLLLLLLLLLL",
"LLLLZ<OO<CLLLLLLLLLLLLLLLLLLLLLLLLj1KLLLLLLLLLLLLL",
"LLLLl%%&:VILLLLLLLLLLLLLLLLLLLLLKzzVLLLLLLLLLLLLLL",
"LLLLh+*<<zALLLLLLLLLLLLLLLLLLLLLV,lLLLLLLLLLLLLLLL",
"LLKjf4mZAllKLLLLLLLLLLLLLLLLLLLLl%1LLLLLLLLLLLLLLL",
"LLSg9tNIL<*lALLLLLLLLLLLLLLLLLLBx$kLLLLLPHHJJDLLLL",
"LLDprtNLA:O-lSKKDDLKLLLLLLLLLLDprwNLLLLKHtrwtHKLLL",
"LLDirrNZj:*O*hupippuBLLLLLLLLButrrJLLLDGtrrrwtGKLL",
"LLKie9BZjj1*=6errrrrFNNDIIPNJFrrrwnCLLBirrrrrriDLL",
"LLDi9>CKLLLKbrrrwrrraranLLHttrrwrw6jZLDirrrrrriDLL",
"IButt9ubjCLIGrrrrrrtrrrxjjxwrrrrrw61LLDirwrrwriDLL",
"BFrrrrrqfzLLJpytrrrrrric1,8wrrrrrt7dzLDFtrrrrtFKLZ",
"ttrrrrrwtnLLLMh8wrrtriBLC<8rrrwrrrw9dzLPHtrrtHKLl<",
"rrrrrrwrrHLLLLCzHHHHHNLIZ-2wrwrwrrrt9mLLDHHHHDZlg7",
"rrrararrtHLLLLLLLLLLLLLIV%2wrrrrrrwrwGLLLLLLLLZ<7r"
};
