/* XPM */
static char *FieldsTile_47[] = {
/* columns rows colors chars-per-pixel */
"50 50 84 1 ",
"  c #B45744",
". c #B65A45",
"X c #B95D47",
"o c #AF6946",
"O c #B36246",
"+ c #B86147",
"@ c #BC6249",
"# c #B86F4A",
"$ c #B37349",
"% c #BC774C",
"& c #B57F4B",
"* c #BC7B4D",
"= c #C2664B",
"- c #C56B4D",
"; c #C96C4F",
": c #C3734E",
"> c #C8704F",
", c #CA6F50",
"< c #CC7351",
"1 c #CC7D53",
"2 c #D07653",
"3 c #D47C55",
"4 c #DB7E58",
"5 c #AC854A",
"6 c #AB8B4A",
"7 c #BC874F",
"8 c #B38B4D",
"9 c #BA884F",
"0 c #AA944C",
"q c #A79C4C",
"w c #AB9B4D",
"e c #B2954E",
"r c #B2984F",
"t c #BE8750",
"y c #BD8E51",
"u c #BC9351",
"i c #B49C50",
"p c #BA9C52",
"a c #A5A54D",
"s c #ABA54F",
"d c #A6AE4F",
"f c #A9AC4F",
"g c #A6B04F",
"h c #AEA450",
"j c #ACAD50",
"k c #B2A351",
"l c #BDA655",
"z c #B3AB53",
"x c #BAA954",
"c c #AAB050",
"v c #C58452",
"b c #CA8453",
"n c #C48B52",
"m c #CB8C55",
"M c #D48256",
"N c #D88057",
"B c #D28C57",
"V c #DB8459",
"C c #D68B58",
"Z c #DD895A",
"A c #C19453",
"S c #CA9556",
"D c #C59B55",
"F c #C89D57",
"G c #D6945A",
"H c #DD945C",
"J c #D59E5B",
"K c #DB9C5D",
"L c #E2865B",
"P c #E38C5D",
"I c #E98B5F",
"U c #E5925E",
"Y c #E8925F",
"T c #E2995F",
"R c #C3A557",
"E c #C7A558",
"W c #CCA259",
"Q c #D1A15B",
"! c #EC8F60",
"~ c #E79760",
"^ c #EB9661",
"/ c #E69860",
"( c #EC9862",
") c #F09562",
/* pixels */
"ggggdgggggdgcggggggggggggcgdgggggggggggggggggggggg",
"dgggggjggggggggjgggdggdgggcgggggsuprdggggggggiidgg",
"ggcgggggggggggggdgggggggggggddsjpb3bkcgggggcjnnjgg",
"gggggggggdcgdgggggcgggjggdgggq$mKIIUKlgggdghvZGjgg",
"ggdir0ekdgdgggggggggdgggdggdq&,BQQQK^KljgggkVITEll",
"ggjn:+;njgggggdggggggggggggs$<HlgdczK^KzggclT^/T//",
"ggdk9;4UJxggggggggggggdggginMGlcggggxKTzggET~WxlK(",
"gggghnU^^WzjgggggjggcgggghANIQcggggggWTRzlK)^lggEI",
"ggggdjJ^^^KjdggggggggggghvV~^JfgggdggE^~U^^^/Rgjy3",
"ggdggcJ^^^~Jzggggggggggit-3^)JgggggggE^^(^^^^KD&:<",
"cggggcJ)^^^^Jzzzzzzzzjsv-.<U^JzcgggfzJ~^^^^^^~V$%b",
"gggggjJ^^^^^~TTTTKTTTHb-X.=3U^KxgggjJ^^^^^^^^Vbwsj",
"gq58uuH^^^^^)^^)^PL^^^L4<X@3I^^JEEEJ^^^^^^(UZmrggg",
"s8=<33ZUTTT~I~^^~4V^^^~^P-=3P~^^^^^^^^^^^^^P1igggg",
"vMLUZ1=%kzlb3NU^^UI^^^^^~PN23Z^^^^^^^^^^^^^P3igggg",
"VP((IV*6fgsB4L~^^^^^^^^^^^UN2N^^^^^^^^^^^^^P1igggd",
"~^^^^/lggdlK^^^^^^^^^^^^^^^UNN~^^^^^^^^^^^^P3igggg",
"^^^^^/xggRK^^^^~^^^^~^^^^^^^UZNI^^^^^^^^^^^P3igdgg",
"^^^^^(DklK^^^^^^^^^^^^^^^^^^(Z<NU^^^^^^^(^U4<wgdgg",
"^^^^^~MMT(^^^^^^^^^^^^^^^^~^^4+-NU^^^^^^^UN-O6ddgj",
"lJ^^IVZP~^^^^^^^^^^^^^^^^^^^(3XX=;;<NN443-=X o5fgg",
"glKKC3P(^^^^^^^^(^^^^^^^^^^^(NX..X@-3N34<=====%lzz",
"gcjju1P^^^^^^^^^^^^^^^^^^^^^^NX @<VUU~~~UUUUIUTTT/",
"ggdi*-L^^^~^^~^^^^~^^^~^(^^^3--<3L~^^^^()(QEEEW^^^",
"gcxb,@N^^^^^^^^^^^^^^^^^^^^L-@NU^^^^^^^^~KzgggzH^^",
"glK^V2P(^^^^^^^^^^^^^^^^^^L3<3U^^^^^^^^^JzggggkbP^",
"gR^^IZZP^^^^~^^^^^^^^^^)^P1-3P^^^^^^^^^^WgggggsuG^",
"gR^^(^N4^(^^^^^^^^^^^~~~P3-=Z(^^^^^^^^^^WggggggdJ^",
"gR^^^^UU^^^^^^^^^^^^(YN3313Z^^^^^^^^^^^)QgggggggW^",
"gE^^^^(UPU^^^^^^~PP~^UV32NP(^^^^^^^^^^^^GijgggggW^",
"gRT^^^^I3L^^^^^^~4V^^^^N3I(^^^^^^^^^^^^^PbkggggjJ^",
"gjRT^^(P23L~^)^^^PP^^^^Z3U(^^^^^^^^^^^^~~ZkgggjJK^",
"ggfET^(I3:<PHKJHU~^^^^^ZVU^^^^^^^^IHJJK/^(WzxxE~^(",
"cggjRU^P2=@<Ajjp3P^^^^^^^^^^^^^~^^VbhgxK^(~//T~^^^",
"ggggjRb-=X.@8ggr3I^^^!ZI(^^^^^^^((SidgjK^^))))^^IN",
"gggggf5O +=@9zzp3LTKKG<N^(^^^^^^^/RgdgzK^^TKKKTKBv",
"gggggdd6O2IPTTTTINnzce#3^^^^^^~^^^RgggzK^/Rjzjzjjh",
"gggdgggh1P(^^^^^^PSdga5B^^^^^^(^^(RggsAUTEjggggggg",
"dcgggggxU^^^^^^^^^JzcgcE^^^^^^^^^^EjjuNHEcgggggdgg",
"ggggcggx(^^^^^^^^((KzggW(^^^^^^^^^TKKUHRjggdgggggd",
"gcgggdkS^^^^^^^^^^^^QRpmP~^^^^^^^^^^^TEjgggggggggg",
"gggggdyMT(^^^^^^^^^^(P3<3Y(^^^^^^^^^/Egggggcgdgggg",
"gggfgdhkxJ^^^^^^^)^^^^P43I^^^^^^^^^/Rjggggggggcggg",
"ggggggggdlK(^/KJJQJJT^^PVJK^^(^^^^^Kjgggggdggggddg",
"gggcjgggggxT^TxfjcdjJ^^^KzR~^^^^^^^Kjggggggggggcgc",
"dgggggggggsBITzgggggzW~)TzjRMP^^^^)Kjgggdggggdgggg",
"gggdggdgggsnCZlfgggggzT!GzgfumK/^^^/lxhjgggggggggg",
"gggggggggggsA11ydggggzTLbsgdsfzJ^^^(/Cvhggjggggdgd",
"gfggcgggggggsu11uFQWWJVnidgggggxRRREEDisgggggggcgg",
"gggggggdggcggsv23P^^^I3ugggggggggggggggggggggggdgg"
};
