/* XPM */
static char *FieldsTile_36[] = {
/* columns rows colors chars-per-pixel */
"50 50 64 1 ",
"  c #B35744",
". c #B55945",
"X c #B95D47",
"o c #BB5F48",
"O c #B36346",
"+ c #B06E47",
"@ c #BD6149",
"# c #AF7147",
"$ c #B07147",
"% c #B77B4B",
"& c #C1664B",
"* c #C56B4D",
"= c #C96F4F",
"- c #C7704F",
"; c #CB6D50",
": c #CC7351",
"> c #D07753",
", c #D47B55",
"< c #AD8E4C",
"1 c #BB834E",
"2 c #BA894F",
"3 c #A99A4C",
"4 c #BD8E51",
"5 c #B59750",
"6 c #BB9551",
"7 c #B59B50",
"8 c #B99851",
"9 c #ABA54F",
"0 c #A7AD4F",
"q c #A9AB4F",
"w c #A5B14F",
"e c #AEA550",
"r c #ABAD50",
"t c #B2A451",
"y c #BDA454",
"u c #B4AB53",
"i c #BCA855",
"p c #A9B050",
"a c #C38551",
"s c #CC8554",
"d c #C38952",
"f c #CC8B55",
"g c #D68157",
"h c #D88057",
"j c #D38B57",
"k c #DC8459",
"l c #DE885A",
"z c #C99957",
"x c #CE9A58",
"c c #D39259",
"v c #DF965D",
"b c #D49E5B",
"n c #DB9C5D",
"m c #E0865B",
"M c #E38D5D",
"N c #E6915F",
"B c #E8925F",
"V c #E2995F",
"C c #C3A256",
"Z c #C7A458",
"A c #D3A05B",
"S c #EB9661",
"D c #E69860",
"F c #ED9862",
/* pixels */
"wwrnFSiwwwwwwpwwwwwpwww6:>*O3www0wwwww0wwq#@>&O9ww",
"w96vFSby89wwwwwww0www08fkk>*2twwwwwpw0www0%=,,sqww",
"w8,MSSSM,8q0www0wwww08smFSk:,d9wwwwwwpwww9shBFnrww",
"wCNSSSSSNg4qwwwpwww06sMBFF,&kla9wwwwwwwwtflBFFArww",
"8xSFSSSSSMfrwww0wwrijmSSFS:@kSkziwwwww0t1=mFFFVCt7",
":kSSSSSSSSvuwprrrriBSSSSSS,@kFBSAupppped*@kFBFFBl>",
"@>SFSSSSSSBnAbbbAbnSFFSSSS>@kFSFBAbnbAnlmkMFFFFFNM",
"#anDFSSSSSSSFFSFFFSSSSSSSF,*kFSSBFFBFFFFBBBFBFBFBM",
"00rnFFSSSSSSSSSSSSSSSSSSSSk>MFFSFBFFFBFFM,MBFBFBk>",
"wwrfmDSSSSSSSSSSSSSSSSSSFFm,MFSSFBFBFFBFl>hMFFBk=@",
"upq4jBFSSSSSSSSSSSSSSSSBNVjfMFSSBFFFBFFFM,>hMBNh=&",
"VZ0qzSSSSSSSSSSSSSSSSFFkstrtnFSSFFBBFBBFBNh>,MFBNN",
"Fv6CASFSSSSSSSSSSSSSSFSc8096vFSSFBFFBFFBFFMkmBDFBF",
"Fk,MFFSSSSSSSSSSSSSSSSSCww6,MFSSFBBFFBFFFBBBBFFBBF",
"Sm,MFSSSSSSSSSSSSSSSSFDCww6,MFSSFFFFFBBFFBklBFFBFF",
"Sk,kMSSSSSSSSSSSSSSSSSSx7<akNSSSDFBBFFFBFBhhBFFFFB",
"Dm,>hSSSSSSSSSSSSSSSSSSk-X:NSSSSFBFFBFBFFBhhBBFBFF",
"FSm,hBFSSSSSSSSSSSSSSSS,X *kNFSSFBBFBFFBFB-&hNFFBB",
"FBM,kSFSSSSSSSSSSSSSFSM,***=kNSSFFBFFFFFN,@@*hBBFF",
"Sm>:kBSFSSSSSSSSSSSSFM,kBB,@=kSSBFFBFBBF,@..X=hBFB",
"k:&:,kMFSSSSSSSSSSSSFM,lFFM,&>DFFFFFFMkh>&.X*=>hhk",
":*@:h,MFSSSSSSSSSSSSSk:hNSFN**kmlkkll,>,hh==,hh,h,",
">:,mBBSFSSSSSSSSSSSSk:@*hNFB,*@@@@@@@*,NBBNBBBBBBB",
"lhhBFFSFDSSSSSSSSFNl,:>hmSMk,:&X  X*:hMBFFFDFFFFFF",
"Dk:kNSFBBSFSSFSFFMh:>kBFDFm,,,>@.@=hBFFBFBBFFFBFBF",
"F,X@>SFM,MFSSSFFB:X@,BSSFFSMBl>@X=kBBFFBFFFBBBFFFB",
"Fl:X@>kk>hk,>,,,k=&:mFSSSSSFFNk@@kBFFFFFBFFFFFFBFF",
"FFM&.X:,,,:@..X*,>kSDFSSSSSSSFB=*NFFFBBFBFBFFBFBBF",
"SFN&X=kMMMl:@.*,MMNFSSSSSSSSSFB,,BFBDFFBFFBFFBFFBF",
"SFN:*kBFFFN,*&,MFFFSSSSSSSSSSFShhBFFFBFFFBBFFBBFFB",
"SSN,hBFSSFNh>,MFSSSSSSSSSSSSFFBh,BFFFBBFFBFFFFDFFB",
"SSSNNSFSSSSM,,MFSSSSSSSSSSSSFDShhBFBFFFFBFFBBFFBFF",
"SSSFNMSSSSFSmkNFSSSSSSSSSSSSFFB,>BFDBFFFBFBFFSSSFF",
"SSSSM,MSSSSSSBSSSSSSSSSSSSSSBFB**NFFFFBFBFFFBFSSBF",
"SSSSm,MFDFSSSSSSSSSSSSSSSSSSSFB*&NFFFDSSFFBBFFSSFB",
"SSSFM,kMMFSSSSSSSSSSSSSSSSSSFSM==MFFBSSSFBFFBBSSFB",
"SSFFm>,,,MSSSSSSSSSSSSSSSSSSDM,:,BFSSSSSSSSSFFSSFF",
"SSFDk*=,kNSSSSSSSSSSSSSSSSSSFm>hmFSSSSSSSSSSFBSSBF",
"SSSFh@=kBFSSSSSSSSSSSSSSSSSSFl>lFSSSSSSSSSSSSSSSBF",
"SSSFl:kBSSSSSSSSSSSSSSSSSSSSFh&kFFSSSSSSSSSSSSSSFB",
"SFBh>,MFSSSSSSSSSSSSSSSSSSFFF,@hFBBFFBBFSSSDFFFBFF",
"SFN*@>MFSSSSSSSSSSSSSSSSSSFDS,@hFFFBBFFFSSSSFBBFBF",
"SFM&*MBFSSSSSSSSSSSSSSDSSSFBl*XhFFFFFFFBSSSSFBFFBF",
"SBl*:SFSSSSSSSSSSSSSSSFSSSFBh*&kFFBFFBFBSSSSFFFBFF",
"Dm,:hSSSSSSSSSSSSSSSSSSSSFFBh:>MFBFFFBFFFBBFBBFBFB",
"Fh*hNSSSSSSSSSSSSSSSSSSSSBFN==MBBFFBFBDFFFFFFFFFFB",
"l=@kFFSSSSSSSSSSSSSSSSSSSSBm@=SFFFFFFSSSBFSBBFBFFF",
"@X@kFSSSSSSSSSFDSSSSSSSSSSM>@=BFBFBBFBSSSSSSFFBFBF",
" X=mFFFFSSSSSSSSSSSSSSSSSF,&.@=:::::kMBFBFFBFFFBMk",
".&,MFDSSSSSSSSSSSSSSSSSSSS,....... @:lBFFFBFFBFDk>"
};
