/* XPM */
static char *FieldsTile_20[] = {
/* columns rows colors chars-per-pixel */
"50 50 147 2 ",
"   c #B25643",
".  c #B35744",
"X  c #B45844",
"o  c #B45845",
"O  c #B55845",
"+  c #B55945",
"@  c #B55A45",
"#  c #B65A45",
"$  c #B75B46",
"%  c #B75C46",
"&  c #B85C46",
"*  c #B85C47",
"=  c #B85D47",
"-  c #B95D47",
";  c #B95E47",
":  c #BA5E47",
">  c #BA5F48",
",  c #BB6048",
"<  c #BC6048",
"1  c #BC6149",
"2  c #BD6249",
"3  c #BD6349",
"4  c #BE6349",
"5  c #BE634A",
"6  c #BE644A",
"7  c #BF644A",
"8  c #BF654A",
"9  c #C0654A",
"0  c #C0654B",
"q  c #C0664B",
"w  c #C1664B",
"e  c #C1674B",
"r  c #C2674C",
"t  c #C2684C",
"y  c #C3684C",
"u  c #C3694C",
"i  c #C4694D",
"p  c #C46A4D",
"a  c #C56A4D",
"s  c #C56B4D",
"d  c #C56B4E",
"f  c #C66B4E",
"g  c #C56C4E",
"h  c #C66C4E",
"j  c #C66D4E",
"k  c #C76D4E",
"l  c #C76D4F",
"z  c #C86E4F",
"x  c #C86F4F",
"c  c #C96F4F",
"v  c #C9704F",
"b  c #C97050",
"n  c #CA7050",
"m  c #CA7150",
"M  c #CB7150",
"N  c #CB7250",
"B  c #CB7251",
"V  c #CC7251",
"C  c #CC7351",
"Z  c #CD7351",
"A  c #CD7451",
"S  c #CD7452",
"D  c #CD7552",
"F  c #CE7452",
"G  c #CE7552",
"H  c #CF7552",
"J  c #CF7652",
"K  c #CF7653",
"L  c #CF7753",
"P  c #D07753",
"I  c #D17853",
"U  c #D17854",
"Y  c #D17954",
"T  c #D27954",
"R  c #D27A54",
"E  c #D37A54",
"W  c #D37A55",
"Q  c #D37B55",
"!  c #D47B55",
"~  c #D47C55",
"^  c #D57C55",
"/  c #D47D55",
"(  c #D57D56",
")  c #D67D56",
"_  c #D57E56",
"`  c #D67E56",
"'  c #D67F56",
"]  c #D77F56",
"[  c #D77F57",
"{  c #D88057",
"}  c #D88157",
"|  c #D98158",
" . c #D98258",
".. c #DA8258",
"X. c #DA8358",
"o. c #DB8358",
"O. c #DB8359",
"+. c #DB8459",
"@. c #DC8459",
"#. c #DC8559",
"$. c #DD8559",
"%. c #DD855A",
"&. c #DD865A",
"*. c #DD875A",
"=. c #DE875A",
"-. c #DE885A",
";. c #DE885B",
":. c #DF885B",
">. c #DF895B",
",. c #E0895B",
"<. c #E08A5B",
"1. c #E08A5C",
"2. c #E18A5C",
"3. c #E18B5C",
"4. c #E28B5C",
"5. c #E28C5C",
"6. c #E28C5D",
"7. c #E38C5D",
"8. c #E38D5D",
"9. c #E48E5D",
"0. c #E48E5E",
"q. c #E48F5E",
"w. c #E58F5E",
"e. c #E5905E",
"r. c #E6905E",
"t. c #E6915F",
"y. c #E7915F",
"u. c #E7925F",
"i. c #E8925F",
"p. c #E8935F",
"a. c #E89360",
"s. c #E99360",
"d. c #E99460",
"f. c #EA9460",
"g. c #EA9560",
"h. c #EA9561",
"j. c #EB9561",
"k. c #EB9661",
"l. c #EB9761",
"z. c #EC9761",
"x. c #EC9762",
"c. c #EC9862",
"v. c #ED9862",
"b. c #ED9962",
"n. c #EE9962",
"m. c #EE9963",
"M. c #EF9A63",
/* pixels */
"X A j.z.j.j.j.z.j.j.z.j.j.z.z.j.z.z.j.j.z.j.j.j.z.z.Q * k X.j.j.x.j.j.x.j.#.Q A a X X 8 A 8 X X X X ",
"q Q j.z.j.z.j.j.z.j.j.z.z.j.j.j.j.j.j.z.j.z.z.j.z.z.[ a ! 8.j.z.j.j.x.j.x.9.#.#.^ A y k C k q q > X ",
"P #.j.z.j.z.z.j.j.z.j.z.j.j.j.z.j.z.z.j.j.j.j.j.j.z.#.^ 9.z.j.j.j.x.j.j.j.j.j.j.j.a.X.Q Q Q Q Q a % ",
"P #.j.j.z.j.j.z.j.z.j.j.j.z.z.j.j.j.z.j.z.j.z.j.z.j.a.y.j.z.z.j.j.j.x.x.j.x.x.j.j.j.y.8.9.8.y.9.^ b ",
"I #.j.j.j.j.z.j.z.j.z.z.z.j.j.z.z.j.j.z.j.j.j.z.z.z.z.z.j.j.j.z.j.j.j.j.j.j.j.x.j.j.c.c.c.c.c.c.8.X.",
"A #.j.z.j.z.z.j.j.j.j.j.j.z.j.j.j.z.z.j.j.z.j.j.j.j.j.j.j.z.j.j.x.j.x.j.j.x.j.j.x.j.j.j.j.j.j.j.j.j.",
"4 Q j.c.j.j.j.j.j.z.z.j.j.z.z.j.j.j.z.j.z.z.j.4.#.y.z.z.j.z.z.j.x.j.j.j.x.j.x.j.j.c.j.c.j.c.j.j.j.c.",
". c 9.j.z.z.j.z.j.z.j.j.z.j.j.z.z.j.j.z.j.z.j.X.^ 9.z.j.z.j.j.z.j.j.x.j.x.j.j.j.j.j.j.j.j.j.x.x.a.8.",
"X q ^ 9.c.z.z.j.j.j.z.j.j.z.j.j.j.z.z.j.j.j.j.#.^ y.z.j.z.j.j.z.x.j.j.j.j.x.x.j.x.j.j.j.x.j.j.j.#.Q ",
"a q a 4.c.c.z.z.z.j.j.z.j.z.z.j.j.j.j.z.z.z.j.#.^ y.z.z.j.z.z.j.j.j.j.x.j.j.j.j.j.j.x.j.j.c.8.A n A ",
"^ c 8 X.y.9.j.z.z.z.z.j.j.j.j.j.z.j.j.j.j.z.j.{ P 9.z.j.j.z.j.j.j.x.j.j.x.j.x.x.j.x.j.x.j.j.+.a n ^ ",
"a.X.C Q ! ^ 8.z.j.j.z.j.z.j.z.z.j.z.z.j.z.z.j.A r 4.c.z.z.j.j.z.j.j.x.x.j.j.j.j.j.j.j.j.j.+.^ 4.a.a.",
"c.y.#.! A P { #.#.#.4.a.z.z.z.z.j.z.j.j.8.#.#.a 4 4.c.z.j.j.z.j.j.j.j.j.j.x.j.x.j.j.x.x.j.4.4.j.c.z.",
"j.z.a.{ Q ! ^ ^ ! P Q 8.a.y.a.j.z.j.z.j.#.^ ! a q >.j.j.j.z.z.j.x.j.x.j.j.j.j.j.x.j.j.j.a.j.j.j.j.j.",
"z.z.a.^ ^ 9.9.y.9.b 4 Q ^ ^ ^ #.j.z.j.j.i.9.y.^ C ! 4.j.z.j.j.z.x.j.j.j.x.j.x.j.j.j.j.8.^ 8.c.j.z.z.",
"j.z.j.#.4.j.c.c.j.Q q C ^ +.X.4.j.z.j.z.z.z.z.9.^ c ^ j.z.z.j.j.j.j.x.j.x.j.j.j.x.j.j.8.Q 4.c.j.j.j.",
"j.j.j.j.j.z.z.z.j.#.I P #.j.j.j.j.z.j.j.j.z.j.c.8.8 n j.j.j.j.z.x.j.j.j.j.x.x.j.j.j.c.8.Q >.j.c.j.j.",
"z.z.j.z.z.j.j.j.j.y.>.! >.c.z.z.j.j.j.z.j.z.z.c.8.4 y X.y.c.z.j.j.j.x.j.j.j.j.j.j.x.j.4.Q 4.c.j.z.z.",
"j.z.z.j.j.j.j.z.j.c.8.C ! 9.j.z.z.z.z.j.z.a.8.#.Q 4 > n +.y.j.z.j.x.j.j.x.x.j.x.j.j.c.>.n { y.j.c.z.",
"j.j.j.j.z.j.j.z.z.c.4.4 r ! 9.j.j.j.z.j.j.y.^ k * X X > n X.j.z.j.j.x.x.j.j.j.j.j.j.x.X., a { a.j.j.",
"z.9.#.a.z.z.j.j.z.c.4.> X r ! X.X.y.z.z.z.a.4.X.Q c 4 X * k X.y.c.j.j.j.c.j.x.j.j.x.c.X.% X y ^ X.X.",
"9.^ A 9.c.j.j.z.j.c.4.y * 4 I ^ { 9.z.j.j.j.z.c.a.#.C y r k A #.y.j.c.j.j.j.j.j.j.j.c.+.8 8 k ~ ^ ^ ",
"Q a 8 #.z.z.z.z.z.z.9.Q C Q 8.a.a.j.j.j.z.j.z.z.j.a.y.9.y.#.Q Q +.a.j.j.j.x.j.j.j.j.x.4.A +.y.y.a.a.",
"#.Q a n X.z.c.c.z.X.A A ^ 4.j.c.z.j.j.z.j.z.j.j.j.j.z.c.c.i.>.#.#.X.Q ~ j.c.c.c.c.j.>.#.4.a.c.x.z.c.",
"z.8.Q 4 k 4.4.4.4.c 4 Q 4.j.z.j.j.j.z.j.j.z.z.j.z.j.j.j.z.j.z.z.9.^ y r +.8.8.8.a.a.X.+.j.c.z.j.j.j.",
"j.j.8.Q a 4 8 4 4 a P 4.a.j.j.z.z.z.j.j.z.j.j.z.z.j.z.j.j.z.j.z.j.y.^ b 8 4 y A >.j.a.a.j.z.j.z.j.z.",
"j.z.j.4.Q 4 X X q I 4.j.z.z.j.j.j.z.j.z.j.j.j.j.j.j.z.z.j.z.z.j.z.z.9.Q * 8 A X.8.j.c.c.j.j.j.j.j.z.",
"z.j.z.j.4.Q 4 4 C 4.j.j.j.j.z.j.j.j.z.j.j.z.z.j.j.z.j.j.j.j.z.j.z.j.c.>.8 A j.x.j.j.j.z.j.j.z.j.z.j.",
"j.z.z.z.j.4.y > A 8.z.z.z.j.j.z.z.z.j.z.j.j.z.j.z.j.j.z.z.z.j.z.j.z.c.8.A X.z.c.j.j.j.z.j.j.z.z.z.j.",
"z.j.j.j.z.j.A r A >.z.z.j.j.z.j.j.j.j.j.z.j.j.z.j.j.z.j.j.j.j.j.j.z.c.y.^ #.j.z.j.j.z.j.z.j.j.j.j.j.",
"j.j.z.j.z.a.X.C Q >.z.z.z.j.z.j.j.z.z.j.j.z.z.j.z.j.z.j.j.z.z.j.z.j.j.y.^ #.j.z.j.j.j.j.j.z.z.j.j.z.",
"j.z.j.z.z.j.X.A P >.z.j.z.j.j.z.j.j.j.z.j.z.j.j.z.j.j.z.j.j.j.z.j.j.c.y.^ #.j.z.z.z.j.z.j.z.j.j.z.j.",
"j.z.j.j.z.a.X.Q [ 8.j.z.j.j.z.j.j.z.j.j.j.z.z.j.z.z.j.z.j.j.z.j.z.j.y.>.Q #.j.z.j.j.j.z.j.j.j.z.z.j.",
"z.j.j.z.z.j.[ ^ y.j.z.j.j.z.z.j.z.j.j.z.z.j.j.j.j.j.j.j.z.j.j.z.z.j.+.Q Q #.j.j.z.j.z.j.j.z.z.j.j.j.",
"j.z.z.j.z.a.C C a.z.j.z.j.j.j.z.z.j.j.z.j.j.z.z.j.z.z.j.j.z.j.z.j.j.X.Q #.y.j.z.j.j.z.j.j.j.j.j.j.z.",
"j.j.j.z.j.8.y q 4.j.z.j.z.z.j.j.j.z.j.j.j.z.j.j.j.j.j.z.j.z.j.j.j.j.X.^ a.c.z.j.z.j.j.z.z.z.j.z.z.j.",
"z.j.z.z.8.Q 4 4 Q 4.z.z.j.j.z.j.j.j.z.z.z.j.j.z.z.j.j.z.j.j.j.z.z.j.X.^ a.z.z.j.j.z.z.j.j.j.z.j.z.j.",
"j.z.z.z.+.r q a C 4.z.z.z.j.j.z.z.j.j.j.j.j.z.j.j.z.j.z.j.z.j.z.a.>.#.4.j.z.j.z.z.j.j.z.j.z.z.j.j.z.",
"j.j.z.z.X.4 n ! ! ,.a.j.z.j.j.z.j.z.z.j.z.j.z.j.j.z.j.j.z.z.j.c.4.A #.z.j.j.j.j.j.j.j.j.z.j.j.z.j.j.",
"z.j.z.z.#.A #.y.9.+.X.a.z.z.j.j.j.z.j.j.z.j.j.z.z.j.j.z.j.j.z.c.#.q { c.j.j.z.j.j.z.z.j.j.z.j.j.z.j.",
"j.j.j.9.X.Q 8.c.z.! b #.a.z.z.j.z.j.j.z.j.j.j.j.z.j.j.z.j.z.j.y.Q > Q c.z.j.j.z.j.z.j.j.z.z.j.z.z.j.",
"z.z.a.[ A ! 8.z.a.C > n +.a.j.z.j.j.z.j.j.z.z.j.j.z.j.j.j.j.y.X.a * ~ z.z.j.z.j.z.j.z.j.j.j.j.j.j.z.",
"j.z.a.^ ^ 9.j.y.[ C a 4 b X.a.c.j.z.z.j.z.j.j.j.j.z.z.z.z.9.^ a % % ^ c.j.z.z.j.j.j.z.z.j.z.z.j.j.j.",
"z.z.a.^ X.z.c.9.X.X.^ b b I ^ X.X.>.y.j.c.c.c.z.z.z.y.9.j.9.^ a > X ^ z.z.j.j.z.j.z.j.j.z.j.j.z.z.j.",
"j.z.a.^ X.j.z.j.j.a.j.a.#.C q > 4 n X.y.a.j.j.j.j.a.#.^ 9.c.a.X.k > ~ j.z.j.j.j.j.z.j.j.j.j.j.z.j.z.",
"z.9.+.4.9.j.z.z.j.z.z.z.y.4.[ ^ ^ Q n c k A ^ X.X.X.^ ^ 9.c.z.y.X.n +.c.z.j.z.j.j.j.z.z.j.z.z.j.j.j.",
"9.X.C 4.c.z.j.j.j.z.z.j.z.z.z.c.j.#.A a q k ! ^ ^ ^ P C X.8.z.M.8.A X.y.j.j.j.z.z.j.z.j.j.j.j.j.c.z.",
"! a q #.c.j.z.z.j.j.j.z.j.j.z.z.j.j.a.9.9.9.y.a.j.a.Q * > A a.c.+.4 a { a.c.j.j.j.z.j.j.z.z.j.z.j.z.",
"q q c 4.z.j.j.z.z.j.j.j.z.j.j.z.j.z.z.z.c.z.z.z.z.z.Q X X 4 C A k X > k { 9.j.j.j.j.z.c.j.j.c.j.8.+.",
"X q ! 9.z.j.j.j.j.z.z.j.j.z.z.j.z.j.j.j.z.z.z.z.z.z.Q X X X X X X X X , n >.j.c.z.j.j.j.c.j.j.j.#.A "
};
