/* XPM */
static char *_[] = {
/* columns rows colors chars-per-pixel */
"36 50 2 1 ",
"  c #819447",
". c None",
/* pixels */
"..............        ..............",
"..............        ..............",
"..............        ..............",
"..............        ..............",
"..............        ..............",
"..............        ..............",
"..............        ..............",
"    ..........        ..............",
"     .........        ..............",
"      ........        ..............",
"       .......        ..............",
"        ......       ...............",
"        ......       ...............",
"         .....     .................",
"              ..................    ",
"              ................      ",
"              ................      ",
"              ...............       ",
"              ..............        ",
"              ..............        ",
"              .............         ",
"              ...........           ",
"              ..........            ",
"              .........             ",
"              ........              ",
"              ........              ",
"              ........              ",
"              ........              ",
"              ........              ",
"              ........              ",
"              ........              ",
"              ........              ",
"              ........              ",
"              ........              ",
"              ........              ",
"              ........              ",
".....         ........              ",
"......        ........              ",
".......       ........              ",
".......       ........              ",
"........      ........              ",
".........    .........              ",
"......................              ",
"......................         .....",
".....................         ......",
".....................        .......",
".....................        .......",
".....................        .......",
".....................        .......",
".....................        ......."
};
