/* XPM */
static char *_[] = {
/* columns rows colors chars-per-pixel */
"31 50 2 1 ",
"  c #C5CF4D",
". c None",
/* pixels */
"......       ..................",
"......       ..................",
"......       ..................",
"......       ..................",
"......       ..................",
"......       ..................",
"......       ...............   ",
"......       .............     ",
"......       ............      ",
"......      .............      ",
".......     ............       ",
"........   ............        ",
"......................         ",
"....................           ",
"...................            ",
"...................            ",
"...................            ",
"...................            ",
"...................            ",
"    ...............            ",
"     ..............            ",
"      .............            ",
"       ............            ",
"       ............            ",
"        ...........            ",
"          .........            ",
"           ........            ",
"            .......            ",
"            .......            ",
"            .......            ",
"            .......            ",
"            .......         ...",
"            .......       .....",
"            .......      ......",
"            .......      ......",
"            .......     .......",
"            ........   ........",
"            ...................",
"            ...................",
"            ...................",
"            ...................",
"            ...................",
"            ...................",
".           ...................",
"....         ..................",
".....        ..................",
"......       ..................",
"......       ..................",
"......       ..................",
"......       .................."
};
