/* XPM */
static char *coin[] = {
/* columns rows colors chars-per-pixel */
"16 16 76 1 ",
"  c #AA6748",
". c #B5674B",
"X c #B46B4B",
"o c #BB6A4D",
"O c #B4734B",
"+ c #B37C4A",
"@ c #B57F4A",
"# c #B47F4B",
"$ c #B97E4B",
"% c #BD794C",
"& c #BD794D",
"* c #B97E4C",
"= c #B4804E",
"- c #B5804E",
"; c #BD844D",
": c #BD874D",
"> c #BD884D",
", c #BD8853",
"< c #BD8953",
"1 c #C08A4E",
"2 c #C08B4E",
"3 c #C38D4E",
"4 c #C68750",
"5 c #CC8351",
"6 c #C68850",
"7 c #C68950",
"8 c #D88D54",
"9 c #D88D55",
"0 c #C79150",
"q c #C99151",
"w c #CA9050",
"e c #C89350",
"r c #CA9251",
"t c #CA9053",
"y c #CB9551",
"u c #CC9651",
"i c #CB9757",
"p c #CC9757",
"a c #CE9852",
"s c #CD9855",
"d c #C2915F",
"f c #CD995C",
"g c #CE9B5D",
"h c #D59954",
"j c #DF9E56",
"k c #DF9F56",
"l c #DE9D59",
"z c #DF9F59",
"x c #DCA356",
"c c #DBA556",
"v c #DCA556",
"b c #DCA656",
"n c #DFA957",
"m c #DFAA59",
"M c #E8A05B",
"N c #EBA75B",
"B c #EBA85C",
"V c #EAB45A",
"C c #EBB45A",
"Z c #EBB55A",
"A c #EBB55B",
"S c #ECB65B",
"D c #EDB65B",
"F c #EDB75B",
"G c #EFB95C",
"H c #F0BA5C",
"J c #F1BB5C",
"K c #F2BC5C",
"L c #F2BC5D",
"P c #F3BD5D",
"I c #C79560",
"U c #C89761",
"Y c #D49E65",
"T c #DD9F61",
"R c #DFA262",
"E c #E8A261",
/* pixels */
"HHHHHHHHHHGHHHHH",
"HHHHHHLLLLLHHHHH",
"HHHHGGSSDSFHHHHH",
"HHHLSby11ybSLHHH",
"HHGSmu:@#,pmSFLH",
"HHFcu30sfIIsbFLH",
"HLSy>ehlTYU<ySLH",
"HLV1@ajMERg-1SLH",
"HLV1+wjNBlt+1SLH",
"HHDy*&5995&#yDLH",
"HHGb4X.oo.X4bDHH",
"HHHVx4O  O4xVHHH",
"HHHLDxq;:qbSLHHH",
"HHHHHDDSADGHHHHH",
"HHHHHHPPHPLHHHHH",
"HHHHHHHHHHHHHHHH"
};
