/* XPM */
static char *coin[] = {
/* columns rows colors chars-per-pixel */
"47 50 168 2 ",
"   c black",
".  c #010101",
"X  c gray1",
"o  c gray3",
"O  c gray9",
"+  c #181818",
"@  c #202020",
"#  c #2A2A2A",
"$  c #393939",
"%  c gray23",
"&  c #3C3C3C",
"*  c #414141",
"=  c gray26",
"-  c #434343",
";  c #444444",
":  c gray27",
">  c gray28",
",  c #494949",
"<  c #4B4B4B",
"1  c #4E4E4E",
"2  c gray31",
"3  c #505050",
"4  c #515151",
"5  c gray32",
"6  c #5D5D5D",
"7  c #5F5F5F",
"8  c #606060",
"9  c gray38",
"0  c #626262",
"q  c gray39",
"w  c #646464",
"e  c #656565",
"r  c gray40",
"t  c #686868",
"y  c DimGray",
"u  c #6A6A6A",
"i  c gray42",
"p  c #6C6C6C",
"a  c #6D6D6D",
"s  c gray43",
"d  c #6F6F6F",
"f  c gray44",
"g  c #717171",
"h  c #727272",
"j  c gray45",
"k  c #747474",
"l  c gray46",
"z  c #767676",
"x  c #777777",
"c  c gray47",
"v  c #797979",
"b  c gray48",
"n  c #7B7B7B",
"m  c #7C7C7C",
"M  c gray49",
"N  c #7E7E7E",
"B  c #818181",
"V  c gray51",
"C  c #838383",
"Z  c gray52",
"A  c gray53",
"S  c #898989",
"D  c gray54",
"F  c #8B8B8B",
"G  c gray55",
"H  c #8D8D8D",
"J  c #8E8E8E",
"K  c gray56",
"L  c #909090",
"P  c gray57",
"I  c #929292",
"U  c gray58",
"Y  c #959595",
"T  c gray59",
"R  c #979797",
"E  c gray60",
"W  c #9A9A9A",
"Q  c #9B9B9B",
"!  c gray61",
"~  c #9D9D9D",
"^  c gray62",
"/  c #9F9F9F",
"(  c #A0A0A0",
")  c gray63",
"_  c #A2A2A2",
"`  c #A4A4A4",
"'  c #A5A5A5",
"]  c #A7A7A7",
"[  c gray66",
"{  c #A9A9A9",
"}  c #AAAAAA",
"|  c gray67",
" . c gray68",
".. c #AEAEAE",
"X. c #AFAFAF",
"o. c gray69",
"O. c #B1B1B1",
"+. c #B2B2B2",
"@. c #B4B4B4",
"#. c gray71",
"$. c #B6B6B6",
"%. c #B7B7B7",
"&. c gray72",
"*. c #B9B9B9",
"=. c gray73",
"-. c #BBBBBB",
";. c #BCBCBC",
":. c gray74",
">. c gray",
",. c gray75",
"<. c #C1C1C1",
"1. c gray76",
"2. c #C3C3C3",
"3. c gray77",
"4. c #C5C5C5",
"5. c #C6C6C6",
"6. c gray78",
"7. c gray79",
"8. c #CACACA",
"9. c #CBCBCB",
"0. c gray80",
"q. c #CECECE",
"w. c gray81",
"e. c #D0D0D0",
"r. c gray82",
"t. c #D2D2D2",
"y. c LightGray",
"u. c gray83",
"i. c #D5D5D5",
"p. c gray84",
"a. c #D7D7D7",
"s. c gray85",
"d. c #DADADA",
"f. c gray86",
"g. c gainsboro",
"h. c #DDDDDD",
"j. c gray87",
"k. c #DFDFDF",
"l. c gray88",
"z. c #E1E1E1",
"x. c #E2E2E2",
"c. c gray89",
"v. c gray90",
"b. c #E7E7E7",
"n. c gray91",
"m. c #E9E9E9",
"M. c #EAEAEA",
"N. c gray92",
"B. c #ECECEC",
"V. c gray93",
"C. c #EEEEEE",
"Z. c #EFEFEF",
"A. c gray94",
"S. c #F1F1F1",
"D. c gray95",
"F. c #F3F3F3",
"G. c #F4F4F4",
"H. c gray96",
"J. c #F6F6F6",
"K. c gray97",
"L. c #F8F8F8",
"P. c #F9F9F9",
"I. c gray98",
"U. c #FBFBFB",
"Y. c gray99",
"T. c #FDFDFD",
"R. c #FEFEFE",
"E. c white",
/* pixels */
"E.E.A.A.E.E.A.Z.E.E.Z.A.E.E.A.Z.U.E.A.Z.U.E.A.Z.U.E.G.Z.G.E.G.Z.U.E.G.Z.G.E.U.Z.G.E.G.Z.G.E.U.",
"E.U.A.A.U.U.A.A.U.E.A.A.U.U.A.Z.U.E.A.Z.U.E.A.A.U.E.G.Z.U.E.G.Z.G.E.G.A.G.E.G.Z.G.E.G.A.G.E.G.",
"Z.A.U.U.A.Z.U.E.A.A.U.E.A.A.U.E.A.Z.U.E.G.A.U.E.A.A.U.E.G.Z.G.E.G.A.G.E.G.Z.G.E.G.Z.U.E.G.A.G.",
"Z.A.E.U.A.Z.U.E.A.Z.U.E.A.A.U.E.A.Z.U.E.G.Z.G.E.G.Z.G.E.G.Z.U.E.G.Z.U.E.U.Z.G.E.G.Z.G.E.U.Z.G.",
"E.U.A.A.U.U.A.A.U.U.A.A.U.E.A.A.U.E.G.A.U.E.U.A.U.E.G.A.G.U.G.A.G.E.G.A.G.U.G.A.U.E.U.A.G.E.G.",
"E.E.A.Z.E.E.A.A.E.E.A.A.U.E.A.Z.U.E.G.m.k.9.-.;.p.A.A.A.E.E.G.Z.U.E.G.A.G.E.U.Z.G.E.G.Z.G.E.U.",
"A.A.U.U.A.A.U.U.A.A.U.E.A.A.U.U.G.k.E y e y k f y e s K ;.m.U.E.G.A.G.E.U.A.U.U.G.A.G.U.G.Z.G.",
"Z.A.E.E.A.Z.U.E.A.Z.U.E.A.A.U.E.2.0 S t.m.Z.U.E.Z.k.9._ f e [ G.G.A.G.E.G.Z.G.E.G.A.U.E.U.Z.G.",
"U.U.A.A.U.U.A.A.U.U.A.A.U.U.G.2.7 3.G.A.G.E.G.A.U.U.G.G.U.t.k s f.E.G.A.U.U.G.A.G.U.G.A.G.U.U.",
"E.E.A.A.E.E.A.Z.E.E.A.A.E.E.c.7 2.E.G.Z.U.E.A.Z.U.E.A.Z.U.E.A._ 0 k.G.Z.G.E.G.Z.G.E.U.Z.G.E.U.",
"A.A.U.U.A.G.U.U.G.A.U.U.G.G.E S G.A.U.U.G.A.U.U.A.A.U.U.U.A.U.E.[ y Z.E.G.A.G.E.U.A.U.U.G.G.G.",
"A.Z.E.E.Z.Z.U.E.A.Z.U.E.A.k.0 f.G.Z.U.E.G.A.U.E.G.Z.U.E.G.Z.G.E.G.k ' E.U.Z.G.E.G.Z.G.E.G.Z.G.",
"U.U.A.A.U.U.A.G.U.U.A.G.E.O.n A.U.U.A.G.U.U.A.A.U.U.G.A.G.U.G.A.U.w.e m.G.U.G.A.G.U.G.G.G.E.G.",
"E.E.Z.Z.U.E.Z.Z.U.E.A.Z.U.n O.A.U.E.A.Z.U.E.G.Z.U.E.G.Z.U.E.G.Z.U.U.s 3.U.E.G.Z.U.E.G.Z.G.E.U.",
"A.A.U.U.G.G.U.U.G.G.U.U.k.e m.c.~ ~ k.E.G.A.U.U.G.A.G.U.G.A.U.U.G.U.K _ U.G.U.U.U.A.G.E.G.A.G.",
"Z.Z.E.E.A.Z.U.E.A.Z.U.E.O.m c.,     $ w.A.Z.U.E.A.Z.U.E.G.Z.G.E.G.A.' K U.Z.G.E.G.Z.G.E.U.Z.G.",
"G.U.G.A.G.U.G.G.G.U.G.G.C O.P         5 Z.U.G.A.U.U.G.G.G.U.G.G.G.E.;.m U.U.G.G.U.U.G.G.G.U.G.",
"E.E.A.Z.E.E.A.A.E.E.A.c.e k.0         @ c.E.A.Z.U.E.A.Z.U.E.G.Z.U.E.3.f G.E.G.Z.G.E.G.Z.G.E.U.",
"G.G.G.U.G.G.G.G.G.G.U.9.s A.m         - m.G.G.U.A.G.G.U.G.w.w.G.G.U.2.n G.G.G.G.G.G.G.U.G.G.G.",
"Z.A.E.E.A.A.E.E.A.A.E._ P G.f., o o & 3.G.Z.U.E.G.Z.U.E.~ + + ~ G.A...S U.Z.U.E.U.Z.G.E.U.Z.G.",
"U.G.G.U.G.U.G.G.U.G.U.C -.U.U.c.%.-.v.G.U.G.G.G.G.U.G.m.&     & Z.U.U ~ U.G.G.G.G.U.G.G.G.U.G.",
"E.U.Z.Z.E.E.A.Z.U.E.A.s 3.E.A.Z.U.E.A.Z.U.E.G.Z.U.E.G.v.-     - A.U.f ;.U.E.U.Z.G.E.G.Z.G.E.U.",
"G.G.G.U.G.G.G.U.G.G.U.C %.U.G.U.G.G.U.G.G.G.G.G.G.G.G.U.-.2 2 ;.U.w.e Z.G.G.U.G.G.G.G.U.G.G.G.",
"Z.Z.U.E.Z.Z.E.E.A.Z.E...Z A.U.E.A.Z.U.E.G.Z.U.E.G.Z.U.E.G.Z.A.E.G.n ' E.G.Z.G.E.U.Z.G.E.U.Z.G.",
"G.U.G.U.G.G.G.U.G.G.U.c.0 t.G.G.U.G.G.A.C , K Z.U.G.G.U.G.G.G.E...y Z.G.U.G.G.U.G.G.G.G.G.G.U.",
"E.E.A.A.E.E.Z.Z.U.E.A.A...y k.A.U.E.G.p.@     U E.E.A.Z.U.E.G.%.7 p.G.Z.G.E.G.Z.U.E.U.Z.G.E.U.",
"G.G.G.G.U.G.G.G.G.U.G.G.G._ 0 -.G.U.G.A.n # - 3.U.U.G.U.E.A.~ 0 9.U.G.G.U.G.U.G.G.U.U.G.U.G.G.",
"Z.Z.E.E.Z.Z.E.E.A.Z.E.E.A.A.2.s f ..v.U.A.c.A.E.G.A.G.m.[ e m v.G.Z.U.E.G.Z.G.E.G.Z.G.E.G.Z.A.",
"G.G.G.U.G.A.U.G.G.G.G.U.G.G.U.A.-.s - f C U ' [ _ S f - n 3.G.E.G.G.G.U.G.G.G.G.G.G.U.G.G.G.U.",
"E.E.A.A.E.E.A.Z.E.E.A.A.E.E.A.A.E.K K w.%._ K S U ..2.s [ E.A.Z.U.E.G.Z.U.E.U.Z.G.E.G.Z.A.E.U.",
"U.G.A.G.U.G.G.G.U.G.G.G.U.G.G.G.k.e c.G.E.E.U.U.U.E.U.p.0 c.U.G.G.U.G.G.G.U.U.G.G.U.U.G.G.U.U.",
"Z.A.E.E.A.Z.E.E.A.Z.E.E.A.Z.U.E.~ S E.E.A.Z.G.E.A.Z.U.E.P P U.E.A.Z.U.E.G.Z.G.E.G.Z.G.E.U.Z.A.",
"G.A.U.U.A.G.U.U.A.G.U.G.G.A.U.G.k 3.v.9.G.G.G.U.G.G.m.G.f.e v.U.G.A.U.U.U.A.G.U.G.A.G.U.G.G.G.",
"E.E.Z.Z.E.E.A.Z.E.E.A.Z.E.E.A.c.y Z...K E.E.G.Z.U.E.E O.E.m -.A.U.E.A.Z.G.E.U.Z.G.E.U.A.G.E.U.",
"U.U.A.G.U.G.G.A.G.U.G.A.G.U.G.k.s A.C ..U.U.G.A.G.E.%.k U.U _ G.G.U.G.G.G.U.G.A.U.U.G.A.G.U.G.",
"Z.Z.E.E.Z.Z.E.E.A.A.E.E.A.Z.E.A.s k y m.A.A.U.E.G.Z.A.f C e -.E.G.Z.G.E.G.Z.U.E.G.Z.G.E.U.Z.G.",
"Z.A.U.U.A.A.U.U.G.A.U.U.G.A.U.U.p., w.E.G.A.U.U.G.G.E.;.> [ A.E.U.A.G.E.G.A.U.U.G.A.G.U.G.A.G.",
"E.E.A.Z.E.E.A.Z.E.E.A.A.E.E.A.Z.m.y f.Z.E.E.A.Z.U.E.G.;.n E.G.Z.U.E.G.Z.G.E.G.Z.G.E.U.Z.G.E.U.",
"U.U.A.A.U.U.A.A.U.U.A.A.U.U.G.A.Z.y f.G.U.U.A.A.U.U.G.;.k U.G.A.G.U.G.A.U.E.G.A.U.U.U.A.G.E.U.",
"Z.Z.E.E.A.Z.E.E.A.Z.U.E.Z.Z.E.E.Z.s f.E.A.A.U.E.G.Z.E.3.n Z.U.E.G.Z.U.E.G.Z.G.E.G.Z.G.E.G.A.A.",
"A.A.U.E.A.A.U.E.A.A.U.U.G.A.U.U.G.k 9.E.v.%.%.%.%.m.E.;.Z A.G.E.G.A.G.E.G.A.G.U.U.A.G.U.G.A.G.",
"E.E.A.A.E.E.A.A.E.E.A.Z.U.E.A.Z.G.s -.U.%.2 C C 2 p.U.O.f U.G.Z.U.E.G.A.G.E.U.Z.G.E.U.A.G.E.U.",
"E.U.A.A.U.U.A.A.U.E.A.A.U.U.G.G.3.e c.t.f [ U.G.S U m.k.0 ;.G.A.U.U.G.A.U.E.U.A.G.U.G.A.G.E.U.",
"Z.Z.U.E.A.Z.U.E.A.Z.U.E.A.A.U.E.p.0 y y U v.U.E.k.k y s y t.U.E.G.Z.G.E.G.Z.G.E.U.Z.G.E.G.Z.G.",
"Z.A.U.E.A.A.U.E.A.Z.U.E.G.Z.U.U.A.c.f.A.G.A.U.E.G.Z.k.f.v.A.U.E.G.Z.G.E.U.Z.G.E.G.A.G.E.U.Z.G.",
"E.U.A.Z.U.U.A.A.U.E.A.A.U.E.A.A.U.E.G.A.U.E.A.A.U.E.G.A.U.U.G.Z.U.E.G.Z.G.E.G.A.U.E.G.A.G.E.U.",
"E.E.A.A.E.E.A.A.U.E.A.Z.U.E.G.A.U.E.A.A.U.E.A.A.G.E.G.A.U.E.A.Z.G.E.G.A.G.E.G.A.G.E.U.Z.G.E.G.",
"Z.A.U.E.A.A.U.E.A.Z.U.E.A.Z.U.E.G.A.U.E.A.Z.U.E.G.Z.U.E.G.Z.U.E.G.A.G.E.G.Z.U.E.G.A.G.E.G.A.G.",
"Z.A.E.E.A.A.U.E.A.Z.U.E.A.A.E.E.A.Z.U.E.A.Z.U.U.G.A.U.E.G.Z.U.E.U.Z.U.E.G.Z.G.E.U.Z.G.E.U.Z.A.",
"U.U.A.A.U.U.A.A.U.E.A.A.U.E.A.A.U.E.A.Z.U.E.G.Z.G.E.G.A.G.E.G.A.G.E.G.A.G.E.G.A.G.E.G.A.G.U.U."
};
