/* XPM */
static char *empty[] = {
/* columns rows colors chars-per-pixel */
"50 50 209 2 ",
"   c #657A17",
".  c #6C5E2C",
"X  c #79662B",
"o  c #6B7126",
"O  c #7A6545",
"+  c #836231",
"@  c #82692E",
"#  c #8C6D48",
"$  c #917556",
"%  c #837854",
"&  c #66880F",
"*  c #66870F",
"=  c #678413",
"-  c #688713",
";  c #678911",
":  c #6A8B13",
">  c #6D8C1A",
",  c #718E1C",
"<  c #6F9015",
"1  c #6E901A",
"2  c #739416",
"3  c #74941B",
"4  c #79971E",
"5  c #7B9B1A",
"6  c #728E23",
"7  c #778823",
"8  c #749124",
"9  c #7B9324",
"0  c #7A9A25",
"q  c #769328",
"w  c #7A932C",
"e  c #7E9D2C",
"r  c #7D8D3B",
"t  c #7D9932",
"y  c #7E9339",
"u  c #6F8629",
"i  c #7EA32A",
"p  c #7EA126",
"a  c #84A31D",
"s  c #88A71E",
"d  c #8AAA1E",
"f  c #878F25",
"g  c #81842E",
"h  c #819D22",
"j  c #869C2D",
"k  c #8A843C",
"l  c #879B3C",
"z  c #85A423",
"x  c #89A624",
"c  c #8DAB23",
"v  c #84A32C",
"b  c #8CAA2A",
"n  c #89A92C",
"m  c #90AF22",
"M  c #9AAE2B",
"N  c #94B324",
"B  c #98B625",
"V  c #9BBA25",
"C  c #91B32D",
"Z  c #9CBA29",
"A  c #9AB72C",
"S  c #86A432",
"D  c #8AA535",
"F  c #86AB35",
"G  c #8BAD34",
"H  c #87AC38",
"J  c #8BAD3A",
"K  c #88A23B",
"L  c #92AE32",
"P  c #92AB3A",
"I  c #96A93D",
"U  c #8CB134",
"Y  c #8DB339",
"T  c #87B038",
"R  c #94B232",
"E  c #92B53A",
"W  c #9CB43D",
"Q  c #96BA3B",
"!  c #9BBC3C",
"~  c #9ABB36",
"^  c #8EB02B",
"/  c #A1BF26",
"(  c #A0BD2B",
")  c #A3BF30",
"_  c #A3BC3B",
"`  c #A1B43E",
"'  c #9EC03D",
"]  c #A3C126",
"[  c #A4C229",
"{  c #A9C729",
"}  c #ACC92A",
"|  c #A9C627",
" . c #A4C43D",
".. c #A9C63E",
"X. c #ABC93F",
"o. c #B3CD3F",
"O. c #859F41",
"+. c #8B9D4A",
"@. c #899747",
"#. c #8D9E52",
"$. c #8BA446",
"%. c #8DA649",
"&. c #92AB43",
"*. c #95AC48",
"=. c #93B444",
"-. c #93B44C",
";. c #9BB44C",
":. c #97B848",
">. c #99BA4A",
",. c #9DB740",
"<. c #8EA550",
"1. c #93A753",
"2. c #94AA52",
"3. c #97AA59",
"4. c #97B753",
"5. c #9DB352",
"6. c #9ABB54",
"7. c #9EB35E",
"8. c #9DBA5B",
"9. c #A2B249",
"0. c #A3BA4A",
"q. c #A6BA46",
"w. c #A6B75B",
"e. c #909362",
"r. c #9B8F71",
"t. c #A28F78",
"y. c #A29778",
"u. c #9DAD63",
"i. c #9EB361",
"p. c #9FA672",
"a. c #A9A66E",
"s. c #A4B468",
"d. c #B2B86E",
"f. c #A4A771",
"g. c #AAB37C",
"h. c #ACB975",
"j. c #9FC043",
"k. c #A0C042",
"l. c #ADCA41",
"z. c #A6C34A",
"x. c #AECA4B",
"c. c #B2CE40",
"v. c #B5CD4B",
"b. c #B4C54B",
"n. c #B6D041",
"m. c #BBD443",
"M. c #AAC559",
"N. c #BCCE55",
"B. c #B7CE55",
"V. c #ABC16C",
"C. c #ABC660",
"Z. c #BBC86C",
"A. c #ABC374",
"S. c #B6CC75",
"D. c #B4C47C",
"F. c #B3C471",
"G. c #C0D744",
"H. c #C4DA45",
"J. c #CADE46",
"K. c #CADD4B",
"L. c #C4CF5B",
"P. c #CDE047",
"I. c #CEE048",
"U. c #D0E148",
"Y. c #D1E157",
"T. c #C7D56E",
"R. c #C7D77D",
"E. c #D6E578",
"W. c #AF9F8C",
"Q. c #AD9A86",
"!. c #AAA482",
"~. c #A7A483",
"^. c #B4AD89",
"/. c #B6BC8C",
"(. c #B5B687",
"). c #AFA492",
"_. c #B0A491",
"`. c #BEBD94",
"'. c #BEBC99",
"]. c #C4B59E",
"[. c #C2B699",
"{. c #C0B684",
"}. c #C4BCA3",
"|. c #C7B9A7",
" X c #B6CB81",
".X c #BCCA8C",
"XX c #BEC395",
"oX c #BEC696",
"OX c #C2D589",
"+X c #C2CB9E",
"@X c #C1C996",
"#X c #D9E683",
"$X c #CAC9A6",
"%X c #CDD8A3",
"&X c #D2D3A3",
"*X c #CECDB1",
"=X c #D3CBB8",
"-X c #CDD0B0",
";X c #D3D9B7",
":X c #D5D9B8",
">X c #DAE5BA",
",X c #E7EEB5",
"<X c #D9CDC0",
"1X c #E1DFC4",
"2X c #E7EECE",
"3X c #EEF3CC",
"4X c #E5E2DA",
"5X c #EFF0E2",
"6X c #F7F9EC",
/* pixels */
", - 3 5 q y : ; : : : : 5 4 =.w.Q ,.E l.o. .m.l.p < = 3 5 q y : ; < ; : : 5 5 =.8.:.! E l.l. .m.X.i ",
"- = ; - 3 8 > ; ; = : : : 3 Q l.! D E X.m. .c...S : * = > 1 8 > ; ; - : : : 3 Q l.! F E l.n...o. .G ",
"l <.+.%.q $.3 = - = ; ; ; 0 E  .j.=.j.=.X.'  .Q Y l <.$.<.w K 6 = = = ; : : 0 E X.k.E >.Q l. .k.Q Y ",
"6 g.p.> = $.h.6   = 2 d N c U H T V. XY G J Y T p 6 g.p.> ; $.h.6   = 3 d N d U H H V. XY G J T U i ",
"3.y.(.u.K %X6X$Xe.r c m N / ,.8.T A.(.7.4.J G S > <.y.(.u.J %X6X$Xe.g c m m ] ,.8.H h.(.8.4.J H F 1 ",
"_.r.).d.N.E.#XT.`.a.j s m ^ w.z.=.A.*X].A.5.I D g !.t._.d.B.E.#XT.`.f.S s N b w.z.=.A.*X}.A.5.I D g ",
"+ Q.5XS.n.J.I.I.b.` } [ } [ A / &.$X:X|..XH C { M @ Q.5XS.n.H.J.P.b._ } ] } [ A ] I $X<X|.@XD N | Z ",
"X _.2XD.j.m.I.P.o.A [ V B N b G w.R.&X[.w.b / V N X _.2XD.q.m.U.P.X.A [ V B B b G w.R.&X[.7.m / V N ",
". r.S.M.:. .J.J. .C ^ ] N P 3.0.{ / 9.}.i.d V s c o r.S.M.:. .H.P. .C ^ ] N P 3.0.} ] 9.].s.d V s N ",
"@.g.b.H.m. . .c.c. .F S B } Z N x n 1./.&.s V V s @.g.x.H.G. ...n.l.' F S B } Z N z v 2./.&.s V V c ",
"5.OXl.m.J.m. .X.J.m.! H c N N c W _ z.$.z A N a a ;.OXl.m.H.m. ...P.m.' G c N N b W _ q.&.x Z B a s ",
"h :.k.m.n.Q  .G.U.J.n.U ] ] N V c B N 4 5 m N N x h ;.k.m.n.Q  .H.I.P.n.U ] V B V c B N 4 5 c B m c ",
"4 v 8.k.c.Q Y o.c.m.X.n z d 5 N h 9 3 - 5 2 : 5 5 5 v 4.k.o.Q E n.n.n.l.n z c 5 m h 9 3 ; 5 2 : 2 5 ",
": i z.>.P Y  .m.X.X.m.! 1 = = 1 < w 9 - ; ; ; : : < i z.>.P U  .n.X.X.m.Q > = = 2 : w q ; ; ; ; : : ",
"1 G ..X.Q T ! X.o. ...Y v 6 > q w q q * ; = - ; ; < G ..l.! T ! X.c. ...E v 6 > 8 t q q ; ; = - : * ",
"5 v U E E A.6.E ! Q ! G i 3./.#.q q 1.> = = = 2 5 5 i Y Q E A.6.Y ' E ! T i 3./.#.q 8 1.> = = - 2 5 ",
"| Z -.J -.@X4.Y H H T v > r ~.+.3 e ;X+Xr o 3 c N | Z =.J -.oX4.J H F J i : r ~.+., j ;X$Xr o 3 d N ",
"d R d.=.-.XX^..X8.&.J 7 #.}.r.'.s.T.3X,X'.~.l m s s M V.=.-.XX(..X7.&.J q #.}.t.XXs.S.3X,X'.~.l c s ",
"| E X.) i.:X|.[.4.J L M @.$ |.XXv.K.Y.K.L.d.&.N B | W X.~ u.;X|.@X5.J L L k $ |.oXv.K.Y.I.L.h.E N N ",
"} N m L D.1X].$X5.^ | / f # 4X>XM.n.J.J.H._ { | V | N m M D.1X|.$X5.m | | f # 4X>XM.o.J.K.H.) | | V ",
"z &.2.q.o.N.{.`.h / m m 7 O *X X8.! G.J.G.~ N ] V x &.2.q.o.B.{.XX0 [ m m 9 O -XD.w.' m.I.m.' m ] ] ",
"Z _ P V N n a.+Xx N B B 9 % d.n.v.!  .H.n.! U b B ( _ L V N b a.oXz N B B f % h.v.v.'  .P.m.' U b N ",
"V [ B b P ;.s.*.c N B s z D.M.m.J.J. . .n.H.Q &.j V / B n P ;.s.*.c N B a z D.M.m.P.P.X.' n.m.' %.v ",
"V m N c ) ( G 9 m V m s c A.M.o.G.c. .c.H.U.m.! C V m N b ) ( L 0 m Z c s x V.M.o.m.c.' c.m.U.m.! ^ ",
"[ N N m 5 x 2 2 a 5 s c 5 4 =.k.m. .Y ..G.G.G.Q c / N N N 5 x 5 5 5 a s c 5 5 =.j.m...Y ..m.J.m.Q z ",
"3 < 5 z 6 l : : : ; ; : 5 5 :.8.' ' Y ..o.X.m. .0 3 > 5 a 6 t : : : * ; : 5 2 :.M.! ' Y ..n...n.X.p ",
"= = * - 1 8 > ; ; - : : ; 3 Q l.! F E l.m...c.l.v : = * - 3 6 > ; ; - : : ; 3 Q k.! H Y l.n. .n...G ",
"l 1.+.$.w K 8 * - - ; : ; 0 E  . .=.>.Q .. ._ Q Y K <.+.<.w O., * - = * : ; 0 E  . .=.>.! X. .k.Q Y ",
"> (.p.> * +.h.8 = = 3 c N c G H F V. XT G J Y Y 0 6 (.f.> ; $.h.8   = 2 d N c U H H V. XJ G J Y U i ",
"<.y.^.u.J %X6X$Xe.g b c N ] ,.8.T h.(.8.6.J H F > %.y.(.u.K %X6X$Xe.r c m N ] ,.8.H A.(.7.6.J H F 1 ",
"^.t._.d.N.E.#XT.'.f.j s m c w.z.=.A.*X].A.5.I S r !.t._.d.N.E.#XT.[.a.j s m b w.z.-.A.*X].A.;.I S r ",
"X Q.5XS.n.J.I.I.b.W } [ } ] A ] &.$X<X|..XH C { M @ Q.5XS.n.J.K.J.b._ } ] } [ A ] &.$X=X|..XJ ^ | V ",
"X ).2X Xk.n.I.K.o.A ] A N N b P w.R.&X[.w.m / V m X _.2XD.k.m.P.P.X.A ] V B N b L w.R.&X[.u.m / V N ",
". r.S.w.:. .J.J. .C N / N P 3.0.{ / 9.].s.d V s m . r.S.M.:. .J.J. .C ^ / m I 3.0.| / 9.|.w.d V s N ",
"@.g.x.J.m. . .c.c.' G S B } V N n v 2./.I s V V s @.h.x.P.m. ...n.l. .G S V } V N x v 1./.&.d V V s ",
"5.OXl.m.J.m. .X.K.m.! H m N m c W _ q.$.z V B a a ;.OX..m.H.m. ...P.n.' J c N ^ c W _ q.$.z B B a s ",
"e :.k.m.n.Q  .H.P.P.n.U ] / N V c B N 4 a m N m d h :.q.m.o.Q  .m.I.I.n.E ] ] N B c B N 4 a d N N s ",
"5 v 8.k.o.! Y o.n.m.l.n z x a m h 9 3 ; 5 < : 5 5 5 v 6.j.o.Q Y n.n.n.c.F a c 5 m h 9 3 : 5 < < 5 5 ",
": p z.>.G Y  .n.X.X.m.! > = = 2 : w 8 ; * - - < : 2 i z.>.Y Y  .n.X.X.m.' 1 = ; 2 : w q ; ; : - : : ",
": G X.l.! J ! X.X. ...Y S 8 - 8 t 9 q ; ; = = : = : G X.o.Q J ! X.o. . .U v 6 > q t q 9 ; ; = = ; * ",
"4 v G Q E A.4.E ' Q ! U e u./.#.q q 1.> = = * 2 5 5 v Y Q E A.6.E W Q ! T i 3./.#.q 8 1.> * = = 2 5 ",
"| A =.J -.@X4.J H F H v : y ~.+.> e ;XoXy o , c N [ V :.H :.@X5.J F F H i > r ~.+., t :X$Xr o 1 c m ",
"d R V.=.-.oX^..X8.&.J w #.}.r.'.s.T.3X,X'.~.@.m s s R V.=.-.[.(..X8.&.D w +.}.r.'.w.T.3X,X'.~.K m s ",
"| W X.~ i.:X|.@X4.J R M @.$ |.XXv.K.Y.I.L.h.W m B | I X.~ i.:X|.oX4.I L M @.$ |.XXv.H.Y.K.L.d.&.N N ",
"{ N N L h.1X|.$X4.m | | 7 # 4X:XM.o.P.I.J._ | | V | N m L D.1X].$X9.^ | | f # 4X>XM.n.H.U.H._ { { V ",
"x &.2.q.o.N.{.[.0 ] m m 7 O *X X8.' m.P.m.~ ^ ] / x I 2.q.o.N.(.'.0 [ c N 7 O -X Xw._ G.I.m.~ N ] Z ",
"( _ L V m b a.+Xx N B B f % d.v.v.! X.G.n.' U c B / _ E V N b a.+Xz c x z u O f.,.>.P W o._ G v 0 x ",
"/ / B n P ;.s.*.c N B x z D.M.m.J.J. . .o.m.E &.j V / B n P :.s.2.c h 9 6 y p.1.0.q.q.*.$.;.0.l r u ",
"V m B m ) ( L 9 c V m x x V.M.o.G.o. .o.H.I.m.' ^ V m N c [ A P 9 m b 9 7 s./.3.F.S.F.h.F.Z.T.&.j q ",
"/ B V m h m 5 3 a a s m 2 4 =. .m. .E X.J.H.H.Q ^ ] V N N z c 5 2 a , , 9 u u O.3.0.$.l J q.q.` l 6 "
};
