/* XPM */
static char *enemy[] = {
/* columns rows colors chars-per-pixel */
"16 16 250 2 ",
"   c #5A3533",
".  c #643335",
"X  c #64363E",
"o  c #603C3B",
"O  c #6A3F3B",
"+  c #72363A",
"@  c #7C3D3A",
"#  c #5C4333",
"$  c #5D4134",
"%  c #644531",
"&  c #644432",
"*  c #634A31",
"=  c #624B31",
"-  c #644A32",
";  c #674B33",
":  c #674F33",
">  c #644934",
",  c #674B34",
"<  c #634E35",
"1  c #624D36",
"2  c #664F35",
"3  c #684C33",
"4  c #6A4F34",
"5  c #694D37",
"6  c #61423B",
"7  c #63453D",
"8  c #63473C",
"9  c #644E38",
"0  c #684A3E",
"q  c #77453E",
"w  c #79473F",
"e  c #7F4C3A",
"r  c #635132",
"t  c #665035",
"y  c #665135",
"u  c #685134",
"i  c #685434",
"p  c #685534",
"a  c #625835",
"s  c #685B36",
"d  c #6D5934",
"f  c #6D5936",
"g  c #6A5D35",
"h  c #67563A",
"j  c #66513C",
"k  c #67533E",
"l  c #6B5238",
"z  c #6F5138",
"x  c #735A35",
"c  c #745835",
"v  c #705338",
"b  c #75563B",
"n  c #785338",
"m  c #775839",
"M  c #735C39",
"N  c #735C3A",
"B  c #79593B",
"V  c #7E5A3A",
"C  c #6E6836",
"Z  c #6E6937",
"A  c #6C6F36",
"S  c #6F6039",
"D  c #726037",
"F  c #716734",
"G  c #726437",
"H  c #746537",
"J  c #726A35",
"K  c #736F35",
"L  c #766C36",
"P  c #706038",
"I  c #75623B",
"U  c #76623B",
"Y  c #76653D",
"T  c #756E39",
"R  c #7B6C39",
"E  c #7E6E38",
"W  c #6A7037",
"Q  c #6D7136",
"!  c #737135",
"~  c #767037",
"^  c #787134",
"/  c #797139",
"(  c #797639",
")  c #717B38",
"_  c #633746",
"`  c #653745",
"'  c #603E43",
"]  c #65304D",
"[  c #65324F",
"{  c #653D49",
"}  c #673D49",
"|  c #663C4E",
" . c #683E4D",
".. c #683C4F",
"X. c #723C43",
"o. c #673E51",
"O. c #6C3E5A",
"+. c #5F4340",
"@. c #66424F",
"#. c #674849",
"$. c #7C454B",
"%. c #774C4F",
"&. c #685540",
"*. c #695541",
"=. c #694553",
"-. c #764254",
";. c #794552",
":. c #6C6241",
">. c #706745",
",. c #85433C",
"<. c #82573C",
"1. c #825B3E",
"2. c #875A3D",
"3. c #895C3C",
"4. c #8B5E3E",
"5. c #816339",
"6. c #85603C",
"7. c #81673C",
"8. c #88613D",
"9. c #8E633F",
"0. c #8A663F",
"q. c #8F663F",
"w. c #826A3A",
"e. c #87683B",
"r. c #86693C",
"t. c #8B6A3F",
"y. c #8C693E",
"u. c #8E6C3E",
"i. c #8E6D3E",
"p. c #817339",
"a. c #83763B",
"s. c #84763E",
"d. c #81783D",
"f. c #803C4C",
"g. c #8E4B40",
"h. c #854C48",
"j. c #86484C",
"k. c #934E41",
"l. c #954C41",
"z. c #994F43",
"x. c #845741",
"c. c #865246",
"v. c #8D5547",
"b. c #8B5F43",
"n. c #8A534B",
"m. c #8A5848",
"M. c #925640",
"N. c #925844",
"B. c #9F5944",
"V. c #9D5B44",
"C. c #985C45",
"Z. c #915D4B",
"A. c #835850",
"S. c #AA5848",
"D. c #AA5E48",
"F. c #AE5D49",
"G. c #906340",
"H. c #9C6643",
"J. c #9D6044",
"K. c #996544",
"L. c #9B6744",
"P. c #936F46",
"I. c #9F6844",
"U. c #9E6944",
"Y. c #817043",
"T. c #827441",
"R. c #967045",
"E. c #9F7B43",
"W. c #997E42",
"Q. c #976054",
"!. c #A16945",
"~. c #A16A45",
"^. c #A96847",
"/. c #AA6248",
"(. c #AE6249",
"). c #AB6649",
"_. c #A76A48",
"`. c #AC6A48",
"'. c #A37345",
"]. c #A27A44",
"[. c #AF7C49",
"{. c #A8784F",
"}. c #B07249",
"|. c #B3754A",
" X c #B4774B",
".X c #B57D4A",
"XX c #B47F4A",
"oX c #B0784C",
"OX c #AB7351",
"+X c #748635",
"@X c #7A8736",
"#X c #7A8737",
"$X c #7E8535",
"%X c #76823A",
"&X c #7F8138",
"*X c #799137",
"=X c #848737",
"-X c #848638",
";X c #828B38",
":X c #86893D",
">X c #8C8B3F",
",X c #839336",
"<X c #86913D",
"1X c #87A136",
"2X c #88A136",
"3X c #8BA637",
"4X c #8DA836",
"5X c #939042",
"6X c #989544",
"7X c #9B9D41",
"8X c #B08349",
"9X c #B5804A",
"0X c #B4814A",
"qX c #B6834B",
"wX c #B18548",
"eX c #B7824C",
"rX c #BC834C",
"tX c #BE8B4D",
"yX c #BC8651",
"uX c #C38D4E",
"iX c #C48E4F",
"pX c #C58F4F",
"aX c #C2904E",
"sX c #C3904E",
"dX c #C4944F",
"fX c #C38E51",
"gX c #C98E50",
"hX c #CB9650",
"jX c #CD9952",
"kX c #CF9853",
"lX c #CF9A52",
"zX c #D19853",
"xX c #D29853",
"cX c #D29F53",
"vX c #D59F55",
"bX c #D69E54",
"nX c #DBA256",
"mX c #D9A555",
"MX c #DCA657",
"NX c #E0AA57",
"BX c #E3AB58",
"VX c #E9B35A",
"CX c #EAB45A",
"ZX c #ECB65B",
"AX c #EDB85B",
"SX c #EEB95B",
"DX c #EFBA5C",
"FX c #F0BA5C",
"GX c #F2BC5D",
"HX c #F4BE5D",
/* pixels */
"FXnX X,.@ I.jXSXSXZXnXK.e 4.0XnX",
"SXxX^.l.l.~.0XaXdXtX0XJ.M.U.0XiX",
"SXgXB.S.(.~.G.6.i.i.9.V./.|..X.X",
"SXxX`.F.D.K.7.~ =X=Xa.L.).}.rXiX",
"ZXkX_.z.g.1.T +X1X1X;Xt.N.C.[.fX",
"MXyXv.+ . 1 W *X3X4X,XD O X.Z.{.",
"OXQ.;.X   # a Q @X$X^ 3 o } %.A.",
"$.-.O.' $ > 2 s Q J c 2 7 | o.o.",
"` | =.+.1 H R R ) ( w.H k | [ ] ",
"6 *.>.h y P d.>X<X:Xs.P k #.} _ ",
"d ~ @XF 5 0 Y.6X7X5XT.u 9 :.k 7 ",
"e./ ! x w f.n.P.W.R.m.b C %XZ y ",
"wX].r.n w j.h.x.0.b.c.B L &Xp.5.",
"NXxX[.<.v Y N v M I I B V t.E.0X",
"SXBXiX2.3 g i - i i x 1.'.tXmXmX",
"HXVXhX3.% r - % - = u y.tXZXDXZX"
};
