/* XPM */
static char *exit[] = {
/* columns rows colors chars-per-pixel */
"16 16 192 2 ",
"   c #8B413E",
".  c #8B413F",
"X  c #8E334B",
"o  c #90344B",
"O  c #933D4A",
"+  c #803355",
"@  c #803455",
"#  c #874543",
"$  c #874645",
"%  c #864646",
"&  c #8F4046",
"*  c #8A4944",
"=  c #8B464E",
"-  c #8D4B48",
";  c #8F4F48",
":  c #8D4E4F",
">  c #954B41",
",  c #954B42",
"<  c #935441",
"1  c #915640",
"2  c #915641",
"3  c #965442",
"4  c #925147",
"5  c #935B40",
"6  c #975A42",
"7  c #975B47",
"8  c #9E5B43",
"9  c #9E5C44",
"0  c #9C5C46",
"q  c #9A5949",
"w  c #8A4250",
"e  c #905256",
"r  c #925456",
"t  c #A25949",
"y  c #A85F4B",
"u  c #976143",
"i  c #986242",
"p  c #9C6043",
"a  c #9C6443",
"s  c #9C6643",
"d  c #9A6147",
"f  c #9A6246",
"g  c #9D6245",
"h  c #9D6544",
"j  c #9E6644",
"k  c #9E6944",
"l  c #9F6A44",
"z  c #9F6B44",
"x  c #9F6652",
"c  c #A96746",
"v  c #A36845",
"b  c #A06B45",
"n  c #A16B45",
"m  c #A56846",
"M  c #A56F47",
"N  c #A96F47",
"B  c #A86549",
"V  c #A9684A",
"C  c #A86F49",
"Z  c #B06E49",
"A  c #B36C4E",
"S  c #A57046",
"D  c #A67146",
"F  c #AC7247",
"G  c #A5714F",
"H  c #AB7148",
"J  c #AB7349",
"K  c #AB734B",
"L  c #AD7348",
"P  c #AD7249",
"I  c #AC7349",
"U  c #AF7349",
"Y  c #AA7448",
"T  c #AC7449",
"R  c #AE7448",
"E  c #AD7648",
"W  c #AD7748",
"Q  c #AE7649",
"!  c #AD7948",
"~  c #AF7849",
"^  c #B2754A",
"/  c #B2774A",
"(  c #B37B4A",
")  c #B47E4A",
"_  c #B27E4D",
"`  c #B67D4C",
"'  c #A46852",
"]  c #AB7658",
"[  c #BA804E",
"{  c #BB844C",
"}  c #BF854D",
"|  c #BD874D",
" . c #BF884D",
".. c #BB8450",
"X. c #BE895D",
"o. c #BA8865",
"O. c #BE906A",
"+. c #C0864E",
"@. c #C0894E",
"#. c #C18C4E",
"$. c #C28C4E",
"%. c #C28C4F",
"&. c #C38D4F",
"*. c #C38E4E",
"=. c #C68D4F",
"-. c #C58F4F",
";. c #C6914F",
":. c #C28650",
">. c #C28B53",
",. c #C58E52",
"<. c #C08B58",
"1. c #C59050",
"2. c #C59051",
"3. c #C79050",
"4. c #C89250",
"5. c #C99450",
"6. c #CA9450",
"7. c #CB9551",
"8. c #CE9552",
"9. c #CC9652",
"0. c #CD9652",
"q. c #CD9752",
"w. c #CE9752",
"e. c #CE9755",
"r. c #CE9852",
"t. c #CE9952",
"y. c #D59B54",
"u. c #D59C54",
"i. c #D59F54",
"p. c #D49E55",
"a. c #D6A054",
"s. c #D6A055",
"d. c #D8A055",
"f. c #D8A155",
"g. c #D8A355",
"h. c #D9A355",
"j. c #DAA555",
"k. c #DCA656",
"l. c #DDA656",
"z. c #DDA756",
"x. c #DDA856",
"c. c #DEA856",
"v. c #DEA857",
"b. c #DFAA57",
"n. c #DAA65C",
"m. c #DEA85B",
"M. c #DFAB5C",
"N. c #DFAC5E",
"B. c #E0A956",
"V. c #E3AD58",
"C. c #E3AE58",
"Z. c #E6B159",
"A. c #E7B159",
"S. c #E8B259",
"D. c #E8B359",
"F. c #E8B25A",
"G. c #E9B25A",
"H. c #E9B35A",
"J. c #E9B45A",
"K. c #EAB45A",
"L. c #EAB45B",
"P. c #EBB55B",
"I. c #ECB65A",
"U. c #EDB75B",
"Y. c #EEB85B",
"T. c #EEB95B",
"R. c #EFB95C",
"E. c #EFBA5C",
"W. c #F0BA5C",
"Q. c #F0BB5C",
"!. c #F1BB5C",
"~. c #F1BB5D",
"^. c #F1BC5C",
"/. c #F1BC5D",
"(. c #F2BC5D",
"). c #F3BD5D",
"_. c #F4BE5D",
"`. c #F5BF5E",
"'. c #D9A96A",
"]. c #DEAE68",
"[. c #D3A97C",
"{. c #E9B563",
"}. c #E2B36F",
"|. c #EABD74",
" X c #F3C372",
".X c #DCB588",
"XX c #D8B28E",
"oX c #F0C480",
"OX c #E9C598",
"+X c #F0CB93",
"@X c #E5C7A7",
"#X c #EDD0B0",
/* pixels */
"W.W.W.W.W.W.C.g.g.C.W.W.W.W.W.W.",
"W.W.W.W.G.d.4.} } 3.i.G.).W.W.W.",
"W.W.R.L.u.^ v s j v ^ y.P./.W.R.",
"W.R.A.8.Z > 8 F F 8 > N e.A.R./.",
"G.x.3.E 3   c ,.3.V   i L 4.x.G.",
"z.#.s 5 1 6 } M.].X.d . 5 s #.x.",
"x.#.j u M  .n.|.OXXXO.G u k #.B.",
"G.8.H d K p.{.oX#X@X[.] d K t.L.",
"E.f.H $ ; ` z. X+X.Xo.: $ H s./.",
"_.f.K * 4 +.i.].}.'.<.; # E g.`.",
"E.i.^ 8 N 8.3...>.e.t.v 6 E s./.",
"A.7.E E ) _ x e r ' ` ( E ! t.G.",
"x.;.S ! L q w @ + = p E ! S ;.x.",
"x.-.n k 0 O o X X & 1 s l v #.z.",
"L.j.8.7.+.A y t t B ( | ;.7.g.G.",
"_._.L.E.V.8.{ ! ! } 8.x.L.L.E.W."
};
