/* XPM */
static char *exit[] = {
/* columns rows colors chars-per-pixel */
"50 50 223 2 ",
"   c #1A1713",
".  c #161617",
"X  c #281B17",
"o  c #3B1817",
"O  c #33231A",
"+  c #3B2D25",
"@  c #3E3B39",
"#  c #2B3039",
"$  c #601D1B",
"%  c #671E22",
"&  c #4B2827",
"*  c #582B2A",
"=  c #513D32",
"-  c #613030",
";  c #57463E",
":  c #6B4B3F",
">  c #7C623C",
",  c #2F3B4C",
"<  c #2B3646",
"1  c #343B47",
"2  c #313B50",
"3  c #443F41",
"4  c #3C434A",
"5  c #3C4552",
"6  c #4A494B",
"7  c #454B53",
"8  c #565959",
"9  c #505456",
"0  c #6D5751",
"q  c #63625C",
"w  c #7C6753",
"e  c #5A5D64",
"r  c #696865",
"t  c #746B64",
"y  c #7B736A",
"u  c #6D7375",
"i  c #797B75",
"p  c #6B6F71",
"a  c #882E31",
"s  c #A83637",
"d  c #BC3B3D",
"f  c #C4383C",
"g  c #E83E3F",
"h  c #8D513A",
"j  c #B64937",
"k  c #BC583D",
"l  c #83623C",
"z  c #A4653D",
"x  c #C9423A",
"c  c #D9433E",
"v  c #CC533D",
"b  c #D1533D",
"n  c #E1433E",
"m  c #C73F43",
"M  c #D33F41",
"N  c #E53E45",
"B  c #91534C",
"V  c #A84C47",
"C  c #BD4646",
"Z  c #BB5548",
"A  c #BA4F51",
"S  c #A95A54",
"D  c #BA5E5B",
"F  c #A75043",
"G  c #896342",
"H  c #966F45",
"J  c #977146",
"K  c #916E58",
"L  c #A1784A",
"P  c #A76C57",
"I  c #B66B5B",
"U  c #B77F56",
"Y  c #B4724C",
"T  c #88766B",
"R  c #957868",
"E  c #9E7C72",
"W  c #897269",
"Q  c #BC7D66",
"!  c #B07667",
"~  c #B27268",
"^  c #CE4444",
"/  c #CB4C45",
"(  c #C64A45",
")  c #D34444",
"_  c #DC4343",
"`  c #D24947",
"'  c #DB4744",
"]  c #CA534B",
"[  c #C25447",
"{  c #D15A47",
"}  c #C75A54",
"|  c #E44244",
" . c #EA4245",
".. c #E44248",
"X. c #CD6848",
"o. c #D86547",
"O. c #CE764D",
"+. c #D8724D",
"@. c #CC6455",
"#. c #C46858",
"$. c #CD7257",
"%. c #C76E63",
"&. c #C77968",
"*. c #B68349",
"=. c #A78352",
"-. c #B58352",
";. c #AD814C",
":. c #8C8579",
">. c #9B8977",
",. c #B5826C",
"<. c #BB8578",
"1. c #AF9272",
"2. c #BCA07B",
"3. c #C79957",
"4. c #CB944E",
"5. c #C8826C",
"6. c #C78574",
"7. c #C4967C",
"8. c #C8957A",
"9. c #D18F74",
"0. c #C8A979",
"q. c #888982",
"w. c #8F9086",
"e. c #989589",
"r. c #9D9C93",
"t. c #979895",
"y. c #A89A85",
"u. c #AE988B",
"i. c #9FA19A",
"p. c #B7A68C",
"a. c #A4A495",
"s. c #ABAA9C",
"d. c #A7A59A",
"f. c #B7AA98",
"g. c #ADA288",
"h. c #9FA4A5",
"j. c #ADADA3",
"k. c #A8ABAA",
"l. c #B6ACA3",
"z. c #ADB1AB",
"x. c #B3B3A4",
"c. c #B4B4AA",
"v. c #BBBAAB",
"b. c #B9B6A8",
"n. c #BEBDB3",
"m. c #B6B8B5",
"M. c #C99883",
"N. c #CCA586",
"B. c #D1A98A",
"V. c #CAB488",
"C. c #D4B28F",
"Z. c #C7AA98",
"A. c #CCB392",
"S. c #C8B798",
"D. c #D2B192",
"F. c #D3BD96",
"G. c #D8BB99",
"H. c #C6B8A3",
"J. c #D4B9A6",
"K. c #C6BFB4",
"L. c #BEC0BE",
"P. c #D3C198",
"I. c #D9C5A9",
"U. c #C3C4B5",
"Y. c #C3C4BA",
"T. c #CCCBBC",
"R. c #CAC7B9",
"E. c #D3CDBC",
"W. c #D6C7B3",
"Q. c #D2D2BE",
"!. c #DBD4BE",
"~. c #C4C3AA",
"^. c #E2CBAC",
"/. c #E4CDB3",
"(. c #EAD4B7",
"). c #F6DBBA",
"_. c #F7DCBA",
"`. c #BEC3C3",
"'. c #C2C4C4",
"]. c #CCCDC3",
"[. c #C6C9CA",
"{. c #C9CBCA",
"}. c #D2CEC5",
"|. c #CFD0C8",
" X c #D3D3C3",
".X c #D8D5C3",
"XX c #D7D8C5",
"oX c #DADAC6",
"OX c #D4D5CB",
"+X c #DCDCCC",
"@X c #D9D7CB",
"#X c #CDD3D5",
"$X c #D2D3D2",
"%X c #DBDCD3",
"&X c #DBDCDA",
"*X c #D5D8D8",
"=X c #E3DCC8",
"-X c #E3DFD5",
";X c #DFE0D2",
":X c #E3E2CE",
">X c #E4E5D2",
",X c #EAEBD5",
"<X c #E3E3DC",
"1X c #EDEDDA",
"2X c #E8E6D5",
"3X c #F1EEDA",
"4X c #EEF1DB",
"5X c #F4F3DE",
"6X c #F8F4DF",
"7X c #DADDE0",
"8X c #DCE1E3",
"9X c #E4E4E3",
"0X c #E7E8E3",
"qX c #E9EAE5",
"wX c #ECECEB",
"eX c #EAE7E4",
"rX c #F4F5E1",
"tX c #F3F2ED",
"yX c #F5F6F5",
"uX c #F9FAF7",
"iX c #FFFFFF",
"pX c #F7F9F8",
"aX c #EEF3F2",
/* pixels */
"iXiXiXiXiXiXiXiXiXiXiXiXiXyX$X8XpXiXiXiXiXiXiXiXiXiXiXiXiXiXiXiXiXpX8X$XyXiXiXiXiXiXiXiXiXiXiXiXiXiX",
"iXiXiXiXiXiXiXiXiXiXiXiXiX$X6 6 t.wXiXiXiXiXiXiXiXiXiXiXiXiXiXiXeXt.6 6 $XiXiXiXiXiXiXiXiXiXiXiXiXiX",
"iXiXiXiXiXiXiXiXiXiXiXiXiXn.# - & e [.iXiXiXiXiXiXiXiXiXiXiXuX[.e & % # m.iXiXiXiXiXiXiXiXiXiXiXiXiX",
"iXiXiXiXiXiXiXiXiXiXiXiXiXz.* d s & = k.yXiXiXpXiXiXiXyXiXuXL.@ * s d = k.iXiXiXiXiXiXiXiXiXiXiXiXiX",
"iXiXiXiXiXiXiXiXiXiXiXiXiXm.- ..N s o = t.$X<XOX<X].c.].n.t.@ o s N M - z.iXiXiXiXiXiXiXiXiXiXiXiXiX",
"iXiXiXiXiXiXiXiXiXiXiXiXiX`.* c N d $ o r d.R.Q.Q.e.x.2Xb.y X $ m ..m * '.iXiXiXiXiXiXiXiXiXiXiXiXiX",
"iXiXiXiXiXiXiXiXiXiXiXiXiX*X@ - d D 0 3 e.-X>X3X5X>XrX3X.Xv.6 : D M a = {.iXiXiXiXiXiXiXiXiXiXiXiXiX",
"iXiXiXiXiXiXiXiXiXiXiXiX'.e.8 w Q -X2X=X4XrX5X5X6X6XrX3X3X3XW.(.W.~ 0 r c.tXiXiXiXiXiXiXiXiXiXiXiXiX",
"iXiXiXiXiXiXiXiXiXiXuX9XL.s.v.<X5X5X5X5X6X5X5X6X5X5X5X5X6X6X6X5X6X:XR.j.Y.yXiXiXiXiXiXiXiXiXiXiXiXiX",
"iXiXiXiXiXiXiXiXiXiX0X].+X>X5X5XrX6X5X5X6X6X6X6X5X5X6X5X5X5X3X5X3XXXT..Xv.|.wXiXiXiXiXiXiXiXiXiXiXiX",
"iXiXiXiXiXiXiXiXiXiX&XU. X5X5XrX5X5X5X1X4X3X6X5X6XrXrX3X:X,X>XR.:X1X5X5XXXT.T.uXiXiXiXiXiXiXiXiXiXiX",
"iXiXiXiXiXiXiXiXiXqX}. X4X5X4X:X;X,X!.:XoX!..XrXrXrX5X=X,XT.,X:Xs.oXE.,X+Xx.L.uXiXiXiXiXiXiXiXiXiXiX",
"iXiXiXiXiXiXiXiXwXT.Q.:X5X4XQ.!.4Xb..X1X%Xx.R.rXJ.=X6X<.Z.J.u.,Xd.}.=X:X3Xs.d.qXiXuXiXiXiXiXiXiXiXiX",
"iXiXiXiXiXiXiXiXwX@XU.,X:XT.s.1Xf.y.5XE.J.R l.=X} ~ (.%.) @.` 5.E u.:X:X>XL.t.d.OXyXiXiXiXiXiXiXiXiX",
"iXiXiXiXiXiXiXiXiX0XU.}.s.t :.M.V Z.J.} ] ^ %.M.N _ #.]  . . ._ C ( S G :.x.T.XX].0XiXiXiXiXiXiXiXiX",
"iXiXiXiXiXiXiXiXiX*XXX+Xx.>.p.V.N.p.I ^ N N M _  . .N  . .| ) } &.N.A.2.>.a.1X}.j.&XuXiXiXiXiXiXiXiX",
"iXiXiXiXiXiXiXyX<X@XrX:X1.<.Q &.6.B.G.8.[ | | |  .| |  .| { 8.F.0.5.&.Q 6.f.4X1X1X|.%XiXiXiXiXiXiXiX",
"iXiXiXiXiXiXiX&X X,X4Xx.P ) c c M M @.B.F.@._  .| | | | @.G.B.@.^ g _ c _ I !.rXrXrXOXwXiXiXiXiXiXiX",
"iXiXiXiXiXiXiX9X X4X2XT (  .x j o.+.{ / 7.F.#.| | | _ @.G.8.Z { +.+.j f ..( u.rX,XQ. X&XiXiXiXiXiXiX",
"iXiXiXiXiXiXyX>XrXrX1XE ^ | v Y J > -.X.x 7.P.@.c | @.P.8.C X.-.l J Y x | ) R ,X5XL.r.0XiXiXiXiXiXiX",
"iXiXiXiXiXiX*X+X4X1XrXf.] n +.l   . + U v x 8.F.9.9.F.7.` b -.+ . . G +.c ) E 2X1X1Xc.qXuXiXiXiXiXiX",
"iXiXiXiXiXiX&Xv.+XXX,Xe.} | O.= .     H X.| ) &.G.C.&.)  .X.H     . ; +.c ^ R z.c.:X>XT.pXiXiXiXiXiX",
"iXiXiXiXiXiXwXm.d.j.Y.W ^ | o.l   . + *.b | | M ) ) c  .n v *.& .   l o.n ) T &X7XL.`.;XuXiXiXiXiXiX",
"iXiXiXiXiXiXiX#Xk.'.7Xl.C | _ O.J > *.z s ) / #.&.5.#.[ ' s z *.> H O.'  .( a.wXaX*X`.aXiXiXiXiXiXiX",
"iXiXiXiXiXiXiX&X'.8XpX*X! ` N | o.+.o.x V ,.A.A.M.7.A.A.,.V x o.+.o.c n ' ! r.T.9X*X[.wXiXiXiXiXiXiX",
"iXiXiXiXiXiXiX8X`.7X7Xm.H.M.#.` M ) / #.D.S.&.Z k j Z 5.G.A.#.` ) c ` } 8.f.s.+X%X$X|.yXiXiXiXiXiXiX",
"iXiXiXiXiXiXiXuX*X'.k.c.~.g.A.V.M.B.D.A.5.] ( Y U U Y f ` <.S.D.N.M.B.D.y.a.Q.>X>X>X XpXiXiXiXiXiXiX",
"iXiXiXiXiXiXiXiXiXpX{.=XXXT B I &.&.%.] M M k J O O L Z _ ) ] #.Q Q I B y.>X,X+X,XT.&XiXiXiXiXiXiXiX",
"iXiXiXiXiXiXiXiXiXuX*XT.@Xr.K B d ^ M N n n k H X X J x n | ..` M d B W b.4X1XoXXX|.uXiXiXiXiXiXiXiX",
"iXiXiXiXiXiXiXiXiXpX@X>X.X@Xw.y W K S S A } F P K H G h C A V K R y.z.c. X4X1XXXU.&XiXiXiXiXiXiXiXiX",
"iXiXiXiXiXiXiXiXiXpX0X%XL.:Xv.r.T i i q.e.l.u.T W w 0 >.Z.Z.f.p.d.e.m.c.>XXX>X@X%XwXiXiXiXiXiXiXiXiX",
"iXiXiXiXiXiXiXiXiXiXiXiX<XXXQ.@Xw.d.b.>Xb.I./.p.y ^.(._.).^.I.H.z.[.`.z.T.].%XwXuXuXiXiXiXiXiXiXiXiX",
"iXiXiXiXiXiXiXiXiXiXiXiXiXwX X'.j.oX1XXXf.(.^.I.t I.W.f.f.f.S.H.9X}.d.{.&XyXiXiXiXiXiXiXiXiXiXiXiXiX",
"iXiXiXiXiXiXiXiXiXiXiXiXiXyX&XT.,XoXb.i t r q f.:.j.s.d.e k.Y.@XK.l.y.Y.iXiXiXiXiXiXiXiXiXiXiXiXiXiX",
"iXiXiXiXiXiXiXiXiXiXiXiXiXiX0Xm.L.s.w.q.:.e j. XR.}.r.p i h.k.d.l.}.K.tXiXiXiXiXiXiXiXiXiXiXiXiXiXiX",
"iXiXiXiXiXiXiXiXiXiXiXiXiXiXwXr.d.x.s.a.i j.;X,X3X>Xx.i w.e.:.w.K.yXpXiXiXiXiXiXiXiXiXiXiXiXiXiXiXiX",
"iXiXiXiXiXiXiXiXiXiXiXiXiXiXuX&Xj.w.e.j.9 8 m.Y.rXL.p @ 7 p q.m.wXpXiXiXiXiXiXiXiXiXiXiXiXiXiXiXiXiX",
"iXiXiXiXiXiXiXiXiXiXiXiXiXiXiXiXwX&X8Xk.5 , , 9 u 9 < 2 , # 6 &XiXiXiXiXiXiXiXiXiXiXiXiXiXiXiXiXiXiX",
"iXiXiXiXiXiXiXiXiXiXiXiXiXiXiXiXiXiX'.6 , 4 , , , < , 1 y :.w 0XiXiXiXiXiXiXiXiXiXiXiXiXiXiXiXiXiXiX",
"iXiXiXiXiXiXiXiXiXiXiXiXiXiXiXiXiXyXt 9 1 < , 2 , , 1 :.(._./.<XiXiXiXiXiXiXiXiXiXiXiXiXiXiXiXiXiXiX",
"iXiXiXiXiXiXiXiXiXiXiXiXiXiXiXiXiXyXj.^.p.q 7 5 5 7 e l.^._.)..XiXiXiXiXiXiXiXiXiXiXiXiXiXiXiXiXiXiX",
"iXiXiXiXiXiXiXiXiXiXiXiXiXiXiXiXiX%XH.).).l.$X$X[.7XwXeXW._._.I.tXiXiXiXiXiXiXiXiXiXiXiXiXiXiXiXiXiX",
"iXiXiXiXiXiXiXiXiXiXiXiXiXiXiXiX4Xj./._.W.<XiXiXiXiXiXiX@X/.G.1.}.uXiXiXiXiXiXiXiXiXiXiXiXiXiXiXiXiX",
"iXiXiXiXiXiXiXiXiXiXiXiXiXiXuXiXx.p._.~.R.iXiXiXiXiXiXiXtXp.=.J f.pXuXiXiXiXiXiXiXiXiXiXiXiXiXiXiXiX",
"iXiXiXiXiXiXiXiXiXiXiXiXiXiXiXE.K K >.2.<XiXiXiXiXiXiXiXiXU.L -.R 4XiXiXiXiXiXiXiXiXiXiXiXiXiXiXiXiX",
"iXiXiXiXiXiXiXiXiXiXiXiXiXiXtX2.;.G : Q.uXiXiXiXiXiXiXiXiX@X-.*.J p.wXiXiXiXiXiXiXiXiXiXiXiXiXiXiXiX",
"iXiXiXiXiXiXiXiXiXiXiXiXiXiX<X1.4.4.=.-XiXiXiXiXiXiXiXiXiX-X0.3.4.3.f.uXiXiXiXiXiXiXiXiXiXiXiXiXiXiX",
"iXiXiXiXiXiXiXiXiXiXiXiXiXiXrXF.0.V.A.@XuXiXiXiXiXiXiXiXuXpX1XI.I.I.E.uXiXiXiXiXiXiXiXiXiXiXiXiXiXiX",
"iXiXiXiXiXiXiXiXiXiXiXiXiXiXiXuXyXuXuXiXiXiXiXiXiXiXiXiXiXuXiXiXuXiXiXiXiXiXiXiXiXiXiXiXiXiXiXiXiXiX",
"iXiXiXiXiXiXiXiXiXiXiXiXiXiXiXiXiXiXiXuXuXiXiXiXiXiXiXiXiXiXiXuXuXiXiXiXiXiXiXiXiXiXiXiXiXiXiXiXiXiX"
};
