/* XPM */
static char *floor[] = {
/* columns rows colors chars-per-pixel */
"16 16 28 1 ",
"  c #E6A359",
". c #E6A35A",
"X c #E8A759",
"o c #E8A75A",
"O c #E8A85A",
"+ c #E9AB5A",
"@ c #EAAD5A",
"# c #EBAD5B",
"$ c #EBAE5A",
"% c #EBAF5A",
"& c #EBAF5B",
"* c #ECB15A",
"= c #ECB05B",
"- c #ECB15B",
"; c #EDB25B",
": c #EDB35B",
"> c #EDB45B",
", c #EDB55B",
"< c #EEB55B",
"1 c #EEB65B",
"2 c #EEB75B",
"3 c #EEB55C",
"4 c #EFB75C",
"5 c #EFB85C",
"6 c #EFB95C",
"7 c #F0B95C",
"8 c #F0BA5C",
"9 c #F0BB5C",
/* pixels */
"8888888888884888",
"88888888851@&888",
"8888888881@.o488",
"8888888885:@:888",
"8888888888544888",
"8888888888888888",
"8898888888888888",
"4115888888888888",
"=O.:988888888888",
"=O.1888888888888",
"6116888888888888",
"6658888888888888",
"9996888844>48888",
"969988884O.:8888",
"696988951@O>8888",
"996988851=@48888"
};
