/* XPM */
static char *player[] = {
/* columns rows colors chars-per-pixel */
"50 50 218 2 ",
"   c #1D1A18",
".  c #211D1D",
"X  c #2E241F",
"o  c #242323",
"O  c #2E2825",
"+  c #332E2A",
"@  c #392F2C",
"#  c #352C27",
"$  c #34312E",
"%  c #3B312D",
"&  c #3B2E30",
"*  c #3D3433",
"=  c #3E3835",
"-  c #3B3838",
";  c #41352F",
":  c #423634",
">  c #443A35",
",  c #423638",
"<  c #463C3A",
"1  c #493E3A",
"2  c #4D3E35",
"3  c #4E2A28",
"4  c #4C423D",
"5  c #53453D",
"6  c #263A53",
"7  c #2A3D55",
"8  c #343E52",
"9  c #333B43",
"0  c #3F444F",
"q  c #374458",
"w  c #2B415D",
"e  c #294567",
"r  c #384D67",
"t  c #2C4D73",
"y  c #2C5378",
"u  c #375779",
"i  c #3E526D",
"p  c #4B4442",
"a  c #4A4647",
"s  c #524642",
"d  c #554943",
"f  c #514D4C",
"g  c #594E4A",
"h  c #5B4843",
"j  c #5A524E",
"k  c #49555C",
"l  c #4D5651",
"z  c #5B5452",
"x  c #5A5856",
"c  c #63544C",
"v  c #785A4F",
"b  c #6B5C54",
"n  c #665B57",
"m  c #755B56",
"M  c #694D49",
"N  c #6D625B",
"B  c #746155",
"V  c #79665A",
"C  c #455567",
"Z  c #535A65",
"A  c #50636F",
"S  c #496379",
"D  c #526275",
"F  c #6A6563",
"G  c #6A6A69",
"H  c #7D6E65",
"J  c #716C6A",
"K  c #786B64",
"L  c #79716B",
"P  c #666D76",
"I  c #757576",
"U  c #7C7B79",
"Y  c #797776",
"T  c #697277",
"R  c #825B57",
"E  c #896C5B",
"W  c #897669",
"Q  c #95786C",
"!  c #8B7B72",
"~  c #817C7A",
"^  c #8D7B79",
"/  c #927D72",
"(  c #96767A",
")  c #916C66",
"_  c #A67F6B",
"`  c #79847B",
"'  c #8B827A",
"]  c #97877C",
"[  c #A48A7A",
"{  c #AA817E",
"}  c #35658C",
"|  c #3A6E98",
" . c #476C87",
".. c #44759C",
"X. c #4B789B",
"o. c #557B9C",
"O. c #587789",
"+. c #697B88",
"@. c #757B84",
"#. c #4279A7",
"$. c #517EA0",
"%. c #58849E",
"&. c #788487",
"*. c #7A9193",
"=. c #6C8695",
"-. c #4B84AC",
";. c #4583AD",
":. c #5A89A8",
">. c #4A8BBD",
",. c #4985B3",
"<. c #538DB3",
"1. c #4C90BF",
"2. c #5893BA",
"3. c #6095AD",
"4. c #6D95AE",
"5. c #4E93C3",
"6. c #5098CB",
"7. c #488FC7",
"8. c #848484",
"9. c #8C8A89",
"0. c #848B89",
"q. c #918D8C",
"w. c #988B87",
"e. c #9A948C",
"r. c #93908D",
"t. c #878E95",
"y. c #899797",
"u. c #939091",
"i. c #9A9695",
"p. c #9B9997",
"a. c #9C9B9A",
"s. c #959B99",
"d. c #839089",
"f. c #A78986",
"g. c #AA9284",
"h. c #A9968A",
"j. c #B59889",
"k. c #A39C91",
"l. c #A19C9A",
"z. c #B39D92",
"x. c #B69A92",
"c. c #AAA298",
"v. c #BBA293",
"b. c #B2AA9B",
"n. c #BCAC9B",
"m. c #B6A69A",
"M. c #959BA1",
"N. c #9DA6AC",
"B. c #A3A1A0",
"V. c #ADABA5",
"C. c #ABAAAA",
"Z. c #AAA4A3",
"A. c #B1ADAA",
"S. c #B8A8A2",
"D. c #B8B4A8",
"F. c #B3B4B2",
"G. c #B8B5B4",
"H. c #BCBCBB",
"J. c #BBB8B7",
"K. c #C19F8B",
"L. c #C2A492",
"P. c #C3AA9A",
"I. c #CCAC9B",
"U. c #C8A894",
"Y. c #D6AF9D",
"T. c #C8B29D",
"R. c #D0B29E",
"E. c #CDAEA1",
"W. c #C5BBAB",
"Q. c #CCBDA3",
"!. c #D3B3A2",
"~. c #DBBAA5",
"^. c #DCBBAA",
"/. c #D6B8A4",
"(. c #C3BCB8",
"). c #E1BEAA",
"_. c #E5BFA6",
"`. c #CFC5AA",
"'. c #DEC0AD",
"]. c #D3C6AE",
"[. c #C1C0BF",
"{. c #CAC3B3",
"}. c #E6C2A7",
"|. c #E4C1AC",
" X c #E8C3AB",
".X c #E8C3A7",
"XX c #E4C4B1",
"oX c #E9C4B2",
"OX c #BFBFC0",
"+X c #A2B8CA",
"@X c #BDCCD5",
"#X c #C5C3C2",
"$X c #CCCBCA",
"%X c #C8C8C5",
"&X c #D0CCC5",
"*X c #D2CFCE",
"=X c #D5D1CC",
"-X c #D4D0C3",
";X c #C9D3DA",
":X c LightGray",
">X c #DDDBDA",
",X c #D8D4D6",
"<X c #C9CCD0",
"1X c #E0DAD9",
"2X c #E2E1DF",
"3X c #D8DFE0",
"4X c #DEE5E7",
"5X c #E4E4E3",
"6X c #ECECEC",
"7X c #E8E7E6",
"8X c #F1ECEA",
"9X c #F1F1EE",
"0X c #EFEFF0",
"qX c #F4F4F3",
"wX c #F6F9F9",
"eX c white",
"rX c #F8F7F6",
"tX c #EFF6F7",
/* pixels */
"eXeXeXeXeXeXeXeXeXeXeXeXeXeXeXeXeXeXeXeXeXeXeXeXeXeXeXeXeXeXeXeXeXeXeXeXeXeXeXeXeXeXeXeXeXeXeXeXeXeX",
"eXeXeXeXeXeXeXeXeXeXeXeXeXeXeXeXeXeXeXeXeXeXeXeXeXeXeXeXeXeXeXeXeXeXeXeXeXeXeXeXeXeXeXeXeXeXeXeXeXeX",
"eXeXeXeXeXeXeXeXeXeXeXeXeXeXeXeXeXeXeXeXeXeXeXeXeXeXeXeXeXeXeXeXeXeXeXeXeXeXeXeXeXeXeXeXeXeXeXeXeXeX",
"eXeXeXeXeXeXeXeXeXeXeXeXeXeXeXeXeXeXeXeXeXeXeXeXeXeXqX>XG.i.q.9.a.$XwXeXeXeXeXeXeXeXeXeXeXeXeXeXeXeX",
"eXeXeXeXeXeXeXeXeXeXeXeXeXeXeXeXqX>XG.a.q.a.Z.G.#Xp.J p : * * * % x 6XeXeXeXeXeXeXeXeXeXeXeXeXeXeXeX",
"eXeXeXeXeXeXeXeXeXeXeXeXwX1X%Xl.F p : ; % ; : : , * * : , , , , * z #XrXeXeXeXeXeXeXeXeXeXeXeXeXeXeX",
"eXeXeXeXeXeXeXeXeXeXeXeX7Xx > : : : : : : : > ; ; : : : , , , , * * 1 u.5XeXeXeXeXeXeXeXeXeXeXeXeXeX",
"eXeXeXeXeXeXeXeXeXeXeXeXqXJ ; , , : : : : : ; > : : , : , : : , , , , * n C.2XeXeXeXeXeXeXeXeXeXeXeX",
"eXeXeXeXeXeXeXeXeXeXeXwXB.1 , : : : : : > 4 g d 2 c 5 > 5 < > > > : : > % $ G 9XeXeXeXeXeXeXeXeXeXeX",
"eXeXeXeXeXeXeXeXeXeXeXJ., ; , > d 4 4 n K x N g < c z 4 L K d b N 4 4 > * f H.eXeXeXeXeXeXeXeXeXeXeX",
"eXeXeXeXeXeXeXeXeXeX>Xz , 1 p 1 g 1 5 g g 4 ; ; : * > > 4 4 4 s g 4 4 < = f >XeXeXeXeXeXeXeXeXeXeXeX",
"eXeXeXeXeXeXeXeXeX,XF , , , , , , : % : ; = % = % h 4 * < * = = * * = , , * U 9XeXeXeXeXeXeXeXeXeXeX",
"eXeXeXeXeXeXeXeXeXu.- , , , , * , : * : > % % - 5 U.[ d N N > $ : ; : > - * - 8.7XeXeXeXeXeXeXeXeXeX",
"eXeXeXeXeXeXeXeXeX6X~ & , , , * , * @ : ; b 5 4 [ XXXXP.Q P.c d V > ; * , * = - C.eXeXeXeXeXeXeXeXeX",
"eXeXeXeXeXeXeXeXeX5Xf * , * , & : 1 s ; B z.5 ' XXXX|.|.|.XXL.j.^.B * % * * + z 6XeXeXeXeXeXeXeXeXeX",
"eXeXeXeXeXeXeXeX2XJ @ , , & : @ * s x.b ] /.L.}.|.|.|.|.|.|.|.'./.v.5 d < $ = 4 =XeXeXeXeXeXeXeXeXeX",
"eXeXeXeXeXeXeXwXU $ & , & * % : d 2 N ] E. X X|._.|.).).oX!.[ V v V b ] 4 + = * ' eXeXeXeXeXeXeXeXeX",
"eXeXeXeXeXeXeXwX[.J * , 1 : c V L.Q b b V !. X|.XX).oX).!.B b V ' P.~.v.# = > = 9.wXeXeXeXeXeXeXeXeX",
"eXeXeXeXeXeXeXeXeX>Xa d h.b T./.^ a . b x.~.oX).).).oXXX~.v.! 0 o B ~.^.E g.j = J.eXeXeXeXeXeXeXeXeX",
"eXeXeXeXeXeXeXeXwXl.@ B ^.Y.XXv.a $   O L.oX).XXoX|.).|.|.L.4 $ o $ v.XX/.'.V % i.eXeXeXeXeXeXeXeXeX",
"eXeXeXeXeXeXeXeXG.1 O c '.|.|.P.$   o + L. X).|.).).|._.XXP.#   . + L.|.XX|.n + q.eXeXeXeXeXeXeXeXeX",
"eXeXeXeXeXeXeXeX=X~ - < g.~.}.'.' % % ! |. XXX|.~.~.XX|.}.'.' = @ / !.K.^.x., l OXeXeXeXeXeXeXeXeXeX",
"eXeXeXeXeXeXeXeXeX7Xz O % v.|.|.|.R.R.|.|.|.).|.I.I.).}._.}.}.T.x.j.[ I.E.M * i.eXeXeXeXeXeXeXeXeXeX",
"eXeXeXeXeXeXeXeXeXtXU f O g.XX|.}.}..X}.|.|.|.).L.K.).|.|.}.}.}.Y.U.^.XXg.* * Y qXeXeXeXeXeXeXeXeXeX",
"eXeXeXeXeXeXeXeXeXwX7X8.+ W |.|.|.'.|.|.|.|.|.|.). X X). X|.|.|.|.|.j.Y.Q < B.OXwXeXeXeXeXeXeXeXeXeX",
"eXeXeXeXeXeXeXeXeXeXwX9.K s v.XX|.}.|.|.}.|.|.|. X).).oX). X X)._.~.R ) 4 n 6XeXeXeXeXeXeXeXeXeXeXeX",
"eXeXeXeXeXeXeXeXeXeXeXqX5Xz d z.'.|.|. X|. X.X|.XX).oX).}.}.|.|._.!.R 3 J $XeXeXeXeXeXeXeXeXeXeXeXeX",
"eXeXeXeXeXeXeXeXeXeXeXeXwXV.F n W ] g.g.g.g.z.P.U.U.L.L.m.P.P.L.z.^ R M OXeXeXeXeXeXeXeXeXeXeXeXeXeX",
"eXeXeXeXeXeXeXeXeXeXeXeXeX,XC.a.Z.i.s.@.A k 9 w.v.g.L 0 S o.+.u.A.u.( f.wXeXeXeXeXeXeXeXeXeXeXeXeXeX",
"eXeXeXeXeXeXeXeXeXeXeXeXeXG.I :XeXeX4X4.2.*.l ' /./.w.t #.6.,.+X0XC.f.{ eXeXeXeXeXeXeXeXeXeXeXeXeXeX",
"eXeXeXeXeXeXeXeXeXeXeXeXeX<XI s.0XeX;X5.5.:.d.D y.l.S | #.>.>.o.N.F.{ f.eXeXeXeXeXeXeXeXeXeXeXeXeXeX",
"eXeXeXeXeXeXeXeXeXeXeXeXeXwXC.I H.eX;X2.>.#.3.t.+.X.>.5.| ..} 6 C #X^ x.eXeXeXeXeXeXeXeXeXeXeXeXeXeX",
"eXeXeXeXeXeXeXeXeXeXeXeXeXeX6X9.0.4X;XX.} u >.%.d.*.<.<.-.S e w Z H.z Z.eXeXeXeXeXeXeXeXeXeXeXeXeXeX",
"eXeXeXeXeXeXeXeXeXeXeXeXeXeXeX:XI B.H.r e u ....o.=.` *.4.;Xy.e C Z * (.eXeXeXeXeXeXeXeXeXeXeXeXeXeX",
"eXeXeXeXeXeXeXeXeXeXeXeXeXeXeXwXZ.I U i t e u t y y u k z D.4X+.Z ' L &XeXeXeXeXeXeXeXeXeXeXeXeXeXeX",
"eXeXeXeXeXeXeXeXeXeXeXeXeXeXeXeXOXJ w.Z e ..,.;.,.1.5.S E N %XJ.q.j.h.A.eXeXeXeXeXeXeXeXeXeXeXeXeXeX",
"eXeXeXeXeXeXeXeXeXeXeXeXeXeXeXeX*Xe.f.P O.-.,. .>.6.6.:.K v Q e.&Xz.w.#XeXeXeXeXeXeXeXeXeXeXeXeXeXeX",
"eXeXeXeXeXeXeXeXeXeXeXeXeXeXeXeXeX5Xi.I ` *.%.d.:.1.<.O.F E [ ! A.b Z.rXeXeXeXeXeXeXeXeXeXeXeXeXeXeX",
"eXeXeXeXeXeXeXeXeXeXeXeXeXeXeXeXeXeX5XV.b.W.D.D.d.+.s.V.k.W W B F g 7XeXeXeXeXeXeXeXeXeXeXeXeXeXeXeX",
"eXeXeXeXeXeXeXeXeXeXeXeXeXeXeXeXeXeXwX&Xm.W.W.e.l.c.b.{.D.c.e.' g 8.eXrXeXeXeXeXeXeXeXeXeXeXeXeXeXeX",
"eXeXeXeXeXeXeXeXeXeXeXeXeXeXeXeXeXrX9Xs.q.r.b.V.*XH.S.n.S.l.8.J.h $XeXeXeXeXeXeXeXeXeXeXeXeXeXeXeXeX",
"eXeXeXeXeXeXeXeXeXeXeXeXeXeXeXeXeXeXwX@.w w C M.7X*Xb.k.~ f t.f.f.wXeXeXeXeXeXeXeXeXeXeXeXeXeXeXeXeX",
"eXeXeXeXeXeXeXeXeXeXeXeXeXeXeXeXeXeXeXM.6 6 0 <XeXqXi.C 8 8 w.) 1XwXeXeXeXeXeXeXeXeXeXeXeXeXeXeXeXeX",
"eXeXeXeXeXeXeXeXeXeXeXeXeXeXeXeXeXeXrX=.e e D 6XeXeX3XC 7 0 R S.eXeXeXeXeXeXeXeXeXeXeXeXeXeXeXeXeXeX",
"eXeXeXeXeXeXeXeXeXeXeXeXeXeXeXeXeXeX9Xr.T P t.rXeXeX7XD i a ) 8XeXeXeXeXeXeXeXeXeXeXeXeXeXeXeXeXeXeX",
"eXeXeXeXeXeXeXeXeXeXeXeXeXeXeXeXeXeX6Xp.] ] A.eXeXeXrXa.G v h.qXeXeXeXeXeXeXeXeXeXeXeXeXeXeXeXeXeXeX",
"eXeXeXeXeXeXeXeXeXeXeXeXeXeXeXeXeXeX&XT.`.Q.{.rXrXeXwX{.W g.`.{.0XwXeXeXeXeXeXeXeXeXeXeXeXeXeXeXeXeX",
"eXeXeXeXeXeXeXeXeXeXeXeXeXeXeXeXeXwX{.].].`.&XeXeXeXeX5X{.].].{.*XeXeXeXeXeXeXeXeXeXeXeXeXeXeXeXeXeX",
"eXeXeXeXeXeXeXeXeXeXeXeXeXeXeXeXeXeX9X9X9XrXeXeXeXeXeXeXeXqX9X8XqXeXeXeXeXeXeXeXeXeXeXeXeXeXeXeXeXeX",
"eXeXeXeXeXeXeXeXeXeXeXeXeXeXeXeXeXeXeXeXeXeXrXeXeXeXrXrXrXeXeXeXeXeXeXeXeXeXeXeXeXeXeXeXeXeXeXeXeXeX"
};
