/* XPM */
static char *player[] = {
/* columns rows colors chars-per-pixel */
"16 16 204 2 ",
"   c #792B3A",
".  c #792C3E",
"X  c #6E3036",
"o  c #61343E",
"O  c #7D383B",
"+  c #7E2D46",
"@  c #774943",
"#  c #704754",
"$  c #833D3C",
"%  c #88473D",
"&  c #88473E",
"*  c #864E3D",
"=  c #874E3D",
"-  c #88483E",
";  c #873742",
":  c #8F3044",
">  c #8F3145",
",  c #883845",
"<  c #8A3B4B",
"1  c #8A3B4C",
"2  c #903944",
"3  c #993A43",
"4  c #9B354A",
"5  c #802E50",
"6  c #8B2F56",
"7  c #843558",
"8  c #853558",
"9  c #933253",
"0  c #903056",
"q  c #9B3651",
"w  c #973D52",
"e  c #9B3A58",
"r  c #9A3D5B",
"t  c #A13C46",
"y  c #A23E47",
"u  c #8F4540",
"i  c #8E4840",
"p  c #8B4947",
"a  c #8D4D4B",
"s  c #954142",
"d  c #974042",
"f  c #964142",
"g  c #994346",
"h  c #954941",
"j  c #934C41",
"k  c #934E41",
"l  c #934E47",
"z  c #994943",
"x  c #994C43",
"c  c #9A4C43",
"v  c #9A4E43",
"b  c #9E4A44",
"n  c #9E4C44",
"m  c #9E4F44",
"M  c #954649",
"N  c #8F5040",
"B  c #915041",
"V  c #925041",
"C  c #925141",
"Z  c #955041",
"A  c #9A5043",
"S  c #9B5043",
"D  c #9B5143",
"F  c #995442",
"G  c #985642",
"H  c #9C5044",
"J  c #9F5045",
"K  c #9E5344",
"L  c #9C5444",
"P  c #985842",
"I  c #9C5F43",
"U  c #995F44",
"Y  c #9F504D",
"T  c #945D4A",
"R  c #955B4E",
"E  c #815555",
"W  c #875D51",
"Q  c #9D5258",
"!  c #9D5359",
"~  c #A14246",
"^  c #A64147",
"/  c #A84E47",
"(  c #A25045",
")  c #A25145",
"_  c #A25345",
"`  c #A45046",
"'  c #A55146",
"]  c #A35445",
"[  c #A85347",
"{  c #A95347",
"}  c #A75349",
"|  c #A85348",
" . c #AB5D48",
".. c #AE5E49",
"X. c #B9544D",
"o. c #A04C55",
"O. c #A85755",
"+. c #9F6244",
"@. c #966649",
"#. c #9F624C",
"$. c #9D6A49",
"%. c #976754",
"&. c #90655D",
"*. c #A06644",
"=. c #A46746",
"-. c #AA6147",
";. c #A26A45",
":. c #A46B46",
">. c #A76A46",
",. c #A36D45",
"<. c #A46D45",
"1. c #A86B47",
"2. c #A0644E",
"3. c #AD6448",
"4. c #AD6548",
"5. c #AE6549",
"6. c #AE6849",
"7. c #AF6949",
"8. c #AC6A48",
"9. c #AC6C48",
"0. c #AD6C48",
"q. c #AC6F48",
"w. c #B06149",
"e. c #B06549",
"r. c #B26E4A",
"t. c #B36E4A",
"y. c #A37148",
"u. c #AC7749",
"i. c #AF724E",
"p. c #AF754D",
"a. c #B3714A",
"s. c #B3714B",
"d. c #B4724A",
"f. c #B2744A",
"g. c #B3744A",
"h. c #BC734D",
"j. c #B37A4A",
"k. c #B47B4A",
"l. c #B97D4C",
"z. c #B97E4C",
"x. c #BA7E4C",
"c. c #A26B5C",
"v. c #B26757",
"b. c #B36A51",
"n. c #B46957",
"m. c #B46958",
"M. c #AC7C50",
"N. c #87626E",
"B. c #9D6A62",
"V. c #92676B",
"C. c #946B69",
"Z. c #AF7161",
"A. c #A37268",
"S. c #C3764F",
"D. c #C07F4E",
"F. c #C76C51",
"G. c #C67350",
"H. c #C17B53",
"J. c #BF824D",
"K. c #BA854C",
"L. c #BB854D",
"P. c #BC854D",
"I. c #BD854D",
"U. c #C0884E",
"Y. c #C28A4E",
"T. c #C28B4F",
"R. c #C38B4F",
"E. c #C18C4E",
"W. c #C68F4F",
"Q. c #C98B50",
"!. c #C98B51",
"~. c #CA8D51",
"^. c #CD9252",
"/. c #CD9352",
"(. c #CF9752",
"). c #D39C53",
"_. c #D59E54",
"`. c #D69E54",
"'. c #D6A154",
"]. c #D9A355",
"[. c #DAA355",
"{. c #DAA555",
"}. c #DAA656",
"|. c #DBA656",
" X c #DDA556",
".X c #DEA557",
"XX c #DEA756",
"oX c #DEA857",
"OX c #E3AD58",
"+X c #E5AE58",
"@X c #E4AE59",
"#X c #E7B059",
"$X c #E9B45A",
"%X c #ECB65A",
"&X c #ECB65B",
"*X c #EDB75B",
"=X c #EDB85B",
"-X c #EFB85B",
";X c #EFB95C",
":X c #F0BB5C",
">X c #F1BB5C",
",X c #F2BC5C",
"<X c #F3BD5C",
"1X c #F3BD5D",
/* pixels */
">X<X-X[.l.k j j A P I I.}.-X<X-X",
"%X+X`.U.8.b ` ..e.8.0.j.E.`.+X&X",
"XX^.f.+.v ^ X.F.S.S.h.=.;.f.^.oX",
"U.a.( A x 3 ~ / | { ` ( A J a.U.",
"E.r.n ( ( v x v A J J ] ( n r.U.",
"XX!.4. .-.1.;.;.;.;.>.-. .4.~.oX",
"%XXXJ.G % B B B B B N % P J..X;X",
"1X#XW.= X $ u h h u $ X = W.OX;X",
":XOXl.% O L r.D.x.t.L O p l.(.'.",
"[.~.4.s 2 Y b.H.H.b.` 2 s 3.p.M.",
"L.a.| t 4 w o.O.O.o.w 4 t } R W ",
"<.8.w.d > q e r r e q > g v.c.&.",
"<.q.8.k , 9 0 6 6 0 9 ; l Z.A.C.",
"L.k.1.I a 8 5 + + 5 8 p T B.V.N.",
"}.`.U.u.2.Q 1 . . 1 ! #.$.%.E # ",
">X#X}.L.p.n.M     M v.i.y.@.@ o "
};
