/* XPM */
static char *wall[] = {
/* columns rows colors chars-per-pixel */
"16 16 217 2 ",
"   c #7E3B3C",
".  c #584433",
"X  c #594533",
"o  c #594633",
"O  c #594334",
"+  c #594434",
"@  c #594138",
"#  c #5A4138",
"$  c #5A5635",
"%  c #5C5A35",
"&  c #5D5638",
"*  c #674136",
"=  c #614E36",
"-  c #664E37",
";  c #634A3C",
":  c #71443A",
">  c #615337",
",  c #6A5532",
"<  c #6C5633",
"1  c #615F35",
"2  c #795F36",
"3  c #75543A",
"4  c #785338",
"5  c #7D513C",
"6  c #715B3B",
"7  c #5D6536",
"8  c #5F6437",
"9  c #666137",
"0  c #666535",
"q  c #6B6637",
"w  c #6A6835",
"e  c #6A6935",
"r  c #6A6A35",
"t  c #716D35",
"y  c #7B6B37",
"u  c #756039",
"i  c #706439",
"p  c #607237",
"a  c #657637",
"s  c #697937",
"d  c #667B38",
"f  c #737034",
"g  c #747737",
"h  c #787337",
"j  c #7C7636",
"k  c #707C36",
"l  c #7E7339",
"z  c #663940",
"x  c #683A40",
"c  c #744041",
"v  c #7E4D41",
"b  c #885E3E",
"n  c #87693B",
"m  c #886F39",
"M  c #896D3B",
"N  c #886E3A",
"B  c #896B3E",
"V  c #896C3D",
"C  c #8A6D3D",
"Z  c #88703A",
"A  c #89703A",
"S  c #88713A",
"D  c #8D733E",
"F  c #877E39",
"G  c #8B7C3C",
"H  c #833449",
"J  c #843449",
"K  c #8D4543",
"L  c #9E4C44",
"P  c #965343",
"I  c #A1494A",
"U  c #A35C49",
"Y  c #B25B49",
"T  c #B55D51",
"R  c #926E40",
"E  c #9C6A44",
"W  c #9F7B42",
"Q  c #BD6B4E",
"!  c #A37D45",
"~  c #A37E46",
"^  c #A57F46",
"/  c #D67F54",
"(  c #6C8137",
")  c #708137",
"_  c #728837",
"`  c #788D37",
"'  c #7B8F37",
"]  c #708738",
"[  c #7A9437",
"{  c #7B9437",
"}  c #7F9537",
"|  c #838336",
" . c #838736",
".. c #838A37",
"X. c #848B36",
"o. c #848A37",
"O. c #808C36",
"+. c #818E36",
"@. c #868338",
"#. c #8B803C",
"$. c #8E833C",
"%. c #878F38",
"&. c #849235",
"*. c #879036",
"=. c #829636",
"-. c #829737",
";. c #859437",
":. c #879737",
">. c #899037",
",. c #899437",
"<. c #8B9637",
"1. c #829837",
"2. c #839837",
"3. c #819A37",
"4. c #829B37",
"5. c #839B37",
"6. c #849936",
"7. c #869836",
"8. c #859A36",
"9. c #849B37",
"0. c #869B36",
"q. c #869B37",
"w. c #819D37",
"e. c #829C37",
"r. c #869F37",
"t. c #889A36",
"y. c #889D37",
"u. c #889F37",
"i. c #8B9E36",
"p. c #86A137",
"a. c #89A036",
"s. c #88A137",
"d. c #8AA136",
"f. c #8BA137",
"g. c #89A336",
"h. c #89A237",
"j. c #89A337",
"k. c #8DA037",
"l. c #8CA236",
"z. c #89A436",
"x. c #8BA436",
"c. c #8AA536",
"v. c #8CA637",
"b. c #8DA737",
"n. c #8FA736",
"m. c #8FA637",
"M. c #8FA737",
"N. c #8CA937",
"B. c #8DA937",
"V. c #8EA837",
"C. c #8FA837",
"Z. c #8EA937",
"A. c #8EAA37",
"S. c #8FAA37",
"D. c #8EAB37",
"F. c #8FAB37",
"G. c #8FAC37",
"H. c #90A837",
"J. c #90A937",
"K. c #90AA37",
"L. c #91AA37",
"P. c #90AB37",
"I. c #91AC37",
"U. c #90AD37",
"Y. c #91AD37",
"T. c #92AC37",
"R. c #92AD37",
"E. c #93AD37",
"W. c #91AE37",
"Q. c #92AE37",
"!. c #93AE37",
"~. c #92AF37",
"^. c #93AF37",
"/. c #93B037",
"(. c #9D8042",
"). c #A88046",
"_. c #B18648",
"`. c #B2844A",
"'. c #B4854A",
"]. c #B8894B",
"[. c #BB8D4B",
"{. c #BC8D4B",
"}. c #BC8E4B",
"|. c #BD8C4D",
" X c #BC8E4D",
".X c #C2904E",
"XX c #C59050",
"oX c #C69450",
"OX c #C99750",
"+X c #CC9952",
"@X c #D29D53",
"#X c #D19F53",
"$X c #D29F53",
"%X c #D49F53",
"&X c #DAA356",
"*X c #D9A455",
"=X c #DCA556",
"-X c #DDA756",
";X c #DFA957",
":X c #E0AA57",
">X c #E3AB58",
",X c #E4AB58",
"<X c #E4AC58",
"1X c #E5AC59",
"2X c #E4AF59",
"3X c #E6B159",
"4X c #E7B15A",
"5X c #E8B059",
"6X c #EAB35A",
"7X c #EAB45A",
"8X c #EEB85B",
"9X c #EFB85C",
"0X c #EFB95C",
"qX c #F0BA5C",
"wX c #F0BB5C",
"eX c #F1BB5C",
"rX c #F2BC5D",
/* pixels */
"eX7X;X&X=X,X2X,X,X2X,X,X5XqXeXqX",
"rX7X*X.X].{.{.{.{.{.{. X+X5XqXeX",
"rX2XOXW N N N N N Z Z V ! *X2X9X",
"9X$X).$.X.%. .| >.<.,.X.#.)..X=X",
":X XD %.g.c.q.:.n.W.W.g.O.V `.%X",
"XX^ l :.A.g.g.g.K.W.K.W.,.Z `.$X",
"E B g q.W.A.A.A.A.K.K.W.k.@.(.`.",
"5 u k r./.W.W.K.g.k.M.E.n.>.G D ",
"3 i ( p.W.A.A.b.} -.M.E.K.y.F n ",
"- 9 ( 5.k.t.k.n.q.y.K.E.n.-.j 2 ",
"+ % d { q.&.i.K.A.W.E.E.g.' t < ",
"X $ p _ 5.g.K.W.E.E.E.W.n.-.t , ",
"* = 8 s ` p.N.A.G.A.A.A.y.O.y 4 ",
"  : & 0 a ] { 5.5.5.5.:.O.h n P ",
"I K x ; & 1 0 r r r q q 6 v U Q ",
"Y I J x # X X X X X O @ z H T / "
};
