/* XPM */
static char *wall[] = {
/* columns rows colors chars-per-pixel */
"50 50 147 2 ",
"   c #B25644",
".  c #B35644",
"X  c #B35744",
"o  c #B45744",
"O  c #B45844",
"+  c #B45845",
"@  c #B55945",
"#  c #B65A45",
"$  c #B65A46",
"%  c #B75B46",
"&  c #B75C46",
"*  c #B85C46",
"=  c #B85D47",
"-  c #B95D47",
";  c #B95E47",
":  c #BA5E47",
">  c #BB6048",
",  c #BC6048",
"<  c #BC6149",
"1  c #BD6149",
"2  c #BD6249",
"3  c #BE6349",
"4  c #BE634A",
"5  c #BF644A",
"6  c #BF654A",
"7  c #C0654A",
"8  c #C0654B",
"9  c #C0664B",
"0  c #C1664B",
"q  c #C1674B",
"w  c #C2674C",
"e  c #C2684C",
"r  c #C3684C",
"t  c #C3694C",
"y  c #C3694D",
"u  c #C4694D",
"i  c #C46A4D",
"p  c #C56A4D",
"a  c #C56B4D",
"s  c #C66C4E",
"d  c #C66D4E",
"f  c #C76D4E",
"g  c #C76D4F",
"h  c #C76E4E",
"j  c #C76E4F",
"k  c #C86E4F",
"l  c #C86F4F",
"z  c #C96F4F",
"x  c #C9704F",
"c  c #CA7050",
"v  c #CA7150",
"b  c #CB7150",
"n  c #CB7250",
"m  c #CB7251",
"M  c #CC7251",
"N  c #CC7351",
"B  c #CD7351",
"V  c #CD7451",
"C  c #CD7452",
"Z  c #CE7452",
"A  c #CE7552",
"S  c #CF7652",
"D  c #CF7653",
"F  c #D07753",
"G  c #D07853",
"H  c #D17853",
"J  c #D17854",
"K  c #D17954",
"L  c #D27954",
"P  c #D27A54",
"I  c #D37A54",
"U  c #D27B54",
"Y  c #D37B54",
"T  c #D37B55",
"R  c #D47B55",
"E  c #D47C55",
"W  c #D57C55",
"Q  c #D57D55",
"!  c #D57D56",
"~  c #D67D56",
"^  c #D67E56",
"/  c #D77E56",
"(  c #D67F56",
")  c #D77F56",
"_  c #D77F57",
"`  c #B79650",
"'  c #A5B14F",
"]  c #C78E54",
"[  c #D78057",
"{  c #D88057",
"}  c #D88157",
"|  c #D98157",
" . c #D98158",
".. c #D98258",
"X. c #DA8258",
"o. c #DA8358",
"O. c #DB8358",
"+. c #DB8359",
"@. c #DB8459",
"#. c #DC8459",
"$. c #DC8559",
"%. c #DD865A",
"&. c #DD875A",
"*. c #DE875A",
"=. c #DE885A",
"-. c #DF885B",
";. c #DF895B",
":. c #E0895B",
">. c #E08A5B",
",. c #E08A5C",
"<. c #E18A5C",
"1. c #E18B5C",
"2. c #E28B5C",
"3. c #E28C5C",
"4. c #E28C5D",
"5. c #E38C5D",
"6. c #E38D5D",
"7. c #E48E5D",
"8. c #E58D5E",
"9. c #E48E5E",
"0. c #E48F5E",
"q. c #E58F5E",
"w. c #E5905E",
"e. c #E6905E",
"r. c #E6905F",
"t. c #E6915F",
"y. c #E7915F",
"u. c #E7925F",
"i. c #E8915F",
"p. c #E8925F",
"a. c #E8935F",
"s. c #E89360",
"d. c #E99360",
"f. c #E99460",
"g. c #EA9460",
"h. c #EA9560",
"j. c #EA9561",
"k. c #EB9561",
"l. c #EB9661",
"z. c #EB9761",
"x. c #EC9761",
"c. c #EC9762",
"v. c #EC9862",
"b. c #ED9862",
"n. c #ED9962",
"m. c #EE9962",
"M. c #EE9963",
/* pixels */
"O V k.c.k.k.c.k.c.k.k.k.k.c.c.k.k.k.k.c.k.c.k.c.c.k.H & d @.k.k.k.k.c.k.k.&.F F i o o 5 B 5 o O & O ",
"9 T k.c.k.k.k.k.k.k.k.c.k.k.k.k.k.c.k.k.k.c.k.k.k.c.[ p W 6.k.k.k.c.k.c.k.6.@.@.[ B y i V d 5 6 > o ",
"V #.k.c.k.k.c.k.k.c.k.k.c.k.c.c.k.k.k.c.k.k.k.c.c.k.=.E 6.c.k.c.k.k.k.c.c.k.k.k.k.a.X.F F T T E y & ",
"T #.k.k.c.k.c.k.k.c.k.c.k.k.k.k.c.c.k.k.c.k.k.k.k.c.#.E 7.v.k.k.c.k.k.k.k.c.k.c.c.c.a.&.H @.w.6.W l ",
"H #.k.c.k.k.k.c.k.k.k.k.k.c.k.c.k.k.k.k.c.k.c.k.k.k.6.@.w.c.k.c.k.c.k.k.c.k.k.k.k.k.c.w.@.w.c.c.6.@.",
"V @.k.k.k.c.k.k.c.k.c.k.k.k.k.k.c.k.c.k.c.k.k.k.k.k.k.k.c.k.k.k.k.k.k.c.k.k.c.k.k.c.k.k.k.k.c.k.k.k.",
"4 T k.c.k.k.k.c.c.k.k.k.c.k.c.k.k.k.k.k.k.c.k.v.w.#.6.k.c.k.k.c.k.c.k.c.k.c.k.c.k.k.k.c.c.c.c.k.k.c.",
"X l 7.k.c.c.k.k.k.k.c.k.c.k.k.k.k.c.c.k.k.k.k.v.w.W @.k.k.c.k.k.k.c.k.k.k.k.k.c.c.k.c.k.k.w.w.k.c.k.",
"O 9 W w.v.k.k.k.c.k.c.k.k.v.k.k.c.k.k.k.k.k.k.c.w.W @.k.k.k.c.k.k.k.c.c.k.k.k.k.k.k.k.c.k.@.[ w.k.k.",
"p 9 p <.v.k.c.k.k.k.c.k.k.k.k.c.k.k.c.k.k.c.c.7.W d E c.c.k.k.k.k.c.k.k.k.c.k.c.c.c.k.c.c.@.B B E X.",
"W l 5 X.k.k.v.k.k.k.k.k.k.v.k.k.k.c.k.c.c.k.w.[ d & c w.k.k.c.k.k.k.c.k.k.k.k.k.k.k.c.a.=.E B 6 B W ",
"d.@.V H #.k.c.v.v.k.v.k.k.k.c.k.k.k.k.k.c.w.W p & O y W w.c.c.k.c.k.k.k.k.c.c.k.k.c.c.&.6 d E ;.w.w.",
"v.w.#.T N F 7.v.v.v.v.v.v.c.k.v.k.=.6.k.c.w.=.[ x & 4 T w.v.k.k.k.c.k.k.c.k.k.k.k.k.c.@.y F 6.k.v.c.",
"k.v.k.@.c 9 W 7.6.6.7.w.w.w.k.k.k.| X.k.c.k.c.v.6.p w T 6.a.k.c.k.k.k.c.k.k.c.k.k.c.c.6.[ 6.c.k.k.c.",
"c.c.k.w.6.#.c 9 9 5 p T [ X.w.v.k.w.w.k.c.k.c.v.k.6.[ F E =.k.k.k.c.k.c.k.c.k.c.k.c.c.a.w.a.c.k.k.k.",
"k.k.k.c.v.k.d O 4 4 y W @.#.a.c.c.c.c.k.k.k.k.k.k.k.w.X.F | k.v.k.c.k.k.k.k.k.k.c.d.6.w.k.c.k.c.c.k.",
"k.c.c.k.v.w.d 4 V H [ w.k.k.k.k.k.k.k.k.k.k.c.c.k.k.c.w.| @.w.c.c.k.c.k.c.k.k.k.c.a.[ [ a.c.c.k.k.k.",
"k.k.k.k.v.d.E d F @.w.k.c.k.c.c.k.c.k.c.k.c.k.k.k.c.k.k.w.=.@.w.c.c.k.k.c.k.c.k.c.a.[ @.k.c.c.k.c.c.",
"k.c.k.c.v.k.X.T | w.c.k.k.c.k.k.k.c.k.c.k.k.c.k.k.k.k.c.v.#.x [ w.c.c.c.c.c.c.c.k.=.V F 6.d.c.c.c.k.",
"k.k.k.k.c.a.[ [ w.k.k.c.k.k.c.k.k.k.k.k.c.k.k.k.k.c.c.k.v.[ > d [ w.k.a.a.k.a.k.=.F > 5 F ;.a.a.d.k.",
"c.c.c.v.w.@.=.6.c.c.k.k.c.k.k.k.c.k.k.k.k.c.c.k.k.c.k.c.v.[ & : w d l B [ [ [ @.V 5 o & > y B [ @.[ ",
"6.6.@.=.[ T 6.c.c.k.k.c.k.k.c.k.c.k.c.k.k.k.k.k.k.k.k.k.v.| & . o > 5 i E [ [ [ V w w y y 6 d E W [ ",
"E x 4 > y F 6.c.k.c.k.k.c.k.k.k.k.c.k.k.c.c.k.c.c.k.c.c.c.[ & o > B @.w.w.a.a.w.w.w.w.w.w.w.w.a.a.a.",
"=.[ F i 5 y @.c.k.k.k.c.k.k.c.c.k.k.k.c.k.k.k.k.k.k.v.a.W d y B [ =.a.c.c.c.c.c.v.v.c.v.c.c.c.c.c.c.",
"c.c.d.@.l 5 @.c.k.c.k.c.k.k.k.k.k.k.k.k.k.c.c.k.c.k.k.=.i w W w.c.k.c.k.c.k.k.k.k.k.k.k.c.k.c.k.k.c.",
"c.k.k.a.@.V =.c.k.c.k.k.k.c.k.c.c.k.c.c.k.k.k.c.k.c.6.E B E w.k.c.k.k.k.c.k.c.k.c.k.c.c.k.k.k.k.k.k.",
"k.c.k.c.w.=.=.6.k.k.c.k.k.k.k.k.k.k.k.k.c.k.c.v.k.6.V y W 6.c.k.k.c.k.k.k.k.k.k.k.k.k.k.k.c.k.c.k.k.",
"k.k.k.c.k.k.@.[ a.c.k.k.k.c.c.k.k.c.c.k.k.k.w.k.6.E d w =.c.c.k.k.c.k.c.k.c.k.c.k.c.k.c.k.k.k.c.c.k.",
"k.c.c.k.c.k.w.w.k.c.k.c.k.k.k.k.k.c.k.k.c.w.[ W W F W =.a.c.k.k.c.k.k.k.k.c.c.k.k.k.k.c.k.k.c.k.k.k.",
"k.k.k.k.k.k.c.k.6.w.c.k.k.c.k.c.k.6.6.k.c.w.@.E H [ 6.c.c.c.k.c.k.k.c.k.k.k.k.k.c.k.k.k.c.k.k.k.c.c.",
"k.c.k.c.k.k.c.6.E =.k.k.c.k.k.c.k.| @.k.c.k.k.@.W w.k.k.k.c.k.c.c.k.k.k.c.k.c.k.k.k.c.k.c.k.c.k.k.k.",
"k.k.k.k.c.k.c.6.H E =.k.c.c.c.c.k.6.6.k.c.c.k.@.W w.c.c.k.k.k.k.k.k.c.c.k.k.k.k.c.k.c.k.k.k.k.k.c.k.",
"c.c.k.k.c.k.c.6.T l V =.w.6.6.6.w.a.c.k.k.c.c.=.@.w.c.c.k.k.c.c.k.k.k.k.k.k.c.c.k.k.k.k.c.c.k.k.k.k.",
"k.k.c.k.k.k.c.6.T 5 5 V E T T H E 6.c.c.k.k.k.d.d.c.k.c.k.c.k.k.k.c.k.c.k.c.k.k.k.c.k.c.k.k.c.k.c.k.",
"c.k.k.k.k.c.c.w.T 5 o > 4 5 c V H w.M.v.c.w.=.w.c.k.k.c.k.k.c.k.k.k.k.c.k.k.c.k.k.k.k.k.k.c.k.k.k.k.",
"k.k.k.c.k.c.a.#.c y 5 5 5 y T W [ ;.w.;.w.=.V @.c.c.k.k.c.k.k.k.k.c.k.k.c.k.k.k.k.c.c.k.k.k.k.c.c.k.",
"k.c.c.k.c.a.@.B > T w.6.6.6.w.d.w.X.c 5 B B > E k.c.k.k.k.c.c.k.c.k.k.k.k.c.c.k.k.k.k.c.k.k.c.k.c.k.",
"k.k.k.k.c.k.[ B F ;.v.v.c.v.c.v.c.;.E 6 5 > & F k.c.c.k.k.k.k.k.c.k.c.k.k.k.k.k.k.c.k.k.c.k.c.k.k.k.",
"c.k.c.c.k.k.@.@.k.c.c.k.k.k.c.k.c.c.6.E y & & E c.c.k.k.c.c.k.c.k.c.k.k.c.c.k.c.c.k.k.k.c.k.k.k.c.k.",
"k.k.k.k.c.k.w.w.k.k.k.k.c.k.c.k.k.c.k.w.E w & F c.k.k.c.k.k.k.k.k.k.k.c.k.k.k.k.c.k.c.k.k.k.c.k.k.k.",
"k.k.k.k.w.=.w.c.c.k.k.k.c.k.c.k.k.k.c.c.6.E y F 6.a.c.k.k.k.k.c.c.d.k.c.d.c.c.k.k.k.k.k.c.c.k.k.k.c.",
"c.c.k.c.6.[ 6.c.c.k.c.k.k.k.c.k.c.k.k.k.c.6.E F E w.c.c.c.c.k.k.c.c.k.c.c.c.d.k.k.c.k.c.k.k.k.c.k.c.",
"k.k.k.c.a.w.w.c.k.k.k.k.c.k.k.k.c.k.k.k.c.a.w.[ E w.c.c.k.k.k.k.d.c.c.d.c.k.c.c.k.k.k.k.k.c.k.k.k.k.",
"k.c.k.w.w.k.c.c.k.c.k.c.k.k.k.c.k.k.c.k.k.c.c.;.@.;.w.c.c.k.c.k.k.c.c.d.c.k.d.c.k.c.c.k.k.k.k.c.k.c.",
"k.c.w.[ @.k.k.k.k.c.k.c.k.k.k.c.k.k.c.c.k.k.k.k.w.[ @.a.k.c.k.k.k.c.c.d.c.k.k.c.c.d.d.c.k.k.c.k.k.k.",
"c.w.@.F [ k.c.k.k.k.k.k.c.k.k.k.c.k.k.k.c.c.k.c.w.E x V w.v.c.c.c.d.c.c.c.d.c.d.c.c.c.k.c.k.c.k.c.c.",
"6.[ x T =.k.c.k.c.k.c.k.k.k.c.k.k.k.c.k.k.k.c.c.w.@.i > E ;.w.k.c.c.k.k.k.c.d.c.k.k.c.k.k.k.k.c.w.w.",
"E d 5 @.k.k.k.c.k.k.k.k.c.k.c.k.c.k.k.k.c.k.k.c.c.a.F & & y E 6.k.c.d.c.k.c.c.c.d.c.c.d.c.c.c.a.&.E ",
"5 5 l 6.c.k.c.k.k.c.k.c.k.k.k.k.k.c.k.c.k.c.k.k.c.c.E o . & w l F @.w.c.c.k.k.c.c.c.k.d.c.c.w.=.] ` ",
"O 5 E w.c.k.k.k.k.c.k.k.k.c.c.k.k.k.k.c.k.k.k.c.k.c.H & o O O o > B ;.c.c.c.k.k.d.c.k.c.k.c.6.U ` ' "
};
