/* XPM */
static char *wall[] = {
/* columns rows colors chars-per-pixel */
"50 34 38 1 ",
"  c #6D6C6E",
". c #767476",
"X c #777679",
"o c #78777A",
"O c #7C7B7D",
"+ c #7F7D80",
"@ c #807F82",
"# c #838285",
"$ c #878689",
"% c #88878A",
"& c #8B8A8D",
"* c #8E8E91",
"= c #908F92",
"- c #929295",
"; c #969699",
": c #98979B",
"> c #97989C",
", c #9A9A9D",
"< c #9D9EA2",
"1 c #A09FA3",
"2 c #9FA0A4",
"3 c #A1A2A6",
"4 c #A5A5AA",
"5 c #A7A8AD",
"6 c #A9AAAE",
"7 c #ACADB2",
"8 c #AFB0B5",
"9 c #B0B2B6",
"0 c #B4B5BA",
"q c #B7B8BE",
"w c #B8BABF",
"e c #BBBDC2",
"r c #BEC0C6",
"t c #BFC2C8",
"y c #C0C2C7",
"u c #C2C5CB",
"i c #C5C9CF",
"p c #C7CAD0",
/* pixels */
"ye:up76pq699t:eq*96;1&,<*;7->i0$ei,6:t68i93i404;w9",
"$<:0q:-74:1-;**-<4&<ee<<e-43<it;6u40<93-6;&3%:44&3",
"7u9*%<q%76-7*9-9pp3<ii7<qo;q<<&5:;:;&-$6+7ue-wii<9",
"qt33e-6&ey4i6&-ui93&;<;-O,ii<5>76:i78u::4iie*;08*;",
"1-3,=%45<7:y:<&34<y233uy#-33&34#,-q96i-:-t930--<97",
",<pu&7pp<:%=<e9-:-7-*5e7*y,3y4O8uw---3:6*-%7q::tie",
";:ye;&0e;<<37pu:e9%6e*<=1:#qpy&9it:6-&eiw40;-<:;<;",
"5$&#:--O-3:4-q4*3<#60;7-1-3=4:-%:;&&930i4&97%uq:6:",
"4&75X4u-0i;:4&#yy*7-29*<---+<#*25#w0=--&-q4$;:4:;&",
"7&,3+39*ei:4y3&e8;-&5u<e7<0*e<+ee:ut-et$3i0-6%er<t",
":q0*>74 8t-<;<7%*8-e*:+<:&<3>*-;-&ie&24;::333466-6",
"6e6%2y8X&<:p9<p;$:$7*;*5-Xqu0&qte-3::33uw&--,6%-67",
" :*5:&#&;6&<-;;-57+3ey<<e$:<$::33&-4$=$-$,,-&;66%7",
"9i9--2q$77*9-9-qpp3<up7<q&4q:6$5-*3>$3;5O0ut;qpp29",
"qe<3e*4%qy4p5&-up93*-:>-o<ii27<76:i87u:;4iiq--96&-",
"3*4<*&57<6:e;<&<<<y<34uu#-3<*23+<=q86u-:-e83q--2q8",
":3pu=7pp<<%&<e0-<-7**4e7*t:4u5o0ue--=<:7--%7q::riq",
"::yw-&9q;,<47iu:e0%7e*<*2;#qpt*7ur:6-=epw4q;&3,;,;",
"4#%#,--O-4:4-03-3>#40>7-<-4*1;;$:=&-939u4&95%yq,6,",
"5&85.5i;0i;,6*#uu*7;29*3---+<#&46@ew---&-w5$:;4,==",
"6&,3@28&ep,3t,&q7;-*4u<e7<q&q3Oeq-uy:ey%3i0-5&ew<y",
",eq&:74 7e-3;%7&*7-e*;+<>&:4<&-;;%ur-23:,;334455-5",
"5w5%3t7O&,:i9&i5&>#6->*4;.qi9%qut-3,,33uw&-&,4&-66",
" ,-5:&#&:6%,-;:379#3eu<2e$;<$<;1<&-6&-%-#,3;=;69&6",
"0i9-;3q%97-0-8-epp4:yi7:0&5e<5$5;&3-$2:6Oquy;wpi39",
"0e<3e*3%qy4i6&-yi73*-;:;o:ui<7355;i97u:-4iiq--65=-",
"3&6,%&78,5:e;<&:<<u<35iy$><<*<<#3-096i-,&r64q;;3q0",
":1pi-7pi<1%%<tq;3-6==3q6*t:5u6Oqiw=-&,,8;-&69;:euq",
",:wq-%70-:<57iu;qq%7e-<-3;$0pe&7ur:5;=rpw4q;&4,;:;",
"3#&#:;;O;6:3=9<-3;#39:5-:&3&<-;%-&=&638u4%66%yq,6;",
"6=96.6i;qi:<7=#ui-7;3q*5:;:%3%%68#yq&;;%-e6%,;4,--",
"6&;; 37&ei:3e:%q6:**4y<e73y10,oeq;uy-ry%3i9;6%rw3y",
"<ew&&q4 7e&3,-7%&7;e==%,=;p-$4<3%&ue-:,:,-345534-<",
"6u5o6pe&&.:pe4i4%-;i-;yu7%q&&iiu;.3:336pu-$$,6 ,q5"
};
