/* XPM */
static char *wall_0[] = {
/* columns rows colors chars-per-pixel */
"40 40 150 2 ",
"   c #746135",
".  c #756932",
"X  c #836637",
"o  c #836D34",
"O  c #668313",
"+  c #678810",
"@  c #6A8B13",
"#  c #6E8D1D",
"$  c #708D16",
"%  c #728E19",
"&  c #6E9019",
"*  c #719115",
"=  c #789817",
"-  c #759619",
";  c #7A961F",
":  c #7C9C1A",
">  c #7FA01A",
",  c #728E21",
"<  c #738D2C",
"1  c #759323",
"2  c #7A9321",
"3  c #7C9B22",
"4  c #779428",
"5  c #79932B",
"6  c #7D8938",
"7  c #7F9536",
"8  c #7C923F",
"9  c #7A8045",
"0  c #83A31D",
"q  c #88A71F",
"w  c #89A81F",
"e  c #869F23",
"r  c #89932D",
"t  c #8B9333",
"y  c #809B37",
"u  c #819B3A",
"i  c #86A420",
"p  c #89A722",
"a  c #8DAC22",
"s  c #84A72A",
"d  c #8FA62C",
"f  c #83A82E",
"g  c #8DAC2B",
"h  c #91AF21",
"j  c #8DB02B",
"k  c #94B324",
"l  c #99B624",
"z  c #9CBA25",
"x  c #95B42B",
"c  c #9AB828",
"v  c #8AA136",
"b  c #86AC36",
"n  c #8BAC33",
"m  c #8BAD3B",
"M  c #91A73E",
"N  c #90AB3D",
"B  c #8DB13A",
"V  c #93B634",
"C  c #93B53A",
"Z  c #9DB639",
"A  c #94B93A",
"S  c #9AB93C",
"D  c #A1BE26",
"F  c #A2BF29",
"G  c #A0BB34",
"H  c #A1BB3D",
"J  c #A2C027",
"K  c #A5C329",
"L  c #AAC728",
"P  c #A5C53D",
"I  c #A8C73F",
"U  c #ADC93D",
"Y  c #B0CC3F",
"T  c #859A45",
"R  c #8A924A",
"E  c #8C9F4D",
"W  c #8B9050",
"Q  c #8EA841",
"!  c #8BA34A",
"~  c #94AE45",
"^  c #93AA48",
"/  c #99AF4E",
"(  c #93B642",
")  c #9EB545",
"_  c #9EBE41",
"`  c #92B54C",
"'  c #9BBA4D",
"]  c #90A255",
"[  c #98AD51",
"{  c #93A05E",
"}  c #99B454",
"|  c #9EBD51",
" . c #9CB55D",
".. c #A2B742",
"X. c #A1B94B",
"o. c #ACBB4C",
"O. c #A3B856",
"+. c #AABB54",
"@. c #A2B95A",
"#. c #979E67",
"$. c #A3946F",
"%. c #A39470",
"&. c #A99779",
"*. c #A59E7E",
"=. c #9EAB67",
"-. c #9CB064",
";. c #A7AB6E",
":. c #A6B965",
">. c #ADBE65",
",. c #ACBB6B",
"<. c #AAB57F",
"1. c #B0BC72",
"2. c #A3C143",
"3. c #A9C744",
"4. c #ADCA43",
"5. c #B2CE41",
"6. c #B6D141",
"7. c #BAD345",
"8. c #B2C555",
"9. c #BBCC53",
"0. c #B4C364",
"q. c #B2CC66",
"w. c #AAC471",
"e. c #B5CB78",
"r. c #C0D546",
"t. c #C4DA45",
"y. c #CCDF47",
"u. c #CCDF48",
"i. c #CEE046",
"p. c #C2C67C",
"a. c #D6E474",
"s. c #AE9C8B",
"d. c #AAB580",
"f. c #ACB982",
"g. c #B2B581",
"h. c #B9BB89",
"j. c #B8B794",
"k. c #B9B894",
"l. c #C4B895",
"z. c #C5BAA2",
"x. c #C9B8A3",
"c. c #B8C189",
"v. c #C9D59F",
"b. c #C9CBA7",
"n. c #CACBA8",
"m. c #C9D5A0",
"M. c #CFDEA8",
"N. c #D2C9BD",
"B. c #DBD7BB",
"V. c #DDE3C3",
/* pixels */
"@ @ = 1 5 @ @ @ + * - B O.A C I 5.U 6.f @ @ - 1 5 + + + + * = B | C C P 5.4.6.f ",
", % 1 4 4 @ + O + + * V 4.S B 2.5.P I B 1 # 4 4 4 @ + + + + & V 4.Z B P 6.P I n ",
"T <.T % ! 5 O . $ 0 0 n C C w.( A A A 3 7 f.T & ! 7 O . * > > b C ( w.( A C A b ",
"] *.=.u v.V.=.4 p k z S ` ` c. .` Q b 3 ! s.=.v m.V.=.6 w h D A ` ` c. .` b b 4 ",
"&.s.h.9.a.a.p.;.d h k X.2.} b.z.w.` n t %.s.h.9.a.a.p.;.g h k ' ..O.b.x.w.~ n r ",
"X N.M.4.7.i.7.P L D K k x ,.B.x.1.g J l o N.M.3.t.i.r.G L D K l x ,.B.x.1.g K D ",
"  k.e.' 4.i.Y c l z d ^ ) Y 8.l./ l h a . k.e.' Y u.6.V l z g ~ ..U 8.l./ l h k ",
"W ,.7.7.I 4.6.P n g F G x a M g.Q h z a R ,.7.7.P 5.6.H b g F F x h M <.` w z a ",
"@.q.6.t.5.I t.t._ n l k g Z H Q p z a 0 @.q.6.t.5.I t.t._ g l k g Z H Q p x a q ",
"3 ( 3.6.A P t.t.U j z k k i w = : 0 q q 3 ( 3.6.A I t.t.4.j z k k i a = : 0 w w ",
"= m | S C P 5.U 6.s $ $ : 1 5 @ @ @ @ * - m | S C P 5.U 6.s # @ : , 5 @ @ @ @ @ ",
"# V 4.S B P 5.I P n 1 # 1 4 4 @ @ O @ + & V 4.C B P 5.P I n 1 # 1 4 5 @ @ + @ + ",
"i b C ( w.( C C A f u d.T % ! u O O * : i n C C w.( C C A f u f.T % ! y O O @ 0 ",
"z S ` ` c. .` m b 1 E *.=.v m.V.#.6 p k z Z ` ` c. .` m b 1 ! *.=.v m.V.#.6 p h ",
"l ) 2.} n.z.w.` n t %.s.h.9.a.a.p.;.d w l X.2.} n.z.w.~ n t %.s.h.9.a.a.p.;.g a ",
"K l x ,.B.x.1.g K c o N.M.3.t.i.r.G L J K l x w.B.x.1.g K x o N.M.4.t.i.r.G L z ",
"d ^ ) U 8.l./ z k p . k.e.' U i.7.x z z g ^ ) U 8.l./ l h a . k.e.' Y i.6.V c z ",
"F F k g M g.~ a z p R ,.7.7.P 5.Y P n g K c x g M g.~ h z q R ,.7.7.I 5.Y P b g ",
"l k g Z H Q p c a 0 O.q.6.t.5.4.7.t._ g l k g Z H Q p x h 0 O.q.Y t.4.4.r.r.P g ",
"z k k i p = : 0 q q 3 ( 3.6.A P t.t.4.j z k l 0 p = : i p 0 3 ( 4.6.A P t.t.I g ",
"% % : 1 4 @ @ @ @ * - B ' S C P 6.4.6.s * @ : 1 4 @ @ + @ * * C ' S A P 6.U 5.f ",
", # 1 4 4 @ + + @ + & V 4.S B P Y P 3.n 1 # 1 1 4 @ + O @ + # V 4.A B P 4.I P B ",
"u <.T # ! 7 O O * 0 0 b C ( w.( A A A f u <.T # ! y O O * 0 0 n C ( w.( A A A n ",
"] *.;.u v.V.#.6 q h z S ` ` c. .` m b 1 ! s.=.v v.V.#.6 p a z S ` ` c. .` m n 1 ",
"&.s.h.9.a.a.p.;.d a l X.2.} n.x.w.~ n t %.s.h.9.a.a.p.;.d k k ) ..} n.z.w.` n r ",
"X N.M.4.t.i.r.H L F K k x ,.B.x.1.g K l o N.M.4.t.i.r.G L J K x x ,.B.x.1.g K D ",
"  j.e.' U i.7.x l z g ^ ) U 8.l.[ l k p . k.e.' Y i.7.x l z g ^ ) U 8.l./ l h h ",
"R :.7.7.I 4.5.P m g K c x a Q g.~ h z p R ,.7.7.P Y Y P n g K G x a M g.~ h z h ",
"@.q.6.t.5.I t.7._ n l l h Z H m p x h 0 O.q.6.t.Y I 7.r._ g l k g Z H Q p z a w ",
"3 ( 3.6.A I t.y.U g z k k p p - : q q q 3 ( 3.6.A I t.y.I j z k k i w = : 0 w p ",
"- B | S C P Y 4.5.s % $ : 2 4 @ @ @ @ * - B ' S A I 5.4.6.f % @ : 1 4 @ @ @ @ @ ",
"& C U S B P Y I I n 1 # 1 < 4 @ + O @ + & V 4.S B P 5.P P n 1 , 1 4 4 @ @ O + + ",
"i n C ( w.( A A A b u d.T # ! 7 O O * 0 0 n C ( w.( A A A b y <.T % ! y O O $ 0 ",
"z S ` ` c.-.` m b 1 E *.;.v v.V.#.6 p h z Z ` ` c. .` m b 2 E *.=.u v.V.#.6 p h ",
"l X.2.} b.l.w.~ n t $.s.h.9.a.a.p.;.d h k ) 2.} n.z.w.~ n t $.s.h.9.a.a.p.;.d a ",
"K l x ,.B.x.1.g K l o N.M.4.t.i.r.G L z J l x ,.B.x.1.g K l o N.M.4.t.i.r.G L D ",
"d ^ ) U 8.l./ l k a . k.e.' 4.i.6.V z z g ~ ) U 8.l.[ l h p . k.e.' 5.y.5.x l D ",
"J Z k g M g.` a z p R ,.7.7.P 6.5.P n g J Z k a Q g.~ i e ; 9 { ....M Z ) v 5 5 ",
"z k a Z H Q p c a 0 O.q.Y t.4.I t.t._ g l l g Z ..Q p s % y d.-.>.0.>.:.0.+.u < ",
"J l l q a - 0 i a q 3 A U 7.A I t.t.4.j F k l w h - > 3 2 5 9 ! } O.! / o.o.N 1 "
};
