/* XPM */
static char *FieldsTile_24[] = {
/* columns rows colors chars-per-pixel */
"50 50 85 1 ",
"  c #B55644",
". c #B65B45",
"X c #B95D47",
"o c #BA5F48",
"O c #AF6845",
"+ c #B36246",
"@ c #B76548",
"# c #BD6349",
"$ c #B46F49",
"% c #BB6D4A",
"& c #AE7F49",
"* c #B37249",
"= c #BC774C",
"- c #B47D4B",
"; c #BA7B4C",
": c #C1664B",
"> c #C56A4D",
", c #C96E4F",
"< c #C4744F",
"1 c #C9704F",
"2 c #CB6D50",
"3 c #C77750",
"4 c #CD7451",
"5 c #C37D50",
"6 c #CC7B53",
"7 c #D07653",
"8 c #D47B55",
"9 c #D87D57",
"0 c #DA7F58",
"q c #AC8449",
"w c #AB8D4B",
"e c #B4864C",
"r c #B38C4D",
"t c #AA964C",
"y c #AE9F4F",
"u c #B1974E",
"i c #BD8E50",
"p c #B79250",
"a c #BB9251",
"s c #B49C50",
"d c #BC9B53",
"f c #A7A54E",
"g c #ABA44E",
"h c #A6AE4F",
"j c #A9AB4F",
"k c #A5B14F",
"l c #AFA450",
"z c #ADAC51",
"x c #B2A351",
"c c #BDA554",
"v c #B3AB52",
"b c #BAA954",
"n c #A9B050",
"m c #C58451",
"M c #CB8253",
"N c #C48C52",
"B c #CA8854",
"V c #D48156",
"C c #D88157",
"Z c #D08E57",
"A c #DC8459",
"S c #DE8A5B",
"D c #C49554",
"F c #CC9256",
"G c #C39C55",
"H c #C99A57",
"J c #CD9958",
"K c #D5945A",
"L c #DE935C",
"P c #D59D5B",
"I c #DC9B5D",
"U c #E0875B",
"Y c #E38C5D",
"T c #E5925E",
"R c #E8925F",
"E c #E2995F",
"W c #C2A456",
"Q c #C7A458",
"! c #CCA259",
"~ c #D1A15B",
"^ c #E79760",
"/ c #EB9661",
"( c #E79860",
") c #ED9862",
"_ c #F09462",
/* pixels */
" :77NhkkkkkhQ///////////^/8X,A^//////A47ahns6snkkk",
"&mAUDnkkkkkkQ////////////)8>8Y/////^/TAAKWngaashkk",
"hW^_Plhkkknz!/////////////U8Y////////////^WnzNBxzj",
"kW^)SNgkkkz~E//////////////T/////////////^IIITTIFm",
"sJ//TAHcWb!^///////////////^///////////////_//)/UA",
"6A/)///^^/^///////////////////////////////////////",
":7/////////////////////UA/////////////////////////",
" <PII//////////////////A8Y////////////////////)/^Y",
" -zzW^)////////////////A8T//////////////////////A8",
">rkkW^)////////////////A8R)///////////////////Y727",
"8DgjGT////)////////////A7T////////////////////V*=m",
"TS6M68Y)///////////////4>U)//////////////////Umygl",
"/YA8770AASU/^))/////YAA>#Y)/////////////////^Fsnkk",
"/)/87888848Y/RT/////A88>:U//////////////////Tcknnn",
"/)/89YTTY4#7888U////TTT848U)^//////////////YCskkkk",
"//RSU/))/8:48AAU/////)/YC,8/)/////////////_U6skkkk",
"/////////A48A//////////)U:4^//////////////^Y8skknn",
"//////////S8U/)////////)Y##AT//////////////Y8skkkn",
"//////////Y48Y/^//////YA8#X,AT/////////////U4tkkkk",
"/////////)U#>8Y////^)T8>#  #2A/////////////A@wkhnh",
"^YA^/////)S# :8AAY////YA8,# X,CT//////////)A Oqhkn",
"YA4U)////)U:X#798T/////^/A4>>>7AT//)//////)A:#=cvv",
"8>:A//////T846U//////////TTYTA88AT/////////Y4AY^E(",
"A8:4A))_/044AU////////////)))TSAAA88/)))//~GdW~^//",
")Y8#,SYTI5$8U///////////////////Y8>:AYYYTPvkkkvT//",
"//Y8>##=xgsL//////////////////////82##:7FvhkkkxMU/",
"///U8#*whgDT//////////////////////T8o#40DkkkkkjaK/",
"////UMskzaC/////////^//////////////U#8//!nkkkkkh!/",
"/////TbkzHT///////////////////////_Y4A//!nknkkkk!_",
"/////^HysP////////////////////////)T8U//Kshkkkkk!/",
"//////C68S/^///////////////////////Y8A//YMxkkknz~/",
"//////047U^////////////////////////R8U//^Sxkkkz!^/",
"//////98AY/////////////////////////SNFI^/^QbbvQ^//",
"//////88T/////////////////////////AmlkvI//^^^^^///",
"//////44/)////////////^/////////)^FshkzI_///__//YA",
"/////Y::U////////////////////////^WnkkvI_/^IIIEIBm",
"////Y8##8Y////////////////////////WkkkzI/^czvzzvzl",
"///^A>:>7U/////////////////////^/SckkgDT(Qzkkkkkkk",
"////A#<66ST////////////////////)U6avzaCLQnkkkkkkkk",
"////A4ullNA^///////////////////)A:MIITLWnnkkkknkhk",
"///YA6xkke,AT//////////////////T8o8/_/^vkkkkkkkkkk",
"//^946xkhq#4A/////////////////TC>o8)//Evkkkkkhhknk",
"///9mxhkhfw@,A///////////////Y8,XX8)//Evkkkkhkkkhk",
"/RUBshnhnkg&;mC0AUY/))///)TYIJm%X 8)/_Evkkkkknkkkk",
"/UMshkkkkkhhhg*X#1VT//////U6xnjN,X8//_Evkkkkkkhnkk",
"/Kszkkkkkkknkhtwtuccm28AA096zkhli1A)//Evkknkkkkknh",
"IWnkknhkhnkkkkkkkkkhq*5mmm33rfkkg4AY//Edhhkhkkkkkk",
"znkkkkkkkkhkkkkkkkkhhgjzzzqXXqhnt@>A/^TVahkkknkhkk",
"kkkkkknkkkkkkkkkkknkknkkkkfq++qq*.-dWWWdskkknkkkkh",
"kkkkkkhkkkhnhkknkhkkkkkkkkkhO    .wkkhkhkkkkhkkkkn"
};
