/* XPM */
static char *FieldsTile_15[] = {
/* columns rows colors chars-per-pixel */
"50 50 75 1 ",
"  c #B35744",
". c #B55945",
"X c #B95D47",
"o c #BA5F48",
"O c #B36446",
"+ c #B06E47",
"@ c #BD6249",
"# c #BF684B",
"$ c #AE7F49",
"% c #B37749",
"& c #B27F4A",
"* c #BA784C",
"= c #C1664B",
"- c #C56B4D",
"; c #C86F4F",
": c #C2764E",
"> c #C9704F",
", c #C1784E",
"< c #CB6F50",
"1 c #CD7351",
"2 c #C57950",
"3 c #CB7C52",
"4 c #D07753",
"5 c #D47C55",
"6 c #D97E57",
"7 c #AE844A",
"8 c #B2864C",
"9 c #B58A4D",
"0 c #B2924E",
"q c #BD8F51",
"w c #B69550",
"e c #B99651",
"r c #B49C50",
"t c #BB9B52",
"y c #ABA54F",
"u c #A6AE4F",
"i c #A9AA4F",
"p c #A5B14F",
"a c #AFA350",
"s c #ACAC50",
"d c #B1A450",
"f c #BEA555",
"g c #B5AA53",
"h c #BCA855",
"j c #A9B050",
"k c #C48451",
"l c #CB8354",
"z c #C38C52",
"x c #D38256",
"c c #D88057",
"v c #D18B57",
"b c #D78658",
"n c #DB8459",
"m c #DE895B",
"M c #C79555",
"N c #C49B55",
"B c #C99B57",
"V c #CD9B58",
"C c #DD945C",
"Z c #D49E5B",
"A c #DB9C5D",
"S c #E38C5D",
"D c #E88F5F",
"F c #E6915F",
"G c #E8925F",
"H c #E3995F",
"J c #C3A556",
"K c #C2A857",
"L c #C7A358",
"P c #CAA359",
"I c #D1A05A",
"U c #E79660",
"Y c #EB9661",
"T c #E69960",
"R c #ED9862",
/* pixels */
".=44zipuppupPRYYYYYYYYYYYY4X-mYYYYYYYm1. . @1o+ypu",
"$knnMuppupppPYYYYYYYYYYYRYn-5SYYYYYYYSn5=X-5n<*spp",
"uJYRZgupuppsPYRYYYYYYYYYYYn4SYYYYYYYYYYY5@bRYnlaup",
"pJYRmkypppsZHYYYYYYYYYYYYY5=mRYYYYYYYYYRm1SRYYblrp",
"wVYYSbBfffPHRYYYYYYYYYYYYY4@nRYYYYYYYYYRm5SYYRDnMw",
"1nYRYYYYYYYYYYYYYYYYYYYYRR4omRYYYYYYYYYYm5SRYYYYb3",
"@5RRRYYYYYYYYYYYYYYYYYYYYY4@nRYYYYYYYYYYS5SRYYYRYS",
" :ZAAYYYYYRYYYYYYYYYYYYYRY5=mRYYYYYYYYYR61nDYRYYYS",
".&ssJYRYYYYYYYYYYYYYYYYYYYm4SYYYYYYYYYYY5o-nUYYYn4",
"-9pphYRYYYYYYYYYYYYYYYYYRRm5SRYYYYYYYYYR5.X*JKBb<o",
"5MyyNSYRYYRYYYYYYYYYYYYRYSccSRYYYYYYYYYYn@O7updx<=",
"Gb3l35SRYYYYYYYYYYYYYYRRS-1GRYYYYYYYYYYYS20uupgCDS",
"YGn544nnmmSYYYRYYYYYSnm51.1YRYYYYYYYYYYYSbgseNITRR",
"YYY54555515SGGSYYYYYb55-XX1YYYYYYYYYYYYYYYfe5SYYYR",
"YRG55SSDS1@4555mYYYYGGG5;1nYYYYYYYYYYYYYYUlvSYRYYY",
"YYYmSYRRY4=15nnSYYYYYRYSc-5YRYYYYYYYYYYYRY66YRYYYY",
"YYYYYYYYYn44mYYYYYYYYYYRS@1UYYYYYYYYYYYYRY55UYYYYY",
"YYYYYYYYYGS5mYRYYYYYYYYRS@=nGRYYYYYYYYYYRD<-5GYYYY",
"YYYYYYYYYYS15SYYYYYYRYSm5=@;nSYYYYYYYYYYG5@X-cSYRY",
"YYYYYYYYYRm@=5SYYYYYRS5=@1-@<nYYYYYYYYYY5o..X;6UYY",
"YSmUYYYYYRmo.=5n6SYYYYSn5Sm5-1YRRRRRRSnn5=.X-1566n",
"Sc1SRYYYYRS-X@1c6GYYYYYYRRRS--mmbmmmm515n5<<556555",
"5-@mYYYYYYS415SYUYYYYYYYRRRG5-oooo@@@-5SUYSSUYUDSY",
"m5=;nRRRYn145mYRRYYYYYYYYYRRS5=X  o-16mYYYRRRYYYRR",
"YS5@-mSSS-@1SYYYYYYYYYYYYYYYYS1@ o<nDYYYYYYYYYYYYY",
"YYS4-=@@@-5SYYYYYYYYYYYYYYYYRS1@o<nUYYYYYYYYYYYYYY",
"YYYS5@..@5SYYYYYYYYYYYYYYYYYYGn==nUYYYYYYYYYYYYYYY",
"YYYYS5@@1mYYYYYYYYYYYYYYYYYYYYY--SRYYYYYYYYYYYYYYY",
"YYYYYS=o1SRYYYYYYYYYYYYYYYYYYRY55UYYYYYYYYYYYYYYYY",
"YYYYYY1=1SYYYYYYYYYYYYYYYYYYYYY56UYYYYYYYYYYYYYYYY",
"YYYYYY615mYYYYYYYYYYYYYYYYYYYYY55YYYYYYYYYYYYYYYYY",
"YYYYRRb11mYYYYYYYYYYYYYYYYYYYYYn6YYYYYYYYYYYYYYYYY",
"YYYYRY656SYYYYYYYYYYYYYYYYYYYYY55UYYYYYYYYYYYYYYYY",
"YYYYRD55SRYYYYYYYYYYYYYYYYYYYYG--SRYYYYYYYYYYYYYRY",
"YYYYRY1<YRYYYYYYYYYYYYYYYYYYYYY-=URYYYYYYYYYYYYYYY",
"YYYYYS**CTYYYYYYYYYYYYYYYYYYYYS-;SRYYYYYYYYYYYYYYY",
"YYYYS5wigIYYYYYYYYYYYYYYYYYYYS515YYYYYYYYYYYYYYYYY",
"YYYYCeippVYYYYYYYYYYYYYYYYYYRm5cSYYYYYYYYYYYYYYYYY",
"YYYYZsppsZYYYYYYYYYYYYYYYYYYYm1mYYYYYYYYYYYYYYYYYY",
"YYYYZppak3bYYYYYYYYYYYYYYYYYRc-nRYYYYYYYYYYYYYYYYY",
"YYYSvefVb1<bYYYYYYYYYYYYYYYYR5onYYYYYYYYYYYYYYYYYY",
"YYY535SYY<o1nYYYYYYYYYYYYYYYY5o5YYYYYYYYYYYYYYYYYY",
"YRY55SYD61-@<nSRRYYYYYYYYYRYm-onRYYYYYYYYYYYYYYYYY",
"YRY56RRSn65<<45n6SSYRRYYYYYUn-@nRYYYYYYYYYSCAZAYYY",
"YYS6nYYYYYYDb1@o@1nYYYYYYRRU515SYYYYYYYYYUczsphHYY",
"6nnSSRRRYYRRYm65541--156nSRS<<mYYYYYYYYYRUNyupgHRY",
"k21SYSAACAAYRRRRYn4-@-55nSRS=;YRYYRYYYYYYmgpuytTYY",
"s7@mSxtssshHYYYRRYSSUSUDYYS1o-URYYYYYYYYSxrpsexUYY",
"p0-6veipppufAYRYYRYRRRRYRY6@X@111111bSYm4#%8zvSYAJ",
"ue44qspupppuJYRRYYYYYYYYYY5  .. .. @1mY5-  o4SRYJu"
};
