/* XPM */
static char *FieldsTile_10[] = {
/* columns rows colors chars-per-pixel */
"50 50 70 1 ",
"  c #B35744",
". c #B55A45",
"X c #B85D47",
"o c #BA5F48",
"O c #B66547",
"+ c #B16D47",
"@ c #BD6149",
"# c #AE7B49",
"$ c #B9754B",
"% c #B67B4B",
"& c #C1664B",
"* c #C56B4D",
"= c #C86F4F",
"- c #C3764F",
"; c #CD7351",
": c #CC7E53",
"> c #D07653",
", c #D47C55",
"< c #AF8B4C",
"1 c #B6804C",
"2 c #A9964B",
"3 c #A99C4D",
"4 c #B6934F",
"5 c #BF8E51",
"6 c #B99551",
"7 c #B49C50",
"8 c #BA9D52",
"9 c #A7A74E",
"0 c #ACA54F",
"q c #A7AF4F",
"w c #A9AC4F",
"e c #A6B04F",
"r c #AEA450",
"t c #ABAE50",
"y c #B1A250",
"u c #BDA655",
"i c #B3AA52",
"p c #BAA954",
"a c #A9B050",
"s c #C68552",
"d c #CB8353",
"f c #C28B52",
"g c #CA8B54",
"h c #D58156",
"j c #D88057",
"k c #DC8459",
"l c #DD895A",
"z c #C49354",
"x c #C39A55",
"c c #C89E57",
"v c #D6935A",
"b c #DB935B",
"n c #D49D5B",
"m c #DB9C5D",
"M c #E1875B",
"N c #E38D5D",
"B c #E98E5F",
"V c #E6925F",
"C c #E8925F",
"Z c #E29A5F",
"A c #C3A557",
"S c #C7A458",
"D c #CBA259",
"F c #D1A15A",
"G c #D8A05C",
"H c #E79660",
"J c #EB9661",
"K c #E69960",
"L c #ED9862",
"P c #F09462",
/* pixels */
"eeeqeeeeeeeeeeqeeeeeeeaeeeeeqeaeeeeeeeeeeeeeqqeqeq",
"qeeeeaqeqeeqqeeeaeqeqeeeeqqeeeeeq647qeeeeauSASpqee",
"eeqeeeeeeeeeeqeqeeeeqeqeeeeqeqqt8h,dyeeeetFKJJmtee",
"eeeeeeeeeqeeeeeeqeqeeeeeeqeee7fvbBBld7eeeeiDJPmtee",
"eeqy8AupeeeeqeeeeeeeqeeeeeeqrfkvFFFmkg8qeeepZJmS87",
"eerskZJniaeeeeeeeqeeqeeeeee0skZpqqeimks0eeqAJJJJl:",
"eyflBLLJnieeeeeeeeeqeeeeee2%kvAteeeqpnlieqSmJJLJVN",
"e6,vmnmmJFiqeeeeaeeeeqaeey1&MFeeeeeeqDZSt8mLJJJJVN",
"e6:8eatpZLmieeeeeeeqeeqers;>BFqeeeqeeSJHl,NLJJJJk,",
"e6:0eeetAmHFpqeeeeeeeee7f:>,BFeeeeeeeSJLM>,NJLVk=@",
"q6:8teeqqDLLDiy0rr00iiiz,>>jCniteeeetnJLV,>,BZVh;@",
"e6:VDqeqqnJJJZd::dddlmZVN,kBJJmpeeeimZJJJV,>,NJVNN",
"e0zZZDDDDmJJLJMkkkMkBLLLC,kJLLJnScSnJJJJJJNkkBJJLL",
"eetmJJJJJJJJJJJJJJLLJJJJN,kJJJJJJJLJJJJJJJCZJJJJJJ",
"qetmJJJJJJJJJJJJJLJJJJJN,>kLJJJLJJJJJJJJLCkkJJJJJJ",
"eetAmJJJJJJJJJJJJJJJJJJk;*,JLJJJJJJJJJJJLJk,JJJJJJ",
"eeeeuZJLJJJJJJJJJJJJJJJk*o;CJJJJJJJJJJJJJJ,,CLLJJJ",
"eeqetumPJJJJJJJJJJJJJJJ,o &kVLJJJJJJJJJJLC=*,VLJJJ",
"qeeeeqnJJJJJJJJJJJJJJHN,***=kBJJJJJJJJLJV,@@*jVJJJ",
"eeqeqtnJJJJJJJJJJJJJJB,lHC,@*kJLJJJJJJJJ,@. o*jCJJ",
"eqee0fbLJJJJJJJJJJJJLB,MLLN,&>JLLLLLLNkk>&.o*=>jjk",
"ewyixhNLJJJJJJJJJJJJVk;,VJLV-*kkkklkkh;,jh*=,jj,,h",
"e6dbKJJJJJJJJJJJJJJJk;@*jVJV,*@@o@@@@*,NJCVVJCCCCV",
"e6,BLJJJJJJJJJJJJLCk,;,hMJBk,=&o  @*;jMCLJLLLJLJLL",
"e4;kVJJJVJJLJJLLJNk;;kJLJJl,,,>@.o=kCLJJJJJJJJJJJJ",
"e<.@>JLNjNJJLJLLV;o@,VJJJJJVCl>@o=kCJLJJJJJJJJJJJJ",
"e3#O&>kk;hk,,,>,k*@;NLJJJJJLLCk@@kVJJJJJJJJJJJJJJJ",
"ee0+ O-:,,;@...*,,kJJJJJJJJJJLV=*VLJJJJJJJJJJJJJJJ",
"ee9++20xVBl;@.&,NVVJJJJJJJJJJLJ,,VLJJJJJJJJJJJJJJJ",
"ee0$%teiDKV,**,NJJJJJJJJJJJJJJJ,jVLJJJJJJJJJJJJJJJ",
"ee0s5eeetFV,;,NJJJJJJJJJJJJJJJJ,jJJJJJJJJJJJJJJJJJ",
"eewsfeeeqDJBh,BLJJJJJJJJJJJJJJJkhCJJJJJJJJJJJJJJJJ",
"eeq667qeeDJJNkBJJJJJJJJJJJJJJJC,,JJJJJJJJJJJJJJJJJ",
"eeqq6s8etDJJJBJJJJJJJJJJJJJJJLC*&VLJJJJJJJJJJJJJJJ",
"eeqe06cFFmLJJJJJJJJJJJJJJJJJJLV*&VLJJJJJJJJJJJJJJJ",
"eeeeqqnBBVLLJJJJJJJJJJJJJJJJJJN**VLJJJJJJJJJJJJJJJ",
"qeeeetf,,NJJJJJJJJJJJJJJJJJJJV,;,JJJJJJJJJJJJJJJJJ",
"aeeeeqf>kVJJJJJJJJJJJJJJJJJJJl,kNJJJJJJJJJJJJJJJJJ",
"eqeqeqfkJJJJJJJJJJJJJJJJJJJJJl>lJJJJJJJJJJJJJJJJJJ",
"eeeeetnBJJJJJJJJJJJJJJJJJJJJJh&kLJJJJJJJJJJJJJJJJJ",
"eeeew6bLJJJJJJJJJJJJJJJJJJJJL,ohLJJJJJJJJJJJJJJJJJ",
"eeee6,NLJJJJJJJJJJJJJJJJJJJJL,@jLJJJJJJJJJJJJJJJJJ",
"eeee7:MLJJJJJJJJJJJJJJJJJJJJk=@hJJJJJJJJJJJJJJJJJJ",
"eeee8kBJJJJJJJJJJJJJJJJJJJLJ,=@kLJJJJJJJJJJJJJJJJJ",
"eeeeAHLJJJJJJJJJJJJJJJJJJJJV,;,NJJJJJJJJJJJJJJJJJJ",
"qeeepJLJJJLJJJJJJJJJJJJJJJLV=;MJJJJJJJJJJJJJJJJJJJ",
"eee0xNZmmmmJJJJJJJJJJJJJJJJk@=JLJJLJJJJJJJJJJJJJLJ",
"eewf:h6tttpZJJJJJJJJJJJJJJN>@*CJJJJJKJJJJJJJJJJJJJ",
"e0f::4weeequmJJJJJJJJJJJJLh@o@;;:;;>jVJLJJJJJJJJNk",
"e6>>5qeqeeeeSJJJJJJJJJJJJJ,. ....  o;kJJJJJJJJJJk;"
};
