/* XPM */
static char *FieldsTile_19[] = {
/* columns rows colors chars-per-pixel */
"50 50 78 1 ",
"  c #B45744",
". c #B55945",
"X c #B95D47",
"o c #BD6349",
"O c #B76A49",
"+ c #BD6E4B",
"@ c #AF7147",
"# c #BE7D4E",
"$ c #C0654B",
"% c #C46A4D",
"& c #C86E4F",
"* c #C5714F",
"= c #C0794E",
"- c #C77650",
"; c #CD7452",
": c #CC7D53",
"> c #D07753",
", c #D47B55",
"< c #D97B56",
"1 c #DB7E58",
"2 c #AE8149",
"3 c #AE8A4B",
"4 c #B1864B",
"5 c #B08C4C",
"6 c #A79D4C",
"7 c #AC9E4E",
"8 c #B19D4F",
"9 c #BD8E51",
"0 c #BB9351",
"q c #B49C50",
"w c #BB9B52",
"e c #9EB34D",
"r c #ACA64F",
"t c #A7AE4F",
"y c #A9AC4F",
"u c #A6B04F",
"i c #AEA550",
"p c #ADAD51",
"a c #B2A351",
"s c #BDA555",
"d c #B4AB53",
"f c #BAA954",
"g c #A7B050",
"h c #AAB050",
"j c #C48451",
"k c #CB8454",
"l c #C48C53",
"z c #CA8B55",
"x c #D38356",
"c c #D88057",
"v c #D28957",
"b c #DC8459",
"n c #D48C58",
"m c #DC895A",
"M c #C29353",
"N c #CC9356",
"B c #C59C56",
"V c #CC9D58",
"C c #D49559",
"Z c #DB935B",
"A c #D49F5B",
"S c #DC9C5D",
"D c #E2865B",
"F c #E48C5D",
"G c #E98F5F",
"H c #E5925E",
"J c #E8915F",
"K c #E3995F",
"L c #C3A556",
"P c #C8A057",
"I c #C2A857",
"U c #C7A458",
"Y c #CBA259",
"T c #D2A05B",
"R c #E79760",
"E c #EB9661",
"W c #E69860",
"Q c #EC9862",
/* pixels */
".;EEEEEEEEEEEEEEEEEEEEEEEQ,X%bEQEEEEEb;;%..o;o....",
"o,EEEEEEEEEEEEEEEEEEEEEEEEc%,FEEEEREEHbbx;%%;%$$X.",
">bEQEEEEEEQEEEREEEEEEEEEEQb,FEEEEEEEEEEEEJb,;,,,%X",
">bEEEEEEEEEEEEEEEEEEEEEEEED,FQEEEEEEEEEEEEJb,bJF,-",
";bEEEEEQEEEEEEEEEEEEEEEEEEZlZEEEEEEEEEEEEEQJbFQQFb",
";bEEEEEEEEEEEWWEWKQEEEEEEWPdSQEEEEEEEEEEEEEEEEEERR",
"o,EEEEEEEEEEAsffsfYEEEEEKUphSQEEEEREEEEEEEEEEQQEEE",
" *FEEEEEEEEEUueuuudTKEEGCdupSEEEEEEEEEEEEEEQEFFQEE",
".%,HEEEEEEEEYpuuuuypAEEbkruhSEEEEEEEQEEEEEEEEbbFEE",
"%#qsTREEEEEESUpuuuuuTEblqyupSQEEEEEEEEEEEEEKLq9-,1",
"<0tuIQEEEEEEEWIddddaCFkquuupCJEEEEEEEREEEEEAyu7+;,",
"RPuusQEEEEEEEEKKKSnk,katuuuyzbEQEEEEEEEEEEEThedZGG",
"ESVwj;FEEEEDbbDnYYB00qyuuuuyj1REEEEEEEEEEQAdhdAQEE",
"EEJb*OvKKKZk:k:0uuuhtgtuutuylxEEEEEEEEEEEWIpdAEEEE",
"EEEENraddddiriiyuuuuuuuuuuutyPEEEEEEEEEEEEKSKEEEEE",
"EEEESIpuuuuuuuuuuuguuuuuutuuudTHEEEEEEEEEEFFGEEEEE",
"EEEEEHfuhuuthuutuuuuuuuuuuhuuupTRRREEEEEER11REEEEE",
"EEEEFxauuuuuuuuuuugutuuhutuuuuudBxDEEEEEQEx1REEEEE",
"EEEEF;quuuuuutuuutuuuutuuuuuuuuur9NASAATZF;>FREEQE",
"EEEEFk8uutuuuuuuuguuuuuuuutuuuuuttppppppw;oo;FEEER",
"QQQQZqpuuuuuhuuuuuuuguhutuuuuuuuuuuuuuyw=o..o%;xbb",
"FZSKUuuuuuutuutuguuuutuuuuuuuuuuuuprryr9-$o%%$%,,,",
",Mpdpuuuuuuuuuuutuutuguuuuuuuuutut0::0utBHFJFFJJJJ",
"bCY0qtuutuuhuuguuuuguutuuuuuuutqMVZb0ruuIQQQQQQQQE",
"EEG1ltuuuuthuuuuutuuuuuuuuuuyidz1RESdugpYEEEEEEEEE",
"EEERAyuuuuuuuuyuuuuhutuhutuylvSHREEKpepTWEEEEEEEEE",
"EEEQSUpuuuuuuuuuuuuuuuuuuu64xFEEEEEWYUYWEEEEEEEEEE",
"EEEEEWsttuuutuuuuuutuuuuug3%bEEEEWKKWKKJREWKKEEEEE",
"EEEEEEv0tuuuutuutuhuuuuuuuwFRQEESsddfdskDRUdfSEEEE",
"EEEEEE1jyuutuuuhuuuuuututqCEEEEKIpuuuut0vWfeuYEEEE",
"EEEEEE1jpuuuuuuuuuutuuuuijDEEEHfuuuuuuttUKfhpAEEEE",
"EEEEEEJCpuutuuutuuuuuuuurk1QQSfpuutuuuutIRSAAKEEEE",
"EEEREEESputuuuuuuuuuuuuupzFESUuuuuguuuuuIEEEEEEEEE",
"EEEEEEEAputtttuuuuuuuuuudZEHfutuuutuuutuIEEEEEEEEE",
"EEEEEEDzyuy0l098tuuuuugqlJEWduuutuuuuuuusEEEEEEEEE",
"EEEEEEv9thsx<<,zdipguut9,REKdutuuuuguuudYEEEEEEEQE",
"EEEEEKLytYKRJJJHHk0iuut9<JEWfuuuuguuuupAEEEEEEEEEE",
"EEEEEWdywZWYUYWQEFv0rutBDEEKduuuuuuuudYEEEEEEEEEEE",
"EEEEEEIw:FSdupSEEEF:qutYJEEKsytuuuutpYEEEEEEEEEEEE",
"EEEEEEKSFESpedSEEEEHfuuMbJEJz0tuuuupAWEEEEEEEEEEEE",
"EEEEJmREEQHUIUKEEEEQTft7lHEEbnPIIIsYWEEEEEEEEEEEEE",
"EEEEF<FEEEEEEEEEEREEESdtdHEEERQEEEQEEEEEEEEEEEEEEE",
"EEEEJFJQEEEEEEEEEEEEEHj7dTEEEQEEREEEEEEEEEEEEEEEEE",
"EQEJFEEEEEEEEEEEEQEEEJbMwFREEEEEEEEEEEEEEEEEEEEEEE",
"EQJxbEEEEEEEEEEEEEEEEEEb,,mREEEEEEEREEEEEEEEEEEREE",
"QFb><REEEEEEEEEEEEEEEEEGnwaLvFEEEEEEEEEEEEEEEEEEEE",
"Fx&,mEQEEEEEEEEEEEEEEEEESwyy0kmEEEEEEEEEEEEEEEEEQE",
"<%obEEEEEEEEEEEEEEEEEEEEJx0tp3oxEEEEEEEREEEEEEEEEQ",
"$$&FQEEEEEEEEEEEEEEEEEEQEFj#2@.%,bFEEEEEEEEEEEEEFb",
".$,FEEEEEEEEEQEEEEEEEEEREE>.    X;FEEEEEEEEEEEEEb;"
};
