/* XPM */
static char *FieldsTile_30[] = {
/* columns rows colors chars-per-pixel */
"50 50 79 1 ",
"  c #B35644",
". c #B65945",
"X c #B95D47",
"o c #BC5F48",
"O c #BD6249",
"+ c #B76949",
"@ c #AE7447",
"# c #AF7548",
"$ c #AC7E48",
"% c #B07147",
"& c #B07548",
"* c #B77A4B",
"= c #C1664B",
"- c #C56B4D",
"; c #C96E4F",
": c #C4784F",
"> c #CD7451",
", c #CC7B52",
"< c #D17753",
"1 c #D37B55",
"2 c #D87E57",
"3 c #AD8C4B",
"4 c #B3834B",
"5 c #B9854E",
"6 c #BA894F",
"7 c #A7994C",
"8 c #AF9B4E",
"9 c #B2914E",
"0 c #B19D4F",
"q c #BE8E51",
"w c #B79650",
"e c #BC9251",
"r c #B59C50",
"t c #B99A51",
"y c #A5A44D",
"u c #ACA64F",
"i c #A7AD4F",
"p c #A9AB4F",
"a c #A5B04F",
"s c #AEA550",
"d c #ABAE50",
"f c #B1A350",
"g c #BCA554",
"h c #B5AB53",
"j c #BAA854",
"k c #AAB050",
"l c #C68552",
"z c #CC8454",
"x c #C48B52",
"c c #CB8C55",
"v c #D38456",
"b c #D88057",
"n c #D18B57",
"m c #DC8459",
"M c #D58A58",
"N c #DE895B",
"B c #C39554",
"V c #CB9556",
"C c #C39955",
"Z c #C89C57",
"A c #CE9958",
"S c #D29659",
"D c #D8915A",
"F c #D49E5B",
"G c #DB9C5D",
"H c #E0865B",
"J c #E38D5D",
"K c #E88F5F",
"L c #E6915F",
"P c #E8925F",
"I c #E2995F",
"U c #C3A356",
"Y c #C7A458",
"T c #CCA259",
"R c #D3A05B",
"E c #E79760",
"W c #EB9661",
"Q c #E69860",
"! c #ED9862",
/* pixels */
"aapl2WWWWm<>eaaaaaaaakiaaaiaar,raaaaaaapaaaakaaaaa",
"asw,1NFTTCx,lriaaaakaaaaaautUAMx0paaaaaaaaakaaaaap",
"at111,riaasl1zriaaaiaaaaapebJWWmxdaaaaaaaaaaaaaaaa",
"aUJLm,faaaisVJzwiaaaiaaasqMJWWWKSkaaakaaapaaaaaaaa",
"rA!WKm67iaaaYWHcgkaaaaauebJWWWWWIdkaaaaaaaaaaaaaur",
">mWWWK;&skadTWWWIgppiipq2KWWWWW!RdaaaaaiaaaaaaapB1",
"o;mP!P<>DRFFGWWJml5&@&&zJWWWWWW!RdaapaaaaapaaapebJ",
"&*xNJJmNW!!WWWWJ22<-OX.<WWWWWWW!DfpaaaaakaaaphCbJW",
"yisl11HWWWWWWWWWPWPL2-X<WWWWWWW!LzrpaaaaaaaadFIPWW",
"aadl1NWWWWWWWWWWWWW!Lm;m!WWWWWWWPHzwiaaaaaahTI!WJb",
"hdpqMW!WWWWWWWWWWWWWWJ1HWWWWWWWWWWHvghhhhhhYWWWLm2",
"IYipUWWWWWWWWWWWWWW!!J1mWWWWWWWWWWPKIIGIIGIIWWJbNL",
"WGTYRWWWWWWWWWWWWWWWWJ2NWWWWWWWWWWWW!!!WWWWWWWLNJW",
"WWWWWWWWWWWWWWWWWWWWWJ1NWWWWWWWWWWWWWWWWWWWWWWWWWW",
"WWWWWWWWWWWWWWWWWWWWWK2HWWWWWWWWWWWWWWWWWWWWWWWWWW",
"WWWWWWWWWWWWWWWWWWWWWDBCRQWWWWWWWWWWWWWWWWWWWWWWWW",
"WWWWWWWWWWWWWWWWWWWW!IhahGWWWWWWWWWWWWWWWWWWWWWWWW",
"WWWWWWWWWWWWWWWWWWWW!RkadzJWWWWWWWWWWWWWWWWWWWWWWW",
"WWWWWWWWWWWWWWWWWWWWLn9ypenJWWWWWWWWWWWWWWWWWLJWWW",
"WWWWWWWWWWWWWWWWWWWEb;O3ipe1JWWWWWWWWWWWWWWWWb2JWW",
"!WW!WWWWWWWWWWW!WWJm;O-9aa3O<H!!WW!!WWWWWW!Lb;O;<2",
"LNNLPWWWWWWWWWLJJWLb;-2Bhh6O-<NJLJJLWWWLNNNb>;=->2",
"1;O>mPWWEWWWWLb12JWPJLLEIIm>OXO>2<1bPWPb;OO=>NJLPP",
"N<=O->>1mNmmJWNmNLW!!!WW!!KmOO>mb<><<>>>,<<2NP!!WW",
"WJ,=.. O;><1NWWWWWWWWWWWWWWL;>P!Lb,;X X;NWWWWWWWWW",
"WWL<=. .X;2JWWWWWWWWWWWWWWWWLLWWWPm;X X;mW!WWWWWWW",
"WWWJ1=XX=<HWWWWWWWWWWWWWWWWW!WWWWWJ1X=,mJWWWWWWWWW",
"WWWWJ<OO,HWWWWWWWWWWWWQWWWWWWWWWWWWN=>WWWWWWWWWWWW",
"WWWWWJ-X,JWWWWWWWWWWWWWWWWWWWWWWWWWL>bWWWWWWWWWWWW",
"WWWWWP>=>JWWWWWWWWWWWWWWWWWWWWWWWWWP2NWWWWWWWWWWWW",
"WWWWWPb>1HWWWWWWWWWWWWWWWWWWWWWWWWWJ1mWWWWWWWWWWWW",
"WWWWWWm,,NWWWWQWWWWWWWWWWWWWWWWWWWWL1NWWWWWWWWWWWW",
"WWWWWW2<bJWWWWWWWWWWWWWWWWWWWWWWWWPN1NWWWWWWWWWWWW",
"WWWWWW22LWWWWWWWWWWWWWWWWWWWWWWWWWN<<NWWWWWWWWWWWW",
"WWWWWP>>LWWWWWWWWWWWWWWWWWWWWWWWWWb1NJWWWWWWWWWWWW",
"WWWWWJ-=JWWWWWWWWWWWWWWWWWWWWWWWWWm1L!WWWWWWWWWWWW",
"WWWWJ1OO,LWWWWWWWWWWWWWWWWWEWWWWWWm2JWWWWWWWWWWWWW",
"WWWWm-=->NWWWWWWWWWWWWWWWWWWWWWWLNNHWWWWWWWWWWWWWW",
"WWWW1+:12NPWWWWWWWWWWWWWWWWWWWWWJ<NWWWWWWWWWWWWWWW",
"WWPmx8SJJNmPWWWWWWWWWWWWWWWWWWWWNO1WWWWWWWWWWWWWWW",
"WWPcrkF!W1;mLWWWWWWWWWWWWWWWWWWRC4nWWWWWIATTRIWWWW",
"WWIjadFWJ>O;mPQQIIWI!WWWWWWWWWIgipRWWWWPTkaadTWWWW",
"W!IjaaFKm>-O;vUjjjjgG!!WWWWW!GgkaaRWW!IYdaaaadYP!W",
"WWIhprGLm22;:qpaaaaaURFIW!IFFYaaaiZJWWIhaaaaaahI!W",
"WWIhrzNWPWWLZiaaaaaapkdTWWFddiaaaaq2PWIhaaaiaahI!W",
"WGUkurgZmJW!Yaaaaaaiaaaem2Caaaaaaiq1PWIhaaaaaahIWW",
"GUaaaaauxN!WRjspaaaaaahV1<qiaaaaapwzJWIUdaaaadYIPJ",
"dkaaaaaadAWWWDvedaaaahGWJ1eaaaaaaapfzHWITdaadTQWN1",
"aaaaakaaaTWW!WHDRTRTTFW!J;4iaaaaakaprSWWITTTRIPNc9",
"aaaaaaaapTWWWWWWWWWWWW!!JO4iaaaaaaaaaYWWWWWWW!J1ta"
};
