/* XPM */
static char *FieldsTilesetTest[] = {
/* columns rows colors chars-per-pixel */
"50 50 92 1 ",
"  c #A7AF4F",
". c #A8AF4F",
"X c #A4B14E",
"o c #A5B04F",
"O c #A4B14F",
"+ c #A5B14F",
"@ c #A6B04F",
"# c #A7B04F",
"$ c #A8AF50",
"% c #A9AF50",
"& c #AAAE50",
"* c #ABAE50",
"= c #AAAF50",
"- c #ADAD51",
"; c #AEAD51",
": c #AFAD51",
"> c #ACAE51",
", c #BDA755",
"< c #BEA755",
"1 c #BFA656",
"2 c #BFA756",
"3 c #B3AB52",
"4 c #B5AA53",
"5 c #B4AB53",
"6 c #B6AA53",
"7 c #B7AA53",
"8 c #B0AC51",
"9 c #B0AC52",
"0 c #B1AC52",
"q c #B2AC52",
"w c #B7A954",
"e c #B8A954",
"r c #B9A954",
"t c #BAA854",
"y c #BBA854",
"u c #BAA954",
"i c #BBA855",
"p c #BCA855",
"a c #D29F5A",
"s c #D29F5B",
"d c #D39F5B",
"f c #D59E5B",
"g c #D49F5B",
"h c #D79D5C",
"j c #D69E5C",
"k c #D79E5C",
"l c #DD9B5D",
"z c #DE9B5E",
"x c #D89D5C",
"c c #D99D5C",
"v c #DA9C5D",
"b c #DB9C5D",
"n c #DC9C5D",
"m c #E2995F",
"M c #E3995F",
"N c #E19A5E",
"B c #E29A5F",
"V c #E5985F",
"C c #E4995F",
"Z c #C2A556",
"A c #C3A556",
"S c #C0A656",
"D c #C1A656",
"F c #C5A457",
"G c #C4A557",
"H c #C6A457",
"J c #C7A458",
"K c #C8A358",
"L c #C9A358",
"P c #CAA258",
"I c #CAA358",
"U c #CAA259",
"Y c #CBA259",
"T c #CEA159",
"R c #CCA259",
"E c #CFA15A",
"W c #D1A05A",
"Q c #D2A05A",
"! c #E79760",
"~ c #E89760",
"^ c #E99760",
"/ c #E99761",
"( c #EA9661",
") c #EB9661",
"_ c #EA9761",
"` c #EC9561",
"' c #ED9561",
"] c #EC9661",
"[ c #ED9562",
"{ c #E59860",
"} c #E69860",
"| c #E79860",
/* pixels */
")))))))))))))))))))))))))))))))r-9999-E`))c39999-.",
")))))))))))))))))))))))))))))))rdCMMCM!))))CMMMCz9",
")))))))))))))))))))))))))))))))rc`))`))))))))))`M9",
")))))))))))))))))))))))))))))))rj`)))))))))))))`M9",
")))))))))))))))))!)))))))))))))rc`))))))))))))))M9",
")))))Krrrprpr,rp,r,rrrrprD}))))pj`))dd))))`cK)))M9",
")))))rXo ooo,cjjjjK$o. oo-C))))rj`))MHd)))zHz)))M3",
")))))p.KccccM``)``!ccccd--M`)))zC))))MM)))Cz)))))c",
")))))roc````))))))))```C--C`))))))))))`)))))))))))",
")))))p c``)))))))))))))M-9C)))))))))))))))))))))))",
")))))roc)))))))))))))))M99C))))))))))`)))))))))))`",
")))))poc`))))))))))))))M--C`)))jM))))cc`))Md))))!E",
")))))r,M))))))``)`))))))K3M))))rc`))cJc)))MHW)))M-",
")))))rj`)))))cHHHW))))))MwM))))rj)))cc)))))Mj)))C9",
"))))),j`)))))Hooo7))))))M7M`)))rc`))``)))))))))`C9",
")))))rj`))))`Hooo7!)))))M7M))))rj`)))`))))))))))M9",
")))))pj`)))))HXoX7))))))M7M))))rc`````)))))`````C9",
")))))pj))))))W7r7H))))))M7M))))pKcccccM```!ccjjcd-",
")))))rK))))))))!)!))))))d7C))))7o.oo oDcjjK.-,prr$",
")))))r$c)))))))))))))))C--C`)))Kr,rrr,r,,,r7r!))M9",
")))))r c`))))))))))))))C9-M))))))))))))))))jr)))M9",
")))))roc)))))))))))))))M--C`))))))))))))))`jp)))M9",
")))))roc`))))))))))))))M9-C)))))))))))`)))`j,)))M9",
")))))pojCCCC!))))))MMMMz--M))))CMMMMMMCCMMCdp)))M9",
")))))ro-9-9-KCMMMMj9-9--.-C`))),-9--9--9-9--r))`M9",
"))))),------7r77777---9--rC))))rooo .$9---9$r)))M9",
")))))}CCMMMMMMMMMMMMCCMCCC)))))rooo oHCCCCCd,)))M9",
"))))))``))))))))))````))``)))))ro oooK`````jr)))M9",
")))))))))))))))))))))))))))))))roo  oK`))))j,)))M9",
")))))))))))))))))))))))))))))))roooooJ)))))j,)))M9",
")))))))))))))!))))!)))))))))))!r .   9rp,rr7r))`M9",
"rrrprprrp,rrrr,rrrrJ)))CHC))))K-Kcjcc,o  ooXr)))M9",
"-dcjjcjjcjc,oDcccKor)))M7M))))zc}````KDnccK.p))`M9",
"-C`````````EoK`)`c$p))`M7M))))))))))`KK```c r)))M9",
"9M`)))``))`KoK`)`c ,)))M7M))))))))))`KK```c r)))C9",
"9C`````````KoK`)`cor))`C7M))))))))))`KK```c.r))`C9",
"$HKKKKKKKKKroK```c$9KKKH-K))))``))))cr7KKKDop)``C9",
"$HKJK3 ,KKK7o7KKK, 9KJKD$-M`))dKM))`KooooXoo9JJJH$",
"E))))p c```nKEKKKKKj```)EE!))!roj`))cKKEKEEKKKKKKK",
"`))))roc``))```````)))))``))))r c`))``````````````",
"))))),oc``))))))))))))))))))))r.c`))))))))))))))))",
")))))r.c`)))))))))```)``)))))),oc))))))))))))))))`",
"c))))roc`))MjM)))}ccjcjjc)))))p c))))MM))))))))))c",
"DC)))roc))`j9K))`c -r,,r9M))))r c`))`JK`))))))))M3",
")))))Krz))))dd)))zrK!))MHM))))r.c`)))dd)))))))))CD",
"`)))))))))))))))))))))))))))))roc)))))))))))))))))",
"))))))))))))))))))))))))))))))r c`))))))))))))))))",
"))))))))))))))))))))))))))))))p.c))))))))))))))))`",
"C))))CC))))!M}))))))))))CC))))poc)))!CCMMMMMMMMMMM",
"rC)))D9c```E-E``)))))))C77C`))roc`))E-999999999999"
};
