/* XPM */
static char *FieldsTile_34[] = {
/* columns rows colors chars-per-pixel */
"50 50 62 1 ",
"  c #B35744",
". c #B55945",
"X c #B85D47",
"o c #BF5E49",
"O c #BD6249",
"+ c #BF694B",
"@ c #AF7147",
"# c #BA7A4C",
"$ c #C1664B",
"% c #C46A4D",
"& c #C86F4F",
"* c #C9704F",
"= c #CC7351",
"- c #CD7B53",
"; c #D07753",
": c #D47C55",
"> c #D87F57",
", c #DA7F58",
"< c #B0894C",
"1 c #AD914C",
"2 c #B4994F",
"3 c #BF8750",
"4 c #BD8E51",
"5 c #BB9551",
"6 c #B59B50",
"7 c #BA9952",
"8 c #ADA44F",
"9 c #A7AD4F",
"0 c #A9AB4F",
"q c #A5B14F",
"w c #ABAE50",
"e c #BEA655",
"r c #B5AB53",
"t c #B9A954",
"y c #C28651",
"u c #CB8A55",
"i c #D78057",
"p c #D88057",
"a c #DB8459",
"s c #D58958",
"d c #DE895A",
"f c #CB9156",
"g c #C39B55",
"h c #CF9758",
"j c #CD9C58",
"k c #D49559",
"l c #DE965D",
"z c #D59E5B",
"x c #DB9C5D",
"c c #E38D5D",
"v c #E6915F",
"b c #E8925F",
"n c #E3995F",
"m c #C3A356",
"M c #C7A458",
"N c #CCA259",
"B c #D1A05A",
"V c #E79760",
"C c #EB9661",
"Z c #E69860",
"A c #ED9862",
"S c #F09462",
/* pixels */
"qqwxSC,y0qqqqqwqqqqqqrnSv:4qqq0BCCCCCcu6qqqqqqqqqq",
"q85nCCcf9qqqqqqqqqqqtBZCbcgqqwMnCAxNNdsjrqqqwqqqqw",
"q6:cCCCxrqqqwqqqqqwrzCCCCCj0wMZZZneqqmnVzwqqqqqqqq",
"qmcCCCCCxtqqqq0qqqrzVCCCCCduknVMrrwqqwmnbzrqqqqqqq",
"6jCCCCCCCztwqqqqqrBCCCCCCCcabSZtqqqqqqwxCVBe611266",
"-aCCCCCCCCxrqwwwrzCCCCCCCCCCCCZmqqqq0wrxCCVc:+O--:",
"o;CCCCCCCCVxBBzzzZCCCCCCvacCCCVxMwqwNBzVCCCCcaaccc",
"@yxVCCCCCCCCSCCCCCCCCCCCb;aCACCCxerMZSCCCCCCCvvCAC",
"89rzCCCCCCCCCCCCCCCCCCCAv:aVACCCCnnCCCCCCCCCCapcCC",
"qqwucCCCCCCCCCCCCCCCCCCBm7kVCCCCCCCSCCCCCCCCCa==:a",
"rw04sCCCCCCCCCCCCCCCCCvmqqmvCCCCCCCCCCCCCCCCc:=$=:",
"nM00MCCCCCCCCCCCCCCCCv:7qq6:cACCCCCCCCCCCCCa$%:ccv",
"CnM53-cACCAAACCCCcaCAbdkg<#;cCCCCCCCCCCCCCCa%;cCAA",
"AVba=$>cccccvCCCCaaCACCCc%$:cCCCCCCCCCCCCCAc:cCCCC",
"ACCbca=$$$%::acACbcCCCCCCcp::aCCCCCCCCCCCCCCcCCCCC",
"CCCCCC% oO%:aabCCCCCCCCCCCca;aCCCCCCCCCCCCccCCCCCC",
"CCCCCv&O-;:vCCCCCCCCCCCCCCCvpabCCCCCCCCCCbipCCCCCC",
"CCCCAb:&;avCCCCCCCCCCCCCCCCCvaavCCCCCCCCCCppCCCCCC",
"CCCCCCa;>cCCCCCCCCCCCCCCCCCCAa*pvCACCCCCvc-;cbCCCC",
"CCCCCCp>bCCCCCCCCCCCCCCCCCCCA:O%>vCbCCCCc-oO=cCCCC",
"CCAAcaccCCCCCCCCCCCCCCCCCCCCApXX%&&=>aaa*o..O$->pa",
"ccaa::cCCCCCCCCCCCCCCCCCCCCCApX  Xo%::::-$$%$$%:::",
":*OO$:cCCCCCCCCCCCCCCCCCCCCCAiX O-avbbCvvvcvvcvbCb",
"a>-%$%aCCCCCCCCCCCCCCCCCCCCC:%%=:aCACCAVCCSAAAACCA",
"CACa&OaCCCCCCCCCCCCCCCCCCCCc%$:cCCCCCCCCCCCCCCCCCC",
"CCCCa=cCCCCCCCCCCCCCCCCCCVc:=:vCCCCCCCCCCCCCCCCCCC",
"CCCAvaacCCCCCCCCCCCCCCCACc;%:cCCVCCCCCCCCCCCCCCCCC",
"CCCCCbaaCCCCCCCCCCCCCCbbc:%$cACCCCCCCCCCCCCCCCCCCC",
"CCCCCCvvCCCCCCCCCCCCCva::;:dbCCCCCCCCCCCCCCCCCCCCC",
"CCCCCCCCcCCCCCCCCccCCva::pcACCCCCCCCCCCCCCCCCCCCCC",
"CCCCCCCc:aCCCCCVCpaCCCCa:cCCCCCCCCCCCCCCCCCCCCCCCC",
"CCCCCCCc::aCAACCCccCCCCa:vACCCCCCCCCCCCCCCCCCCCCCC",
"CCCCCCCc:*=avccccCCCCCCc,bCCCCCCCCCCCCCCCCCCCCCCCC",
"CCCCCCCc:$o-:::;:cCCCCCCbCCCCCCCCCCCCCCCCCCCCCCCCC",
"CCCCCCAc;O oo$*-:cAAAbacCCCCCCCCCCCCCCCCCCCCCCCVCC",
"CCCCCCCa=%$$$%;::ccdcc-aCCCCCACCCCCCCCCCCCCCCCCCCC",
"CCCCCCa=O;ccccbCca=$==O:CCCCCCCCCCCCCCCCCCCCCCCCCC",
"CCCCCC:-;cAACCCCCc:$$O.;CCCCCCCCCCCCCCCCCCCCCCCCCC",
"CCCCCCapCCCCCCCCCAc:$..:CCCCCCCCCCCCCCCCCCCCCCCCCC",
"CCCCCCvvCCCCCCCCCCCc:%.:ACCCCCCCCCCCCCCCCCCCCCCCCC",
"CCCCvcbCCCCCCCCCCCCCc:%;cCCCCCCCCCCCCCCCCCCCCCCCCC",
"CCCAc:cCCCCCCCCCCCCCCc:;:vACCCCCCCCCCCCCCCCCCCCCCC",
"CCCCvcCCCCCCCCCCCCCCACc>:vACCCCCCCCVCCCCCCCCVCCCCC",
"CCCcvCCCCCCCCCCCCCCCCCCcadvACCCCCCCCCCCCCCCCCCCCCC",
"CCv:aCCCCCCCCCCCCCCCCCCCc:aCCCCCCCCCCCCCCCCCCCCCCC",
"Ava:ibVCCCCCCCCCCCCCCCCCv:&-cCCCCCCCCCCCCCCCCCCCCC",
"ci&:dCCCCCCCCCCCCCCCCCCCva%X:ccCACCCCCCCCCCCCCCCCC",
":%OaCCCCCCCCCCCCCCCCCCCCCb;XX%:cCCCCCCCCCCCCCCCCCC",
"$$&cCCCCCCCCCCCCCCCCCCCCAA:. .$&:acCCCCCCCCCCCCCca",
".$:cCCCCCCCCCCCCCCCCCCCCCV:.... X-cCCCCCCCCCCCCCa;"
};
