/* XPM */
static char *FieldsTile_09[] = {
/* columns rows colors chars-per-pixel */
"50 50 75 1 ",
"  c #B35744",
". c #B55945",
"X c #B85C46",
"o c #BC5E48",
"O c #B46346",
"+ c #BD6249",
"@ c #B56C48",
"# c #BF694B",
"$ c #AF7448",
"% c #BF744D",
"& c #C1664B",
"* c #C46A4D",
"= c #C86E4F",
"- c #C9704F",
"; c #C07C4F",
": c #CD7351",
"> c #CB7D52",
", c #D07753",
"< c #D47B55",
"1 c #DA7F57",
"2 c #AD864A",
"3 c #B4854C",
"4 c #B18C4D",
"5 c #AA954C",
"6 c #AB9A4D",
"7 c #B29A4F",
"8 c #BF8750",
"9 c #BE8E51",
"0 c #BC9351",
"q c #B59B50",
"w c #A6A24D",
"e c #ABA74F",
"r c #A6AD4F",
"t c #A9AC4F",
"y c #A5B14F",
"u c #ADA750",
"i c #ABAE50",
"p c #B3A651",
"a c #BFA755",
"s c #B4AB53",
"d c #BBA854",
"f c #A5B550",
"g c #A8B250",
"h c #C68652",
"j c #CD8354",
"k c #C48A52",
"l c #CB8D55",
"z c #D68157",
"x c #D88057",
"c c #D28A57",
"v c #DC8459",
"b c #D68E59",
"n c #DE895A",
"m c #C49654",
"M c #CC9657",
"N c #C49F56",
"B c #CC9D58",
"V c #D49559",
"C c #DC925B",
"Z c #D49E5B",
"A c #DC9C5D",
"S c #E2875C",
"D c #E38D5D",
"F c #E6915F",
"G c #E8925F",
"H c #E39A5F",
"J c #C3A556",
"K c #C7A458",
"L c #CCA259",
"P c #C5A858",
"I c #D0A15A",
"U c #EB9661",
"Y c #E69860",
"T c #ED9862",
"R c #F09462",
/* pixels */
" :UUUUUUUUUUUUUUUUUUUUUUTU,X=vUUUUUUUn:,9ryq:qgyyg",
"&<UUUUUUUUUUUUUUUUUUUUUUUUx*<DUUUUUUUDvvVJitq0qyyr",
":nUUUUUUUUUUUUUUUUUUUUUUUUn<DUUUUUUUUUUUTHJrekjpgy",
",nUUUUUUUUUUUUUUUUUUUUUUUTn,DUUUUUUUUUUUTUHVkvFAdy",
",vUUUUUUUUUUUUUUUUUUUUUUUTDvFUUUUUUUUUGUUUTDvDRUZa",
":vUUUUUUUUUUUUUUUUUUUUUUUGUGUTUUUUUUUUUUUUUUUUUUTU",
"+,UUUUUUUUUUUUUUUUUUUUUUFvDUTUUUUUUUUUUUUUUUUUUUUU",
" :DUUUUUUUUUUUUUUUUUUYUUF<vUUUUUUUUUUUUUUUUUUFFUTU",
" &<FTUUUUUUUUUUUUUUUUUUTF<vUUUUUUUUUUUUUUUUTUvxGUG",
"*&*DTUUUUUUUUUUUUUUUUUTDz*<TTUUUUUUUUUUUUUUTTv>NJJ",
"z-+vGTUTUUUUUUUUUUUUUUG1*X:FUUUUUUUUUUUUUUUFnz9tyy",
"Fv::vUTTUUUUUUUUUUUUUF<*X &<FUUUUUUUUUUUUUTv+4rryy",
"TFv,:,DTTTTTTUUUUnDUTFn<:X&,DUUUUUUUUUUUUUTb3wyyyy",
"UTUv:&<FDDFGFFUUFvvFUUTTD**,DUUUUUUUUUUUUUTZgyyyyy",
"UUUFDv:+++*,<zFTUFFUUUUTUnx,,nUUUUUUUUUUUUTZiyyryy",
"UUUUTU* ++*zvnFTUTUUUUUUUTFv,zUUUUUUUUUUUUDMiyygyy",
"UUUUTF*+::<FUGUUUUUUUUUUUUUFzxFUUUUUUUUUTG1krygygy",
"UUUUUU<:,vFUTUUUUUUUUUUUUUUUFnvDUUUUUUUUTG1kryryyy",
"UUUUTU1,vFTUUUUUUUUUUUUUUUUUTCkMAUTTTTUTGD:;7tyyry",
"UUUUUFv<FUUUUUUUUUUUUUUUUUUUTZirdHUGGUUGD:++>qryyg",
"UUTTFnnDUTUUUUUUUUUUUUUUUUUUUZgygah:<vx1:o  +@2ryy",
"DDnnz<DUUUUUUUUUUUUUUUUUUUUUTV6ryy3*<x<1:&*&**%7iy",
"<-oo*:nTUUUUUUUUUUUUUUUUUUUUTz@5ygMDGUFGFDFFDFnjqy",
"nv:*+*nTUUUUUUUUUUUUUUUUUUUU<**lLLHTTTTUTTTHLPBnVL",
"UUUv*+vTUUUUUUUUUUUUUUUUUUUD&&<FTUUUUUUUUUTZyysHRT",
"UUUFn:DTUUUUUUUUUUUUUUUUUUD<:<FUUUUUUUUUUUUZyydHRU",
"UUTTFnvDUUUUUUUUUUUUUUUTUD:*<DUUUUUUUUUUUUTAJKBnVL",
"UUUUUFvxUUUUUUUUUUUUUUGUD<**nTUUUUUUUUUUUUUUUYCjqr",
"UUUUUUFFUUUUUUUUUUUUUFxz<,<nUUUUUUUUUUUUUUUUULppty",
"UUUUUUTGDGTUUUUUUDDUTFv,,xDTUUUUUUUUUUUUUUUUHayygr",
"UUUUUUTD<nGUUUUUGvvFUUUv<FUUUUUUUUUUUUUUUUURUaygry",
"UUUUUUUD,<nUTTTTUDDUUUUv<FTUUUUUUUUUUUUUUUUUYayyry",
"UUUUUUTD,::nDDDDFGTUUUUnvFUUUUUUUUUUUUUUUUUUUBsyyy",
"UUUUUUUD,++:,<<,<DTUUUUUUUUUUUUUUUUUUUUUUUUTUUZirr",
"UUUUUUTD<+ ++*::,FTTTFnDUUUUUUUUUUUUUUUUUUUTTRUZm8",
"UUUUUUFn:*&&+*,<<DDDDn:vUUUUUUUUUUUUUUUUUUAAAAAUS<",
"UUUUUUn:+:DDDDFUFv:+::+<TUUUUUUUUUUUUUUUTHJisiaHUF",
"UUUUTF<:,DTTTTUTUn,&++X,TUUUUUUUUUUUUUUUTYdyyyiJAT",
"UUUUUUvvUTUUUUUUUTD<*XX,UUUUUUUUUUUUUUUUUAsyyyrgLT",
"UUUUUUFFUTUUUUUUUTUF<&X,TUUUUUUUUUUUUUUUZsiyryyrBT",
"UUUUFDFTUUUUUUUUUUTUD<*,DUTUUUUUUUUUUUUUBgyyyyygLT",
"UUUTD<DTUUUUUUUUUUUUTD<,<DTUUUUUUUUUUUUUIryyyryrBT",
"UUUUFDGUUUUUUUUUUUUUUUDz<FTTUUUUUUUUUUUULgyygyyyBT",
"UUUDFUUUUUUUUUUUUUUUUUTnvSDUTUUUUUUUUUUTIryrryidZT",
"UTFzvUUUUUUUUUUUUUUUUUUUD1vYUUUUUUUUUUUTIiyyyysAUU",
"TDv,<UUUUUUUUUUUUUUUUUUTD<kJcSUTUUUUUUUUHLiyyysHTU",
"Fx:,nUUUUUUUYUUUUUUUUUUUFvmt9lAYUUUUUUUUTUKsdsKHHA",
",*+vUUUUUUUUUUUUUUUUUUUUUFBrtrsZUUUUUUUUUUGHHHYUKi",
"&&:DTUUUUUUUUUUUUUUUUUUUUTl3wyr8,vDTUUUUUUUURRHLsy",
" &,FUUUUUUUUUUUUUUUUUUUUUU,O6fr$o,SUUUUUUUUUUUAuyy"
};
