/* XPM */
static char *FieldsTile_07[] = {
/* columns rows colors chars-per-pixel */
"50 50 65 1 ",
"  c #B35744",
". c #B55945",
"X c #B95D47",
"o c #BA5F48",
"O c #B06E47",
"+ c #BD6249",
"@ c #BA6C4A",
"# c #AE7F49",
"$ c #B07D4A",
"% c #BC7B4D",
"& c #C1664B",
"* c #C56B4D",
"= c #C86E4F",
"- c #C6704E",
"; c #C9704F",
": c #CA6E50",
"> c #CD7451",
", c #CD7952",
"< c #D07753",
"1 c #D47B55",
"2 c #D97D57",
"3 c #B58A4D",
"4 c #BA894F",
"5 c #AC934C",
"6 c #B19D4F",
"7 c #BA9351",
"8 c #B59B50",
"9 c #BA9A52",
"0 c #A8A64E",
"q c #A7AD4F",
"w c #AAAA4F",
"e c #A5B14F",
"r c #AFA350",
"t c #ABAB50",
"y c #B2A551",
"u c #BDA454",
"i c #B5AA53",
"p c #AAB050",
"a c #C28351",
"s c #CC8554",
"d c #C48A52",
"f c #D58156",
"g c #D88057",
"h c #DC8459",
"j c #D48D58",
"k c #DE895B",
"l c #C79255",
"z c #CB9557",
"x c #C39D55",
"c c #C99856",
"v c #CD9C58",
"b c #DE955D",
"n c #D29959",
"m c #DB995C",
"M c #E1875B",
"N c #E38D5D",
"B c #E6915F",
"V c #E8925F",
"C c #E3995F",
"Z c #C1A556",
"A c #CAA358",
"S c #D3A15B",
"D c #EB9661",
"F c #E69860",
"G c #ED9862",
/* pixels */
".&1BnpeeeeeeAGDDDDDDDDDDDG1X*hDDDDDVGk,<*X +;&O0ee",
"#%<hvteeteeeADGDDDDDDDDGDM1>gNDDDDDGVBkk1>;<h1aqee",
"q911dtqeqeqqvDGDDDDDDDDDN1kDDDDDDDDDVVGVGVGVGGmiqe",
"euNNkdreeeqdjGDDDDDDDGD1*kDDDDDDDDDDGGGDGGGGVVBs6e",
"8zGGNh45887,2NDDGDDGBkg**NGDDDDDDDDDDDDDVGGVGGVhzZ",
">hDDGB-+,11<11NDVDDBg=X*1BDDDDDDDDDDDDDDVGGVGVGVVV",
"+:2DGD1>hNNNNNVN2h1*&X.>BDDDDDDDDDDDDDDDGGGGGGGGGG",
" @dnmNhhDGDGDDDN1g>*+X.1DDDDDDDDDDDDDDDDGVVGGVVGGG",
".$tt91NDDDDDDDDDDVVNg*X1DDDDDDDDDDDGGVGDVGVVGGVVVV",
"*3eeykDDDDDDDDDDDGGGBg=hGDDDDDDDDDDVGGVGGVNjZZAVNh",
"1liiADDDDDDDDDDDDDDDGN1hDDDDDDDDDDDGVVGGGVj7eeibMg",
"DCCmVDDDDDDDDDDDDDGGGN1kDDDDDDDDDDDVGGGVGVuqeersMV",
"DDGGDGDDDDDDDDDDDDDDGN1kDDDDDDDDVGGGGVVGGCiq7xvkNG",
"DDDDDDDDDDDDDDDDDDDDGN1hGDDDDDDDGGVGVGGGGVZ9fNVGGV",
"DDDDDDDDDDDDDDDDDDDDGN1kDDDDDDDDGVGVGGGVGVCCBVGVVV",
"DDDDDDDDDDDDDDDDDDDDGk><NDDDDDDDGVGGGVGVGGGVGGGGGG",
"DDDDDDDDDDDDDDDDDDDDGM+&1VGDDDDDGVGGGVDDDDDDGVGGDD",
"DDDDDDDDDDDDDDDDDDDDGh+&1VGGDDDDGVGVGGDDDDDDGVGVDD",
"DDDDDDDDDDDDDDDDDDDDB1Xo>kNNDGDDVGGGVVGDGVDGGBBVGG",
"DDDDDDDDDDDDDDDDDDDVh>X.+><1NDDDGGVVGGDDDGGVVggBVV",
"GGGGGDDDDDDDDDDDGGBg*+***>*&1NGGGGGGGVVGGGGVh*+*1g",
"NMkNBGGDDDDDDDBNNDB1==1ggg;+*>hNNBNBGGGBNkhh<*&&>g",
"1-+>hVDDDDDDDBg<1NGBBBBVBVh>+X+>1<1gBGVg-++&<kBBBV",
"k1&+*>>,hhhhBVNkkVGGGGGGGGBh++>hh<><>;>>><<1kVGGGG",
"GN<&XXX*1111kDDDDDDDDDDDDDGB*>VGBg1;++&,NVGDDDDDVG",
"GVN1+X<NBVBBDDDDDDDDDDDDDDGV11DGVVg>;1NBVDDGGDDDDD",
"DDDM;+hGDGGDDDDDDDDDDDDDDDDV1gDDGDh<hBGGDDDDVGDDDD",
"DDDGg+hGDDDDDDDDDDDDDDDDDDDVghBDGVhgVDVGDDDDDDDDDD",
"DDDDh>kGDDDDDDDDDDDDDDDDDDDDBkgNGVVBVDDDDDDDDDDDDD",
"DDDGN<hBDDDDDDDDDDDDDDDDDDDDGN1hBVGGGDDDDDDDDDDDDD",
"DDDDN1>gVDDDDDDDDDDDDDDDDDDDDM>>hVGDGVDDDDDDDDDDDD",
"DDDDVk;;VGDDDDDDDDDDDDDDDDDDGh&;fVGDDGDDDDDDDDDDDD",
"DDDDGV*&BGDDDDDDDDDDDDDDDDDDG1+;kVGDDDDDDDDDDDDDDD",
"DDDDGB**BGDDDDDDDDDDDDDDDDDDDg+1VDDDDDDDDDDDDDDDDG",
"DDDDGV<>BGDDDDDDDDDDDDDDDDDDGh=kGGDDDDDDDDDDDDDDGV",
"DDDDGDggVGDDDDDDDDDDDDDDDDDDDM1NDDDDDDDDDDDDDDDDGV",
"DDDDGVggVGDDDDDDDDDDDDDDDDDDDM1NGDDDDDDDDDDDDDDDGG",
"DDDDGV,>VGDDDDDDDDDDDDDDDDDGGh*hGDDDDDDDDDDDDDDDVG",
"DDDDGV*&NDDDDDDDDDDDDDDDDDDDV1+gGGDDDDDDDDDDDDDDVG",
"DDDDGV*+1BGDGDDDDGDDDDDDDDGVk-XgGVDDDDDDDDDDDDDDGG",
"DDDDGV*X&>ghMkkMkkNDGGGGGGVk;++gGDDDDDDDDDDDDDDDGV",
"DDDDDB* XX&>11111<hVVVVVVVh;+ XhGDDDDDDDDDDDDDDDGV",
"DDGGB1++**>kBNNNNNkgg1gg1;++ X;MGDDDDDDDDDDDDDDDGG",
"DDGNh,&*ggkVDGDDDGBhggg1>+&**>gkVVDDDDDDDDDDDDDDVG",
"DDBg<<<1BDVDDDDDDDDVVVVh<,gVVVVhhVVGDDDDDDDDDDDDGV",
"GNg<1NNBDGDDDDDDDDDGGGGBk<kGGGGNBVGDDDDDDDDDDDDDGV",
"Ng><kDDDDDDDDDDDDDDDDDDGVhgMVGGGVBVDDDDDDDDDDDDDGG",
"1*&hDDDDDDDDDDDDDDDDDDDGDV1&kGVDBgNDDDDDDDDDDDDDGV",
"&&=MGDDDDDDDDDDDDDDDDDDDDG<X&,>>;,kGDDDDDDDDDDGVBh",
".&1NGDDDDDDDDDDDDDDDDDDDGD1X .  +>NVDDDDDDDDDDGVh,"
};
