/* XPM */
static char *FieldsTile_22[] = {
/* columns rows colors chars-per-pixel */
"50 50 77 1 ",
"  c #B45744",
". c #B65A45",
"X c #B85D47",
"o c #BA5E48",
"O c #B36246",
"+ c #B06E47",
"@ c #BD6249",
"# c #AE7F49",
"$ c #BB7A4D",
"% c #C1664B",
"& c #C46A4D",
"* c #C96D4F",
"= c #C1764E",
"- c #CB6F50",
"; c #CD7451",
": c #CC7D53",
"> c #D07653",
", c #D47C55",
"< c #DA7F58",
"1 c #AC8149",
"2 c #AB8A4A",
"3 c #B08A4C",
"4 c #BA884F",
"5 c #B2984F",
"6 c #BD8E51",
"7 c #B79650",
"8 c #BB9451",
"9 c #B39C50",
"0 c #BA9C52",
"q c #A5A54D",
"w c #ACA54F",
"e c #A6AE4F",
"r c #A9AB4F",
"t c #A5B04F",
"y c #AEA550",
"u c #ACAD50",
"i c #B3A351",
"p c #BEA655",
"a c #B4AB53",
"s c #BAA954",
"d c #AFB052",
"f c #C58452",
"g c #CA8453",
"h c #C48C53",
"j c #CC8C55",
"k c #D58256",
"l c #D88057",
"z c #D38857",
"x c #D78658",
"c c #DB8459",
"v c #D58C58",
"b c #DE895B",
"n c #C19653",
"m c #C89556",
"M c #C49B55",
"N c #C89C57",
"B c #D79059",
"V c #DD945C",
"C c #D49E5B",
"Z c #DB9C5D",
"A c #E2865B",
"S c #E38D5D",
"D c #E88B5E",
"F c #E6925F",
"G c #E8925F",
"H c #E2995F",
"J c #C3A556",
"K c #C2A857",
"L c #C7A358",
"P c #CCA259",
"I c #D2A05B",
"U c #EC8F60",
"Y c #E79660",
"T c #EB9661",
"R c #E69860",
"E c #EC9862",
"W c #F09663",
/* pixels */
"  X*hetdttttLTTTTTTTTTTTTT>o*cTTTTTEYb;o   %;%+qte",
"1$><mettttttLTTTTTTTTTTTTTl&,STTTTTTTSl:%X&,l;$qtt",
"eJTECwettteuLTTTTTTTTTTTTTc,STTTTTTTTTTT,%lETlfitt",
"tLEEbhwtttaCHETTTTTTTTTTTTc,STTTTTTTTTTEc;SETTbg9t",
"taCEScNpppLHTTTTTTTTTTTTTTScFTTTTTTTTTTTA,SETEDch9",
"ttaCETTYTTTTTTTTTTTTTTTTTTTTTETTTTTTTTTTb>SETTEGb,",
"tteaPTTETTTTTTTTTTETTTTTFcbTETTTTTTTTTTTl&cETTTEFS",
"ttttpYETTTTTTTTTTTTTTTTEF,cTTTTTTTTTTTTT,%lGEEETGS",
"edttKYETTTTTTTTTTTTTEEEEF>cTETTTTTTTTTTTA;>lHETTc>",
"ttttpYETTTTTTTTTTTTTTEESl&>TETTTTTTTTTTTFA*$LKMc;@",
"ttttpTETTTTTTTTTTTTTTTF,&X;FTTTTTTTTTTTTEF=1rtig-%",
"ttttpTETTTTTTTTTTTTEESl&o %,FETTTTTTTTTTERiqttaVSS",
"tw88h:SEETEEEETTTAAEEDc,;o@>STTTTTTTTTTTEHsr8MIEWE",
"r8,,-o,FHHZFGDTEGlcYETEES&&,STTTTTTTTTTTTTp0,STTEE",
"fxSDc;%$iupk,<SETFFTTTEEHA,>,cTTTTTTTTTTTEHZSTTTET",
"<SEEDc$2rtwzccTETTTTTTTEEEFc>lTTTTTTTTTTETSSTTTTTT",
"TTTTEHsttesVTTTTTTTTTTTTTTTFllGTTTTTTTTTTFllHETTTT",
"TTTTTEsttKZTTTTTTTTTTTTTTTTYFblFETTTTTTTTTllTETTTT",
"TTTTTTMipCETTTTTTTTTTTTTTTTTEc;,FEEETTTTTS;;ATETET",
"HTTTEGkkHETTTTTTTTTTTTTTTTTEEl@&,FTTTTTTb>@@>bTTGT",
"JCEWFcAFWTTTTTTTTTTTTTTTTTTTE<oo%*&;lll<;@  @&;<<l",
"esZZv,AETTTTTTTTTTTTTTYTTTTTEl   o@*><,<;&%&&%&,,<",
"tduu0>AETTTTTTTTTTTTTTTTTTTTTlo @;cFTFFHFSSFSSGGGG",
"tte5$&cETTTTTYTTTTTTTTTTTTTT,&&;lcGEEETEEEEEEEEEEE",
"teij-ocETTTTTTTTTTTTTTTTTTTb&%,FETTTTTTTTYTTTTTTTT",
"tpHGc>AETTTTTTTTTTTTTTTETES,;,FTETTTTTTTTTTTTTTTTT",
"tJEEGccSTTTTTTTTTTTTTTEETS;&,STTTTTTTTTTTTTTTTTTTT",
"tJEEETclTTTTTTTTTTTTTTGTS,&%bETTYTTTTTTTTTTTTTTTTT",
"eLTTETSSEETTTTTTTEETESl,,>,bTTTTTTTTTTTTTTTTTTTTTT",
"eLTTTEEEAFETTTTTGASTEFc,>lSETTTTTTTTYTTTTTTTTTTTTT",
"tKHTTTES,ATTTTEEGllTETTc,FTTTTTTETTTTTTTTTTTTTTTTT",
"euLHTTES>,cTETEETFSTTTTc,FTTTTTTTTTTTTTTTTTTTTTTTT",
"etuLHTES,;;bVCCVFTETTTTAcFTTTTTTTTTTTTTTTTTTTTTTTT",
"tttuKYEA>@@;nuu0,STTTTTTTTTTTTTTTTTTTTTTTTTTTTYETT",
"ttttuJg&%X @2tt5:SEWETASTETTTTTTTTTTTTTTTTTTTTTTTT",
"ttttte1O @%%4aaMlAFCZv;lTTTTTTTTTTTTTTTTTTTTTTTTTT",
"teetttr2O>SSHHHHScjid5@,ETTTTTTTYTTTTTTTTTTTTTTTTT",
"tdtttdti,AEEETWTEAmrtq2jTTTTTTTTTTTTTTTTTTTTTTTTTT",
"ttettttsHETTTTTTETCatteLTETTTTTTTTTTTTTTTTTTTTTTTT",
"ttttettaTTTTTTTTEEECatdPTTTTTTTTTTTTTTTTTTTTTTTTTT",
"ttetteimTETTTTTTTTTTCp7mATTTTTTTTTTEEZPPPPPCEETTTT",
"tttttr6kHTTTTTTTTETTTS,>,DETTTTTTTTTTJuteutsHTTETT",
"tetdtewipCETTTTEEETTETS<,GETTTTTTTTHKutttttuasLHWT",
"ttttttttepZTTHZCICCCHTTAcCZTTTTTTTEZuetttttteeaHTT",
"tedtttttttsZWHpeuuduCETTVaJETTTTTTTZatttetttttaHTT",
"tttttdtettizDHutttttaLYWZauJxAEETTTZutttttttetaHEE",
"tttttettetyhxb0rtttttaHUBate6jCRTTWHpaautttttaJRTS",
"tttettttttern,:8etteeaHAguteuuaCTTTTRRCattttuPRTb>",
"ettetttetedtw8::6NNIPCcj9utttttsLLZTETTCNPPNIHTcj7",
"dttttttttttttrf>,SEEES>7tttttttteePTTTTTTEEEEES,7t"
};
