/* XPM */
static char *FieldsTile_58[] = {
/* columns rows colors chars-per-pixel */
"50 50 66 1 ",
"  c #B35744",
". c #B55945",
"X c #B95D47",
"o c #BA5F48",
"O c #BD6249",
"+ c #BF684B",
"@ c #AE7F49",
"# c #B37749",
"$ c #B27F4A",
"% c #BC784D",
"& c #C1664B",
"* c #C56B4D",
"= c #C86F4F",
"- c #C2764E",
"; c #C9704F",
": c #CD7351",
"> c #C57950",
", c #CB7E53",
"< c #D07753",
"1 c #D47C55",
"2 c #AF864B",
"3 c #B2864C",
"4 c #B58A4D",
"5 c #B1914D",
"6 c #BD8F51",
"7 c #B69550",
"8 c #B99651",
"9 c #B49D50",
"0 c #BB9B52",
"q c #ACA54F",
"w c #A6AF4F",
"e c #A9AB4F",
"r c #A5B14F",
"t c #AFA350",
"y c #ACAC50",
"u c #BEA655",
"i c #B4AA53",
"p c #BCA855",
"a c #A9B050",
"s c #C48451",
"d c #CD8053",
"f c #C28C52",
"g c #D48156",
"h c #D88057",
"j c #D18C57",
"k c #DB8459",
"l c #DF895B",
"z c #C79555",
"x c #C49A55",
"c c #C89956",
"v c #CD9B58",
"b c #DC945C",
"n c #D49E5B",
"m c #DB9C5D",
"M c #E38C5D",
"N c #E6915F",
"B c #E8925F",
"V c #E3995F",
"C c #C3A557",
"Z c #C7A358",
"A c #CAA359",
"S c #D1A05A",
"D c #E79760",
"F c #EB9661",
"G c #E69960",
"H c #ED9862",
/* pixels */
".&<<fwrwrwrwZFFFFFFFFFFFFF<X*kFHFFFFFk<<*X.O:& ...",
"@skkzyrrwrrrZFFFFFFFFFFFFFh*1MFGFFFFFNkk1::<k1::O ",
"wCFFniwrrrryAFFFFFFFFFFFFFk<MFFFFFFFFFFFFFFFFFFF:X",
"rCFFlsqrrriSDFFFFFFFFFFFHF1*MHFFFFFFFFFFFFHFFFGFh=",
"9vFFMkcpCuZDFFFFFFFFFFFFFH<okHFFFFFFFFFFFFFFFFFFMh",
":kFFFFFDFFFFFFFFFFFFFFFFFF<OkHFFFFFFFFFFFFFFFFFFFF",
"&<FFFFFFHFFFFFFFFFFFFFFFHF<OkHFFFFFFFFFFFFFFFFFFFF",
".-mSVFFFFFFFFFFFFFFFFFFFFF1&MHFFFFFFFFFFFFFFFFFFFF",
".$yyZGFFFFFFFFFFFFFFFFFFFHk<NHFFFFFFFFFFFFFFFFFFFF",
"*4rrpGFFFFFFFFFFFFFFFFFFFHl1MHFFFFFFFFFFFFFFFFFHMh",
"1fqqxNFFFFFFFFFFFFFFFFFHFMhhNHFFGFFFFFFFFFFFFFFMk1",
"Fjdd<1MFFFFFFFFFFFFFFFFHM*:NFFFFFFFFFFFFFFFFFHN1kF",
"FFk<<<1MMkMFFFFFFFFFMkkh;X:FFFFFFFFFFFFFFFFFFHNlNF",
"FFF1<1111:<MNFNNFFFFk11*XX:FFFFFFFFFFFFFFFFFFFFFFF",
"FFF11MNNM:&<111MFFFFNNN1;;kFFFFFFFFFFFFFFFFFFFFFFF",
"FFFkMHHHF<&:1kkMFFFFFHHMh;1FHFFFFFFFFFFFFFFFFFFFFF",
"FFFFFFFFFk<<kFFFFFFFFFFHMO:FFFFFFFFFFFFFFFFFFFFFFF",
"FFFFFFFFFNM<MHHFFFFFFFFHMO&hNFFFFFFFFFFFFHHHHHHFFF",
"FFFFFFFFFHM:<MFFFFFFFFMk1&&=kNFFFFFFFFFFMhhhhkMFFF",
"FFFFFFFFFHM&&1MFFFFFFF1*O:*O:hFFFFFFFFFF1OXoO;hFFF",
"FMlNHFFFFHlO.&1khNFFFFMh1Ml<&<FHFFFFHMkh<*..*:<h1M",
"Mh:MHFFFFHM*XO<1hNFFFFFFHHHN**klMkMkM1<1h1==111111",
"1*OlHFFFFFM<:<MFNFFFFFFFFFFF1*OOooOoo*1MFFMNFFNFBB",
"l:*=hHHHHk::1MFGGFFFFFFFFFFFM1*. .o*<1MFHFHHFFFFFF",
"HM<&*MMMM=O<MFFFFFFFFFFFFFFFHM:O.o;1FFFFFFFFFFFFFF",
"FFM<*&OOO*<MFFFFFFFFFFFFFFFFFM<Oo:kFFFFFFFFFFFFFFF",
"FFFM1O.X&<MFFFFFFFFFFFFFFFFFFNkO&1FHFFFFFFFFFFFFFF",
"FFFFM:OO:lFFFFFFFFFFFFFFFFFFFHN=*NFFFFFFFFFFFFFFFF",
"FFFFFM*o:MFFFFFFFFFFFFFFFFFFFHF<1FFFFFFFFFFFFFFFFF",
"FFFFGF:&:MFFFFFFFFFFFFFFFFFFFHFh1FFFFFFFFFFFFFFFFF",
"FFFFFFh:<MGFFFFFFFFFFFFFFFFFFFFh1FFFFFFFFFFFFFFFFF",
"FFFFFFh<:MFFFFFFFFFFFFFFFFFFFFFh1FFFFFFFFFFFFFFFFF",
"FFFFFFh1hMFFFFFFFFFFFFFFFFFFFFF1<FFFFFFFFFFFFFFFFF",
"FFFFFN11FFFFFFFFFFFFFFFFFFFFFFN**NFFFFFFFFFFFFFFFF",
"FFFFFF::BHFFFFFFFFFFFFFFFFFFFFF*&NHFFFFFFFFFFFFFFF",
"FFFFFM-%bDFFFFFFFFFFFFFFFFFFFFM==NHFFFFFFFFFFFFFFF",
"FFFFM15einFFFFFFFFFFFFFFFFFFFM1:1FFFFFFFFFFFFFFFFF",
"FFFFb8yrrvFFFFFFFFFFFFFFFFFGFM<hMFFFFFFFFFFFFFFFFF",
"FFFFSarwyvFFFFFFFFFFFFFFFFFFFM:MFFFFFFFFFFFFFFFFFF",
"FFFFSarts1kFGFFFFFFFFFFFFFFFHh&hFFFFFFFFGFFFFFFFFF",
"FFFMj8uvk:*kFFFFFFFFFFFFFFFFH1ohFFFFFFFFFFFFFFFFFF",
"FFF1<<MFN:X:kFFFFFFFFFFFFFFFF1ohGFFFFFFFFFFFFFFFFF",
"FFD1hMFBh:*O;kDFHHFFFFFFFFFFl;XhFFFFFFFFFFFFFFFFFF",
"FFF1hFFNhh1::<1hhlNFHFFHFFFFh**hHFFFFFFFFFMNmnmGFF",
"FFN1hFFFFFFFk:&oO:hNFFFFFFFN1:<MFFFFFFFFFFhfyrpVFF",
"kkkMNFFHFHFFNlh11<:=*:1hhFHN;;MFFFFFFFFFFVcqwriVFF",
"s>:MFMmmbmmGFFHHFk<*&*11hNFlO=FHFFHFFFFFBMprrq0DFF",
"t3oMMg0yyypDFFFFFFNMNMNNFFM<o=FGFFFFFFFFMgtre8gDFF",
"r5*1j8errryumFFFFFHHHHFFHFhOXO::::::hMFl<&#36jMFmC",
"r8<<farrrrrrZFFFFFFFFFFFHF<X .. ...o:MF1&..O<MFFCw"
};
