/* XPM */
static char *FieldsTile_54[] = {
/* columns rows colors chars-per-pixel */
"50 50 75 1 ",
"  c #B35744",
". c #B65A45",
"X c #B85D47",
"o c #BB5F48",
"O c #B06E47",
"+ c #BD6249",
"@ c #B56C48",
"# c #AD7F49",
"$ c #B47249",
"% c #BC764C",
"& c #B8784B",
"* c #C1654B",
"= c #C46A4D",
"- c #C86F4F",
"; c #C2754E",
": c #C47A4F",
"> c #CB6F50",
", c #CD7351",
"< c #CD7C53",
"1 c #D07753",
"2 c #D47C55",
"3 c #AB8149",
"4 c #AD8B4B",
"5 c #B2864C",
"6 c #BA874F",
"7 c #B18C4C",
"8 c #A9924B",
"9 c #AC9C4D",
"0 c #B19E4F",
"q c #BA8E50",
"w c #BA9551",
"e c #B39C50",
"r c #BA9D52",
"t c #A6A14C",
"y c #ABA54F",
"u c #A6AD4F",
"i c #A8AC4F",
"p c #A5B04F",
"a c #AFA450",
"s c #ACAE50",
"d c #B2A251",
"f c #BEA755",
"g c #B3AB52",
"h c #BAA954",
"j c #A8B050",
"k c #C18651",
"l c #CB8353",
"z c #C58C53",
"x c #C98A54",
"c c #D68157",
"v c #D88057",
"b c #D78658",
"n c #DB8459",
"m c #DE885B",
"M c #C39153",
"N c #C29C55",
"B c #C99E57",
"V c #D39158",
"C c #DC955C",
"Z c #D39D5B",
"A c #DA9C5D",
"S c #E38D5D",
"D c #E6915F",
"F c #E8925F",
"G c #E29A5F",
"H c #C2A556",
"J c #C2A857",
"K c #C7A458",
"L c #CBA259",
"P c #D1A05A",
"I c #E79560",
"U c #EB9661",
"Y c #E69860",
"T c #EC9862",
"R c #F09663",
/* pixels */
" ,UUZsppppppKUUUUUUUUUUUUU1o=nUUUUUUUn11=  =,oOypp",
"*2URPjppppppKUUUUUUUUUUUUUv=2SUUUUUUUSnn21,1n>&ypp",
"1nUUZgppppjsLUUUUUUUUUUUUUn2SUUUUUUUUUUUUUUUUnldpp",
"1nUUYZgpppgZGUUUUUUUUUUUUUS1STUUUUUUUUUUUUUUUImlep",
"qVUUUULJJfLGUUUUUUUUUUUUUUSbDTUUUUUUUUUUUUUUUTUnMe",
"sKUUUTUIUUIUUUUUUUUUUUUUUUIUUUUUUUUUUUUUUUUUUUUUm<",
"pKUUUUUUUUUUUUUUUUUUUUUUFnSUUUUUUUUUUUUUUUUTUUUUDS",
"ufSUUUUUUUUUUUUUUUUUUUUUF2nUUUUUUUUUUUUUUUDSUUUUIS",
"pw2SUUUUUUUUUUUUUUUUUUUUS2nUUUUUUUUUUUUUUInbIUUUn1",
"p7=STUUUUUUUUUUUUUUUUUUF2=2UUUUUUUUUIUUUUS>;HJBb>+",
"p8@bIUTUUUUUUUUUUUUUUUF2-X-SUUUUUUUUUUUUTI;3upal>=",
"pu9lnUUUUUUUUUUUUUUUUF2=X.=2FUUUUUUUUUUUUIdtpphCSS",
"upjek1STTTTTTUUUISSFUIS2>X*1SUUUUUUUUUUUUYgswNZTUU",
"pppj8@2DSSSDDFUTIn2IUUIUS==2SIUUUUUUUUUURIJr2SUUUU",
"ppppi9&+**=22nDUUFUUUUUUIS222nUUUUUUUUUUUUAGFFUUUU",
"pjppjp4$++=2nnFUUUUUUUUUUUSn1nUUUUUUUUUUUUSSUUUUUU",
"pjppppu0122FUUUUUUUUUUUUUUUF22IUUUUUUUUUUI2nIUUUUU",
"pupppppd<2FUUUUUUUUUUUUUUUUUFS2FUUUUUUUUUU22IUUUUU",
"ppjppppdbSUUUUUUUUUUUUUUUUUUUS,2IUUUUUUUFS11SITUUT",
"pjupppufIUUUUUUUUUUUUUUUUUUUU2o>2FUIUUUUS1**1SUUUU",
"upppupJAUUUUUUUUUUUUUUUUUUUUU2oo==-,2nnn>o..o=>2nn",
"jpppsdAUUUUUUUUUUUUUUUUUUUUURn  .o+=2222,====+-222",
"upppelSUUUUUUUUUUUUUUUUUUUUUTvo o>nFIIIISSIFSSIIII",
"35q5$=nTUUUUUUUUUUUUUUUUUUUU2==,2SIUUUUUTTUUUUUUUU",
"o-2=o+nUUUUUUUUUUUUUUUUUUUUm=*2DUUUUUUUUUUUUUUUUUU",
">2FS21SUUUUUUUUUUUUUUUUUUUS2,2DUUUUUUUUUUUUUUUUUUU",
"nSTTFnnSUUUUUUUUUUUUUUUUUS,=2SUUUUUUUUUUUUUUUUUUUU",
"UUUUUInnIUUUUUUUUUUUUUIUS2==mUUUUUUUUUUUUUUUUUUUUU",
"URUUUUFSUUUUUUUUUUUUUF22212mUUUUUUUUUUUUUUUUUUUUUU",
"SSUUUUUISSUUUUUUUSSUUIS11vSTUUUUUUUUUUUUUUUUUUUUUU",
"1bFFUUUS2SUUUUUUU2nIUUIn2DUUUUUUUUUUUUUUUUUUUUUUUU",
"ezSIUUUS11SUTRUURSSUUUUb2DTUUUUUUUUUUUUUUUUUUUUUUU",
"jezDUUTS,:zZCDSSSUUUUUUSnFUUUUUUUUUUUUUUUUUUUUUUUU",
"jpgZUURn+4pjM1112STUUUUUIIUUUUUUUUUUUUUUUUUUUUUUUU",
"ppuhZURC7tpp4*,,1SUUTInSUUUUUUUUUUUUUUUUUUUUUUUUUU",
"pppphASZspjg6=1v2SSSSS,nUUUUUUUUUUUUUUUUUUUUUUUUUU",
"puppsgxxspgADSDISb,+,,+2UUUUUUUUUUUUUUUUUUUUUUUUUU",
"jppppu6<KKPUUTUUUS2==+ 2UUUUUUUUUUUUUUUUUUUUUUUUUU",
"ppuppiznIUUUUUUUUUS2=  1UUUUUUUUUUUUUUUUUUUUUUUUUU",
"ppjpppZDUUUUUUUUUUUD1=o2RUUUUUUUUUUUUUUUUUUUUUUUUU",
"ppppswCUUUUUUUUUUUUUS2=1SUUUUUUUUUUUUUUUUUUUUUUUUU",
"pjppe1SRUUUUUUUUUUUUUS212DTUUUUUUUUUUUUUUUUUUUUUUU",
"ppppw<SUUUUUUUUUUUUUUUS21ITUUUUUUUUUUUUUUUUUUUUUUU",
"jupjenSUUUUUUUUUUUUUUUUSnSDUTUUUUUUUUUUUUUUUUUUUUU",
"ppppfGUUUUUUUUUUUUUUUUUUS2nUUUUUUUUUUUUUUUUUUUUUUU",
"ppppfTRUURUUUUUUUUUUUUUUD1,,DTUUUUUUUUUUUUUUUUUUUU",
"pppgBUGAAAAUUUUUUUUUUUUUIb=o1SSITUUUUUUUUUUUUUUUUU",
"ppsZUGJsgshGUUUUUUUUUUUUUU1 o=1SUIUUUUUUUUUUUUUUUU",
"paMGGKspppufAUUUUUUUUUUUTT1X X=,1bSUUUUUUUUUUUUUSn",
"pw1SZjppppppKUUUUUUUUUUUUU2     +,SUUUUUUUUUUUUUn1"
};
