/* XPM */
static char *FieldsTile_02[] = {
/* columns rows colors chars-per-pixel */
"50 50 62 1 ",
"  c #B35744",
". c #B55945",
"X c #B85D47",
"o c #BD6249",
"O c #C0664B",
"+ c #C46A4D",
"@ c #C96F4F",
"# c #C9704F",
"$ c #CD7351",
"% c #CC7D53",
"& c #D07753",
"* c #D47C55",
"= c #AC894A",
"- c #B1984F",
"; c #BC8F51",
": c #B79650",
"> c #BC9251",
", c #B49B50",
"< c #BA9B52",
"1 c #A5A54D",
"2 c #ADA64F",
"3 c #A6AF4F",
"4 c #A9AC4F",
"5 c #A5B04F",
"6 c #AEA650",
"7 c #ABAE50",
"8 c #B3A652",
"9 c #BDA655",
"0 c #B4AB53",
"q c #B9A954",
"w c #AFB052",
"e c #C78352",
"r c #CA8553",
"t c #C48C53",
"y c #CB8C55",
"u c #D68056",
"i c #D88057",
"p c #D38857",
"a c #DB8459",
"s c #D58958",
"d c #DE895A",
"f c #C89355",
"g c #C89D57",
"h c #D79059",
"j c #DB925B",
"k c #D49D5B",
"l c #DB9C5D",
"z c #E2865B",
"x c #E38D5D",
"c c #E8895E",
"v c #E6915F",
"b c #E8925F",
"n c #E2995F",
"m c #C4A457",
"M c #CDA259",
"N c #D2A05B",
"B c #EC8F60",
"V c #E79760",
"C c #EB9661",
"Z c #E69860",
"A c #ED9862",
"S c #F09663",
/* pixels */
" $CCCCCCCCCCCCCCCVCCCCCCCC*X+aCCCCCCCd%$+  O$O    ",
"O*CCCCCCCCCCCCCCCCCCCCCCCCiO*xCCCCCCCxaa*$++&+OOo ",
"&aCACCCCCCCCCCCCCCCCCCCCCCd*vCCCCCCCCCCCCCa*&&**+X",
"&aCCCCCCCCCCCCCCCCCCCCCCCCd*xCCCCCCCCCCCCCVa*axx*#",
"&aCCCCCCCCCCCCCCCCCCCCCCCCvavCCCCCCCCCCCCCCxaxAAxa",
"$aCCCCCCCCCCCCCCCCCCCCCCCCVCCCCCCCCCCCCCCCCCCACCCC",
"o*CCCCCCCCCCCCCCCCCCCCCCvadCCCCCCCCCCCCCCCCCAAACCC",
" #xCCCCCCCCCCCCCCCCCCCCCv*aCCCCCCCCCCCCCCCCCCxxAAC",
" O*vCCCCCCCCCCCCCCCCCCCCx*aCCCCCCCCCCCCCCCCCVaaxCA",
"+OOxACCCCCCCCCCCCCCCCCCvi+*ACCCCCCCCCCCVCCCCCa$$**",
"i+oaCCAACCCCCCCCCCCCCCv*+X$vCCCCCCCCCCCCCCABa*#O#*",
"Ca$*aCCACCCCCCCCCCCCCvi+X O*vCCCCCCCCCCCCCAaO#*xxC",
"Cva*$&xAAAAAAACCCdxCCbd*$Xo&xCCCCCCCCCCCCCCa+*xCAA",
"CCVa@O*xxxxvvvCACiaCCCCAx+O*xCCCCCCCCCCCCCCx*dCCAA",
"CCCvxa$OOo+**avACvxCCCCCCx***aCCCCCCCCCCCCCCvCCCCC",
"CCCCAC+ oo+*aavACCCCCCCCCCxa*iCCCCCCCCCCCCxxCCCCCC",
"CCCCAv+o$**vCVCCCCCCCCCCCCCviavCCCCCCCCCCV**CCCCCC",
"CCCCAC*@$avCCCCCCCCCCCCCCCCVvdavACCCCCCCCC*aCCCCCC",
"CCCCACa&axCCCCCCCCCCCCCCCCCCAa@ixAAACCCCCx&&dCCCAC",
"CCCCCviavCCCCCCCCCCCCCCCCCCCA*o+axCCCCCCa&oO*dCCCC",
"CCAAvaaxCACCCCCCCCCCCCCCCCCCA*XX+#+$*a*a$X XoO$i*a",
"xxaa**xACCCCCCCCCCCCCCCCCCCCAaX  Xo+*a**$+O++OO***",
"*#ooO*xACCCCCCCCCCCCCCCCCCCCCiX o$avCBVVCxxxxxCBCC",
"aa$+OOaCCCCCCCCCCCCCCCCCCCCC*@O$*aVCCCCCAAAAAAACCS",
"AAva@oaACCCCCCCCCCCCCCCCCCCxOO*xCCCCCCCCCCCCCCCCCC",
"CACCa$dACCCCCCCCCCCCCCCCCCx*$*xACCCCCCCCCCCCCCCCCC",
"CCCAxaaxCCCCCCCCCCCCCCCACx%+*xAACCCCCCCCCCCCCCCCCC",
"CCCCACaaCCCCCCCCCCCCCCvCx*+OzAAACCCCCCCCCCCCCCCCCC",
"CCCCACxvCCCCCCCCCCCCAxa**&*dvACCCCCCCCVCCCCCCCCCCC",
"CCCCCCACxvACCCCCCxxCAva**ixAACCCCCCCCCCCCCCCCCCCCC",
"CCCCCCCx*aCCCCCCVaavCCCa*xCCCCCCCCCCCCCCCCCCCCCCCC",
"CCCCCCAx**aCAAACCxxCCCCa*vCCCCCCCCCCCCCCCCCCCCCCCC",
"CCCCCCCx*@$xxxxxxCACCCCdavCCCCCCCCCCCCCCCCCCCCCCCC",
"CCCCCCCx*oo$*&***xACCCCCCCCCCCCCCCCCCCCCCCCCCCCCCC",
"CCCCCCAv*o ooO@$*xACAVaxACCCCCCCCCCCCCCCCCCCCCCCCC",
"CCCCCCCa$OOOoO***dvlld$aCCCCCCCCCCCCCCCCCCCCCCCCCC",
"CCCCCCa$o&xxxxCvxay8w-o*CCCCCCCCCCCCCCCCCCCCCCCCCC",
"CCCCCv*$$xAAAAAACxf354=yCACCCCCCCCCCCCCCCCCCCCCCCC",
"CCCCCCaaCCCCCCCCCAk055wmACCCCCCCCCCCCCCCCCCCCCCCCC",
"CCCCCCvvCCCCCCCCCCVl055MACCCCCCCCCCCCCCCACCCCCCCCC",
"CCCCxxCAAACCCCCCCCACk9<yxCCCCCCCCCCCClMMkgMlCACCCC",
"CCCCdrdZbCCCCCCCCCCCCx*&*xACCCCCCCCCVmw53w3qlVVACC",
"CCVay,8qqkACCCAAAACCACx**cACCCCCCCAnm7555557q0mVCC",
"CCCy:55559lCAVlkkkkknACzaknCCACCCCAl7555555533qnCC",
"CCnq335355qjCnq777w7kCCCl0mCCCCCCCCl05555353350nAC",
"Sl975555558pcn7555550MVAl07mszCCCCCl75555555550nAC",
"km335w55557tsd<7355550ZBj654;ylVCCCn90q5555557mVCx",
"775335555557t*%>355350nay653470kCCCCZVkq53557MVCa*",
"5553555555556>%%>gkMMksy,455555qmMlCCCCkkMMMMlBay:",
"35w55353355737e$*xACCx*:3335555533MCACCCCCCCCAx*:5"
};
