/* XPM */
static char *FieldsTile_45[] = {
/* columns rows colors chars-per-pixel */
"50 50 66 1 ",
"  c #B35744",
". c #B55945",
"X c #B95D47",
"o c #BA5F48",
"O c #B36446",
"+ c #B06E47",
"@ c #BD6249",
"# c #BA784C",
"$ c #C1664B",
"% c #C56B4D",
"& c #C86F4F",
"* c #C1754E",
"= c #C9704F",
"- c #C1784E",
"; c #CB6F50",
": c #CD7351",
"> c #C57950",
", c #CA7851",
"< c #D07753",
"1 c #D47B55",
"2 c #D97E57",
"3 c #AE844A",
"4 c #B2924E",
"5 c #B69550",
"6 c #B99651",
"7 c #B49B50",
"8 c #B99A52",
"9 c #A8A74E",
"0 c #A6AD4F",
"q c #A9A94F",
"w c #A4B14F",
"e c #AFA450",
"r c #ACAD50",
"t c #B1A450",
"y c #BDA354",
"u c #B4A952",
"i c #BBA854",
"p c #A8B050",
"a c #C48652",
"s c #CB8554",
"d c #C38D52",
"f c #D38156",
"g c #D88057",
"h c #D08B56",
"j c #D78658",
"k c #DB8459",
"l c #DF895B",
"z c #C29C55",
"x c #C99D57",
"c c #CD9B58",
"v c #DC965C",
"b c #D39F5B",
"n c #DA9C5D",
"m c #E38C5D",
"M c #E88F5F",
"N c #E7915F",
"B c #E8925F",
"V c #E3995F",
"C c #C1A456",
"Z c #C2A857",
"A c #CBA359",
"S c #D1A05A",
"D c #E79560",
"F c #EB9661",
"G c #E69A60",
"H c #ED9862",
/* pixels */
".@<NHFFFFFFFFFFFFFFFFFFFFH<o&kDHFFFFFm:o   $:$+9w0",
"$&<kmHHFFFFFFFFFFFFFFFFFFF2%1mDHFFFFDm2<$X%1g:#9ww",
"<<11kNFFFFFFFFFFFFFFFFFFFFk<mHFFFFFFFFFF1@kHFgstrw",
"<gMmlgmHFFFFFFFFFFFFFFFFFH1$mHFFFFFFFFFHl:mHHNl>7w",
"<lHHNggkDHHFFFFFFFFFFFFFHH<okHFFFFFFFFFFm<mHFHMmd7",
":gFFFN=%MHFFFFFFFFFFFFFFHH<okHFFFFFFFFFHl1mHFFFDl,",
"@:kNHF<,MHFFFFFFFFFFFFFFHD<okHFFFFFFFFFFm1MHFDHHDM",
" o&kMmgmDHDFFFFFDHFFFFFFFH1$mHFFFFFFFFFFg;gNHFFFNm",
"..o:11mDHFFFFFFFFFFFFFFFFFk<mFFFFFFFFFFH1o;gDFFFl<",
"%:<lkmMHFFFFFFFFFFFFFFFFHHm1MFFFFFFFFFFH1.o#CZxg;@",
"1lHHHFFFFFFFFFFFFFFFFFFHDmk2NFFFFFFFFFHF2@O30wts;$",
"DFFFFFFFFFFFFFFFFFFFFFFHm$<MFFFFFFFFFFDHl,400wuVMm",
"HHFFFFFFFFFFFFFFFFFFmkkg=X:FFFFFFFFFFFFFMjur6zSGHH",
"HDFFFFFFFFFFFFFFFFFFl1<%Xo:FHFFFFFFFFFFFHBi81mFFFF",
"FFFFFFDFFHFDFFFFFFFFNNN1%:kFFFFFFFFFFFFFHDhsMDFFFF",
"FFFFFFHFFmmlMFFFFFFFFHHmg=1FFFFFFFFFFFFFHF22FHFFFF",
"FFFFFFFHFl1<lFFFFFFFFFFHl@:BHFFFFFFFFFFFFF11NFFFFF",
"FFFFFFFFFNl<lFFFFFFFFFFHN@$kNHFFFFFFFFFFHN:%gNHFFF",
"FFFFFFFFFHN:<MFFFFFFFFmk1$@=kNFFFFFFFFFFN1@.%gMFHF",
"FFFFFFFFFHl@$1MHFFFFHN1%@:%@:gFHFFFFFFFF1@..o%gDFB",
"FmlNFFFFFHl@.$<ggNFFHNmggll1$:HHHHHFHMlg<%XX%=<ggk",
"mg:mHFFFFHm$o@<ggNFFFHFHHFHN%%klkllll1:1g1=%g121g1",
"1%@lHHFFHHm<:<mDNFFFFFFFFFHNg%@@@o@@@%<mFNNNNNDNNN",
"l<%%gFHHHk::2mDFHFFFFFFFFFHFm1@X  o%:1mFFHHHHHHHHH",
"Hm<$%lmmm&@<mFFFFFFFFFFFFFFFHm:@.o&gFHFFFFFFFFFFFF",
"FFm<%$@@@%<mFFFFFFFFFFFFFFFFFm:@o&kNFFFFFFFFFFFFFF",
"FFFm1@X.$<mFFFFFFFFFFFFFFFFFFNk$@jNHFFFFFFFFFFFFFF",
"FFFFm<@@:lFFFFFFFFFFFFFFFFFFFHF%%NHFFFFFFFFFFFFFFF",
"FFFFFm%X:mHFFFFFFFFFFFFFFFFFFHB1<FHFFFFFFFFFFHFFFF",
"FFFFHF:$:mFFFFFFFFFFFFFFFFFFFFFggBHFFFFFFFFFFFFFFF",
"FFFFFFg:<mHFFFFFFFFFFFFFFFFFFFFggBHFFFFFFFDFFFFFFF",
"FFFFFFk:,lFFFFFFFFFFFFFFFFFFFHBggNHFFFFFFFFFFFFFFF",
"FFFFFF2<2MFFFFFFFFFFFFFFFFFFFFF<<FFFFFFFFFFFFFFFFF",
"FFFFFD22NFFFFFFFFFFFFFFFFFFFFHN%%DHFFFFFFFFFFFFFFF",
"FFFFHD::NHFFFFFFFFFFFFFFFFFFFHF%$NHFFFFFFFFFFFFFFF",
"FFFFFm*#vGFFFFFFFFFFFFFFFFFFFFm%%NHFFFFFFFFFFFFFFF",
"FFFFm14quSFHFFFFFFFFFFFFFFFFHm1:1FHFFFFFFFFFFFFFFF",
"FFFHv6rwwcFFFFFFFFFFFFFFFFFFHl<gmFFFFFFFFFFFFFFFFF",
"FFFFbrw0rbDHFFFFFFFFFFFFFFFFFl:mFFFFFFFFFFFFFFFFFF",
"FFFHArw9a,gFFFFFFFFFFFFFFFFFHg$kHFFFFFFFFFFFFFFFFF",
"FFFMh8ycl;%lNHFFFFFFFFFFFFFFHgogHFFFFFFFFFFFFFFFFF",
"FHNg,1mFM:@;kDFFFFFFFFFFFFFFF<@gHFFFFFFFFFFFFFFFFF",
"FHN11MDMg<%@%lDHHFHFFFFFFFHBk=@gHFFFFFFFFFFFFFFFFF",
"FHF1gFFMgg1:;<12glMFHHFFHFHBg%@kHFFFFFFFFFFFFFFFFF",
"FHN1gFFFDDFNl:$o@:gNFFFFDFHN1:<mHFFFFFFFFFFFFFFFFF",
"ggkmNFHHFHHHNlg11<:&%:1kkNHN=:mFDFFFFFFFFFFFFFFFFF",
"a>:mFMvnvnvFHHHHFl,$@%11kNHl@=DHHFHFFFFFFFFFFFFFFH",
"r3@lNf8puriVHFFFFFNMNNNNDFm:@%NFFDFFFFFFFFFFFFFFFH",
"w4%2h69wwwrynFFFFHHHHFHFHFg@X@:::::1NHFFFFFFFFFFmk",
"w6<<d0w0wpwwAFFFFFFFFFFFFF<X...... @mHFFFFFFFFFFk:"
};
