/* XPM */
static char *FieldsTile_52[] = {
/* columns rows colors chars-per-pixel */
"50 50 78 1 ",
"  c #B35744",
". c #B65945",
"X c #B95D47",
"o c #BA5F48",
"O c #B36446",
"+ c #B06E47",
"@ c #BD6249",
"# c #B76949",
"$ c #AD7F49",
"% c #B27F4A",
"& c #B8784B",
"* c #C1664B",
"= c #C56A4D",
"- c #C96F4F",
"; c #C3764F",
": c #C3784F",
"> c #CB6F50",
", c #CD7351",
"< c #CB7C52",
"1 c #D07753",
"2 c #D47B55",
"3 c #D87E57",
"4 c #AD8349",
"5 c #B3834B",
"6 c #B58A4D",
"7 c #AF9B4E",
"8 c #B2944E",
"9 c #B19D4F",
"0 c #BE8E51",
"q c #B79650",
"w c #BB9251",
"e c #B59C50",
"r c #B89C51",
"t c #ACA54F",
"y c #A6AE4F",
"u c #A9AB4F",
"i c #A5B14F",
"p c #AFA350",
"a c #ABAE50",
"s c #B1A450",
"d c #BDA655",
"f c #B5AA53",
"g c #BBA854",
"h c #AAB050",
"j c #C28250",
"k c #CB8354",
"l c #C48B53",
"z c #CA8F55",
"x c #D38256",
"c c #D88057",
"v c #D18956",
"b c #D78658",
"n c #DC8459",
"m c #DE8A5B",
"M c #C39654",
"N c #C99255",
"B c #C29B55",
"V c #C89C57",
"C c #CE9958",
"Z c #D19558",
"A c #DC935B",
"S c #D49E5B",
"D c #DB9C5D",
"F c #E0875B",
"G c #E38C5D",
"H c #E88F5F",
"J c #E6915F",
"K c #E8925F",
"L c #E3995F",
"P c #C3A456",
"I c #C2A857",
"U c #C7A458",
"Y c #CDA159",
"T c #D2A05B",
"R c #E79660",
"E c #EB9661",
"W c #E69860",
"Q c #ED9862",
/* pixels */
" *11lyiiiiiiUREEEEEEREEEEE1X-cRREEEEEm,X   *,*+tii",
"$j3FNaiiiiiiYREEEEEEEEEEEQc=3GEEEEEQKHn1*X-1n-&tiy",
"iIEESpyiiiyaYEEEEEEEEEEEEEn1HEEEEEEREERE2@nQKFktii",
"iIEQmltiiifTLREEEEEEEEEEEE3=mQEEEEEEEEQQn,GQRKmk9i",
"rZEEHnVdPdYWQEEEEEEEEEEEQR,@nQEEEEEEEEEEm3GERQKFz9",
",nEERRRRREQREEEEEEEEEEEEEQ1@nQEEEEEEEEEEm1GQEEEEn<",
"@2QQQEEEEEEEEEEEEEEEEEEEEE,@nQEEEEEEEEEQG3GQEEEEKG",
" ;SSLEEEEEEEEEEEEEEEEEEEEQ3=FQEREEEEEEEEc,cJEEEEJH",
" %aaIREEEEEEEEEEEEEEEEEEEEn1GEEEEEEEEEEQ3o-cKLQKn1",
"=6iigWQEEEEEEEREEEEEEEEEQQG2HREEEEEEEEEE1XX&UPUb-@",
"3lptBJEEEEEEEEEEEEEEEQEERGn3KEEEEEEEEEEQ3@O4yisx-@",
"Jbkk<3HEEEEEEEEEEEEEEERRG=,KEEEREEEEEEEEn<8yiifAKH",
"QJn111cnnFFRQEEEEEERGnn3, ,EEEEEEEEEEEEEHmfyqBTQEQ",
"ERJ31222211HRRHREEEEn23=XX1EEEEEEEEEEEEEEKP9xGEEEE",
"EQR33HHJG,@1322FEEEEKJG3--nREEEEEEEEEEEEQRxkJKQKEE",
"EERFFERQE1*,2nnFEEEEEQRHc-cEEEEEEEEEEEEEERccKQQQEE",
"EEEEEEEERn1,FEEEEEEEEEEQF*,JREEEEEEEEEEEEK33JJQQEE",
"EEEEEEEEEJG2nEEEEEEEEEEQH@*cKQEEEEEEEEEEQE-=3JQKEE",
"EEEEEEEEEQG,3GREEEEEERGn1=@-nKEEEEEEEEEEH3@X-3JQQE",
"EEREEEEEEQG@@3JEREEERH3=@,-@-nREEEEREERE2@  X-cJEE",
"EGnJEEEEEQG@ *2cnHQEERGn3Gn3=,RQQQERQGnc1=XX=-,c33",
"H3,GQEEEEQG*X*13cHEEEEEEERQJ=-nFnFHHJ3-,22--ccc333",
"2-@mEEEERQG1-1GRJREEEEEEERQK3=@oo@;31-@-nJJJJJJJKK",
"m1=-nQQQQn,,3GEQEEEEEEEEEEEKG2=*o X@*@-cJKQQQQQQQE",
"RG1*-mFHG-@1GREEEEEEEEEEEEEEQH33,*@  -cJQEEEEEEEEE",
"ERH1=@@@@=1GREEEEEEEEEEEEEEEERJHHG3=X,KRREEEEEEEEE",
"EEEG2@ X*1FREEEEEEEEREEEEEEEEEKQQQJ1X,QQEEEEEEEEEE",
"EEEEG1@@,GQEEEEEEEEEEEEEEEEEEERRERQm@1QQEEEEEEEEEE",
"EEEERG=X,GEEEEEREEEEEEEEEEEEEEEEEEQH,nEEEEEEEEEEEE",
"EEEEQK,=1nEEEEEEEEEEEEEEEEEEEEEEEEEJ3nEEEEEEEEEEEE",
"EEEEERc,1GQEEEEEEEEEEEEEEEEEEEEEEEQG3nEEEEEEEEEREE",
"EEEEERn,1GEEEEEEEEEEEEEERQEEEEEEERQJ2nEEEEEEEEEEEE",
"EEEEEE31cHEEEEEEEEEEEEEEEEEEEEEEEEKm2nEEEEEEEEEEEE",
"EEEEEE33JKEEEEEEEEEEEEEEEEEEEEEEEEn11nEQEEEEEEEEEE",
"EEEEER1,KQQEEEEEREEEEEEEEEEEEEEEERn1nKEEEEEEREEEEE",
"EEEEEG**GKREEEEEEEEEEEEEREEEEEEEERn3KEEEEEEEEEEEEE",
"EEEEG2@o1GEEEEEEEEEEEEEEEEEEEEEEEEn2KEEEEEEEEEEEEE",
"EEEEn=*=,GQEEEEEEEEEEEEEEEEEEEEEHGnGEEEEEEEEEEEEEE",
"EEEE3#;23mKEQEEREEEEEEEEEEEEEEEQG1nEEEEEEEEEEEEEEE",
"EERnj9ZHHnnKQEEEEEEEEEEEEEEEEEEEn*2EEEEEEQQEEEEEEE",
"EEJNehTQK2-nKEQEEEEQEEEEEEEEERQDM5vQEEEEJTYYTLEEEE",
"EELgiaSEJ,o>nRRRLLKLEEEREEEEEQLgyuTEEEERYhiiuTQREE",
"EELgihTKc,=o-xUgggggDQEEEEEEQDguiiTEEQLIaiiiifIKEE",
"EQLfueAKnc3;;0uiiiiyISDLQELSSIiiiiNHEQDfiiiiiifLEE",
"EELg9kGKKHERVuiiiihihiuYEESauhiiiyw3KQJfiiiiiifLEE",
"QDgutegVnHQEIiiiiiiiiiiM33Myiiihiy03KELfiihiiifLEE",
"DIiiiiitlmEESgstiiiiihgN31wiiiiyihwkGHJIaiiiiaPLKH",
"auihiiyyuSEELDxwuiyiifSJH2wuiiiiiiu9kGQLUhiiuYQRm1",
"iiyiiyiihYQEEEGmYYYYYSEQH-5yiiihiiiu9ZEQLSUCYLKnz8",
"ihiihiiiuYEEEEEEEREEEEEQG*$yiyiihiiiiUEEEQEEEQG3rh"
};
