/* XPM */
static char *FieldsTile_56[] = {
/* columns rows colors chars-per-pixel */
"50 50 74 1 ",
"  c #B35744",
". c #B55945",
"X c #B95D47",
"o c #BB5F48",
"O c #BD6249",
"+ c #AE7447",
"@ c #AF7548",
"# c #B07147",
"$ c #B07548",
"% c #B77A4B",
"& c #C1664B",
"* c #C56B4D",
"= c #C86E4F",
"- c #C9704F",
"; c #CD7451",
": c #CC7B52",
"> c #D07753",
", c #D47B55",
"< c #D97F57",
"1 c #AD8C4B",
"2 c #B1844B",
"3 c #B9854E",
"4 c #BA894F",
"5 c #A7994C",
"6 c #B2914E",
"7 c #BF8550",
"8 c #BE8E51",
"9 c #B79650",
"0 c #BC9251",
"q c #B59C50",
"w c #BB9A52",
"e c #A5A44D",
"r c #ACA64F",
"t c #A7AD4F",
"y c #A9AB4F",
"u c #A5B04F",
"i c #AEA550",
"p c #ACAE51",
"a c #BCA554",
"s c #B4AB53",
"d c #BAA954",
"f c #ACB051",
"g c #C68552",
"h c #CC8454",
"j c #C48B52",
"k c #CD8955",
"l c #D58357",
"z c #D88057",
"x c #D28B57",
"c c #DB8459",
"v c #D58A58",
"b c #DE885B",
"n c #C59354",
"m c #CC9757",
"M c #C49A55",
"N c #CE9958",
"B c #D29759",
"V c #DE915C",
"C c #D59E5B",
"Z c #DB9C5D",
"A c #E0855B",
"S c #E38D5D",
"D c #E98F5F",
"F c #E6915F",
"G c #E8925F",
"H c #E2995F",
"J c #C3A356",
"K c #C7A458",
"L c #CBA259",
"P c #D5A05B",
"I c #E79660",
"U c #EB9661",
"Y c #E79960",
"T c #ED9862",
/* pixels */
"uuygcUUUUc>;0uuutuuuufuuuuuuuq:quuuuuuuupuuuuupuuu",
"ui0:,bBLLMj;gqtuuufuuuutuui9JNbjqtuuuuuuuuutuuuuut",
"uq,,,:qfuuig,hqtuututuuuup0zSTFcjpuuuutupuuuuuuuuu",
"uJSSc:iuuutimShquuuuuuuuy8lSUUUFBpuuuuuuuuuuutuuuu",
"qNTTDc45tuuuJUAxafuuuuur0zDUUUUUCsuuutuuuuuuufuurq",
";cUUUF=$ipufLUUUHayytty0zSUUUUUUCpuuuuuuuutuuuut0,",
"o-cSTU>;BCCCHUUSzg3$+$$:SUUUUUUTCpuuuuuutuuuuuy8vS",
"$%jbSScbUTUUUUUS<<>*OX.,TUUUUUUTZqyuuutuuuuuusMlSU",
"rtrg>,SUUUUUUUUUFUUF<*X>UUUUUUUTSh9uuuuuuuuupPIUUU",
"uuyg,bUUUUUUUUUUUUUTFc=cTUUUUUUUFAk0tuuuuuusLHUUS<",
"sfy8vUTUUUUUUUUUUUUUUS,bUUUUUUUUUUAzassssssJIUUFb,",
"HKtyJUUUUUUUUUUUUUUUTS,bUUUUUUUUUUUUHZHHHZHYUUF,bD",
"UZLKCUUUUUUUUUUUUUUUUS,bUTUUUUUUUUUUUUUUUUUUUTFbSU",
"UUUUUUUUUUUUUUUUUUUUUS,AUUUUUUUUUUUUUUUUUUUUUUUUUU",
"UUUUUUUUUUUUUUUUUUUUUS,bUUUUUUUUUUUUUUUUUUUUUUUUUU",
"UUUUUUUUUUUUUUUUUUUUUHjMPYUUUUUUUUUUUUUUUUUUUUUUUU",
"UUUUUUUUUUUUUUUUUUUUTZsusZUUUUUUUUUUUUUUUUUUUUUUUU",
"UUUUUUUUUUUUUUUUUUUUTPpuikAUUUUUUUUUUUUUUUUUUUUUUU",
"UUUUUUUUUUUUUUUUUUUUFv6ep0xSUUUUUUUUUUUUUUUUUSFUUU",
"UUUUUUUUUUUUUUUUUUUUc*O1tt0,SUUUUUUUUUUUUUUUUc,FUU",
"TUTTUUUUUUUUUUTUUUFc*O*6uu1O,SUUUTUTUUUUTTTFc*O*>c",
"SSbSFUUUUUUTUUFSSUS,==,Mss4O*>bSSSSFUUUSSbcz>*&&;<",
",*O;cUUUUUUUTFz,,FUUSFFUHHc;oXO;,,>cUUU<*OO*,bSFDF",
"b,&O*;;:zcccSUbcbFUUTTUUUUUcOO;cc>;;;;;;;,;,bFTTUU",
"US>OX.O*,,,,bUUUUUUUUUUUUUTF*;UUSz,;OX&:bUTUUUUUUU",
"UUS,Oo:SSFFFUUUUUUUUUUUUUUUF,,UUUFz;;,SSUUUTUUUUUU",
"UUUS;ocTTTUTUUUUUUUUUUUUUUTF,cUUUUc,cFUTUUUUUUUUUU",
"UUUT,OcUUUUUUUUUUUUUUUUUUUTU<cFUUUc,FUUUUUUUUUUUUU",
"UUUTb;bUUUUUUUUUUUUUUUUUUUUUFbzSTUFFUUUUUUUUUUUUUU",
"UUUUS,bSUUUUUUUUUUUUUUUUUUUUUS,cSUUTUUUUUUUUUUUUUU",
"UUUTS,;,FTUUUUUUUUUUUUUUUUUUUS;;zUUUUUUUUUUUUUUUUU",
"UUUUFA=;FTUUUUUUUUUUUUUUUUUUUc&=zFUUUUUUUUUUUUUUUU",
"UUUUTF*&FUUUUUUUUUUUUUUUUUUUT,O-bUUUUUUUUUUUUUUUUU",
"UUUUUF**FTUUUUUUUUUUUUUUUUUUT,O,UUUUUUUUUUUUUUUUUU",
"UUUUUU,;FUUUUUUUUUUUUUUUUUUUTc*bTUUUUUUUUUUUUUUUUU",
"UUUUUUzzUUUUUUUUUUUUUUUUUUUUUS,SUUUUUUUUUUUUUUUUUU",
"UUUUTIc,FTUUUUUUUUUUUUUUUUUUUb,STUUUUUIUUUUUUUUUUU",
"UUUUTF;;UTUUUUUUUUUUUUUUUUUUTc*cTUUUUUUUUUUUUUUUUU",
"UUUUTU*&SUUUUUUUUUUUUUUUUUTUU,OzTUUUUUUUUUUUUIUUUU",
"UUUUUF*O,STTUUTUUUUUUUUUUUUIc*XcTUUUUUUUUUUUUUUUUU",
"UUUUTU*.*;zbbbbbbbSUUUUUUUFc-OXzUUUUUUUUUUUUUUUUUU",
"UUUUUF*.X.O;,,,,,,cFFUUUUFb;O OcTUUUUUUUUUUUUUUUUU",
"UUUUF,OX**;bSSSSSSA,,,z,,*&O X=ATUUUUUUUUUUTUUUUUU",
"UTUSb;**,cbUTUUUTTFcczc,;&O**;cbSUUUUUUUUUSVCPCUUU",
"UUFc>,;,FUUUUUUUUUUFUUFb;;cFUFUzcUUUUUUUTUzjsusHTU",
"TSc;,SSSUUUUUUUUUUUUUUUFb,bTTUUSSUUUUUUUUFMrtusHUU",
"F,;,bUUUUUUUUUUUUUUUUUUUFc<bUUUUUFFUUUUUUHduurMHUU",
",*OcUUUUUUUUUUUUUUUUUUUUUU,&bUUUS,SUUUUUUYsut0zIUU",
"&&-STUUUUUUUUUUUUUUUUUUUUT,X*;;;;;bUUUUUUIg28xSUCJ",
".O,SUUUUUUUUUUUUUUUUUUUUTU:...  O;SUUUUUTF*X;SUUKu"
};
