/* XPM */
static char *FieldsTile_12[] = {
/* columns rows colors chars-per-pixel */
"50 50 82 1 ",
"  c #B55945",
". c #B95D47",
"X c #BB5E48",
"o c #B66247",
"O c #BD6249",
"+ c #B96C4A",
"@ c #AF7548",
"# c #B07147",
"$ c #B07448",
"% c #BD704B",
"& c #B77A4C",
"* c #C1664B",
"= c #C56B4D",
"- c #C96E4F",
"; c #C4704E",
": c #C9704F",
"> c #CD7351",
", c #C57B50",
"< c #CD7C53",
"1 c #D17753",
"2 c #D47B55",
"3 c #DD7F58",
"4 c #AD874A",
"5 c #AA8D4A",
"6 c #BC824E",
"7 c #B18D4D",
"8 c #BA894F",
"9 c #AD924C",
"0 c #A7984B",
"q c #A9994C",
"w c #B29A4F",
"e c #BE8B51",
"r c #B79650",
"t c #BB9351",
"y c #B39D50",
"u c #BB9952",
"i c #A6A54D",
"p c #ABA44F",
"a c #A7AD4F",
"s c #A8AD4F",
"d c #A6B04F",
"f c #AFA450",
"g c #ABAD50",
"h c #B3A251",
"j c #BDA655",
"k c #B4AB53",
"l c #BAA854",
"z c #A5B550",
"x c #AAB151",
"c c #C58652",
"v c #CA8754",
"b c #C38A52",
"n c #CC8C55",
"m c #D68357",
"M c #D88057",
"N c #DB8459",
"B c #D78C59",
"V c #DD895A",
"C c #C09353",
"Z c #CB9356",
"A c #C29D55",
"S c #CA9B57",
"D c #CE9C59",
"F c #D29258",
"G c #DA955B",
"H c #D39F5B",
"J c #DB9C5D",
"K c #E1875B",
"L c #E38C5D",
"P c #E88D5E",
"I c #E6925F",
"U c #E8925F",
"Y c #E3995F",
"T c #C4A457",
"R c #C7A458",
"E c #CCA259",
"W c #D0A05A",
"Q c #E79760",
"! c #EB9661",
"~ c #E69960",
"^ c #ED9862",
"/ c #F09462",
/* pixels */
"dddddaddddddzaddadddddaazaddddddddaddddadddddddddd",
"dfrrfdddddddddddddaxdazadaddadddddddddddddjRTTjddd",
"dr22bgadddddddxddddddzdazdddddgdddddaddddkJ!!!Jkad",
"dTLPVbfdddddddadaddddddaaaxaddddadddddddlJ!//!!Jjd",
"rH^^PM89rryrfdddddddhw9idddddddxdddddddlW^JEWY/!Rd",
"<M!!!I:O<2<<rddaagape:O4zdddadddddddadkJ!YjdgW^!Td",
"X-NP^!2>KLGupddhbb6$+X +tpdddddddddptZJUPmhddkRYRd",
"#&bBPLMV!YExdddycc,=O. -mjhyhypyhlkAmP/!VbpdddkYRd",
"papb22L!!TgddddaiajI3-.>!YV<<<v<mYYU!!!!HaddaalYRd",
"ddgFKVU!!Tzddddddzl~IM-3^!UKKKKKL!!!!!!!EdddawnYTd",
"kggE~!!!!EgkgddddgT!!P2V!!!!!!!!!!!!!!!!JkadaCNPTd",
"YRxgR!!!!YYYTadagE~!^L2V!!!^!!!!!!!!!!!!YJkdaHK3ud",
"/JERW!!!!!!!JEEREY!!!I2V!!!!!!!!!!!!!!!!!!JTRYYCpd",
"!!!!!!!!!!!!!!!!!!!!!L2V!!!!!!!!!!!!!!!!!!!!!!Hgdd",
"!!!!!!!!!!!!!!!!!!!!^P2V!!!!!!!!!!!!!!!!!!!!!Rxddd",
"!!!!!!!!!!!!!!!!!!!!^K-2L!!!!!!!!!!!!!!!!!!!Yjdddd",
"!!!!!!!!!!!!!!!!!!!!^VO*3I!!!!!!!!!!!!!!!!!!YTddad",
"!!!!!!!!!!!!!!!!!!!!^VX*2I!!!!!!!!!!!!!!!!!!!jdddd",
"!!!!!!!!!!!!!!!!!!!!!2XO>VKP!!!!!!!!!!!!!!!!!Shadd",
"!!!!!!!!!!!!!!!!!!!!M:. O>22L!!!!!!!!!!!!!!!Umcsdd",
"!^^^!!!!!!!!!!!^!!Im=O===>-*2K^^!!!!^^!!!^^UN-o$qd",
"PVVLU!!!!!!!!!PLP!P2--22m3-X=<VLIJJGVKLPKKVM1=**el",
"2-O>VU!!!!!!!YM12I!!IIU!I!N>O.O:ngxw+=22:OO*1VPPYY",
"V1**=>><MNNNL!KVKI!!!^!!!!UNOX1NZdza57e<1112VU^^!!",
"!L2O  .=2222K!!!!!!!!!!!!!!I=>!!JkppddsvK!^!!!!!YY",
"!!L2*.1PIIII!!!!!!!!!!!!!!!I22!!UY,$adgJ!!!!!!!!Ek",
"!!!L>oN^!!!!!!!!!!!!!!!!!!!I2N!!!!1=ATRY!!!!!!!!Td",
"!!!!2ON!!!!!!!!!!!!!!!!!!!!!MMP!!UVmI!!!!!!!!!!UTa",
"!!!!K>V^!!!!!!!!!!!!!!!!!!!!!VMI!!II!!!!!!!!!!UMud",
"!!!!L2MI!!!!~!!!!!!!!!!!!!!!!K2NP!!!!!!!!!!!!PVbpd",
"!!!!L21m!!!!!!!!!!!!!!!!!!!!^K1>M!!!!!!!!!!UYNcsad",
"!!!!YK--I!!!!!!!!!!!!!!!!!!^^M*=MU^!!!!!^!Rjjyhadd",
"!!!!^U=*I!!!!!!!!!!!!!!!!!!!^2.:VU!!!!!!YJkddddddd",
"!!!!^U==I^!!!!!!!!!!!!!!!!!!!2O3!!!!!!!/Wgdddddddd",
"!!!!^U1>U^!!!!!!!!!!!!!!!!!!^V:V^!!!!!!!Edddadddad",
"!!!!^!MmU!!!!!!!!!!!!!!!!!!!^K2K^!!!!!!!Eadddddddd",
"!!!!!!32U^!!!!!!!!!!!!!!!!!!!V2K!!!!!!!!Wddddddadd",
"!!!!!U1>U^!!!!!!!!!!!!!!!!!!^N-V^!!!!!!!Wadddddddd",
"!!!!!I=*L!!!!!!!!!!!!!!!!!!!!2oM^!!!!!!!Exdddgddda",
"!!!!^!=O2I^!^!!!!!!!!!!!~!!!V=XM^!!!!!!!Wadddddddd",
"!!!!^U= *>2KKVVKVVL!!!!!!!UV:O.M^!!!!!!!Eddddddddd",
"!!!!!I= ..O1222222MU!!!U!PV>O OM^!!!!!!!Hgdddddxdd",
"!!!!I3O.==>VLLKLLLVM232M2-O. .>K^!!!!!!!Vbpdddddda",
"!!!PN>==mMV!^!^^!^PMMMM2>O*==>MVP!!!!!!!Pmtpdddddd",
"!!Im12<2I!!!!!!!!!!!U!UV1>MU!UUMMU^!!!!!!IMbsdagaa",
"!IM12KKI!!!!!!!!!!!!!!!IV2K!^^!PL!^!!!!!!!PGJEWWZb",
"IM>1V!!!!!!!!!!!!!!!!!!^INVJJJJ~!PI!!!!!!!^!/!/!Vc",
"2=ON!!!!!!!!!!!!!!!!!!!!!UDggxkJLmK^!!!!!!!!!!!!Ra",
"O*=L^!!!!!!!!!!!!!!!!!!!!!n4ida8>1L!!!!!!!!!!!YRkd",
" *2I!!!!!!!!!!!!!!!!!!!!!!2o0da@X>K!!!!!!!!!!!Jgdd"
};
