/* XPM */
static char *FieldsTile_23[] = {
/* columns rows colors chars-per-pixel */
"50 50 56 1 ",
"  c #B35744",
". c #B55945",
"X c #B85D47",
"o c #BD6249",
"O c #BB694A",
"+ c #B07848",
"@ c #C1664B",
"# c #C46A4D",
"$ c #C86F4F",
"% c #C9704F",
"& c #CC7351",
"* c #D07753",
"= c #D47C55",
"- c #B3854C",
"; c #B1884C",
": c #B1904D",
"> c #BE8E51",
", c #B59750",
"< c #BA9651",
"1 c #BB9A52",
"2 c #ACA64F",
"3 c #A6AF4F",
"4 c #A9AC4F",
"5 c #A4B14F",
"6 c #ADA750",
"7 c #ACAE51",
"8 c #BBA554",
"9 c #B6AA53",
"0 c #B9A954",
"q c #A8B050",
"w c #C48752",
"e c #C88453",
"r c #C18C52",
"t c #CD8C55",
"y c #D68057",
"u c #D88057",
"i c #D18856",
"p c #DB8459",
"a c #DD895A",
"s c #C19E55",
"d c #CA9B57",
"f c #D6955A",
"g c #D9945B",
"h c #D69E5B",
"j c #DA9C5D",
"k c #E38D5D",
"l c #E6915F",
"z c #E8925F",
"x c #E3995F",
"c c #C3A556",
"v c #CAA258",
"b c #D1A05A",
"n c #E79560",
"m c #EB9661",
"M c #E79860",
"N c #ED9862",
/* pixels */
" &mmmmmmmmmmmmmmmmmmmmmmmm=X#pmmmmmmmp**#X @&@    ",
"@=mNmmmmmmmmmmmmmmmmmmmmmmu@=kmmmmmmmkpp=&##*#@@X ",
"*pmmmmmmmmmmmmmmmmmmmmmmmma=lmmmmmmmmmmmmn==*===$X",
"*pmmmmmmmmmmmmmmmmmmmmmmmma=kmmmmmmmmmmmNmnp*pzk=%",
"*pmmmmmmmmmmmmmmmmmmmmmmmmkplmmmmmmmmmmmmmmzpkNNk=",
"&pmmmmmmmmmmmmmmmmmmmmmmmmnmmmmmmmmmmmmmmmmmmmmmNm",
"o=mmmmmmmmmmmmmmmmmmmmmmlpkmmmmmmmmmmmmmmmmmmmmmNm",
" %kmmmmmmmmmmmmmmmmmmmmml=pmmmmmmmmmmmmmmmmmmzkmNm",
" @=lmmmmmmmmmmmmmmmmmmmml=pmmmmmmmmmmmmmmmmmzk=zmn",
"#@@kNmmmmmmmmmmmmmmmmNml=#=mmmmmmmmmmmmmmmmNm=*%=p",
"y$opmmmmmmmmmmmmmmmmmmn=#X&lmmmmmmmmmmmmmmmnk=%#%=",
"lp&=ammNmmmmmmmmmmmmml=#X @ylmmmmmmmmmmmmmmp@#=kzz",
"Nlp=&&kNNNNNmmmmmkkmmnk=&Xo&kmmmmmmmmmmmmmNp#*kmNN",
"mmmp&@=lkkkllzmNn==mmmnmk##=kmmmmmmmmmmmmmmk=kmmmm",
"mmmlkp&@oo#==plmmlmmmmmmnky==pmmmmmmmmmmmmmmzmmmmm",
"mmmmNm@ oo#ypplNmNmmmmmmmmkp*pmmmmmmmmmmmmkkmmmmmm",
"mmmmmz%X%==zmnmmmmmmmmmmmmmz==nmmmmmmmmmmz==zmmmmm",
"mmmmmm=$*pzmmmmmmmmmmmmmmmmmzk=lNmmmmmmmmm=knmmmmm",
"mmmmmmk*=zmmmmmmmmmmmmmmmmmmNk*=zmNmmmmmzk**kzNNmm",
"mmmmmn==zmmmmmmmmmmmmmmmmmmmN=X$=zmnmmmmk*@X*kmmmm",
"mmNNlpkkmmmmmmmmmmmmmmmmmmmmN=XX#$#%=p=p%X  X#%==k",
"kk=k==knmmmmmmmmmmmmmmmmmmmmN=X.XXo$=p==*#####$===",
"=%@X@*kmmmmmmmmmmmmmmmmmmmmmN=X.X%pzmznzzkzkkkznzz",
"k==#@@kNmmmmmmmmmmmmmmmmmmmm=##*=kzNNmNmmmmNmNmNmm",
"mmzp$o=Nmmmmmmmmmmmmmmmmmmnk##=kNmmmmmmmmmmmmmmmmm",
"mmmmp*kNmmmmmmmmmmmmmmmmmmk=%=lmmmmmmmmmmmmmmmmmmm",
"mmmmlkkkmmmmmmmmmmmmmmmmmk*#=kmmmmmmmmmmmmmmmmmmmm",
"mmmmmm==mmmmmmmmmmmmmmzzk=##kmmmmmmmmmmmmmmmmmmmmm",
"mmmmmmllmmmmmmmmmmmmml===*=kzmmmmmmmmmmmmmmmmmmmmm",
"mmmmmmmzklmmmmmmmkkmmlk===kNmmmmmmmmmmmmmmmmmmmmmm",
"mmmmmmmk=pmmmmmNN=pnmmmp=kmmmmmmmmmmmmmmmmmmmmmmmm",
"mmmmmmmk*=kmNmmNNkkmmmmp=nmmmmmmmmmmmmmmmmmmmmmmmm",
"mmmmmmmk=&&kkkkkknmmmmmk=zmmmmmmmmmmmmmmmmmmmmmmmm",
"mmmmmmmk*@o&===*=kmmmmmnmmmmmmmmmmmmmmmmmmmmmmmmmm",
"mmmmmmNk=o oo@%&=kmmNnkkmmmmmmmmmmmmmmmmmmmmmmmmmm",
"mmmmnlxfeoXo@@===kkkkk%pmmmmmmmmmmmmmmmmmmmmmmmmmm",
"mmmNk=1q6+opklnnkp&@&&o=mNmmmmmmmmmmmmmmmmmmmmmmmm",
"mmmmg<257-%zNNmmmk=@@o =mmmmmmmmmmmmmmmmmmmmmmmmmm",
"mmmmh7536r=mmmmmmmk=@X =NNmmmmmmmmmmmmmmmmmmmmmmmm",
"mmmmhq52wpnmmmmmmmmk=#X*mmmmmmmmmmmmmmmmmmmmmmmmmm",
"mmmmf<cdpkNmmmmmmmmmk=#*kmmmmmmmmmmmmmmmmmmmmmmmmm",
"mmmmk=kmmmmmmmmmmmmmmk===lNmmmmmmmmmmmmmmmMMMnmmmm",
"mmmmnknmNmmmmmmmmmmmmmk==lNmmmmmmmmmmmmmmMv98tpnNm",
"mmmklmmmmmmmmmmmmmmmmNmkpanmmmmmmmmmmmmmmn053,tnmm",
"mmn=pmmmmmmmmmmmmmmmmmmmk=pnmmmmmmmmmmmmmM05338MNm",
"mz===mmmNmmmmmmmmmmmmmmmn=%&kNmmmmmmmmmmNM05559Mmm",
"ji&=amxhjjjmmmmmmmmmmmmmzp#X=kkmmmmmmmmmmM16559jNm",
"7-@pmnc7970Mmmmmmmmmmmmmmn*XX@=kmmmmmmmmmmy>759Mmm",
"5;#=gc755578jmmmmmmmmmmmmN=  X@&=plmmmmmmmkavvhMhc",
"5<*=r353q553vmmmmmmmmmmmmN=   X o&ammmmmmmmmmmmmc5"
};
