/* XPM */
static char *FieldsTile_64[] = {
/* columns rows colors chars-per-pixel */
"50 50 75 1 ",
"  c #B35744",
". c #B65A45",
"X c #B95D47",
"o c #BA5F48",
"O c #B06E47",
"+ c #BE634A",
"@ c #B76949",
"# c #AC7E48",
"$ c #BF764D",
"% c #B8784B",
"& c #C1664B",
"* c #C56A4D",
"= c #C96F4F",
"- c #C2754E",
"; c #C9704F",
": c #C4784F",
"> c #CB6F50",
", c #CD7451",
"< c #CF7C54",
"1 c #D07753",
"2 c #D47B55",
"3 c #D87E57",
"4 c #AB8149",
"5 c #B3834B",
"6 c #AF9B4E",
"7 c #B19D4F",
"8 c #BE8E51",
"9 c #B79650",
"0 c #BB9251",
"q c #B49C50",
"w c #B99D52",
"e c #ABA54F",
"r c #A6AE4F",
"t c #A9AB4F",
"y c #A5B14F",
"u c #AFA450",
"i c #ABAE50",
"p c #B1A450",
"a c #BDA555",
"s c #B5AA53",
"d c #BAA854",
"f c #A9B050",
"g c #CB8454",
"h c #C58B53",
"j c #CA8F55",
"k c #D38356",
"l c #D88057",
"z c #D18A56",
"x c #D78658",
"c c #DC8459",
"v c #D78F59",
"b c #DF895B",
"n c #C19754",
"m c #C99255",
"M c #C29A54",
"N c #C89C57",
"B c #D19558",
"V c #DC935B",
"C c #D49E5B",
"Z c #DB9C5D",
"A c #E0875B",
"S c #E38C5D",
"D c #E88F5F",
"F c #E6915F",
"G c #E8925F",
"H c #E2995F",
"J c #C3A456",
"K c #C2A857",
"L c #C7A458",
"P c #CDA159",
"I c #D2A05B",
"U c #E79660",
"Y c #EB9661",
"T c #E69860",
"R c #ED9862",
/* pixels */
" ,YYYYYYYYYYYYYYYYYYYYYYYY2X=cGRGRRRGA11* .&;&Oeyr",
"&2YRYYYYYYYYYYYYYYYYYYYYRYl&2SURRRGRGFcb2,;1c=$tyy",
",cRYYYYYYYYYUYYYYYYYYYYYYYb2SYYYRGRGRRGGRGRGGAgpyy",
"1cYYYYYYYYYYYYYYYYYYYYYYYYFFYYYYRGRRGRRRRRRRGGvg7y",
"<cYYYYYYYRYYYYYYYYYYYYYYYYYRYYYYYGRRGRRRGRRRGRGAh7",
",cYYYYYYYYYYYYYYYYYYYYYYYYYYYYYYRGRGRRGGGRGRRRRGb<",
"+1YRYYYYYYYYYYYYYYYYYUYbcFYYYYYYYRYRRGRRRRRGGYYYGA",
" =SYYYYYYYYYYYYYYYYYYRYc2FRYYYYYYYYGRRGRRGFGRYRYGF",
" &2FRYYYYYYYYYYYYYYYYYYc2FYYYYYYRRGGRRGRRGllGRHGc1",
"*&&SRYYYYYYYYYYYYYYYYYYc2FYYYYYYGRRRRGYYRG;$JKNx;+",
"2=&cGFYYRYYYYYYYYYYYYYYl<SRYYYYYGRRRYYRYYF-4tyuk=&",
"Yc,122SRYYYYYYYYYYYYYRY,&SRYYYYYRRGGYYGRYHwryydZDS",
"RFc111lcccSYRYYYYYYYSbc*+SRYYYYYGRYYRGGRRHdt0JIRRR",
"YYY21222212SGFFYYYYYc12*+bYYYYYYRYYYRRRRRGKw2AYGYY",
"YRF22SFFS,+122lcYYYYFFSl,1SYRYYYYYYYGRRGRGHv2ARYYG",
"YYYbSRRRY1&,2ccSYYYYRRRSl;2YYYYYYYYRGRRGRYRA2AYYYY",
"YYYYYYYYRc11bGYYYYYYYYYRb+,GRYYYYYGGRRYYYGRS2bHYYY",
"YYYYYYYYYGA2bYRYYYYYYRYRF+&lFRYYYYRRRGYRYRRS2SRYYY",
"YYYYYYYYYRS,1FGRYYYYYGSc1+X;cFYRYYYYRRGGRRYb;lFGYY",
"YYYYYYYYYRb+&2FRGYYYRF2=+  +;cGYYYYYGRRRGGRl+*lFYY",
"RScFRYYYYRb+.+2lcFYYYGbc1=+ X=lFRGRYYYGRRRRlX.&lc3",
"Sl,SRYYYYRS&++1llFRYYYYRYc,*+;,bGRRYRYRYRGRc++=233",
"2=+bRYYYYYS1;1SFFYYYYYRYYFFSFb11lGYRGRYYRYRS1cFGGG",
"b1&;lRRRRl,<lSGRYYYYYYYYYRYRRGbbbc12GRRRRGAcAGRRYY",
"RS1&=bSSA;+1SRYYYYRRRRRGYYYYYYYRF2*&cSSSGGlcGYYYYY",
"RGS1=++++*1SYYYYYRGGGGRRYYYYYYYYGF3=&+&1AYGFRYYYYY",
"YRGS1+ X+1AYRYYYYYRRRRRGYYYYYYYYRYS2X+,lSRRRYYYYYY",
"YYRYS<++<ARYYYYYYYGRRGYYYYYYYYYYYYRb+<GYGRYYYYYYYY",
"YYYRYS*X,ARYYYGRYRGRYYYYYYYYYYYYYYRS,cRRRRRGYYYYYY",
"YYYYYG,&<AYYYYRRRGGRYYYYYYYYYYYYYYRF2cYGRGRRYYYYYY",
"YYYYYYl,,bRGYYRGRGRRYYYYYYYYYYYYYYYF2bYRRGGRYYYYYY",
"YYYYYYl1<bRRYYRGRRRGYYYYYYYYYYYYRGRF2cRRGRYYYYYYYY",
"YYYYRGl2lSYYYYYYYYYYYYYYYYYYRRGGRRFb2cYRYYYYYYGRYY",
"YYYYYYl2FRYYYYYYYYYYYYYYYYYYGYRRRGc11cYYYYYYYYGRYY",
"YYYYRG,;GRYYYYYYYYYYYYYYYRYYYYYYRGc1bFGRYYYYYYRYYY",
"YYYYYS&&SYYYYYYYYYYYYYYYYGRYYYYYRRc2FRRYYYYYYYYYYY",
"YYYRS2++1SRYYYYYYYYYYYYYYYYYYYYYRGc2FRYYYYYYYRYYYY",
"YYYRc&&=,bRYYYYYYYYYYYYYYYYYYYYYGAbAGRRGYYYYRGYYYY",
"YGRGl@;22AGYYYYYYYYYYYYYYYRYYRYRS1cRYYYYYYYYYYYYYY",
"YRGch6mGFccFRYYYYYYYYYYYYYGRRGYRc&2RRYYYYYYYYYYYYY",
"YRGjqfCRR2=cFRYYYRRRYYYYYYYYYYRIn5zYYYYYHIPPPHYYYY",
"YYHdyiCYG;+;cGGHHHGHYYYYYYYYYYHartIYYYYHPtyyfPHYYY",
"YYHsyfCDl,=+=lJdsddaZYYYYYYRRZafyyIRYYHLsyyyyiPHYY",
"YYHdtqZGcl2;:0tyyyyyLCCHYYHCCLyyyymDYRZsyyyyfydHRY",
"YYHd7gAGGDYGNyyyfyytfffPYYCtftyyyf83GRGsyyfyyysHRY",
"RZattqaNcDRRLyyyyyyyyyy03cnyyyyyyrh2GRHsyyyyyysHYR",
"ZKyyyyyehbRYCputyyyyyfdm210tyyyfyr9gSGHLtyyyfiLHGS",
"iffyryrrtCYYHHk0tyyyysZYS20fyryyyytpkAHHPfyytIHGb1",
"yyyfyyfyyPRYYYSbPPPPPCYRS;5ryyyyyyyt7BGRHPPPPHGAj9",
"tyyyyyyytPYYYYYYYRYYYYYRA&4fyyyfyfyyfPYYYYYYYRS29y"
};
