/* XPM */
static char *FieldsTile_40[] = {
/* columns rows colors chars-per-pixel */
"50 50 82 1 ",
"  c #B45644",
". c #B65A45",
"X c #B95D47",
"o c #BA5F48",
"O c #B46346",
"+ c #BD6349",
"@ c #B56C48",
"# c #BC6C4B",
"$ c #AD7E49",
"% c #B37349",
"& c #BB744C",
"* c #BF7B4E",
"= c #C1664B",
"- c #C56A4D",
"; c #C86F4F",
": c #C27B4F",
"> c #CD6E50",
", c #CD7351",
"< c #C57D50",
"1 c #CC7C53",
"2 c #D17653",
"3 c #D47C55",
"4 c #D97E57",
"5 c #AE864A",
"6 c #AC8B4B",
"7 c #B2864C",
"8 c #BA874F",
"9 c #B18D4D",
"0 c #AB924B",
"q c #AB9B4D",
"w c #B2924E",
"e c #B19D4F",
"r c #BC8B50",
"t c #BA9451",
"y c #B49C50",
"u c #BB9B52",
"i c #A6A44D",
"p c #ACA54F",
"a c #A6AD4F",
"s c #A8AC4F",
"d c #A5B04F",
"f c #AFA450",
"g c #ABAD50",
"h c #B1A250",
"j c #BEA755",
"k c #B2AB52",
"l c #BAA954",
"z c #A5B550",
"x c #A9B050",
"c c #C28651",
"v c #CA8353",
"b c #C48B52",
"n c #CA8B54",
"m c #D68357",
"M c #D88057",
"N c #D08A56",
"B c #DC8459",
"V c #D68E59",
"C c #DE885B",
"Z c #C39153",
"A c #C09E54",
"S c #C99F57",
"D c #CE9D59",
"F c #D39158",
"G c #DC965C",
"H c #D49E5B",
"J c #DA9C5D",
"K c #E0865B",
"L c #E38C5D",
"P c #E88F5F",
"I c #E6915F",
"U c #E8925F",
"Y c #E29A5F",
"T c #C3A456",
"R c #C7A458",
"E c #CBA259",
"W c #D2A05B",
"Q c #E79760",
"! c #EB9661",
"~ c #E69860",
"^ c #ED9862",
"/ c #F09663",
/* pixels */
" ,!!HgddddddR!!!!!!!!!!!!!2+-B!!!!Q!!C,X$ady1ydddd",
"=3!!HaddddddR!!!!!!!!!!!!!M-3L!!!!!!!LM2:6isttexdd",
",C!!WkdddddgE!!!!!!!!!!!!!C2L^!!!!!!!!!!3#0xfbvfax",
"2C!!~HkdddkHY!!!!!!!!!!!!!3=CQ!!!!!!!^!^K,<nJYCved",
"bF!!!!ETjjEY!!!!!!!!!!!!Q!2oC!!!!!!!!!!!B;2K!/UKby",
"aR!!!!!QQ!!!!!!!!!!!!!!!!^2+C!!!!!!!!!!^3=C!!!!!C1",
"dTQ!!!!!!!!!!!!!!!!!!!!!!^2+C^!!!!!!!!!!LCL^!!!!C2",
"dTL!!!!!!!!!!!!!!!!!!!!!^!3=C^!!!!!!!!!!UUU!!!!!Vc",
"du3L!!!!!!!!!!!!!!!!!!!^!!C2L^!!!!!!!!!^L3L!!!!QSa",
"d6-L!!!!!!!!!!!!!!!!!!^LK!C3L^!!!!!!!!!!C23L!/YRkd",
"d0@BU!^^!!!!!!!!!!!!!!L3,LC3U!!!!!!!!!!QL323LYWadd",
"daqvC!!Q!!!!!!!!!!!!!U4-+2CU!!!!!!!!!!!!!U423Agdda",
"ddxyc2L^^^^^^!!!ULC!^UC32,CQ!!!!!!!!!!!!!!M<tpdddd",
"dddd0@3ILLL!UU!!!MBUQ!!!U3B!!!!!!!!!!!!!!U4baddddd",
"ddddaq&+==-23MU!!UU!!!!^U3B!!!!!!!!!!!!!!U4baddddd",
"dddxdd6%++-3BCU!!Q!!!!!!L,3!!!!!!!!!!!!!^U4bxdddda",
"dddddddy123U!!U!!!!!!!!^L+,UQ!!!!!!!!!!!!U4cpaddda",
"dxdadddh1BU!^Q!!!!!!!!!^L+=B!!!!!!!!!!!!/U,#bhddxd",
"dadddddhmL!!!!!!!!!!!!!QL,-;BU!!!!!!!!!!U3+X-rhddd",
"ddddxddjU!!!!!!!!!!!!!!!!U2+;B!!!!!!!!!!3XX X;bpdd",
"dxddaxTJQ!!!!!!!!!!!!!!!^^L2=,!^!!/!!LBM2-XX=,1bhd",
"ddddshJ!^!!!!!!!!!!!!!!!!^^U-;CGJJJJC313M3-;3M34Zp",
"ddddevL^!!!!!!!!!!!!!!!!!!!U3-+wxgge#-3LUUUUUUUUm1",
"57r7%=C^!!!!!!!!!!!!!!!!!!LB3:6idddpv4LU^^^^^^^^UK",
"X-2-o+B!!!!!!!!!!!!!!!!!!!L33bddddaTY^!!!!!!!!!!!!",
";4PLM2L!!!!!!!!!!!!!!!!!!!UUPHdddaRY!^!!!!!!!!!!!!",
"CL!^UCCL!!!!!!!!!!!!!!^ULU^Q^YRwwTY!!!!!!!!!!!!!JE",
"!!!!!!M4!!!!!!!!!!!!!!UM2U^!QQU--U^!!!!!!!!!!!QYTd",
"^^!!!!LU!!!!!!!!!Q^^^UM--L^!^^!32U^!!!!!!!!!!!YTgd",
"LL!!!!!ULU!!!!!!ULL!!UM=+L^!^!U4MU^!!!!!!!!!^JTxdd",
"2BU!!!^L3K!!!!!^UMBU^!!,+L^!!!!M4U!!!!!!!!!!YTxddd",
"yZBU!!^L32K!!^Q^!UL!!!!3,L^!!^UM4!^!!!!!!!!!Ujdddd",
"dhbU/!^L;:nHGLLLL!!!!!!LBU!!!^!32U^!!!!!!!!!!ldxdd",
"ddfJ!!^C+5axt3333UQ!!!!UU!!!!^U--U^!!!!!!!!!UTdddd",
"dddlH!!G9idd6=;22L^!^UCL^Q!!!^U-=U^!!!!!!!!/QTdddd",
"ddddlJLHgddk8-233LLLLL,B!!!!Q!L;-U^!!!!!!!!YJlddax",
"ddadxknvgdkJULUULC,=,,+3!!!!^L3,3U^!!!!!!!!Jkddddd",
"dddddacvERWQ!!!!!L2==+X2^!!!!L2ML!^!!!!!!!!Hxddddd",
"dddddabMUQ!!!!!!!QL3=  3!!!!!C2CQ!!!!!!!!!!Hgddadd",
"daxddxHU!!!!!!!!!!!U3-X2^!!!^M=B^!!!!!!!!!/Wadddad",
"ddddsuG!!!!!!!!!!!!!L3-1LU!!^MXM^!!!!!!!!!!Hgddddx",
"ddddy2L!!!!!!!!!!!!!^L323U!!!2+M^!!!!!!!!!!Jkddddd",
"ddddt1L!!!!!!!!!!!!!!!L33U^!C-X4^!!!!!!!!!!YHldddd",
"dddduBP!!!!!!!!!!!!!!^!LBU^UM;=C^!!!!!!!!!!/!Wkdda",
"ddddl!!!!!!!!!!!!!!!!!!!U!QU3,2L^!!!!!!!!!!!!!Jkdd",
"daddTQ!//!!!!!!!!!!!!!!!^!WA&>L!!!!!!!!!!!!!!!YWld",
"dddkEQYJJJYQ!!!!!!!!!!!!!!Ea$:JQ!!^!!!!!!!!!!!!!Td",
"ddgW!~TggglY!!!!!!!!!!!!/!EaiskH!!!!!!!!!!!!!!!!Td",
"dhZUJTgdddajJ!!!!!!!!!!!!!N7iddr,,,2ML!!!!!!!!YEkd",
"dt3LWxdxddddT!!!!!!!!!!!^!2Oqza%   o,L!!!!!!!!Jgdd"
};
