/* XPM */
static char *FieldsTileset[] = {
/* columns rows colors chars-per-pixel */
"50 50 43 1 ",
"  c #B19E4F",
". c #BC9C53",
"X c #A7AF4F",
"o c #A8AD4F",
"O c #A6B04F",
"+ c #AEA750",
"@ c #ACAB50",
"# c #B4A552",
"$ c #BCA354",
"% c #B3AA52",
"& c #B9A854",
"* c #CE8454",
"= c #C38B52",
"- c #CB8D55",
"; c #D08656",
": c #D88157",
"> c #D18D57",
", c #DD865A",
"< c #D58D58",
"1 c #DD8A5A",
"2 c #C59555",
"3 c #CB9456",
"4 c #C49C55",
"5 c #C99A57",
"6 c #CF9558",
"7 c #CD9C58",
"8 c #D09157",
"9 c #D49459",
"0 c #DB935B",
"q c #D49C5A",
"w c #DB9A5D",
"e c #E38C5D",
"r c #E5925E",
"t c #E8925F",
"y c #E3995F",
"u c #C3A256",
"i c #C8A157",
"p c #CBA159",
"a c #D2A05A",
"s c #E79660",
"d c #EA9561",
"f c #E79860",
"g c #E99861",
/* pixels */
"edded,eddtde:dddde,tddte,eddtd,.%O+&i330ett84+ +$u",
"eteedteetedeeeteddetdetde,teede5q58a01ttedtwwq<tyu",
"1edeeeeede,eeee,ee,ede:eeeede117tt,,eett:ereet,1y8",
"etdetdeedetgt:ddtet1,eeedetdedd2<eeeteedt1rtetde0q",
"t,,tddd,0tgfd1dgttdetdeyd0<,tdd$wdteddedtegg0tdew+",
"edteddq57qquq55q4iq4iq7iq0ytetd4wdeew1,te1tt<ye<t$",
"eddet9%@++$u5wt0w1-#o#@$u4ad1t1-idee1;qyeee>9gt1r8",
"edtedw$i$3i0eededd09i-qwu4ttegr1tttdd10tet11ddttt<",
"1ed0r2#dt:e,eett,eeds,et77wdeeee1e,teeee,e1eedeee<",
"eddetq.<ee,ttedeett1tt1999ddeeee,dtete,td,eee,e,et",
"t,eeda#9ddedd1eedddeddey%u<1dgdt0ddedd0ddeddeedetd",
"ttetf$$ydetdttt1ddd,ee,y%%teeddr1teedt<eeetyeddety",
"edd0r35wdeee:tdtee:tdt0e>4qd,te-5t1,119tee,*8yd,15",
"tdded90ddede,y77yt<ededde9ytede5wded0<tdedd<qttddy",
"edtet38dd,teru+o7wreeeed0.edeee9wdee1teteeeeeeeed4",
",ee<91<eee:e0%Oo$3e,edee08dd1et9tde1eeedteee11te14",
"eettda9eededd4%#$ugedddefq1etdf71yedddeeeddd1dddqi",
"eddeta8ddttddww7iyd1etetyuyetdd&5wwtay0eedyt-0g04@",
"edd9ew3wdeee,tdr1teete:r9iqd,te$#.ui&5qa01qi%#5-3@",
"edttdw5qdede:ee1ddeedttdw9ydtde>q58u%5qawqq45ytttq",
"eeeedq40dedeeddeddteeeed5weeedtydtwtyr1tret19teet.",
",,eet84tde,eeet,,ee11e1r491t1eeeet111eedt,e09gt003",
"eeddeuurteddteddedd1sdd9i20ddete1ddetdetetdw0tetga",
"eedd8io89ygyd,deedd<rdr5%.eddedr1tdwyt10wdyau01dyu",
"eee1<q#&77a&9ey<1yq##5=4ou9e,ee54ui$ui&i5q$4iyt0yu",
"edtet17ip9p728555@.q$52.32qeeee#X@XOo&7u94597wtry8",
"eetedw0edwte0tt0yq0rdyrterdeddd&OOOOO$td0te93tett4",
"eedee1eede1eett8eteed1,e1ete,ee&OOOOO4ed<1e84dt<13",
"eetetdtetetde1dt1tt,1eeedetdeet&OOOOO4,etett0tt1yw",
"te,tddte1rdddedteddeddeddeededd&OOOOO4eddeyw50eetu",
"tdt1ddedt1tgt,y,1gt1dd1ddeet,ds&OOXXX#4pq7iipdr1ti",
"5u7-4938u34&47u<3i8qyt,e-,dd,e<4uwqq8.oO+#$.iqt0tq",
"qyy0ye9t0rwu$qy0yy59tttt31dted<0rdeddq4u2iq59deddw",
"9de1e,tdr9d9i1e<tt#.tt012yee,e1e,eee100tt114weeet4",
"31ee1t1,tt1<4>tde120tt9rr<ede,te,de,twrtee8i>etee5",
".tdeddeedd0i+8ddy7%500ewi9tdttdteddeda-0rypu2dddq%",
"#qqwqaq<qq5i#8et<0u%qq1$@81t1tdt,eeetuuwww&X5ee19q",
"#$q894$5q87845552i##7qq3.4qt,e9<qtee<.#$#iX@45434$",
"9yted03yded18990q%59dttt<0ydet95tdedy>990q%5998y&u",
"reeed2+9tet<ydt0ddeeeeee<edtet2+9dee1ydd0tttdd0rtt",
",,d0913td:,ee,e0,ee,ete:e,ee1903tdeeeeet11eeetr,ee",
"etdtdai0eeedd1ddeddetddedeedttqi9eeddd1ddeddetdedd",
"90dedp%9eeedt9ttedy19wwwwetgrtp+weeddg>teedd1er,ty",
"<0e<e9$7dee;-5ee,<3#qq4531dd<rquadeee<5te,t,ede,t3",
",te1t<3wdede1qgte18qytte<0ddet93wdede<qdtttetdtdt0",
"ddeed<eet,dtr1e1tr1reeet1rdted3#0teteeeeedteeeeed0",
"1ee,,ee:te,ee,ee:,eeet,,e,te<9<4yde,eeeeeeeeeeeeee",
"etdetdeedteddeddedd,tdeedeeerrw7eteddt,ddeet,tdded",
"01detdy0dtedt9tdeddetdedd0ydedi%91eddt1ygyyy1yfyyy",
">0e,e909e,e098eeede,et:r99yd0ew&wd1twq4i7#47455$i4"
};
