/* XPM */
static char *FieldsTile_37[] = {
/* columns rows colors chars-per-pixel */
"50 50 228 2 ",
"   c #B35744",
".  c #B45844",
"X  c #B45845",
"o  c #B55845",
"O  c #B55945",
"+  c #B65945",
"@  c #B65A45",
"#  c #B65A46",
"$  c #B75B46",
"%  c #B75C46",
"&  c #B85C46",
"*  c #B85D47",
"=  c #B95D47",
"-  c #B95E47",
";  c #BA5E47",
":  c #BA5E48",
">  c #BA5F48",
",  c #BB5F48",
"<  c #BB6048",
"1  c #BC6048",
"2  c #BC6149",
"3  c #BD6149",
"4  c #BD6249",
"5  c #BF614A",
"6  c #BE634A",
"7  c #BC6649",
"8  c #BF644A",
"9  c #BF654A",
"0  c #BA6C4A",
"q  c #AE7F49",
"w  c #B07D4A",
"e  c #BC7B4D",
"r  c #C0654B",
"t  c #C1664B",
"y  c #C1674B",
"u  c #C2674B",
"i  c #C2674C",
"p  c #C2684C",
"a  c #C3694C",
"s  c #C4694D",
"d  c #C46A4D",
"f  c #C56A4D",
"g  c #C56B4D",
"h  c #C56C4E",
"j  c #C66C4E",
"k  c #C66D4E",
"l  c #C76D4E",
"z  c #C76E4F",
"x  c #C86E4F",
"c  c #C86F4F",
"v  c #C96F4F",
"b  c #C6704E",
"n  c #C9704F",
"m  c #CA6E50",
"M  c #C97050",
"N  c #CA7050",
"B  c #CA7150",
"V  c #CB7150",
"C  c #CB7250",
"Z  c #CB7251",
"A  c #CC7251",
"S  c #CC7351",
"D  c #CD7351",
"F  c #CE7251",
"G  c #CD7451",
"H  c #CD7452",
"J  c #CE7452",
"K  c #CE7552",
"L  c #CC7752",
"P  c #CE7652",
"I  c #CF7652",
"U  c #CF7653",
"Y  c #CD7953",
"T  c #D07753",
"R  c #D07853",
"E  c #D17853",
"W  c #D17854",
"Q  c #D17954",
"!  c #D27854",
"~  c #D27954",
"^  c #D07B54",
"/  c #D27A54",
"(  c #D37A54",
")  c #D37B54",
"_  c #D37A55",
"`  c #D37B55",
"'  c #D57955",
"]  c #D47B55",
"[  c #D17D54",
"{  c #D37F55",
"}  c #D47C55",
"|  c #D57C55",
" . c #D57D56",
".. c #D67D56",
"X. c #D57E56",
"o. c #D67E56",
"O. c #D77E56",
"+. c #D67F56",
"@. c #D77F56",
"#. c #D77F57",
"$. c #B58A4D",
"%. c #BA894F",
"&. c #AC934C",
"*. c #BF9653",
"=. c #B49950",
"-. c #B49B50",
";. c #B69C51",
":. c #BA9851",
">. c #BA9A52",
",. c #A7AF4F",
"<. c #AAAA4F",
"1. c #A2B24E",
"2. c #A3B24E",
"3. c #A5B04F",
"4. c #A4B14F",
"5. c #A6B04F",
"6. c #A7B04F",
"7. c #A4B24F",
"8. c #A5B24F",
"9. c #A4B34F",
"0. c #A0B44E",
"q. c #AFA350",
"w. c #ACA850",
"e. c #A9AF50",
"r. c #ADAD51",
"t. c #B8A252",
"y. c #B5AA53",
"u. c #B0AD52",
"i. c #B3AC52",
"p. c #AAB050",
"a. c #C48852",
"s. c #C58952",
"d. c #C58C53",
"f. c #D78057",
"g. c #D88057",
"h. c #D88157",
"j. c #D98157",
"k. c #D98158",
"l. c #D98258",
"z. c #DA8258",
"x. c #DA8358",
"c. c #DB8358",
"v. c #DB8359",
"b. c #DC8159",
"n. c #DC8259",
"m. c #D98458",
"M. c #DB8459",
"N. c #DC8459",
"B. c #DC8559",
"V. c #DD865A",
"C. c #DD875A",
"Z. c #DE875A",
"A. c #D98959",
"S. c #DE885A",
"D. c #DF885B",
"F. c #DF895B",
"G. c #DC8B5A",
"H. c #DD8B5B",
"J. c #C79255",
"K. c #C99856",
"L. c #CE9A58",
"P. c #D29959",
"I. c #DC985D",
"U. c #E0875B",
"Y. c #E0895B",
"T. c #E08A5B",
"R. c #E08A5C",
"E. c #E18A5C",
"W. c #E18B5C",
"Q. c #E28A5C",
"!. c #E38A5C",
"~. c #E28B5C",
"^. c #E48B5D",
"/. c #E18C5C",
"(. c #E28C5C",
"). c #E28C5D",
"_. c #E38C5D",
"`. c #E38D5D",
"'. c #E38F5D",
"]. c #E48E5D",
"[. c #E48E5E",
"{. c #E48F5E",
"}. c #E58F5E",
"|. c #E68E5E",
" X c #E78E5E",
".X c #E88F5F",
"XX c #E5905E",
"oX c #E6905E",
"OX c #E6915E",
"+X c #E6915F",
"@X c #E7915F",
"#X c #E7925F",
"$X c #E4955F",
"%X c #E9905F",
"&X c #E8925F",
"*X c #E8935F",
"=X c #E19A5E",
"-X c #E5985F",
";X c #E5995F",
":X c #C1A355",
">X c #C7A358",
",X c #C9A358",
"<X c #CDA159",
"1X c #D3A05B",
"2X c #D3A15B",
"3X c #E99160",
"4X c #E89360",
"5X c #E99360",
"6X c #E99460",
"7X c #EA9460",
"8X c #EA9560",
"9X c #EA9561",
"0X c #EB9561",
"qX c #E99761",
"wX c #EB9661",
"eX c #EB9761",
"rX c #ED9561",
"tX c #EC9661",
"yX c #EC9761",
"uX c #ED9562",
"iX c #ED9662",
"pX c #EC9762",
"aX c #EC9862",
"sX c #ED9862",
"dX c #ED9962",
"fX c #EE9962",
"gX c #EF9863",
"hX c #EE9A63",
/* pixels */
"o r ) [.2Xe.4.4.e.4.4.e.,X7XtX7XaX7XaX7XaX7XaXaXaXqX) & x l.7XtXaX7XaXaX7XF.L E f o . 5 L r .   o o ",
"q e R b.K.p.4.4.8.8.4.4.>XtXtXaX7XaX7XaX7XaX7XaX7X!.o.L #.!.7XtX7XaX7XaX7X/.V.V.o.F F ) M.) F F 9   ",
",.:.` ' d.w.e.4.4.8.4.r.<X7XqX7XaX7XaX7XaX7XqX6X/.o.V.7X7XaXaXtXaX7XaX7XaX7XtXtX7X7X7X7XtX7XtX7XL - ",
"2.:XXX[.A.s.q.4.4.2.i.2XqXqXtXtX7XaX7XaX7XaXaX` x V.7XtXaX7XaX7X7XaX7XtX7XaXaXqXaXaXaXqXqXaXaXtXl.x ",
"-.L.aXaX.Xl.%.&.=.-.*.H.%XaXtXaXaXaXtXqX+XY.f.j f [.aXaX7XaX7XaX7XaX7XaX7XaX7XaXtX7X7XaX7XaXqXtX/.M.",
"L M.7XtXaX+Xb 7 Y ` Y ` F.7XtX7X7X7X7X+Xl.m < a o.+XaX7XaX7XaX7XaX7XaX7XaX7XaX7X7XaXaX7XaX7XaX7X7X3X",
"5 m b.3XaX7X) F !.!.!.!.+X7XaX/.l.h.) j 9 - o G [.7XtXtX7XaX7XaX7XaX7XaX7XaX7XaXaX7XaXtX7XaX7XaXtXaX",
". 0 s.P.I./.M.V.7XaXaXaXqXtXaX/.f.f.R a 5 - # ` aXaXqXtXaX7XaX7XaX7XaX7XaX7XaX7X7XaX7XaXaX7XaX7XaX7X",
"o w w.p.>.f./.7XtXaX7XaXaX7XaX7X3X7X3X+Xh.j - ) 7XaXaX7XaX7XaX7X7XaX7XaX7XaX7XaXaX7XaX7X7XaXtX7X7X7X",
"f $.2.0.t.H.+XqXtX7XaX7X7XaX7XaXqXaXqXaX+Xh.x l.aX7X7XaX7XaX7XaXaX7XaX7XaX7XaX7X7XaX7XaXaX7XaX7X/.M.",
"o.J.y.i.>XqXtX7X7XaX7XaXaX7XaX7XtXtX7XaXtX[.) V.aX7XaX7XaX7XaX7XaXtXaX7X7XaX7XaXaX7XaX7X7XaX7X+XM.o.",
"+X$X=X=XqX7XaXaXaX7XaX7X7XaX7XaXaX7XaX7XtX[.o.V.7XaX7XaXtXaX7XaX7XaX7XaXaX7XaX7X7XaX7XaX7XaX+Xo.F.%X",
"aXtXtXtXtXtXaX7X7XaXtX7XaX7XaX7X7XaX7XaXaX[.) V.7XaXaX7X7XaX7XaXaX7XaX7XaX7XaX7XaX7XaX7XaXaX+XF./.aX",
"aX7XaX7XtXtX7XaXaX7XaX7X7XaX7XaXaX7XaX7XtX[.o.V.aXaX7XtXaX7XaX7X7XaX7XaX7XaX7XaX7XaX7XaX7XaX7XaXaX7X",
"7XaX7XaXtX7XaX7X7XaX7XaXaX7XaX7X7XaX7XaXtX[.' F.aX7XqXtX7XaX7XaXaX7XaX7XaX7XaX7XaX7XaX7XaX7XaX7XqX7X",
"aX7XaX7X7XaX7XaXaX7XaX7X7XaX7XaXaX7XaX7XqX/.N ) /.7XaX7XaX7XaX7X7XaX7XaX7XaX7XaX7XaX7XaX7XaX7XaXtXtX",
"aX7XaX7XaX7XaX7X7XaX7XaX7XaX7XaX7XaX7XaXaXF.< a o.+XaX7XtXqXtXtX7XaX7XaX7XaXaX7XaX7XaX7XtXtX7X7XaX7X",
"7XaX7XaX7XaX7XaXaX7XaX7XaX7XaX7XaX7XaX7XaXV.< r o.+XaXaXaX7X7XtXaX7XaX7XaX7X7XaX7XaX7XaXqX7XaXaX7XaX",
"aX7XaX7XaX7XtX7X7XaX7XaX7XaX7XaXaX7XaX7X+Xf.< < N V././.7XaXaX7X7XaX7XaX7XaX7X7XtXtXaXaX7X+X[.7XaXaX",
"7XaX7XaX7XaXtXtXaX7XaX7XaX7XtX7X7XaX7X7XM.N - o 5 L ) ' /.aX7XaXaX7XaX7XaX7XaXtX7XtXqX7X7Xl.o.+X7X7X",
"aXqXaXaXqXtX7XqX7X7XaX7XaXtXaXaXaXaX+Xf.j 5 a f j G j y o./.tXaXaXaX7X7XtXtXtXtXaXaXaX+Xl.j 9 j ) l.",
"+X!.F./.3X7XaXaXaXaXaXaXqX7X+X/.+X7X+Xf.b j o.l.f.f.N 5 a R V./.[.[.+X+X7XaX7X+X/.F.V.h.E j r a L o.",
") x 5 L V.3X7X7X7X7X7X7X7X3Xl.) o.[.7X3X+X+X+X3X$X3XV.N 5 - 5 N ' ` ' #.3XqX3X#.x 5 , i T V.+X[.+X3X",
"V.) i 5 f L F ) M.V.M.V./.4X!.F.F.+XtXaXaXaXqXaXtXaX+XM.< < ) M.l.T F T L L F L L ) T o.F.3XaXaXaXtX",
"tX/.) r o o , f ) o.o.o.F.7XaX7X7XtXaX7XaX7XaX7X7XqXaX+Xj N 7XaX+Xf.) N 5 , i L F.aXaXaX7XaXaX7X7XtX",
"tX7X/.) i - ) [.+X+X[.+X7X7XaX7XaXaX7XaX7XaX7XaXtXtXqX+X) o.7XaX7X+Xl.L N o./.+X7X7XaX7XaXaX7XaX7XtX",
"tXaX7X/.N , l.aXaXaXaXaX7XaX7XaX7XaXaX7XaX7XaX7X7XaXaX6Xo.l.7XaXaX7Xl.) l.+XaXaX7X7X7XaX7XaXaX7XaX7X",
"7XtXaXaXf.9 l.aX7XaX7X7XtX7XaX7XaX7X7XaX7XaX7XaXaX7XaX3Xl.M.3X7XaX7XM.f.3X7X7XaX7XaXaX7XaX7X7XaX7XaX",
"tXtX7XaXV.L F.tXaXaX7XaX7XaXtXqX7XaX7XaXaX7XaX7XaX7XaX7X+XF.f./.7X7X3X+X7XaX7XaXaX7XaX7XaX7XaX7XaX7X",
"7XqXtXaX!.) M.[.7X7XaX7XaX7XtXtXaX7XaX7X7XaX7XaX7XaX7XaXaX!.) M.[.7XaXaXaX7XaX7X7XaX7XaX7XaX7XaX7XaX",
"aX7XtXaX!.) L #.7X7X7XaX7XaX7XaX7XaX7XaXaX7XaX7XaX7XaX7X7X!.L T l.7XaXaX7XaX7XaXaX7XaX7XaX7XaX7XaX7X",
"7XaXqX7X3X!.x m 4XaXaX7XaX7XaX7XaX7XaX7X7XaX7XaX7XaX7XtXtXl.i x o.7XaX7XaX7XaX7XtXaX7XaX7XaX7XaX7XaX",
"aX7XaX7XaX7Xj a +X7XaX7XaXtX7XaXaX7XaXtX7XaX7XaX7XaX7XaXaXo.- N F.7XaX7XaX7XaX7XaX7XaX7XaX7XaX7XaX7X",
"7XaX7XaXaX3Xj a +XaX7XaX7XaXaX7X7XaX7XaXaX7XaX7XaX7XaX7XtXo.< o.7X7X7XaX7XaX7XaX7XaX7XaX7XaX7XaX7XaX",
"aX7XaX7XaX3XT T +XaXtX7X7XaX7XaXaX7XaX7X7XaX7XaXtXqX7XaXaXV.N V.aX7XaX7XaX7XaX7XaX7XaX7X7XtXaX7XaX7X",
"7XaX7XaXaX3X#.#.7XqX7XaXaX7XaX7X7XaX7XaXaX7XaX7XtXtX7XaX7XY.o./.aXaX7XaX7XaX7XaX7XaX7XaXaXaX7XaX7XaX",
"aX7XaX7XaX7X#.#.7XaX7XaX7XaX7XaXaX7XaX7X7XaX7XaX7XaX7XaXaX!.) !.aX7XaX7XaX7XaX7X7XaX7XaX7XaX7XaXaX7X",
"7XaX7XaXaX7XL L 3XaXaX7XaX7XaX7X7XaX7XaXaX7XaX7XaX7XaXaXqXM.j V.aXaX7XaX7XaX7XaXaX7XaX7XaX7XaX7X7XaX",
"aX7XaX7XaX+Xj y /.7XtXtXaX7XqXtXaX7X7XaX7XaX7XaX7XaX7X7X7X) < f.aX7XaX7XaX7XaX7X7XaX7XaX7XaX7XaXaX7X",
"7XaX7XaXaX4Xj 5 ` +XaXqXaXtXtXaX7XaXaX7XaX7XaX7XaX7XaX7XV.x , h.aXaX7XaX7XaX7XaXaX7XaX7XaX7XaX7X7XaX",
"aX7XaXtXaX3Xx o a L o.V.Y.F.F.F.F.F./.7XaXaX7XaXaXaX+XV.N < - h.aXaX7XaX7XaX7XaX7XaX7XaX7XaX7XaXaX7X",
"7XaX7X7XqX+Xj . - o r L ' ' ) ` ) ) l.3X7X7X7X3X3X+XV.F <   < l.aX7XaX7XaX7XaX7XaX7XaX7XaX7X7XtX7XaX",
"aX7XtXaX+Xo.9 - f j F F.[././././.[.F.f.o.o.o.l.` b r , o - N !.aXtX7XaX7XaX7XaX7XaX7XaXaX7XaX7XaX7X",
"7XaXtX[.b.L i f h.l.V.7XaXtXaXaX7XaX+Xl.h.h.l.) N r r j j L l.F.+X7XaX7XaX7XaX7XaX7XaX7X7XaX7XaX7XaX",
"aX7X+Xl.R ) L o.+X7X7XaX7XtXtX7X7XaX7X7X7X7X7XV.) L l.%X7X7X+Xl.l.7XaX7X7XaX7XaXaX7XaX7XaX7XaX7XaX7X",
"aX+Xl.) o.!.!.[.7XaXaX7XtXqX7XaXaX7XtXaXqXaXtX+XV.) V.aXaXaX7X[./.7XaXaXaX7XaX7X7XaX7XaX7XaX7XaX7XaX",
"XXf.m ) Y.7XaXqXaX7X7XaXaX7XaX7X7XaX7XaXtX7X7XaX%XM.l.F.3XaXtXtX7X+X3X7X7XaXaX7XaX7XaX7XaX7XaX7XtX7X",
") j 5 M.7XtXtXaX7XaXtXaX7XaX7XaXaX7XaX7XaXtXaX7XqX3X) r F.aX7XtX/.o.!.aXaXaX7XaX7XaX7XaX7XaX7XaX7X7X",
"9 9 j /.aXtX7XaX7XaX7XaX7XaX7XaX7XaX7XaXtX7XaX7XqXaX) - f L F L L L Y.tX7XtXtXqX7XaX7XaX7XaX7XaX/.V.",
"o 9 ` +XaXqXaX7XaX7XaX7XaX7XaX7XaX7XaX7X7XaX7XaXaXaX) o . . . . , T !.tXtX7XtXtXaX7XaX7XaX7XaX7XV.T "
};
