/* XPM */
static char *FieldsTile_33[] = {
/* columns rows colors chars-per-pixel */
"50 50 210 2 ",
"   c #B25644",
".  c #B35644",
"X  c #B35744",
"o  c #B45744",
"O  c #B45844",
"+  c #B45845",
"@  c #B55945",
"#  c #B65A45",
"$  c #B65A46",
"%  c #B75B46",
"&  c #B75C46",
"*  c #B85C46",
"=  c #B85D47",
"-  c #B95D47",
";  c #B95E47",
":  c #BA5E47",
">  c #B06E47",
",  c #BB6048",
"<  c #BC6048",
"1  c #BC6149",
"2  c #BD6149",
"3  c #BD6249",
"4  c #BE6349",
"5  c #BE634A",
"6  c #BF644A",
"7  c #BF654A",
"8  c #BD6E4B",
"9  c #B9784B",
"0  c #C0624A",
"q  c #C0654B",
"w  c #C0664B",
"e  c #C1664B",
"r  c #C1674B",
"t  c #C2674C",
"y  c #C2684C",
"u  c #C3684C",
"i  c #C3694C",
"p  c #C3694D",
"a  c #C4694D",
"s  c #C46A4D",
"d  c #C56A4D",
"f  c #C56B4D",
"g  c #C76A4E",
"h  c #C66C4E",
"j  c #C66D4E",
"k  c #C76D4F",
"l  c #C76E4E",
"z  c #C76E4F",
"x  c #C86E4F",
"c  c #C86F4F",
"v  c #C96F4F",
"b  c #C9704F",
"n  c #C77550",
"m  c #CA7050",
"M  c #CA7150",
"N  c #CB7150",
"B  c #CB7250",
"V  c #CB7251",
"C  c #CD7051",
"Z  c #CC7251",
"A  c #CC7351",
"S  c #CD7351",
"D  c #CD7451",
"F  c #CD7452",
"G  c #CE7452",
"H  c #CE7552",
"J  c #CF7652",
"K  c #CF7653",
"L  c #D07753",
"P  c #D37754",
"I  c #D07853",
"U  c #D17853",
"Y  c #D17854",
"T  c #D17954",
"R  c #D27954",
"E  c #D37954",
"W  c #D27A54",
"Q  c #D37A54",
"!  c #D37B54",
"~  c #D37B55",
"^  c #D47B55",
"/  c #D47C55",
"(  c #D57C55",
")  c #D57D55",
"_  c #D57D56",
"`  c #D67D56",
"'  c #D67E56",
"]  c #D67F56",
"[  c #D77F56",
"{  c #D77F57",
"}  c #AB9E4D",
"|  c #BB8D50",
" . c #BA9150",
".. c #B99551",
"X. c #BA9C52",
"o. c #BA9F52",
"O. c #A8A64E",
"+. c #A7A84E",
"@. c #A7A94E",
"#. c #A7AE4F",
"$. c #A8AB4F",
"%. c #A3B24E",
"&. c #A4B14E",
"*. c #A6B04F",
"=. c #A4B34F",
"-. c #A6B34F",
";. c #A2B54F",
":. c #B2A751",
">. c #B5A752",
",. c #BEA255",
"<. c #BFA756",
"1. c #B7AB54",
"2. c #BBA855",
"3. c #A8B050",
"4. c #CA8754",
"5. c #D38055",
"6. c #D78057",
"7. c #D78157",
"8. c #D28756",
"9. c #D88057",
"0. c #D88157",
"q. c #D98157",
"w. c #D98158",
"e. c #D98258",
"r. c #DA8258",
"t. c #DA8358",
"y. c #DB8358",
"u. c #DB8359",
"i. c #D98558",
"p. c #DB8459",
"a. c #DC8459",
"s. c #DD8459",
"d. c #DC8559",
"f. c #DD865A",
"g. c #DE875A",
"h. c #D48D58",
"j. c #DE885A",
"k. c #DF885B",
"l. c #C29C55",
"z. c #DC915B",
"x. c #D49F5B",
"c. c #DA9B5C",
"v. c #DF985D",
"b. c #E2875B",
"n. c #E0895B",
"m. c #E08A5B",
"M. c #E08A5C",
"N. c #E18A5C",
"B. c #E18B5C",
"V. c #E28B5C",
"C. c #E38B5D",
"Z. c #E28C5C",
"A. c #E28C5D",
"S. c #E38C5D",
"D. c #E38D5D",
"F. c #E58C5D",
"G. c #E48E5D",
"H. c #E58D5E",
"J. c #E48E5E",
"K. c #E48F5E",
"L. c #E58F5E",
"P. c #E78E5E",
"I. c #E68F5E",
"U. c #E78F5E",
"Y. c #E3925E",
"T. c #E5905E",
"R. c #E6905E",
"E. c #E6905F",
"W. c #E6915F",
"Q. c #E7915F",
"!. c #E7925F",
"~. c #E8925F",
"^. c #E8935F",
"/. c #E19B5E",
"(. c #E5985F",
"). c #E4995F",
"_. c #C4A256",
"`. c #C0A756",
"'. c #D2A15B",
"]. c #E89360",
"[. c #E99360",
"{. c #EA9360",
"}. c #E89460",
"|. c #E99460",
" X c #E89560",
".X c #EA9460",
"XX c #EA9560",
"oX c #EA9561",
"OX c #EB9561",
"+X c #E89760",
"@X c #E99761",
"#X c #EA9661",
"$X c #EB9661",
"%X c #EA9761",
"&X c #EB9761",
"*X c #EC9561",
"=X c #ED9561",
"-X c #EC9661",
";X c #ED9661",
":X c #EC9761",
">X c #ED9562",
",X c #EC9762",
"<X c #ED9762",
"1X c #E69860",
"2X c #E99961",
"3X c #EC9862",
"4X c #ED9862",
"5X c #ED9962",
"6X c #EE9962",
"7X c #EE9963",
/* pixels */
"O D OX:XOXOX:XOXOX3XOX3XOXOXOX3XOX3XOXOX3XOXOXOX3XOX~ & j r.OXOX:XOXOX:XOXa.L L d O O e A 0 > O.3.*.",
"e ~ OX:XOX:X:XOXOXOXOXOX3XOXOXOXOXOX3XOXOXOXOX3XOX3X7.d / D.OX:XOX:X:XOX:XJ.a.p./ A d d A g 9 $.*.*.",
"D p.OXOXOXOXOX:XOX3XOXOXOX3XOX3XOXOXOXOX3XOX3XOXOX3Xa.! J.:XOXOXOXOX:XOX:XOXOXOX:X^.r.L D ^ 4.:.3.*.",
"~ a.OX:X:X:XOXOXOXOX3XOXOXOXOXOX3XOX3XOXOXOXOXOX3XOXk.! J.3X:XOX:XOXOX:XOX:X:X:X:X:X^.a.~ r.Q.c.2.%.",
"~ a.OXOXOXOX:XOXOX3XOX3XOXOXOXOXOXOXOX3XOXOX3XOXOXOXD.a.Q.OXOX:XOX:XOXOXOXOX:XOXOX:X:XJ.a.J.:X>Xx.`.",
"D p.OX:X:XOXOX:XOX3XOXOXOX3XOX3X3XOXOXOXOX3XOXOXOXOXOXOXOXOXOXOXOX:X:XOX:X:XOXOXOXOXOXOXOX:X>X:XOX1X",
"3 ~ OX3X:XOXOX:XOXOXOXOX3XOXOXOXOX3XOX3XOXOXOX3X^.a.B.OX:X:X:XOXOXOXOXOXOXOXOX:X:X:XOX:X:X:X:X:XOX:X",
". c J.OXOXOX:XOXOX3XOX3XOXOXOX3XOXOXOXOXOX3XOX3XQ./ a.OXOXOX:XOX:XOX:X:XOX:X:XOXOXOX:X:X:XP.J.:X:X:X",
"O e / J.3XOXOX:XOXOXOX:XOXOX3XOX:XOXOXOXOX:X:X:XQ.~ p.OXOXOXOX:XOXOX:XOXOX:X:XOXOXOXOXOX+Xp.7.Q.OXOX",
"d e d B.3XOX:XOXOX:X:XOXOX3XOXOXOXOX:X:XOX:X:XJ./ d / OX3XOX:XOX:XOXOX:XOXOXOXOXOXOXm.h._.o.| m ^ r.",
"/ c 6 r.OXOX3XOXOXOXOXOXOXOXOXOX:XOX:XOX:XOXQ.{ d = m Q.OXOXOXOXOX:XOX:X:XOXOX:X:XOX8. .#.;.O.8 A / ",
"[.p.D U a.OX:X3X:X:XOX:XOX3XOXOXOX:XOX:X:XJ./ j = O a / Q.3XOX:XOX:XOXOXOX:X:XOX:X(.,.@.*.%.:.z.P.Q.",
"3XQ.a.~ A L D.3X3X3X3X3X3XOXOX3XOXm.B.OX:X^.a./ m = 3 ~ J.OXOXOX:XOX:X:X:XOXOX:X:X(.1.+...l.'.3X:X:X",
"OX:XOXr.m e / J.D.J.J.Q.Q.^.OXOX[.r.r.[.:XOX:X3XD.d t ~ D.OXOXOXOXOXOXOXOXOX:XOX>X(.`.X./ B.3XOX:X:X",
":X:XOXQ.D.a.m e e 6 d ~ / r.Q.3XOXQ.Q.OXOX:X:X:XOXB.7.L / a.OX3XOX:X:XOXOX:X:XOX:XOX/.v.Q.[.:XOX:XOX",
"OXOX:X:X3XOXj O 3 3 a / p.a.Q.3XOX:X:X:XOX:XOXOX:X:XJ.r.~ q.OX3XOX:XOXOX:XOXOX:X:X[.F.J.:X3XOX:X:X>X",
"OX:X:XOX:XQ.j 3 D U / Q.OXOX:XOXOX:XOXOX:XOX:X:XOX:X:XQ.q.r.^.OX:XOX:X:XOXOXOXOX:X[.{ r.OXOXOXOXOXOX",
":XOXOXOX:X[.~ c L a.Q.OX:X:XOXOX:XOXOX:XOXOXOXOXOXOX:XOXJ.k.r.J.:XOXOXOXOX:X:XOX3XOX/ q.OXOXOXOXOX3X",
"OXOXOX:X:XOXr.~ r.J.:X:X:XOXOX:X:XOX:XOXOX:X:XOX:X:XOX:X3Xa.m r.Q.OX3XOX:XOX:XOXOXB.D U B.OX3X3X3X3X",
"OX:X:XOXOX[.q.q.Q.OX:XOX:XOXOX:XOXOX:XOX:XOXOXOXOXOX:XOX3Xq.: j 7.Q.OXOXOXOXOXOXm.D 3 6 L m.OXOXOXOX",
":X:X3X3XQ.a.a.J.OX:XOXOXOX:XOXOX:XOXOXOX:XOXOX:XOXOXOX:X3X/ = : a j j m / r.r.r.D 3 O O 3 a A / r.p.",
"J.B.k.a./ ~ D.3XOX:XOX:X:XOXOX:X:XOX:XOXOX:X:XOX:X:XOX:X3Xq.= . O : 6 j / 7./ / D a e a a e j / / / ",
"/ m 3 , a L D.:X:XOX:XOX:XOXOX:XOXOX:X:XOXOX:XOXOXOX:XOX:X7.= . 3 D p.Q.[.[.Q.OXQ.J.J.Q.J.J.Q.Q.Q.[.",
"k.r.D d 6 d a.3XOXOX:XOXOXOX:XOX:XOXOXOX:XOXOX:XOX:X3X[./ j d D / k.Q.3X3X:X3X3X:X3X3X3X:X3X:X:X3X3X",
"OX3XOXp.c 6 p.3XOXOX:X:XOX:X:XOX:XOXOX:XOX:XOXOX:XOXOXB.d e / Q.3XOXOXOXOX3XOXOXOXOXOXOXOXOXOXOXOXOX",
"OX:XOX[.r.D m.3XOXOXOXOXOXOXOX:XOXOX:XOXOXOX:X:X:X:XB.^ A ^ J.OX3XOX3XOXOXOX3XOX3XOX3XOX3XOX3XOXOXOX",
":X:XOX3XQ.a.a.D.OXOXOXOX:XOXOXOXOX:X:XOX:XOX:X:XOXB.L d / J.:X:X3XOX3XOXOXOXOXOXOXOXOX3XOXOXOX3X3XOX",
"OXOX:XOX:XOXr.r.OX:X:X:XOX:X:XOX:XOXOXOX:XOX^.OXJ.^ d e m.3XOXOXOXOXOXOX3XOX3XOX3XOXOXOX3XOXOXOXOXOX",
":XOXOX:XOXOXQ.Q.OX:XOXOX:XOXOXOXOX:X:XOX:XQ.q./ / L / k.^.:XOX:X3XOXOXOXOXOXOXOXOX3XOXOXOX3XOX3XOXOX",
"OXOX:XOXOX:X:X[.D.[.:X:XOXOX:X:XOXD.D.OX:XQ.r.~ U q.J.3X:XOX:XOXOXOXOX3X3XOX3XOXOXOX3XOXOXOXOXOXOX3X",
":XOX:XOXOXOX:XD./ a.OXOX:XOX:X:X[.q.r.OX:XOXOXr./ J.:XOXOX:XOXOX3XOX3XOXOXOXOX3XOXOXOXOXOX3XOXOX3XOX",
":XOXOXOX:XOX:XD.~ / a.OX3X:X:X:XOXJ.J.OX:X:XOXa.^ Q.3XOX:XOXOX:XOXOXOXOXOX3XOXOX3XOX3XOXOX3XOX3XOXOX",
"OXOX:XOX:XOX3XD.~ c D m.J.D.D.D.J.[.:X:XOX:XOXB.r.Q.:XOX:XOXOX:XOXOXOX:XOX:XOXOX:XOXOXOX:XOXOX:XOXOX",
"OX:X:XOXOXOX3XJ.~ 6 3 D ~ ~ L ~ ^ D.:XOXOXOXOXOXOXOX:XOXOX:X:XOXOX:X:XOXOX:XOX:X:XOX:XOXOX:XOXOXOX3X",
"OXOXOX:XOX:X3XQ.~ 3 O , 3 e m D ~ D.3X3X3X[.a.J.:X:XOX:XOXOX:XOXOXOXOXOX:XOXOX:XOXOX:X:XOX:X:XOXOXOX",
":X:XOXOXOXOX[.a.m a e e 3 d ~ / 7.B.J.k.J.k.D a.:X:XOXOX:XOXOX:X:X:XOX:XOXOX:XOX:XOXOXOX:XOXOX:XOX3X",
"OX:X:XOX:XOXa.m 3 U J.J.J.J.Q.^.J.r.m 6 m D 3 ! OX:X:XOX:XOXOXOXOXOXOX:XOX:X:XOXOX:XOXOXOXOXOX:XOXOX",
"OXOXOX:XOXOXq.D L B.3X3X:X3X:X:XOXD.~ a e 6 O ~ :X:XOXOX:XOX:XOXOX:XOX:XOXOXOXOXOXOX:X:XOX:X:XOXOX3X",
":XOXOXOXOXOXp.r.[.:X:XOXOX:X:XOXOX3XJ.! a O O ! :X:XOX:XOXOX:X:X:X:XOXOX:XOXOX:X:XOX:XOXOXOXOXOXOXOX",
"OX:X:XOX:XOXQ.Q.OXOXOX:XOXOX:XOXOXOXOXQ./ d = ~ :X:XOXOX:XOXOXOXOXOX:XOXOX:X:XOX:XOXOXOX:X:XOX:XOX3X",
":XOXOXOXQ.B.^.3X:XOXOXOX:XOXOX:X:XOX3X3XD./ d D B.OX:X:X:XOXOX:XOX:X:XOXOX:XOXOXOX:X:XOXOX:XOXOXOXOX",
"OXOX:X:XB./ D.:X:XOX:XOXOX:X:XOXOXOXOXOXOXJ./ U / Q.3XOXOXOX:XOXOXOXOX:XOXOX:X:XOXOXOX:X:XOXOX:XOX3X",
":XOXOX:X[.D.[.OXOXOX:XOXOX:XOXOXOX:X:XOX3XOXJ./ / Q.3XOX:XOX:XOX:XOXOXOX:XOX:XOX:XOXOXOX:XOXOX:XOXOX",
"OX:XOXJ.Q.OX:XOX:XOXOX:X:XOXOX:X:XOXOX:XOXOX3XB.r.m.Q.3X3XOXOXOXOX:X:XOX:XOXOXOXOX:X:XOXOXOX:XOXOX3X",
":X:XQ.q.r.OX:XOXOX:XOXOXOXOX:XOX:XOXOXOXOXOXOXOXJ./ a.OXOXOXOX:XOXOX3XOX:XOXOX:X:XOXOX:X:X:XOXOXOXOX",
":XJ.r.L q.OX:XOXOXOX:X:XOX:X:XOXOX:X:XOX:X:XOX3XQ.^ m D J.3X3XOX:XOXOXOXOXOX:XOXOX:XOXOXOXOXOX:X:XOX",
"J.q.m ~ k.OX:X:X:XOXOXOXOXOXOXOXOXOXOXOXOX:X:X3X^.r.d = ~ B.J.OX3X3X3XOXOX:X:XOXOX:XOX:XOX:X:XOX3XOX",
"~ j 3 p.OXOXOXOXOX:X:XOX:X:XOX:X:XOX:X:XOXOXOXOXOX[.~ O = a ~ J.OXOXOXOX:XOXOX:XOXOXOX:XOXOX:XOXOX3X",
"e e c B.3XOXOX:X:XOXOX:XOXOXOX:XOXOXOX:XOXOX:XOX:X:X~ O O = e c ~ p.J.OXOXOXOXOX3XOXOXOXOXOXOXOXD.a.",
"O 6 ~ J.:X:XOXOXOX:X:XOXOX:X:XOXOX:XOX:XOX:X:XOX:X:X~ O O O O O 3 D B.OXOX3XOX3XOXOXOX3XOX3X3XOXa.D "
};
