/* XPM */
static char *FieldsTile_16[] = {
/* columns rows colors chars-per-pixel */
"50 50 61 1 ",
"  c #B35744",
". c #B55945",
"X c #B95D47",
"o c #BA5F48",
"O c #B36446",
"+ c #B06E47",
"@ c #BD6149",
"# c #BF684B",
"$ c #B37749",
"% c #B8784B",
"& c #C1664B",
"* c #C56B4D",
"= c #C96F4F",
"- c #C1784E",
"; c #CB6F50",
": c #CD7351",
"> c #CA7851",
", c #D07753",
"< c #D47B55",
"1 c #D97E57",
"2 c #AD8349",
"3 c #B2864C",
"4 c #B2944E",
"5 c #BD8F51",
"6 c #B99551",
"7 c #B49C50",
"8 c #BF9E54",
"9 c #AAA54F",
"0 c #A6AD4E",
"q c #A8AB4F",
"w c #A4B24F",
"e c #AFA450",
"r c #ADAB50",
"t c #B1A450",
"y c #BDA454",
"u c #B5A953",
"i c #BBA854",
"p c #CC8354",
"a c #C48D53",
"s c #D58156",
"d c #D88057",
"f c #D28957",
"g c #D78658",
"h c #DC8459",
"j c #DE895B",
"k c #C49A55",
"l c #C99D57",
"z c #DF935C",
"x c #D59E5B",
"c c #DA9C5D",
"v c #E38D5D",
"b c #E88F5F",
"n c #E6915F",
"m c #E8925F",
"M c #E4995F",
"N c #C3A356",
"B c #C2A857",
"V c #D2A05B",
"C c #E79660",
"Z c #EB9661",
"A c #ED9862",
/* pixels */
" :ZZZZZZZZZZZZZZZZZZZZZZZZ<X*hZZZZZAZv;o   &:&+9ww",
"&<ZAZZZZZZZZZZZZZZZZZZZZZAd*<vZZZZZZZvh,&X*<1;%9w0",
",hZZZZZZZZZZZZZZZZZZZAZZZZh,vZZZZZZZZZZZ<&hZChp90w",
",hZZZZZZZZZZZZZZZZZZZZZZZZ<*jAZZZZZZZZZZh:vZZnjp7w",
",hZZZZZZZZZZZZZZZZZZZZZZZA,@hAAZZZZZZZZZv<vAZAbva7",
":hZZZZZZZZZZZZZZZZZZZZZZZA,@hAZZZZZZZZZZh<vZZZZZg<",
"@<ZZZZZZZZZZZZZZZZZZZZZZAZ:@hAZZZZZZZZZAv<vZZZZZCv",
" :ZZZZZZZZZZZZZZZZZZZZZZZZ<*jAZZZZZZZZZZh:hvZZAZCv",
" :AAZZZZZZZZZZZZZZZZZZZZZAh<vZZZZZZZZZZA<o=hMAAZv<",
"*<ZAZZZZZZZZZZZZZZZZZZZZZAj<vAZZZZZZZZZZ<XX%kBlg*@",
"dhnZZZZZZZZZZZZZZZZZZZZZZnhdnAZZZZZZZZZZ1@O20wtp;&",
"mj<vAZZZZZZZZZZZZZZZZZZZndhnZZZZZZZZZZZZh>40wwuzbv",
"Aj<vZZZZZZZZZZZZZZZZZZZZn<hZZZZZZZZZZZZZbju06kVCZZ",
"Ah<vZZZZZZZZZZZZZZZZZZZCv<hZZZZZZZZZZZZZZZy7<vAAZZ",
"Zj<vAZZZZZZZZZZZZZZZZZZv<<jZZZZZZZZZZZZZZCfpvZZZZZ",
"Zj<hvZZZZZZZZZZZZZZZZZZh:*<ZZZZZZZZZZZZZZC1hZAZZZZ",
"Zv<,hZZZZZZZZZZZZZZZZZZh=X:CZZZZZZZZZZZZZC1<nZZZZZ",
"Znv<hZZZZZZZZZZZZZZZZZZ<X &hbZZZZZZZZZZZAC;&dnZZZZ",
"Zmv<1ZAZZZZZZZZZZZZZZZv<***;hCZZZZZZZZZZv<&X*1vZZZ",
"Zh,:hmZZZZZZZZZZZZZZAn<hCC<o;hZZZZZZZZZZ1oX o*hbZZ",
"h:&:<hvZZZZZZZZZZZZZZb<hAZv<&,ZAZZAZZvh1<& o*:,1hh",
":*&:11vZZZZZZZZZZZZCCh:1mZAb**hvvhhvh<,<h<=;<<11<1",
"::,vZCZZZZZZZZZZZZZmh;o*1CZC<*ooo@oo@*<vCCbbZCCCmm",
"vh<nAZZZAAZZZZZZZACv<,<1vCvh<:&X  o*:hvZZZZZZAZZZZ",
"Zh:hnZAZCCZZZZZZZvh:,hZZZZv<<<:o o;hCZZZZZZZZZZZZZ",
"Z<o@:ZAv<vZZAZZZm:Xo<CZZZZCbbv,oo;hCZZZZZZZZZZZZZZ",
"Zj:X@,hh,1h<<<,1h*&:vZZZZZZZZbh&&1CAZZZZZZZZZZZZZZ",
"ZAv& X:<<<,@.XX&<<hZZZZZZZZZZAC**bAZZZZZZZZZZZZZZZ",
"ZAn&X:hvbvv:@X*<vvCZZZZZZZZZZAZ<,CZZZZZZZZZZZZZZZZ",
"ZZn:*hnAZAv<*&<vZZZZZZZZZZZZZZZ11CZZZZZZZZZZZZZZZZ",
"ZAn<dZZZZZm<,<vZZZZZZZZZZZZZZZC11CZZZZZZZZZZZZZZZZ",
"ZZZvnAZZZZCv1<bAZZZZZZZZZZZZZZZ11CZZZZZZZZZZZZZZZZ",
"ZZZZnvCZZZZZvhbZZZZZZZZZZZZZZZZ<<CZZZZZZZZZZZZZZZZ",
"ZZZZv<vZZZZZZCZZZZZZZZZZZZZZZZC*&bAZZZZZZZZZZZZZZZ",
"ZZZAv<vAZZZZZZZZZZZZZZZZZZZZZZC*&bAZZZZZZZZZZZZZZZ",
"ZZZZv<hvvCZZZZZZZZZZZZZZZZZZZCv*;bAZZZZZZZZZZZZZZZ",
"ZZZZv<<<<vZZZZZZZZZZZZZZZZZZAv<:<CZZZZZZZZZZZZZZZZ",
"ZZZAh**<hbZZZZZZZZZZZZZZZZZZZv<dvZZZZZZZZZZZZZZZZZ",
"ZZZA<@:hCZZZZZZZZZZZZZZZZZZZZj:jZZZZZZZZZZZZZZZZZZ",
"ZZZAj:hnZZZZZZZZZZZZZZZZZZZZZd*hZZZZZZZZZZZZZZZZZZ",
"ZZbh<<vZZZZZZZZZZZZZZZZZZZZZA<odAZZZZZZZZZZZZZZZZZ",
"ZAv&&<vZZZZZZZZZZZZZZZZZZZZZZ<odAZZZZZZZZZZZZZZZZZ",
"ZAv&&vZZZZZZZZZZZZZZZZZZZZZZj=XdAZZZZZZZZZZZZZZZZZ",
"ZZv*:CAZZZZZZZZZZZZZZZZZZZZnh*&hAZZZZZZZAZbzcxcZZZ",
"Zv,:1ZZZZZZZZZZZZZZZZZZZZZZm<:<vAZZZZZZZZC1arwiMZZ",
"A1&hCZZZZZZZZZZZZZZZZZZZZZAn=:vnZZZZZZZZZCk90wuMZZ",
"h:ohAZZZZZZZZZZZZZZZZZZZZZZh@=ZAZZZAZZZZZviw09yMZZ",
"@ ovZZZZZZZZZZZZZZZZZZZZZZv,o=CAZZZZZZZZv>tw06dnAZ",
" o:vZZZZZZZZZZZZZZZZZZZZZZh@ &:::::,hvZv,&$3afvZcN",
" &<vZZZZZZZZZZZZZZZZZZZZZZ<   X    @:hC<*  @:vZANw"
};
