/* XPM */
static char *FieldsTile_51[] = {
/* columns rows colors chars-per-pixel */
"50 50 78 1 ",
"  c #B45744",
". c #B55945",
"X c #B95D47",
"o c #BB5F48",
"O c #BD6249",
"+ c #BF684B",
"@ c #AE7447",
"# c #AF7548",
"$ c #B07147",
"% c #B17549",
"& c #B77A4B",
"* c #BC784D",
"= c #C1664B",
"- c #C56B4E",
"; c #C96F4F",
": c #C1754E",
"> c #C9704F",
", c #CD7451",
"< c #C57950",
"1 c #CC7B52",
"2 c #D07753",
"3 c #D47B55",
"4 c #D97F57",
"5 c #AF864B",
"6 c #AD8C4B",
"7 c #B2864C",
"8 c #B9854E",
"9 c #BA894F",
"0 c #A7994C",
"q c #B2914E",
"w c #BE8E51",
"e c #B69650",
"r c #BB9351",
"t c #B49C50",
"y c #BA9A52",
"u c #A5A44D",
"i c #ABA64F",
"p c #A7AD4F",
"a c #A9AB4F",
"s c #A5B14F",
"d c #AEA550",
"f c #ACAD50",
"g c #BCA554",
"h c #B4AB53",
"j c #BBA854",
"k c #AAB051",
"l c #C58552",
"z c #CC8354",
"x c #C38C52",
"c c #CD8955",
"v c #D48356",
"b c #D88057",
"n c #D18C57",
"m c #DB8459",
"M c #D58A58",
"N c #DE895B",
"B c #C59354",
"V c #CC9757",
"C c #C49A55",
"Z c #CE9A58",
"A c #D29759",
"S c #DC945C",
"D c #D49E5B",
"F c #DA9C5D",
"G c #E0855B",
"H c #E38D5D",
"J c #E98F5F",
"K c #E6915F",
"L c #E8925F",
"P c #E2995F",
"I c #C2A356",
"U c #C7A458",
"Y c #CBA359",
"T c #D2A05B",
"R c #E79760",
"E c #EB9661",
"W c #E69960",
"Q c #ED9862",
/* pixels */
"ssalmEEEEm22rsssssksssspsspsst1tsssssssssspkssssfs",
"sde13NAYYCl1ltpssssspsssssitIVMxtpsssspssssspsssss",
"sy3331tkssdl2ztpssspskpskar4JEEmxassssksssssssssss",
"sIHHG1dssspiVHzessssssssawvJEEEJAfssspsssspsssssss",
"tVEEJb90psssUEGcIksssssir4JEEEEETfsssspsssspkssstt",
",mEEEJ-%dkkkYEEEPjpappar4JEEEEEEFfsssssssfssssspr3",
"O;mEEE21ATDFFEEH4l8$@@%1HEQEEEEEFkssspsssspsssaxMH",
"$*lMJHmNEEEQEEEH443-OX.3EEEEEEEEFtasssssssssshCvJE",
"ipal33HEEEEEEEEELELKb-O2EEEEEEEQJzesssspssssaTPLLE",
"ssal3NJEEEEEEEEEEEEEKm-bEEEEEEEELGcepsssssshYPQEHb",
"hfawMEEEEEEEEEEEEEEEEJ4mEEEEEEEEEEGvghhhhhhUEELKb4",
"PUpaIEQEEEEEEEEEEEEEEH2NEEEEEEEEEELLPPPFPFPLEEKbNL",
"EPYUTEEEEEEEEEEEEEEEEK3NEEEEEEEEEEQEEQQQQEEEEELNJE",
"EEEEEEEEEEEEEEEEEEEEEH3NEEEEEEEEEEEEEEEEEEEEEEEEEL",
"EEEEEEEEEEEEEEEEEEEEEH3GQEEEEEEEEEEEEEEEEEEEEEEEEE",
"EEEEEEEEEEEEEEEEEEEEEKBCTWEEEEEEEEEEEEEEEEEEEEEEEE",
"EEEEEEEEEEEEEEEEEEEEQFhshFEEEEEEEEEEEEEEEEEEEEEEEE",
"EEEEEEEEEEEEEEEEEEEEQTfsdzGEEEEEEEELEEEEEEEEEEEEEE",
"EEEEEEEEEEEEEEEEEEEEKMqufrnJEEEEEEEEEEEEEEEEEKKEQQ",
"EEEEEEEEEEEEEEEEEEEWv>O5sfr2HEEEEEEEEEEEEEEELb4KEE",
"QQQEEEEEEEEEEEEQEEKb-O-qss6=2JEEEEEEEEEEQQQLm-O-2b",
"KNMKLEEEEEEEEEKHKEHb;;4Chh8O-2mHHJKKEQEKHMGb,;==,4",
"4;=,mLEEEEEEEKm24HELKKKRPWM,OXO,422bLEKb>OO=2NKJKK",
"N2=O-,,3mNmmHENNNKEEEQEEEQKmOO2mN2,,,,,,2213NLQEQQ",
"EH2+X  O>,23NEEEEEEEEEEEEEQK>,HKN222=O=1NEEEEEEEEE",
"EEK2OX  O-4HREEEEEEEEEEEEEEEKm3--,NKHGHKEEEEEEEEEE",
"EEEG2=XXO2GEEEEEEEEEEEEEEEEEQLbOObKQQQQEEEEEEEEEEE",
"EEEEJ1OO,HEEEEEEEEEEEEEEEEEEEEE--KQEEEEEEEEEEEEEEE",
"EEEELH=O2HEEEEWEEEEEEEEEEEEEEEE32EQEEEEEEEEEEEEEEE",
"EEEEEE,=1NEEEEEEEEEEEEEEEEEEEEEbbLEEEEEEEEEEEEEEEE",
"EEEEQKb,3NEEEEEEEEEEEEEEEEEEEELbbEEEEEEEEEEEEEEEEE",
"EEEEEEm,2NEEEEEEEEEEEEEEEEEEEEEbvLEEEEEEEEEEEEEEEE",
"EEEEEE424JEEEEEEEEEEEEEQEEEEEEP22LQQEEEEEEEEEEEEEE",
"EEEEEE43JEEEEEEEEEEEEEEEEEEEEQE--LQEEEEEEEEEEEEEEE",
"EEEEEE,>KEEEEEEEEEEEEEEEEEEEEQL-=KQEEEEEEEEEEEEEEE",
"EEEEEH:*AWEEEEEEEEEEEEEEEEEEELH--KQEEEEEEEEEEEEEEE",
"EEEQH3ephDEEEEEEEEEEEEEEEEEEEK4,4LEEEEEEEWEEEEEEEE",
"EEEESepssYEEEEEEEEEEEEEEEEEEEN2bHEEEEEEEEEEEEEEEEE",
"EEEETkspdVLEQEEEEEEEEEEEWEEEEG2HEEEEEEEEEEEEEEEEEE",
"EEEQTssilvmEQEEEEEEEEEEEEEEEEv=mQEEEEEEEEEEEEEEEEE",
"EEEHnegZm,-mKQEEEEEEEEEEEEEEE4ObQEEEEEEEEEEEEEEEEE",
"EEK41vNEK,O,NKEEEEEEEEEEEEEEE3XbQEEEEEEEEEEEEEEEEE",
"EEK44HEJb,-O>mEEQEEEEEEEEEEEM;XbQEEEEEEEEEEEEEEEEE",
"EQK44EEJbb4->,4bbNKEQEEEEEEL4;+mQEEEEEEEEEKSDTFEEE",
"EEJ4bEEEEEELN,OOO>bKLLLEEEEKv,2HQEEEEEEEQLbxdsjPEE",
"mmmNKEEEEEEQKNb442,>-,bbNKQK>>GEEEEEEEEEQLCisshPEE",
"l<,HEKPFFFFEQEEEEN,-=-43mKEGO>EQEEQEEEEEEShssiIPQE",
"a5ONH3yfffjPEEEEELKHKKLLLEH,O>LEEEEEEEEEG3tsprbLEL",
"sq-4ntissspjFEEEEEEQQQQEQEbOXO,,1,>1bKLG,+%7rMHEDU",
"se,2xpssssssYEEEEEEEEEEEEE3X       O,GLb-..O2GQEUs"
};
