/* XPM */
static char *FieldsTile_08[] = {
/* columns rows colors chars-per-pixel */
"50 50 84 1 ",
"  c #B55945",
". c #B95D47",
"X c #BB5E48",
"o c #B66247",
"O c #BD6249",
"+ c #B96C4A",
"@ c #AF7548",
"# c #B07147",
"$ c #B07448",
"% c #BB724B",
"& c #B77A4C",
"* c #C1664B",
"= c #C56B4D",
"- c #C86D4F",
"; c #C4704E",
": c #C9704F",
"> c #CC7351",
", c #C57B50",
"< c #CD7C53",
"1 c #D17653",
"2 c #D47B55",
"3 c #DD7F58",
"4 c #AE864A",
"5 c #AB8B4A",
"6 c #BC824E",
"7 c #B18D4D",
"8 c #BA894F",
"9 c #AD924C",
"0 c #A7984B",
"q c #A9994C",
"w c #B1934E",
"e c #B29A4F",
"r c #BE8C51",
"t c #B79650",
"y c #BA9451",
"u c #B39D50",
"i c #BA9952",
"p c #A6A54D",
"a c #ABA54F",
"s c #A7AE4F",
"d c #A9AC4F",
"f c #A5B04F",
"g c #AFA450",
"h c #ABAD50",
"j c #B3A251",
"k c #BDA655",
"l c #B4AB53",
"z c #BAA854",
"x c #A5B550",
"c c #AAB151",
"v c #C58652",
"b c #CA8754",
"n c #C38B52",
"m c #CC8C55",
"M c #D58257",
"N c #D88157",
"B c #D08B56",
"V c #DB8459",
"C c #D78C59",
"Z c #DD8A5A",
"A c #C29253",
"S c #CB9356",
"D c #C29D55",
"F c #CA9B57",
"G c #CE9C59",
"H c #D29258",
"J c #DB955C",
"K c #D39F5B",
"L c #DB9C5D",
"P c #E1875B",
"I c #E38C5D",
"U c #E88D5E",
"Y c #E6925F",
"T c #E8925F",
"R c #E3995F",
"E c #C4A457",
"W c #C7A458",
"Q c #CCA259",
"! c #D0A05A",
"~ c #E79760",
"^ c #EB9661",
"/ c #E69960",
"( c #ED9862",
") c #F09462",
/* pixels */
"ffffffffffffcffcfffffffsfffffscfsffffsfffffffffscf",
"fgttjffsfxfffsffsfsffffffffsfffffffffcfffszWWQzfff",
"ft22ngffffffffffscfffcfffcfffffsfffffsffflL^^^Llff",
"fEIUCngffffffffsfffffffffsffffffcsffffffzL^^^^^Lkf",
"uG(^TN89etttgffffffxje5affffscffffffffczK^L!!/^^Ef",
">N^^^T;O<2<<tffsdsspr-O4fcffffsffffssflL^YzfhQ^^Wf",
"*-VT^^2>PIJigffjnb6@+X +ydfffxfffffaySJ(UMjfchQ/Wf",
"#&vZUIVZ^RQcfffuvv,=O. -MEjujjqjjklkNP^^CngxfflRWf",
"asab22I^^WdsfffspskY3-.1R~Zb<2<<MY//~^^^GdffffzYWf",
"ffhHPZ^^^kffffffffz/UN-3^^UPPPPPI^(^^^^^QfffsumREf",
"lhhQR^^^^QllhffffcW^^I2Z^^^^(^^^(^^^^^^^!lcfsA3UEf",
"RWccW^^^^RRLEsfshQR^^Y2Z^^^^^^^^^^^^^^^^^LlfhGINtf",
"^LQWK^^^^^^^LQQWQ/^^(I2Z^^^^^^^^^^^^^^^^^^!QQRYyaf",
"^^^^^^^^^^^^^^^^^^^^^U2Z^(^^^^^^^^^^^^^^^^^^^/Qhfs",
"^^^^^^^^^^^^^^^^^^^^^U2Z(^^^^^^^^^^^^^^^^^^^^Qhfff",
"^^^^^^^^^^^^^^^^^^^^^I:1IR^^^^^^^^^^^^^^^^^^/kffff",
"^^^^^^^^^^^^^^^^^^^^(ZO*2^^^^^^^^^^^^^^^^^^^~kfffc",
"^^^^^^^^^^^^^^^^^^^^(ZX*2T(^^^^^^^^^^^^^^^^^^kffsf",
"^^^^^^^^^^^^^^^^^^^^T2.O>ZIU~(^^^^^^^^^^^^^^^Fgcff",
"^^^^^^^^^^^^^^^^^^^^V-. O>12I^^^^^^^^^^^^^^^RNvaff",
"((((^^^^^^^^^^^^^^YN-O==->=*2I((^^)^^^^^^((TN-O@0f",
"IZZIT^^(^^^(^^UIU^Y2--2N23:X=>VIJJLLZIUUIPZN>-**rl",
"2-O>V^^^^^~^^~N22U^TYITT^TZ:X.O>mlcq+-22:OX=2ZITY/",
"Z1=O=>>1NZNVI^ZVZT((^((((^^NOO1VFcxp57y,11>2ZT^)(^",
"^I2O  O=2222Z^^^^^^^^^^^^^(T=>^^LlgpffhbZ^(^^^^^RL",
"^^I2OX2IIYTT^^^^(^^^^^^^^^(T<2^^/Y,@pfhJ^^^(^^^^Ql",
"^^^I>ON(^(((^^^^~^^^^^^^^^^TNN^^^^1;DWQR^^^^^^^^Wf",
"^^^^2ON(^^^^^^^^^^^^^^^^^^(TNNU^^^Z2R^(^^^^^^^^TEf",
"^^^^Z>Z^^^^^^^^^^^^^^^^^^^^^TZNU^^^U^^^^^^^^^(^Ntf",
"^^^^I2VU^^^^^~^^^^^^^^^^^^^^^I2NI^^^^^^^^^^^^UVngf",
"^^^^I2>NT^^^^^^^^^^^^^^^^^^^^Z1>N^^^^^^^^^^~~Nngff",
"^^^^TZ->T^^^^^^^^^^^^^^^^^^^(N=-2^^^^^^^^~Qkkjgsff",
"^^^^^^=*U(^^^^^^^^^^^^^^^^^^^2X>Z^^^^^^^/Klfffffsf",
"^^^^^T==T(^^^^^^^(^^^^^^~^^^^2O2^^^^^^^^Khffffffff",
"^^^^^^11T^^^^^^^^^^^^^^^^^^^^Z-Z^^^^^^^^!cffffffff",
"^^^^RYMmJR^^^^^^^^^^^^^^^^^^^P2I^^^^^^^)Qhffsfffff",
"^^^^I2thl!^^^^^^^^^^^^^^^^^^^Z2I^^^^^^^^Qsfsfffsfs",
"^^^^JypxcQ^^^^^^^^^^^^^^^^^^^V=Z(^^^^^^^Qcffffffff",
"^^^^GhffgGT^^^^(^^^^^^^^^^^^^2XN(^^^^^^^!hffffffcf",
"^(TVAcfavbVT((^^^^^^^^^^^^(~Z=XN(^^^^^^^Qffffsffsf",
"^^T>%5wn>--NIZPZZZI^^^^^^^TZ>O.N(^^^^^^^Qcffffsfff",
"^(T= O>21=*>222222NT^^T^^^N>X XN(^^^^^^^Qgffffffff",
"^(UOOVIIUZZIIUIIIIZN2NNN2-OO .:I(^^^^^^^Jngfffffsf",
"((T;>^(^^(^^^^^^^(UN2NN2>OO=->NPI^^^^^^^INyjsfffff",
"~^T2N~^^^^^^^^^^^^^^T^^V1>NT^^TNN~^^^^^^^TNnhcshss",
"3NZZT^^^)^^^^^^^^^^^^^^TZ2V^((^II(^^^^^^^^IYK!!QSn",
"v,>I^ULLLLL^^^^^^^^^^^^^^NZLLLJ~^T~^^^^^^^^^^^^)Cv",
"g4OPINihhhzR^^^^^^^^^^^^^^GhhclKI2P^^^^^^^^^^^^^Ws",
"fw=2BtdfffhkL^^^^^^^^^^^^(m4pfsr>1I^^^^^^^^^^^RWlf",
"ft<1nhffffffW^^^^^^^^^^^^(1o0xs@X>I^^^^^^^^^^^Lgff"
};
