/* XPM */
static char *FieldsTile_39[] = {
/* columns rows colors chars-per-pixel */
"50 50 76 1 ",
"  c #B35644",
". c #B65A45",
"X c #B95D47",
"o c #BB5F48",
"O c #B36346",
"+ c #B16E47",
"@ c #BC6249",
"# c #AF7147",
"$ c #B07147",
"% c #B77B4B",
"& c #BD794D",
"* c #C1664B",
"= c #C56B4D",
"- c #C96F4F",
"; c #C7704F",
": c #CB6D50",
"> c #CC7351",
", c #CB7E53",
"< c #D07753",
"1 c #D47B55",
"2 c #D87F57",
"3 c #AC8D4B",
"4 c #BB834E",
"5 c #BA894F",
"6 c #AC994D",
"7 c #B19E4F",
"8 c #BD8E51",
"9 c #B59750",
"0 c #BB9551",
"q c #B59B50",
"w c #BB9A52",
"e c #9EB34D",
"r c #ACA54F",
"t c #A7AD4F",
"y c #A9AC4F",
"u c #A5B04F",
"i c #AEA550",
"p c #ABAD50",
"a c #B2A351",
"s c #BEA655",
"d c #B5AB53",
"f c #BAA854",
"g c #A7B150",
"h c #AAB050",
"j c #C38551",
"k c #CC8454",
"l c #C28A52",
"z c #CC8C55",
"x c #D48256",
"c c #D88057",
"v c #D28A57",
"b c #DC8459",
"n c #D68958",
"m c #DD895A",
"M c #C09052",
"N c #C39C55",
"B c #C99B57",
"V c #CC9D58",
"C c #D49459",
"Z c #DE945C",
"A c #D59E5B",
"S c #DB9C5D",
"D c #E0855B",
"F c #E38C5D",
"G c #E88A5E",
"H c #E6915F",
"J c #E8925F",
"K c #E2995F",
"L c #C3A456",
"P c #C7A458",
"I c #CCA259",
"U c #D2A05B",
"Y c #E79760",
"T c #EB9661",
"R c #E69860",
"E c #ED9862",
/* pixels */
"uupSETsuutuuuuuyuuguuuu0<<=O6uuuutuuutuguy#@>*+rut",
"urwZETAsqruuuuuguuuuuyqzbb>=5ruuguugguuuuy%-b1,yuu",
"u92FTTTF20ytuguuuugtuqkDTTD>1liuuuguugtutrkcJTAdeu",
"uLFTTTTTFn8yuutuuuut0kFHTE2*bmjiuuuuuuuuazmJTESpuu",
"qVETTTTTTGziuuuuuugLvDTTTT>@bTbBdguuuuta4-FETTKLw7",
">bTTTTTTTTSdupgppgLRTETTET1@bETTAdgygydj-@bETTTTm,",
"o1TTTTTTTTRSUAAAAASTTETTTT>@bTTTTAAAAUAFbbFTTTTTHF",
"+jSRTTTTTTTTTTTTTTTTTTTTET2=DTTTTTTTTTEEJJTTTTTTJF",
"ytdSTTTTTTTTTTTTTTTTTTTTTTb1FETTEEJJEEEJmcHJTEEJb<",
"uepzDJTTTTTTTTTETTTTTTTTETb2FTTTJEEEEJEEm>2FTEHb;@",
"dpy8nTTTTTTTTTTTTTTTTTTTHKCkHTTTJETTEEJJF2<cFJHc;*",
"KPtyLETTTTTTTTTTTTTTTTTbkayaSTTTEEJEJEEEJHc>2FTHHF",
"TC0LUTTTTTTTTTTTTTTTTTTC7trwKTTTJETJTTTTETFbbHEEEE",
"TD1FETTTTTTTTTTTTTTTTTTLtu01GTTTETTETTTTJEJJEEJETT",
"TD2HTETTTTTETTTTTTTTTTELuu0<FTTTTTTTTTTTEJbmJETTTT",
"TD<bFTTTTTTTTTTTTTTTTTTCq3lmHETTEJETTTTTEHccJETTTT",
"Em2>bJTTTTTTTTTTTTTTTTTb;X>HTTTTTTTTTTTTEJ21HJETTT",
"TJF1cTTTTTTTTTTTTTTTTTT1X =bHETTTTTTTTEJEJ;=2HETTT",
"TJF1cEETTTTTTTTTTTEYTTF1====bHTETTTTTTEEF2@X=cHEET",
"Tm1>cJTTTTTTTTTTTTTTTF2bJT1@-bTTTTTTTTJEc@..@=cJTJ",
"b>*>1cHETTTTTTTTTTTTEF1mEEF2*>EEEEEEEHcc>*XX*>>ccc",
">=@>ccFETTJETTYTTTTTJb>cHTEH==bmmbbmmc>2cc=;cc22c2",
">>1DJJJYEJETTTTTTTTTm>@=cHEJ2=@@X@@@@*2DJJHHHHJHJH",
"FccJEEETEETTTTTTTEHm1><cDJFc1>*X .@=>cFJEEEEEEEEEE",
"Eb>bHTETHTTTETEETFc>>bJTEEmc12>@.O-cJETTEEEJEJJTTT",
"E1@@>TEFcFTTETEEH>@@2JEYEEJHHm>@@>bJTTETJJEEEEETTT",
"Em;X@<bc>cb1<<1cb=*>mEEEJJEEEJb*@cJETTTTEEJEJEJETT",
"TEF* @;211>@X.X*11bJEEJEEEEJEEJ==JEJTTTTEJEEJEETTT",
"TEH*X;bHFHm>@X*1FHHTEJETTTTTTEJ11JEEEEEJEJEETEJTTT",
"TEH-=bHETEH1=*2FTETTTTTTTTTTTETccJEJJJEEJEEJTEETET",
"TTJ2cTTTTEHc>1FTTTTTTTTTTTTTTEJccJEEEJJEEEEJEJEJJE",
"TTTFHETTTEJFc1HETTTTTTTTTTTTTTTccJEJEEEEJJEETTTETT",
"TTTETHHTTTETmbHTTTTTTTTTTETTTEJ1>JEETTTTTTJEEEJETT",
"TTTTm1FETTTTTTTTTTTTTTTTEJETTEJ==JEETTTTTTTTJEJETT",
"TTTEF1FEETTTTTTTTTTTTTTTEJJETEJ=*HEJTTTTTTTTTEETTT",
"TTTTD1bFHHTTTTTTTTTTTTTTTETTTEF=;HEETTTTETTTTJETTT",
"TTTEm<<22mTTTTTTTTTTTTTTTEJEEm2>1JEJEETTTTTTTETTTT",
"TTTTb=-1bHTTTTTTTTTTTTTTEJEEEF<cFTTTTTTETTTTEJJETT",
"TTEEc@>bJETTTETTTTTTTTTTTEJJEm>FETTETJKKKKETEEETTT",
"TTTEm>bHTTTTTTTTTTTTTTTTTTEEEc*cETJETIdddfSEJJTTTT",
"TEHb12FEETTTTTTTTTTTTTTTTTTTT2ocTTTKAduuuuLATTTTTT",
"TEF=@>ZRJJTTETTTTTTTERKETTTTKx@cETEKduuuuuusKTTTTT",
"TEF*+7dNnGEETTTTTTTEIdsUTTTKPa7CETTSpuuuuuufJETTTT",
"TTm&3tur8nFDFFSUUJTTseusSTEKdugUETTSyuuuuuufEETTTT",
"TDkquuutyl,1<kagdATKLguudSEJdugUTTTKduuuuguLJTEJKE",
"TCqyuuguuaqqq7tuudUTSLuudSGnaupzDTTJAfuuugLSETKLss",
"SLuutuuuuuuuuuutuudATKsdLKmlruy0kFTEEAfddsSTFKIguu",
"hguuguuuuuuuuuuuuuudAEKKKTIyuuutq1FTTKKKKKJFcwhguu",
"uuuguuguguuuuuugutuufVbDnIduuuuuywsBmGTTTTFv0ruuuu",
"ugugtutuuugttguuuuugur><kiuuuuuuutur,bTTEJ2jtuuutu"
};
