/* XPM */
static char *FieldsTile_49[] = {
/* columns rows colors chars-per-pixel */
"50 50 81 1 ",
"  c #B45744",
". c #B65945",
"X c #B95D47",
"o c #BA5F48",
"O c #B46346",
"+ c #BD6349",
"@ c #BC6C4B",
"# c #AD7E49",
"$ c #B07548",
"% c #BE724C",
"& c #B27F4A",
"* c #BD794D",
"= c #C1664B",
"- c #C56B4D",
"; c #C86F4F",
": c #C2764E",
"> c #C9704F",
", c #C07D4F",
"< c #CD6E50",
"1 c #CD7351",
"2 c #C57B50",
"3 c #CB7D52",
"4 c #D17753",
"5 c #D47C55",
"6 c #D97E57",
"7 c #AF864B",
"8 c #AD8B4B",
"9 c #B38C4D",
"0 c #AE924C",
"q c #A9994C",
"w c #B2914E",
"e c #B19C4F",
"r c #BE8950",
"t c #B69550",
"y c #BA9451",
"u c #B59C50",
"i c #BB9A52",
"p c #A6A54D",
"a c #ABA54F",
"s c #A7AD4F",
"d c #A9AB4F",
"f c #A5B14F",
"g c #AFA350",
"h c #ACAD50",
"j c #B0A350",
"k c #BEA655",
"l c #B2AB52",
"z c #BBA954",
"x c #A5B550",
"c c #AAB050",
"v c #C38551",
"b c #CA8453",
"n c #C38B52",
"m c #CB8E55",
"M c #D58056",
"N c #D88057",
"B c #D08C56",
"V c #DC8459",
"C c #D68E59",
"Z c #DE895B",
"A c #C59354",
"S c #C29D55",
"D c #C89956",
"F c #CD9B58",
"G c #DB965C",
"H c #D59E5B",
"J c #DB9C5D",
"K c #E0865B",
"L c #E38C5D",
"P c #E6915F",
"I c #E8925F",
"U c #E2995F",
"Y c #C3A556",
"T c #C7A358",
"R c #CBA359",
"E c #D1A05A",
"W c #D8A05D",
"Q c #E79760",
"! c #EB9661",
"~ c #E69960",
"^ c #ED9862",
/* pixels */
" =44nsffcfffT!!!!!!!!!!!!!4X-VQ!!!!!!Z1.&fxu3yfcff",
"#vVVAcfcffffT!!!!!!!!!!!!!V-6L!!!!!!!PV3*7phyyufff",
"sY!^HhfffffhR!!!!!!!!!!!!!Z3L!!!!!!!!!!!6O0hhnbjsf",
"fY!^ZvafffhEI!!!!!!!!!!!!!5=Z^!!!!!!!!!!V12mGUZbuf",
"yF!^LVDkkkTI^!!!!!!!!!!!^^4oV^^!!!!!!!!!V;4K^^PVAt",
"1V!!^!!Q!Q!!!!!!!!!!!!!!!^5oV^!!!!!!!!!!6=V!^^!!V3",
"+5^^^!!^^^^!!!!!!!!!!!!!!!3oV^!!!!!!!!!!LVP!!!!!V4",
" :HHG!!!!!!!!!!!!!!!!!!!!^6=Z^!!!!!!!!!!PP!!!!^!Cv",
" &hhY!^!!!!!!!!!!!!!!!!!!!V4P^!!!!!!!!!!Z6L^!!!!Ts",
"-9ffz!^!!!!!!!!!!!!!!!!!!^Z4L^!!!!!!!!!!Z4MK!^URlf",
"MnaaSL!^!!!!!!!!!!!!!!!!!IV6P^!!!!!!!!!!L61MLURhfc",
"IZ3b36L^!!!!!!!!!!!!!!!!L6V!!!!!!!!!!!!!!P646ihfff",
"!PV541MVVVK^^^!!!!!!LVZ611V!!!!!!!!!!!!!!!M3yaffff",
"!!P64555613P!PPP!!!QV45-+1Z!!!!!!!!!!!!!!I6rhffffs",
"!^!66PPPL1+4665Z!!!!QPL611V!!!!!!!!!!!!!^I6nsfcfff",
"!!QVK!!^!4=14VNL!!!!!!!PN-6!!!!!!!!!!!!!!Q6nsfffff",
"!!!!!!!!!V41V!!!!!!!!!!^K+1P!!!!!!!!!!!!!I5vhssfff",
"!!!!!!!!!QZ6V^!!!!!!!!!^P+=VP^!!!!!!!!!!^I<@njfffc",
"!!!!!!!!!^L16L!^!!!!!!LV5=+;VP!!!!^^!!^!L6+.-rgsff",
"!!!!!!!!!^Z+=5L!!!!!^PM-+1-+1V!!!!^^!!!!6+..o-naff",
"!LZP!!!!!^Z+.=5VVP!!!QKVVZV6=1!^^^^^!LVV4=XX=13njf",
"PM1L^!!!!^K=O+46ML!!!!!!!!^P--VGJHGGZ616NM-16666Aj",
"6-+V!!!!!!P414K!!!!!!!!!!!!P6-@wchce@=5K!PPLPP!PV3",
"Z4=1V^^^!V14MK!^!!!!!!!!!!!!Lb7pfffabMZ!^!^^!^!!LV",
"!L4+>ZLLL>+3K^!!!!!!!!!!!!!!^Fcfffhz~^!!!!!!!!!!^^",
"!QL5-++++-4L!^!!!!!!!!!!!!!!^HcffhYU!^!!!!!!!!!!!^",
"!!!K4=XX=4K!^!!!!!!!!!!!!!!!^WYw9YG!^!!!!!!^!!^!GR",
"!!!!L4+O1K!!!!!!!!!!!!!!!!!!^!I--P^!!!!!!!!!!!!UYf",
"!!!!^K=+3K^^!!!!!!!!!!!!!!!!^^!44!!!!!!!!!!!^^Ukcf",
"!!!!^!1=1L^^!!!!!!!!!!!!!!!!!^!66I^!!!!!!!!!^HYsff",
"!!!!!PV14K!!!!!!!!!!!!!!!!!!!^!66!^!!!!!!!!!!Ysfff",
"!!!!^!V13Z!!!!!!!!!!!!!!!!!!!!P65!!!!!!!!!!!!zffff",
"!!!!!Q636K!!!!!!!!!!!!!!!!!!!^!44!!!!!!!!!!^Qksffs",
"!!!!!!66P^!!!!!!!!!!!!!!!!!!!^P--P^!!!!!!!!^!kffff",
"!!!!!!1<!^!!!!!!!!!!!!!!!!!!!^Q-=P^!!!!!!!!^!kffff",
"!!!!!L%*G~!!!!!!!!!!!!!!!!!!^!K--P^!!!!!!!!~Hzfssf",
"!!!!L5tdlH^!!!!!!!!!!!!!!!!!!P616Q^!!!!!!!!Hlcfffc",
"!!!!GysffR^!!!!!!!!!!!!!!!!!!Z4NK!!!!!!!!!!Hhfffff",
"!!!^HhfsgFP!!!!!!!!!!!!!!!!!!Z3K^!!!!!!!!!^Hhffsff",
"!!!^Rcfan3V!!!!!!!!!!!!!!!!!~V=V^!!!!!!!!!^Ehfffsf",
"!!!KBtkFV1;VP!!!!!!!!!!!!!!!!6o6!!!!!!!!^!!Hhffffc",
"!!P635L^L1o1V!!!!!!!!!!!!!!!!5o6!!!!!!!!!!!Hlsfsff",
"!!!66L!LV1-+;V!^^!^!!!!!!!^!V>OV^!!!!!!!!!!!Hlffsf",
"!^P66!^LV66-116MVKL^^!^!!!^!M-=V^!!!!!!!!!!!^Elfff",
"!!P6V!!!!!!QV1=X+1MP!I!!!!!PM14L!!!!!!!!!!!!^!Glff",
"VVVVP!^^!!!^PZM6641--15VVPWi%<K!!!!!!!!!!!!!!!!Ezf",
"v21L!LUJGGG!^^!^!V4-+-556!Rs#*G~!!!^!!!!!!!!!!!^Yf",
"h7+ZLMichczU^!!!!!PLPL!L!^TcddlH!!!!!!!!!!!!!!!!Yf",
"fw-6mtdfffhzH^!!!^^^^^!^^!B7pfsr1144VL^^!!!!!^URlf",
"fy44nhffffffT!!^!!!!!!!!!!4Xqxs$   O1V!!!!!!!!Ghff"
};
