/* XPM */
static char *FieldsTile_53[] = {
/* columns rows colors chars-per-pixel */
"50 50 80 1 ",
"  c #B45744",
". c #B65945",
"X c #B95D47",
"o c #BA5F48",
"O c #B46346",
"+ c #BC6249",
"@ c #BC6C4B",
"# c #AD7E49",
"$ c #B07548",
"% c #BE724C",
"& c #B27F4A",
"* c #BF7B4E",
"= c #C1664B",
"- c #C56B4D",
"; c #C96F4F",
": c #C3764F",
"> c #C17C4F",
", c #CD6E50",
"< c #CD7351",
"1 c #C57D50",
"2 c #CC7C52",
"3 c #D07753",
"4 c #D47B55",
"5 c #D97E57",
"6 c #AE864A",
"7 c #AC8A4B",
"8 c #B38C4D",
"9 c #AE924C",
"0 c #A9994C",
"q c #B2924E",
"w c #B19C4F",
"e c #BE8950",
"r c #BA9351",
"t c #B59C50",
"y c #BE9A53",
"u c #9FB44D",
"i c #A6A54D",
"p c #ACA44F",
"a c #A7AD4F",
"s c #A8AC4F",
"d c #A5B04F",
"f c #AFA450",
"g c #ABAD50",
"h c #B0A350",
"j c #BEA755",
"k c #B2AB52",
"l c #B9A954",
"z c #A5B550",
"x c #ACB051",
"c c #C28551",
"v c #CA8453",
"b c #C38A52",
"n c #CB8E55",
"m c #D78057",
"M c #D88057",
"N c #D08A56",
"B c #DC8459",
"V c #D68E59",
"C c #DE895B",
"Z c #C49254",
"A c #C09E54",
"S c #C89956",
"D c #CE9B58",
"F c #DB945C",
"G c #D59E5B",
"H c #DB9C5D",
"J c #E0865B",
"K c #E38D5D",
"L c #E88F5F",
"P c #E6915F",
"I c #E8925F",
"U c #E3995F",
"Y c #C3A557",
"T c #C7A358",
"R c #CBA359",
"E c #D3A05B",
"W c #E79760",
"Q c #EB9661",
"! c #E69960",
"~ c #ED9862",
/* pixels */
" =33bgddddddRWQQQQQQQQQQ~Q4X-BW~QQQQQB;X&adw2wdddd",
"#cBBZaddadddRWQQQQQQQQQQ~Q5-4KQ~QQQ~~KB3:7isrrwadd",
"aY~~GfddddagR~QQQQQQQQQQQQB3J~QQQQQQ~QQI4+qapnvhad",
"dY~~VbpdddgGWW~QQQQQQQQQQQ4=J~QQQQQQQQ~~C<1nHUCvtd",
"tDQ~LMSjYjRWQQQQQQQQQQQQ~W3oB~W~QQQQQW~~B;3K~~LBnw",
"<MQQ~QWWWQWQQQQQQQQQQQQQQ~4+C~W~QQQQQ~I~m+B~QQ~IB4",
"=3QQQ~~~QQQQQQQQQQQQQQQQQ~3oB~QQQQQQQQI~KBP~QQ~QB3",
" :HGUQQQQQQQQQQQQQQQQQQQQQ4-J~QQQQQQQQ~IIPI~QQQQVc",
" &ggYWQQQQQQQQQQQQQQQQQQQQB4K~~WQQQ~I~~~K4K~I~~~Ta",
"-8ddjWQQQQQQQQQQQQQQQQQQQ~B4K~Q~QQQQQQ~IC3mJ~~UTkd",
"mbfkRWQQQQQQQQQQQQQQQQQQQKBMKQQQI~QQQQ~~K435KIRxdd",
"IBvFWQQQQQQQQQQQQQQQQQQQL5BQ~~QQ~QQQQQI~IP424ykddd",
"~C4L~QQQQQQQQ~QQQQQQQQQ~I4M~~QQQQQQQQQW~~W52rpdddd",
"WC4K~QQQQQQQQQQQQQQQQQQQK4BQQQQQQQQQQQ~I~I5bszddad",
"~B4K~QQQQQQQQQQQQWQQQQ~J43B~QQQQQQQQQQ~~~I5baddddd",
"~B4BKQ~QQQQQQQQQQQQQ~~WB3-4Q~QQQQQQQQQW~~I4baddddd",
"~J435Q~QQQQQQ~QQQQQQQ~QB;X<I~WQQI~II~~I~~I4cpddddd",
"~WJ45QQQQQQQQQQQQQQQQ~Q3X -MP~QQ~Q~~~I~~~I;=bhddda",
"~IK4M~~QQQQQQQQQQQQQ~WK4---;BKQQQQQ~~~I~PM=X-ehddd",
"WC33MIW~QQQQQQQQQQQQ~K4BQI4+,BQ~QQQWI~~I4+  X;bpdx",
"B<=;4MP~QQQQQQQQQQQQ~K4C~~K4=<~~~~~~~KMB3- X-<2bhd",
"3-+345K~QQQQQQQQQQQWIJ<5I~~K;-BFHHHFC534M4;;4545Zh",
"4<3JIIQQQQQQQQQQQQ~~B<o-5I~Q4-+qxggw@-4KIIPPIIIPB2",
"BM4Q~~QQQ~QQQQQQQ~LB433MJIKB4>7idddiv5JI~~~~~~~~PJ",
"~B<BP~~QWQ~QQ~~W~KM<3BL~~~J45ZadddaYU~W~~II~I~~II~",
"~4++<W~KMJ~WQQ~~I<o+4IW~~WILLDdddaTUI~~~I~~~~~I~~W",
"~B<X+3BM3MB43445M;=<J~QQ~Q~Q~HTqqTUQ~~WI~~~I~I~QHR",
"~~K= X<444<+...-44BI~~QQWQQQ~~I--K~~~I~~~I~I~~~UYd",
"~~K=X;BKKKJ<+ -4JPP~~QQQQQQQ~~L43I~WQQQQ~~I~~~Ujsd",
"~~P<;BI~Q~P4--4K~~~WQQQQQQQQ~WQ55I~~QQQQI~I~IHYddd",
"W~I45I~W~~K534K~QQ~QQQQQQQQQQ~Q55I~QQQQQQQ~~~Yaddd",
"QQ~KLQ~~~~WK44K~QQQQQQQQQQQQQWQ55IQQQQQQQQQQUYdddd",
"QQQ~IKI~WWQ~J5I~QQQQQQQQQQQQ~~I43I~WQQQQQQQQIYdddd",
"QQQ~K4K~~~QQWQQWQ~QQQQQQQQQQW~L--I~~QQQQQQ~QWYdddd",
"QQQQK4J~~~~QQ~QQQQQQQQQQQQQQ~~I-=K~QQQQQQQQ~Ijdddd",
"QQQQJ4CPKIQQQQQQQQQQQQQQQQQQ~WK;;L~QQQQQQQQIHlddad",
"QQQ~J3344KQQQQQQQQQQQQQQQQQQ~K4<4I~QQQQQQQ~Hkddddd",
"QQQQB-;4BKQQQQQQQQQQQQQQQQQW~J3BK~~QQQQQQWQGdddddd",
"QQ~~M=;BQ~QQQQQQQQQQQQQQQQQQ~B3J~I~QQQQQQQ~Ggddddd",
"QQQ~B<BIQQQQQQQQQQQQQQQQQQQQ~5=M~~WQQQQQQQ~Gxddaad",
"~~IB34K~QQQQQQQQQQQQQQQQQQQW~4oM~QQQWQQQQQ~Gaddddd",
"~~K-=3KQQQQQQQQQQQQQQQQQQQ~~~4+M~QQQQQQQQQ~Hkddadd",
"Q~K=-JQQQQQQQQQQQQQQQQQQQQ~IB;oM~QQQQQQQQQQIGlddad",
"~IB-3W~QQQQQQQ~QQQQQQQQWQQ~I5;=B~QQQQQQQQQQQWRlddd",
"QB4<5W~QQQQQQQQQQQQQQQQQQQ~P4<4K~QQQQQQQQQQQ~~Hkdd",
"~5-MLQQQQQQQQQQQQQQQQQQQQQGA%,JWQQQQQQQQQQQQWQIGld",
"C;XB~WQQQQQQQQQQQQQQQQQQQQRs#*H!Q~~Q~~QQQQQQ~WW~Yd",
"+X+J~QQQQQQQQQQQQQQQQQQQQ~RasikGQQQIIQQQQQQQQ~~IYd",
" X;K~~W~QQQQQQQQQQQQQQQQQQN6idab,3<3MK~~QQQQQQURka",
" =4K~WQQQQQQQQQQQQQQQQQQQ~3O0da$   o<JQWQQQQQQHkdd"
};
