/* XPM */
static char *FieldsTile_50[] = {
/* columns rows colors chars-per-pixel */
"50 50 80 1 ",
"  c #B35744",
". c #B55945",
"X c #B95D47",
"o c #BA5F48",
"O c #B36446",
"+ c #B06E47",
"@ c #BD6249",
"# c #B56C48",
"$ c #BF684B",
"% c #AD7F49",
"& c #B47349",
"* c #B9764B",
"= c #B8784B",
"- c #C1664B",
"; c #C56B4D",
": c #C86F4F",
"> c #C2794F",
", c #CB6F50",
"< c #CD7351",
"1 c #CD7B53",
"2 c #D07653",
"3 c #D47B55",
"4 c #D97E57",
"5 c #AD8349",
"6 c #AD8B4B",
"7 c #B2864C",
"8 c #BA874F",
"9 c #B18C4C",
"0 c #A9924B",
"q c #AC9C4D",
"w c #B2944E",
"e c #B19E4F",
"r c #BC8F51",
"t c #BA9551",
"y c #B49C50",
"u c #BB9D53",
"i c #A6A14C",
"p c #ABA54F",
"a c #A6AE4F",
"s c #A8AC4F",
"d c #A5B14F",
"f c #AFA450",
"g c #ACAD50",
"h c #B2A251",
"j c #BEA655",
"k c #B3AA52",
"l c #BAA954",
"z c #A8B050",
"x c #C18651",
"c c #CB8354",
"v c #C48C53",
"b c #C98A54",
"n c #D48356",
"m c #D88057",
"M c #D28957",
"N c #D78658",
"B c #DC8459",
"V c #DF895B",
"C c #C39153",
"Z c #C49A55",
"A c #C99E57",
"S c #D39158",
"D c #DD945C",
"F c #D49D5B",
"G c #DA9C5C",
"H c #E38D5D",
"J c #E88F5F",
"K c #E6915F",
"L c #E8925F",
"P c #E3995F",
"I c #C3A456",
"U c #C2A857",
"Y c #C7A458",
"T c #CBA259",
"R c #D1A05A",
"E c #E79660",
"W c #EB9661",
"Q c #E69860",
"! c #ED9862",
"~ c #F09663",
/* pixels */
" <WWFgddddddYWWWWWWWWWWWWW2X:NWWWWWWWH<o   -<-+pdd",
"-3W~RdddddddYWWWWWWWWWWWWW4:3HWWWWWWWHN2-X;34,*pdd",
"2BWWRkaddddgYWWWWWWWWWWWWWB2JWWWWWWWWWWW3@BWWBcpdz",
"2BWWQFkdddkRLWWWWWWWWWWWQW3;BWWWWWWWWWWWB<H!WKVcqd",
"rSWWWWRjjjYQWWWWWWWWWWWWW!<@B!WWWWWWWWWWH3HWWWJHCy",
"sYWWWWQQWWWWWWWWWWWWWWWWW!2@V!WWWWWWWWW!H2HWWWWWB1",
"dIWWWWW~WWWWWWWWWWWWWWWWW!2@B!WWWWWWWWWWB3JWWWWWWH",
"aIJWWWWWWWWWWWWWWWWWWWWW!W3-H!WWWWWWWWWWB<NWWWWWKJ",
"dt3JWWWWWWWWWWWWWWWWWWWWWWB2HQWWWWWWWWWQ3@:BLWWWN2",
"d9;VWWWWWWWWWWWWWWWWWW!JVWH2KWWWWWWWWWWW2 X>IUAn,@",
"d6#NWWWWWWWWWWWWWWWWKJV2<BBBLWWWWWWWWWWWB@O5adhn,-",
"dspcBWWWWWWWWWWWWWWWV<$XX@<KWWWWWWWWWWWWV<0addkPJJ",
"ddzyx2H!!!Q!W!WHNBHWHm2:@ <WWWWWWWWWWWWWJNkgtuRQWW",
"dddd0#3JHHJLJWWH33BWWWWV<$<WWWWWWWWWWWWWWPjy3HWWWW",
"ddddsq*$-@;23BJWHJJWWWWWH<mWWWWWWWWWWWWWWWncJWWWWW",
"dddadd6&$@;3BBKWQWWWWWW!J<4W!WWWWWWWWWWWWW4BW!WWWW",
"adddddde123JWWWWWWWWWWW!J@<WWWWWWWWWWWWWWW33WWWWWW",
"ddzadddh1BKWWWWWWWWWWWW!H@-NLWWWWWWWWWWW!W<;3KWWWW",
"zdzddddhnJWWWWWWWWWWWWW!H:$:BJWWWWWWWW!WJ3@ ;4KWWW",
"dddddaajLWWWWWWWWWWWWWWWJ2-X:BWWWWWWWWWW3@X X:mKWW",
"addddzIGQWWWWWWWWWWWWWWQL3; X2W!!!!!!JBB2; X;<2BBB",
"zddzshGWWWWWWWWWWWWWWWW!K2-@X:BVBNVBB3<3B3::333334",
"daddycHWWWWWWWWWWWWWWWW!H-@<<;@@X@@@@:2HLWJKWWKWLL",
"57r7&;BWWWWWWWWWWWWWWWWJ3X$22<;   X;<mHWQ!W!!WWWWW",
"X;2;@$BWWWWWWWWWWWWWWWWB<-:2322$ @:BJWWWWWWWWWWWWW",
",4KH3<HWWWWWWWWWWWWWWWWB2VJKWV<@X,NWWWWWWWWWWWWWWW",
"BJW!LBBHWWWWWWWWWWWWW!W3<JW!WLB-$mW!WWWWWWWWWWWWWW",
"WWWWWKBBWWWWWWWWWWWWWWK<$HWWWWK:;JWWWWWWWWWWWWWWWW",
"WWWWWWKJWWWWWWWWWWWWWLm-@H!WW!W22WWWWWWWWWWWWWWWWW",
"HJWWWWWWHHWWWWWWWHJWWJB::H!WWWWB3WWWWWWWWWWWWWWWWW",
"1NWWWWWH4HWWWWWWKBmWWWWB2K!WWWLmBLWWWWWWWWWWWWWWWW",
"yvBLWWWH22HWW!Q!WHHWWWWN3KWWWWWm3EWWWWWWWWWWWWWWWW",
"dyvKWW!H,>vFDHHHHWQWWWWVBJWWWWW22KWWWWWWWWWWWWWWWW",
"dafGWW!B$9agC3323J!WWWWWWWWWWWL::K!WWWWWWWWWWWWWWW",
"ddzlFWWD9idd6$<<2H!W!KBKWWWWWWW;-K!WWWWWWWWWWWWWWW",
"ddddlGJFsddk8;23mVJVJV<BWWWWWWH::K!WWWWWWWWWWWWWWW",
"ddddzkbbgdkFKJKKHB<$<<@3WQWWWJ3<3WWWWWWWWWWWWWWWWW",
"ddzada81YYRWW!!WWH2-$$ 3WWWWWH24HWWWWWWWWWWWWWWWWW",
"ddzddavBWWWWWWWWWWJ3- X2!!WWWV<HWWWWWWWWWWWWWWWWWW",
"dddddgFKWWWWWWWWWWWJ3;X2WWWWWm-NWWWWWWWWWWWWWWWWWW",
"ddddpuDWWWWWWWWWWWWWH2;<HWWW!3@3WWWWWWWWWWWWWWWWWW",
"ddddy1JWWWWWWWWWWWWWWK323KWWW3oBWWWWWWWWWWWWWWWWWW",
"azddy2HWWWWWWWWWWWWWWWH42K!WV:X3!WWWWWWWWWWWWWWWWW",
"dddduNJ!WWWWWWWWWWWWWWQHBWWW3:$B!WWWWWWWWWHDFFGWWW",
"dzddILWWWWWWWWWWWWWWWWWWWWWK3<2HWWWWWWWWWWmvfdlPWW",
"daddUQWW~WWWWWWWWWWWWWWWWWWK:<HWWWWWWWWWWEZpddkPWW",
"dddkTWQRDRDQWWWWWWWWWWWWWWWH@:W!WW!WWWWWWVkddpjPWW",
"ddgRQQUkzklPWWWWWWWWWWWWWWH<@:K!WWWWWWWWHchdarmWWW",
"dfCPPIgdddgjFWWWWWWWWWWWWWB-X@<<<<<2BJLV2$&7tNHWFY",
"at2JRsddddddYWWWWWWWWWWWWW2   X    @<VW3;  @2HWWIa"
};
