/* XPM */
static char *_[] = {
/* columns rows colors chars-per-pixel */
"50 50 106 2 ",
"   c #FFCC68",
".  c #FECC6A",
"X  c #FECD6C",
"o  c #FECE6E",
"O  c #FECE70",
"+  c #FECF73",
"@  c #FDD075",
"#  c #FDD178",
"$  c #FDD27B",
"%  c #FDD27C",
"&  c #FDD27D",
"*  c #FCD380",
"=  c #FCD584",
"-  c #FCD586",
";  c #FCD587",
":  c #FCD687",
">  c #FBD68A",
",  c #FBD78B",
"<  c #FBD88E",
"1  c #FBD88F",
"2  c #FAD994",
"3  c #FADA95",
"4  c #FADA96",
"5  c #FADA97",
"6  c #FADB98",
"7  c #FADC9B",
"8  c #F9DC9C",
"9  c #F9DC9D",
"0  c #F9DDA0",
"q  c #F9DDA1",
"w  c #F9DEA4",
"e  c #F9DFA5",
"r  c #F8DFA6",
"t  c #F8DFA8",
"y  c #F8E0A8",
"u  c #F8E0A9",
"i  c #F8E0AB",
"p  c #F8E1AD",
"a  c #F8E2AF",
"s  c #F7E3B2",
"d  c #F7E3B4",
"f  c #F7E4B5",
"g  c #F7E4B6",
"h  c #F7E4B7",
"j  c #F7E5B8",
"k  c #F6E5BA",
"l  c #F6E6BC",
"z  c #F6E6BD",
"x  c #F6E7C1",
"c  c #F6E8C2",
"v  c #F5E8C4",
"b  c #F5E8C5",
"n  c #F5E9C5",
"m  c #F5E9C6",
"M  c #F5E9C7",
"N  c #F5EAC8",
"B  c #F5EACA",
"V  c #F5EACB",
"C  c #F4EBCD",
"Z  c #F5EBCD",
"A  c #F4EBCE",
"S  c #F4ECCE",
"D  c #F4ECCF",
"F  c #F4EDD2",
"G  c #F4EDD3",
"H  c #F3EED7",
"J  c #F4EDD4",
"K  c #F4EED5",
"L  c #F4EED6",
"P  c #F4EED7",
"I  c #F3EED8",
"U  c #F3EFD9",
"Y  c #F3F0DC",
"T  c #F3F0DD",
"R  c #F3F1DF",
"E  c #F3F1E0",
"W  c #F3F1E1",
"Q  c #F2F1E2",
"!  c #F2F2E2",
"~  c #F2F2E3",
"^  c #F2F2E5",
"/  c #F2F3E5",
"(  c #F2F3E6",
")  c #F2F3E7",
"_  c #F2F4E8",
"`  c #F2F4E9",
"'  c #F1F5EB",
"]  c #F2F4EA",
"[  c #F2F4EB",
"{  c #F1F5EC",
"}  c #F1F5ED",
"|  c #F1F5EE",
" . c #F1F6EE",
".. c #F1F6EF",
"X. c #F1F6F0",
"o. c #F1F6F1",
"O. c #F1F6F2",
"+. c #F1F7F2",
"@. c #F1F7F3",
"#. c #F1F7F4",
"$. c #F1F7F5",
"%. c #F0F8F5",
"&. c #F1F8F5",
"*. c #F0F8F6",
"=. c #F0F8F7",
"-. c None",
/* pixels */
"-.-.-.-.-.-.-.-.X.X.X.X.X.X.X.X.X.X.X.X.X.X.X.X.X.-.-.-.-.-.-.-.-.-.-.-.-.-.-.-.-.-.-.-.-.-.-.-.-.-.",
"-.-.-.-.-.-.-.-.X.X.X.X.X.X.X.X.X.X.X.X.X.X.X.X.X.-.-.-.-.-.-.-.-.-.-.-.-.-.-.-.-.-.-.-.-.-.-.-.-.-.",
"-.-.-.-.-.-.-.-.X.X.X.X.X.X.X.X.X.X.X.X.X.X.X.X.X.-.-.-.-.-.-.-.-.-.-.-.-.-.-.-.-.-.-.-.-.-.-.-.-.-.",
"-.-.-.-.-.-.-.-.X.X.X.X.X.X.X.X.X.X.X.X.X.X.X.X.X.-.-.-.-.-.-.-.-.-.-.-.-.-.-.-.-.-.-.-.-.-.-.-.-.-.",
"-.-.-.-.-.-.-.-.X.X.X.X.X.X.X.X.X.X.X.X.X.X.X.X.X.-.-.-.-.-.-.-.-.-.-.-.-.-.-.-.-.-.-.-.-.-.-.-.-.-.",
"-.-.-.-.-.-.-.-.X.X.X.X.X.X.X.X.X.X.X.X.X.X.X.X.X.#.-.-.-.-.-.-.-.-.-.-.-.-.-.-.-.-.-.-.-.-.-.-.-.-.",
"-.-.-.-.-.-.-.-.X.X.X.X.X.#.X.X.X.X.X.X.&.X.#.X.&.&.-.-.-.-.-.-.-.-.-.-.-.-.-.-.-.-.-.-.-.-.-.-.-.-.",
"-.-.-.-.-.-.-.-.X.X.X.X.X.X.X.X.X.&.&.#.#.#.&.&.&.&.=.=.-.-.-.-.-.-.-.-.-.-.-.-.-.-.-.-.-.-.-.-.-.-.",
"-.-.-.-.-.-.-.-.X.X.X.X.X.X.X.#.X.#.X.&.#.#.&.&.&.&.&.=.=.=.=.-.-.-.-.-.X.X.X.X.X.X.X.X.X.X.X.X.X.X.",
"-.-.-.-.-.-.-.-.X...X.X.X.X.X.X.#.X.&.&.#.&.&.&.&.&.&.&.=.&.&.&.&.&.X.X.X.#.X.X.X.X.X.X.X.X.X.X.X.X.",
"-.-.-.-.-.-.-.-.X.X.X.X.X.X.X.X.X.X.X.X.X.#.X.#.&.X.&.#.#.#.&.X.X.X.X.X.X.X.X.X.X.X.X.X.X.X.X.X.X.X.",
"-.-.-.-.-.-.-.-.X.X.X.X.X.X.X...X.X.X.....X.....X...X.....X.X.X.X.X.X...X.X.X.X.X.X.X.X.X.X.X.X.X.X.",
"-.-.-.-.-.-.-.-.X.X.X.X.X.X.........` ` ` ` ` ` ` ` ` ` ` ` ` ..........X.X.X.X.X.X.X.X.X.X.X.X.X.X.",
"-.-.-.-.-.-.-.-.X.X.X.X.X.....` ` _ / Q Q Q T Q T Q T T Q Q Q Q / ` ` ` X.X.X.X.X.X.X.X.X.X.X.X.X.X.",
"-.-.-.-.-.-.-.-.X.#.X.X....._ / / T T U P P P G P G G P P P U T Q Q ) ` ....X.X.X.#.X.X.X.X.X.X.X.X.",
"-.-.-.-.-.-.-.-.&.X.X.X...` / Q T P G D V b b b c b b b V V D G I T Q / ` ..X.X.X.X.X.#.X.X.X.X.X.X.",
"-.-.-.-.-.-.-.-.&.#.X.X...` Q T P D b c j j f f d d f f j l c V D P T / ` ..X.X.&.X.X.#.X.X.X.X.X.X.",
"-.-.-.-.-.-.-.-.&.&.X.X.` _ T P D b l f a y y r q r r y a a f l b C P T ` ` X.X.X.&.#.X.X.X.X.X.X.X.",
"-.-.-.-.-.-.-.-.&.&.#.X.` / Y G V l s y 9 7 3 3 3 2 2 3 9 q y s l V G T / ....X.&.X.X.X.X.X.X.X.X.X.",
"-.-.-.-.-.-.-.-.=.&.X.X.` / U C x f y 9 2 2 > : : : : > 1 3 9 r s x C I Q ` ..X.#.#.#.&.#.X.X.X.X.X.",
"-.-.-.-.-.-.-.-.=.&.&.X.` Q P V l a q 3 > : * % % # % * : > 2 9 a j V P Q ` X.X.#.#.X.#.X.X.X.X.X.X.",
"-.-.-.-.-.-.-.-.=.&.X.X.` Q P V l y 9 1 = % # @ + + @ @ # : 1 9 y j V G Q ` X.#.#.&.#.#.X.X.X.X.X.X.",
"-.-.-.-.-.-.-.=.=.&.&.X.` Q P b j y 6 > % # + o o o + + # * > 3 r f b P Q ` X.X.#.&.X.X.X.X.X.X.X.X.",
"-.-.-.-.-.-.-.=.&.&.#...` T G b f r 3 : % @ + . . . . + @ # > 3 r f c G Q ` X.&.&.&.&.&.X.X.X.X.X.X.",
"-.-.-.-.-.#.#.&.&.&.&...` T G b f q 2 : # + o . . . . o + # : 3 q f c G T ` ..X.&.&.&.&.&.X.X.X.X.X.",
"X.X.X.X.X.X.#.&.&.&.#...` Q G b d q 2 : % + o .     . o + # : 3 r f b G Q ` ..#.&.&.&.&.X.-.-.-.-.-.",
"X.X.X.X.X.#.X.&.&.&.X...` T P b f r 3 > % @ o o . . . + @ % : 3 r f c G Q ` X.&.&.=.=.-.-.-.-.-.-.-.",
"X.X.X.X.X.X.X.&.&.&.#...` Q G b f r 3 < % # + + o o o + # * > 3 y j b G T ` ..X.=.=.=.-.-.-.-.-.-.-.",
"X.X.X.X.X.X.#.#.#.#.X.X.` Q P b j y 9 1 = % # @ + @ @ # % : < 7 a j V P Q ` ..#.&.=.-.-.-.-.-.-.-.-.",
"X.X.X.X.X.X.X.#.#.#.#.X.` Q P V j a 9 2 > = % % # % % % : > 3 q s l V P Q ` ..&.&.=.-.-.-.-.-.-.-.-.",
"X.X.X.X.X.X.X.&.#.#.X...` / U C c f y 9 3 1 > : : : : > < 3 9 y f c D I Q ` X.X.&.=.-.-.-.-.-.-.-.-.",
"X.X.X.X.X.X.#.X.&.X.X...../ T G b l s y q 9 6 3 3 2 3 6 6 q r s l b G Y / ..X.&.&.=.-.-.-.-.-.-.-.-.",
"X.X.X.X.X.X.#.#.#.X.#.X.../ Q P D b l f a y y r q r q r y a f l b C P T / ....X.&.&.-.-.-.-.-.-.-.-.",
"X.X.X.X.X.X.X.X.#.X.X.X.../ / T P D V c l j j f f f f f j j x b G P T / / ....X.X.&.-.-.-.-.-.-.-.-.",
"X.X.X.X.X.X.X.#.X.&.X.X...` / Q T I G D C V b b b b b b b V C G P T Q / ` ..X.X.#.&.-.-.-.-.-.-.-.-.",
"X.X.X.X.X.X.X.X.X.X.X.X.....` / Q Q T U I P G G G G G P P P I T Q / ` ` ....X.X.X.X.-.-.-.-.-.-.-.-.",
"X.X.X.X.X.X.X.X.X.X.X.X.X...` ` / / / / Q Q T Q T Q Q T Q Q / / / ` ` ......X.X.X.X.-.-.-.-.-.-.-.-.",
"X.X.X.X.X.X.X.X.X.X.X.X.X...........` ` ` ` ` ` ` ` ` ` ` ` ` ..` ....X.....X.X.X.X.-.-.-.-.-.-.-.-.",
"X.X.X.X.X.X.X.X.X.X.X.X.X.X.X.X.X.X...X.X.............X.X.X.X.X.X.X.X.X...X.X.X.X.X.-.-.-.-.-.-.-.-.",
"X.X.X.X.X.X.X.X.X.X.X.X.X.X.X.X.#.X.X.#.&.X.#.&.X.#.X.&.X.&.X.X.X.X.X.X.X.X.X.X.X.X.-.-.-.-.-.-.-.-.",
"X.X.X.X.X.X.X.X.X.X.X.X.X.X.&.X.&.#.&.&.&.=.=.&.&.&.&.#.#.#.&.X.&.X.X.#.X.X.X.X.X.X.-.-.-.-.-.-.-.-.",
"X.X.X.X.X.X.X.X.X.X.X.X.X.X.-.-.-.-.-.&.=.=.=.=.&.&.&.&.&.#.&.&.X.&.X.X.X.X.X.X.X.X.-.-.-.-.-.-.-.-.",
"-.-.-.-.-.-.-.-.-.-.-.-.-.-.-.-.-.-.-.-.-.-.=.&.&.&.&.&.X.&.#.X.#.X.X.X.X.X.X.X.X.X.-.-.-.-.-.-.-.-.",
"-.-.-.-.-.-.-.-.-.-.-.-.-.-.-.-.-.-.-.-.-.-.-.-.#.&.&.X.#.X.#.X.X.X.#.X.X.X.X.X.X.X.-.-.-.-.-.-.-.-.",
"-.-.-.-.-.-.-.-.-.-.-.-.-.-.-.-.-.-.-.-.-.-.-.-.X.X.X.#.X.X.#.X.X.X.X.X.X.X.X.X.X.X.-.-.-.-.-.-.-.-.",
"-.-.-.-.-.-.-.-.-.-.-.-.-.-.-.-.-.-.-.-.-.-.-.-.-.X.X.X.X.X.X.X.X.X.X.X.X.X.X.X.X.X.-.-.-.-.-.-.-.-.",
"-.-.-.-.-.-.-.-.-.-.-.-.-.-.-.-.-.-.-.-.-.-.-.-.-.X.X.X.X.X.X.X.X.X.X.X.X.X.X.X.X.X.-.-.-.-.-.-.-.-.",
"-.-.-.-.-.-.-.-.-.-.-.-.-.-.-.-.-.-.-.-.-.-.-.-.-.X.X.X.X.X.X.X.X.X.X.X.X.X.X.X.X.X.-.-.-.-.-.-.-.-.",
"-.-.-.-.-.-.-.-.-.-.-.-.-.-.-.-.-.-.-.-.-.-.-.-.-.X.X.X.X.X.X.X.X.X.X.X.X.X.X.X.X.X.-.-.-.-.-.-.-.-.",
"-.-.-.-.-.-.-.-.-.-.-.-.-.-.-.-.-.-.-.-.-.-.-.-.-.X.X.X.X.X.X.X.X.X.X.X.X.X.X.X.X.X.-.-.-.-.-.-.-.-."
};
