/* XPM */
static char *_0[] = {
/* columns rows colors chars-per-pixel */
"50 33 2 1 ",
"  c #FDD179",
". c None",
/* pixels */
"..................................                ",
"..................................                ",
".................................                 ",
".................................                 ",
".................................                 ",
".................................                 ",
"................................                  ",
"...............................                   ",
"            .................                     ",
"              .............                       ",
"               ...........                        ",
"                ..........                        ",
"                .........                         ",
"                .........                         ",
"                .........                         ",
"                 ........                         ",
"                 ........                      ...",
"                .........                   ......",
"                .........                  .......",
"                .........                 ........",
"                .........                 ........",
"                ..........               .........",
"                ..........              ..........",
"                ...........            ...........",
"                 .............       .............",
"                 .................................",
"                 .................................",
"                 .................................",
"                 .................................",
"                 .................................",
"                 .................................",
"                 .................................",
"                 ................................."
};
