/* XPM */
static char *_1[] = {
/* columns rows colors chars-per-pixel */
"50 42 2 1 ",
"  c #FDD179",
". c None",
/* pixels */
"                 .................................",
"                 .................................",
"                 .................................",
"                 .................................",
"                 .................................",
"                 .................................",
"                 .................................",
"                 .................................",
"                 ......................     ......",
"                 ...................              ",
"                 ..................               ",
"                 .................                ",
"                 .................                ",
"                 ................                 ",
"                  ...............                 ",
"                   ..............                 ",
"                    .............                 ",
"                      ...........                 ",
"                       ...........                ",
"                        ..........                ",
"                        ..........                ",
"                         .........                ",
"                         .........                ",
"                         .........                ",
"                         .........                ",
"....                     .........                ",
"......                   .........                ",
".......                  .........                ",
"........                 .........                ",
"........                 .........                ",
"........                 .........                ",
"........                 ..........               ",
"........                 ...........              ",
"........                 ..............     ......",
"........                 .........................",
"........                 .........................",
"........                 .........................",
"........                 .........................",
"........                 .........................",
"........                 .........................",
"........                 .........................",
"........                 ........................."
};
