/* XPM */
static char *_2[] = {
/* columns rows colors chars-per-pixel */
"50 44 2 1 ",
"  c #FDD179",
". c None",
/* pixels */
".....................................             ",
".....................................             ",
".....................................             ",
".....................................             ",
".....................................             ",
"....................................              ",
"         .........................                ",
"           ......................                 ",
"            ....................                  ",
"             ..................                   ",
"             ..................                   ",
"              .................                   ",
"               ................                 ..",
"                 ..............              .....",
"                  .............             ......",
"                  .............             ......",
"                   ............             ......",
"                   ...........              ......",
"                   ..........               ......",
"....               ........                 ......",
".....              .......                  ......",
"......             .......                  ......",
"......             ......                  .......",
"......             ......                  .......",
"......             ......                 ........",
"......             ......               ..........",
"......             ......              ...........",
"......             ......             ............",
".......           .......             ............",
".......           .......            .............",
"........         ........            .............",
"...........   ...........            .............",
".........................            .............",
".........................            .............",
".........................            .............",
".........................            .............",
".........................            .............",
".........................            .............",
".........................            .............",
".........................            .............",
".........................            .............",
".........................            .............",
".........................            .............",
".........................            ............."
};
