/* XPM */
static char *_[] = {
/* columns rows colors chars-per-pixel */
"50 42 82 1 ",
"  c #FCD380",
". c #FCD481",
"X c #FCD584",
"o c #FCD586",
"O c #FBD689",
"+ c #FBD68B",
"@ c #FCD688",
"# c #FBD88F",
"$ c #FBD992",
"% c #FAD993",
"& c #FADA95",
"* c #FADB98",
"= c #FADB99",
"- c #F9DC9D",
"; c #F9DD9E",
": c #F9DDA0",
"> c #F9DEA2",
", c #F9DEA3",
"< c #F9DEA4",
"1 c #F8DFA6",
"2 c #F8DFA7",
"3 c #F8E0A8",
"4 c #F8E1AB",
"5 c #F8E2AF",
"6 c #F7E2B0",
"7 c #F7E2B1",
"8 c #F7E3B2",
"9 c #F7E3B4",
"0 c #F7E4B6",
"q c #F6E5BA",
"w c #F6E5BB",
"e c #F6E6BE",
"r c #F6E7BF",
"t c #F6E7C1",
"y c #F6E8C2",
"u c #F6E8C3",
"i c #F5E8C4",
"p c #F5E9C5",
"a c #F5E9C6",
"s c #F5EAC9",
"d c #F5EBCB",
"f c #F5EBCC",
"g c #F4EBCD",
"h c #F5EBCD",
"j c #F4EBCE",
"k c #F4ECD1",
"l c #F4EDD3",
"z c #F4EDD4",
"x c #F4EED5",
"c c #F4EED6",
"v c #F4EED7",
"b c #F3EED8",
"n c #F3EFD9",
"m c #F3F0DB",
"M c #F3F0DC",
"N c #F3F1DF",
"B c #F3F1E0",
"V c #F2F1E1",
"C c #F3F1E1",
"Z c #F2F2E2",
"A c #F2F2E3",
"S c #F2F2E4",
"D c #F2F3E5",
"F c #F2F3E6",
"G c #F2F3E7",
"H c #F2F4E8",
"J c #F2F4E9",
"K c #F1F4EB",
"L c #F2F4EA",
"P c #F2F4EB",
"I c #F1F5EC",
"U c #F1F5ED",
"Y c #F1F5EE",
"T c #F1F6EE",
"R c #F1F6EF",
"E c #F1F6F0",
"W c #F1F6F1",
"Q c #F1F6F2",
"! c #F1F7F2",
"~ c #F1F7F3",
"^ c #F1F7F4",
"/ c None",
/* pixels */
"////////RRQQRRRRQQRRRQRRRQRRQQRRR/////////////////",
"////////QRRRRQQRRRRQRQRQRRQRRRRQQ/////////////////",
"////////QRRRRQRRRRRQQRRRQQRRQRRQR/////////////////",
"////////RRQQQRRQQQRRRRQQRRRQRQRRQ/////////////////",
"////////QRRRRQQRRRQRRQQRRRRQRRRQQR////////////////",
"////////RRQRRRRRQQRQRQQQQQQQQQRQQQ////////////////",
"////////RQRRQRRQQQQQQQQQQQQQQQQQQQQ///////////////",
"////////RQRQRQQQQQQQQQ^^^Q^^^^QQQQQQ//////////////",
"////////QQRRRQQQQ^^Q^^^^^^^^^^^^Q^QQQQ////////////",
"////////RRRQQRRQQQQ^^^^^^^^^^^^QQQQQQQRRQRQQQRQRQR",
"////////RRRQQQQRQQQQ^QQQ^QQQQQQQQQQRRRQQRRRRRRQRRR",
"////////QQRRRRRRQQRRQQRQQRQQQRQQQRRRRQRRRQRQRQRQQQ",
"////////RQRQRRRRRRPPPPPPPPPPPPPRRRRRRRRQRRRQQRRRRR",
"////////QRQRRRRPDDDDCCMCMCCMCCCDDPPPRRRRQQQRRRQRRQ",
"///////QQQQRRPPDCCMnvvvkkvkvvvnMBCDPPRRQQRQRRQQRRQ",
"//////QQQQQRRHDCMvkfsppyyyyppsfkvnBDPRRQQQQQQRRRQR",
"////QQQQ^QQRRPCMvfprw99888889wrpfvnDPPQQQQQQRRQQQR",
"QRQQQQQQ^QQRPDCbfyw8431,,-,1348wyfvMDPRQQQQQQRRRRQ",
"RRRRRQQ^^QQRPCMkpw81-*&$$$&&*-15wpknDPRQ^QQQRQRRRQ",
"RQQRRQQ^^^QRRCnfy91-&$OOXXX+$&-19yfnCRRQQ^^QQRQQRR",
"QQRRRQQQ^^QQPCbfr8,*#OX.  .XO#*15rsnCPQQ^^^QQQRRQQ",
"RRRQRQQQ^^QRRCbsr5,*#OX.  .XO#&,5rfnCPRQ^^^QQQQRRR",
"RRRQQQQQ^QQRPCnfr93-&$OOXO@O#&-39tfnDPRQ^^^QRQRRQR",
"QQRRQQQQ^QQQPDmkpw51-*&$$$&&*-18rpknDPRQ^QQQQRRQRR",
"RRQRRRQQQQQRRDCvfyw843,,,-,,139wyfvBDRRQQ^QQQRRQRQ",
"RQRRQQQQQQQQRDCnvsprw98888889wrpfvMCPPRQ^^QQQQ////",
"RRQQRQQQQQQRRPDCmvkfspyyyypppsfkvMCDPRRQQQQQ//////",
"QRRRRRQRRQQRRPPDDMMnvvvkkkkvvbnMBDDDPRRRQQQ///////",
"QRRRRQRQQRQQRPRPPDDCCCCCCMCCCCDDDPPRRRRRQQ////////",
"RRQQQRRRRQRRRRRRRPPRPPPPPPPPPPPPPRRRRRQQQQ////////",
"RQRRQRQRQRQRRQRRRQRRQRRQRRQRRQQRRRRRRRQRQR////////",
"RRQRRRQRRRRRQRQQQQQQ^QQ^QQ^QQQQQQQQQRQRRRQ////////",
"QQRRQRRQRRQRQQQQQ^^Q^^^^^^^^^^QQQQQQRQRRRR////////",
"////////////RQQQQ^^^^^^^^^^^^^^^^QQQQRRQQR////////",
"//////////////QQQ^QQ^^^^^^^^Q^QQQQQQRQRRRR////////",
"///////////////QQQQQQQQQQ^QQQQQQQQRQQRQQRQ////////",
"////////////////QQQQRQRQQQQQQRQQQRQRRQRRQR////////",
"////////////////RRRRQQRQRQRRQRRQQRRQRRQRRQ////////",
"/////////////////QRQRRRRRRQQRRRRRRRRQQRRRQ////////",
"/////////////////QRRRQQRQRRRRQQRRQQRRRRQRR////////",
"/////////////////QRRQRQRQRRRRQQRQRRRRQQRQR////////",
"/////////////////RQRQRRRRRQQRRRQRRQQRRRQQR////////"
};
