/* XPM */
static char *_[] = {
/* columns rows colors chars-per-pixel */
"50 50 65 1 ",
"  c #FAD993",
". c #FADA97",
"X c #FADB9A",
"o c #FADB9B",
"O c #F9DC9E",
"+ c #F9DDA1",
"@ c #F9DEA1",
"# c #F8DFA7",
"$ c #F8E0AA",
"% c #F8E2AF",
"& c #F7E2B0",
"* c #F7E3B2",
"= c #F7E3B4",
"- c #F7E4B5",
"; c #F7E4B7",
": c #F6E5B9",
"> c #F7E5B9",
", c #F6E6BE",
"< c #F6E7BF",
"1 c #F6E7C0",
"2 c #F5E8C4",
"3 c #F5E9C7",
"4 c #F5EAC9",
"5 c #F5EACA",
"6 c #F5EBCB",
"7 c #F4EBCE",
"8 c #F4ECCE",
"9 c #F4ECCF",
"0 c #F4EDD2",
"q c #F4EED5",
"w c #F4EED6",
"e c #F4EED7",
"r c #F3EFD8",
"t c #F3EFDB",
"y c #F3F0DB",
"u c #F3F0DC",
"i c #F3F0DE",
"p c #F3F1DE",
"a c #F3F1DF",
"s c #F3F1E0",
"d c #F2F1E1",
"f c #F3F1E1",
"g c #F2F2E2",
"h c #F2F2E3",
"j c #F2F2E5",
"k c #F2F3E5",
"l c #F2F3E7",
"z c #F2F3E8",
"x c #F2F4E8",
"c c #F2F4E9",
"v c #F1F4EB",
"b c #F1F5EB",
"n c #F2F4EA",
"m c #F1F5EC",
"M c #F1F5ED",
"N c #F1F5EE",
"B c #F1F6EE",
"V c #F1F6EF",
"C c #F1F6F0",
"Z c #F1F6F1",
"A c #F1F6F2",
"S c #F1F7F2",
"D c #F1F7F3",
"F c #F1F7F4",
"G c None",
/* pixels */
"GGGGGGGGGGCCCCCCCCCCCCCCCCCCCCGGGGGGGGGGGGGGGGGGGG",
"GGGGGGGGGGCCCCCCCCCCCCCCCCCCCCGGGGGGGGGGGGGGGGGGGG",
"GGGGGGGGGGCCCCCCCCCCCCCCCCCCCCGGGGGGGGGGGGGGGGGGGG",
"GGGGGGGGGGCCCCCCCCCCCCCCCCCCCCGGGGGGGGGGGGGGGGGGGG",
"GGGGGGGGGGCCCCCCCCCCCCCCCCCCCCGGGGGGGGGGGGGGGGGGGG",
"GGGGGGGGGGCCCCCCCCCCCCCCCCCCCCGGGGGGGGGGGGGGGGGGGG",
"GGGGGGGGGGCCCCCCCCCCCCCCCCCCCCCGGGGGGGGGGGGGGGGGGG",
"GGGGGGGGGGCCCCCCCCCCCCFCCFFCFCFGGGGGGGGGGGGGGGGGGG",
"GGGGGGGGGGCCCCCCCFCFCFFCFFCFFCFCGGGGGGGGGGGGGGGGGG",
"GGGGGGGGGGVCCCCCCCCCFCFFFFFFFFCFFCGGGGGGGGGGGGGGGG",
"GGGGGGGGGGCCCCCCCCCFCFFFFFFFFFFFFCCCCCCCCCCCCCCCCC",
"GGGGGGGGGGVCCCCCCFCFCFFFFFFFFFFCCCCCCCCCCCCCCCCCCC",
"GGGGGGGGGGCCCCCCCCCFCCCFFCFCCCFCCCCCCCCCCCCCCCCCCC",
"GGGGGGGGGGCCCCCCCCCCVVCCCCCCCCCCCCCCCCCCCCCCCCCCCC",
"GGGGGGGGGGCCCCCCVVCVVVnVVVVnVVCVVVCCCCCCCCCCCCCCCC",
"GGGGGGGGGGCCCCCVVVnVnnzllllllnnVVVCCCCCCCCCCCCCCCC",
"GGGGGGGGGCCCVVVVVnnllffffafffllznVVVVCCCCCCCCCCCCC",
"GGGGGGGGGCFFCVVVnllfatrqqqrrtaflznVVCCCFFCCCCCCCCC",
"GGGGGGGGFFFCCCVVzlatr00655560rrflznVCCCCFCCCCCCCCC",
"GGGGGGCCFCCFCCVnlftq6521,,1256qtflnVCCFCCCFCCCCCCC",
"CCCCCCFFFFFFFCVnlaq021>-*&=>,56ralnVCCFFFCCCCCCCCC",
"CCCCCCCCCFFFCCVzfr051>&$##$&-150tfzVCFCCFFFCCCCCCC",
"CCCCCCCCFFFCFCVzfr92>&#@OO@#&>26rflVCFFFFFCCCCCCCC",
"CCCCCCCCFFFFCCnlfq61-$@o.oo@$-16qalVCFFFFCCCCCCCCC",
"CCCCCCCFFFFFFCnlfq5,&#O.  .O#&,5qalnCCFFFFFCCCCCCC",
"CCCCCCCCCFFFCCVlaq51*#O.  .O#&,5qalVCCFFFFCCCCCCCC",
"CCCCCCCFFFFFFCVlfq61-$@o..o@$=16qflVCFFFFCFCCCCCCC",
"CCCCCCCCCFFFFCVlfr62>&#@OO@#&>20rflnCFFFFFCCCCCCCC",
"CCCCCCCFFCFFCVVzfr051>&$##$&-150rlzVCFFFFFCCCCCCCC",
"CCCCCCCCCFFCCVVnlar621>=&*->150qafnVCCFCFCFCCCCCCC",
"CCCCCCCCCFCFCCVzlfa06521,,1250qtflVCCCFFCFCCGGGGGG",
"CCCCCCCFCFCFCCVVzlftq00655660qtflnnCCCCFFFGGGGGGGG",
"CCCCCCCCCCCCCCCCnllfarrqqqqrrafllnVVCCFFCGGGGGGGGG",
"CCCCCCCCCCFCCCCCVnlllfffaaffflznnVVVCCCCFGGGGGGGGG",
"CCCCCCCCCCCCCCCVVVnVnlllllznnnVVVVVVCCCCGGGGGGGGGG",
"CCCCCCCCCCCCCCCCVVVCVVVnnVnVnVVCVVVVCCCCGGGGGGGGGG",
"CCCCCCCCCCCCCCCCCCCCCCCCCCCCCCCCVCCCCCCCGGGGGGGGGG",
"CCCCCCCCCVCCCCCCCCFCFCFCFCCFCFCCCCCCCCCCGGGGGGGGGG",
"CCCCCCCCCCCCCCCCCFCFFFFFFFFCFCFFCCCCCCCCGGGGGGGGGG",
"CCCCCCCCVCCCCCCCCCFCFFFFFFFFFFCCCCCCCCCCGGGGGGGGGG",
"GGGGGGGGGGGGGGGGFCFFFFFFFFFFFFCCCCCCCCCCGGGGGGGGGG",
"GGGGGGGGGGGGGGGGGGCFFCFFFCFCCCFCCCCCCCCCGGGGGGGGGG",
"GGGGGGGGGGGGGGGGGGGCCFCFCFCFCCCCCCCCCCCCGGGGGGGGGG",
"GGGGGGGGGGGGGGGGGGGCCCCCCCCFCCCCCCCCCCCCGGGGGGGGGG",
"GGGGGGGGGGGGGGGGGGGGCCCCCCCCCCCCCCCCCCCCGGGGGGGGGG",
"GGGGGGGGGGGGGGGGGGGGCCCCCCCCCCCCCCCCCCCCGGGGGGGGGG",
"GGGGGGGGGGGGGGGGGGGGCCCCCCCCCCCCCCCCCCCCGGGGGGGGGG",
"GGGGGGGGGGGGGGGGGGGGCCCCCCCCCCCCCCCCCCCCGGGGGGGGGG",
"GGGGGGGGGGGGGGGGGGGGCCCCCCCCCCCCCCCCCCCCGGGGGGGGGG",
"GGGGGGGGGGGGGGGGGGGGCCCCCCCCCCCCCCCCCCCCGGGGGGGGGG"
};
