/* XPM */
static char *_[] = {
/* columns rows colors chars-per-pixel */
"50 42 98 2 ",
"   c #FCD380",
".  c #FCD482",
"X  c #FCD585",
"o  c #FCD587",
"O  c #FBD688",
"+  c #FBD689",
"@  c #FBD78B",
"#  c #FBD88E",
"$  c #FBD88F",
"%  c #FAD993",
"&  c #FAD994",
"*  c #FADA95",
"=  c #FADA96",
"-  c #FADA97",
";  c #FADB98",
":  c #FADB99",
">  c #FADB9B",
",  c #F9DC9D",
"<  c #F9DD9E",
"1  c #F9DEA1",
"2  c #F9DEA2",
"3  c #F9DEA3",
"4  c #F9DEA4",
"5  c #F8DFA6",
"6  c #F8DFA7",
"7  c #F8E0A8",
"8  c #F8E0A9",
"9  c #F8E0AA",
"0  c #F8E1AB",
"q  c #F8E1AD",
"w  c #F8E1AE",
"e  c #F8E2AF",
"r  c #F7E3B2",
"t  c #F7E3B3",
"y  c #F7E3B4",
"u  c #F7E4B6",
"i  c #F7E4B7",
"p  c #F8E2B0",
"a  c #F6E5BA",
"s  c #F6E6BB",
"d  c #F6E6BC",
"f  c #F6E6BD",
"g  c #F6E6BE",
"h  c #F6E7BE",
"j  c #F6E7BF",
"k  c #F6E7C1",
"l  c #F5E8C3",
"z  c #F6E8C3",
"x  c #F5E8C4",
"c  c #F5E8C5",
"v  c #F5E9C5",
"b  c #F5E9C6",
"n  c #F5EAC8",
"m  c #F5EAC9",
"M  c #F5EACA",
"N  c #F5EACB",
"B  c #F5EBCC",
"V  c #F4EBCD",
"C  c #F5EBCD",
"Z  c #F4ECD0",
"A  c #F4ECD1",
"S  c #F4EDD3",
"D  c #F4EDD4",
"F  c #F4EED5",
"G  c #F4EED6",
"H  c #F4EED7",
"J  c #F3EED8",
"K  c #F3EFD9",
"L  c #F3EFDA",
"P  c #F3F0DB",
"I  c #F3F0DC",
"U  c #F3F1DF",
"Y  c #F2F1E1",
"T  c #F3F1E1",
"R  c #F2F1E2",
"E  c #F2F2E2",
"W  c #F2F2E3",
"Q  c #F2F2E4",
"!  c #F2F3E5",
"~  c #F2F3E6",
"^  c #F2F3E7",
"/  c #F2F4E8",
"(  c #F2F4E9",
")  c #F1F4EB",
"_  c #F2F4EA",
"`  c #F2F4EB",
"'  c #F1F5EC",
"]  c #F1F5ED",
"[  c #F1F5EE",
"{  c #F1F6EE",
"}  c #F1F6EF",
"|  c #F1F6F0",
" . c #F1F6F1",
".. c #F1F6F2",
"X. c #F1F7F2",
"o. c #F1F7F3",
"O. c #F1F7F4",
"+. c None",
/* pixels */
"+.+.+.+.+.+.+.+.+.+.+.+.+.+.+.+.+.| | | | | | | | | | | | | | | | +.+.+.+.+.+.+.+.+.+.+.+.+.+.+.+.+.",
"+.+.+.+.+.+.+.+.+.+.+.+.+.+.+.+.+.| | | | | | | | | | | | | | | | +.+.+.+.+.+.+.+.+.+.+.+.+.+.+.+.+.",
"+.+.+.+.+.+.+.+.+.+.+.+.+.+.+.+.+.| | | | | | | | | | | | | | | | +.+.+.+.+.+.+.+.+.+.+.+.+.+.+.+.+.",
"+.+.+.+.+.+.+.+.+.+.+.+.+.+.+.+.+.| | | | | | | | | | | | | | | | +.+.+.+.+.+.+.+.+.+.+.+.+.+.+.+.+.",
"+.+.+.+.+.+.+.+.+.+.+.+.+.+.+.+.| | | | | | | | | | | | | | | | | +.+.+.+.+.+.+.+.+.+.+.+.+.+.+.+.+.",
"+.+.+.+.+.+.+.+.+.+.+.+.+.+.+.+.| | | | O.| | | | O.| | O.| | | | +.+.+.+.+.+.+.+.+.+.+.+.+.+.+.+.+.",
"+.+.+.+.+.+.+.+.+.+.+.+.+.+.+.| O.O.| | | | O.| O.| O.| O.| O.| O.+.+.+.+.+.+.+.+.+.+.+.+.+.+.+.+.+.",
"+.+.+.+.+.+.+.+.+.+.+.+.+.+.| O.O.| O.O.O.O.O.O.O.O.| O.O.O.O.O.| +.+.+.+.+.+.+.+.+.+.+.+.+.+.+.+.+.",
"+.+.+.+.+.+.+.+.+.+.+.+.| | O.| | O.O.O.O.O.O.O.O.O.O.O.O.O.O.O.O.+.+.+.+.+.+.+.+.+.+.+.+.+.+.+.+.+.",
"| | | | | | | | | | | | | | | O.O.O.| O.O.O.O.O.O.O.O.O.O.O.O.O.O.+.+.+.+.+.+.+.+.+.+.+.+.+.+.+.+.+.",
"| | | | | | | | | | | | | | | | | O.| O.| O.| O.O.| O.| O.| O.O.O.+.+.+.+.+.+.+.+.+.+.+.+.+.+.+.+.+.",
"| | | | | | | | | | | | | | | { | | | | | | | | | | | | | | | | | +.+.+.+.+.+.+.+.+.+.+.+.+.+.+.+.+.",
"| | | | | | | | | | | | | | { { { { _ _ _ _ _ _ _ _ _ _ _ _ _ _ _ _ +.+.+.+.+.+.+.+.+.+.+.+.+.+.+.+.",
"| | | | | | | | | | | | | | { _ _ ! ! ! T U T T T T T T T T T T T ! +.+.+.+.+.+.+.+.+.+.+.+.+.+.+.+.",
"| | | | | | | | O.| | | { { _ ! T U I J H H S S S S S S S H J H J J +.+.+.+.+.+.+.+.+.+.+.+.+.+.+.+.",
"| | | | | | | | | O.| | { _ ! T J H S B N v v v z z v v v v N N B S H +.+.+.+.+.+.+.+.+.+.+.+.+.+.+.",
"| | | | | | | O.| O.| | { _ ! J H B v j s y p p y p p y u s s j k N S H T +.+.+.+.+.+.+.+.+.+.+.+.+.",
"| | | | | | | | O.O.| | _ ! U H B z s p e 5 5 3 3 5 3 5 5 7 e p s v N H T _ { O.O.O.O.| | | | | | | ",
"| | | | | | | O.O.| | | _ ! J S v s p 5 , ; - % % % % - ; , 3 7 p j N S T ^ | O.O.O.O.O.O.| | | | | ",
"| | | | | O.O.| O.O.| { { T J B k y 7 , - $ + o o o + + $ % ; 5 e j v H T _ { | O.O.O.| | | | | | | ",
"| | | | | | O.O.O.O.| | _ T H N j e 3 ; $ + o         o + # - 3 e s N H T _ | O.O.O.| O.| | | | | | ",
"| | | | | O.| O.O.O.O.| _ T H N s e 3 - $ + o         o + % - 3 p j N H T _ | | O.O.O.O.| | | | | | ",
"| | | | | | | O.O.O.| | _ T H N s p 5 > % $ @ o o o + + # - , 5 p k V J ! _ | | O.O.O.| | | | | | | ",
"| | | | | | | O.O.O.O.| ^ U H N j p 7 3 , ; - - % % % - ; , 5 e j v S L ! _ | O.O.| | O.| | | | | | ",
"| | | | | | O.O.O.O.| | _ T H B z s p e 7 5 3 5 3 3 3 5 5 7 p j z B H I ^ { | | O.| O.| | | | | | | ",
"+.+.+.+.+.+.+.+.+.+.+.+.+.T J S N k j s s u y p p p p y u s j v N H J ! ! { | | | O.| O.| | | | | | ",
"+.+.+.+.+.+.+.+.+.+.+.+.+.+.+.H V B N v v v z v v z z v v N B S J I T ! _ { { | O.| | | | | | | | | ",
"+.+.+.+.+.+.+.+.+.+.+.+.+.+.+.+.J J H H S H S H H S S S H J J J I ! ! _ { { | | | | | O.| | | | | | ",
"+.+.+.+.+.+.+.+.+.+.+.+.+.+.+.+.! T T T T T T T T T T T T T ! ! ! ^ { _ | | | | | O.| | | | | | | | ",
"+.+.+.+.+.+.+.+.+.+.+.+.+.+.+.+._ _ _ { _ { _ _ _ _ _ _ _ _ { _ { { { { | | | | | | | | | | | | | | ",
"+.+.+.+.+.+.+.+.+.+.+.+.+.+.+.+.+.| | { | | | | | | | | | | { { | | | | | | | | | | | | | | | | | | ",
"+.+.+.+.+.+.+.+.+.+.+.+.+.+.+.+.+.O.O.| | O.| O.O.| O.| O.| O.| O.| | | | | | | | | | | | | | | | | ",
"+.+.+.+.+.+.+.+.+.+.+.+.+.+.+.+.+.O.O.O.O.O.O.O.O.O.O.O.O.O.O.O.O.O.| | | | | | | | | | | | | | | | ",
"+.+.+.+.+.+.+.+.+.+.+.+.+.+.+.+.+.O.O.O.O.O.O.O.O.O.O.O.O.O.O.| O.| | O.| O.+.+.+.+.+.+.+.+.+.+.+.+.",
"+.+.+.+.+.+.+.+.+.+.+.+.+.+.+.+.+.O.O.O.O.O.O.O.O.O.O.| O.O.O.O.O.| O.| +.+.+.+.+.+.+.+.+.+.+.+.+.+.",
"+.+.+.+.+.+.+.+.+.+.+.+.+.+.+.+.+.| | O.| O.| O.| O.| O.O.| | O.| O.| +.+.+.+.+.+.+.+.+.+.+.+.+.+.+.",
"+.+.+.+.+.+.+.+.+.+.+.+.+.+.+.+.+.O.| | | | | | | | | | O.| | | | | +.+.+.+.+.+.+.+.+.+.+.+.+.+.+.+.",
"+.+.+.+.+.+.+.+.+.+.+.+.+.+.+.+.+.| | | | | | | | | | | | | | | | | +.+.+.+.+.+.+.+.+.+.+.+.+.+.+.+.",
"+.+.+.+.+.+.+.+.+.+.+.+.+.+.+.+.+.| | | | | | | | | | | | | | | | +.+.+.+.+.+.+.+.+.+.+.+.+.+.+.+.+.",
"+.+.+.+.+.+.+.+.+.+.+.+.+.+.+.+.+.| | | | | | | | | | | | | | | | +.+.+.+.+.+.+.+.+.+.+.+.+.+.+.+.+.",
"+.+.+.+.+.+.+.+.+.+.+.+.+.+.+.+.+.| | | | | | | | | | | | | | | | +.+.+.+.+.+.+.+.+.+.+.+.+.+.+.+.+.",
"+.+.+.+.+.+.+.+.+.+.+.+.+.+.+.+.+.| | | | | | | | | | | | | | | | +.+.+.+.+.+.+.+.+.+.+.+.+.+.+.+.+."
};
