/* XPM */
static char *_[] = {
/* columns rows colors chars-per-pixel */
"50 33 142 2 ",
"   c #FFCC68",
".  c #FFCC69",
"X  c #FFCC6A",
"o  c #FECD6B",
"O  c #FECD6C",
"+  c #FECD6E",
"@  c #FECE6F",
"#  c #FECE71",
"$  c #FECF71",
"%  c #FECF72",
"&  c #FECF73",
"*  c #FDCF74",
"=  c #FDD076",
"-  c #FDD077",
";  c #FDD179",
":  c #FDD27B",
">  c #FDD27C",
",  c #FCD37E",
"<  c #FCD381",
"1  c #FCD482",
"2  c #FCD585",
"3  c #FCD586",
"4  c #FCD587",
"5  c #FCD687",
"6  c #FBD689",
"7  c #FBD68A",
"8  c #FBD78C",
"9  c #FBD88E",
"0  c #FBD88F",
"q  c #FBD890",
"w  c #FBD891",
"e  c #FAD992",
"r  c #FAD994",
"t  c #FADA94",
"y  c #FADA95",
"u  c #FADA96",
"i  c #FADA97",
"p  c #FADB99",
"a  c #FADB9A",
"s  c #FADC9B",
"d  c #F9DC9C",
"f  c #F9DC9D",
"g  c #F9DC9E",
"h  c #F9DD9F",
"j  c #F9DDA0",
"k  c #F9DEA1",
"l  c #F9DEA3",
"z  c #F9DEA4",
"x  c #F9DFA5",
"c  c #F9DFA6",
"v  c #F8DFA7",
"b  c #F8DFA8",
"n  c #F8E0A9",
"m  c #F8E0AA",
"M  c #F8E1AB",
"N  c #F8E1AC",
"B  c #F8E1AD",
"V  c #F8E2AE",
"C  c #F8E2AF",
"Z  c #F7E2B0",
"A  c #F7E2B1",
"S  c #F7E3B2",
"D  c #F7E3B3",
"F  c #F7E3B4",
"G  c #F7E4B5",
"H  c #F7E4B6",
"J  c #F7E4B7",
"K  c #F7E5B8",
"L  c #F6E5BA",
"P  c #F6E5BB",
"I  c #F6E6BC",
"U  c #F6E6BD",
"Y  c #F6E6BE",
"T  c #F6E7BE",
"R  c #F6E7BF",
"E  c #F6E7C1",
"W  c #F6E8C2",
"Q  c #F6E8C3",
"!  c #F5E8C4",
"~  c #F5E9C5",
"^  c #F5E9C6",
"/  c #F5E9C7",
"(  c #F5E9C8",
")  c #F5EAC8",
"_  c #F5EAC9",
"`  c #F5EACA",
"'  c #F5EACB",
"]  c #F5EBCB",
"[  c #F5EBCD",
"{  c #F4EBCE",
"}  c #F4ECCE",
"|  c #F4ECCF",
" . c #F4ECD0",
".. c #F4ECD1",
"X. c #F4EDD1",
"o. c #F4EDD2",
"O. c #F4EDD3",
"+. c #F4EDD4",
"@. c #F4EDD5",
"#. c #F4EED5",
"$. c #F4EED6",
"%. c #F4EED7",
"&. c #F3EED8",
"*. c #F3EFD9",
"=. c #F3EFDA",
"-. c #F3EFDB",
";. c #F3F0DB",
":. c #F3F0DC",
">. c #F3F0DD",
",. c #F3F0DE",
"<. c #F3F1DF",
"1. c #F3F1E0",
"2. c #F2F1E1",
"3. c #F3F1E1",
"4. c #F2F1E2",
"5. c #F2F2E2",
"6. c #F2F2E4",
"7. c #F2F2E5",
"8. c #F2F3E5",
"9. c #F2F3E6",
"0. c #F2F3E7",
"q. c #F2F3E8",
"w. c #F2F4E9",
"e. c #F1F5EB",
"r. c #F2F4EA",
"t. c #F2F4EB",
"y. c #F1F5EC",
"u. c #F1F5ED",
"i. c #F1F5EE",
"p. c #F1F6EF",
"a. c #F1F6F0",
"s. c #F1F6F1",
"d. c #F1F7F2",
"f. c #F1F7F3",
"g. c #F1F7F4",
"h. c #F1F7F5",
"j. c #F0F8F5",
"k. c #F0F8F6",
"l. c #F0F8F7",
"z. c #F0F8F8",
"x. c #F0F9F8",
"c. c None",
/* pixels */
"c.c.c.c.c.c.c.c.c.c.c.c.c.c.c.c.c.x.x.x.x.x.x.x.x.x.x.x.x.x.j.j.j.g.a.a.a.a.a.a.a.c.c.c.c.c.c.c.c.c.",
"c.c.c.c.c.c.c.c.c.c.c.c.c.c.c.c.c.j.j.j.j.j.j.j.j.j.j.j.j.j.j.g.j.a.a.g.a.a.a.a.a.c.c.c.c.c.c.c.c.c.",
"c.c.c.c.c.c.c.c.c.c.c.c.c.c.c.c.c.p.a.g.a.a.a.a.a.a.a.a.a.a.a.a.a.a.a.a.a.a.a.a.a.c.c.c.c.c.c.c.c.c.",
"c.c.c.c.c.c.c.c.c.c.c.c.c.c.c.c.c.p.p.p.p.p.p.r.p.p.p.p.p.p.p.a.p.p.p.p.a.a.a.a.a.a.c.c.c.c.c.c.c.c.",
"c.c.c.c.c.c.c.c.c.c.c.c.c.c.c.c.0.0.0.0.0.0.0.0.0.0.0.0.0.0.0.0.r.r.p.p.a.a.a.a.a.a.c.c.c.c.c.c.c.c.",
"c.c.c.c.c.c.c.c.c.c.c.c.c.c.c.c.<.<.*.<.<.;.*.<.*.*.*.<.<.<.<.3.3.0.r.r.p.a.a.a.a.j.c.c.c.c.c.c.c.c.",
"c.c.c.c.c.c.c.c.c.c.c.c.c.c.c.*.+.+.O.O.} O.[ [ [ [ } } O.O.+.*.<.<.0.0.r.p.a.a.a.a.j.c.c.c.c.c.c.c.",
"c.c.c.c.c.c.c.c.c.c.c.c.c.c.;.+.O._ _ ! W W E T T T T E W ! _ [ O.*.<.0.r.p.a.a.j.a.a.a.c.c.c.c.c.c.",
"a.a.a.a.a.a.g.g.j.g.a.a.r.3.;.O._ W T K F D Z C C C C Z D J T W _ O.;.3.r.p.a.a.g.a.j.a.a.a.a.a.a.a.",
"a.a.a.a.a.a.a.j.g.g.a.a.r.3.*.[ W K Z n z l l l f f l l z n C K W [ +.<.0.r.a.g.g.g.g.a.a.a.a.a.a.a.",
"a.a.a.a.a.g.a.g.g.j.g.a.r.3.%._ T D n l s u q q 9 9 q q u s l C K ! } <.3.r.p.a.a.j.a.g.g.a.a.a.a.a.",
"a.a.a.a.a.a.a.g.g.j.a.a.r.3.+._ K C l u 9 7 3 < < < < 3 7 9 p l Z T _ *.3.p.p.a.g.j.g.g.a.a.a.a.a.a.",
"a.a.a.a.a.a.a.j.g.g.g.a.r.3.+._ K n f q 5 < > : = = : : < 5 q f C K _ +.3.r.a.a.g.g.a.a.a.a.a.a.a.a.",
"a.a.a.a.a.a.a.g.g.g.a.p.r.3.+.! K n p 8 < : = & & + & = : < 8 p z J ! +.3.r.a.j.g.g.g.j.a.a.a.a.a.a.",
"a.a.a.a.a.a.g.g.g.g.a.a.r.<.+.! J z u 5 > = & + o + + & : > 7 u z J ! O.3.r.a.a.g.j.g.a.g.a.a.a.a.a.",
"a.a.a.a.a.a.a.j.g.g.g.a.r.<.O.! J z u 3 : & + o   o o + & > 3 u l J ! O.<.r.a.a.g.j.j.a.a.a.a.a.a.a.",
"a.a.a.a.a.a.g.a.g.g.a.a.r.3.+.! D l u 3 : & + o o   o o & : 3 u z F ! O.3.r.p.a.j.g.a.g.a.a.a.a.a.a.",
"a.a.a.a.a.a.a.g.j.j.g.a.r.3.+.! F z u 3 > = + o o   o + & : 5 q z J ! O.<.r.a.g.j.g.j.a.a.a.a.a.a.a.",
"a.a.a.a.a.g.g.g.g.g.a.a.r.3.+.! J z u 3 > = & + o o + & : > 7 u z K ! +.3.r.p.a.g.g.g.a.a.a.a.a.a.a.",
"a.a.a.a.a.a.a.j.g.g.a.p.r.3.+.! J n p 8 < : = & + & & = : < 8 p z J _ +.3.r.p.a.g.g.g.g.g.a.a.a.a.a.",
"a.a.a.a.a.g.a.a.g.j.a.a.r.3.+._ K n f q 5 < > : = : : > < 3 q f n K _ +.3.r.a.a.g.g.g.a.a.a.a.a.a.a.",
"a.a.a.a.a.a.j.g.g.a.g.a.r.3.*._ T D z p q 7 3 < < < < 3 7 9 u l C K _ +.3.r.a.g.g.g.g.g.a.a.a.a.a.a.",
"a.a.a.a.a.a.g.a.g.g.a.a.r.0.*.O.! K C l f u q q 8 9 q q u p l z F T [ +.3.r.p.a.g.g.g.a.a.a.a.a.a.a.",
"a.a.a.a.a.a.a.j.a.j.a.a.r.0.<.+._ W J C n z l f f f f l z z C D K W [ *.3.r.a.g.g.g.a.g.a.a.a.a.a.a.",
"a.a.a.a.a.a.a.j.j.a.g.a.p.r.3.*.+._ ! T K D D Z C C C D D J J T W _ O.*.3.r.a.a.g.g.j.a.a.a.a.a.a.a.",
"c.c.c.c.c.c.g.a.a.g.a.a.p.r.0.<.*.+.} _ ! W E T T T T E W W ! ! _ O.+.;.c.c.c.c.c.c.c.c.c.c.c.c.c.c.",
"c.c.c.c.c.c.c.a.g.a.a.a.p.r.r.0.3.<.+.+.O.O.} } } [ } [ } } O.O.+.+.;.c.c.c.c.c.c.c.c.c.c.c.c.c.c.c.",
"c.c.c.c.c.c.c.c.a.a.a.a.p.r.r.r.0.0.3.<.<.;.;.*.;.;.;.<.<.<.;.<.<.3.c.c.c.c.c.c.c.c.c.c.c.c.c.c.c.c.",
"c.c.c.c.c.c.c.c.a.a.a.a.p.p.p.p.r.r.0.0.0.0.0.0.0.0.0.0.0.0.0.0.0.0.c.c.c.c.c.c.c.c.c.c.c.c.c.c.c.c.",
"c.c.c.c.c.c.c.c.a.a.a.a.p.p.p.a.p.p.p.p.p.p.r.p.r.r.p.p.r.p.p.r.p.c.c.c.c.c.c.c.c.c.c.c.c.c.c.c.c.c.",
"c.c.c.c.c.c.c.c.c.a.a.a.a.a.a.a.a.a.a.a.a.g.g.a.a.a.a.g.g.a.a.a.a.c.c.c.c.c.c.c.c.c.c.c.c.c.c.c.c.c.",
"c.c.c.c.c.c.c.c.c.a.a.a.a.a.g.a.j.a.g.g.j.j.j.j.j.x.j.j.j.j.j.j.j.c.c.c.c.c.c.c.c.c.c.c.c.c.c.c.c.c.",
"c.c.c.c.c.c.c.c.c.a.a.a.a.a.g.g.g.j.j.j.j.x.x.x.x.x.x.x.x.x.x.x.x.c.c.c.c.c.c.c.c.c.c.c.c.c.c.c.c.c."
};
