/* XPM */
static char *_[] = {
/* columns rows colors chars-per-pixel */
"50 42 109 2 ",
"   c #FCD380",
".  c #FCD481",
"X  c #FCD482",
"o  c #FCD584",
"O  c #FCD585",
"+  c #FCD587",
"@  c #FBD688",
"#  c #FBD689",
"$  c #FBD78B",
"%  c #FBD88F",
"&  c #FBD890",
"*  c #FAD992",
"=  c #FAD993",
"-  c #FAD994",
";  c #FADA95",
":  c #FADA96",
">  c #FADA97",
",  c #FADB98",
"<  c #FADB99",
"1  c #FADB9B",
"2  c #F9DC9D",
"3  c #F9DC9E",
"4  c #F9DD9F",
"5  c #F9DDA0",
"6  c #F9DEA1",
"7  c #F9DEA2",
"8  c #F9DEA3",
"9  c #F9DEA4",
"0  c #F9DFA5",
"q  c #F8DFA6",
"w  c #F8DFA7",
"e  c #F8E0A8",
"r  c #F8E0A9",
"t  c #F8E1AB",
"y  c #F8E1AD",
"u  c #F7E2B0",
"i  c #F7E2B1",
"p  c #F7E3B2",
"a  c #F7E3B3",
"s  c #F7E3B4",
"d  c #F7E4B5",
"f  c #F7E4B6",
"g  c #F7E5B8",
"h  c #F6E5BA",
"j  c #F6E5BB",
"k  c #F6E6BB",
"l  c #F6E6BC",
"z  c #F6E6BE",
"x  c #F6E7BF",
"c  c #F6E7C0",
"v  c #F6E7C1",
"b  c #F5E8C3",
"n  c #F6E8C3",
"m  c #F5E8C4",
"M  c #F5E8C5",
"N  c #F5E9C5",
"B  c #F5E9C6",
"V  c #F5E9C7",
"C  c #F5EAC9",
"Z  c #F5EACA",
"A  c #F5EBCB",
"S  c #F5EBCC",
"D  c #F4EBCD",
"F  c #F5EBCD",
"G  c #F4EBCE",
"H  c #F4ECD1",
"J  c #F4EDD2",
"K  c #F4EDD3",
"L  c #F4EDD4",
"P  c #F4EED5",
"I  c #F4EED6",
"U  c #F4EED7",
"Y  c #F3EED8",
"T  c #F3EFD9",
"R  c #F3F0DC",
"E  c #F3F1DF",
"W  c #F3F1E0",
"Q  c #F2F1E1",
"!  c #F3F1E1",
"~  c #F2F2E2",
"^  c #F2F2E3",
"/  c #F2F2E4",
"(  c #F2F2E5",
")  c #F2F3E5",
"_  c #F2F3E6",
"`  c #F2F3E7",
"'  c #F2F4E8",
"]  c #F2F4E9",
"[  c #F1F4EB",
"{  c #F1F5EB",
"}  c #F2F4EA",
"|  c #F2F4EB",
" . c #F1F5EC",
".. c #F1F5ED",
"X. c #F1F5EE",
"o. c #F1F6EE",
"O. c #F1F6EF",
"+. c #F1F6F0",
"@. c #F1F6F1",
"#. c #F1F6F2",
"$. c #F1F7F2",
"%. c #F1F7F3",
"&. c #F1F7F4",
"*. c #F1F7F5",
"=. c #F0F8F5",
"-. c #F1F8F5",
";. c #F0F8F6",
":. c #F0F8F7",
">. c None",
/* pixels */
">.>.>.>.>.>.>.>.>.>.>.>.>.>.>.>.>.>.>.>.>.>.>.>.>.+.+.+.+.+.+.+.+.+.+.+.+.+.+.+.+.+.>.>.>.>.>.>.>.>.",
">.>.>.>.>.>.>.>.>.>.>.>.>.>.>.>.>.>.>.>.>.>.>.>.>.+.+.+.+.+.+.+.+.+.+.+.+.+.+.+.+.+.>.>.>.>.>.>.>.>.",
">.>.>.>.>.>.>.>.>.>.>.>.>.>.>.>.>.>.>.>.>.>.>.>.>.+.+.+.+.+.+.+.+.+.+.+.+.+.+.+.+.+.>.>.>.>.>.>.>.>.",
">.>.>.>.>.>.>.>.>.>.>.>.>.>.>.>.>.>.>.>.>.>.>.>.>.+.+.+.+.+.+.+.+.+.+.+.+.+.+.+.+.+.>.>.>.>.>.>.>.>.",
">.>.>.>.>.>.>.>.>.>.>.>.>.>.>.>.>.>.>.>.>.>.>.>.>.+.+.+.+.+.+.+.+.+.+.+.+.+.+.+.+.+.>.>.>.>.>.>.>.>.",
">.>.>.>.>.>.>.>.>.>.>.>.>.>.>.>.>.>.>.>.>.>.>.>.+.&.+.+.+.+.&.+.+.+.+.+.+.+.+.+.+.+.>.>.>.>.>.>.>.>.",
">.>.>.>.>.>.>.>.>.>.>.>.>.>.>.>.>.>.>.>.>.>.>.>.-.&.+.&.&.+.+.&.+.&.+.&.+.+.+.+.+.+.>.>.>.>.>.>.>.>.",
">.>.>.>.>.>.>.>.>.>.>.>.>.>.>.>.>.>.>.>.>.>.>.:.-.-.&.&.&.&.-.+.+.&.+.+.+.+.+.+.+.+.>.>.>.>.>.>.>.>.",
">.>.>.>.>.>.>.>.>.>.>.>.>.>.>.>.>.>.>.>.:.:.:.-.-.-.-.-.-.&.&.+.+.&.+.&.+.+.+.+.+.+.>.>.>.>.>.>.>.>.",
"+.+.+.+.+.+.+.+.+.+.+.+.+.+.&.+.&.-.-.-.:.:.-.-.-.:.-.-.&.&.&.&.&.&.+.+.+.+.+.+.+.+.>.>.>.>.>.>.>.>.",
"+.+.+.+.+.+.+.+.+.+.+.+.+.+.+.+.+.&.+.&.&.&.&.&.-.&.+.&.-.+.+.&.+.+.+.+.+.+.+.+.+.+.>.>.>.>.>.>.>.>.",
"+.+.+.+.+.+.+.+.+.+.+.+.+.+.+.o.+.+.+.+.+.+.o.o.+.+.+.+.+.+.+.+.+.+.+.+.+.+.+.+.+.+.>.>.>.>.>.>.>.>.",
"+.+.+.+.+.+.+.+.+.+.+.+.+.+.o.o.o.o.} } } } } } } } } } } o.} o.o.o.o.o.+.+.+.+.+.+.>.>.>.>.>.>.>.>.",
"+.+.+.+.+.+.+.+.+.+.+.+.+.+.o.} } ) ) Q Q Q Q Q Q Q R Q Q Q Q ) ' } } } +.+.+.+.+.+.>.>.>.>.>.>.>.>.",
"+.+.+.+.+.+.+.+.&.+.+.+.o.o.} ) Q Q R T I I I H H H H I I I T R Q Q ) } o.o.+.+.&.+.&.>.>.>.>.>.>.>.",
"+.+.+.+.+.+.+.+.+.&.+.+.o.} ) Q R T H G C N N N n N n N N C S H I R Q ) } o.+.+.+.+.&.+.>.>.>.>.>.>.",
"+.+.+.+.+.+.+.&.&.+.+.+.o.} Q R I S N v l k s i p i i p d k l C S I T ) ' o.+.+.&.+.&.+.&.+.>.>.>.>.",
"+.+.+.+.+.+.+.+.+.&.+.+.} ) Q T S N k s y r w 8 8 8 8 w w r i k N S I R ) } +.&.&.&.+.&.+.+.+.+.+.+.",
"+.+.+.+.+.+.+.&.-.&.&.+.} ) R H N l i w 3 1 > > & & > > , 3 w y k N H T ) o.o.+.&.&.-.+.+.+.+.+.+.+.",
"+.+.+.+.+.&.&.+.&.&.+.+.} Q T S n s r 3 > & @ @ + + @ $ % > 3 r s n S T Q } o.+.&.&.&.&.+.+.+.+.+.+.",
"+.+.+.+.+.+.+.&.&.&.+.+.} Q T S l i 8 , % @ +       X X @ & , w i l S T Q } +.&.&.&.&.+.+.+.+.+.+.+.",
"+.+.+.+.+.&.&.&.&.&.+.+.} Q T C l i 8 > & @ + X     X + @ & > 8 i l S T ) } +.+.&.&.&.+.+.+.+.+.+.+.",
"+.+.+.+.+.+.&.+.&.&.&.+.} ) T S n s r 3 > % $ @ + + @ $ % > 3 r d v S T Q } +.+.+.&.+.&.&.+.+.+.+.+.",
"+.+.+.+.+.+.+.&.&.&.+.+.} ) R H N l i w 3 , > & > & > , , 3 w i l C H T ) o.+.&.&.&.&.+.+.+.+.+.+.+.",
"+.+.+.+.+.+.&.&.&.&.+.+.o.) Q I S N k p y w 8 8 8 8 w w w y p l N S I Q ) o.+.+.&.&.+.&.+.+.+.+.+.+.",
">.>.>.>.+.+.&.+.&.&.+.+.o.} Q R I S N l k d s p i i p d d k v N S I R Q ) o.+.+.+.+.&.+.+.+.+.+.+.+.",
">.>.>.>.>.>.+.&.&.+.+.+.o.} ) Q T I H S N N N N n N n N C C S H I R Q ) } o.o.+.+.&.+.+.+.+.+.+.+.+.",
">.>.>.>.>.>.>.+.+.&.+.+.o.} } ) Q Q R T I I H I H H H I I T T R Q Q ) } o.o.+.+.+.+.&.+.+.+.+.+.+.+.",
">.>.>.>.>.>.>.>.+.+.+.+.o.o.o.o.} ) ) Q Q Q Q R Q R Q Q Q Q ) ) ) } } o.o.+.+.+.+.+.+.&.+.+.+.+.+.+.",
">.>.>.>.>.>.>.>.+.+.+.+.o.o.o.+.o.o.} o.o.} } } } } } } } } } } o.o.o.o.+.+.+.+.+.+.+.+.+.+.+.+.+.+.",
">.>.>.>.>.>.>.>.+.+.+.+.+.+.+.+.+.+.+.o.+.+.+.+.o.+.+.o.+.+.+.+.+.+.+.+.+.+.+.+.+.+.+.+.+.+.+.+.+.+.",
">.>.>.>.>.>.>.>.+.+.+.+.+.+.+.+.+.+.&.+.&.+.&.&.+.&.&.&.&.&.&.+.-.+.+.+.+.+.+.+.+.+.+.+.+.+.+.+.+.+.",
">.>.>.>.>.>.>.>.+.+.+.+.+.+.+.+.+.&.&.&.&.&.-.-.-.:.-.:.:.:.-.-.-.&.+.&.+.+.+.+.+.+.+.+.+.+.+.+.+.+.",
">.>.>.>.>.>.>.>.+.+.+.+.+.+.+.&.&.+.&.&.&.&.-.-.-.-.:.:.:.:.>.>.>.>.>.>.>.>.>.>.>.>.>.>.>.>.>.>.>.>.",
">.>.>.>.>.>.>.>.+.+.+.+.+.+.+.+.+.&.+.&.+.-.-.-.-.-.-.>.>.>.>.>.>.>.>.>.>.>.>.>.>.>.>.>.>.>.>.>.>.>.",
">.>.>.>.>.>.>.>.+.+.+.+.+.+.+.&.&.+.+.&.&.+.+.&.&.-.>.>.>.>.>.>.>.>.>.>.>.>.>.>.>.>.>.>.>.>.>.>.>.>.",
">.>.>.>.>.>.>.>.+.+.+.+.+.+.+.+.+.&.+.+.+.+.+.&.+.+.>.>.>.>.>.>.>.>.>.>.>.>.>.>.>.>.>.>.>.>.>.>.>.>.",
">.>.>.>.>.>.>.>.+.+.+.+.+.+.+.+.+.+.+.+.+.+.+.+.+.>.>.>.>.>.>.>.>.>.>.>.>.>.>.>.>.>.>.>.>.>.>.>.>.>.",
">.>.>.>.>.>.>.>.+.+.+.+.+.+.+.+.+.+.+.+.+.+.+.+.+.>.>.>.>.>.>.>.>.>.>.>.>.>.>.>.>.>.>.>.>.>.>.>.>.>.",
">.>.>.>.>.>.>.>.+.+.+.+.+.+.+.+.+.+.+.+.+.+.+.+.+.>.>.>.>.>.>.>.>.>.>.>.>.>.>.>.>.>.>.>.>.>.>.>.>.>.",
">.>.>.>.>.>.>.>.+.+.+.+.+.+.+.+.+.+.+.+.+.+.+.+.+.>.>.>.>.>.>.>.>.>.>.>.>.>.>.>.>.>.>.>.>.>.>.>.>.>.",
">.>.>.>.>.>.>.>.+.+.+.+.+.+.+.+.+.+.+.+.+.+.+.+.+.>.>.>.>.>.>.>.>.>.>.>.>.>.>.>.>.>.>.>.>.>.>.>.>.>."
};
