/* XPM */
static char *_[] = {
/* columns rows colors chars-per-pixel */
"50 38 2 1 ",
"  c #FDD179",
". c None",
/* pixels */
"            .........................             ",
"            .........................             ",
"             ........................             ",
"             ........................             ",
"             ........................             ",
"              .......................             ",
"                .....................             ",
"                 ....................             ",
"                  ...................             ",
"                   ..................             ",
"                   ..................             ",
"                   .................              ",
".                  ................               ",
".....              ..............                 ",
"......             .............                  ",
"......             .............                  ",
"......             ............                   ",
"......              ...........                   ",
"......               ..........                   ",
"......                 ........               ....",
"......                  .......              .....",
"......                  .......             ......",
".......                  ......             ......",
".......                  ......             ......",
"........                 ......             ......",
"..........               ......             ......",
"...........              ......             ......",
"............             ......             ......",
"............             .......           .......",
"............             .......           .......",
"............             ........         ........",
"............             ..........     ..........",
"............             .........................",
"............             .........................",
"............             .........................",
"............             .........................",
"............             .........................",
"............             ........................."
};
